<svg xmlns="http://www.w3.org/2000/svg" xmlns:xlink="http://www.w3.org/1999/xlink" width="81.311" height="81.311" viewBox="0 0 81.311 81.311">
  <defs>
    <clipPath id="clip-path">
      <rect id="Rectángulo_36624" data-name="Rectángulo 36624" width="81.311" height="81.311" fill="#fff" stroke="#707070" stroke-width="1"/>
    </clipPath>
  </defs>
  <g id="Grupo_85834" data-name="Grupo 85834" clip-path="url(#clip-path)">
    <g id="Grupo_85827" data-name="Grupo 85827" transform="translate(4.999 6.679)">
      <path id="Trazado_127306" data-name="Trazado 127306" d="M34.236-490.83H30.884c-.4-1.248-.633-1.411-1.991-1.411-2.46,0-4.92-.012-7.379,0a3.59,3.59,0,0,1-3.079-1.589,5.792,5.792,0,0,1-1.027-3.539q.008-12.145-.013-24.29c0-.681.131-.878.855-.878q29.482.035,58.964.019a1.709,1.709,0,0,0,.278,0c.455-.075.555.148.529.556-.031.485-.007.974-.007,1.461,0,3.828-.006,7.656.008,11.484,0,.452-.007.745-.607.665a1.538,1.538,0,0,0-1.308.36c-.946,1.063-1.9.668-2.893.156a.915.915,0,0,0-.256-.1c-.45-.076-.609-.3-.637-.789a3.047,3.047,0,0,0-3-3.042,16.136,16.136,0,0,0-3.128.038,2.6,2.6,0,0,0-2.482,2.182c-.131,1.361-.873,1.784-1.924,2.113a.811.811,0,0,0-.252.114c-.386.3-.655.189-1-.136a3.051,3.051,0,0,0-4.222-.073c-.72.655-1.409,1.349-2.068,2.065a2.749,2.749,0,0,0-.342,3.575c.931,1.013.58,1.792.131,2.718a1.523,1.523,0,0,0-.141.39c-.073.418-.313.513-.723.53a3.11,3.11,0,0,0-3.134,3.211c-.019.7-.041,1.394.008,2.087.04.557-.1.743-.7.733-2.389-.039-4.78-.018-7.17-.015-1.093,0-1.509.351-1.7,1.408H37.147c-.265-1.02-.691-1.423-1.491-1.409C34.888-492.225,34.472-491.813,34.236-490.83Zm9.513-22.715a1.34,1.34,0,0,0-1.353.784,1.337,1.337,0,0,0,.226,1.551c1,1.131,1.988,2.266,3.011,3.372.31.335.346.542.014.9-1.014,1.083-1.994,2.2-2.97,3.316a1.4,1.4,0,0,0,.033,2.051,1.408,1.408,0,0,0,2.043-.167q1.939-2.138,3.836-4.314A1.87,1.87,0,0,0,48.6-508.7c-1.263-1.452-2.554-2.879-3.836-4.314A1.332,1.332,0,0,0,43.749-513.545Zm-21.2,6.184a2.139,2.139,0,0,0,.593,1.381q1.832,2.047,3.656,4.1a1.453,1.453,0,0,0,2.13.334,1.448,1.448,0,0,0-.032-2.2c-.952-1.077-1.9-2.157-2.877-3.21-.3-.322-.306-.517,0-.846,1.01-1.087,1.99-2.2,2.965-3.318a1.412,1.412,0,0,0-.053-2.1,1.4,1.4,0,0,0-2.035.227c-1.274,1.411-2.53,2.838-3.795,4.256A2.039,2.039,0,0,0,22.553-507.36Zm16.067-5.623a1.429,1.429,0,0,0-1-1.565,1.4,1.4,0,0,0-1.793,1.172c-.33,1.324-.633,2.655-.947,3.982-.6,2.52-1.209,5.038-1.785,7.563a1.363,1.363,0,0,0,1.033,1.644,1.407,1.407,0,0,0,1.653-.938,3.768,3.768,0,0,0,.117-.4q.923-3.881,1.843-7.763C38.042-510.569,38.35-511.85,38.621-512.983Z" transform="translate(-14.609 543.877)" fill="#fcfcfc"/>
      <path id="Trazado_127307" data-name="Trazado 127307" d="M33.268-545.983c.192-1.057.608-1.407,1.7-1.408,2.39,0,4.781-.024,7.17.015.6.01.739-.175.7-.733-.049-.693-.027-1.392-.008-2.087a3.11,3.11,0,0,1,3.134-3.211c.411-.017.651-.112.723-.53a1.524,1.524,0,0,1,.141-.39c.449-.926.8-1.7-.131-2.718a2.749,2.749,0,0,1,.342-3.575c.66-.716,1.348-1.41,2.068-2.065a3.051,3.051,0,0,1,4.222.073c.349.325.618.432,1,.136a.808.808,0,0,1,.252-.114c1.051-.329,1.793-.751,1.924-2.113a2.6,2.6,0,0,1,2.482-2.182,16.136,16.136,0,0,1,3.128-.038,3.047,3.047,0,0,1,3,3.042c.028.489.187.713.637.789a.916.916,0,0,1,.256.1c.993.513,1.946.908,2.893-.156a1.538,1.538,0,0,1,1.308-.36c.6.08.609-.213.607-.665-.013-3.828-.008-7.656-.008-11.484,0-.487-.024-.976.007-1.461.026-.408-.074-.63-.529-.556a1.722,1.722,0,0,1-.278,0q-29.482,0-58.964-.019c-.724,0-.857.2-.855.878q.038,12.145.013,24.29a5.792,5.792,0,0,0,1.027,3.539,3.59,3.59,0,0,0,3.079,1.589c2.459-.016,4.92,0,7.379,0,1.358,0,1.588.163,1.991,1.411-.322,1.108-.686,1.386-1.829,1.387-2.414,0-4.831-.078-7.241.018-4.084.164-6.565-3.036-7.074-6.146a10.228,10.228,0,0,1-.132-1.662q0-19.422,0-38.844a7.906,7.906,0,0,1,2.8-6.4,5.805,5.805,0,0,1,3.833-1.4q26.493,0,52.987.005a6.811,6.811,0,0,1,6.377,5.615,11.684,11.684,0,0,1,.229,2.558q0,14.306-.01,28.611a1.544,1.544,0,0,0,.5,1.214,3.109,3.109,0,0,1,.158,4.731c-.22.244-.287.43-.108.709a2.056,2.056,0,0,1,.235.5c.313,1.011.671,1.753,2.025,1.843a2.792,2.792,0,0,1,2.27,2.867c.023.881.02,1.764,0,2.645a3.1,3.1,0,0,1-3.088,3.113c-.5.007-.712.169-.8.618a1.455,1.455,0,0,1-.165.456,1.87,1.87,0,0,0,.146,2.528,2.81,2.81,0,0,1-.34,3.641c-.627.684-1.285,1.341-1.965,1.973a3.085,3.085,0,0,1-4.332-.027c-.31-.293-.558-.445-.933-.15a1.058,1.058,0,0,1-.378.171A2.091,2.091,0,0,0,65-533.331a2.822,2.822,0,0,1-2.828,2.238c-.835.027-1.671.012-2.506.007a3.113,3.113,0,0,1-3.3-3.118c-.022-.445-.141-.689-.574-.767a.694.694,0,0,1-.2-.059c-1-.53-1.868-.878-2.967.1-.923.821-2.5.489-3.462-.381-.721-.654-1.418-1.34-2.071-2.062a3.056,3.056,0,0,1,.075-4.275.672.672,0,0,0,.155-.942,6.55,6.55,0,0,1-.612-1.469c-.122-.45-.34-.548-.777-.546-3.667.018-7.334.013-11,.009A1.452,1.452,0,0,1,33.268-545.983Zm7.214-34.5H69.853c.186,0,.372-.013.557,0,.3.024.408-.094.407-.4-.019-3.757.059-7.518-.073-11.271a4.1,4.1,0,0,0-4.437-4.079H51.551q-18.549,0-37.1-.008a3.659,3.659,0,0,0-2.911,1.216,5.392,5.392,0,0,0-1.326,3.71c-.008,3.363.017,6.727-.02,10.09-.007.637.183.751.775.75Q25.726-580.5,40.481-580.487Zm10.736,19.825c-.09.027-.173.027-.219.069-.289.266-.575.537-.853.815-1.213,1.208-1.212,1.209-.04,2.426a1.454,1.454,0,0,1,.278,2.111,12.5,12.5,0,0,0-1.336,3.189c-.289,1.13-.692,1.442-1.86,1.45-1.536.011-1.536.011-1.536,1.548,0,1.652,0,1.652,1.654,1.662,1.061.006,1.474.312,1.727,1.33a12.026,12.026,0,0,0,1.281,3.137c.624,1.08.57,1.521-.294,2.385-1.071,1.071-1.071,1.071-.012,2.13,1.2,1.2,1.2,1.2,2.377.044l.049-.049a1.431,1.431,0,0,1,2.057-.257,12.5,12.5,0,0,0,3.185,1.346c1.223.317,1.492.686,1.5,1.961.012,1.689-.2,1.475,1.476,1.483,1.719.008,1.719,0,1.741-1.722a1.442,1.442,0,0,1,1.311-1.665,12.68,12.68,0,0,0,3.2-1.31c1.058-.623,1.47-.569,2.331.282,1.109,1.1,1.109,1.1,2.184.018,1.179-1.182,1.179-1.182,0-2.382a1.443,1.443,0,0,1-.267-2.107,12.668,12.668,0,0,0,1.339-3.189c.311-1.188.657-1.431,1.922-1.435,1.683,0,1.491.165,1.5-1.48,0-1.684,0-1.684-1.709-1.73a1.475,1.475,0,0,1-1.639-1.278,12.958,12.958,0,0,0-1.336-3.266c-.627-1.059-.554-1.484.328-2.384,1.21-1.234,1.2-.876.017-2.079-1.207-1.224-1.214-1.217-2.426-.049a1.465,1.465,0,0,1-2.113.266,12.43,12.43,0,0,0-3.388-1.394,1.482,1.482,0,0,1-1.322-1.678c-.036-1.653-.036-1.653-1.639-1.653-1.57,0-1.57,0-1.58,1.585-.007,1.14-.291,1.5-1.417,1.8a12.25,12.25,0,0,0-2.763,1.11c-1.555.858-1.715.833-2.984-.428-.148-.147-.292-.3-.448-.437A1.874,1.874,0,0,0,51.217-560.662Z" transform="translate(-7.411 599.03)" fill="#020303"/>
      <path id="Trazado_127308" data-name="Trazado 127308" d="M77.748-412.564c.236-.983.652-1.4,1.42-1.408.8-.014,1.226.39,1.491,1.409a1.516,1.516,0,0,1-1.182,1.358,1.377,1.377,0,0,1-1.36-.481A1.92,1.92,0,0,1,77.748-412.564Z" transform="translate(-58.121 465.611)" fill="#060606"/>
      <path id="Trazado_127309" data-name="Trazado 127309" d="M107.951-490.329a1.332,1.332,0,0,1,1.016.531c1.282,1.435,2.573,2.863,3.836,4.314a1.87,1.87,0,0,1-.012,2.644q-1.894,2.178-3.836,4.314a1.408,1.408,0,0,1-2.043.167,1.4,1.4,0,0,1-.033-2.051c.976-1.118,1.956-2.232,2.97-3.316.332-.355.3-.562-.014-.9-1.023-1.107-2.015-2.241-3.011-3.372a1.338,1.338,0,0,1-.226-1.551A1.34,1.34,0,0,1,107.951-490.329Z" transform="translate(-78.811 520.662)" fill="#030303"/>
      <path id="Trazado_127310" data-name="Trazado 127310" d="M35.881-484.182a2.039,2.039,0,0,1,.552-1.375c1.265-1.419,2.521-2.845,3.795-4.256a1.4,1.4,0,0,1,2.035-.227,1.412,1.412,0,0,1,.053,2.1c-.976,1.117-1.956,2.231-2.965,3.318-.306.329-.3.524,0,.846.977,1.054,1.926,2.134,2.877,3.21a1.448,1.448,0,0,1,.032,2.2,1.453,1.453,0,0,1-2.13-.334q-1.83-2.048-3.656-4.1A2.139,2.139,0,0,1,35.881-484.182Z" transform="translate(-27.937 520.699)" fill="#030303"/>
      <path id="Trazado_127311" data-name="Trazado 127311" d="M79.082-492.53c-.271,1.133-.579,2.415-.883,3.7q-.922,3.881-1.843,7.763a3.772,3.772,0,0,1-.117.4,1.407,1.407,0,0,1-1.653.938,1.363,1.363,0,0,1-1.033-1.644c.576-2.525,1.188-5.043,1.785-7.563.315-1.328.617-2.659.947-3.983a1.4,1.4,0,0,1,1.793-1.172A1.429,1.429,0,0,1,79.082-492.53Z" transform="translate(-55.07 523.424)" fill="#040404"/>
      <path id="Trazado_127312" data-name="Trazado 127312" d="M47.676-573.279q-14.756,0-29.511.013c-.591,0-.782-.113-.775-.75.037-3.363.012-6.726.02-10.09a5.392,5.392,0,0,1,1.326-3.71,3.658,3.658,0,0,1,2.911-1.216q18.549.019,37.1.008H73.5a4.1,4.1,0,0,1,4.437,4.079c.131,3.753.053,7.514.073,11.271,0,.3-.109.422-.407.4-.184-.015-.371,0-.557,0Zm14.914-3.1v.006c2.042,0,4.084.015,6.126,0a4.7,4.7,0,0,0,4.812-4.717,4.7,4.7,0,0,0-4.819-4.712c-4.084-.023-8.169-.011-12.253,0a4.675,4.675,0,0,0-3.134,1.143,4.665,4.665,0,0,0-1.394,5.112,4.688,4.688,0,0,0,4.327,3.165C58.366-576.347,60.478-576.377,62.59-576.377Zm-30.255-4.646a4.711,4.711,0,0,0-4.665-4.783,4.718,4.718,0,0,0-4.725,4.583,4.7,4.7,0,0,0,4.594,4.847A4.7,4.7,0,0,0,32.335-581.023Zm12.218-.029a4.731,4.731,0,0,0-4.7-4.754,4.759,4.759,0,0,0-4.72,4.681,4.752,4.752,0,0,0,4.718,4.749A4.723,4.723,0,0,0,44.553-581.051Z" transform="translate(-14.606 591.822)" fill="#8ea6b9"/>
      <path id="Trazado_127313" data-name="Trazado 127313" d="M150.018-470.458a1.854,1.854,0,0,1,.277.173c.157.138.3.29.448.437,1.269,1.262,1.429,1.286,2.984.428a12.239,12.239,0,0,1,2.763-1.11c1.126-.3,1.411-.658,1.417-1.8.01-1.585.01-1.585,1.58-1.585,1.6,0,1.6,0,1.639,1.653a1.483,1.483,0,0,0,1.322,1.678,12.424,12.424,0,0,1,3.388,1.394,1.465,1.465,0,0,0,2.113-.266c1.212-1.168,1.219-1.175,2.426.049,1.186,1.2,1.193.845-.017,2.08-.882.9-.955,1.324-.328,2.383a12.96,12.96,0,0,1,1.335,3.266,1.475,1.475,0,0,0,1.639,1.278c1.71.045,1.714.045,1.709,1.73,0,1.644.188,1.475-1.5,1.48-1.265,0-1.611.247-1.922,1.435a12.668,12.668,0,0,1-1.339,3.189,1.443,1.443,0,0,0,.267,2.107c1.176,1.2,1.176,1.2,0,2.383-1.075,1.078-1.075,1.078-2.184-.018-.861-.851-1.272-.9-2.331-.282a12.681,12.681,0,0,1-3.2,1.31,1.442,1.442,0,0,0-1.311,1.665c-.022,1.723-.022,1.73-1.741,1.722-1.681-.008-1.464.206-1.476-1.483-.009-1.276-.278-1.645-1.5-1.961a12.505,12.505,0,0,1-3.185-1.346,1.431,1.431,0,0,0-2.057.257l-.049.049c-1.18,1.154-1.18,1.154-2.377-.044-1.059-1.058-1.059-1.058.012-2.13.864-.864.918-1.305.294-2.385a12.027,12.027,0,0,1-1.281-3.137c-.253-1.018-.666-1.324-1.727-1.33-1.654-.01-1.654-.01-1.654-1.662,0-1.537,0-1.537,1.536-1.548,1.169-.008,1.572-.32,1.86-1.45a12.51,12.51,0,0,1,1.336-3.189,1.454,1.454,0,0,0-.278-2.111c-1.172-1.218-1.173-1.219.04-2.426.279-.278.564-.549.853-.815C149.844-470.431,149.928-470.431,150.018-470.458Zm9.562,3.089A8.561,8.561,0,0,0,151-458.795a8.606,8.606,0,0,0,8.533,8.569,8.638,8.638,0,0,0,8.628-8.559A8.6,8.6,0,0,0,159.58-467.368Z" transform="translate(-106.212 508.825)" fill="#d1f1f8"/>
      <path id="Trazado_127314" data-name="Trazado 127314" d="M151.143-568.068c-2.112,0-4.224.03-6.335-.008a4.688,4.688,0,0,1-4.327-3.165,4.665,4.665,0,0,1,1.394-5.111,4.675,4.675,0,0,1,3.134-1.143c4.084-.01,8.169-.021,12.253,0a4.7,4.7,0,0,1,4.819,4.712,4.7,4.7,0,0,1-4.812,4.717c-2.042.019-4.084,0-6.126,0Zm.03-6.611c-2.062,0-4.124-.022-6.186.008a1.9,1.9,0,0,0-1.965,1.912,1.9,1.9,0,0,0,1.934,1.88c4.123.026,8.247.02,12.371.005a1.849,1.849,0,0,0,1.8-1.182,1.891,1.891,0,0,0-1.913-2.62C155.2-574.7,153.188-574.682,151.173-574.679Z" transform="translate(-103.159 583.514)" fill="#020202"/>
      <path id="Trazado_127315" data-name="Trazado 127315" d="M46.682-572.687a4.7,4.7,0,0,1-4.8,4.647,4.7,4.7,0,0,1-4.594-4.847,4.718,4.718,0,0,1,4.725-4.583A4.711,4.711,0,0,1,46.682-572.687Zm-2.809-.079a1.89,1.89,0,0,0-1.9-1.881,1.9,1.9,0,0,0-1.877,1.913A1.923,1.923,0,0,0,42-570.846,1.912,1.912,0,0,0,43.874-572.767Z" transform="translate(-28.953 583.487)" fill="#020202"/>
      <path id="Trazado_127316" data-name="Trazado 127316" d="M90.384-572.714a4.722,4.722,0,0,1-4.707,4.676,4.752,4.752,0,0,1-4.718-4.748,4.759,4.759,0,0,1,4.72-4.681A4.731,4.731,0,0,1,90.384-572.714ZM83.8-572.72a1.9,1.9,0,0,0,1.914,1.877,1.943,1.943,0,0,0,1.874-1.934,1.918,1.918,0,0,0-1.931-1.866A1.882,1.882,0,0,0,83.8-572.72Z" transform="translate(-60.436 583.484)" fill="#020202"/>
      <path id="Trazado_127317" data-name="Trazado 127317" d="M176.5-450.462a8.6,8.6,0,0,1,8.584,8.584,8.638,8.638,0,0,1-8.628,8.559,8.606,8.606,0,0,1-8.533-8.569A8.561,8.561,0,0,1,176.5-450.462Zm-5.761,8.584a5.776,5.776,0,0,0,5.762,5.749,5.812,5.812,0,0,0,5.77-5.759,5.768,5.768,0,0,0-5.814-5.766A5.736,5.736,0,0,0,170.744-441.878Z" transform="translate(-123.137 491.919)" fill="#030303"/>
      <path id="Trazado_127318" data-name="Trazado 127318" d="M158.419-567.395c2.016,0,4.031-.02,6.047.005a1.891,1.891,0,0,1,1.913,2.62,1.848,1.848,0,0,1-1.8,1.182c-4.124.014-8.248.021-12.371-.005a1.9,1.9,0,0,1-1.934-1.88,1.9,1.9,0,0,1,1.965-1.912C154.294-567.416,156.357-567.394,158.419-567.395Z" transform="translate(-110.405 576.228)" fill="#ceedf4"/>
      <path id="Trazado_127319" data-name="Trazado 127319" d="M51.113-565.474a1.912,1.912,0,0,1-1.873,1.921,1.923,1.923,0,0,1-1.908-1.889,1.9,1.9,0,0,1,1.877-1.913A1.89,1.89,0,0,1,51.113-565.474Z" transform="translate(-36.192 576.194)" fill="#d0eff6"/>
      <path id="Trazado_127320" data-name="Trazado 127320" d="M91.125-565.425a1.882,1.882,0,0,1,1.857-1.924,1.918,1.918,0,0,1,1.931,1.866,1.943,1.943,0,0,1-1.874,1.934A1.9,1.9,0,0,1,91.125-565.425Z" transform="translate(-67.765 576.189)" fill="#c976a3"/>
      <path id="Trazado_127321" data-name="Trazado 127321" d="M178.018-434.622a5.736,5.736,0,0,1,5.718-5.776,5.768,5.768,0,0,1,5.814,5.766,5.812,5.812,0,0,1-5.769,5.759A5.776,5.776,0,0,1,178.018-434.622Z" transform="translate(-130.411 484.663)" fill="#fdfdfd"/>
    </g>
  </g>
</svg>
