<svg xmlns="http://www.w3.org/2000/svg" xmlns:xlink="http://www.w3.org/1999/xlink" width="81.311" height="81.311" viewBox="0 0 81.311 81.311">
  <defs>
    <clipPath id="clip-path">
      <rect id="Rectángulo_36625" data-name="Rectángulo 36625" width="81.311" height="81.311" fill="#fff" stroke="#707070" stroke-width="1"/>
    </clipPath>
  </defs>
  <g id="Grupo_85836" data-name="Grupo 85836" clip-path="url(#clip-path)">
    <g id="Grupo_85828" data-name="Grupo 85828" transform="translate(5.157 5.163)">
      <path id="Trazado_127322" data-name="Trazado 127322" d="M367.854-519.034c-6.057,0-12.114.013-18.171,0a8.02,8.02,0,0,1-8.138-7.868,3.371,3.371,0,0,1,2.835-3.5c.549-.09.6-.286.6-.75q-.018-12.59-.009-25.179c0-3.817,2.377-6.19,6.2-6.191q12.591,0,25.182.006c.465,0,.748-.034.9-.6a3.231,3.231,0,0,1,1.994-2.1,1.658,1.658,0,0,0,1.009-2.358,2.427,2.427,0,0,1-.267-1.172c.08-.644-.256-.649-.738-.646-3.2.016-6.391,0-9.586.021-.509,0-.681-.084-.674-.645.036-2.647.006-5.293.026-7.94,0-.447-.087-.6-.573-.6q-5.151.035-10.3,0c-.551,0-.594.2-.59.653.019,2.647,0,5.294.02,7.94,0,.458-.1.592-.579.59q-7.44-.028-14.88,0c-.461,0-.589-.109-.588-.581q.025-9.728,0-19.457c0-.464.114-.587.583-.586q7.44.027,14.88,0c.468,0,.588.12.584.585-.023,2.67,0,5.341-.023,8.011,0,.473.128.584.589.581q5.151-.03,10.3,0c.478,0,.582-.137.578-.592-.022-2.646.008-5.294-.026-7.94-.007-.553.152-.651.669-.649q7.368.031,14.737,0c.556,0,.652.157.647.671-.027,2.623,0,5.246-.023,7.869,0,.465.061.651.6.646q5.151-.042,10.3,0c.5,0,.57-.165.567-.6-.019-2.623,0-5.246-.02-7.868,0-.521.079-.718.675-.715q7.368.043,14.737.005c.476,0,.64.079.638.6q-.031,9.693,0,19.385c0,.583-.2.638-.684.634-2.456-.022-4.913,0-7.368-.021-.455,0-.7.04-.649.588a2.6,2.6,0,0,1-.246,1.179,1.67,1.67,0,0,0,.989,2.417,3.494,3.494,0,0,1,2.218,3.363,4.969,4.969,0,0,1-.459,2.778,3.731,3.731,0,0,1-1.8,1.558,1.653,1.653,0,0,0-.986,2.313,3.568,3.568,0,0,1-.815,4.068c-1.021,1.091-2.129,1.911-3.736,1.661a4.34,4.34,0,0,1-.952-.286,1.65,1.65,0,0,0-2.241.907,3.572,3.572,0,0,1-3.694,2.36c-1.338-.021-1.339,0-1.339,1.35,0,4.673.005,9.347-.009,14.02,0,.434.038.624.562.711a3.5,3.5,0,0,1,2.846,4.183,8.024,8.024,0,0,1-8.136,7.2C379.968-519.024,373.911-519.034,367.854-519.034ZM367.8-530.48c6.676,0,13.351-.007,20.027.013.534,0,.662-.126.661-.661q-.028-12.731-.015-25.461a3.439,3.439,0,0,0-3.686-3.648q-16.916,0-33.832,0a3.441,3.441,0,0,0-3.686,3.718q0,12.659-.016,25.318c0,.594.138.737.734.735C354.587-530.489,361.192-530.48,367.8-530.48Zm.027,9.156q9.119,0,18.238,0a5.735,5.735,0,0,0,5.81-5.048c.182-1.3-.261-1.815-1.58-1.816-4.53,0-9.06.018-13.589-.019-.711-.006-.849.194-.838.863a3.425,3.425,0,0,1-3.732,3.733q-4.148,0-8.3,0c-2.642,0-3.976-1.3-3.965-3.931,0-.547-.151-.662-.675-.659-4.553.021-9.107.012-13.66.012-1.446,0-1.888.52-1.648,1.939a5.722,5.722,0,0,0,5.841,4.926Q358.775-521.314,367.823-521.324Zm11.712-41.2c1.227,0,2.366-.055,3.5.02.726.048.983-.171,1.161-.886a7.957,7.957,0,0,1,8.4-5.978,8.075,8.075,0,0,1,7.307,7.382,8.015,8.015,0,0,1-8.6,8.579c-.458-.034-.561.05-.55.494.029,1.192.01,2.384.01,3.576,0,.187-.015.356.211.473a2.2,2.2,0,0,0,2.765-.994,3.9,3.9,0,0,1,5.005-2.074,1.65,1.65,0,0,0,2.031-.485,1.731,1.731,0,0,0,.583-2.134,3.84,3.84,0,0,1,2.083-4.987,1.64,1.64,0,0,0,1.074-1.789c0-.853-.127-1.51-1.041-1.883a3.847,3.847,0,0,1-2.11-5.036,1.6,1.6,0,0,0-.465-1.971c-.616-.609-1.168-1.031-2.121-.628a3.837,3.837,0,0,1-5.04-2.1,1.647,1.647,0,0,0-1.806-1.047,1.682,1.682,0,0,0-1.865,1.069,3.837,3.837,0,0,1-4.984,2.093A1.683,1.683,0,0,0,383-570.3a1.689,1.689,0,0,0-.546,2.078,3.891,3.891,0,0,1-2.062,5.01A1.316,1.316,0,0,0,379.535-562.526Zm-24.258-17.1c0-2.5-.012-5.006.011-7.508,0-.464-.116-.59-.585-.587q-5.149.031-10.3,0c-.466,0-.587.118-.586.585q.027,7.436,0,14.873c0,.464.115.59.584.587q5.149-.031,10.3,0c.466,0,.591-.118.586-.585C355.264-574.712,355.277-577.168,355.277-579.623ZM371.3-579.7c0,2.479.012,4.958-.011,7.436,0,.456.1.6.579.592,2.431-.026,4.863-.034,7.293,0,1.148.015,2.288.107,3.059-.995a.236.236,0,0,1,.115-.083c.4-.131.417-.434.416-.793q-.014-6.793,0-13.585c0-.462-.111-.592-.583-.589q-5.148.032-10.3,0c-.461,0-.594.109-.589.582C371.315-584.657,371.3-582.178,371.3-579.7Zm38.918,0q0-3.719,0-7.438c0-.3.09-.589-.433-.585-3.528.024-7.057.018-10.586.005-.351,0-.434.108-.434.444q.015,6.795,0,13.589c0,.27,0,.448.375.4a3.448,3.448,0,0,1,3.124,1.226,1.132,1.132,0,0,0,.937.38c2.146-.016,4.292-.022,6.437,0,.466.005.592-.116.587-.585C410.207-574.736,410.22-577.216,410.22-579.7ZM390.6-558.169a5.922,5.922,0,0,1,.157,1.71c-.09.62.227.752.752.791a5.738,5.738,0,0,0,5.985-6.951,5.74,5.74,0,0,0-5.408-4.483,5.735,5.735,0,0,0-5.687,4.22c-.07.27-.156.517.228.606a6.788,6.788,0,0,1,1.8.853c.43-2.378,2.084-3.727,4.07-3.344a3.473,3.473,0,0,1,2.8,4.006A3.523,3.523,0,0,1,390.6-558.169Zm5.889-14.983c0-1.72-.008-3.362.007-5,0-.312-.086-.4-.4-.4q-5.327.016-10.653,0c-.3,0-.411.073-.408.395.016,1.525.006,3.05.009,4.575,0,.135-.033.277.134.37,1.127.628,2.4.446,2.871-.754a3.449,3.449,0,0,1,2.809-2.253,8.718,8.718,0,0,1,1.5-.035,3.48,3.48,0,0,1,3.4,2.251A1.332,1.332,0,0,0,396.484-573.152Zm-28.616,44.961c-1.74,0-3.48,0-5.219.007-.178,0-.417-.129-.508.212a1.494,1.494,0,0,0,1.58,2.07q4.075,0,8.151,0c1.408,0,1.715-.328,1.732-1.711.006-.466-.118-.6-.587-.589C371.3-528.174,369.584-528.191,367.868-528.191Zm23.982-32.048a1.159,1.159,0,0,0,1.2-1.071A1.157,1.157,0,0,0,392-562.524a1.153,1.153,0,0,0-1.234,1.1A1.155,1.155,0,0,0,391.85-560.239Z" transform="translate(-341.53 590.012)" fill="#010101"/>
      <path id="Trazado_127323" data-name="Trazado 127323" d="M382.027-456.4c-6.6,0-13.209-.009-19.813.015-.6,0-.735-.141-.734-.735q.033-12.659.016-25.318a3.441,3.441,0,0,1,3.686-3.718q16.916,0,33.832,0a3.439,3.439,0,0,1,3.686,3.648q.006,12.731.015,25.461c0,.535-.127.662-.661.661C395.379-456.409,388.7-456.4,382.027-456.4Zm.052-27.469q-7.834,0-15.667,0a2.344,2.344,0,0,0-2.627,2.646q0,9.943,0,19.886a2.335,2.335,0,0,0,2.629,2.646q15.667,0,31.334,0a2.349,2.349,0,0,0,2.664-2.684q0-9.907,0-19.814a2.346,2.346,0,0,0-2.666-2.681Z" transform="translate(-355.761 515.934)" fill="#ccd0d7"/>
      <path id="Trazado_127324" data-name="Trazado 127324" d="M373.533-367.559q-9.048,0-18.095,0a5.722,5.722,0,0,1-5.841-4.926c-.24-1.418.2-1.938,1.648-1.939,4.554,0,9.107.009,13.66-.012.523,0,.677.112.675.659-.011,2.63,1.323,3.931,3.965,3.931q4.148,0,8.3,0a3.425,3.425,0,0,0,3.732-3.733c-.011-.67.127-.869.838-.863,4.529.038,9.059.019,13.589.019,1.32,0,1.762.511,1.58,1.816a5.735,5.735,0,0,1-5.81,5.048Q382.652-367.546,373.533-367.559Z" transform="translate(-347.241 436.248)" fill="#969ea8"/>
      <path id="Trazado_127325" data-name="Trazado 127325" d="M474.093-522.665a1.315,1.315,0,0,1,.854-.69,3.891,3.891,0,0,0,2.062-5.01,1.689,1.689,0,0,1,.546-2.078,1.683,1.683,0,0,1,2.083-.525,3.837,3.837,0,0,0,4.984-2.093,1.682,1.682,0,0,1,1.865-1.068,1.647,1.647,0,0,1,1.807,1.047,3.837,3.837,0,0,0,5.04,2.1c.953-.4,1.506.019,2.122.628a1.6,1.6,0,0,1,.465,1.971,3.847,3.847,0,0,0,2.11,5.036c.914.373,1.038,1.03,1.041,1.883A1.64,1.64,0,0,1,498-519.679a3.84,3.84,0,0,0-2.083,4.987,1.73,1.73,0,0,1-.583,2.134,1.649,1.649,0,0,1-2.031.485A3.9,3.9,0,0,0,488.295-510a2.2,2.2,0,0,1-2.766.994c-.226-.117-.211-.285-.211-.473,0-1.192.019-2.385-.01-3.576-.011-.444.092-.528.55-.494a8.015,8.015,0,0,0,8.6-8.579,8.075,8.075,0,0,0-7.307-7.382,7.957,7.957,0,0,0-8.4,5.978c-.177.715-.434.934-1.161.886C476.459-522.72,475.32-522.665,474.093-522.665Z" transform="translate(-436.088 550.151)" fill="#f4c54e"/>
      <path id="Trazado_127326" data-name="Trazado 127326" d="M360.974-573.914c0,2.455-.013,4.91.012,7.365,0,.468-.12.588-.586.585q-5.149-.03-10.3,0c-.469,0-.586-.123-.584-.587q.026-7.437,0-14.873c0-.467.12-.588.586-.585q5.148.03,10.3,0c.469,0,.589.123.585.587C360.962-578.92,360.974-576.417,360.974-573.914Zm-5.758-3.506H357c1.713,0,1.694,0,1.695-1.753,0-.445-.113-.556-.553-.548-1.524.029-3.049.011-4.574.011-1.818,0-1.805,0-1.764,1.824.009.375.107.483.479.473C353.262-577.436,354.239-577.42,355.216-577.42Zm-.024,4.578h1.787c1.731,0,1.709,0,1.721-1.728,0-.492-.159-.578-.6-.571-1.524.025-3.049.01-4.574.01-1.731,0-1.709,0-1.72,1.728,0,.492.158.585.6.571C353.333-572.864,354.262-572.842,355.191-572.842Zm.1,2.289H353.5c-1.715,0-1.7,0-1.7,1.75,0,.438.1.56.549.551,1.524-.03,3.049-.012,4.574-.012,1.82,0,1.808,0,1.767-1.821-.008-.369-.1-.487-.476-.477C357.243-570.535,356.266-570.553,355.289-570.553Z" transform="translate(-347.227 584.304)" fill="#e5e8eb"/>
      <path id="Trazado_127327" data-name="Trazado 127327" d="M445.346-573.992c0-2.478.013-4.957-.012-7.436,0-.473.128-.585.589-.582q5.149.03,10.3,0c.472,0,.584.127.583.589q-.027,6.792,0,13.585c0,.359-.019.661-.416.793a.238.238,0,0,0-.115.083c-.771,1.1-1.911,1.01-3.059.995-2.431-.031-4.862-.023-7.293,0-.478,0-.583-.136-.579-.592C445.358-569.034,445.346-571.513,445.346-573.992Zm5.685-3.429h1.787c1.715,0,1.7,0,1.7-1.749,0-.438-.1-.56-.549-.551-1.524.03-3.049.012-4.574.012-1.82,0-1.808,0-1.767,1.821.008.369.1.487.476.477C449.077-577.438,450.054-577.421,451.031-577.421Zm.1,4.578h1.644c1.773,0,1.75,0,1.746-1.776,0-.484-.182-.526-.578-.521-1.524.02-3.049.008-4.574.008-1.772,0-1.75,0-1.746,1.776,0,.484.181.531.578.521C449.175-572.859,450.152-572.842,451.129-572.842Zm-.074,4.578h1.715c1.774,0,1.752,0,1.749-1.773,0-.479-.173-.53-.575-.525-1.524.021-3.049.008-4.574.008-1.774,0-1.752,0-1.749,1.773,0,.479.172.536.575.525C449.148-568.282,450.1-568.264,451.054-568.264Z" transform="translate(-415.574 584.304)" fill="#e5e8eb"/>
      <path id="Trazado_127328" data-name="Trazado 127328" d="M552.626-573.99c0,2.479-.013,4.959.012,7.438,0,.469-.121.591-.587.585-2.145-.026-4.292-.019-6.437,0a1.132,1.132,0,0,1-.937-.38,3.448,3.448,0,0,0-3.124-1.226c-.372.049-.375-.13-.375-.4q.006-6.794,0-13.589c0-.336.083-.445.434-.444,3.529.012,7.057.019,10.586-.005.523,0,.433.287.433.585Q552.626-577.71,552.626-573.99Zm-5.788-3.433h1.787c1.763,0,1.747,0,1.724-1.794-.006-.414-.128-.509-.521-.5-1.524.022-3.049.009-4.574.009-1.884,0-1.872,0-1.795,1.865.015.351.116.437.449.43C544.884-577.436,545.861-577.423,546.837-577.423Zm.032,4.578h1.715c1.783,0,1.765,0,1.765-1.754,0-.448-.119-.554-.555-.546-1.524.028-3.049.011-4.574.011-1.817,0-1.8,0-1.763,1.826.008.378.112.481.481.472C544.915-572.861,545.892-572.845,546.869-572.845Zm.086,4.578H548.6c1.815,0,1.8,0,1.751-1.84-.011-.4-.154-.458-.5-.455-1.548.014-3.1.006-4.645.006-1.815,0-1.8,0-1.751,1.84.01.4.154.461.5.455C544.953-568.278,545.954-568.267,546.955-568.267Z" transform="translate(-483.936 584.307)" fill="#e5e8eb"/>
      <path id="Trazado_127329" data-name="Trazado 127329" d="M502.067-501.173a3.523,3.523,0,0,0,4.69-2.593,3.473,3.473,0,0,0-2.8-4.006c-1.986-.383-3.64.966-4.07,3.344a6.783,6.783,0,0,0-1.8-.853c-.384-.088-.3-.335-.228-.606a5.735,5.735,0,0,1,5.687-4.22,5.74,5.74,0,0,1,5.408,4.483,5.738,5.738,0,0,1-5.985,6.951c-.525-.039-.841-.17-.752-.791A5.918,5.918,0,0,0,502.067-501.173Z" transform="translate(-453.001 533.016)" fill="#f1d37c"/>
      <path id="Trazado_127330" data-name="Trazado 127330" d="M504.714-544.652a1.331,1.331,0,0,1-.728-.856,3.48,3.48,0,0,0-3.4-2.251,8.73,8.73,0,0,0-1.5.035,3.449,3.449,0,0,0-2.809,2.253c-.47,1.2-1.744,1.382-2.871.754-.167-.093-.134-.234-.134-.369,0-1.525.007-3.051-.009-4.575,0-.322.1-.4.408-.395q5.326.014,10.653,0c.314,0,.4.09.4.4C504.706-548.013,504.714-546.371,504.714-544.652Z" transform="translate(-449.759 561.512)" fill="#f6f8f9"/>
      <path id="Trazado_127331" data-name="Trazado 127331" d="M418.933-374.421c1.716,0,3.432.018,5.148-.011.469-.008.593.123.587.589-.016,1.383-.324,1.711-1.732,1.711q-4.076,0-8.151,0a1.494,1.494,0,0,1-1.58-2.07c.091-.341.33-.211.508-.212C415.453-374.425,417.193-374.421,418.933-374.421Z" transform="translate(-392.595 436.242)" fill="#f4d57e"/>
      <path id="Trazado_127332" data-name="Trazado 127332" d="M514.338-491.857a1.155,1.155,0,0,1-1.088-1.181,1.152,1.152,0,0,1,1.234-1.1,1.156,1.156,0,0,1,1.052,1.214A1.159,1.159,0,0,1,514.338-491.857Z" transform="translate(-464.018 521.63)" fill="#ebedee"/>
      <path id="Trazado_127333" data-name="Trazado 127333" d="M387.811-478.176h15.667a2.346,2.346,0,0,1,2.666,2.681q0,9.907,0,19.814A2.349,2.349,0,0,1,403.48-453q-15.667,0-31.334,0a2.335,2.335,0,0,1-2.629-2.646q0-9.943,0-19.886a2.344,2.344,0,0,1,2.627-2.646Q379.978-478.177,387.811-478.176Zm.019,2.289c-5.125,0-10.25.009-15.375-.013-.534,0-.664.125-.663.661q.03,9.654,0,19.307c0,.538.132.661.664.66q15.375-.026,30.75,0c.533,0,.665-.125.663-.661q-.031-9.653,0-19.307c0-.538-.132-.663-.664-.661C398.08-475.878,392.955-475.887,387.83-475.887Z" transform="translate(-361.492 510.239)"/>
      <path id="Trazado_127334" data-name="Trazado 127334" d="M360.886-571.726c-.977,0-1.954-.016-2.93.008-.372.01-.471-.1-.479-.473-.041-1.824-.054-1.824,1.764-1.824,1.525,0,3.05.018,4.574-.011.44-.008.553.1.553.548,0,1.752.018,1.752-1.695,1.752Z" transform="translate(-352.897 578.61)"/>
      <path id="Trazado_127335" data-name="Trazado 127335" d="M360.879-555.753c-.929,0-1.859-.022-2.787.009-.443.015-.6-.079-.6-.57.012-1.728-.011-1.728,1.721-1.728,1.525,0,3.05.016,4.574-.009.442-.008.6.079.6.571-.012,1.728.011,1.728-1.721,1.728Z" transform="translate(-352.915 567.215)"/>
      <path id="Trazado_127336" data-name="Trazado 127336" d="M360.981-542.073c.977,0,1.954.017,2.93-.009.378-.01.467.108.476.477.04,1.821.052,1.821-1.767,1.821-1.525,0-3.05-.019-4.574.012-.446.009-.549-.113-.549-.551,0-1.749-.017-1.749,1.7-1.749Z" transform="translate(-352.919 555.823)"/>
      <path id="Trazado_127337" data-name="Trazado 127337" d="M456.7-571.727c-.977,0-1.954-.018-2.93.008-.378.01-.467-.108-.476-.477-.04-1.821-.052-1.821,1.767-1.821,1.525,0,3.05.019,4.574-.012.446-.009.549.113.549.551,0,1.75.017,1.75-1.7,1.75Z" transform="translate(-421.248 578.611)"/>
      <path id="Trazado_127338" data-name="Trazado 127338" d="M456.815-555.749c-.977,0-1.954-.016-2.93.008-.4.01-.577-.038-.578-.521,0-1.776-.027-1.776,1.746-1.776,1.525,0,3.05.012,4.574-.008.4-.005.577.037.578.521,0,1.776.027,1.776-1.746,1.776Z" transform="translate(-421.26 567.211)"/>
      <path id="Trazado_127339" data-name="Trazado 127339" d="M456.741-539.781c-.953,0-1.906-.018-2.858.008-.4.011-.574-.046-.575-.525,0-1.773-.025-1.773,1.749-1.773,1.525,0,3.049.012,4.574-.008.4-.005.574.046.575.525,0,1.773.026,1.773-1.748,1.773Z" transform="translate(-421.261 555.821)"/>
      <path id="Trazado_127340" data-name="Trazado 127340" d="M552.461-571.72c-.977,0-1.954-.013-2.93.007-.333.007-.435-.08-.449-.43-.078-1.866-.089-1.865,1.795-1.865,1.524,0,3.049.013,4.574-.009.393-.005.516.09.521.5.024,1.794.039,1.794-1.724,1.794Z" transform="translate(-489.56 578.603)"/>
      <path id="Trazado_127341" data-name="Trazado 127341" d="M552.528-555.756c-.977,0-1.954-.016-2.93.008-.369.009-.472-.094-.481-.472-.041-1.826-.054-1.826,1.763-1.826,1.525,0,3.05.018,4.574-.011.436-.008.555.1.555.546,0,1.754.018,1.754-1.765,1.754Z" transform="translate(-489.595 567.218)"/>
      <path id="Trazado_127342" data-name="Trazado 127342" d="M552.6-539.775c-1,0-2-.011-3,.006-.343.006-.487-.051-.5-.455-.048-1.84-.064-1.84,1.751-1.84,1.548,0,3.1.008,4.645-.006.343,0,.486.051.5.455.048,1.84.065,1.84-1.751,1.84Z" transform="translate(-489.583 555.815)"/>
      <path id="Trazado_127343" data-name="Trazado 127343" d="M393.493-470.224c5.125,0,10.25.009,15.375-.013.532,0,.665.123.664.661q-.031,9.653,0,19.307c0,.536-.13.662-.663.661q-15.375-.026-30.75,0c-.532,0-.665-.122-.664-.66q.031-9.653,0-19.307c0-.536.129-.663.663-.661C383.243-470.215,388.368-470.224,393.493-470.224Zm-.031,18.311c2.717,0,5.435.029,8.152-.007a5.71,5.71,0,0,0,5.613-5.835,5.688,5.688,0,0,0-5.843-5.586.872.872,0,0,1-.931-.529,7.952,7.952,0,0,0-13.274-.928,3.271,3.271,0,0,1-2.575,1.555,5.577,5.577,0,0,0-4.833,6.068,5.735,5.735,0,0,0,5.682,5.259C388.122-451.891,390.792-451.911,393.461-451.913Z" transform="translate(-367.155 504.576)" fill="#83d3ee"/>
      <path id="Trazado_127344" data-name="Trazado 127344" d="M399.183-446.206c-2.67,0-5.339.02-8.009,0a5.735,5.735,0,0,1-5.682-5.259,5.577,5.577,0,0,1,4.833-6.068,3.271,3.271,0,0,0,2.575-1.555,7.952,7.952,0,0,1,13.274.928.872.872,0,0,0,.931.529,5.688,5.688,0,0,1,5.843,5.586,5.71,5.71,0,0,1-5.613,5.835C404.617-446.178,401.9-446.207,399.183-446.206Zm0-2.289c2.668,0,5.337.013,8-.005a3.287,3.287,0,0,0,3.167-2.042,3.19,3.19,0,0,0-.526-3.6,3.255,3.255,0,0,0-3.61-1.05c-1.165.336-1.166.335-1.578-.852a5.686,5.686,0,0,0-7.512-3.488,5.471,5.471,0,0,0-3.451,3.9c-.2.738-.46.88-1.135.565a3.1,3.1,0,0,0-1.952-.246,3.464,3.464,0,0,0-2.81,3.675,3.448,3.448,0,0,0,3.469,3.135C393.891-448.484,396.535-448.5,399.18-448.5Z" transform="translate(-372.876 498.871)" fill="#020303"/>
      <path id="Trazado_127345" data-name="Trazado 127345" d="M404.88-442.764c-2.645,0-5.289.012-7.933,0a3.447,3.447,0,0,1-3.468-3.135,3.463,3.463,0,0,1,2.81-3.675,3.1,3.1,0,0,1,1.952.246c.675.315.939.174,1.135-.565a5.471,5.471,0,0,1,3.451-3.9,5.685,5.685,0,0,1,7.512,3.488c.413,1.187.413,1.188,1.578.852a3.256,3.256,0,0,1,3.61,1.05,3.19,3.19,0,0,1,.526,3.6,3.287,3.287,0,0,1-3.167,2.042C410.217-442.751,407.548-442.764,404.88-442.764Z" transform="translate(-378.577 493.14)" fill="#e4e7ea"/>
    </g>
  </g>
</svg>
