<svg xmlns="http://www.w3.org/2000/svg" xmlns:xlink="http://www.w3.org/1999/xlink" width="96" height="96" viewBox="0 0 96 96">
  <defs>
    <clipPath id="clip-path">
      <rect id="Rectángulo_36533" data-name="Rectángulo 36533" width="96" height="96" fill="#fff" stroke="#707070" stroke-width="1"/>
    </clipPath>
  </defs>
  <g id="Grupo_85674" data-name="Grupo 85674" clip-path="url(#clip-path)">
    <g id="Grupo_85825" data-name="Grupo 85825" transform="translate(-356.515 852.976)">
      <path id="Trazado_127242" data-name="Trazado 127242" d="M361.095-771.509c-1.223-.437-1.366-.643-1.368-1.981,0-1.4-.012-2.8,0-4.2a3.263,3.263,0,0,1,3.4-3.431c.612-.017,1.226,0,1.838,0q31.912,0,63.824,0a4.042,4.042,0,0,1,2.643.714,3.332,3.332,0,0,1,1.256,2.849c-.009.457.058.723.6.652a7.581,7.581,0,0,1,4.719,1.233c2.88,1.585,5.8,3.091,8.712,4.626,2.468,1.3,2.794,1.933,2.531,4.718a57.144,57.144,0,0,1-3.677,15.586c-3.755,9.57-9.743,17.3-18.626,22.661a3.364,3.364,0,0,1-3.771,0,41.776,41.776,0,0,1-11.391-9.97,1.883,1.883,0,0,0-1.669-.822q-15.759.042-31.518.018c-1.321,0-1.611-.2-1.921-1.3.3-1.119.6-1.332,1.985-1.332q14.7,0,29.406-.006a2.047,2.047,0,0,0,1.1-.126c-.447-.757-.92-1.482-1.312-2.248a1.175,1.175,0,0,0-1.236-.682c-4.055.026-8.11.02-12.165.011a3.268,3.268,0,0,1-3.567-3.594c0-.787,0-1.575,0-2.363,0-2.507,1.245-3.761,3.754-3.773,2.188-.01,4.376,0,6.564,0,2.25,0,2.236,0,1.489-2.133a.606.606,0,0,0-.679-.491q-9.583.012-19.167,0c-.411,0-.578.106-.547.539a12.438,12.438,0,0,1,0,1.487,1.317,1.317,0,0,1-1.345,1.41,1.31,1.31,0,0,1-1.273-1.388,6.175,6.175,0,0,1,0-1.136c.094-.705-.12-.948-.879-.925-1.848.055-1.849.012-1.893,1.857-.024,1.005-.453,1.556-1.236,1.591-.83.036-1.342-.534-1.392-1.551-.1-1.958-.1-1.958-2.095-1.875a.486.486,0,0,1-.087,0c-.428-.054-.548.153-.543.556a12.038,12.038,0,0,1-.078,1.829,1.141,1.141,0,0,1-1.3,1.033,1.174,1.174,0,0,1-1.21-1.14,7.092,7.092,0,0,1-.029-1.4c.06-.66-.124-.927-.853-.9-1.515.059-3.033.014-4.55.019-1.1,0-1.2.1-1.2,1.191q0,6.475,0,12.951c0,1.2.059,1.257,1.3,1.258,2.713,0,5.426-.005,8.139,0,1.211,0,1.535.256,1.806,1.33a1.392,1.392,0,0,1-1.568,1.3c-3.005,0-6.011.039-9.015-.018a3.168,3.168,0,0,1-3.292-3.417q-.02-6.914,0-13.828a3.2,3.2,0,0,1,3.158-3.383c.319-.027.641-.02.962-.02q18.6,0,37.2-.013c.321,0,1,.312.746-.566a.419.419,0,0,0-.5-.344c-.35.012-.7,0-1.05,0-12.2,0-24.392-.04-36.588.031-2.711.016-4.144-1.678-3.944-3.955.064-.724.009-1.458.01-2.187,0-1.33.15-1.542,1.37-1.981a1.641,1.641,0,0,1,1.269,1.908c-.052.725-.011,1.458-.01,2.187,0,1.362,0,1.364,1.374,1.364h35.356c2.3,0,2.286,0,1.9-2.329-.088-.536-.27-.712-.822-.7q-2.931.051-5.863.006a3.251,3.251,0,0,1-3.4-3.42c-.011-.846,0-1.691,0-2.537,0-2.544,1.264-3.8,3.826-3.8,5.455,0,10.91-.012,16.365.011a4.512,4.512,0,0,0,2.581-.592,3.956,3.956,0,0,1,2.192-.474c3.821,0,7.642-.013,11.463-.022.634.011,1.267.033,1.9.028.4,0,.91.164.876-.576-.028-.61-.216-1.014-.9-1.005-.633.008-1.266.029-1.9.045-.378-.012-.757-.034-1.135-.034q-20.952,0-41.905,0c-1.894,0-1.894,0-1.947,1.857a3.407,3.407,0,0,1-.013.349,1.351,1.351,0,0,1-1.336,1.252,1.32,1.32,0,0,1-1.269-1.313c-.036-.552-.02-1.108-.01-1.662.006-.312-.082-.449-.434-.493-2.1-.26-2.261-.138-2.334,1.939,0,.029,0,.058,0,.087a1.348,1.348,0,0,1-1.225,1.438,1.364,1.364,0,0,1-1.39-1.383c-.042-.522-.008-1.049-.017-1.574,0-.2.032-.465-.25-.474-.728-.024-1.458-.031-2.185,0-.328.015-.255.333-.264.553-.025.581.009,1.169-.07,1.742a1.2,1.2,0,0,1-1.329,1.119,1.2,1.2,0,0,1-1.209-1.159,10.66,10.66,0,0,1-.045-1.57c.022-.508-.118-.734-.681-.723-1.632.032-3.266.028-4.9,0-.761-.011-1.029.324-1.01,1.064.035,1.34-.03,2.684.023,4.023A1.658,1.658,0,0,1,361.095-771.509Zm82.207,1.654q-4.011-2.135-8.021-4.272a2.065,2.065,0,0,0-1.023-.166q-9.193,0-18.385,0a2.247,2.247,0,0,0-1.1.213q-5.407,2.865-10.824,5.711a.916.916,0,0,0-.514,1.062c.13,1.512.331,3.012.581,4.508,1.656,9.926,5.487,18.816,12.535,26.147a29.943,29.943,0,0,0,6.206,5.079c.6.407,1.206.807,1.8,1.222a.837.837,0,0,0,1.048-.009c.921-.614,1.882-1.174,2.78-1.82A41.692,41.692,0,0,0,442.08-749.23a56.514,56.514,0,0,0,4.659-18.016,1.012,1.012,0,0,0-.635-1.179C445.155-768.87,444.234-769.375,443.3-769.854Zm-43.368,22.677c1.835,0,3.67-.007,5.5.005.44,0,.668-.029.423-.566-.519-1.136-1-2.291-1.465-3.448a.608.608,0,0,0-.64-.456q-4.718.014-9.436.006c-.6,0-.815.311-.8.884.022.844.041,1.691,0,2.533-.044.816.313,1.069,1.09,1.053C396.38-747.2,398.157-747.177,399.934-747.177Zm7.295-25.894-.064-.169h-2.445c-3.377,0-6.755.013-10.132-.009-.785,0-1.118.28-1.073,1.082s.036,1.631,0,2.444c-.03.715.273,1,.978.993,1.95-.019,3.9-.007,5.852-.005.294,0,.566.022.714-.338a3.6,3.6,0,0,1,1.878-1.736C404.373-771.556,405.8-772.316,407.228-773.071Z" transform="translate(0 -39.874)" fill="#040404"/>
      <path id="Trazado_127243" data-name="Trazado 127243" d="M392.529-838.589H395.6c.381,1.059.646,1.233,1.9,1.233l33.675,0c.349,0,.7.019,1.047.029v15.347c-.233.01-.465.029-.7.029h-63.1c-.088,0-.175-.005-.262,0-.619.04-.911-.228-.91-.868q.013-6.826,0-13.65c0-.627.26-.9.891-.9,1.254.016,2.508,0,3.763,0,1.884,0,1.884,0,1.946,1.846,0,.117.012.233.02.349a1.207,1.207,0,0,0,1.231,1.228,1.179,1.179,0,0,0,1.316-1.125,7.579,7.579,0,0,0,.046-1.655c-.086-.8.438-.643.877-.641,2.208.008,1.8-.113,1.851.607.037.552-.015,1.112.053,1.658a1.246,1.246,0,0,0,1.3,1.17,1.255,1.255,0,0,0,1.265-1.294,9.094,9.094,0,0,0,0-1.486c-.056-.568.176-.706.695-.665.662.053,1.5-.187,1.943.137.421.308.087,1.2.138,1.827,0,.029,0,.058,0,.087a1.344,1.344,0,0,0,1.275,1.4,1.339,1.339,0,0,0,1.344-1.423,13.048,13.048,0,0,0,0-1.487c-.026-.414.1-.557.532-.545,1.05.029,2.1,0,3.15.013A1.442,1.442,0,0,0,392.529-838.589Zm20.705,3.863q-6.87,0-13.739,0c-2.4,0-3.683,1.278-3.694,3.65,0,.7.048,1.4-.009,2.1-.207,2.51,1.361,4.036,3.986,4.019,8.9-.057,17.794-.021,26.691-.024a8.2,8.2,0,0,0,1.046-.053,3.2,3.2,0,0,0,2.957-3.306c.018-.875.005-1.75,0-2.625-.005-2.5-1.266-3.759-3.765-3.761Q419.973-834.73,413.234-834.726Zm-20.788,6.2a1.293,1.293,0,0,0,1.325-1.326,1.331,1.331,0,0,0-1.308-1.356,1.338,1.338,0,0,0-1.282,1.3A1.3,1.3,0,0,0,392.447-828.526Z" transform="translate(-4.905 -2.579)" fill="#c1dbe0"/>
      <path id="Trazado_127244" data-name="Trazado 127244" d="M429.906-772.268c-3.821.009-7.642.023-11.463.022a3.956,3.956,0,0,0-2.192.474,4.512,4.512,0,0,1-2.581.592c-5.455-.023-10.91-.013-16.365-.011-2.562,0-3.821,1.255-3.826,3.8,0,.846-.008,1.692,0,2.537a3.251,3.251,0,0,0,3.4,3.42q2.931.042,5.863-.006c.552-.01.733.166.821.7.385,2.333.4,2.329-1.9,2.329H366.314c-1.373,0-1.373,0-1.374-1.364,0-.729-.042-1.462.01-2.187a1.641,1.641,0,0,0-1.269-1.908q0-1.48,0-2.961a1.658,1.658,0,0,0,1.275-1.9c-.053-1.339.012-2.683-.023-4.023-.019-.74.248-1.075,1.01-1.064,1.633.023,3.266.027,4.9,0,.563-.011.7.214.681.723a10.669,10.669,0,0,0,.045,1.57,1.2,1.2,0,0,0,1.209,1.159,1.2,1.2,0,0,0,1.329-1.119c.079-.573.045-1.161.07-1.742.009-.219-.064-.538.264-.553.727-.033,1.457-.026,2.185,0,.282.009.247.278.25.474.009.525-.025,1.052.017,1.574a1.363,1.363,0,0,0,1.39,1.383,1.348,1.348,0,0,0,1.225-1.438c0-.029,0-.058,0-.087.072-2.077.231-2.2,2.334-1.939.352.043.44.18.434.493-.01.554-.026,1.11.01,1.662a1.32,1.32,0,0,0,1.269,1.313,1.351,1.351,0,0,0,1.336-1.252,3.407,3.407,0,0,0,.013-.349c.053-1.857.053-1.857,1.947-1.857q20.952,0,41.905,0c.378,0,.757.022,1.135.034Q429.9-773.022,429.906-772.268Zm-39.773,7.314a1.345,1.345,0,0,0,1.321-1.353,1.347,1.347,0,0,0-1.233-1.352,1.353,1.353,0,0,0-1.365,1.308A1.353,1.353,0,0,0,390.133-764.954Z" transform="translate(-2.583 -44.554)" fill="#5c92be"/>
      <path id="Trazado_127245" data-name="Trazado 127245" d="M378.52-695.4c-.272-1.074-.6-1.326-1.806-1.33-2.713-.009-5.426,0-8.139,0-1.246,0-1.3-.058-1.3-1.258q0-6.476,0-12.951c0-1.09.1-1.188,1.2-1.191,1.517,0,3.036.04,4.55-.019.729-.029.912.238.853.9a7.092,7.092,0,0,0,.029,1.4,1.174,1.174,0,0,0,1.21,1.14,1.141,1.141,0,0,0,1.3-1.033,12.038,12.038,0,0,0,.078-1.829c0-.4.115-.611.543-.556a.486.486,0,0,0,.087,0c2-.083,2-.083,2.095,1.875.051,1.017.562,1.588,1.392,1.551.784-.034,1.212-.586,1.236-1.591.044-1.844.045-1.8,1.893-1.857.76-.023.974.22.879.925a6.175,6.175,0,0,0,0,1.136,1.31,1.31,0,0,0,1.273,1.388,1.317,1.317,0,0,0,1.345-1.41,12.438,12.438,0,0,0,0-1.487c-.03-.433.136-.54.547-.539q9.584.016,19.167,0a.606.606,0,0,1,.679.491c.748,2.138.761,2.133-1.489,2.133-2.188,0-4.376-.008-6.564,0-2.509.012-3.75,1.266-3.754,3.773,0,.788,0,1.575,0,2.363a3.268,3.268,0,0,0,3.567,3.594c4.055.009,8.11.015,12.165-.011a1.175,1.175,0,0,1,1.236.682c.392.766.865,1.49,1.312,2.248a2.047,2.047,0,0,1-1.1.126q-14.7.009-29.406.006c-1.38,0-1.689.213-1.985,1.332Zm14.01-10.47a1.335,1.335,0,0,0-1.338,1.329,1.326,1.326,0,0,0,1.294,1.371,1.322,1.322,0,0,0,1.293-1.283A1.338,1.338,0,0,0,392.53-705.872Z" transform="translate(-4.914 -84.64)" fill="#c0d9de"/>
      <path id="Trazado_127246" data-name="Trazado 127246" d="M427.362-839.9c-.349-.01-.7-.029-1.047-.029l-33.675,0c-1.258,0-1.523-.175-1.9-1.234.246-1.081.594-1.39,1.665-1.39q18.474-.006,36.949,0a3.157,3.157,0,0,1,3.372,3.259q.094,7.046,0,14.094a3.191,3.191,0,0,1-3.511,3.3q-32.965.007-65.929,0a3.247,3.247,0,0,1-3.509-3.482q-.016-6.829,0-13.657a3.246,3.246,0,0,1,3.472-3.518q11.339-.014,22.677,0c1.169,0,1.514.286,1.744,1.39a1.442,1.442,0,0,1-1.633,1.239c-1.05-.016-2.1.016-3.15-.013-.429-.012-.558.132-.532.545a13.048,13.048,0,0,1,0,1.487,1.339,1.339,0,0,1-1.344,1.423,1.344,1.344,0,0,1-1.275-1.4c0-.029,0-.058,0-.087-.051-.631.284-1.518-.138-1.827-.442-.324-1.281-.084-1.943-.137-.519-.041-.751.1-.695.665a9.1,9.1,0,0,1,0,1.486,1.255,1.255,0,0,1-1.265,1.293,1.246,1.246,0,0,1-1.3-1.17c-.068-.546-.017-1.106-.053-1.658-.048-.72.357-.6-1.851-.607-.439,0-.963-.157-.877.641a7.578,7.578,0,0,1-.046,1.655,1.179,1.179,0,0,1-1.316,1.125,1.207,1.207,0,0,1-1.231-1.228c-.009-.116-.016-.233-.02-.349-.062-1.846-.062-1.846-1.946-1.846-1.255,0-2.509.012-3.763,0-.631-.008-.892.268-.891.9q.014,6.825,0,13.65c0,.64.291.909.91.868.087-.006.175,0,.262,0h63.1c.233,0,.465-.019.7-.029.639.011,1.279.012,1.918.034.6.021.84-.3.841-.856q0-6.85,0-13.7c0-.559-.24-.878-.841-.859C428.641-839.915,428-839.912,427.362-839.9Z" transform="translate(-0.046)" fill="#010101"/>
      <path id="Trazado_127247" data-name="Trazado 127247" d="M503.639-718.927a29.94,29.94,0,0,1-6.206-5.079c-7.049-7.331-10.879-16.221-12.535-26.147-.249-1.5-.451-3-.581-4.508a.916.916,0,0,1,.514-1.062q5.421-2.839,10.824-5.711a2.247,2.247,0,0,1,1.1-.213q9.193.006,18.385,0a2.065,2.065,0,0,1,1.023.166q4.008,2.14,8.021,4.272a12.631,12.631,0,0,1-.6,2.567c-2.5-1.3-5.009-2.6-7.505-3.917a3.654,3.654,0,0,0-1.747-.462q-8.4.011-16.794,0a3.158,3.158,0,0,0-1.511.358c-2.625,1.389-5.241,2.793-7.879,4.156a1.657,1.657,0,0,0-.984,1.912,54.557,54.557,0,0,0,1.275,6.6c2.032,7.807,5.5,14.832,11.293,20.569a27.8,27.8,0,0,0,6.024,4.74C505.228-719.884,504.248-719.629,503.639-718.927Z" transform="translate(-80.882 -52.52)" fill="#e86651"/>
      <path id="Trazado_127248" data-name="Trazado 127248" d="M539.4-710.715c.608-.7,1.589-.957,2.114-1.759a1.9,1.9,0,0,0,1.068-.328,37.493,37.493,0,0,0,10.384-10.518,50.072,50.072,0,0,0,7.513-20.695,1.986,1.986,0,0,0-1.135-2.413,12.632,12.632,0,0,0,.6-2.567c.932.479,1.854.984,2.8,1.429a1.012,1.012,0,0,1,.635,1.179,56.514,56.514,0,0,1-4.659,18.016,41.693,41.693,0,0,1-13.693,17.049c-.9.646-1.858,1.206-2.78,1.82a.837.837,0,0,1-1.048.009C540.6-709.908,540-710.308,539.4-710.715Z" transform="translate(-116.64 -60.733)" fill="#d4402e"/>
      <path id="Trazado_127249" data-name="Trazado 127249" d="M462.476-692.632c-1.776,0-3.553-.025-5.329.012-.777.016-1.134-.237-1.09-1.053.045-.842.026-1.689,0-2.533-.014-.573.2-.885.8-.884q4.718,0,9.436-.006a.608.608,0,0,1,.64.456c.469,1.157.945,2.313,1.465,3.448.246.537.017.569-.423.566C466.146-692.639,464.311-692.632,462.476-692.632Z" transform="translate(-62.542 -94.419)" fill="#f0bc40"/>
      <path id="Trazado_127250" data-name="Trazado 127250" d="M469.769-758.493c-1.429.755-2.855,1.516-4.289,2.261A3.6,3.6,0,0,0,463.6-754.5c-.148.36-.42.339-.714.338-1.951,0-3.9-.013-5.852.005-.705.006-1.008-.278-.978-.993.034-.814.043-1.632,0-2.444s.288-1.086,1.073-1.082c3.377.022,6.754.01,10.132.01h2.445Z" transform="translate(-62.541 -54.452)" fill="#f0bc40"/>
      <path id="Trazado_127251" data-name="Trazado 127251" d="M552.375-772.084q-.008-.754-.017-1.508c.633-.015,1.266-.036,1.9-.045.679-.009.867.395.9,1.005.034.739-.476.572-.876.576C553.643-772.051,553.009-772.073,552.375-772.084Z" transform="translate(-125.052 -44.738)" fill="#467093"/>
      <path id="Trazado_127252" data-name="Trazado 127252" d="M465.985-827.584q6.738,0,13.477,0c2.5,0,3.759,1.264,3.765,3.761,0,.875.015,1.75,0,2.625a3.2,3.2,0,0,1-2.957,3.306,8.2,8.2,0,0,1-1.046.053c-8.9,0-17.794-.033-26.691.024-2.625.017-4.193-1.509-3.986-4.019.057-.7.006-1.4.009-2.1.011-2.372,1.3-3.647,3.694-3.65Q459.115-827.589,465.985-827.584Zm-6.956,2.627c-2.3,0-4.609.01-6.913-.006-.666,0-.962.258-.942.935q.039,1.311,0,2.625c-.02.622.227.932.858.931,4.609,0,9.218-.006,13.827.01.506,0,.561-.233.554-.642-.019-1.05-.042-2.1.008-3.15.028-.6-.185-.722-.739-.714C463.463-824.94,461.246-824.957,459.029-824.957Zm17.051,2.2h.031a11.261,11.261,0,0,1-.009,1.311c-.088.743.131,1.1.943.985a10.036,10.036,0,0,1,1.4-.011c2.471.013,2.15.1,2.152-2.175,0-2.569.279-2.319-2.269-2.3-.714,0-1.661-.335-2.081.162C475.89-824.362,476.113-823.451,476.08-822.756ZM469-822.771h.03v.175c0,2.126,0,2.142,2.123,2.118.747-.008,1.705.331,2.186-.167.439-.454.115-1.394.127-2.119.011-.7.228-1.618-.125-2.028-.419-.486-1.372-.152-2.09-.152s-1.666-.334-2.089.149C468.806-824.386,469.034-823.465,469-822.771Z" transform="translate(-57.655 -9.721)" fill="#030203"/>
      <path id="Trazado_127253" data-name="Trazado 127253" d="M552.388-835.046c.639-.01,1.279-.013,1.918-.033.6-.019.841.3.841.859q0,6.85,0,13.7c0,.558-.237.877-.841.856-.639-.022-1.278-.023-1.918-.034Z" transform="translate(-125.072 -4.856)" fill="#93bac0"/>
      <path id="Trazado_127254" data-name="Trazado 127254" d="M436.7-814.875a1.3,1.3,0,0,1-1.265-1.387,1.338,1.338,0,0,1,1.282-1.3,1.331,1.331,0,0,1,1.308,1.356A1.293,1.293,0,0,1,436.7-814.875Z" transform="translate(-49.16 -16.23)" fill="#040404"/>
      <path id="Trazado_127255" data-name="Trazado 127255" d="M436.7-753.377a1.353,1.353,0,0,1-1.277-1.4,1.353,1.353,0,0,1,1.365-1.308,1.347,1.347,0,0,1,1.233,1.352A1.345,1.345,0,0,1,436.7-753.377Z" transform="translate(-49.153 -56.131)" fill="#040404"/>
      <path id="Trazado_127256" data-name="Trazado 127256" d="M436.78-694.238a1.338,1.338,0,0,1,1.249,1.417,1.322,1.322,0,0,1-1.293,1.283,1.326,1.326,0,0,1-1.294-1.371A1.335,1.335,0,0,1,436.78-694.238Z" transform="translate(-49.164 -96.274)" fill="#040404"/>
      <path id="Trazado_127257" data-name="Trazado 127257" d="M528.814-749.78a1.986,1.986,0,0,1,1.135,2.413,50.072,50.072,0,0,1-7.513,20.695,37.494,37.494,0,0,1-10.384,10.518,1.9,1.9,0,0,1-1.068.328,27.8,27.8,0,0,1-6.024-4.74c-5.792-5.736-9.261-12.762-11.293-20.569a54.574,54.574,0,0,1-1.275-6.6,1.657,1.657,0,0,1,.984-1.912c2.638-1.363,5.255-2.767,7.88-4.156a3.158,3.158,0,0,1,1.511-.358q8.4.007,16.794,0a3.653,3.653,0,0,1,1.747.462C523.8-752.381,526.311-751.084,528.814-749.78Zm-18.926,4.795c0-1.953-.017-3.906.012-5.858.008-.537-.154-.7-.692-.692-2.04.028-4.081.016-6.121.008a1.866,1.866,0,0,0-.917.224q-3.313,1.761-6.639,3.5a.645.645,0,0,0-.392.818,56.808,56.808,0,0,0,1.777,7.731c.153.5.337.692.885.688q5.684-.04,11.368,0c.581,0,.741-.16.731-.732C509.867-741.2,509.888-743.09,509.887-744.985Zm2.632-.1c0,1.923.018,3.847-.011,5.771-.008.545.111.753.712.749q5.684-.041,11.368,0a.733.733,0,0,0,.854-.612,60.7,60.7,0,0,0,1.8-7.728.778.778,0,0,0-.5-.954c-2.172-1.12-4.332-2.264-6.489-3.415a2.19,2.19,0,0,0-1.086-.246c-1.924.009-3.848.03-5.771-.01-.661-.014-.914.129-.893.853C512.556-748.822,512.519-746.955,512.519-745.09Zm-2.662,25.281c.016-.26.032-.4.032-.53,0-4.958-.011-9.916.016-14.874,0-.648-.233-.758-.809-.754-3.384.023-6.767.029-10.15,0-.71-.007-.846.114-.556.8a39.315,39.315,0,0,0,7.629,11.938A25.221,25.221,0,0,0,509.857-719.809Zm2.659.054a37.53,37.53,0,0,0,11.77-16.2c-3.8,0-7.5.008-11.2-.01-.479,0-.578.171-.577.607C512.52-730.227,512.516-725.1,512.516-719.755Z" transform="translate(-86.112 -57.381)" fill="#030203"/>
      <path id="Trazado_127258" data-name="Trazado 127258" d="M463.925-820.118c2.217,0,4.434.017,6.651-.012.554-.007.767.119.739.714-.05,1.048-.027,2.1-.008,3.15.008.41-.048.644-.554.642-4.609-.016-9.218-.011-13.827-.01-.631,0-.878-.309-.858-.931q.042-1.311,0-2.625c-.02-.677.277-.94.942-.935C459.316-820.108,461.621-820.118,463.925-820.118Z" transform="translate(-62.552 -14.559)" fill="#f0bc40"/>
      <path id="Trazado_127259" data-name="Trazado 127259" d="M526.978-818.077c.033-.695-.19-1.605.166-2.028.42-.5,1.366-.158,2.081-.162,2.548-.017,2.272-.267,2.269,2.3,0,2.272.319,2.188-2.152,2.175a10.036,10.036,0,0,0-1.4.011c-.812.111-1.031-.242-.943-.985a11.275,11.275,0,0,0,.009-1.311Z" transform="translate(-108.553 -14.4)" fill="#3f97e6"/>
      <path id="Trazado_127260" data-name="Trazado 127260" d="M506.8-818.091c.032-.694-.2-1.615.161-2.023.423-.482,1.371-.149,2.089-.149s1.671-.334,2.09.152c.353.41.136,1.333.125,2.028-.012.725.313,1.664-.127,2.119-.481.5-1.439.159-2.186.167-2.123.023-2.123.008-2.123-2.118v-.175Z" transform="translate(-95.454 -14.401)" fill="#e86651"/>
      <path id="Trazado_127261" data-name="Trazado 127261" d="M514.978-740.135c0,1.895-.021,3.79.013,5.683.01.572-.151.736-.731.732q-5.684-.04-11.368,0c-.548,0-.732-.185-.885-.688a56.805,56.805,0,0,1-1.777-7.731.645.645,0,0,1,.392-.818q3.33-1.729,6.639-3.5a1.866,1.866,0,0,1,.917-.224c2.04.008,4.081.021,6.121-.008.538-.007.7.156.692.692C514.961-744.041,514.978-742.088,514.978-740.135Z" transform="translate(-91.203 -62.231)" fill="#63daf8"/>
      <path id="Trazado_127262" data-name="Trazado 127262" d="M549.762-740.247c0-1.865.036-3.732-.018-5.6-.021-.724.232-.867.893-.853,1.923.04,3.847.019,5.771.01a2.189,2.189,0,0,1,1.086.246c2.157,1.151,4.317,2.3,6.489,3.415a.778.778,0,0,1,.5.954,60.7,60.7,0,0,1-1.8,7.728.733.733,0,0,1-.854.612q-5.684-.028-11.368,0c-.6,0-.72-.2-.712-.749C549.779-736.4,549.762-738.324,549.762-740.247Z" transform="translate(-123.355 -62.224)" fill="#3f99e9"/>
      <path id="Trazado_127263" data-name="Trazado 127263" d="M520.735-686.166a25.22,25.22,0,0,1-3.838-3.419,39.315,39.315,0,0,1-7.629-11.938c-.29-.69-.155-.811.555-.8,3.383.032,6.767.026,10.15,0,.576,0,.812.106.809.754-.027,4.958-.015,9.916-.016,14.874C520.766-686.561,520.751-686.426,520.735-686.166Z" transform="translate(-96.99 -91.024)" fill="#3f97e6"/>
      <path id="Trazado_127264" data-name="Trazado 127264" d="M549.773-686.1c0-5.343,0-10.473-.007-15.6,0-.436.1-.609.577-.607,3.7.019,7.4.01,11.2.01A37.53,37.53,0,0,1,549.773-686.1Z" transform="translate(-123.37 -91.034)" fill="#ddeaeb"/>
    </g>
  </g>
</svg>
