<svg xmlns="http://www.w3.org/2000/svg" xmlns:xlink="http://www.w3.org/1999/xlink" width="107" height="107" viewBox="0 0 107 107">
  <defs>
    <clipPath id="clip-path">
      <rect id="Rectángulo_36652" data-name="Rectángulo 36652" width="107" height="107" transform="translate(0 0.001)" fill="#fff" stroke="#707070" stroke-width="1"/>
    </clipPath>
  </defs>
  <g id="Grupo_85879" data-name="Grupo 85879" transform="translate(0 -0.001)" clip-path="url(#clip-path)">
    <g id="Grupo_85892" data-name="Grupo 85892" transform="translate(16.228 1.628)">
      <path id="Trazado_127634" data-name="Trazado 127634" d="M3816.1-359.308c1.112.245,1.476.96,1.474,2.064q-.029,22.336-.014,44.671a3.56,3.56,0,0,1-3.834,3.861q-33.409.006-66.819,0a3.571,3.571,0,0,1-3.874-3.922q0-44.114,0-88.229a3.558,3.558,0,0,1,3.9-3.9q12.3-.007,24.6.013c.736,0,1.013-.136,1.086-.954a7.753,7.753,0,0,1,7.614-6.755,7.7,7.7,0,0,1,7.736,6.718c.083.876.385.995,1.157.993,8.133-.028,16.266-.019,24.4-.016,2.656,0,4.039,1.391,4.039,4.062q0,17.676.014,35.352c0,1.1-.364,1.819-1.474,2.064-1.292-.34-1.575-.7-1.576-2.053q0-12.707,0-25.413c0-3.307-.011-6.615.009-9.922,0-.679-.111-1.072-.93-1.064-4.282.038-8.566.033-12.849.043-1.607-.08-1.607-.08-1.607,1.489s0,1.569,1.607,1.489q4.248.015,8.5.03c1.826,0,2.235.416,2.235,2.273q0,31.586.016,63.171a3,3,0,0,1-.962,2.317c-4.767,4.728-9.538,9.451-14.226,14.257-1.223,1.253-2.423,2.2-4.262,1.912-.37-.013-.74-.035-1.109-.035q-12.98,0-25.958,0c-1.344,0-1.711-.292-2.041-1.581.24-1.12.962-1.473,2.063-1.471,8.772.024,17.543,0,26.314.031.736,0,.952-.144.945-.921-.044-4.422-.023-8.844-.021-13.266,0-1.562.483-2.04,2.057-2.04,4.318,0,8.637-.031,12.955.023.932.012,1.219-.152,1.216-1.168q-.055-29.671-.027-59.342a3.675,3.675,0,0,1,0-.506c.069-.488-.127-.627-.614-.621-2.36.034-4.721.031-7.082.041a4.793,4.793,0,0,1-.6-.037c-.856-.159-1.1.2-1.026,1.031a18.569,18.569,0,0,1,.008,2.42,2.413,2.413,0,0,1-2.4,2.471c-1.712.053-3.429.039-5.143.011a1.489,1.489,0,0,1-1.583-1.464c.365-1.229.749-1.546,2-1.572,1.046-.022,2.094-.048,3.137.009.733.04,1-.152.985-.942-.052-2.362-.049-4.727,0-7.089.015-.745-.172-.98-.946-.967-2.834.048-5.669.027-8.5.014-1.027,0-1.673-.492-1.733-1.321-.036-.5.057-1.009.067-1.514a4.774,4.774,0,0,0-4.749-4.868,4.823,4.823,0,0,0-4.647,5.549c.211,1.608-.351,2.156-1.969,2.159-2.7,0-5.4.033-8.1-.018-.814-.015-1.108.162-1.082,1.039.065,2.226.076,4.458,0,6.683-.035,1.009.218,1.3,1.263,1.289,6.04-.055,12.08-.029,18.121-.025,1.434,0,1.885.344,2.152,1.589-.156,1.123-.863,1.475-1.918,1.471-4.21-.02-8.42-.008-12.629-.008-2.324,0-4.648,0-6.971,0-2.125-.006-3.021-.9-3.031-2.989,0-.472,0-.944,0-1.415,0-1.586,0-1.586-1.61-1.5-2.193-.01-4.388.029-6.578-.054-.927-.035-1.137.231-1.136,1.142q.04,37.787.021,75.573a3.842,3.842,0,0,1,0,.506c-.067.481.114.638.609.627,1.416-.032,2.835.021,4.251-.022a1.715,1.715,0,0,1,1.964,1.469c-.334,1.292-.7,1.578-2.049,1.581-1.822,0-3.644,0-5.466,0-1.97,0-2.344-.378-2.344-2.37q0-38.336,0-76.671c0-.4-.023-.809-.035-1.213.012-.537.032-1.075.036-1.612.011-1.546.492-2.022,2.063-2.027l8.67-.031c1.608.08,1.608.08,1.608-1.489s0-1.569-1.608-1.489c-4.184-.01-8.369.01-12.552-.053-1.012-.015-1.237.336-1.235,1.283q.032,43.713,0,87.426c0,1.033.3,1.307,1.317,1.306q32.906-.04,65.811-.021c1.345,0,1.347,0,1.347-1.336q0-22.034,0-44.068C3814.523-358.612,3814.783-358.962,3816.1-359.308Zm-20.817,38.987L3805.939-331c-3.274,0-6.673.011-10.072-.012-.523,0-.6.2-.594.648.026,1.147.009,2.294.009,3.441Z" transform="translate(-3743.03 412.454)"/>
      <path id="Trazado_127635" data-name="Trazado 127635" d="M3796.462-299.088c1.84.29,3.04-.659,4.263-1.912,4.688-4.805,9.459-9.529,14.226-14.257a3,3,0,0,0,.962-2.317q-.033-31.586-.016-63.171c0-1.857-.408-2.268-2.235-2.273q-4.249-.012-8.5-.03,0-1.489,0-2.978c4.284-.01,8.566-.005,12.849-.043.819-.007.935.386.931,1.064-.02,3.307-.009,6.615-.009,9.922q0,12.707,0,25.413c0,1.352.284,1.713,1.575,2.053q0,1.987,0,3.973c-1.316.346-1.577.7-1.577,2.155q0,22.034,0,44.068c0,1.335,0,1.336-1.347,1.336q-32.906,0-65.811.021c-1.018,0-1.319-.273-1.317-1.306q.039-43.713,0-87.426c0-.947.224-1.3,1.235-1.283,4.183.063,8.368.043,12.552.053v2.978l-8.67.031c-1.571.006-2.052.481-2.063,2.027,0,.537-.024,1.075-.036,1.612a1.479,1.479,0,0,0-1.154,1.254c-.054.973-.237,1.929-.236,2.913q.029,36.877.015,73.753c0,.338-.02.677.007,1.013.19,2.422.529,2.733,2.956,2.733h38.273C3794.586-297.711,3795.751-297.882,3796.462-299.088Z" transform="translate(-3747.442 396.791)" fill="#f3d048"/>
      <path id="Trazado_127636" data-name="Trazado 127636" d="M3814.051-371.063c2.361-.01,4.722-.007,7.082-.041.486-.007.683.133.614.621a3.674,3.674,0,0,0,0,.506q0,29.671.027,59.342c0,1.016-.284,1.18-1.216,1.168-4.318-.054-8.636-.025-12.955-.023-1.575,0-2.057.478-2.057,2.04,0,4.422-.024,8.844.02,13.266.007.778-.208.924-.945.921-8.771-.028-17.543-.007-26.315-.031-1.1,0-1.823.351-2.062,1.47h-3.979a1.714,1.714,0,0,0-1.963-1.468c-1.416.042-2.835-.011-4.251.021-.495.011-.676-.146-.609-.627a3.843,3.843,0,0,0,0-.506q0-37.786-.021-75.573c0-.911.209-1.177,1.135-1.142,2.19.083,4.385.044,6.578.054,0,.708,0,1.417.009,2.124a5.4,5.4,0,0,0,5.392,5.364c10.11-.06,20.22-.019,30.33-.028a5,5,0,0,0,4.558-2.823C3814.228-367.871,3814.015-369.493,3814.051-371.063Zm-35.186,61.593c1.518,0,3.036.016,4.554-.005a1.492,1.492,0,0,0,1.662-1.7q.019-4.455,0-8.91a1.533,1.533,0,0,0-1.729-1.751q-4.452-.023-8.906,0c-1.161.006-1.708.582-1.712,1.766q-.015,4.455,0,8.911a1.491,1.491,0,0,0,1.677,1.686C3775.9-309.455,3777.381-309.47,3778.865-309.47Zm23.33-43.987c-3.5,0-7.008-.007-10.512,0a1.533,1.533,0,0,0-1.736,1.534c0,.931.639,1.513,1.743,1.514q10.511.012,21.023,0a1.675,1.675,0,0,0,1.06-.243,1.46,1.46,0,0,0,.628-1.678,1.561,1.561,0,0,0-1.695-1.139C3809.2-353.449,3805.7-353.457,3802.2-353.457Zm-.048,20.864q5.214,0,10.429,0c1.2,0,1.859-.534,1.875-1.492s-.656-1.543-1.822-1.544q-10.429-.006-20.859,0c-1.167,0-1.836.579-1.823,1.541s.673,1.494,1.871,1.495Q3796.984-332.588,3802.147-332.592Zm-15.241-23.513a1.459,1.459,0,0,0-1-1.382,1.575,1.575,0,0,0-1.807.549c-1.865,2.13-3.759,4.235-5.6,6.382-.4.471-.627.52-1.072.061-1.032-1.063-2.11-2.083-3.19-3.1-.879-.826-1.719-.866-2.392-.161-.654.687-.559,1.56.293,2.389q2.319,2.256,4.661,4.489a1.571,1.571,0,0,0,2.6-.078c2.328-2.62,4.636-5.258,6.951-7.889A1.748,1.748,0,0,0,3786.906-356.105Zm-13.978,19.737a1.519,1.519,0,0,0-1.365.9,1.545,1.545,0,0,0,.417,1.839c1.655,1.584,3.293,3.187,4.96,4.758a1.455,1.455,0,0,0,2.305-.045q3.677-4.1,7.286-8.261a1.438,1.438,0,0,0-.1-2.085,1.539,1.539,0,0,0-2.371.294c-1.864,2.084-3.722,4.174-5.549,6.29-.4.458-.611.551-1.076.068-1.027-1.068-2.132-2.06-3.193-3.094A2,2,0,0,0,3772.928-336.368Zm24.033,19.184c-1.75,0-3.5-.009-5.251,0-1.091.008-1.747.583-1.763,1.505-.016.937.62,1.54,1.71,1.544q5.2.02,10.4,0c1.095,0,1.771-.589,1.789-1.49.018-.926-.707-1.554-1.837-1.561C3800.327-317.192,3798.644-317.185,3796.961-317.185Zm14.185,3.045c.638,0,1.279.039,1.913-.009a1.385,1.385,0,0,0,1.384-1.437,1.356,1.356,0,0,0-1.258-1.554,26.907,26.907,0,0,0-4.025-.006,1.378,1.378,0,0,0-1.3,1.534,1.388,1.388,0,0,0,1.369,1.462C3809.867-314.106,3810.508-314.142,3811.146-314.139Z" transform="translate(-3756.327 387.907)" fill="#f4f4f4"/>
      <path id="Trazado_127637" data-name="Trazado 127637" d="M3817.331-386.742c-.267-1.244-.717-1.587-2.152-1.589-6.04,0-12.081-.03-18.12.025-1.046.009-1.3-.28-1.264-1.289.079-2.225.069-4.457,0-6.683-.026-.878.268-1.054,1.083-1.039,2.7.05,5.4.022,8.1.018,1.618,0,2.18-.55,1.97-2.158a4.822,4.822,0,0,1,4.646-5.549,4.774,4.774,0,0,1,4.75,4.868c-.011.506-.1,1.014-.067,1.514.06.829.707,1.317,1.733,1.321,2.835.013,5.67.034,8.5-.014.775-.013.961.222.946.967-.047,2.363-.05,4.727,0,7.089.017.79-.251.982-.985.942-1.042-.057-2.092-.031-3.137-.009-1.248.026-1.631.343-2,1.572Z" transform="translate(-3774.364 408.031)" fill="#57738a"/>
      <path id="Trazado_127638" data-name="Trazado 127638" d="M3765.762-290.906h3.979c.329,1.289.7,1.581,2.041,1.582q12.979,0,25.958,0c.369,0,.739.023,1.108.035-.711,1.207-1.876,1.378-3.121,1.378h-38.273c-2.427,0-2.767-.312-2.956-2.733-.026-.335-.007-.675-.007-1.013q0-36.877-.015-73.753c0-.984.182-1.94.236-2.913a1.479,1.479,0,0,1,1.155-1.254c.012.4.035.808.035,1.213q0,38.335,0,76.671c0,1.992.374,2.37,2.344,2.37,1.822,0,3.644,0,5.467,0C3765.063-289.329,3765.428-289.615,3765.762-290.906Z" transform="translate(-3749.828 386.991)" fill="#eda73f"/>
      <path id="Trazado_127639" data-name="Trazado 127639" d="M3810.574-366.642l4.01-.014a1.489,1.489,0,0,0,1.583,1.464c1.714.028,3.43.042,5.143-.011a2.413,2.413,0,0,0,2.4-2.471,18.787,18.787,0,0,0-.008-2.42c-.079-.832.17-1.19,1.026-1.031a4.765,4.765,0,0,0,.6.037c-.036,1.57.177,3.192-.63,4.637a5,5,0,0,1-4.558,2.823c-10.11.008-20.22-.032-30.33.028a5.4,5.4,0,0,1-5.391-5.364c-.01-.708-.006-1.416-.009-2.124,1.611-.084,1.611-.084,1.611,1.5,0,.471,0,.943,0,1.415.01,2.094.906,2.984,3.03,2.989,2.324.007,4.648,0,6.971,0,4.209,0,8.419-.012,12.629.008C3809.712-365.167,3810.418-365.519,3810.574-366.642Z" transform="translate(-3767.608 387.931)" fill="#dedede"/>
      <path id="Trazado_127640" data-name="Trazado 127640" d="M3871.681-201.223v-6.6c0-1.147.017-2.295-.009-3.441-.01-.451.071-.652.594-.648,3.4.023,6.8.012,10.072.012Z" transform="translate(-3819.428 293.355)" fill="#e4e4e4"/>
      <path id="Trazado_127641" data-name="Trazado 127641" d="M3784.419-383.009v-2.978c1.608-.08,1.608-.08,1.608,1.489S3786.027-382.93,3784.419-383.009Z" transform="translate(-3767.61 396.752)" fill="#e9a53e"/>
      <path id="Trazado_127642" data-name="Trazado 127642" d="M3882.814-385.988q0,1.489,0,2.978c-1.607.08-1.607.08-1.607-1.489S3881.207-386.067,3882.814-385.988Z" transform="translate(-3825.092 396.752)" fill="#e9a53e"/>
      <path id="Trazado_127643" data-name="Trazado 127643" d="M3789.552-237.417c-1.484,0-2.969.015-4.453,0a1.492,1.492,0,0,1-1.677-1.686q-.019-4.455,0-8.911c0-1.184.551-1.759,1.712-1.766q4.454-.024,8.906,0a1.533,1.533,0,0,1,1.729,1.751q.018,4.455,0,8.911a1.493,1.493,0,0,1-1.663,1.7C3792.588-237.4,3791.07-237.417,3789.552-237.417Zm-.055-3.033c1.06-.1,2.483.441,3.081-.227.524-.585.153-1.983.153-3.022,0-.972.343-2.274-.147-2.83-.563-.639-1.893-.173-2.889-.2-1.037-.026-2.43-.374-3.021.15-.676.6-.178,2.021-.208,3.084-.027.97-.348,2.272.142,2.827C3787.172-240.025,3788.5-240.566,3789.5-240.45Z" transform="translate(-3767.013 315.853)" fill="#010101"/>
      <path id="Trazado_127644" data-name="Trazado 127644" d="M3838.065-327.633c3.5,0,7.008.007,10.512,0a1.561,1.561,0,0,1,1.695,1.139,1.46,1.46,0,0,1-.628,1.678,1.674,1.674,0,0,1-1.06.243q-10.512,0-21.024,0c-1.1,0-1.743-.584-1.742-1.514a1.533,1.533,0,0,1,1.736-1.534C3831.057-327.64,3834.561-327.633,3838.065-327.633Z" transform="translate(-3792.196 362.083)" fill="#020202"/>
      <path id="Trazado_127645" data-name="Trazado 127645" d="M3838.017-280.7q-5.164,0-10.327,0c-1.2,0-1.857-.536-1.872-1.495s.656-1.541,1.823-1.541q10.429-.005,20.859,0c1.165,0,1.837.582,1.822,1.544s-.675,1.491-1.875,1.492Q3843.232-280.692,3838.017-280.7Z" transform="translate(-3792.197 336.01)"/>
      <path id="Trazado_127646" data-name="Trazado 127646" d="M3795.673-336.311a1.747,1.747,0,0,1-.555,1.261c-2.316,2.631-4.624,5.269-6.951,7.889a1.571,1.571,0,0,1-2.6.078q-2.342-2.233-4.661-4.489c-.852-.829-.947-1.7-.292-2.389.671-.705,1.512-.665,2.391.161,1.08,1.015,2.158,2.035,3.19,3.1.446.459.668.41,1.072-.061,1.844-2.147,3.737-4.252,5.6-6.382a1.577,1.577,0,0,1,1.808-.549A1.459,1.459,0,0,1,3795.673-336.311Z" transform="translate(-3765.094 368.112)" fill="#040504"/>
      <path id="Trazado_127647" data-name="Trazado 127647" d="M3781.7-290.42a2,2,0,0,1,1.318.661c1.062,1.034,2.167,2.027,3.194,3.094.465.483.68.39,1.076-.068,1.827-2.117,3.685-4.207,5.55-6.29a1.539,1.539,0,0,1,2.371-.294,1.438,1.438,0,0,1,.1,2.085q-3.611,4.158-7.286,8.261a1.455,1.455,0,0,1-2.3.045c-1.667-1.571-3.3-3.173-4.96-4.758a1.544,1.544,0,0,1-.417-1.838A1.519,1.519,0,0,1,3781.7-290.42Z" transform="translate(-3765.102 341.959)" fill="#040504"/>
      <path id="Trazado_127648" data-name="Trazado 127648" d="M3832.828-238.315c1.683,0,3.366-.007,5.049,0,1.13.007,1.856.635,1.837,1.561-.018.9-.694,1.487-1.789,1.49q-5.2.015-10.4,0c-1.089,0-1.726-.606-1.71-1.544.016-.922.672-1.5,1.762-1.505C3829.328-238.324,3831.079-238.315,3832.828-238.315Z" transform="translate(-3792.195 309.037)" fill="#020303"/>
      <path id="Trazado_127649" data-name="Trazado 127649" d="M3873.213-235.315c-.638,0-1.279.034-1.914-.01a1.388,1.388,0,0,1-1.369-1.462,1.379,1.379,0,0,1,1.3-1.534,26.9,26.9,0,0,1,4.025.006,1.356,1.356,0,0,1,1.258,1.554,1.384,1.384,0,0,1-1.384,1.437C3874.492-235.275,3873.851-235.314,3873.213-235.315Z" transform="translate(-3818.394 309.081)" fill="#040405"/>
      <path id="Trazado_127650" data-name="Trazado 127650" d="M3793.741-236.168c-.993-.117-2.323.424-2.888-.218-.489-.555-.169-1.857-.142-2.827.03-1.063-.468-2.485.209-3.084.591-.523,1.984-.176,3.021-.15,1,.025,2.326-.44,2.889.2.49.556.148,1.858.147,2.83,0,1.039.371,2.437-.153,3.022C3796.226-235.728,3794.8-236.273,3793.741-236.168Z" transform="translate(-3771.259 311.572)" fill="#f3f2f3"/>
    </g>
  </g>
</svg>
