<svg xmlns="http://www.w3.org/2000/svg" xmlns:xlink="http://www.w3.org/1999/xlink" width="107" height="107" viewBox="0 0 107 107">
  <defs>
    <clipPath id="clip-path">
      <rect id="Rectángulo_36654" data-name="Rectángulo 36654" width="107" height="107" transform="translate(0 0.001)" fill="#fff" stroke="#707070" stroke-width="1"/>
    </clipPath>
  </defs>
  <g id="Grupo_85883" data-name="Grupo 85883" transform="translate(0 -0.001)" clip-path="url(#clip-path)">
    <g id="Grupo_85896" data-name="Grupo 85896" transform="translate(3.954 3.959)">
      <path id="Trazado_127687" data-name="Trazado 127687" d="M4134.215,18.048q0-20.471,0-40.943c0-5.255,3.343-8.593,8.6-8.593q40.946,0,81.891,0c5.256,0,8.6,3.341,8.6,8.6q0,40.942,0,81.885c0,5.254-3.347,8.6-8.6,8.6H4142.81c-5.255,0-8.594-3.344-8.595-8.6Q4134.213,38.519,4134.215,18.048Zm6.365-45.991a4.62,4.62,0,0,0-3.164,4.485c-.016,3.329.039,6.659-.031,9.986-.021.986.261,1.185,1.208,1.184q44.243-.041,88.485-.031c.983,0,2.318.441,2.862-.2.569-.669.159-1.97.136-3,.011-2.594.037-5.189.029-7.783a4.776,4.776,0,0,0-5.043-4.992q-41.325-.006-82.652,0A3.457,3.457,0,0,0,4140.58-27.943Zm.03,18.862a20.569,20.569,0,0,1-2.092-.047c-.9-.108-1.129.2-1.128,1.112q.042,33.444.022,66.888c0,3.671,1.851,5.528,5.508,5.528h81.669c.333,0,.667.009,1-.01a4.627,4.627,0,0,0,4.173-3.165,4.205,4.205,0,0,0,.347-2.227q0-33.508.023-67.016c0-.914-.233-1.118-1.127-1.117q-43.7.038-87.4.022C4141.274-9.112,4140.942-9.092,4140.61-9.081Z" transform="translate(-4134.214 31.488)"/>
      <path id="Trazado_127688" data-name="Trazado 127688" d="M4150.157,24.4c.333-.011.665-.032,1-.032q43.7,0,87.4-.022c.894,0,1.128.2,1.127,1.117q-.042,33.508-.023,67.016a4.205,4.205,0,0,1-.347,2.227q-17.117-.011-34.233-.025c-.531,0-1.061-.05-1.592-.077a22.434,22.434,0,0,0,3.24-3.763c1.281-1.53,2.507-3.106,3.749-4.668a1.54,1.54,0,0,0,.244-1.765,1.576,1.576,0,0,0-1.533-.911,5.877,5.877,0,0,0-.8.006c-.58.082-.717-.161-.707-.714.033-1.8.021-3.594.01-5.391-.01-1.3-.592-1.881-1.895-1.889q-2.9-.017-5.791,0c-1.309.008-1.889.583-1.9,1.882-.013,1.631-.064,3.265.021,4.891.051.971-.169,1.39-1.21,1.229a1.612,1.612,0,0,0-1.835.89,1.725,1.725,0,0,0,.418,2q2.943,3.652,5.858,7.326a3.41,3.41,0,0,0,.947.871c-.462.029-.925.082-1.388.082q-6.666.01-13.332,0c-1.093,0-2.186-.05-3.278-.076a22.482,22.482,0,0,0,3.24-3.763c1.28-1.53,2.506-3.106,3.748-4.668a1.542,1.542,0,0,0,.244-1.765A1.576,1.576,0,0,0,4190,83.5a5.891,5.891,0,0,0-.8.006c-.579.082-.716-.161-.706-.714.034-1.8.021-3.594.009-5.391-.008-1.3-.591-1.881-1.894-1.889q-2.9-.017-5.792,0c-1.308.008-1.889.583-1.9,1.882-.013,1.631-.065,3.265.02,4.891.051.971-.169,1.39-1.21,1.229a1.611,1.611,0,0,0-1.835.89,1.724,1.724,0,0,0,.418,2q2.943,3.652,5.858,7.326a3.4,3.4,0,0,0,.947.871c-.5.029-.994.082-1.49.082-8.213.005-16.426-.07-24.639.036a6.632,6.632,0,0,1-6.859-6.862c.077-5.019.017-10.041.022-15.061,0-.5.049-.994.075-1.491a2.057,2.057,0,0,0,2.1,1.019q14.181-.027,28.361-.011,16.327,0,32.655-.018c.7,0,.962.189,1.1.874.36,1.857.825,3.695,1.206,5.548.181.882.6,1.5,1.53,1.568s1.421-.522,1.74-1.349c.764-1.98,1.593-3.936,2.344-5.92a.955.955,0,0,1,1.076-.716c4.028.026,8.056.017,12.084.012,1.493,0,2.036-.548,2.037-2.05q0-20.321,0-40.642c0-1.506-.542-2.052-2.034-2.052q-41.143,0-82.287-.011a1.927,1.927,0,0,0-1.9,1.01A41.419,41.419,0,0,1,4150.157,24.4Z" transform="translate(-4143.762 -1.997)" fill="#f7f6fc"/>
      <path id="Trazado_127689" data-name="Trazado 127689" d="M4145.367,24.383a41.132,41.132,0,0,0,.083,4.164c-.028.43-.082.859-.082,1.289q-.007,20.08,0,40.16c0,.43.05.859.076,1.289-.026.5-.076.994-.076,1.491-.005,5.02.055,10.041-.022,15.061a6.632,6.632,0,0,0,6.86,6.862c8.211-.106,16.426-.031,24.638-.036.5,0,.993-.054,1.49-.082a2.379,2.379,0,0,0,1.181.006c1.093.027,2.185.074,3.277.076q6.667.013,13.333,0c.462,0,.924-.054,1.387-.082a2.375,2.375,0,0,0,1.18.006c.531.027,1.061.076,1.591.077q17.117.017,34.232.025a4.626,4.626,0,0,1-4.172,3.165c-.332.018-.667.009-1,.01h-81.669c-3.658,0-5.509-1.857-5.509-5.528q0-33.444-.022-66.888c0-.912.225-1.219,1.128-1.112A20.572,20.572,0,0,0,4145.367,24.383Z" transform="translate(-4138.971 -1.976)" fill="#e3e7f4"/>
      <path id="Trazado_127690" data-name="Trazado 127690" d="M4150.116-23.156a3.459,3.459,0,0,1,1.829-.348q41.326,0,82.652,0a4.776,4.776,0,0,1,5.044,4.992c.008,2.594-.018,5.189-.029,7.783-1.743,0-3.487.019-5.23,0-.442-.005-.923.171-1.326-.175.214-.091.432-.173.642-.273a4.839,4.839,0,0,0,2.674-5.2,4.752,4.752,0,0,0-4.64-3.921q-20.856-.025-41.711,0a4.553,4.553,0,0,0-3.162,1.273A4.806,4.806,0,0,0,4188.7-10.9a1.362,1.362,0,0,1-.443.174q-4.685.013-9.372,0a1.112,1.112,0,0,1-.361-.141c.188-.069.376-.132.561-.209a4.8,4.8,0,0,0,2.966-5.217,4.84,4.84,0,0,0-4.587-4,4.779,4.779,0,0,0-4.8,3.722c-.621,2.526.743,4.711,3.619,5.8l-8.285.062a.866.866,0,0,1-.661-.154c.187-.069.377-.132.56-.209a4.8,4.8,0,0,0,2.966-5.217,4.839,4.839,0,0,0-4.587-4,4.78,4.78,0,0,0-4.8,3.722c-.622,2.526.743,4.711,3.62,5.8l-8.285.062a.865.865,0,0,1-.66-.154,4.7,4.7,0,0,0,3.532-4.024,4.521,4.521,0,0,0-1.894-4.452,4.8,4.8,0,0,0-7.457,2.433c-.305-.3-.175-.681-.179-1.027C4150.128-19.68,4150.125-21.418,4150.116-23.156Z" transform="translate(-4143.75 26.701)" fill="#4079dd"/>
      <path id="Trazado_127691" data-name="Trazado 127691" d="M4228.269-10.38c.4.346.885.17,1.326.175,1.744.02,3.487,0,5.23,0,.022,1.026.433,2.327-.137,3-.544.64-1.879.2-2.862.2q-44.243.016-88.485.031c-.946,0-1.228-.2-1.208-1.184.07-3.327.015-6.657.032-9.986a4.62,4.62,0,0,1,3.164-4.486c.009,1.738.012,3.476.033,5.213,0,.346-.127.729.179,1.027a4.834,4.834,0,0,0,5.819,6.043.865.865,0,0,0,.661.154l8.283-.062a6.61,6.61,0,0,0,2.243-.092.866.866,0,0,0,.661.154l8.285-.062a6.606,6.606,0,0,0,2.242-.092,1.11,1.11,0,0,0,.361.141q4.685.014,9.372,0a1.364,1.364,0,0,0,.443-.174,12.21,12.21,0,0,0,2.873.184H4225.4A12.168,12.168,0,0,0,4228.269-10.38Z" transform="translate(-4138.962 26.178)" fill="#3563b4"/>
      <path id="Trazado_127692" data-name="Trazado 127692" d="M4150.264,76.111c-.026-.43-.076-.859-.076-1.289q-.006-20.08,0-40.16c0-.43.053-.859.082-1.289a1.927,1.927,0,0,1,1.9-1.01q41.143.017,82.287.011c1.492,0,2.033.546,2.034,2.052q0,20.321,0,40.642c0,1.5-.544,2.049-2.037,2.05-4.028,0-8.056.014-12.084-.012a.956.956,0,0,0-1.076.716c-.751,1.985-1.581,3.94-2.344,5.92-.319.827-.8,1.413-1.74,1.349s-1.35-.687-1.53-1.568c-.38-1.854-.846-3.691-1.206-5.548-.133-.685-.393-.875-1.1-.873q-16.328.04-32.655.018-14.18,0-28.361.011A2.057,2.057,0,0,1,4150.264,76.111Zm78.811-2.188c1.207,0,2.176-.057,3.135.017.847.065,1.11-.147,1.107-1.064q-.055-18.124,0-36.248c0-.891-.226-1.08-1.092-1.079q-38.9.038-77.8,0c-.916,0-1.067.264-1.065,1.1q.041,18.075,0,36.148c0,.887.191,1.149,1.123,1.148q28.961-.045,57.921-.022a3.91,3.91,0,0,1,.4,0c.549.058.772-.052.59-.7-.323-1.15-.541-2.329-.79-3.5a1.634,1.634,0,0,1,2.092-2.1c4.543,1,9.08,2.022,13.624,3.018.792.174,1.492.43,1.722,1.295C4230.257,72.739,4229.842,73.323,4229.075,73.923Zm-11.328,4.164c.4-.992.74-1.713.98-2.467a2.72,2.72,0,0,1,1.881-1.875c.748-.246,1.465-.585,2.45-.985-2.261-.508-4.233-.949-6.2-1.4-.458-.1-.617.04-.511.5C4216.793,73.835,4217.234,75.807,4217.747,78.087Z" transform="translate(-4143.792 -6.801)" fill="#000001"/>
      <path id="Trazado_127693" data-name="Trazado 127693" d="M4222.641,171.236a2.377,2.377,0,0,1-1.181-.006,3.41,3.41,0,0,1-.947-.871q-2.923-3.667-5.858-7.326a1.725,1.725,0,0,1-.419-2,1.611,1.611,0,0,1,1.835-.889c1.042.161,1.262-.259,1.21-1.229-.085-1.626-.032-3.26-.02-4.891.01-1.3.59-1.874,1.9-1.882q2.9-.017,5.792,0c1.3.008,1.885.588,1.894,1.889.013,1.8.024,3.595-.009,5.391-.011.553.127.8.706.714a5.891,5.891,0,0,1,.8-.006,1.576,1.576,0,0,1,1.533.911,1.54,1.54,0,0,1-.245,1.765c-1.241,1.562-2.467,3.138-3.748,4.668A22.5,22.5,0,0,1,4222.641,171.236Zm-.58-15.868a4.35,4.35,0,0,1-.5-.034c-.922-.165-1.174.226-1.13,1.126.075,1.522-.027,3.052.036,4.575a2.054,2.054,0,0,1-1.42,2.367c.964,1.139,1.738,2.338,2.764,3.332.159.395.331.315.551.037.882-1.114,1.774-2.22,2.7-3.377a1.985,1.985,0,0,1-1.431-2.265c.054-1.49.014-2.982.014-4.474,0-1.354,0-1.354-1.393-1.315A1.868,1.868,0,0,0,4222.061,155.368Z" transform="translate(-4182.097 -78.625)" fill="#020202"/>
      <path id="Trazado_127694" data-name="Trazado 127694" d="M4270.548,171.236a2.371,2.371,0,0,1-1.179-.006,3.419,3.419,0,0,1-.948-.871q-2.923-3.667-5.858-7.326a1.724,1.724,0,0,1-.419-2,1.61,1.61,0,0,1,1.834-.889c1.042.161,1.262-.259,1.21-1.229-.085-1.626-.033-3.26-.02-4.891.01-1.3.59-1.874,1.9-1.882q2.9-.017,5.791,0c1.3.008,1.885.588,1.895,1.889.013,1.8.024,3.595-.01,5.391-.01.553.127.8.706.714a5.891,5.891,0,0,1,.8-.006,1.576,1.576,0,0,1,1.533.911,1.54,1.54,0,0,1-.245,1.765c-1.241,1.562-2.467,3.138-3.748,4.668A22.485,22.485,0,0,1,4270.548,171.236Zm-.579-15.868a4.359,4.359,0,0,1-.5-.034c-.921-.165-1.173.226-1.129,1.126.075,1.522-.028,3.052.036,4.575a2.054,2.054,0,0,1-1.419,2.367c.964,1.139,1.737,2.338,2.763,3.332.158.395.331.315.551.037.881-1.114,1.774-2.22,2.7-3.377a1.984,1.984,0,0,1-1.43-2.265c.054-1.49.013-2.982.013-4.474,0-1.354,0-1.354-1.393-1.315A1.842,1.842,0,0,0,4269.97,155.368Z" transform="translate(-4210.827 -78.625)" fill="#020202"/>
      <path id="Trazado_127695" data-name="Trazado 127695" d="M4285.767-6.115a12.162,12.162,0,0,1-2.873.184H4244.28a12.206,12.206,0,0,1-2.873-.184,4.806,4.806,0,0,1-1.838-8.127,4.555,4.555,0,0,1,3.161-1.273q20.856-.01,41.712,0a4.752,4.752,0,0,1,4.639,3.921,4.838,4.838,0,0,1-2.673,5.2C4286.2-6.288,4285.981-6.206,4285.767-6.115Zm.156-4.614c-.194-1.237-.642-1.593-2.045-1.593q-14.9,0-29.8,0c-3.555,0-7.108.019-10.663.029a4.877,4.877,0,0,0-.6-.024,1.59,1.59,0,0,0-1.6,1.576,1.6,1.6,0,0,0,1.667,1.611c.266.014.532,0,.8,0h38.4c.732,0,1.464.02,2.194-.007C4285.3-9.171,4285.755-9.626,4285.922-10.729Z" transform="translate(-4196.461 21.913)"/>
      <path id="Trazado_127696" data-name="Trazado 127696" d="M4212.071-6.078a6.61,6.61,0,0,1-2.243.092c-2.876-1.087-4.241-3.273-3.619-5.8a4.778,4.778,0,0,1,4.8-3.722,4.839,4.839,0,0,1,4.587,4,4.8,4.8,0,0,1-2.966,5.217C4212.447-6.21,4212.257-6.147,4212.071-6.078Zm-1-3.088a1.455,1.455,0,0,0,1.372-1.6,1.437,1.437,0,0,0-1.372-1.5c-1.152.015-1.832.62-1.8,1.6C4209.294-9.727,4209.954-9.177,4211.068-9.166Z" transform="translate(-4177.299 21.905)" fill="#010103"/>
      <path id="Trazado_127697" data-name="Trazado 127697" d="M4184.124-6.078a6.611,6.611,0,0,1-2.243.092c-2.876-1.087-4.24-3.273-3.618-5.8a4.779,4.779,0,0,1,4.8-3.722,4.839,4.839,0,0,1,4.586,4,4.8,4.8,0,0,1-2.965,5.217C4184.5-6.21,4184.31-6.147,4184.124-6.078Zm-1-6.193c-1.152.015-1.833.62-1.8,1.6.029.94.688,1.49,1.8,1.5a1.455,1.455,0,0,0,1.371-1.6A1.437,1.437,0,0,0,4183.122-12.271Z" transform="translate(-4160.541 21.905)" fill="#010103"/>
      <path id="Trazado_127698" data-name="Trazado 127698" d="M4156.194-6.088a4.833,4.833,0,0,1-5.818-6.043,4.8,4.8,0,0,1,7.457-2.433,4.521,4.521,0,0,1,1.894,4.452A4.7,4.7,0,0,1,4156.194-6.088Zm-1-3.088a1.455,1.455,0,0,0,1.372-1.6,1.437,1.437,0,0,0-1.372-1.5c-1.152.015-1.832.62-1.8,1.6C4153.418-9.737,4154.078-9.187,4155.192-9.176Z" transform="translate(-4143.799 21.915)" fill="#010103"/>
      <path id="Trazado_127699" data-name="Trazado 127699" d="M4233.833,78.69c.768-.6,1.183-1.183.969-1.989-.229-.864-.93-1.121-1.721-1.295-4.543-1-9.081-2.018-13.623-3.018a1.634,1.634,0,0,0-2.093,2.1c.249,1.17.467,2.349.79,3.5.182.649-.042.759-.59.7a3.906,3.906,0,0,0-.4,0q-28.96,0-57.922.022c-.932,0-1.125-.261-1.122-1.148q.043-18.074,0-36.148c0-.841.149-1.106,1.066-1.1q38.9.044,77.795,0c.867,0,1.094.189,1.092,1.079q-.051,18.124,0,36.248c0,.917-.26,1.129-1.107,1.064C4236.01,78.633,4235.041,78.69,4233.833,78.69ZM4206.915,67.48c-.1-.4.1-.654.178-.939.187-.731.179-1.775.653-2.1.553-.376,1.536-.131,2.333-.133,2.508-.007,2.493,0,2.415-2.526-.016-.507-.128-.713-.669-.685-.8.042-1.6.01-2.4.01-1.726,0-1.725,0-2.179-1.71a6.052,6.052,0,0,0-.276-.853c-.2-.468-.1-.687.439-.633a2.059,2.059,0,0,0,1.744-.795c.573-.6,1.174-1.18,1.763-1.768,1.108-1.107,1.108-1.107-.01-2.218-1.158-1.151-1.146-1.139-2.362.046-.781.761-1.383,1.775-2.785,1.574a2.341,2.341,0,0,1-1.646-.7,3.964,3.964,0,0,0-1.159-.934c-.723-.367-.732-.774-.437-1.478a4.6,4.6,0,0,0-1.3-5.342,4.737,4.737,0,0,0-5.4-.592c-1.746.941-3.035,3.007-2.407,4.818a2.487,2.487,0,0,1-1.317,3.5c-.359.2-.505.695-1.03.706a3.288,3.288,0,0,1-2.935-.988c-1.72-1.944-1.792-1.86-3.533.071-.321.357-.33.562.009.889.912.877,1.794,1.784,2.691,2.676a1.632,1.632,0,0,0,1.346.538c.73-.078.73.205.524.792-.262.744-.173,1.773-.658,2.235-.549.523-1.585.158-2.408.165-2.6.024-2.586.008-2.4,2.645.03.43.146.582.579.569.865-.025,1.731-.007,2.6-.007,1.634,0,1.633,0,2.045,1.624a3.523,3.523,0,0,0,.177.571c.29.654.366,1.134-.63,1.015a1.445,1.445,0,0,0-1.152.512c-.477.464-.944.94-1.415,1.41-1.839,1.837-1.83,1.827.094,3.564.347.313.558.358.889,0,.613-.657,1.256-1.286,1.9-1.91a2.739,2.739,0,0,1,2.994.019,8.539,8.539,0,0,0,12.608.024c.208-.207.373-.441.73-.448,1.1-.023,2.2-.137,2.915,1,.206.33.6.54.828.861.634.888,1.133.73,1.816-.014,1.3-1.415,1.38-1.416-.019-2.713C4209.556,68.808,4208.8,67.185,4206.915,67.48Z" transform="translate(-4148.551 -11.568)" fill="#4179de"/>
      <path id="Trazado_127700" data-name="Trazado 127700" d="M4316.8,136.458c-.513-2.279-.955-4.251-1.4-6.221-.106-.464.052-.609.511-.5,1.97.45,3.942.89,6.2,1.4-.984.4-1.7.739-2.45.985a2.719,2.719,0,0,0-1.881,1.875C4317.543,134.744,4317.2,135.465,4316.8,136.458Z" transform="translate(-4242.849 -65.173)" fill="#4079dd"/>
      <path id="Trazado_127701" data-name="Trazado 127701" d="M4233.676,160.159a1.822,1.822,0,0,1,.2-.026c1.393-.039,1.393-.039,1.393,1.315,0,1.492.041,2.984-.013,4.474a1.984,1.984,0,0,0,1.43,2.265c-.927,1.157-1.819,2.263-2.7,3.377-.22.278-.393.358-.551-.037.4-.3.228-.736.229-1.111C4233.676,167,4233.673,163.578,4233.676,160.159Z" transform="translate(-4193.712 -83.416)" fill="#4079dd"/>
      <path id="Trazado_127702" data-name="Trazado 127702" d="M4229.537,160.108c0,3.419,0,6.838-.016,10.256,0,.375.166.808-.229,1.111-1.025-.994-1.8-2.193-2.763-3.332a2.054,2.054,0,0,0,1.419-2.367c-.064-1.523.039-3.053-.036-4.575-.044-.9.208-1.291,1.13-1.126A4.319,4.319,0,0,0,4229.537,160.108Z" transform="translate(-4189.573 -83.365)" fill="#3563b4"/>
      <path id="Trazado_127703" data-name="Trazado 127703" d="M4281.585,160.159a1.812,1.812,0,0,1,.2-.026c1.393-.039,1.394-.039,1.394,1.315,0,1.492.04,2.984-.014,4.474a1.985,1.985,0,0,0,1.431,2.265c-.927,1.157-1.82,2.263-2.7,3.377-.219.278-.392.358-.551-.037.4-.3.229-.736.229-1.111C4281.584,167,4281.582,163.578,4281.585,160.159Z" transform="translate(-4222.441 -83.416)" fill="#4079dd"/>
      <path id="Trazado_127704" data-name="Trazado 127704" d="M4277.446,160.108c0,3.419,0,6.838-.016,10.256,0,.375.166.808-.23,1.111-1.026-.994-1.8-2.193-2.763-3.332a2.054,2.054,0,0,0,1.419-2.367c-.064-1.523.039-3.053-.036-4.575-.044-.9.208-1.291,1.129-1.126A4.352,4.352,0,0,0,4277.446,160.108Z" transform="translate(-4218.303 -83.365)" fill="#3563b4"/>
      <path id="Trazado_127705" data-name="Trazado 127705" d="M4290.72-5.938c-.168,1.1-.62,1.558-1.643,1.6-.731.027-1.463.007-2.194.007h-38.4c-.266,0-.533.01-.8,0a1.6,1.6,0,0,1-1.667-1.611,1.59,1.59,0,0,1,1.6-1.576,4.885,4.885,0,0,1,.6.024,2.618,2.618,0,0,0,2.729,1.563Q4270.83-5.928,4290.72-5.938Z" transform="translate(-4201.26 17.121)" fill="#e2e6f3"/>
      <path id="Trazado_127706" data-name="Trazado 127706" d="M4294.007-5.942q-19.891,0-39.782,0a2.617,2.617,0,0,1-2.729-1.563c3.555-.01,7.109-.028,10.663-.029q14.9-.006,29.8,0C4293.365-7.535,4293.813-7.179,4294.007-5.942Z" transform="translate(-4204.545 17.125)" fill="#fefefe"/>
      <path id="Trazado_127707" data-name="Trazado 127707" d="M4215.867-4.316c-1.114-.011-1.774-.561-1.8-1.5-.03-.983.65-1.588,1.8-1.6A5.207,5.207,0,0,0,4215.867-4.316Z" transform="translate(-4182.098 17.056)" fill="#d8dce7"/>
      <path id="Trazado_127708" data-name="Trazado 127708" d="M4218.212-4.316a5.207,5.207,0,0,1,0-3.1,1.437,1.437,0,0,1,1.372,1.5A1.455,1.455,0,0,1,4218.212-4.316Z" transform="translate(-4184.444 17.056)" fill="#f7f9fa"/>
      <path id="Trazado_127709" data-name="Trazado 127709" d="M4187.92-4.316c-1.114-.011-1.774-.561-1.8-1.5-.029-.983.651-1.588,1.8-1.6A5.2,5.2,0,0,0,4187.92-4.316Z" transform="translate(-4165.338 17.056)" fill="#d8dce7"/>
      <path id="Trazado_127710" data-name="Trazado 127710" d="M4190.267-4.316a5.2,5.2,0,0,1,0-3.1,1.437,1.437,0,0,1,1.371,1.5A1.455,1.455,0,0,1,4190.267-4.316Z" transform="translate(-4167.685 17.056)" fill="#f7f9fa"/>
      <path id="Trazado_127711" data-name="Trazado 127711" d="M4159.974-4.316c-1.114-.011-1.774-.561-1.8-1.5-.03-.983.65-1.588,1.8-1.6A5.211,5.211,0,0,0,4159.974-4.316Z" transform="translate(-4148.581 17.056)" fill="#d8dce7"/>
      <path id="Trazado_127712" data-name="Trazado 127712" d="M4162.32-4.316a5.215,5.215,0,0,1,0-3.1,1.437,1.437,0,0,1,1.372,1.5A1.455,1.455,0,0,1,4162.32-4.316Z" transform="translate(-4150.927 17.056)" fill="#f7f9fa"/>
      <path id="Trazado_127713" data-name="Trazado 127713" d="M4245.125,74.687c1.89-.3,2.641,1.328,3.744,2.35,1.4,1.3,1.319,1.3.02,2.713-.685.744-1.184.9-1.818.014-.229-.321-.621-.531-.827-.861-.713-1.14-1.816-1.026-2.916-1-.356.007-.522.241-.73.448a8.54,8.54,0,0,1-12.609-.024,2.738,2.738,0,0,0-2.993-.019c-.647.624-1.29,1.253-1.9,1.91-.331.354-.542.309-.889,0-1.924-1.737-1.933-1.727-.093-3.564.472-.47.938-.946,1.415-1.41a1.444,1.444,0,0,1,1.151-.512c1,.119.921-.361.63-1.015a3.672,3.672,0,0,1-.177-.571c-.412-1.624-.411-1.624-2.045-1.624-.866,0-1.732-.018-2.6.007-.432.013-.548-.14-.578-.569-.185-2.637-.2-2.621,2.4-2.645.822-.008,1.858.357,2.407-.165.486-.462.4-1.491.659-2.235.206-.586.205-.87-.525-.792a1.63,1.63,0,0,1-1.345-.538c-.9-.892-1.78-1.8-2.692-2.676-.339-.326-.33-.532-.008-.889,1.74-1.93,1.813-2.014,3.533-.071a3.287,3.287,0,0,0,2.935.988c.524-.011.67-.5,1.029-.706a2.487,2.487,0,0,0,1.317-3.5c-.627-1.811.66-3.878,2.407-4.818a4.738,4.738,0,0,1,5.4.592,4.607,4.607,0,0,1,1.3,5.342c-.3.7-.286,1.111.437,1.478a3.991,3.991,0,0,1,1.16.934,2.339,2.339,0,0,0,1.646.7c1.4.2,2-.813,2.785-1.574,1.216-1.185,1.2-1.2,2.362-.046,1.117,1.11,1.117,1.11.01,2.218-.588.588-1.19,1.165-1.763,1.768a2.058,2.058,0,0,1-1.745.795c-.538-.053-.641.165-.438.633a6.249,6.249,0,0,1,.276.853c.454,1.709.453,1.71,2.178,1.71.8,0,1.6.032,2.4-.01.541-.029.653.177.668.685.078,2.524.093,2.52-2.415,2.526-.8,0-1.78-.243-2.333.133-.475.323-.467,1.367-.654,2.1C4245.23,74.033,4245.024,74.29,4245.125,74.687Zm-10.441-12.364c-3.257,1.151-5.057,4.514-4.76,8.732.2,2.86,2.461,5.9,4.76,6.388Zm3.247,15.2c3.33-1.25,5.15-4.721,4.748-8.864-.28-2.872-2.567-5.891-4.748-6.253Zm-1.588-18.795a1.6,1.6,0,1,0-1.633-1.537A1.607,1.607,0,0,0,4236.343,58.727Z" transform="translate(-4186.762 -18.775)" fill="#010102"/>
      <path id="Trazado_127714" data-name="Trazado 127714" d="M4246.75,77.293v15.12c-2.3-.483-4.559-3.528-4.76-6.388C4241.691,81.807,4243.492,78.444,4246.75,77.293Z" transform="translate(-4198.826 -33.745)" fill="#e6a857"/>
      <path id="Trazado_127715" data-name="Trazado 127715" d="M4262.037,92.612V77.495c2.181.362,4.468,3.381,4.748,6.253C4267.188,87.891,4265.366,91.362,4262.037,92.612Z" transform="translate(-4210.867 -33.866)" fill="#e6a857"/>
      <path id="Trazado_127716" data-name="Trazado 127716" d="M4255.622,63.522a1.6,1.6,0,1,1,1.56-1.608A1.612,1.612,0,0,1,4255.622,63.522Z" transform="translate(-4206.04 -23.571)" fill="#dec26c"/>
    </g>
  </g>
</svg>
