<svg xmlns="http://www.w3.org/2000/svg" width="90.997" height="90.997" viewBox="0 0 90.997 90.997">
  <g id="Grupo_85442" data-name="Grupo 85442" transform="translate(-0.278 -0.277)">
    <circle id="Elipse_5411" data-name="Elipse 5411" cx="45.498" cy="45.498" r="45.498" transform="translate(0.278 0.277)" fill="#2ff980"/>
    <g id="Grupo_85810" data-name="Grupo 85810" transform="translate(-54.855 392.001)">
      <path id="Trazado_127134" data-name="Trazado 127134" d="M132.728-328.539c.685.711.739,1.1.191,1.917A28.3,28.3,0,0,1,111.784-313.6a26.9,26.9,0,0,1-9.433-.576.724.724,0,0,0-.834.276,20.717,20.717,0,0,1-1.534,1.559,2.016,2.016,0,0,1-2.921.2c-1.2-1.113-2.288-1.3-3.645-.321a5.923,5.923,0,0,1-1.833.65.7.7,0,0,0-.612.712,12.405,12.405,0,0,1-.282,1.784,2.115,2.115,0,0,1-2.091,1.723c-.728.024-1.459.021-2.188,0a2.027,2.027,0,0,1-2.163-1.893,2.519,2.519,0,0,0-2.393-2.837,2.375,2.375,0,0,1-1.085-.5c-.839-.692-1.52-.437-2.2.227a5.059,5.059,0,0,1-.791.575,2.157,2.157,0,0,1-1.208.362c-1.37-.007-3.723-2.4-3.713-3.775a2.148,2.148,0,0,1,.428-1.261c.307-.429.6-.87.943-1.271a.779.779,0,0,0,.08-1.057,11.067,11.067,0,0,1-1.287-3.118.767.767,0,0,0-.75-.666,14.57,14.57,0,0,1-1.783-.281,2.088,2.088,0,0,1-1.693-2.112q-.028-1.093,0-2.188A2.1,2.1,0,0,1,70.56-329.5a14.708,14.708,0,0,1,1.71-.268.7.7,0,0,0,.732-.591,11.812,11.812,0,0,1,1.378-3.323.6.6,0,0,0-.067-.8c-.362-.449-.7-.918-1.026-1.4a2.136,2.136,0,0,1,.185-2.827c.492-.538,1.01-1.055,1.544-1.55a2.143,2.143,0,0,1,2.888-.213c.5.339.962.727,1.459,1.068.455.312.881.081.9-.466,0-.025,0-.05,0-.075,0-1.772,0-1.769-1.655-2.366a12.767,12.767,0,0,1-2.518-1.175.682.682,0,0,0-.929.068c-.484.4-1,.767-1.513,1.122a2.257,2.257,0,0,1-3.024-.208q-.852-.8-1.652-1.655a2.256,2.256,0,0,1-.209-3.023c.37-.538.755-1.067,1.164-1.576a.593.593,0,0,0,.064-.8,14.26,14.26,0,0,1-1.613-3.875.583.583,0,0,0-.61-.508c-.624-.066-1.242-.18-1.862-.281a2.277,2.277,0,0,1-2.057-2.232c-.04-.828-.041-1.661,0-2.489a2.283,2.283,0,0,1,2-2.212c.767-.132,1.728,0,2.254-.422s.56-1.384.849-2.1a9.125,9.125,0,0,1,.834-1.763A1.084,1.084,0,0,0,69.651-367a10.011,10.011,0,0,1-.944-1.269,2.261,2.261,0,0,1,.226-2.907c.564-.608,1.15-1.2,1.762-1.759a2.187,2.187,0,0,1,2.838-.217c.586.387,1.148.812,1.7,1.246a.6.6,0,0,0,.8.042,14.2,14.2,0,0,1,3.809-1.578.649.649,0,0,0,.577-.651c.061-.674.174-1.346.3-2.012a2.153,2.153,0,0,1,2.07-1.854,23.522,23.522,0,0,1,2.713,0,2.1,2.1,0,0,1,2.05,1.777,18.89,18.89,0,0,1,.351,2.154.6.6,0,0,0,.539.582,14.1,14.1,0,0,1,3.808,1.578.649.649,0,0,0,.864-.075q.766-.609,1.577-1.161a2.215,2.215,0,0,1,2.958.215c.59.547,1.143,1.133,1.711,1.7a2.607,2.607,0,0,1,.69,1.8c1.156-.278,2.286-.566,3.425-.813.286-.062.366-.169.365-.439-.008-1.358-.012-2.717,0-4.075,0-.314-.129-.347-.4-.374-2.657-.259-3.864-1.612-3.865-4.3,0-.6-.009-1.207,0-1.811a3.694,3.694,0,0,1,3.654-3.661q5.583-.042,11.166,0a3.666,3.666,0,0,1,3.622,3.607c.027.779.021,1.56.008,2.339a3.706,3.706,0,0,1-3.655,3.816c-.479.025-.634.126-.618.624.038,1.206.026,2.415,0,3.622-.007.4.051.6.523.691a26.538,26.538,0,0,1,7.572,2.634c.342.182.51.112.733-.175q1.227-1.577,2.5-3.118a3.546,3.546,0,0,1,5.1-.57q1.043.807,2.059,1.651a3.558,3.558,0,0,1,.542,5.16c-.759.97-1.512,1.947-2.32,2.876-.337.388-.313.606.01.979a27.9,27.9,0,0,1,6.126,11.855,28.367,28.367,0,0,1-1.25,17.519c-.329.831-.716,1.016-1.658.833a1.4,1.4,0,0,1-.606-1.371,25.924,25.924,0,0,0,1.363-16.231c-3.462-15.358-20.406-24.406-35.029-18.561-9.369,3.744-14.911,10.752-16.687,20.691a20.159,20.159,0,0,0-.231,5.4c1.374-.253,1.373-.253,1.547-1.5.038-.273.091-.545.132-.818a2.15,2.15,0,0,1,1.886-2.044c.417-.08.542-.245.549-.627a4.238,4.238,0,0,1,.12-.666,22.475,22.475,0,0,1,29.26-17.1c1,.346,1.172.62,1.047,1.673a1.343,1.343,0,0,1-1.777.483,20.242,20.242,0,0,0-4.7-1.018c-.485-.06-.669.052-.636.574.045.7.025,1.408.007,2.112-.02.81-.473,1.329-1.131,1.337s-1.118-.51-1.134-1.318c-.015-.729-.027-1.46,0-2.188.019-.427-.1-.566-.542-.523a20.353,20.353,0,0,0-11.422,4.757c-.324.273-.29.423-.016.682.548.518,1.084,1.05,1.6,1.6a1.109,1.109,0,0,1,.06,1.671,1.1,1.1,0,0,1-1.661-.068c-.561-.541-1.115-1.091-1.65-1.656-.227-.239-.359-.247-.582.014a20.235,20.235,0,0,0-4.577,9.763c-.038.214-.113.454.218.542a2.313,2.313,0,0,1,1.711,2.454c.04,1.065.354,1.814,1.55,1.931a2.744,2.744,0,0,1,.844.308c.68.319,1.356.921,2.027.911.714-.01,1.256-.83,1.91-1.243a2.1,2.1,0,0,1,2.7.209c.576.523,1.13,1.076,1.654,1.651a2.1,2.1,0,0,1,.185,2.767,11.089,11.089,0,0,1-.94,1.271.805.805,0,0,0-.092,1.116,9.523,9.523,0,0,1,1.213,2.9.981.981,0,0,0,1.075.88,8.426,8.426,0,0,1,1.631.275,1.782,1.782,0,0,1,1.427,1.317,6.542,6.542,0,0,1-.234,4.27c-.708.91-1.8.861-2.907,1.108a18.331,18.331,0,0,0,3.252.71c1.694.2,1.693.2,1.508-1.532.018-.4.028-.8.056-1.193a1.113,1.113,0,0,1,1.124-1.153,1.106,1.106,0,0,1,1.124,1.088c.044.421.04.847.057,1.27a6.684,6.684,0,0,1-.047.9c-.135.732.217.809.831.739a20.378,20.378,0,0,0,10.737-4.442c.783-.633.783-.633.01-1.288-.413-.435-.833-.866-1.239-1.308a1.133,1.133,0,0,1-.081-1.674,1.145,1.145,0,0,1,1.676.065c.46.423.9.866,1.353,1.3.287.137.375.925.854.385a16.071,16.071,0,0,0,2.967-4.638,18.471,18.471,0,0,0,1.885-7c.034-.387-.139-.4-.423-.4q-1.131.014-2.263,0c-.827-.009-1.313-.427-1.317-1.117s.487-1.131,1.3-1.144c.754-.012,1.509-.018,2.263,0,.354.011.466-.064.434-.457a20.124,20.124,0,0,0-4.682-11.45c-.322-.39-.493-.349-.8-.011-.453.5-.947.972-1.435,1.445-.654.634-1.3.7-1.775.194a1.212,1.212,0,0,1,.166-1.793c.492-.5.974-1.02,1.5-1.487.351-.312.281-.492-.057-.732-.7-.494-1.363-1.03-2.063-1.517-.86-.6-.966-.828-.715-1.814.8-.648,1.064-.663,1.939-.1a22.454,22.454,0,0,1,9.627,24.152,22.507,22.507,0,0,1-21.126,17.144,22.151,22.151,0,0,1-7.428-1.012c-.417-.134-.625-.091-.794.337-.228.581-.527,1.133-.8,1.7.322.89.73,1.8,1.7,2.053a25.28,25.28,0,0,0,11.266.428,26.024,26.024,0,0,0,17.555-11.755A1.333,1.333,0,0,1,132.728-328.539Zm-21.252-43.953q0-1.208,0-2.416c.021-.1-.007-.151-.117-.134-1.6-.01-3.2-.012-4.8-.038-.371-.006-.473.139-.46.486.028.7.026,1.4.036,2.1-.011.5-.014,1-.037,1.5-.015.337.117.435.45.394,1.075-.135,2.159-.056,3.238-.093.562-.019,1.337.377,1.622-.042S111.474-371.891,111.476-372.492Zm18.158,8.162c.48-.577.983-1.136,1.432-1.736a1.262,1.262,0,0,0-.215-1.871c-.688-.585-1.392-1.154-2.114-1.7a1.228,1.228,0,0,0-1.812.182c-.5.563-.934,1.176-1.4,1.766-.292.342-.571.7-.88,1.023-.325.343-.362.569.1.852a19.72,19.72,0,0,1,2.47,1.846C128.59-362.813,128.592-362.815,129.634-364.33Zm-13.906-14.953c.009-.627.046-1.255.021-1.881a1.39,1.39,0,0,0-1.443-1.426q-5.5-.031-11,0a1.422,1.422,0,0,0-1.455,1.5c-.017.6.012,1.2.02,1.806-.064,1.35.458,1.93,1.773,1.933q5.162.01,10.324,0C115.292-377.353,115.808-377.933,115.728-379.283ZM77.564-360.99c-.724-.731-.76-1.163-.148-1.953a8.214,8.214,0,0,1,3.433-2.616,8.664,8.664,0,0,1,7.873.611,8.452,8.452,0,0,1,.988.8c.341.368.564.29.912,0a24.89,24.89,0,0,1,4.936-3.274,5.111,5.111,0,0,0,1.686-1.425c.518-.628.451-1.018-.21-1.4a6.245,6.245,0,0,1-.495-.559c-.342-.489-.66-.425-1.081-.066-.553.472-1.182.853-1.746,1.313a1.427,1.427,0,0,1-1.917.079,12.294,12.294,0,0,0-3.675-1.7c-2.32-.646-2.074-.106-2.519-2.835-.284-1.741-.3-1.716-2.075-1.712-.506,0-.646.19-.693.641-.081.774-.228,1.541-.32,2.314a1.405,1.405,0,0,1-1.293,1.336,12.017,12.017,0,0,0-3.928,1.472c-1.867,1.1-1.587,1.24-3.534-.217-1.576-1.18-1.569-1.164-2.9.257-.28.3-.227.476-.015.751.537.7,1.045,1.416,1.575,2.118a1.2,1.2,0,0,1,.051,1.529,14,14,0,0,0-2.125,5.111,1.236,1.236,0,0,1-1.186,1.063c-.871.116-1.738.262-2.606.4-.159.026-.42-.027-.427.208a7.318,7.318,0,0,0,.045,2.1c.108.4.79.259,1.218.337a13.191,13.191,0,0,0,1.563.245,1.423,1.423,0,0,1,1.463,1.327,12.034,12.034,0,0,0,1.475,3.928c1.056,1.81,1.295,1.475-.24,3.526-1.175,1.57-1.157,1.567.291,2.9a.432.432,0,0,0,.686.024c.674-.525,1.381-1.007,2.054-1.533a1.331,1.331,0,0,1,1.725-.072,7.667,7.667,0,0,0,2.051,1.082,6.352,6.352,0,0,0,1.3.55c.371.152.5.087.548-.35.121-1.09.3-2.174.482-3.256.094-.562.483-1.222.3-1.642s-.924-.58-1.421-.853a.663.663,0,0,0-.142-.041c-.291-.234-.589-.46-.872-.7a8.5,8.5,0,0,1-3.036-6.159c-.061-1.024.3-1.4,1.33-1.482a1.289,1.289,0,0,1,.942,1.36,6.251,6.251,0,0,0,3.457,5.377c.44.24.6.147.775-.309a27.754,27.754,0,0,1,5.983-9.4c.389-.4.267-.572-.088-.852a6.282,6.282,0,0,0-8.718.995C78.818-361.07,78.342-360.678,77.564-360.99Zm-1.085,22.325a8.37,8.37,0,0,1-.823.957c-.416.363-.506.658-.1,1.107.418.465.733,1.021,1.133,1.505a1.369,1.369,0,0,1,.073,1.85,8.258,8.258,0,0,0-1.559,3.483,2.247,2.247,0,0,1-2.536,2.226,1.2,1.2,0,0,0-.15.018c-1.512.2-1.5.2-1.466,1.754.008.356.075.533.475.577.773.084,1.537.249,2.308.351a1.2,1.2,0,0,1,1.108,1.06,12.337,12.337,0,0,0,1.884,4.565,1.28,1.28,0,0,1-.077,1.66c-.447.576-.874,1.167-1.3,1.758-.109.15-.345.317-.165.516a5.338,5.338,0,0,0,1.242,1.19c.352.192.662-.331.984-.541a14.364,14.364,0,0,0,1.216-.891,1.337,1.337,0,0,1,1.787-.043,7.843,7.843,0,0,0,3.268,1.489c1.739.234,2.4,1.13,2.511,2.82.1,1.512.223,1.493,1.766,1.418.337-.016.488-.1.525-.458.074-.724.215-1.441.3-2.164a1.365,1.365,0,0,1,1.227-1.311,10.886,10.886,0,0,0,3.516-1.3c1.864-1.084,1.558-1.246,3.535.231,1.281.957,1.277.94,2.347-.226.237-.258.257-.428.045-.7-.45-.574-.858-1.18-1.31-1.752A1.355,1.355,0,0,1,98.2-319.3a10.68,10.68,0,0,0,1.541-3.337c.6-2.336.35-2.01,2.765-2.415,1.537-.258,1.529-.244,1.431-1.8-.021-.337-.115-.485-.47-.523-.724-.077-1.441-.211-2.162-.311a1.37,1.37,0,0,1-1.3-1.227,10.935,10.935,0,0,0-1.3-3.517c-1.1-1.873-1.257-1.554.276-3.594.888-1.183.871-1.174-.214-2.229-.294-.286-.493-.328-.817-.064-.545.444-1.136.831-1.688,1.267A1.36,1.36,0,0,1,94.46-337,8.571,8.571,0,0,0,90.9-338.58a2.207,2.207,0,0,1-2.166-2.5,1.88,1.88,0,0,0-.021-.225c-.183-1.448-.184-1.42-1.66-1.434-.505,0-.646.2-.7.63-.1.747-.229,1.49-.335,2.236a1.127,1.127,0,0,1-.961,1.023,13.065,13.065,0,0,0-4.7,1.939,1.219,1.219,0,0,1-1.535-.066c-.579-.442-1.173-.865-1.763-1.294C76.918-338.375,76.771-338.468,76.479-338.665Z" transform="translate(0 0)" fill="#040303"/>
      <path id="Trazado_127135" data-name="Trazado 127135" d="M217.283-206.36a1.333,1.333,0,0,0-1.712.664,26.024,26.024,0,0,1-17.555,11.755,25.279,25.279,0,0,1-11.266-.428c-.972-.257-1.38-1.163-1.7-2.053a27.694,27.694,0,0,0,11.876,1.035,26.421,26.421,0,0,0,11.195-4.091,27.872,27.872,0,0,0,6.241-5.487,45.666,45.666,0,0,0,3.29-4.74,1.4,1.4,0,0,0,.606,1.371Z" transform="translate(-84.555 -122.18)" fill="#efcb6a"/>
      <path id="Trazado_127136" data-name="Trazado 127136" d="M180.965-277.03c-.45-.434-.892-.878-1.353-1.3a1.145,1.145,0,0,0-1.676-.065,1.133,1.133,0,0,0,.081,1.674c.406.442.825.872,1.239,1.308-.086.051-.175.1-.256.152a20.754,20.754,0,0,1-11.274,3.942c-.017-.424-.012-.849-.057-1.27a1.106,1.106,0,0,0-1.124-1.088,1.113,1.113,0,0,0-1.124,1.153c-.028.4-.038.8-.056,1.193-.63-.014-1.287.146-1.853-.286a6.541,6.541,0,0,0,.234-4.27,1.782,1.782,0,0,0-1.427-1.317,8.428,8.428,0,0,0-1.631-.275.981.981,0,0,1-1.075-.88,9.523,9.523,0,0,0-1.213-2.9.805.805,0,0,1,.092-1.116,11.088,11.088,0,0,0,.94-1.271,2.1,2.1,0,0,0-.185-2.767c-.524-.575-1.078-1.128-1.654-1.651a2.1,2.1,0,0,0-2.7-.209c-.654.413-1.2,1.233-1.91,1.243-.671.009-1.346-.593-2.027-.912a2.744,2.744,0,0,0-.844-.308c-1.2-.117-1.51-.865-1.55-1.931a2.313,2.313,0,0,0-1.711-2.454c-.331-.088-.257-.328-.218-.542a20.235,20.235,0,0,1,4.577-9.763c.223-.262.355-.254.582-.014.536.566,1.089,1.116,1.65,1.656a1.1,1.1,0,0,0,1.661.068,1.109,1.109,0,0,0-.06-1.671c-.515-.55-1.051-1.082-1.6-1.6-.274-.259-.308-.409.016-.682a20.354,20.354,0,0,1,11.422-4.757c.445-.043.561.1.542.523-.032.728-.02,1.458,0,2.188.017.807.475,1.325,1.134,1.317s1.111-.526,1.131-1.337c.018-.7.038-1.41-.007-2.112-.034-.522.151-.633.636-.574a20.243,20.243,0,0,1,4.7,1.018,1.343,1.343,0,0,0,1.776-.483c.712.19,1.288.705,2.021.847-.251.986-.145,1.216.715,1.814.7.487,1.367,1.023,2.063,1.517.338.24.408.42.057.732-.525.467-1.007.983-1.5,1.487a1.212,1.212,0,0,0-.166,1.793c.477.505,1.121.44,1.775-.194.487-.473.982-.941,1.435-1.445.3-.338.474-.379.8.011a20.123,20.123,0,0,1,4.682,11.45c.032.394-.08.468-.434.457-.754-.022-1.509-.016-2.263,0-.813.013-1.3.456-1.3,1.144s.49,1.109,1.317,1.118q1.131.012,2.263,0c.284,0,.457.009.423.4a18.47,18.47,0,0,1-1.885,7c-.355.055-.44.382-.6.62A15.271,15.271,0,0,1,180.965-277.03Zm-13.279-20.576c0-1.157.02-2.314-.006-3.47-.021-.9-.644-1.424-1.4-1.232-.686.174-.869.679-.867,1.318.006,2.213-.011,4.426.013,6.638a.807.807,0,0,1-.567.89,3.984,3.984,0,0,0-2.336,4.1,4.017,4.017,0,0,0,3.759,3.584,4.019,4.019,0,0,0,4.171-2.995,3.972,3.972,0,0,0-2.3-4.715.707.707,0,0,1-.471-.8C167.7-295.392,167.688-296.5,167.687-297.605Z" transform="translate(-57.734 -52.263)" fill="#fbf3f3"/>
      <path id="Trazado_127137" data-name="Trazado 127137" d="M93.128-241.512c.292.2.439.29.579.391.589.429,1.183.852,1.763,1.294a1.219,1.219,0,0,0,1.535.066,13.065,13.065,0,0,1,4.7-1.939,1.127,1.127,0,0,0,.961-1.023c.106-.746.238-1.488.335-2.236.056-.431.2-.635.7-.63,1.476.014,1.477-.014,1.66,1.434a1.879,1.879,0,0,1,.021.225,2.207,2.207,0,0,0,2.166,2.5,8.572,8.572,0,0,1,3.555,1.579,1.36,1.36,0,0,0,1.792-.051c.552-.436,1.143-.823,1.688-1.267.324-.264.523-.222.817.064,1.085,1.055,1.1,1.046.214,2.229-1.532,2.041-1.371,1.721-.276,3.594a10.935,10.935,0,0,1,1.3,3.517,1.37,1.37,0,0,0,1.3,1.227c.722.1,1.439.234,2.162.311.355.038.449.186.47.523.1,1.552.106,1.538-1.431,1.8-2.415.405-2.164.08-2.765,2.415a10.68,10.68,0,0,1-1.541,3.337,1.355,1.355,0,0,0,.047,1.789c.451.572.86,1.178,1.31,1.752.211.27.192.44-.045.7-1.07,1.166-1.066,1.183-2.347.226-1.976-1.477-1.671-1.314-3.535-.231a10.887,10.887,0,0,1-3.516,1.3,1.365,1.365,0,0,0-1.227,1.311c-.088.723-.229,1.44-.3,2.164-.037.36-.188.442-.525.458-1.543.075-1.668.094-1.766-1.418-.109-1.69-.772-2.585-2.511-2.82a7.843,7.843,0,0,1-3.268-1.489,1.337,1.337,0,0,0-1.787.043,14.35,14.35,0,0,1-1.216.891c-.322.21-.632.733-.984.541a5.338,5.338,0,0,1-1.242-1.19c-.179-.2.057-.365.165-.515.427-.591.854-1.182,1.3-1.758a1.28,1.28,0,0,0,.077-1.66,12.337,12.337,0,0,1-1.884-4.565,1.2,1.2,0,0,0-1.108-1.06c-.771-.1-1.535-.266-2.308-.351-.4-.044-.467-.221-.475-.577-.035-1.554-.046-1.553,1.466-1.754a1.2,1.2,0,0,1,.15-.018,2.247,2.247,0,0,0,2.536-2.226,8.258,8.258,0,0,1,1.559-3.483,1.369,1.369,0,0,0-.073-1.85c-.4-.484-.715-1.04-1.133-1.505-.4-.45-.314-.744.1-1.107A8.367,8.367,0,0,0,93.128-241.512Zm6.217,16.588-.005-.008a1.391,1.391,0,0,0,.238.927,5.186,5.186,0,0,0,4.922,2.718,5.13,5.13,0,0,0,4.644-3.929c.145-.234.294-.466.433-.7A6.324,6.324,0,0,0,107-234.765a6.309,6.309,0,0,0-8.668,3.11,6.38,6.38,0,0,0,.859,6.55Z" transform="translate(-16.65 -97.153)" fill="#ea555a"/>
      <path id="Trazado_127138" data-name="Trazado 127138" d="M161.972-322.98c-.732-.142-1.308-.657-2.021-.847.126-1.053-.045-1.327-1.046-1.673a22.475,22.475,0,0,0-29.26,17.1,4.239,4.239,0,0,0-.12.666c-.006.382-.132.547-.549.627a2.15,2.15,0,0,0-1.886,2.044c-.041.273-.094.545-.132.818-.174,1.247-.173,1.247-1.547,1.5a20.16,20.16,0,0,1,.231-5.4c1.775-9.939,7.318-16.947,16.687-20.691,14.623-5.845,31.567,3.2,35.029,18.561A25.924,25.924,0,0,1,176-294.049a45.7,45.7,0,0,1-3.29,4.74,27.873,27.873,0,0,1-6.241,5.488,26.422,26.422,0,0,1-11.195,4.091,27.694,27.694,0,0,1-11.876-1.035c.269-.564.568-1.117.8-1.7.168-.428.376-.471.794-.337a22.151,22.151,0,0,0,7.428,1.012,22.507,22.507,0,0,0,21.127-17.144,22.454,22.454,0,0,0-9.627-24.152C163.036-323.642,162.772-323.628,161.972-322.98Z" transform="translate(-42.901 -37.836)" fill="#f8df87"/>
      <path id="Trazado_127139" data-name="Trazado 127139" d="M93.911-343.839a8.664,8.664,0,0,0-7.873-.611,8.214,8.214,0,0,0-3.433,2.616c-.611.79-.576,1.223.148,1.953a5.946,5.946,0,0,0-.623,2.178c-1.033.085-1.392.458-1.33,1.482a8.5,8.5,0,0,0,3.036,6.159c.283.244.581.47.872.7a31.547,31.547,0,0,0-1.065,5.592,7.668,7.668,0,0,1-2.051-1.082,1.331,1.331,0,0,0-1.725.072c-.673.526-1.38,1.008-2.054,1.533a.432.432,0,0,1-.686-.024c-1.449-1.336-1.466-1.333-.291-2.9,1.535-2.051,1.3-1.716.24-3.526a12.033,12.033,0,0,1-1.475-3.928,1.423,1.423,0,0,0-1.463-1.327,13.185,13.185,0,0,1-1.563-.245c-.428-.078-1.11.065-1.218-.337a7.319,7.319,0,0,1-.045-2.1c.008-.235.269-.182.427-.208.868-.143,1.735-.288,2.606-.4a1.237,1.237,0,0,0,1.186-1.063,14,14,0,0,1,2.125-5.111,1.2,1.2,0,0,0-.051-1.529c-.53-.7-1.037-1.421-1.575-2.118-.212-.275-.266-.452.015-.751,1.332-1.421,1.324-1.437,2.9-.257,1.947,1.457,1.668,1.313,3.534.217a12.017,12.017,0,0,1,3.928-1.472,1.405,1.405,0,0,0,1.293-1.336c.092-.773.239-1.54.32-2.314.047-.451.188-.64.693-.641,1.779,0,1.791-.029,2.075,1.712.445,2.729.2,2.189,2.519,2.835a12.3,12.3,0,0,1,3.675,1.7,1.427,1.427,0,0,0,1.917-.079c.564-.46,1.193-.842,1.746-1.313.421-.359.739-.423,1.081.066a6.242,6.242,0,0,0,.495.559,2.942,2.942,0,0,1-.311.189A30.982,30.982,0,0,0,93.911-343.839Z" transform="translate(-5.189 -21.109)" fill="#96c7f7"/>
      <path id="Trazado_127140" data-name="Trazado 127140" d="M189.543-374.039c-.008-.6-.037-1.2-.02-1.806a1.421,1.421,0,0,1,1.455-1.5q5.5-.032,11,0a1.39,1.39,0,0,1,1.443,1.426c.025.626-.012,1.254-.021,1.881a3.764,3.764,0,0,1-1.876.456q-5.054-.011-10.107,0A3.658,3.658,0,0,1,189.543-374.039Z" transform="translate(-87.672 -5.244)" fill="#fae188"/>
      <path id="Trazado_127141" data-name="Trazado 127141" d="M189.589-366.38a3.658,3.658,0,0,0,1.874.455q5.054-.01,10.107,0a3.764,3.764,0,0,0,1.876-.456c.081,1.351-.436,1.93-1.759,1.933q-5.162.01-10.324,0C190.047-364.45,189.525-365.03,189.589-366.38Z" transform="translate(-87.719 -12.903)" fill="#efcb6a"/>
      <path id="Trazado_127142" data-name="Trazado 127142" d="M267.8-333.259c.463-.591.9-1.2,1.4-1.766a1.228,1.228,0,0,1,1.811-.182c.722.542,1.426,1.11,2.114,1.7a1.262,1.262,0,0,1,.215,1.871c-.449.6-.953,1.159-1.432,1.736-.767-.639-1.544-1.266-2.3-1.92A9.893,9.893,0,0,1,267.8-333.259Z" transform="translate(-142.273 -34.425)" fill="#ea555a"/>
      <path id="Trazado_127143" data-name="Trazado 127143" d="M216.27-191.694a20.755,20.755,0,0,0,11.274-3.942c.082-.056.171-.1.256-.152.773.656.773.655-.01,1.288a20.378,20.378,0,0,1-10.737,4.442c-.614.07-.966-.007-.831-.739A6.689,6.689,0,0,0,216.27-191.694Z" transform="translate(-106.279 -131.886)" fill="#e9dfdb"/>
      <path id="Trazado_127144" data-name="Trazado 127144" d="M146.137-331.211a30.981,30.981,0,0,1,8-5.109,2.953,2.953,0,0,0,.311-.189c.661.377.728.768.21,1.4a5.111,5.111,0,0,1-1.686,1.425,24.89,24.89,0,0,0-4.936,3.274c-.348.293-.571.371-.912,0A8.463,8.463,0,0,0,146.137-331.211Z" transform="translate(-57.415 -33.738)" fill="#73b4f5"/>
      <path id="Trazado_127145" data-name="Trazado 127145" d="M203.615-349.9c-.01-.7-.008-1.4-.036-2.1-.014-.346.088-.491.46-.486,1.6.025,3.2.027,4.8.038l.117.134q0,1.208,0,2.416Z" transform="translate(-97.479 -22.596)" fill="#f4bb68"/>
      <path id="Trazado_127146" data-name="Trazado 127146" d="M112.2-265.529a31.549,31.549,0,0,1,1.065-5.592.663.663,0,0,1,.142.041c.5.273,1.238.439,1.421.853s-.2,1.08-.3,1.642c-.182,1.082-.362,2.166-.482,3.256-.048.437-.177.5-.548.35A6.354,6.354,0,0,1,112.2-265.529Z" transform="translate(-33.746 -79.344)" fill="#73b4f5"/>
      <path id="Trazado_127147" data-name="Trazado 127147" d="M203.614-343.939l5.34,0c0,.6.213,1.35-.067,1.762s-1.06.023-1.622.042c-1.079.037-2.162-.042-3.238.093-.333.041-.465-.057-.45-.394C203.6-342.935,203.6-343.437,203.614-343.939Z" transform="translate(-97.478 -28.555)" fill="#eba954"/>
      <path id="Trazado_127148" data-name="Trazado 127148" d="M265.207-328.04a9.89,9.89,0,0,0,1.808,1.434c.754.654,1.531,1.282,2.3,1.92-1.042,1.514-1.044,1.517-2.41.366a19.724,19.724,0,0,0-2.47-1.846c-.467-.282-.43-.508-.1-.852C264.636-327.344,264.915-327.7,265.207-328.04Z" transform="translate(-139.679 -39.644)" fill="#e44142"/>
      <path id="Trazado_127149" data-name="Trazado 127149" d="M195.811-183.237c.566.431,1.223.272,1.853.286.185,1.736.185,1.734-1.508,1.532a18.335,18.335,0,0,1-3.252-.71C194.011-182.376,195.1-182.327,195.811-183.237Z" transform="translate(-90.034 -140.641)" fill="#e9dfdb"/>
      <path id="Trazado_127150" data-name="Trazado 127150" d="M260.208-210.941a15.271,15.271,0,0,0,3.219-3.634c.162-.237.246-.564.6-.62a16.07,16.07,0,0,1-2.967,4.638C260.583-210.015,260.5-210.8,260.208-210.941Z" transform="translate(-136.977 -118.352)" fill="#e9dfdb"/>
      <path id="Trazado_127151" data-name="Trazado 127151" d="M221.087-352.232l-.117-.134C221.08-352.383,221.108-352.329,221.087-352.232Z" transform="translate(-109.61 -22.675)" fill="#eba954"/>
      <path id="Trazado_127152" data-name="Trazado 127152" d="M204.325-280.078c0,1.107.012,2.213-.005,3.319a.706.706,0,0,0,.471.8,3.972,3.972,0,0,1,2.3,4.715,4.019,4.019,0,0,1-4.171,2.995,4.017,4.017,0,0,1-3.759-3.584,3.984,3.984,0,0,1,2.336-4.1.807.807,0,0,0,.567-.89c-.023-2.213-.007-4.426-.013-6.638,0-.64.182-1.144.867-1.318.758-.192,1.382.333,1.4,1.232C204.344-282.392,204.324-281.235,204.325-280.078Zm.567,7.545a1.689,1.689,0,0,0-1.758-1.495,1.656,1.656,0,0,0-1.652,1.508,1.505,1.505,0,0,0,.745,1.719,1.62,1.62,0,0,0,1.845.038A1.57,1.57,0,0,0,204.892-272.534Z" transform="translate(-94.372 -69.79)" fill="#050404"/>
      <path id="Trazado_127153" data-name="Trazado 127153" d="M122.476-201.756a6.38,6.38,0,0,1-.859-6.55,6.309,6.309,0,0,1,8.668-3.11,6.324,6.324,0,0,1,2.574,8.847c-.139.237-.289.469-.433.7a6.454,6.454,0,0,1-5.363,2.4,6.686,6.686,0,0,1-4.441-2.119l.005.008Zm8.183-1.66a3.742,3.742,0,0,0,.7-3.326,3.967,3.967,0,0,0-5.836-2.547c-.1.171.041.282.107.4a27.267,27.267,0,0,0,4.123,5.626C130.206-202.773,130.429-202.937,130.658-203.416Zm-6.908-4.146a4.032,4.032,0,0,0,.507,4.316,4,4,0,0,0,3.779,1.479A30.651,30.651,0,0,1,123.751-207.562Z" transform="translate(-39.931 -120.501)" fill="#030202"/>
      <path id="Trazado_127154" data-name="Trazado 127154" d="M126.178-177.963a6.686,6.686,0,0,0,4.441,2.119,6.455,6.455,0,0,0,5.363-2.4,5.13,5.13,0,0,1-4.644,3.929,5.186,5.186,0,0,1-4.922-2.718A1.391,1.391,0,0,1,126.178-177.963Z" transform="translate(-43.487 -144.121)" fill="#e44142"/>
      <path id="Trazado_127155" data-name="Trazado 127155" d="M125.719-177.881l.152.181Z" transform="translate(-43.174 -144.377)" fill="#e44142"/>
      <path id="Trazado_127156" data-name="Trazado 127156" d="M210.2-244.208a1.57,1.57,0,0,1-.82,1.771,1.62,1.62,0,0,1-1.845-.038,1.505,1.505,0,0,1-.745-1.719A3.73,3.73,0,0,0,210.2-244.208Z" transform="translate(-99.679 -98.115)" fill="#e44142"/>
      <path id="Trazado_127157" data-name="Trazado 127157" d="M210.331-247.655a3.73,3.73,0,0,1-3.41.013,1.656,1.656,0,0,1,1.652-1.508A1.689,1.689,0,0,1,210.331-247.655Z" transform="translate(-99.811 -94.668)" fill="#ea555a"/>
      <path id="Trazado_127158" data-name="Trazado 127158" d="M135.778-204.072a3.967,3.967,0,0,1,5.836,2.547,3.742,3.742,0,0,1-.7,3.326,1.867,1.867,0,0,0-.607-.748,32.149,32.149,0,0,1-3.63-4.074C136.41-203.39,136.294-203.909,135.778-204.072Z" transform="translate(-50.19 -125.718)" fill="#f8df87"/>
      <path id="Trazado_127159" data-name="Trazado 127159" d="M135.7-202.78c.516.163.632.682.9,1.05a32.147,32.147,0,0,0,3.63,4.074,1.867,1.867,0,0,1,.607.748c-.229.479-.453.643-.909.157a27.269,27.269,0,0,1-4.123-5.626C135.737-202.5,135.6-202.609,135.7-202.78Z" transform="translate(-50.109 -127.01)" fill="#efcb6a"/>
    </g>
  </g>
</svg>
