<svg xmlns="http://www.w3.org/2000/svg" width="90.997" height="90.997" viewBox="0 0 90.997 90.997">
  <g id="Grupo_85682" data-name="Grupo 85682" transform="translate(-0.278 -0.277)">
    <circle id="Elipse_5411" data-name="Elipse 5411" cx="45.498" cy="45.498" r="45.498" transform="translate(0.278 0.277)" fill="#2ff980"/>
    <g id="Grupo_85811" data-name="Grupo 85811" transform="translate(268.075 363.461)">
      <path id="Trazado_127160" data-name="Trazado 127160" d="M-238.3-291.872h-13.745a9.725,9.725,0,0,1-1.682-.1,5.515,5.515,0,0,1-4.593-5.194q-.014-.3-.014-.591,0-23.189-.005-46.377a5.517,5.517,0,0,1,3.321-5.4,5.212,5.212,0,0,1,2.294-.461q30.415.007,60.831.007a5.432,5.432,0,0,1,5.619,5.583q.026,23.442,0,46.884a5.49,5.49,0,0,1-5.667,5.646c-4.534.024-9.068.005-13.6.007-.87,0-.894.037-.47.8a11.157,11.157,0,0,0,1.984,2.5,1.068,1.068,0,0,0,.834.307c.76-.01,1.521-.016,2.281,0,1.012.022,1.623.571,1.631,1.436.007.883-.579,1.431-1.6,1.442-1.519.017-3.038,0-4.558,0h-33.711c-1.491,0-2.982.009-4.473,0-1.087-.008-1.7-.541-1.692-1.441s.628-1.421,1.71-1.442a2.137,2.137,0,0,1,.506,0c2.13.484,3.281-.785,4.252-2.368A2.875,2.875,0,0,0-238.3-291.872Zm15.968-55.243q-15.165,0-30.33-.006a2.7,2.7,0,0,0-1.8.583,3.005,3.005,0,0,0-.993,2.566c.013,15.289.036,30.579-.021,45.869a3.014,3.014,0,0,0,3.342,3.354c5.771-.06,11.544-.015,17.316-.023,8.9-.012,17.8-.042,26.695-.045,5.265,0,10.53.035,15.8.044,2.161,0,3.177-1,3.177-3.128q0-23.061,0-46.122c0-2.1-1-3.088-3.105-3.088Q-207.292-347.112-222.33-347.114Zm-14.549,58.782h29.212a8.39,8.39,0,0,1-1.5-2.827c-.164-.661-.514-.722-1.075-.722q-12.038.02-24.076.009c-.169,0-.338.005-.507,0-.217-.007-.392.047-.451.283A11.015,11.015,0,0,1-236.879-288.332Z" fill="#020303"/>
      <path id="Trazado_127161" data-name="Trazado 127161" d="M-216.742-341.5l30.077,0c2.106,0,3.1.99,3.105,3.088q0,23.061,0,46.122c0,2.124-1.016,3.132-3.177,3.128-5.266-.009-10.531-.046-15.8-.044-8.9,0-17.8.034-26.695.045-5.772.007-11.545-.037-17.316.023a3.014,3.014,0,0,1-3.342-3.354c.057-15.289.033-30.579.021-45.869a3.005,3.005,0,0,1,.993-2.566,2.7,2.7,0,0,1,1.8-.583Q-231.907-341.49-216.742-341.5Zm-17.016,6.395c-3.517-.313-5.7,2.226-5.57,5.468.119,2.95.034,5.91.022,8.865A3.694,3.694,0,0,1-243-316.8a1.448,1.448,0,0,0-1.52,1.378,1.5,1.5,0,0,0,1.494,1.508,3.73,3.73,0,0,1,3.722,4.127c.007,3.1-.01,6.192.007,9.288a4.668,4.668,0,0,0,2.817,4.52,7.975,7.975,0,0,0,4.234.37,1.358,1.358,0,0,0,1.154-1.449,1.436,1.436,0,0,0-1.377-1.343c-.5-.031-1.013-.013-1.52-.014-1.761,0-2.407-.634-2.41-2.376-.005-2.927-.026-5.854.006-8.781a6.764,6.764,0,0,0-2.181-5.449c-.317-.283-.2-.42.041-.647a6.775,6.775,0,0,0,2.139-5.3c-.024-3.011-.013-6.023,0-9.034.005-1.561.658-2.2,2.2-2.214a15.407,15.407,0,0,0,1.853-.051,1.425,1.425,0,0,0,1.251-1.464,1.43,1.43,0,0,0-1.44-1.364C-232.954-335.119-233.377-335.1-233.758-335.1Zm39.672,9.76v-4.813c0-.056,0-.112,0-.169a4.774,4.774,0,0,0-3.9-4.731,13.668,13.668,0,0,0-2.866-.067,1.429,1.429,0,0,0-1.455,1.442,1.474,1.474,0,0,0,1.486,1.428c.5.034,1.013.007,1.52.011,1.7.011,2.329.639,2.332,2.361.005,2.927.038,5.855-.01,8.782a6.762,6.762,0,0,0,2.176,5.449c.24.216.285.338.016.582a6.908,6.908,0,0,0-2.194,5.613c.058,2.926.022,5.854.011,8.782a1.962,1.962,0,0,1-2.216,2.248c-.535.007-1.07-.012-1.6.006a1.445,1.445,0,0,0-1.516,1.377,1.471,1.471,0,0,0,1.424,1.488c.532.041,1.069.015,1.6.014a4.834,4.834,0,0,0,5.2-5.229c.005-3.068-.007-6.136,0-9.2a3.732,3.732,0,0,1,3.655-3.942c1-.092,1.557-.591,1.564-1.408a1.564,1.564,0,0,0-1.63-1.485,3.659,3.659,0,0,1-3.588-3.805C-194.1-322.189-194.086-323.766-194.087-325.342ZM-226.534-307.4a6.467,6.467,0,0,0,1.211,3.961,3.778,3.778,0,0,0,6.206.133,6.949,6.949,0,0,0-.107-8.314,3.746,3.746,0,0,0-5.937.066A6.232,6.232,0,0,0-226.534-307.4Zm0-15.865a6.26,6.26,0,0,0,1.229,3.954,3.774,3.774,0,0,0,6.2.095,6.959,6.959,0,0,0-.085-8.251,3.751,3.751,0,0,0-5.991.041A6.242,6.242,0,0,0-226.534-323.262Zm17.373-.305a6.656,6.656,0,0,0,1.23,4.252,3.771,3.771,0,0,0,6.2.107,6.967,6.967,0,0,0-.081-8.249,3.75,3.75,0,0,0-5.988.029A6.072,6.072,0,0,0-209.161-323.567Zm0,16.165a6.1,6.1,0,0,0,1.659,4.464,3.666,3.666,0,0,0,5.412.013,6.819,6.819,0,0,0,.012-8.933,3.725,3.725,0,0,0-5.652.238A6.25,6.25,0,0,0-209.159-307.4Zm-5.753-15.9c0,1.348-.018,2.7.006,4.044.018,1.02.576,1.613,1.443,1.607a1.453,1.453,0,0,0,1.443-1.625q.028-4,0-8a1.5,1.5,0,0,0-1.418-1.667c-.858-.026-1.454.633-1.47,1.686C-214.927-325.938-214.912-324.618-214.912-323.3Zm0,15.835c0,1.348-.015,2.7,0,4.043.016,1.078.572,1.682,1.474,1.661a1.463,1.463,0,0,0,1.415-1.652q.025-3.959,0-7.918c-.005-1.052-.59-1.718-1.449-1.723s-1.427.647-1.442,1.715C-214.926-310.047-214.912-308.755-214.912-307.463Zm-17.367-15.857c0,1.319-.006,2.639,0,3.959.006,1.1.519,1.707,1.413,1.713s1.46-.631,1.465-1.686q.017-3.959,0-7.918a1.5,1.5,0,0,0-1.478-1.69,1.477,1.477,0,0,0-1.4,1.663C-232.287-325.959-232.279-324.64-232.279-323.32Zm0,15.9c0,1.348-.009,2.7,0,4.043.009,1.02.546,1.616,1.419,1.62a1.448,1.448,0,0,0,1.455-1.608q.023-4.043,0-8.086a1.475,1.475,0,0,0-1.482-1.6,1.46,1.46,0,0,0-1.39,1.586C-232.29-310.118-232.278-308.77-232.279-307.422Z" transform="translate(-5.588 -5.616)" fill="#67d3c9"/>
      <path id="Trazado_127162" data-name="Trazado 127162" d="M-195-174.9a11.015,11.015,0,0,0,1.608-3.257c.059-.236.234-.291.451-.283.169.005.338,0,.507,0q12.038,0,24.076-.009c.561,0,.911.061,1.075.722a8.39,8.39,0,0,0,1.5,2.827Z" transform="translate(-41.883 -113.436)" fill="#f7f9fa"/>
      <path id="Trazado_127163" data-name="Trazado 127163" d="M-223.29-322.656c.381,0,.8-.018,1.226,0a1.43,1.43,0,0,1,1.44,1.364,1.425,1.425,0,0,1-1.251,1.464,15.407,15.407,0,0,1-1.853.051c-1.543.014-2.2.653-2.2,2.214-.01,3.011-.021,6.023,0,9.034a6.775,6.775,0,0,1-2.139,5.3c-.245.227-.358.364-.041.647a6.764,6.764,0,0,1,2.181,5.449c-.033,2.927-.012,5.854-.006,8.781,0,1.742.648,2.372,2.41,2.376.507,0,1.015-.018,1.52.014a1.436,1.436,0,0,1,1.377,1.343,1.358,1.358,0,0,1-1.154,1.449,7.975,7.975,0,0,1-4.234-.37,4.668,4.668,0,0,1-2.817-4.52c-.017-3.1,0-6.192-.007-9.288a3.73,3.73,0,0,0-3.722-4.127,1.5,1.5,0,0,1-1.494-1.508,1.448,1.448,0,0,1,1.52-1.378,3.694,3.694,0,0,0,3.694-3.969c.013-2.955.1-5.914-.022-8.865C-228.991-320.43-226.807-322.969-223.29-322.656Z" transform="translate(-16.056 -18.062)" fill="#020404"/>
      <path id="Trazado_127164" data-name="Trazado 127164" d="M-101.232-312.969c0,1.576-.013,3.153,0,4.729a3.659,3.659,0,0,0,3.588,3.805,1.564,1.564,0,0,1,1.63,1.485c-.006.816-.561,1.315-1.564,1.408a3.732,3.732,0,0,0-3.655,3.942c-.012,3.068,0,6.136,0,9.2a4.834,4.834,0,0,1-5.2,5.229c-.535,0-1.072.027-1.6-.014a1.471,1.471,0,0,1-1.424-1.488,1.445,1.445,0,0,1,1.516-1.377c.534-.018,1.07,0,1.6-.006a1.962,1.962,0,0,0,2.216-2.248c.011-2.927.047-5.855-.011-8.782a6.908,6.908,0,0,1,2.194-5.613c.269-.243.224-.365-.016-.582a6.762,6.762,0,0,1-2.176-5.449c.048-2.927.016-5.855.011-8.782,0-1.722-.629-2.35-2.332-2.361-.507,0-1.015.023-1.52-.011a1.474,1.474,0,0,1-1.486-1.428A1.429,1.429,0,0,1-108-322.748a13.669,13.669,0,0,1,2.866.067,4.774,4.774,0,0,1,3.9,4.731c0,.056,0,.112,0,.169Q-101.233-315.375-101.232-312.969Z" transform="translate(-98.442 -17.99)" fill="#020303"/>
      <path id="Trazado_127165" data-name="Trazado 127165" d="M-180.958-251.853a6.238,6.238,0,0,1,1.374-4.154,3.746,3.746,0,0,1,5.937-.066,6.949,6.949,0,0,1,.107,8.315,3.778,3.778,0,0,1-6.206-.133A6.474,6.474,0,0,1-180.958-251.853Zm5.858.024a3.675,3.675,0,0,0-.72-2.314c-.51-.619-1-.613-1.535-.005a4.051,4.051,0,0,0,.014,4.629.86.86,0,0,0,1.486,0A3.563,3.563,0,0,0-175.1-251.829Z" transform="translate(-51.165 -61.161)" fill="#010303"/>
      <path id="Trazado_127166" data-name="Trazado 127166" d="M-180.959-298.733a6.248,6.248,0,0,1,1.358-4.16,3.751,3.751,0,0,1,5.991-.041,6.959,6.959,0,0,1,.085,8.251,3.774,3.774,0,0,1-6.2-.095A6.267,6.267,0,0,1-180.959-298.733Zm2.887-.073a3.467,3.467,0,0,0,.72,2.359.855.855,0,0,0,1.483.043,4.053,4.053,0,0,0,.013-4.7.853.853,0,0,0-1.481.026A3.363,3.363,0,0,0-178.072-298.806Z" transform="translate(-51.164 -30.146)" fill="#010303"/>
      <path id="Trazado_127167" data-name="Trazado 127167" d="M-129.672-299.035a6.072,6.072,0,0,1,1.364-3.861,3.75,3.75,0,0,1,5.988-.029,6.967,6.967,0,0,1,.081,8.249,3.771,3.771,0,0,1-6.2-.107A6.656,6.656,0,0,1-129.672-299.035Zm5.846.3a3.435,3.435,0,0,0-.689-2.283c-.53-.661-1.046-.649-1.585.009a4.1,4.1,0,0,0,.033,4.566c.523.6,1.033.61,1.538-.015A3.423,3.423,0,0,0-123.826-298.739Z" transform="translate(-85.077 -30.149)" fill="#010303"/>
      <path id="Trazado_127168" data-name="Trazado 127168" d="M-129.665-251.852a6.25,6.25,0,0,1,1.431-4.219,3.725,3.725,0,0,1,5.652-.238,6.819,6.819,0,0,1-.012,8.933,3.666,3.666,0,0,1-5.412-.013A6.1,6.1,0,0,1-129.665-251.852Zm5.843.012a3.414,3.414,0,0,0-.7-2.28c-.514-.635-1-.638-1.532-.038a4.074,4.074,0,0,0-.007,4.63.877.877,0,0,0,1.539-.032A3.436,3.436,0,0,0-123.822-251.841Z" transform="translate(-85.081 -61.167)" fill="#010303"/>
      <path id="Trazado_127169" data-name="Trazado 127169" d="M-146.66-298.783c0-1.32-.015-2.64,0-3.959.016-1.053.612-1.712,1.47-1.686a1.5,1.5,0,0,1,1.418,1.667q.025,4,0,8a1.453,1.453,0,0,1-1.443,1.625c-.867.006-1.425-.587-1.443-1.607C-146.678-296.086-146.66-297.435-146.66-298.783Z" transform="translate(-73.84 -30.132)" fill="#020505"/>
      <path id="Trazado_127170" data-name="Trazado 127170" d="M-146.66-251.931c0-1.292-.014-2.583,0-3.875.015-1.067.582-1.72,1.442-1.715s1.444.671,1.449,1.723q.02,3.96,0,7.918a1.463,1.463,0,0,1-1.415,1.652c-.9.021-1.458-.583-1.474-1.661C-146.674-249.235-146.66-250.583-146.66-251.931Z" transform="translate(-73.841 -61.149)" fill="#020505"/>
      <path id="Trazado_127171" data-name="Trazado 127171" d="M-197.918-298.8c0-1.32-.008-2.639,0-3.959a1.477,1.477,0,0,1,1.4-1.663,1.5,1.5,0,0,1,1.478,1.69q.018,3.959,0,7.918c0,1.055-.578,1.693-1.465,1.686s-1.407-.618-1.413-1.713C-197.924-296.162-197.918-297.482-197.918-298.8Z" transform="translate(-39.949 -30.135)" fill="#010303"/>
      <path id="Trazado_127172" data-name="Trazado 127172" d="M-197.919-251.887c0-1.348-.011-2.7,0-4.043a1.459,1.459,0,0,1,1.39-1.586,1.475,1.475,0,0,1,1.482,1.6q.028,4.043,0,8.086a1.448,1.448,0,0,1-1.455,1.608c-.874,0-1.41-.6-1.419-1.62C-197.928-249.192-197.919-250.54-197.919-251.887Z" transform="translate(-39.948 -61.151)" fill="#010303"/>
      <path id="Trazado_127173" data-name="Trazado 127173" d="M-169.47-246.177a3.563,3.563,0,0,1-.754,2.311.86.86,0,0,1-1.486,0,4.051,4.051,0,0,1-.014-4.629c.53-.607,1.025-.614,1.535.005A3.675,3.675,0,0,1-169.47-246.177Z" transform="translate(-56.795 -66.813)" fill="#65d0c6"/>
      <path id="Trazado_127174" data-name="Trazado 127174" d="M-172.444-293.163a3.371,3.371,0,0,1,.736-2.267.853.853,0,0,1,1.481-.026,4.053,4.053,0,0,1-.013,4.7.855.855,0,0,1-1.483-.043A3.475,3.475,0,0,1-172.444-293.163Z" transform="translate(-56.794 -35.789)" fill="#65d0c6"/>
      <path id="Trazado_127175" data-name="Trazado 127175" d="M-118.181-293.1a3.42,3.42,0,0,1-.7,2.279c-.5.625-1.015.618-1.538.015a4.1,4.1,0,0,1-.033-4.566c.54-.658,1.056-.67,1.585-.009A3.43,3.43,0,0,1-118.181-293.1Z" transform="translate(-90.723 -35.791)" fill="#66d0c7"/>
      <path id="Trazado_127176" data-name="Trazado 127176" d="M-118.181-246.2a3.435,3.435,0,0,1-.7,2.281.877.877,0,0,1-1.539.032,4.074,4.074,0,0,1,.007-4.63c.53-.6,1.018-.6,1.532.038A3.411,3.411,0,0,1-118.181-246.2Z" transform="translate(-90.723 -66.809)" fill="#66d1c7"/>
    </g>
  </g>
</svg>
