<svg xmlns="http://www.w3.org/2000/svg" width="90.997" height="90.997" viewBox="0 0 90.997 90.997">
  <g id="Grupo_85683" data-name="Grupo 85683" transform="translate(-0.278 -0.277)">
    <circle id="Elipse_5411" data-name="Elipse 5411" cx="45.498" cy="45.498" r="45.498" transform="translate(0.278 0.277)" fill="#2ff980"/>
    <g id="Grupo_85812" data-name="Grupo 85812" transform="translate(-353.384 455.707)">
      <path id="Trazado_127177" data-name="Trazado 127177" d="M412.364-437.594c.254-.945.555-1.188,1.525-1.188,4.281,0,8.562-.019,12.843,0a8.366,8.366,0,0,1,8.479,8.474q.03,20.355.005,40.711a8.556,8.556,0,0,1-2.527,6.1c.549,0,.956-.008,1.362,0a3.61,3.61,0,0,1,3.569,3.68,8.429,8.429,0,0,1-8.1,8.329c-.225.008-.45.009-.676.009q-29.7,0-59.408,0A8.415,8.415,0,0,1,360.925-378a7.568,7.568,0,0,1-.22-2.008,3.618,3.618,0,0,1,3.387-3.478c.447-.024.9,0,1.345,0,.089-.281-.144-.368-.259-.5a8.168,8.168,0,0,1-2.063-5.422q-.022-20.505,0-41.011a8.343,8.343,0,0,1,8.443-8.354q8.862-.041,17.724.007a.992.992,0,0,0,1.063-.677c.475-1.045,1.057-2.042,1.526-3.09a1.643,1.643,0,0,1,1.768-1.068c1.295.049,2.593.013,3.968.013l-.755-2.967c-.319-1.256.177-1.89,1.469-1.828a7.6,7.6,0,0,1,4.492,1.677c1.307,1.05,2.565,2.16,3.865,3.22a9.527,9.527,0,0,1,2.979,4.759,4.372,4.372,0,0,0,.437,1.184c.182.988.621,1.9.854,2.869.138.572.419.719.991.716,4.807-.025,9.614-.014,14.421-.014,2.627,0,4.049,1.414,4.049,4.03,0,13.2-.02,26.392.025,39.588a4.478,4.478,0,0,1-1.994,4.155l.016,0-.278.036a6.735,6.735,0,0,1-2.065.282q-26.951-.013-53.9,0a6.73,6.73,0,0,1-2.065-.282l-.279-.036.016,0a4.368,4.368,0,0,1-1.989-4.3c.1-1.571.017-3.153.022-4.73,0-.955.266-1.271,1.213-1.5.945.255,1.186.556,1.188,1.526,0,1.753,0,3.505,0,5.258,0,1.276.375,1.649,1.655,1.649h54.379c1.278,0,1.654-.375,1.654-1.651q0-19.943,0-39.887c0-1.314-.371-1.681-1.709-1.681q-6.272,0-12.543.005c-.537,0-1.3-.25-1.552.12s.239,1,.409,1.517a10.354,10.354,0,0,1,.768,4.471c-.165,1.415-.412,2.82-.629,4.229-.417,2.718-.831,5.438-1.265,8.153-.082.51-.041.8.589.77a3.12,3.12,0,0,1,1.309.292,4.231,4.231,0,0,1,2.569,4.477,4.141,4.141,0,0,1-3.936,3.583c-1.875.068-3.753.043-5.63.058a11.9,11.9,0,0,0-2.433,0l-3.572,0a12.248,12.248,0,0,0-2.441,0l-3.572,0a11.9,11.9,0,0,0-2.433,0l-5.622-.028a4.208,4.208,0,0,1-4.267-3.725,4.171,4.171,0,0,1,3.394-4.593c.412-.086.517-.246.508-.638-.024-1.1,0-2.2-.009-3.3a8.387,8.387,0,0,1,2.925-6.556c1.267-1.133,2.545-2.253,3.809-3.39.176-.158.435-.257.478-.538l.122-.045-.075-.06-.049.1a15.332,15.332,0,0,0-2.98.643c-2.449.573-1.91.688-3.841-1.046a4.006,4.006,0,0,1-1.591-3.91c.094-.53-.12-.659-.645-.656-4.026.023-8.053.012-12.079.013-1.335,0-1.7.358-1.7,1.677q0,10.992,0,21.984c0,1.047-.22,1.336-1.189,1.6-.973-.234-1.213-.539-1.214-1.574q0-11.112,0-22.224a3.594,3.594,0,0,1,3.906-3.866q5.443,0,10.886,0c3.03,0,3.031,0,5.488-1.745.209-.148.5-.25.488-.634-.177-.008-.345-.023-.513-.023-5.53,0-11.061-.013-16.591,0a5.981,5.981,0,0,0-6.065,6.112q-.014,20.272-.007,40.544a2.65,2.65,0,0,0,.181,1.1,3.292,3.292,0,0,0,.03.589,6,6,0,0,0,5.892,4.534q27.553.005,55.105,0a5.774,5.774,0,0,0,3.2-.9,5.282,5.282,0,0,0,2.716-4.229,2.864,2.864,0,0,0,.18-1.25q0-20.075,0-40.149a6.021,6.021,0,0,0-6.346-6.361q-6.3,0-12.606,0C412.907-436.381,412.589-436.648,412.364-437.594Zm22.688,58.6c.437-1.456-.033-2.1-1.546-2.1H409.771c-.989,0-.989,0-.994.979a3.613,3.613,0,0,1-2.685,3.708,7.821,7.821,0,0,1-1.562.124q-5.367-.009-10.735,0a7.842,7.842,0,0,1-1.562-.124,3.533,3.533,0,0,1-2.664-3.781c.023-.773-.2-.927-.94-.924-7.937.029-15.874.018-23.811.018-1.513,0-1.984.641-1.545,2.095a1.43,1.43,0,0,0,.086.807,5.978,5.978,0,0,0,5.775,4.3q30.027.012,60.053,0a5.711,5.711,0,0,0,3.2-.924A5.339,5.339,0,0,0,435.051-378.993Zm-35.465-66.689c.25.961.489,1.844.708,2.732.278,1.127-.207,1.754-1.36,1.761-1.452.008-2.9.023-4.356-.01a.9.9,0,0,0-.982.589c-.456,1-1.057,1.942-1.451,2.964a9.036,9.036,0,0,1-4.539,5.216c-.067.032-.123.086-.189.123a.534.534,0,0,0-.277.49c-.083,1.267-.1,2.478,1.141,3.323a1.2,1.2,0,0,0,1.129.278q3.586-.946,7.2-1.8a1.5,1.5,0,0,0,1-.692c.552-.864,1.116-1.722,1.711-2.558a1.154,1.154,0,0,1,1.643-.369A1.146,1.146,0,0,1,401.33-432a17.607,17.607,0,0,1-3.122,4.291c-2.44,2.188-4.888,4.368-7.367,6.511a6.537,6.537,0,0,0-2.5,5.446c.036.875.043,1.754-.007,2.628-.035.61.13.8.773.8q9.538-.037,19.076,0c.611,0,.812-.2.9-.772.521-3.507,1.08-7.009,1.611-10.514a9.125,9.125,0,0,0,0-4.444c-1.249-3.667-2.46-7.347-3.7-11.019a5.307,5.307,0,0,0-1.581-2.336q-1.814-1.573-3.679-3.088A4.66,4.66,0,0,0,399.586-445.682Zm-.418,35.747h-7.354c-1.751,0-3.5-.016-5.253.008a1.8,1.8,0,0,0-1.812,1.656,1.8,1.8,0,0,0,1.392,1.885,4.12,4.12,0,0,0,.9.054q10.393,0,20.786,0c1.276,0,2.552,0,3.827,0a1.8,1.8,0,0,0,1.759-1.056,1.8,1.8,0,0,0-1.783-2.546C407.473-409.944,403.32-409.935,399.168-409.936Zm.072,28.847c-2.2,0-4.4,0-6.6.007-.241,0-.56-.142-.682.261a1.54,1.54,0,0,0,1.539,2.134q5.662.009,11.325,0c1.14,0,1.508-.406,1.563-1.527.032-.652-.115-.912-.846-.894C403.441-381.053,401.34-381.088,399.24-381.088Z" transform="translate(0)" fill="#040303"/>
      <path id="Trazado_127178" data-name="Trazado 127178" d="M543.107-361.139a4.479,4.479,0,0,0,1.994-4.155c-.045-13.2-.024-26.392-.025-39.588,0-2.615-1.421-4.029-4.049-4.03-4.807,0-9.614-.011-14.421.014-.573,0-.854-.145-.991-.716-.233-.969-.672-1.881-.854-2.869l2.268-.047c.225.945.544,1.212,1.5,1.213q6.3.005,12.607,0a6.021,6.021,0,0,1,6.346,6.361q0,20.074,0,40.149a2.864,2.864,0,0,1-.18,1.25c-.5.156-.739.633-1.114.944A5.4,5.4,0,0,1,543.107-361.139Z" transform="translate(-114.666 -25.063)" fill="#97a0bf"/>
      <path id="Trazado_127179" data-name="Trazado 127179" d="M412.715-387.625c-.043.281-.3.38-.478.538-1.264,1.137-2.542,2.257-3.809,3.39a8.387,8.387,0,0,0-2.925,6.556c0,1.1-.015,2.2.009,3.3.008.392-.1.552-.508.638a4.171,4.171,0,0,0-3.394,4.593,4.208,4.208,0,0,0,4.266,3.725l5.621.028c0,.175.013.35.014.525.008,1.454-.337,1.8-1.814,1.8-1.4,0-2.8-.016-4.2,0a3.436,3.436,0,0,0-3.153,1.938,1.978,1.978,0,0,1-.913.907,3.572,3.572,0,0,0-1.6,4.69,3.643,3.643,0,0,0,4.478,1.894,3.634,3.634,0,0,0,2.259-4.425,4.085,4.085,0,0,0-1.851-2.27,1.55,1.55,0,0,1,1.126-.335c1.5,0,3,.015,4.5,0a3.584,3.584,0,0,0,3.455-2.708,11.147,11.147,0,0,0,.131-2.014l3.572,0c.005,1.426-.008,2.853.028,4.278a.868.868,0,0,1-.544.919,3.533,3.533,0,0,0-1.764,4.01,3.568,3.568,0,0,0,3.5,2.739,3.563,3.563,0,0,0,3.5-2.738,3.56,3.56,0,0,0-1.759-4.017c-.322-.179-.563-.309-.55-.761.04-1.476.024-2.952.03-4.429l3.572,0c0,.275.013.55.014.826a3.615,3.615,0,0,0,3.872,3.9q2.139,0,4.279,0a1.12,1.12,0,0,1,1.015.362c-.11.083-.186.144-.265.2a3.608,3.608,0,0,0-1.5,4.258,3.627,3.627,0,0,0,3.762,2.39,3.636,3.636,0,0,0,3.2-2.931,3.6,3.6,0,0,0-2.14-3.968,1.124,1.124,0,0,1-.534-.578,3.568,3.568,0,0,0-3.415-2.137h-3.829c-1.813,0-2.067-.261-2.033-2.1,0-.075.007-.15.011-.225,1.877-.016,3.755.01,5.63-.058a4.141,4.141,0,0,0,3.936-3.583,4.232,4.232,0,0,0-2.569-4.477,3.12,3.12,0,0,0-1.309-.292c-.63.026-.671-.26-.589-.77.434-2.716.848-5.435,1.265-8.153.216-1.409.464-2.814.629-4.229a10.353,10.353,0,0,0-.768-4.471c-.171-.515-.651-1.158-.409-1.517s1.015-.119,1.552-.12q6.271-.017,12.543-.005c1.338,0,1.709.368,1.709,1.681q0,19.943,0,39.887c0,1.275-.376,1.651-1.654,1.651H391.535c-1.28,0-1.653-.373-1.655-1.649,0-1.753,0-3.505,0-5.258,0-.97-.243-1.271-1.188-1.526q0-1.182,0-2.364c.944-.255,1.183-.558,1.19-1.524,0-.625.007-1.251,0-1.876-.011-.892-.27-1.2-1.189-1.448v-2.365c.969-.263,1.189-.552,1.189-1.6q0-10.992,0-21.984c0-1.319.363-1.676,1.7-1.677,4.026,0,8.053.01,12.079-.013.524,0,.738.126.645.656a4.006,4.006,0,0,0,1.591,3.91c1.93,1.734,1.392,1.619,3.841,1.046a15.327,15.327,0,0,1,2.98-.643Zm-14.967-1.353c-.95,0-1.9,0-2.851,0-.9.006-1.405.438-1.411,1.19s.5,1.206,1.391,1.21c1.326.007,2.651.019,3.976-.007.484-.009.667.139.65.638-.032.949-.017,1.9-.006,2.851a1.18,1.18,0,0,0,1.2,1.326,1.178,1.178,0,0,0,1.2-1.327q.016-2.288,0-4.577a1.168,1.168,0,0,0-1.295-1.3C399.649-388.989,398.7-388.978,397.748-388.978Zm42.062,0c-.975,0-1.951-.009-2.926,0a1.183,1.183,0,0,0-1.332,1.342q-.015,2.251,0,4.5c0,.849.436,1.343,1.162,1.364.762.022,1.229-.485,1.237-1.364.009-.95.022-1.9-.006-2.851-.014-.466.163-.606.612-.6,1.375.021,2.751.017,4.126,0a1.165,1.165,0,0,0,1.278-1.171,1.172,1.172,0,0,0-1.3-1.225C441.712-388.988,440.761-388.978,439.811-388.978Zm-42.132,14.423c.925,0,1.851,0,2.776,0,.943,0,1.463-.454,1.442-1.235-.02-.75-.521-1.163-1.436-1.166-1.325-.005-2.651-.017-3.976.006-.459.008-.616-.151-.6-.607.025-.975.018-1.951,0-2.926a1.168,1.168,0,0,0-1.168-1.281,1.168,1.168,0,0,0-1.228,1.3q-.018,2.289,0,4.577a1.182,1.182,0,0,0,1.339,1.335C395.778-374.546,396.728-374.555,397.678-374.555Zm42.046,0c.975,0,1.951.01,2.926,0a1.168,1.168,0,0,0,1.307-1.29c.014-1.526.011-3.051,0-4.577a1.18,1.18,0,0,0-1.186-1.339,1.173,1.173,0,0,0-1.212,1.312c-.012.925-.032,1.852.008,2.776.024.553-.141.747-.714.73-1.324-.039-2.651-.02-3.976-.009a1.178,1.178,0,0,0-1.329,1.2,1.178,1.178,0,0,0,1.323,1.2C437.824-374.546,438.775-374.555,439.725-374.555Zm-41.432,8.4c0-.725,0-1.45,0-2.175-.007-.9-.43-1.409-1.181-1.42-.779-.012-1.215.506-1.221,1.455,0,.725,0,1.45,0,2.175,0,1.127,0,1.127-1.143,1.176a1.175,1.175,0,0,0-1.259,1.192,1.162,1.162,0,0,0,1.241,1.207c.725.019,1.45.01,2.175,0,.95-.01,1.377-.428,1.388-1.364C398.3-364.65,398.292-365.4,398.292-366.15Zm40.863-.036c0,.8,0,1.6,0,2.4a1.1,1.1,0,0,0,1.053,1.229,19.057,19.057,0,0,0,2.7,0,1.086,1.086,0,0,0,1.05-1.155,1.157,1.157,0,0,0-1.071-1.222,1.931,1.931,0,0,0-.524,0c-.692.114-.854-.208-.817-.845.05-.872.02-1.75.01-2.624-.009-.837-.456-1.332-1.183-1.341a1.175,1.175,0,0,0-1.215,1.309C439.146-367.686,439.156-366.936,439.156-366.186Z" transform="translate(-19.562 -38.987)" fill="#f3f6fd"/>
      <path id="Trazado_127180" data-name="Trazado 127180" d="M460.887-439.4a4.659,4.659,0,0,1,2.147,1.184q1.863,1.516,3.679,3.088a5.308,5.308,0,0,1,1.582,2.336c1.235,3.672,2.447,7.352,3.7,11.019a9.124,9.124,0,0,1,0,4.444c-.532,3.506-1.09,7.007-1.611,10.514-.085.573-.287.774-.9.772q-9.537-.037-19.076,0c-.644,0-.809-.192-.773-.8.051-.873.043-1.753.007-2.628a6.538,6.538,0,0,1,2.5-5.446c2.479-2.143,4.928-4.322,7.367-6.511a17.606,17.606,0,0,0,3.122-4.291,1.145,1.145,0,0,0-.371-1.635,1.154,1.154,0,0,0-1.643.369c-.594.836-1.158,1.694-1.711,2.558a1.5,1.5,0,0,1-1,.693q-3.607.86-7.2,1.8a1.2,1.2,0,0,1-1.129-.278c-1.24-.846-1.223-2.056-1.141-3.323a.534.534,0,0,1,.277-.49c.065-.036.122-.09.189-.123a9.035,9.035,0,0,0,4.539-5.216c.395-1.022,1-1.963,1.451-2.964a.9.9,0,0,1,.982-.589c1.451.033,2.9.018,4.356.01,1.154-.007,1.638-.634,1.36-1.761C461.377-437.552,461.138-438.435,460.887-439.4Zm-2.829,8.16a1.205,1.205,0,0,0-1.124-1.259,1.2,1.2,0,0,0-1.277,1.1,1.2,1.2,0,0,0,1.159,1.3A1.2,1.2,0,0,0,458.059-431.236Z" transform="translate(-61.301 -6.286)" fill="#2b75f5"/>
      <path id="Trazado_127181" data-name="Trazado 127181" d="M398.132-215.3a7.843,7.843,0,0,0,1.562.124q5.367-.009,10.735,0a7.822,7.822,0,0,0,1.562-.124c.238.209.527.117.792.117q11.188.008,22.377,0a6.862,6.862,0,0,0,4.93-2.027c.259-.253.436-.628.86-.679a5.338,5.338,0,0,1-2.666,4.191,5.711,5.711,0,0,1-3.2.924q-30.027,0-60.053,0a5.978,5.978,0,0,1-5.776-4.3,1.43,1.43,0,0,1-.086-.807c.324,0,.466.274.648.465a7.17,7.17,0,0,0,5.442,2.252q11-.014,22-.008C397.554-215.182,397.868-215.08,398.132-215.3Z" transform="translate(-5.899 -161.103)" fill="#97a0bf"/>
      <path id="Trazado_127182" data-name="Trazado 127182" d="M380.285-378.437q0,1.182,0,2.365c-.945.223-1.208.542-1.215,1.488q-.007.935,0,1.871c.008.947.27,1.265,1.215,1.489q0,1.182,0,2.364c-.948.227-1.21.543-1.213,1.5-.005,1.577.076,3.159-.022,4.73a4.368,4.368,0,0,0,1.989,4.3,5.409,5.409,0,0,1-3.08-1.472c-.375-.311-.609-.787-1.114-.943a2.648,2.648,0,0,1-.181-1.1q0-20.272.007-40.544a5.981,5.981,0,0,1,6.065-6.112c5.53-.016,11.061,0,16.591,0,.168,0,.335.015.513.023.015.385-.279.486-.488.634-2.457,1.747-2.458,1.745-5.488,1.745q-5.443,0-10.886,0a3.594,3.594,0,0,0-3.906,3.866q0,11.112,0,22.224C379.072-378.976,379.312-378.671,380.285-378.437Z" transform="translate(-11.157 -27.874)" fill="#97a0bf"/>
      <path id="Trazado_127183" data-name="Trazado 127183" d="M377.265-249.858c.5.156.74.633,1.114.943a5.41,5.41,0,0,0,3.08,1.472l-.015,0c.076.145.166.182.279.036a6.73,6.73,0,0,0,2.065.282q26.951-.013,53.9,0a6.73,6.73,0,0,0,2.064-.282c.113.147.2.109.278-.035l-.016,0a5.4,5.4,0,0,0,3.081-1.471c.375-.311.609-.788,1.114-.944a5.282,5.282,0,0,1-2.716,4.229,5.773,5.773,0,0,1-3.2.9q-27.553,0-55.105,0a6,6,0,0,1-5.892-4.534A3.3,3.3,0,0,1,377.265-249.858Z" transform="translate(-11.577 -138.76)" fill="#667395"/>
      <path id="Trazado_127184" data-name="Trazado 127184" d="M397.838-220.2c-.265.218-.578.115-.868.116q-11,.009-22,.008a7.17,7.17,0,0,1-5.442-2.252c-.182-.191-.324-.462-.648-.465-.44-1.454.032-2.095,1.545-2.095,7.937,0,15.874.011,23.811-.018.741,0,.963.151.94.924A3.533,3.533,0,0,0,397.838-220.2Z" transform="translate(-5.605 -156.197)" fill="#ccd2e8"/>
      <path id="Trazado_127185" data-name="Trazado 127185" d="M540.425-222.754c-.424.051-.6.426-.86.679a6.863,6.863,0,0,1-4.93,2.027q-11.188.025-22.377,0c-.265,0-.554.093-.792-.117a3.613,3.613,0,0,0,2.685-3.708c0-.979,0-.979.994-.979h23.734C540.392-224.849,540.862-224.209,540.425-222.754Z" transform="translate(-105.374 -156.239)" fill="#ccd2e8"/>
      <path id="Trazado_127186" data-name="Trazado 127186" d="M454.981-320.676c4.152,0,8.3-.008,12.457,0a1.8,1.8,0,0,1,1.783,2.546,1.8,1.8,0,0,1-1.759,1.056c-1.276,0-2.551,0-3.827,0q-10.393,0-20.786,0a4.118,4.118,0,0,1-.9-.054,1.8,1.8,0,0,1-1.392-1.885,1.8,1.8,0,0,1,1.812-1.656c1.751-.024,3.5-.008,5.253-.008Z" transform="translate(-55.813 -89.259)" fill="#ccd2e8"/>
      <path id="Trazado_127187" data-name="Trazado 127187" d="M439.02-300.574a11.153,11.153,0,0,1-.131,2.014,3.584,3.584,0,0,1-3.455,2.708c-1.5.017-3,.007-4.5,0a1.55,1.55,0,0,0-1.126.335,4.085,4.085,0,0,1,1.851,2.27,3.634,3.634,0,0,1-2.259,4.425,3.643,3.643,0,0,1-4.478-1.894,3.572,3.572,0,0,1,1.6-4.69,1.979,1.979,0,0,0,.913-.906,3.436,3.436,0,0,1,3.152-1.938c1.4-.021,2.8,0,4.2,0,1.477,0,1.822-.342,1.814-1.8,0-.175-.009-.35-.014-.525A11.935,11.935,0,0,1,439.02-300.574Zm-9.632,8.3a1.218,1.218,0,0,0-1.211-1.172,1.218,1.218,0,0,0-1.19,1.193,1.216,1.216,0,0,0,1.248,1.209A1.22,1.22,0,0,0,429.388-292.274Z" transform="translate(-44.65 -103.269)" fill="#2c77f5"/>
      <path id="Trazado_127188" data-name="Trazado 127188" d="M506.8-300.574c0,.075-.01.15-.011.225-.033,1.835.22,2.1,2.033,2.1h3.829a3.568,3.568,0,0,1,3.415,2.137,1.124,1.124,0,0,0,.534.578,3.6,3.6,0,0,1,2.14,3.968,3.636,3.636,0,0,1-3.2,2.931,3.627,3.627,0,0,1-3.763-2.39,3.608,3.608,0,0,1,1.5-4.258c.079-.056.155-.117.265-.2a1.12,1.12,0,0,0-1.015-.362q-2.14,0-4.279,0a3.615,3.615,0,0,1-3.872-3.9c0-.275-.009-.55-.014-.826A11.932,11.932,0,0,1,506.8-300.574Zm8.4,9.531a1.218,1.218,0,0,0,1.2-1.181,1.217,1.217,0,0,0-1.236-1.221,1.22,1.22,0,0,0-1.165,1.219A1.216,1.216,0,0,0,515.194-291.043Z" transform="translate(-100.41 -103.269)" fill="#2c77f5"/>
      <path id="Trazado_127189" data-name="Trazado 127189" d="M481.272-300.581c-.005,1.476.011,2.953-.029,4.428-.012.452.228.583.55.761a3.56,3.56,0,0,1,1.759,4.017,3.563,3.563,0,0,1-3.5,2.738,3.568,3.568,0,0,1-3.5-2.739,3.533,3.533,0,0,1,1.764-4.01.868.868,0,0,0,.544-.919c-.035-1.426-.022-2.852-.028-4.278A12.271,12.271,0,0,1,481.272-300.581Zm-.023,8.322a1.215,1.215,0,0,0-1.191-1.188,1.218,1.218,0,0,0-1.207,1.173,1.215,1.215,0,0,0,1.228,1.225A1.217,1.217,0,0,0,481.25-292.259Z" transform="translate(-80.89 -103.265)" fill="#3279f1"/>
      <path id="Trazado_127190" data-name="Trazado 127190" d="M471.578-224.9c2.1,0,4.2.035,6.3-.019.731-.019.878.241.846.894-.056,1.121-.424,1.526-1.563,1.527q-5.662.007-11.324,0a1.54,1.54,0,0,1-1.539-2.134c.122-.4.441-.26.682-.261C467.178-224.9,469.378-224.9,471.578-224.9Z" transform="translate(-72.338 -156.193)" fill="#667395"/>
      <path id="Trazado_127191" data-name="Trazado 127191" d="M391.423-241.815c-.113.146-.2.109-.279-.036Z" transform="translate(-21.277 -144.356)" fill="#97a0bf"/>
      <path id="Trazado_127192" data-name="Trazado 127192" d="M585.1-241.851c-.076.144-.165.182-.279.036Z" transform="translate(-156.645 -144.356)" fill="#97a0bf"/>
      <path id="Trazado_127193" data-name="Trazado 127193" d="M468.481-376.3l.049-.1.075.06-.122.045Z" transform="translate(-75.33 -50.311)" fill="#f3f6fd"/>
      <path id="Trazado_127194" data-name="Trazado 127194" d="M408.883-380.558c.951,0,1.9-.011,2.851,0a1.168,1.168,0,0,1,1.295,1.3q.019,2.288,0,4.577a1.178,1.178,0,0,1-1.2,1.327,1.18,1.18,0,0,1-1.2-1.326c-.011-.95-.025-1.9.006-2.851.017-.5-.165-.648-.65-.638-1.325.026-2.651.014-3.976.007-.888,0-1.4-.456-1.391-1.21s.512-1.184,1.411-1.19C406.982-380.563,407.933-380.559,408.883-380.558Z" transform="translate(-30.696 -47.407)" fill="#cdd2e8"/>
      <path id="Trazado_127195" data-name="Trazado 127195" d="M548.585-380.558c.95,0,1.9-.01,2.851,0a1.171,1.171,0,0,1,1.3,1.225,1.165,1.165,0,0,1-1.278,1.171c-1.375.014-2.751.018-4.126,0-.449-.007-.625.133-.612.6.027.95.015,1.9.006,2.851-.008.879-.475,1.386-1.237,1.364-.726-.021-1.158-.515-1.162-1.364q-.012-2.251,0-4.5a1.183,1.183,0,0,1,1.332-1.342C546.635-380.567,547.61-380.558,548.585-380.558Z" transform="translate(-128.336 -47.407)" fill="#cdd2e8"/>
      <path id="Trazado_127196" data-name="Trazado 127196" d="M408.8-349.382c-.95,0-1.9.008-2.851,0a1.182,1.182,0,0,1-1.339-1.335q-.016-2.288,0-4.577a1.168,1.168,0,0,1,1.228-1.3A1.168,1.168,0,0,1,407-355.311c.014.975.021,1.951,0,2.926-.012.456.145.615.6.607,1.325-.023,2.651-.011,3.976-.006.914,0,1.416.416,1.435,1.166.02.781-.5,1.23-1.442,1.235C410.649-349.378,409.724-349.382,408.8-349.382Z" transform="translate(-30.681 -64.16)" fill="#cdd2e8"/>
      <path id="Trazado_127197" data-name="Trazado 127197" d="M548.512-349.381c-.95,0-1.9.009-2.851,0a1.178,1.178,0,0,1-1.323-1.2,1.178,1.178,0,0,1,1.329-1.2c1.325-.011,2.652-.029,3.976.009.572.017.737-.178.714-.73-.04-.924-.02-1.85-.008-2.776a1.173,1.173,0,0,1,1.212-1.312,1.18,1.18,0,0,1,1.186,1.339c.009,1.526.012,3.052,0,4.577a1.168,1.168,0,0,1-1.308,1.29C550.463-349.371,549.488-349.381,548.512-349.381Z" transform="translate(-128.349 -64.161)" fill="#cdd2e8"/>
      <path id="Trazado_127198" data-name="Trazado 127198" d="M409.427-313.073c0,.75.007,1.5,0,2.25-.011.936-.438,1.354-1.388,1.364-.725.007-1.45.016-2.175,0a1.162,1.162,0,0,1-1.241-1.207,1.175,1.175,0,0,1,1.259-1.192c1.143-.049,1.143-.049,1.143-1.176,0-.725,0-1.45,0-2.175.005-.95.442-1.467,1.221-1.455.751.011,1.174.515,1.181,1.42C409.431-314.524,409.427-313.8,409.427-313.073Z" transform="translate(-30.696 -92.064)" fill="#cdd3e8"/>
      <path id="Trazado_127199" data-name="Trazado 127199" d="M556.3-313.109c0-.75-.01-1.5,0-2.25a1.175,1.175,0,0,1,1.215-1.309c.728.009,1.174.5,1.183,1.341.01.875.04,1.753-.01,2.624-.037.637.125.959.817.845a1.93,1.93,0,0,1,.524,0,1.157,1.157,0,0,1,1.071,1.222,1.086,1.086,0,0,1-1.05,1.155,19.076,19.076,0,0,1-2.7,0,1.1,1.1,0,0,1-1.053-1.229C556.3-311.509,556.3-312.309,556.3-313.109Z" transform="translate(-136.708 -92.064)" fill="#cdd3e8"/>
      <path id="Trazado_127200" data-name="Trazado 127200" d="M385.861-295.923c-.945-.224-1.207-.543-1.215-1.489q-.007-.935,0-1.871c.008-.947.27-1.265,1.215-1.488.919.246,1.178.556,1.189,1.448.008.625.005,1.251,0,1.876C387.044-296.481,386.806-296.178,385.861-295.923Z" transform="translate(-16.733 -103.175)" fill="#97a0bf"/>
      <path id="Trazado_127201" data-name="Trazado 127201" d="M474.88-415.223a1.2,1.2,0,0,1-1.242,1.143,1.2,1.2,0,0,1-1.159-1.3,1.2,1.2,0,0,1,1.277-1.1A1.205,1.205,0,0,1,474.88-415.223Z" transform="translate(-78.122 -22.3)" fill="#040303"/>
      <path id="Trazado_127202" data-name="Trazado 127202" d="M434.961-275.579a1.22,1.22,0,0,1-1.153,1.23,1.216,1.216,0,0,1-1.248-1.209,1.218,1.218,0,0,1,1.19-1.193A1.218,1.218,0,0,1,434.961-275.579Z" transform="translate(-50.224 -119.963)" fill="#eaf0fd"/>
      <path id="Trazado_127203" data-name="Trazado 127203" d="M537.549-274.35a1.216,1.216,0,0,1-1.2-1.183,1.22,1.22,0,0,1,1.165-1.219,1.217,1.217,0,0,1,1.237,1.221A1.218,1.218,0,0,1,537.549-274.35Z" transform="translate(-122.765 -119.962)" fill="#eaf0fd"/>
      <path id="Trazado_127204" data-name="Trazado 127204" d="M486.858-275.557a1.217,1.217,0,0,1-1.17,1.21,1.215,1.215,0,0,1-1.228-1.225,1.218,1.218,0,0,1,1.207-1.173A1.215,1.215,0,0,1,486.858-275.557Z" transform="translate(-86.498 -119.967)" fill="#eaf0fd"/>
    </g>
  </g>
</svg>
