<svg xmlns="http://www.w3.org/2000/svg" width="90.997" height="90.997" viewBox="0 0 90.997 90.997">
  <g id="Grupo_85816" data-name="Grupo 85816" transform="translate(-0.278 -0.277)">
    <circle id="Elipse_5411" data-name="Elipse 5411" cx="45.498" cy="45.498" r="45.498" transform="translate(0.278 0.277)" fill="#2ff980"/>
    <g id="Grupo_85820" data-name="Grupo 85820" transform="translate(134.525 809.057)">
      <path id="Trazado_127205" data-name="Trazado 127205" d="M-88.735-725.074q-15.818,0-31.636,0a6.2,6.2,0,0,1-5.943-3.488,6.1,6.1,0,0,1-.632-2.807c-.014-1.815.016-3.631-.018-5.446-.01-.513.161-.619.631-.61.589.012,1.361.268,1.724-.1.392-.4.122-1.18.122-1.792q.012-20.294,0-40.588a6.741,6.741,0,0,1,1.271-4.338,6.242,6.242,0,0,1,5.184-2.457q5.036-.015,10.073.007c.477,0,.728-.059.845-.61a2.2,2.2,0,0,1,2.093-1.8.721.721,0,0,0,.751-.619c.838-2.854,1.7-5.7,2.549-8.553.693-2.326,1.862-3.206,4.279-3.206q8.767,0,17.534,0a3.768,3.768,0,0,1,4.1,3.05q1.309,4.344,2.593,8.695a.717.717,0,0,0,.739.633,2.226,2.226,0,0,1,2.126,1.863c.1.488.316.551.738.549q5.074-.02,10.147,0a6.249,6.249,0,0,1,5.189,2.446A6.727,6.727,0,0,1-53-779.922q-.012,20.779-.022,41.558c0,.767.174,1.006.962.971,1.523-.068,1.525-.019,1.525,1.533,0,1.418,0,2.835,0,4.253a6.208,6.208,0,0,1-6.565,6.531q-5.335.008-10.67,0Zm28.347-33.282v-19.176c0-1.771,0-1.741-1.771-1.774-.621-.012-.727.2-.725.762.02,4.526.011,9.053.011,13.58,0,1.686,0,1.654-1.694,1.7-.628.017-.769-.156-.766-.772.028-4.85.007-9.7.027-14.55,0-.527-.086-.727-.677-.718-2.462.037-4.925.024-7.387.008-.421,0-.6.065-.617.554a14.326,14.326,0,0,1-3.313,8.752,1.567,1.567,0,0,0-.373,1.084c.019,1.791.017,3.582.005,5.372a2.444,2.444,0,0,1-2.662,2.714q-8.395.031-16.789,0a2.454,2.454,0,0,1-2.7-2.754c-.01-1.766-.016-3.532.007-5.3a1.653,1.653,0,0,0-.4-1.151,14.314,14.314,0,0,1-3.27-8.62c-.024-.5-.137-.668-.669-.661-2.437.031-4.875.036-7.312,0-.611-.01-.724.187-.721.75.022,4.5.012,9,.012,13.505,0,1.779,0,1.744-1.751,1.786-.638.016-.7-.229-.7-.762.017-4.477.01-8.954.01-13.431,0-1.861,0-1.845-1.864-1.844-.467,0-.633.095-.632.606q.022,20.333,0,40.666c0,.474.107.636.61.629,1.989-.029,3.98-.041,5.969,0,.679.015.864-.164.862-.856q-.035-16.005-.016-32.01c0-1.661,0-1.62,1.658-1.678.689-.024.8.2.8.827q-.03,15.931-.014,31.861c0,1.906,0,1.889,1.921,1.852.47-.009.583-.164.577-.606-.022-1.666-.009-3.333-.009-5,0-1.8,0-1.778,1.821-1.8.56-.005.634.2.628.683-.025,1.989.01,3.98-.023,5.969-.01.567.116.765.726.753,2.039-.041,4.079-.016,6.118-.016,6.517,0,13.034-.009,19.55.015.627,0,.788-.168.771-.784-.046-1.591-.015-3.183-.015-4.775,0-1.895,0-1.879,1.918-1.84.437.009.534.149.529.556-.02,1.741-.008,3.482-.008,5.223,0,1.608,0,1.577,1.645,1.621.663.018.864-.14.862-.843q-.038-16.08-.018-32.16c0-1.522,0-1.477,1.486-1.54.771-.033.976.177.974.963-.028,10.919-.013,21.838-.034,32.757,0,.655.155.841.819.825,1.964-.047,3.93-.041,5.894,0,.591.011.732-.158.731-.738C-60.4-744.876-60.388-751.616-60.388-758.357Zm-28.405,30.8q15.669,0,31.338,0c.373,0,.747-.005,1.118-.034a3.54,3.54,0,0,0,3.276-3.29c.065-1.091,0-2.189.056-3.281.034-.629-.169-.779-.785-.777q-11.528.032-23.056,0c-.626,0-.889.1-.832.8a3.84,3.84,0,0,1-4.149,4.165q-6.937-.123-13.877,0a3.823,3.823,0,0,1-4.1-4.135c.059-.742-.247-.832-.88-.829-4.9.022-9.8.012-14.7.012-2.81,0-5.621.013-8.431-.012-.528,0-.682.155-.661.672.039.943.01,1.89.012,2.835a3.844,3.844,0,0,0,.4,1.874,3.874,3.874,0,0,0,3.784,2.01Q-104.537-727.579-88.793-727.559Zm-4.859-54.2-.023.114c.485.247.968.5,1.455.74,1.9.951,1.9.95,1.655,3.084a3.82,3.82,0,0,1-4.3,3.388,4.688,4.688,0,0,1-3.646-5.588c.119-.579.306-1.143.474-1.758a16.267,16.267,0,0,1-1.963-.016c-.742-.092-.9.247-.968.89a12.359,12.359,0,0,0,3.2,9.962,1.42,1.42,0,0,1,.391,1.061c-.025,1.566-.01,3.133-.01,4.7,0,1.985,0,1.974,2,1.91.384-.012.513-.106.505-.5-.024-1.268-.009-2.536-.009-3.8,0-1.9,0-1.876,1.894-1.865.5,0,.559.184.551.6-.024,1.218-.008,2.437-.008,3.656,0,1.944,0,1.929,1.919,1.914.448,0,.6-.1.586-.575-.035-1.242-.012-2.486-.012-3.73,0-1.9,0-1.88,1.89-1.869.493,0,.564.174.556.6-.025,1.218-.009,2.437-.009,3.655,0,1.946,0,1.931,1.917,1.918.444,0,.6-.094.588-.572-.036-1.242-.012-2.486-.012-3.73,0-1.9,0-1.882,1.885-1.872.486,0,.57.162.561.6-.027,1.243-.01,2.487-.01,3.73,0,1.853,0,1.833,1.839,1.849.506,0,.676-.1.666-.644-.035-1.964,0-3.929-.023-5.894a1.614,1.614,0,0,1,.44-1.19,12.114,12.114,0,0,0,3.18-9.454c-.115-1.326-.1-1.327-1.385-1.327h-1.6c.141.444.274.815.377,1.195a4.944,4.944,0,0,1-1.1,4.86,3.633,3.633,0,0,1-4.115,1.115,3.66,3.66,0,0,1-2.6-3.3c-.062-.541.01-1.1-.04-1.639-.039-.428.154-.6.508-.771.9-.424,1.779-.891,2.855-1.437Zm4.833-7.379c4.127,0,8.253-.011,12.38.011.667,0,.805-.161.6-.811-.814-2.605-1.573-5.227-2.364-7.839-.313-1.035-.57-1.214-1.663-1.215q-8.875,0-17.749,0c-1.095,0-1.355.181-1.667,1.21-.792,2.612-1.551,5.234-2.364,7.839-.2.639-.084.82.594.817C-96.973-789.148-92.9-789.137-88.819-789.137Zm16.868,7.36h.7q5.3,0,10.591,0a2.509,2.509,0,0,1,2.6,1.717,4.616,4.616,0,0,1,.117,1.406q0,19.8,0,39.6c0,1.638,0,1.6,1.612,1.656.723.027.886-.17.885-.887q-.036-20.846-.018-41.693c0-.224,0-.448-.008-.671a3.591,3.591,0,0,0-3.52-3.545c-3.6-.063-7.209-.026-10.814-.039-.292,0-.441.062-.5.385A2.779,2.779,0,0,1-71.951-781.777Zm-33.725,0a2.909,2.909,0,0,1-1.456-1.9c-.081-.5-.328-.552-.752-.551-3.382.014-6.764.005-10.146.012a4.477,4.477,0,0,0-1.254.127,3.739,3.739,0,0,0-2.738,3.952q0,20.589,0,41.179c0,1.548,0,1.553,1.529,1.547,1.075,0,.949.125.949-.956,0-13.378.031-26.756-.025-40.134-.01-2.5,1.284-3.353,3.34-3.3,3.28.088,6.565.024,9.847.024Zm16.946,46.847c-2.683,0-5.367,0-8.05.008-.2,0-.5-.165-.6.225a1.609,1.609,0,0,0,1.7,2.214q6.932.006,13.865,0c1.326,0,1.682-.408,1.734-1.742.024-.61-.18-.724-.742-.718C-83.463-734.913-86.1-734.929-88.73-734.929Zm-5.583-41.93a1.284,1.284,0,0,0,.249-.036,1.41,1.41,0,0,0,1.04-1.21c.115-.649-.437-.631-.754-.819-.486-.289-1.01-.516-1.519-.769-.756-.375-.8-.354-.812.479a3.235,3.235,0,0,0,.065.737A1.907,1.907,0,0,0-94.313-776.859Zm12.94-2.307c0-.872-.058-.907-.838-.517-.552.276-1.1.555-1.653.833-.694.35-.8.818-.32,1.446a1.348,1.348,0,0,0,2.075.118A2.5,2.5,0,0,0-81.373-779.166Zm-12.249-7.541c-1.268,0-1.268,0-1.268,1.283v.148c0,1.059,0,1.059,1.06,1.06,1.377,0,1.377,0,1.377-1.333C-92.452-786.707-92.452-786.707-93.622-786.707Zm-3.759,1.26c0-1.26,0-1.26-1.215-1.26s-1.223,0-1.223,1.256c0,1.235,0,1.235,1.257,1.235C-97.381-784.215-97.381-784.215-97.381-785.447Zm-6.115-1.26c-1.253,0-1.253,0-1.253,1.228a6.514,6.514,0,0,1,0,.666c-.045.433.093.66.569.6a4.825,4.825,0,0,1,.592,0c1.283,0,1.283,0,1.283-1.277C-102.31-786.707-102.31-786.707-103.5-786.707Zm30.762,1.3c0-1.3,0-1.3-1.183-1.3-1.256,0-1.256,0-1.256,1.292,0,1.2,0,1.2,1.213,1.2S-72.735-784.215-72.735-785.409Zm-4.93-.1c0-1.193,0-1.193-1.138-1.193-1.3,0-1.3,0-1.3,1.323,0,1.168,0,1.168,1.171,1.168C-77.664-784.215-77.664-784.215-77.664-785.514Zm-4.93.057c0-1.25,0-1.25-1.154-1.25-1.284,0-1.284,0-1.284,1.266,0,1.225,0,1.225,1.189,1.225C-82.594-784.215-82.594-784.215-82.594-785.457Zm-4.929,0c0-1.252,0-1.252-1.15-1.252-1.287,0-1.287,0-1.287,1.263,0,1.228,0,1.228,1.187,1.228C-87.523-784.215-87.523-784.215-87.523-785.454Z" transform="translate(0)" fill="#020202"/>
      <path id="Trazado_127206" data-name="Trazado 127206" d="M-37.29-706.374c0,6.74-.007,13.481.013,20.221,0,.58-.14.75-.731.738-1.964-.038-3.93-.045-5.894,0-.664.016-.82-.17-.819-.825.022-10.919.006-21.838.034-32.757,0-.786-.2-1-.974-.963-1.484.063-1.486.018-1.486,1.54q0,16.08.018,32.16c0,.7-.2.86-.862.843-1.644-.045-1.645-.013-1.645-1.621,0-1.741-.011-3.482.008-5.223,0-.407-.092-.547-.529-.556-1.918-.039-1.918-.054-1.918,1.84,0,1.592-.031,3.184.015,4.775.018.616-.144.787-.771.784-6.517-.024-13.033-.015-19.55-.015-2.04,0-4.08-.025-6.118.016-.61.012-.736-.185-.726-.753.033-1.989,0-3.979.023-5.969.006-.486-.068-.688-.628-.683-1.821.017-1.821-.008-1.821,1.8,0,1.667-.013,3.333.009,5,.006.442-.107.6-.577.606-1.922.037-1.921.054-1.921-1.852q0-15.931.014-31.861c0-.629-.109-.851-.8-.827-1.656.057-1.658.016-1.658,1.678q0,16,.016,32.01c0,.692-.183.872-.862.856-1.989-.046-3.98-.034-5.969,0-.5.007-.61-.154-.61-.629q.018-20.333,0-40.666c0-.511.166-.606.632-.606,1.864,0,1.864-.017,1.864,1.844,0,4.477.007,8.954-.01,13.431,0,.533.066.777.7.762,1.75-.042,1.751-.008,1.751-1.786,0-4.5.01-9-.012-13.505,0-.563.11-.759.721-.75,2.437.038,4.875.033,7.312,0,.532-.007.645.157.669.661a14.314,14.314,0,0,0,3.27,8.62,1.653,1.653,0,0,1,.4,1.151c-.022,1.766-.017,3.532-.007,5.3a2.454,2.454,0,0,0,2.7,2.754q8.395.026,16.789,0a2.444,2.444,0,0,0,2.662-2.714c.012-1.791.014-3.582-.005-5.372a1.567,1.567,0,0,1,.373-1.084,14.327,14.327,0,0,0,3.313-8.752c.018-.489.2-.557.617-.554,2.462.016,4.925.03,7.387-.008.591-.009.679.191.677.718-.019,4.85,0,9.7-.027,14.55,0,.616.138.789.766.772,1.693-.045,1.694-.013,1.694-1.7,0-4.527.009-9.054-.011-13.58,0-.559.1-.774.725-.762,1.77.034,1.771,0,1.771,1.774ZM-59.5-697.056v-7.685c0-1.633,0-1.6-1.67-1.645-.606-.015-.785.121-.781.759.029,5.347.016,10.694.016,16.041,0,1.72,0,1.7,1.743,1.723.545.008.713-.114.706-.688C-59.514-691.385-59.5-694.221-59.5-697.056Zm-12.293-.14v7.685c0,1.638,0,1.608,1.67,1.65.612.015.783-.133.78-.765-.028-5.347-.016-10.694-.016-16.041,0-1.715,0-1.692-1.743-1.718-.54-.008-.713.106-.706.683C-71.772-702.866-71.79-700.031-71.79-697.2Zm32.015,1.344v-6.335c0-1.717,0-1.693-1.756-1.719-.551-.008-.7.123-.7.691.026,4.521.014,9.042.014,13.563,0,1.8,0,1.776,1.82,1.79.56,0,.636-.2.632-.687C-39.787-690.983-39.775-693.417-39.775-695.852Zm-51.737-.079v6.335c0,1.727,0,1.7,1.735,1.736.607.014.722-.181.72-.743-.022-4.5-.013-8.993-.013-13.489,0-1.825,0-1.8-1.8-1.813-.533,0-.66.158-.654.671C-91.5-700.8-91.512-698.365-91.512-695.931Zm36.945,1.348v-5.147c0-1.723,0-1.69-1.737-1.731-.626-.015-.712.21-.709.755.021,3.679.011,7.359.011,11.039,0,1.815,0,1.79,1.809,1.806.551,0,.644-.186.637-.68C-54.582-690.555-54.567-692.569-54.567-694.582Zm-19.717-.077v-5.072c0-1.721,0-1.687-1.737-1.729-.629-.015-.712.215-.709.757.02,3.679.01,7.359.01,11.039,0,1.812,0,1.787,1.816,1.8.558.005.636-.2.631-.683C-74.3-690.582-74.285-692.621-74.284-694.66ZM-49.637-706.3v-4.473c0-1.758,0-1.737-1.786-1.753-.512,0-.667.115-.663.648.026,3.28.013,6.56.013,9.841,0,1.857,0,1.833,1.856,1.832.536,0,.593-.211.588-.652C-49.648-702.674-49.637-704.488-49.637-706.3Zm-29.576-.066v-4.324c0-1.86,0-1.837-1.848-1.838-.52,0-.6.185-.6.642.016,3.28.009,6.56.009,9.841,0,1.862,0,1.839,1.853,1.84.526,0,.6-.194.593-.644C-79.225-702.691-79.213-704.53-79.213-706.369Zm14.787,4.4v-2.608c0-1.837,0-1.817-1.876-1.807-.475,0-.573.147-.568.59.022,2.062.01,4.124.01,6.186,0,1.974,0,1.959,1.951,1.888.407-.015.5-.153.49-.523C-64.438-699.485-64.426-700.727-64.426-701.969Zm-2.435,10.446v1.788c0,1.96,0,1.944,1.96,1.872.414-.015.484-.164.481-.526-.013-2.135-.024-4.27,0-6.4.009-.716-.524-.568-.8-.469-.54.19-1.474-.628-1.611.466A26.653,26.653,0,0,0-66.861-691.524Zm-9.862-13.622c0,1.254,0,1.254,1.163,1.254,1.277,0,1.277,0,1.277-1.283,0-1.2,0-1.2-1.2-1.2C-76.723-706.373-76.723-706.373-76.723-705.146Zm29.575-18.53c0,1.3,0,1.3,1.186,1.3,1.259,0,1.259,0,1.259-1.238,0-1.254,0-1.254-1.233-1.254C-47.148-724.868-47.148-724.868-47.148-723.675Zm-8.6,17.3c-1.257,0-1.257,0-1.257,1.286v.074c0,1.121,0,1.121,1.142,1.121,1.3,0,1.3,0,1.3-1.268C-54.564-706.373-54.564-706.373-55.748-706.373Zm-28.392-17.177c0-1.318,0-1.318-1.235-1.318-1.21,0-1.21,0-1.21,1.2,0,1.289,0,1.289,1.282,1.289C-84.139-722.376-84.139-722.376-84.139-723.549Zm-7.373,15.907c0,1.269,0,1.269,1.286,1.269,1.156,0,1.156,0,1.156-1.169,0-1.281,0-1.281-1.277-1.281C-91.512-708.824-91.512-708.824-91.512-707.642Zm49.295.01c0,1.259,0,1.259,1.29,1.259,1.152,0,1.152,0,1.152-1.18,0-1.27,0-1.27-1.225-1.27S-42.217-708.824-42.217-707.632Zm-8.581-9.814c-1.276,0-1.276,0-1.276,1.269,0,1.165,0,1.165,1.155,1.165,1.281,0,1.281,0,1.281-1.268C-49.637-717.446-49.637-717.446-50.8-717.446Zm-29.689,22.152c1.274,0,1.274,0,1.274-1.274,0-1.163,0-1.163-1.158-1.163-1.279,0-1.279,0-1.279,1.269C-81.65-695.293-81.65-695.293-80.487-695.293Zm29.611,0c1.239,0,1.239,0,1.239-1.239,0-1.2,0-1.2-1.2-1.2-1.234,0-1.234,0-1.234,1.235C-52.074-695.293-52.074-695.293-50.877-695.293Zm-29.569-19.717c1.232,0,1.232,0,1.232-1.237,0-1.2,0-1.2-1.2-1.2-1.237,0-1.237,0-1.237,1.239C-81.65-715.011-81.65-715.011-80.445-715.011Z" transform="translate(-23.099 -51.982)" fill="#81cfea"/>
      <path id="Trazado_127207" data-name="Trazado 127207" d="M-82.967-571.612q-15.744,0-31.487.01a3.874,3.874,0,0,1-3.784-2.01,3.844,3.844,0,0,1-.4-1.874c0-.945.027-1.891-.012-2.835-.021-.517.133-.676.661-.672,2.81.025,5.621.012,8.431.012,4.9,0,9.8.01,14.7-.012.633,0,.939.087.88.829a3.823,3.823,0,0,0,4.1,4.135q6.937-.113,13.877,0a3.84,3.84,0,0,0,4.149-4.165c-.057-.7.206-.8.832-.8q11.528.031,23.056,0c.615,0,.819.148.785.777-.06,1.091.008,2.19-.056,3.281a3.54,3.54,0,0,1-3.276,3.29c-.371.029-.745.034-1.118.034Q-67.3-571.611-82.967-571.612Z" transform="translate(-5.826 -155.947)" fill="#848e99"/>
      <path id="Trazado_127208" data-name="Trazado 127208" d="M-32.914-735.638h10.056c-1.077.546-1.956,1.012-2.855,1.437-.354.167-.547.343-.508.771.05.543-.022,1.1.04,1.639a3.66,3.66,0,0,0,2.6,3.3,3.633,3.633,0,0,0,4.115-1.115,4.944,4.944,0,0,0,1.1-4.86c-.1-.38-.236-.751-.377-1.195h1.6c1.288,0,1.271,0,1.385,1.327a12.113,12.113,0,0,1-3.18,9.454,1.614,1.614,0,0,0-.44,1.19c.022,1.964-.012,3.93.023,5.894.01.54-.16.648-.666.644-1.839-.016-1.839,0-1.839-1.849,0-1.243-.017-2.487.01-3.73.009-.434-.075-.594-.561-.6-1.886-.01-1.885-.031-1.885,1.872,0,1.243-.024,2.488.012,3.73.014.478-.144.569-.588.572-1.917.013-1.917.028-1.917-1.918,0-1.219-.016-2.437.009-3.655.009-.427-.063-.6-.556-.6-1.89-.011-1.89-.032-1.89,1.869,0,1.243-.023,2.487.012,3.73.013.473-.138.572-.586.575-1.919.014-1.919.03-1.919-1.914,0-1.219-.016-2.438.008-3.656.008-.421-.052-.6-.551-.6-1.895-.011-1.894-.033-1.894,1.865,0,1.268-.015,2.537.009,3.8.007.4-.121.491-.505.5-2,.064-2,.076-2-1.91,0-1.567-.015-3.134.01-4.7a1.42,1.42,0,0,0-.391-1.061,12.359,12.359,0,0,1-3.2-9.962c.066-.642.226-.982.968-.89a16.267,16.267,0,0,0,1.963.016c-.167.614-.354,1.179-.474,1.758a4.688,4.688,0,0,0,3.646,5.588,3.82,3.82,0,0,0,4.3-3.388c.245-2.134.245-2.133-1.655-3.084-.487-.243-.97-.494-1.455-.74Z" transform="translate(-60.738 -46.119)" fill="#e2e5e8"/>
      <path id="Trazado_127209" data-name="Trazado 127209" d="M-29.69-783.287c-4.077,0-8.154-.011-12.231.012-.679,0-.794-.178-.594-.817.813-2.605,1.572-5.227,2.364-7.839.312-1.029.572-1.209,1.667-1.21q8.875,0,17.749,0c1.093,0,1.35.18,1.663,1.215.791,2.612,1.55,5.234,2.364,7.839.2.651.065.815-.6.811C-21.436-783.3-25.563-783.287-29.69-783.287Z" transform="translate(-59.129 -5.85)" fill="#656c76"/>
      <path id="Trazado_127210" data-name="Trazado 127210" d="M56.968-741.321a2.779,2.779,0,0,0,1.651-2.064c.057-.323.205-.386.5-.385,3.6.013,7.21-.024,10.814.039a3.591,3.591,0,0,1,3.52,3.545c.012.223.008.447.008.671q0,20.846.018,41.693c0,.717-.162.913-.885.887-1.611-.06-1.612-.018-1.612-1.656q0-19.8,0-39.6a4.616,4.616,0,0,0-.117-1.406,2.509,2.509,0,0,0-2.6-1.717q-5.3-.011-10.591,0Z" transform="translate(-128.919 -40.456)" fill="#c8ccd3"/>
      <path id="Trazado_127211" data-name="Trazado 127211" d="M-94.1-741.329h-.708c-3.283,0-6.567.065-9.847-.024-2.055-.055-3.35.794-3.34,3.3.056,13.378.028,26.756.025,40.134,0,1.081.127.951-.949.956-1.529.006-1.529,0-1.529-1.547q0-20.589,0-41.179a3.739,3.739,0,0,1,2.738-3.952,4.475,4.475,0,0,1,1.254-.127c3.382-.007,6.764,0,10.146-.012.424,0,.671.052.752.551A2.908,2.908,0,0,0-94.1-741.329Z" transform="translate(-11.578 -40.448)" fill="#c8ccd3"/>
      <path id="Trazado_127212" data-name="Trazado 127212" d="M-19.625-579.012c2.634,0,5.268.016,7.9-.013.562-.006.766.108.742.718-.052,1.334-.409,1.741-1.734,1.742q-6.932,0-13.865,0a1.609,1.609,0,0,1-1.7-2.214c.106-.39.4-.224.6-.225C-24.992-579.016-22.308-579.012-19.625-579.012Z" transform="translate(-69.106 -155.917)" fill="#e4e7ea"/>
      <path id="Trazado_127213" data-name="Trazado 127213" d="M-22.007-726.328a1.907,1.907,0,0,1-1.731-1.617,3.236,3.236,0,0,1-.065-.737c.014-.834.056-.854.812-.479.509.252,1.032.479,1.519.769.317.188.869.17.754.819a1.41,1.41,0,0,1-1.04,1.21A1.294,1.294,0,0,1-22.007-726.328Z" transform="translate(-72.306 -50.531)" fill="#e88471"/>
      <path id="Trazado_127214" data-name="Trazado 127214" d="M18.19-728.621a2.5,2.5,0,0,1-.736,1.88,1.348,1.348,0,0,1-2.075-.118c-.479-.628-.375-1.1.32-1.446.551-.278,1.1-.557,1.653-.833C18.132-729.528,18.186-729.494,18.19-728.621Z" transform="translate(-99.563 -50.544)" fill="#e88471"/>
      <path id="Trazado_127215" data-name="Trazado 127215" d="M-18.458-752.065c1.169,0,1.169,0,1.169,1.158,0,1.333,0,1.333-1.377,1.333-1.06,0-1.06,0-1.06-1.06v-.148C-19.726-752.065-19.726-752.065-18.458-752.065Z" transform="translate(-75.164 -34.642)" fill="#929aa4"/>
      <path id="Trazado_127216" data-name="Trazado 127216" d="M-33.769-750.8c0,1.231,0,1.231-1.182,1.231-1.257,0-1.257,0-1.257-1.235,0-1.256,0-1.256,1.223-1.256S-33.769-752.065-33.769-750.8Z" transform="translate(-63.612 -34.642)" fill="#929aa4"/>
      <path id="Trazado_127217" data-name="Trazado 127217" d="M-51.465-752.065c1.187,0,1.187,0,1.187,1.214,0,1.277,0,1.277-1.283,1.277a4.825,4.825,0,0,0-.592,0c-.476.06-.613-.168-.569-.6a6.514,6.514,0,0,0,0-.666C-52.718-752.065-52.718-752.065-51.465-752.065Z" transform="translate(-52.031 -34.642)" fill="#929aa4"/>
      <path id="Trazado_127218" data-name="Trazado 127218" d="M48.631-750.768c0,1.194,0,1.194-1.227,1.194s-1.213,0-1.213-1.2c0-1.292,0-1.292,1.256-1.292C48.631-752.065,48.631-752.065,48.631-750.768Z" transform="translate(-121.365 -34.642)" fill="#929aa4"/>
      <path id="Trazado_127219" data-name="Trazado 127219" d="M32.152-750.872c0,1.3,0,1.3-1.268,1.3-1.171,0-1.171,0-1.171-1.168,0-1.323,0-1.323,1.3-1.323C32.152-752.065,32.152-752.065,32.152-750.872Z" transform="translate(-109.816 -34.642)" fill="#929aa4"/>
      <path id="Trazado_127220" data-name="Trazado 127220" d="M15.672-750.815c0,1.241,0,1.241-1.249,1.241-1.189,0-1.189,0-1.189-1.225,0-1.266,0-1.266,1.284-1.266C15.672-752.065,15.672-752.065,15.672-750.815Z" transform="translate(-98.266 -34.642)" fill="#929aa4"/>
      <path id="Trazado_127221" data-name="Trazado 127221" d="M-.809-750.813c0,1.239,0,1.239-1.25,1.239-1.187,0-1.187,0-1.187-1.228,0-1.263,0-1.263,1.287-1.263C-.809-752.065-.809-752.065-.809-750.813Z" transform="translate(-86.715 -34.642)" fill="#929aa4"/>
      <path id="Trazado_127222" data-name="Trazado 127222" d="M15.636-647.991c0,2.835-.018,5.671.015,8.505.007.574-.161.7-.706.688-1.743-.026-1.743,0-1.743-1.723,0-5.347.012-10.694-.016-16.041,0-.638.175-.774.781-.759,1.669.041,1.67.012,1.67,1.645Z" transform="translate(-98.231 -101.048)"/>
      <path id="Trazado_127223" data-name="Trazado 127223" d="M-19.758-648.124c0-2.835.018-5.671-.015-8.505-.007-.578.166-.691.706-.683,1.743.026,1.743,0,1.743,1.718,0,5.347-.012,10.694.016,16.041,0,.632-.168.78-.78.765-1.67-.042-1.67-.012-1.67-1.65Z" transform="translate(-75.13 -101.054)"/>
      <path id="Trazado_127224" data-name="Trazado 127224" d="M81.561-640.972c0,2.435-.012,4.869.01,7.3,0,.484-.072.692-.632.687-1.82-.013-1.82.012-1.82-1.79,0-4.521.012-9.042-.014-13.563,0-.568.15-.7.7-.691,1.755.026,1.756,0,1.756,1.719Z" transform="translate(-144.434 -106.862)"/>
      <path id="Trazado_127225" data-name="Trazado 127225" d="M-85.688-641.049c0-2.435.014-4.869-.012-7.3-.005-.513.121-.674.654-.671,1.8.01,1.8-.012,1.8,1.813,0,4.5-.01,8.993.013,13.489,0,.563-.112.757-.72.743-1.734-.039-1.735-.009-1.735-1.736Z" transform="translate(-28.923 -106.864)"/>
      <path id="Trazado_127226" data-name="Trazado 127226" d="M32.128-633.974c0,2.014-.015,4.028.011,6.041.007.494-.087.684-.637.68-1.809-.015-1.809.009-1.809-1.806,0-3.68.01-7.359-.011-11.039,0-.545.083-.77.709-.755,1.737.042,1.737.009,1.737,1.731Z" transform="translate(-109.794 -112.591)"/>
      <path id="Trazado_127227" data-name="Trazado 127227" d="M-33.794-634.051c0,2.039-.014,4.078.011,6.116.006.487-.072.688-.631.683-1.815-.016-1.816.009-1.816-1.8,0-3.68.01-7.359-.01-11.039,0-.542.08-.772.709-.757,1.736.041,1.737.008,1.737,1.729Q-33.794-636.587-33.794-634.051Z" transform="translate(-63.589 -112.591)"/>
      <path id="Trazado_127228" data-name="Trazado 127228" d="M48.6-671.63c0,1.814-.011,3.628.008,5.442,0,.442-.053.652-.588.652-1.856,0-1.856.025-1.856-1.832,0-3.281.013-6.561-.013-9.841,0-.533.151-.653.663-.648,1.786.016,1.786,0,1.786,1.753Z" transform="translate(-121.339 -86.655)"/>
      <path id="Trazado_127229" data-name="Trazado 127229" d="M-50.271-671.7c0,1.839-.012,3.678.009,5.517,0,.449-.066.644-.593.644-1.853,0-1.853.022-1.853-1.84,0-3.28.008-6.56-.009-9.841,0-.456.077-.642.6-.642,1.848,0,1.848-.022,1.848,1.838Z" transform="translate(-52.041 -86.652)"/>
      <path id="Trazado_127230" data-name="Trazado 127230" d="M-.829-652.9c0,1.242-.011,2.484.007,3.726.005.37-.083.508-.49.523-1.951.071-1.951.086-1.951-1.888,0-2.062.012-4.124-.01-6.186,0-.443.093-.587.568-.59,1.876-.011,1.876-.03,1.876,1.807Z" transform="translate(-86.695 -101.05)" fill="#000101"/>
      <path id="Trazado_127231" data-name="Trazado 127231" d="M-3.333-616.664a26.652,26.652,0,0,1,.029-3.273c.136-1.094,1.07-.276,1.611-.466.281-.1.814-.247.8.469-.027,2.135-.016,4.27,0,6.4,0,.362-.067.511-.481.526-1.961.072-1.96.087-1.96-1.872Z" transform="translate(-86.626 -126.843)" fill="#010202"/>
      <path id="Trazado_127232" data-name="Trazado 127232" d="M-36.214-656.047c0-1.227,0-1.227,1.245-1.227,1.2,0,1.2,0,1.2,1.2,0,1.283,0,1.283-1.277,1.283C-36.214-654.793-36.214-654.793-36.214-656.047Z" transform="translate(-63.607 -101.081)" fill="#040606"/>
      <path id="Trazado_127233" data-name="Trazado 127233" d="M62.668-717.918c0-1.192,0-1.192,1.212-1.192,1.233,0,1.233,0,1.233,1.254,0,1.238,0,1.238-1.259,1.238C62.668-716.618,62.668-716.618,62.668-717.918Z" transform="translate(-132.914 -57.74)" fill="#040606"/>
      <path id="Trazado_127234" data-name="Trazado 127234" d="M30.968-657.274c1.183,0,1.183,0,1.183,1.214,0,1.268,0,1.268-1.3,1.268-1.142,0-1.142,0-1.142-1.121v-.074C29.711-657.274,29.711-657.274,30.968-657.274Z" transform="translate(-109.815 -101.081)" fill="#040606"/>
      <path id="Trazado_127235" data-name="Trazado 127235" d="M-66.738-717.792c0,1.174,0,1.174-1.163,1.174-1.282,0-1.282,0-1.282-1.289,0-1.2,0-1.2,1.21-1.2C-66.738-719.11-66.738-719.11-66.738-717.792Z" transform="translate(-40.499 -57.74)" fill="#040606"/>
      <path id="Trazado_127236" data-name="Trazado 127236" d="M-85.66-664.287c0-1.181,0-1.181,1.165-1.181,1.277,0,1.277,0,1.277,1.281,0,1.169,0,1.169-1.156,1.169C-85.66-663.018-85.66-663.018-85.66-664.287Z" transform="translate(-28.95 -95.338)"/>
      <path id="Trazado_127237" data-name="Trazado 127237" d="M79.153-664.276c0-1.192,0-1.192,1.217-1.192s1.225,0,1.225,1.27c0,1.18,0,1.18-1.152,1.18C79.153-663.018,79.153-663.018,79.153-664.276Z" transform="translate(-144.469 -95.338)"/>
      <path id="Trazado_127238" data-name="Trazado 127238" d="M47.474-694.295c1.16,0,1.16,0,1.16,1.167,0,1.268,0,1.268-1.281,1.268-1.155,0-1.155,0-1.155-1.165C46.2-694.295,46.2-694.295,47.474-694.295Z" transform="translate(-121.37 -75.133)"/>
      <path id="Trazado_127239" data-name="Trazado 127239" d="M-51.524-625.941c-1.163,0-1.163,0-1.163-1.167,0-1.269,0-1.269,1.279-1.269,1.158,0,1.158,0,1.158,1.163C-50.25-625.941-50.25-625.941-51.524-625.941Z" transform="translate(-52.061 -121.335)"/>
      <path id="Trazado_127240" data-name="Trazado 127240" d="M47.4-625.941c-1.2,0-1.2,0-1.2-1.2,0-1.235,0-1.235,1.234-1.235,1.2,0,1.2,0,1.2,1.2C48.634-625.941,48.634-625.941,47.4-625.941Z" transform="translate(-121.37 -121.335)"/>
      <path id="Trazado_127241" data-name="Trazado 127241" d="M-51.483-691.86c-1.2,0-1.2,0-1.2-1.2,0-1.239,0-1.239,1.237-1.239,1.2,0,1.2,0,1.2,1.2C-50.25-691.86-50.25-691.86-51.483-691.86Z" transform="translate(-52.061 -75.133)"/>
    </g>
  </g>
</svg>
