<svg xmlns="http://www.w3.org/2000/svg" width="399.837" height="503.111" viewBox="0 0 399.837 503.111">
  <g id="Grupo_85998" data-name="Grupo 85998" transform="translate(-734.692 19.828)">
    <path id="Trazado_127851" data-name="Trazado 127851" d="M998.418,227.844a6.217,6.217,0,0,1-3.2-.886l-19.2-11.509,1.162-1.938,19.2,11.509a3.954,3.954,0,0,0,4.04.023l31.245-18.274a1.57,1.57,0,0,0-.047-2.74l-41.642-22.3,1.066-1.993,41.642,22.3a3.828,3.828,0,0,1,.12,6.682l-31.243,18.273A6.213,6.213,0,0,1,998.418,227.844Z" transform="translate(99.826 82.55)" fill="#fff"/>
    <path id="Trazado_127852" data-name="Trazado 127852" d="M962.158,368.114a8.064,8.064,0,0,1-3.93-1.018L881.614,324.45a3.525,3.525,0,0,1-.02-6.149l34.673-19.554a1.206,1.206,0,0,0,.007-2.092L877.7,274.5a3.462,3.462,0,0,1-.126-5.927l15.758-9.985,1.21,1.907-15.76,9.987a1.2,1.2,0,0,0,.044,2.06L917.4,294.7a3.465,3.465,0,0,1-.023,6.017l-34.673,19.555a1.265,1.265,0,0,0,.008,2.207l76.613,42.647a5.843,5.843,0,0,0,5.853-.107l29.131-17.91a.541.541,0,0,0,.264-.474.552.552,0,0,0-.266-.474l-21.085-12.816,1.173-1.931,21.085,12.818a2.814,2.814,0,0,1,.013,4.8l-29.138,17.914A8.1,8.1,0,0,1,962.158,368.114Z" transform="translate(58.437 115.17)" fill="#fff"/>
    <g id="Grupo_85934" data-name="Grupo 85934" transform="translate(1004.479 171.506)">
      <path id="Trazado_127853" data-name="Trazado 127853" d="M971.6,228.716l-36.936-21.326c-2.267-1.309-1.983-3.595.635-5.106l35.665-20.591c2.618-1.511,6.578-1.675,8.845-.366l36.936,21.325c2.268,1.309,1.983,3.595-.635,5.106l-35.665,20.591C977.825,229.859,973.865,230.023,971.6,228.716Z" transform="translate(-922.394 -88.663)" fill="#b5e4eb"/>
      <g id="Grupo_85928" data-name="Grupo 85928" transform="translate(0 51.007)">
        <path id="Trazado_127854" data-name="Trazado 127854" d="M1032.136,191.751h0V175.792l-35.785-.02-12.37-7.142c-2.839-1.638-7.8-1.433-11.075.459l-11.541,6.663-35.818-.02v16.413a3.21,3.21,0,0,0,1.9,2.967l46.252,26.7c2.839,1.64,7.8,1.433,11.076-.458l44.66-25.785C1031.331,194.481,1032.242,193.067,1032.136,191.751Z" transform="translate(-925.534 -145.014)" fill="#6ac9d6"/>
        <path id="Trazado_127855" data-name="Trazado 127855" d="M978.843,167.53a12.764,12.764,0,0,0-5.936,1.558l-11.541,6.663-35.818-.02v16.413a3.21,3.21,0,0,0,1.9,2.967l46.252,26.7a10.029,10.029,0,0,0,5.14,1.1Z" transform="translate(-925.534 -145.012)" fill="#6ac9d6"/>
        <path id="Trazado_127856" data-name="Trazado 127856" d="M929.6,173.332h-4.054v16.413a3.21,3.21,0,0,0,1.9,2.967l2.152,1.243Z" transform="translate(-925.534 -142.612)" fill="#8fd6e0"/>
        <path id="Trazado_127857" data-name="Trazado 127857" d="M960.114,211.66a12.622,12.622,0,0,0,8.854-.1V192.923h-8.854Z" transform="translate(-911.232 -134.508)" fill="#8fd6e0"/>
        <path id="Trazado_127858" data-name="Trazado 127858" d="M973.7,212.05l-46.252-26.7c-2.84-1.64-2.484-4.5.794-6.4l44.662-25.785c3.277-1.891,8.236-2.1,11.075-.458l46.253,26.7c2.839,1.638,2.482,4.5-.8,6.394l-44.66,25.785C981.5,213.484,976.544,213.689,973.7,212.05Z" transform="translate(-925.536 -151.601)" fill="#daf1f5"/>
        <path id="Trazado_127859" data-name="Trazado 127859" d="M972.01,205.785l-38.76-22.378c-2.379-1.374-2.081-3.773.666-5.359l37.426-21.608c2.747-1.586,6.9-1.759,9.281-.385l38.761,22.378c2.378,1.373,2.079,3.772-.667,5.358L981.291,205.4C978.545,206.985,974.39,207.158,972.01,205.785Z" transform="translate(-923.009 -150.142)" fill="#8fd6e0"/>
        <g id="Grupo_85927" data-name="Grupo 85927" transform="translate(85.855 42.674)">
          <path id="Trazado_127860" data-name="Trazado 127860" d="M990,188.031a4.128,4.128,0,0,1-1.869,3.236c-1.032.6-1.867.113-1.867-1.079a4.129,4.129,0,0,1,1.867-3.236C989.167,186.357,990,186.841,990,188.031Z" transform="translate(-986.268 -179.757)" fill="#daf1f5"/>
          <path id="Trazado_127861" data-name="Trazado 127861" d="M994.255,185.576a4.127,4.127,0,0,1-1.867,3.236c-1.032.6-1.869.113-1.869-1.079a4.133,4.133,0,0,1,1.869-3.236C993.42,183.9,994.255,184.386,994.255,185.576Z" transform="translate(-984.51 -180.773)" fill="#daf1f5"/>
          <path id="Trazado_127862" data-name="Trazado 127862" d="M998.507,183.122a4.131,4.131,0,0,1-1.867,3.236c-1.032.6-1.869.112-1.869-1.079a4.128,4.128,0,0,1,1.869-3.236C997.672,181.447,998.507,181.931,998.507,183.122Z" transform="translate(-982.751 -181.788)" fill="#daf1f5"/>
        </g>
      </g>
      <g id="Grupo_85930" data-name="Grupo 85930" transform="translate(0 25.504)">
        <path id="Trazado_127863" data-name="Trazado 127863" d="M1032.136,173.71h0V157.751l-35.785-.02-12.37-7.142c-2.839-1.638-7.8-1.433-11.075.459l-11.541,6.663-35.818-.02V174.1a3.21,3.21,0,0,0,1.9,2.967l46.252,26.7c2.839,1.64,7.8,1.433,11.076-.458l44.66-25.785C1031.331,176.44,1032.242,175.026,1032.136,173.71Z" transform="translate(-925.534 -126.973)" fill="#6ac9d6"/>
        <path id="Trazado_127864" data-name="Trazado 127864" d="M978.843,149.489a12.764,12.764,0,0,0-5.936,1.558l-11.541,6.663-35.818-.02V174.1a3.21,3.21,0,0,0,1.9,2.967l46.252,26.7a10.029,10.029,0,0,0,5.14,1.1Z" transform="translate(-925.534 -126.971)" fill="#6ac9d6"/>
        <path id="Trazado_127865" data-name="Trazado 127865" d="M929.6,155.291h-4.054V171.7a3.21,3.21,0,0,0,1.9,2.967l2.152,1.243Z" transform="translate(-925.534 -124.571)" fill="#8fd6e0"/>
        <path id="Trazado_127866" data-name="Trazado 127866" d="M960.114,193.619a12.622,12.622,0,0,0,8.854-.1V174.882h-8.854Z" transform="translate(-911.232 -116.467)" fill="#8fd6e0"/>
        <path id="Trazado_127867" data-name="Trazado 127867" d="M973.7,194.009l-46.252-26.7c-2.84-1.64-2.484-4.5.794-6.4l44.662-25.784c3.277-1.893,8.236-2.1,11.075-.459l46.253,26.7c2.839,1.638,2.482,4.5-.8,6.394l-44.66,25.785C981.5,195.443,976.544,195.648,973.7,194.009Z" transform="translate(-925.536 -133.56)" fill="#daf1f5"/>
        <path id="Trazado_127868" data-name="Trazado 127868" d="M972.01,187.744l-38.76-22.378c-2.379-1.374-2.081-3.773.666-5.359L971.343,138.4c2.747-1.586,6.9-1.759,9.281-.385l38.761,22.378c2.378,1.373,2.079,3.773-.667,5.358l-37.427,21.609C978.545,188.946,974.39,189.117,972.01,187.744Z" transform="translate(-923.009 -132.101)" fill="#8fd6e0"/>
        <g id="Grupo_85929" data-name="Grupo 85929" transform="translate(85.855 42.674)">
          <path id="Trazado_127869" data-name="Trazado 127869" d="M990,169.99a4.129,4.129,0,0,1-1.869,3.236c-1.032.6-1.867.113-1.867-1.079a4.131,4.131,0,0,1,1.867-3.236C989.167,168.316,990,168.8,990,169.99Z" transform="translate(-986.268 -161.716)" fill="#daf1f5"/>
          <path id="Trazado_127870" data-name="Trazado 127870" d="M994.255,167.535a4.127,4.127,0,0,1-1.867,3.236c-1.032.6-1.869.113-1.869-1.079a4.128,4.128,0,0,1,1.869-3.234C993.42,165.861,994.255,166.345,994.255,167.535Z" transform="translate(-984.51 -162.732)" fill="#daf1f5"/>
          <path id="Trazado_127871" data-name="Trazado 127871" d="M998.507,165.081a4.131,4.131,0,0,1-1.867,3.236c-1.032.6-1.869.112-1.869-1.079A4.128,4.128,0,0,1,996.64,164C997.672,163.406,998.507,163.89,998.507,165.081Z" transform="translate(-982.751 -163.747)" fill="#daf1f5"/>
        </g>
      </g>
      <g id="Grupo_85933" data-name="Grupo 85933">
        <path id="Trazado_127872" data-name="Trazado 127872" d="M1032.136,155.669h0V139.71l-35.785-.02-12.37-7.142c-2.839-1.638-7.8-1.433-11.075.459l-11.541,6.663-35.818-.02v16.413a3.21,3.21,0,0,0,1.9,2.967l46.252,26.7c2.839,1.64,7.8,1.433,11.076-.458l44.66-25.785C1031.331,158.4,1032.242,156.985,1032.136,155.669Z" transform="translate(-925.534 -108.932)" fill="#6ac9d6"/>
        <path id="Trazado_127873" data-name="Trazado 127873" d="M978.843,131.448a12.764,12.764,0,0,0-5.936,1.558l-11.541,6.663-35.818-.02v16.413a3.21,3.21,0,0,0,1.9,2.967l46.252,26.7a10.029,10.029,0,0,0,5.14,1.1Z" transform="translate(-925.534 -108.93)" fill="#6ac9d6"/>
        <path id="Trazado_127874" data-name="Trazado 127874" d="M929.6,137.25h-4.054v16.413a3.21,3.21,0,0,0,1.9,2.967l2.152,1.243Z" transform="translate(-925.534 -106.53)" fill="#8fd6e0"/>
        <path id="Trazado_127875" data-name="Trazado 127875" d="M960.114,175.578a12.622,12.622,0,0,0,8.854-.1V156.841h-8.854Z" transform="translate(-911.232 -98.426)" fill="#8fd6e0"/>
        <path id="Trazado_127876" data-name="Trazado 127876" d="M973.7,175.968l-46.252-26.7c-2.84-1.64-2.484-4.5.794-6.394l44.662-25.785c3.277-1.893,8.236-2.1,11.075-.459l46.253,26.7c2.839,1.638,2.482,4.5-.8,6.394l-44.66,25.785C981.5,177.4,976.544,177.607,973.7,175.968Z" transform="translate(-925.536 -115.519)" fill="#daf1f5"/>
        <path id="Trazado_127877" data-name="Trazado 127877" d="M1029.441,138.077l-44.66,25.785c-3.278,1.893-8.237,2.1-11.076.459l-46.252-26.7a4.269,4.269,0,0,1-1.417-1.257c-.975,1.569-.533,3.273,1.417,4.4l46.252,26.7c2.839,1.638,7.8,1.433,11.076-.459l44.66-25.785c2.547-1.47,3.321-3.524,2.212-5.137A6.191,6.191,0,0,1,1029.441,138.077Z" transform="translate(-925.535 -107.014)" fill="#fff"/>
        <g id="Grupo_85931" data-name="Grupo 85931" transform="translate(85.855 42.674)">
          <path id="Trazado_127878" data-name="Trazado 127878" d="M990,151.949a4.129,4.129,0,0,1-1.869,3.236c-1.032.6-1.867.113-1.867-1.079a4.131,4.131,0,0,1,1.867-3.236C989.167,150.275,990,150.759,990,151.949Z" transform="translate(-986.268 -143.675)" fill="#daf1f5"/>
          <path id="Trazado_127879" data-name="Trazado 127879" d="M994.255,149.5a4.127,4.127,0,0,1-1.867,3.234c-1.032.6-1.869.113-1.869-1.079a4.128,4.128,0,0,1,1.869-3.234C993.42,147.82,994.255,148.3,994.255,149.5Z" transform="translate(-984.51 -144.691)" fill="#daf1f5"/>
          <path id="Trazado_127880" data-name="Trazado 127880" d="M998.507,147.04a4.131,4.131,0,0,1-1.867,3.236c-1.032.6-1.869.112-1.869-1.079a4.128,4.128,0,0,1,1.869-3.236C997.672,145.365,998.507,145.849,998.507,147.04Z" transform="translate(-982.751 -145.706)" fill="#daf1f5"/>
        </g>
        <g id="Grupo_85932" data-name="Grupo 85932" transform="translate(28.363 15.606)">
          <path id="Trazado_127881" data-name="Trazado 127881" d="M968.141,154.845,946.5,142.35c-1.329-.768-1.162-2.108.372-2.993l20.9-12.066a5.756,5.756,0,0,1,5.182-.215l21.644,12.5c1.329.768,1.162,2.106-.372,2.993l-20.9,12.066A5.756,5.756,0,0,1,968.141,154.845Z" transform="translate(-945.599 -126.558)" fill="#8fd6e0"/>
          <path id="Trazado_127882" data-name="Trazado 127882" d="M963.924,140.312l-3-1.729c-.184-.106-.16-.291.052-.414l2.891-1.67a.8.8,0,0,1,.717-.03l3,1.729c.184.106.16.291-.052.414l-2.891,1.67A.8.8,0,0,1,963.924,140.312Z" transform="translate(-939.31 -122.488)" fill="#daf1f5"/>
          <path id="Trazado_127883" data-name="Trazado 127883" d="M946.5,142.35l.061.035c.1-.072.2-.147.311-.215l20.9-12.066a5.756,5.756,0,0,1,5.182-.215l21.584,12.461c1.224-.876,1.288-2.07.061-2.779l-21.644-12.5a5.756,5.756,0,0,0-5.182.215l-20.9,12.066C945.334,140.242,945.168,141.582,946.5,142.35Z" transform="translate(-945.599 -126.558)" fill="#6ac9d6"/>
        </g>
      </g>
    </g>
    <g id="Grupo_85954" data-name="Grupo 85954" transform="translate(883.517 99.492)">
      <g id="Grupo_85946" data-name="Grupo 85946">
        <g id="Grupo_85937" data-name="Grupo 85937">
          <path id="Trazado_127884" data-name="Trazado 127884" d="M925.424,292.2l-79.832-45.52c-2.919-1.686-2.553-4.631.818-6.576l45.932-26.52c3.372-1.947,8.471-2.157,11.391-.472l79.83,45.521c2.919,1.685,2.553,4.63-.817,6.576l-45.934,26.519C933.443,293.671,928.343,293.881,925.424,292.2Z" transform="translate(-838.458 -3.608)" fill="#b5e4eb"/>
          <path id="Trazado_127885" data-name="Trazado 127885" d="M992.188,297.008h0V110.637L918.1,91.246l-13.647-7.88c-3.131-1.808-8.6-1.582-12.218.506L879.5,91.225,839.98,91.2l11.7,179.914a3.543,3.543,0,0,0,2.1,3.274l73.938,55.79c3.133,1.808,8.6,1.581,12.22-.507l49.274-28.448C991.3,300.02,992.306,298.46,992.188,297.008Z" transform="translate(-839.964 -57.31)" fill="#6ac9d6"/>
          <path id="Trazado_127886" data-name="Trazado 127886" d="M898.783,82.152a14.11,14.11,0,0,0-6.55,1.718L879.5,91.222,839.982,91.2V278.07a3.541,3.541,0,0,0,2.1,3.274l85.639,48.833a11.079,11.079,0,0,0,5.672,1.212l.882-188.04Z" transform="translate(-839.967 -57.308)" fill="#daf1f5"/>
          <path id="Trazado_127887" data-name="Trazado 127887" d="M902.6,313.305a13.922,13.922,0,0,0,9.768-.112V123.87H902.6Z" transform="translate(-814.061 -40.051)" fill="#8fd6e0"/>
          <path id="Trazado_127888" data-name="Trazado 127888" d="M927.723,150.642l-85.639-48.833c-3.133-1.808-2.74-4.966.876-7.054L892.236,66.3c3.616-2.088,9.087-2.314,12.218-.506l85.641,48.832c3.133,1.809,2.74,4.968-.878,7.056l-49.274,28.448C936.327,152.222,930.856,152.45,927.723,150.642Z" transform="translate(-839.969 -64.577)" fill="#daf1f5"/>
          <path id="Trazado_127889" data-name="Trazado 127889" d="M989.217,108.746l-49.274,28.448c-3.616,2.088-9.087,2.316-12.22.506L842.084,88.869a4.729,4.729,0,0,1-1.563-1.387c-1.076,1.732-.588,3.61,1.563,4.852l85.639,48.833c3.133,1.808,8.6,1.58,12.22-.508l49.274-28.448c2.81-1.623,3.664-3.889,2.44-5.669A6.825,6.825,0,0,1,989.217,108.746Z" transform="translate(-839.969 -55.103)" fill="#fafdff"/>
          <g id="Grupo_85936" data-name="Grupo 85936" transform="translate(32.17 15.799)">
            <path id="Trazado_127890" data-name="Trazado 127890" d="M920.732,126.227,863.716,93.176c-1.466-.847-1.282-2.324.41-3.3l23.058-13.312a6.355,6.355,0,0,1,5.718-.236l57.017,33.051c1.466.845,1.282,2.324-.41,3.3L926.451,125.99A6.359,6.359,0,0,1,920.732,126.227Z" transform="translate(-862.726 -75.754)" fill="#45bbcc"/>
            <g id="Grupo_85935" data-name="Grupo 85935" transform="translate(23.784 14.588)">
              <path id="Trazado_127891" data-name="Trazado 127891" d="M882.991,90.392l-3.3-1.908c-.2-.116-.177-.321.057-.457l3.19-1.842a.883.883,0,0,1,.792-.033l3.3,1.908c.2.116.177.321-.056.457l-3.191,1.842A.882.882,0,0,1,882.991,90.392Z" transform="translate(-879.55 -86.073)" fill="#daf1f5"/>
              <path id="Trazado_127892" data-name="Trazado 127892" d="M890.8,94.882l-3.3-1.908c-.2-.117-.177-.321.056-.457l3.191-1.842a.878.878,0,0,1,.792-.032l3.3,1.907c.2.117.177.322-.056.457l-3.191,1.842A.883.883,0,0,1,890.8,94.882Z" transform="translate(-876.321 -84.216)" fill="#daf1f5"/>
              <path id="Trazado_127893" data-name="Trazado 127893" d="M898.607,99.37l-3.3-1.907c-.2-.117-.177-.322.056-.457l3.191-1.842a.878.878,0,0,1,.792-.033l3.3,1.907c.2.117.177.321-.057.457L899.4,99.338A.878.878,0,0,1,898.607,99.37Z" transform="translate(-873.091 -82.359)" fill="#daf1f5"/>
              <path id="Trazado_127894" data-name="Trazado 127894" d="M906.416,103.861l-3.305-1.908c-.2-.116-.177-.321.058-.457l3.189-1.842a.882.882,0,0,1,.792-.033l3.3,1.908c.2.116.178.321-.057.457l-3.19,1.842A.879.879,0,0,1,906.416,103.861Z" transform="translate(-869.861 -80.502)" fill="#daf1f5"/>
            </g>
            <path id="Trazado_127895" data-name="Trazado 127895" d="M863.716,93.176l.066.038a4.062,4.062,0,0,1,.344-.235l23.058-13.314a6.355,6.355,0,0,1,5.718-.236l56.949,33.012c1.351-.967,1.422-2.283.068-3.066L892.9,76.325a6.355,6.355,0,0,0-5.718.236L864.126,89.874C862.434,90.852,862.25,92.329,863.716,93.176Z" transform="translate(-862.726 -75.754)" fill="#8fd6e0"/>
          </g>
        </g>
        <g id="Grupo_85939" data-name="Grupo 85939" transform="translate(106.291 83.629)">
          <path id="Trazado_127896" data-name="Trazado 127896" d="M918.462,163.094l32.418-18.56a7.913,7.913,0,0,0,3.3-6.312V126.628c0-2.431-1.48-3.55-3.3-2.5l-32.418,18.561a7.909,7.909,0,0,0-3.3,6.311V160.6C915.158,163.03,916.637,164.148,918.462,163.094Z" transform="translate(-915.158 -123.736)" fill="#45bbcc"/>
          <path id="Trazado_127897" data-name="Trazado 127897" d="M952.241,123.769a3.233,3.233,0,0,1,.83,2.412v11.593a7.913,7.913,0,0,1-3.3,6.311L917.35,162.646a2.377,2.377,0,0,1-1.6.349,1.968,1.968,0,0,0,2.474.085l32.418-18.56a7.914,7.914,0,0,0,3.3-6.312V126.615C953.941,124.964,953.251,123.94,952.241,123.769Z" transform="translate(-914.915 -123.722)" fill="#fff"/>
          <g id="Grupo_85938" data-name="Grupo 85938" transform="translate(12.334 14.124)">
            <path id="Trazado_127898" data-name="Trazado 127898" d="M924.6,144.688l2.974-1.718a1.724,1.724,0,0,0,.72-1.375v-3.176c0-.53-.322-.773-.72-.544l-2.974,1.718a1.724,1.724,0,0,0-.719,1.376v3.176C923.883,144.674,924.206,144.917,924.6,144.688Z" transform="translate(-923.883 -132.047)" fill="#6ac9d6"/>
            <path id="Trazado_127899" data-name="Trazado 127899" d="M931.637,140.627l2.974-1.718a1.724,1.724,0,0,0,.72-1.375v-3.176c0-.53-.323-.773-.72-.544l-2.974,1.718a1.724,1.724,0,0,0-.72,1.375v3.177C930.917,140.613,931.239,140.856,931.637,140.627Z" transform="translate(-920.974 -133.727)" fill="#fff"/>
          </g>
        </g>
        <g id="Grupo_85941" data-name="Grupo 85941" transform="translate(106.291 167.403)">
          <path id="Trazado_127900" data-name="Trazado 127900" d="M918.462,222.355l32.418-18.561a7.913,7.913,0,0,0,3.3-6.312V185.89c0-2.433-1.48-3.551-3.3-2.5l-32.418,18.561a7.909,7.909,0,0,0-3.3,6.311v11.593C915.158,222.29,916.637,223.408,918.462,222.355Z" transform="translate(-915.158 -182.996)" fill="#45bbcc"/>
          <path id="Trazado_127901" data-name="Trazado 127901" d="M952.241,183.029a3.233,3.233,0,0,1,.83,2.412v11.593a7.913,7.913,0,0,1-3.3,6.311L917.35,221.906a2.377,2.377,0,0,1-1.6.349,1.97,1.97,0,0,0,2.474.086l32.418-18.561a7.914,7.914,0,0,0,3.3-6.312V185.876C953.941,184.224,953.251,183.2,952.241,183.029Z" transform="translate(-914.915 -182.982)" fill="#fff"/>
          <g id="Grupo_85940" data-name="Grupo 85940" transform="translate(12.334 14.124)">
            <path id="Trazado_127902" data-name="Trazado 127902" d="M924.6,203.948l2.974-1.716a1.729,1.729,0,0,0,.72-1.377v-3.176c0-.53-.322-.773-.72-.544l-2.974,1.718a1.724,1.724,0,0,0-.719,1.375V203.4C923.883,203.934,924.206,204.177,924.6,203.948Z" transform="translate(-923.883 -191.307)" fill="#6ac9d6"/>
            <path id="Trazado_127903" data-name="Trazado 127903" d="M931.637,199.887l2.974-1.718a1.724,1.724,0,0,0,.72-1.375v-3.176c0-.53-.323-.773-.72-.544l-2.974,1.718a1.724,1.724,0,0,0-.72,1.375v3.176C930.917,199.873,931.239,200.116,931.637,199.887Z" transform="translate(-920.974 -192.987)" fill="#6ac9d6"/>
          </g>
        </g>
        <g id="Grupo_85943" data-name="Grupo 85943" transform="translate(106.291 209.289)">
          <path id="Trazado_127904" data-name="Trazado 127904" d="M918.462,251.985l32.418-18.561a7.913,7.913,0,0,0,3.3-6.312V215.52c0-2.433-1.48-3.551-3.3-2.5l-32.418,18.561a7.909,7.909,0,0,0-3.3,6.312v11.592C915.158,251.92,916.637,253.038,918.462,251.985Z" transform="translate(-915.158 -212.626)" fill="#45bbcc"/>
          <path id="Trazado_127905" data-name="Trazado 127905" d="M952.241,212.659a3.236,3.236,0,0,1,.83,2.412v11.593a7.913,7.913,0,0,1-3.3,6.311L917.35,251.536a2.369,2.369,0,0,1-1.6.349,1.97,1.97,0,0,0,2.474.086l32.418-18.561a7.914,7.914,0,0,0,3.3-6.312V215.506C953.941,213.854,953.251,212.83,952.241,212.659Z" transform="translate(-914.915 -212.612)" fill="#fff"/>
          <g id="Grupo_85942" data-name="Grupo 85942" transform="translate(12.334 14.124)">
            <path id="Trazado_127906" data-name="Trazado 127906" d="M924.6,233.578l2.974-1.716a1.726,1.726,0,0,0,.72-1.375V227.31c0-.53-.322-.775-.72-.544l-2.974,1.716a1.724,1.724,0,0,0-.719,1.375v3.176C923.883,233.564,924.206,233.808,924.6,233.578Z" transform="translate(-923.883 -220.937)" fill="#fff"/>
            <path id="Trazado_127907" data-name="Trazado 127907" d="M931.637,229.517l2.974-1.716a1.727,1.727,0,0,0,.72-1.377v-3.176c0-.53-.323-.773-.72-.544l-2.974,1.718a1.724,1.724,0,0,0-.72,1.375v3.176C930.917,229.5,931.239,229.747,931.637,229.517Z" transform="translate(-920.974 -222.617)" fill="#6ac9d6"/>
          </g>
        </g>
        <g id="Grupo_85945" data-name="Grupo 85945" transform="translate(106.291 125.516)">
          <path id="Trazado_127908" data-name="Trazado 127908" d="M918.462,192.725l32.418-18.561a7.913,7.913,0,0,0,3.3-6.312V156.258c0-2.431-1.48-3.55-3.3-2.5l-32.418,18.561a7.909,7.909,0,0,0-3.3,6.311v11.593C915.158,192.66,916.637,193.778,918.462,192.725Z" transform="translate(-915.158 -153.366)" fill="#45bbcc"/>
          <path id="Trazado_127909" data-name="Trazado 127909" d="M952.241,153.4a3.234,3.234,0,0,1,.83,2.412V167.4a7.913,7.913,0,0,1-3.3,6.311L917.35,192.276a2.377,2.377,0,0,1-1.6.349,1.97,1.97,0,0,0,2.474.086l32.418-18.561a7.914,7.914,0,0,0,3.3-6.312V156.245C953.941,154.594,953.251,153.57,952.241,153.4Z" transform="translate(-914.915 -153.352)" fill="#fff"/>
          <g id="Grupo_85944" data-name="Grupo 85944" transform="translate(12.334 14.124)">
            <path id="Trazado_127910" data-name="Trazado 127910" d="M924.6,174.318l2.974-1.718a1.724,1.724,0,0,0,.72-1.376v-3.176c0-.53-.322-.773-.72-.544l-2.974,1.718a1.724,1.724,0,0,0-.719,1.375v3.176C923.883,174.3,924.206,174.547,924.6,174.318Z" transform="translate(-923.883 -161.677)" fill="#fff"/>
            <path id="Trazado_127911" data-name="Trazado 127911" d="M931.637,170.257l2.974-1.718a1.724,1.724,0,0,0,.72-1.375v-3.176c0-.53-.323-.773-.72-.544l-2.974,1.718a1.724,1.724,0,0,0-.72,1.375v3.176C930.917,170.243,931.239,170.486,931.637,170.257Z" transform="translate(-920.974 -163.357)" fill="#fff"/>
          </g>
        </g>
      </g>
      <g id="Grupo_85947" data-name="Grupo 85947" transform="translate(3.694 45.232)">
        <path id="Trazado_127912" data-name="Trazado 127912" d="M920.4,162.463l-74.791-43.182a7.261,7.261,0,0,1-3.031-5.792V99.229c0-2.232,1.357-3.258,3.031-2.292L920.4,140.119a7.253,7.253,0,0,1,3.032,5.79v14.262C923.436,162.4,922.079,163.429,920.4,162.463Z" transform="translate(-842.582 -96.574)" fill="#8fd6e0"/>
        <path id="Trazado_127913" data-name="Trazado 127913" d="M917.193,155.946l-70.5-40.7a3.679,3.679,0,0,1-1.538-2.938V101.585c0-1.134.688-1.654,1.538-1.163l70.5,40.7a3.688,3.688,0,0,1,1.538,2.939v10.721C918.731,155.916,918.041,156.437,917.193,155.946Z" transform="translate(-841.517 -95.058)" fill="#daf1f5" opacity="0.4"/>
        <path id="Trazado_127914" data-name="Trazado 127914" d="M860.152,116.014l-10.52-6.073a3.576,3.576,0,0,1-1.493-2.854h0c0-1.1.667-1.6,1.493-1.128l10.52,6.074a3.571,3.571,0,0,1,1.494,2.853h0C861.647,115.986,860.978,116.49,860.152,116.014Z" transform="translate(-840.283 -92.766)" fill="#daf1f5"/>
        <path id="Trazado_127915" data-name="Trazado 127915" d="M863.988,116.216c0,1.1-.772,1.545-1.723,1a3.811,3.811,0,0,1-1.725-2.987c0-1.1.772-1.545,1.725-1A3.814,3.814,0,0,1,863.988,116.216Z" transform="translate(-835.154 -89.781)" fill="#45bbcc"/>
        <path id="Trazado_127916" data-name="Trazado 127916" d="M868.292,118.7c0,1.1-.773,1.545-1.725,1a3.81,3.81,0,0,1-1.725-2.986c0-1.1.772-1.547,1.725-1A3.815,3.815,0,0,1,868.292,118.7Z" transform="translate(-833.374 -88.754)" fill="#45bbcc"/>
        <path id="Trazado_127917" data-name="Trazado 127917" d="M872.6,121.184c0,1.1-.772,1.547-1.725,1a3.811,3.811,0,0,1-1.725-2.987c0-1.1.772-1.545,1.725-1A3.811,3.811,0,0,1,872.6,121.184Z" transform="translate(-831.594 -87.726)" fill="#daf1f5"/>
        <path id="Trazado_127918" data-name="Trazado 127918" d="M876.9,123.669c0,1.1-.772,1.545-1.725,1a3.811,3.811,0,0,1-1.725-2.987c0-1.1.772-1.545,1.725-1A3.811,3.811,0,0,1,876.9,123.669Z" transform="translate(-829.814 -86.698)" fill="#45bbcc"/>
        <path id="Trazado_127919" data-name="Trazado 127919" d="M895.334,137.9l-3.544-2.047a2.3,2.3,0,0,1-.958-1.831v-3.749c0-.705.43-1.031.958-.725l3.544,2.047a2.292,2.292,0,0,1,.958,1.831v3.749C896.292,137.88,895.864,138.2,895.334,137.9Z" transform="translate(-822.624 -82.981)" fill="#45bbcc"/>
      </g>
      <g id="Grupo_85948" data-name="Grupo 85948" transform="translate(3.694 70.38)">
        <path id="Trazado_127920" data-name="Trazado 127920" d="M920.4,180.253l-74.791-43.182a7.261,7.261,0,0,1-3.031-5.792V117.019c0-2.232,1.357-3.258,3.031-2.292l74.791,43.18a7.258,7.258,0,0,1,3.032,5.792v14.262C923.436,180.194,922.079,181.219,920.4,180.253Z" transform="translate(-842.582 -114.364)" fill="#8fd6e0"/>
        <path id="Trazado_127921" data-name="Trazado 127921" d="M917.193,173.736l-70.5-40.7a3.681,3.681,0,0,1-1.538-2.938V119.374c0-1.132.688-1.653,1.538-1.162l70.5,40.7a3.686,3.686,0,0,1,1.538,2.939v10.721C918.731,173.707,918.041,174.227,917.193,173.736Z" transform="translate(-841.517 -112.848)" fill="#daf1f5" opacity="0.4"/>
        <path id="Trazado_127922" data-name="Trazado 127922" d="M860.152,133.8l-10.52-6.075a3.571,3.571,0,0,1-1.493-2.853h0c0-1.1.667-1.6,1.493-1.128l10.52,6.073a3.576,3.576,0,0,1,1.494,2.854h0C861.647,133.776,860.978,134.28,860.152,133.8Z" transform="translate(-840.283 -110.556)" fill="#daf1f5"/>
        <path id="Trazado_127923" data-name="Trazado 127923" d="M863.988,134.006c0,1.1-.772,1.545-1.723,1a3.811,3.811,0,0,1-1.725-2.987c0-1.1.772-1.545,1.725-1A3.814,3.814,0,0,1,863.988,134.006Z" transform="translate(-835.154 -107.571)" fill="#fff"/>
        <path id="Trazado_127924" data-name="Trazado 127924" d="M868.292,136.49c0,1.1-.773,1.545-1.725,1a3.811,3.811,0,0,1-1.725-2.987c0-1.1.772-1.545,1.725-1A3.815,3.815,0,0,1,868.292,136.49Z" transform="translate(-833.374 -106.544)" fill="#45bbcc"/>
        <path id="Trazado_127925" data-name="Trazado 127925" d="M872.6,138.974c0,1.1-.772,1.547-1.725,1a3.811,3.811,0,0,1-1.725-2.987c0-1.1.772-1.545,1.725-1A3.811,3.811,0,0,1,872.6,138.974Z" transform="translate(-831.594 -105.516)" fill="#daf1f5"/>
        <path id="Trazado_127926" data-name="Trazado 127926" d="M876.9,141.459c0,1.1-.772,1.545-1.725,1a3.811,3.811,0,0,1-1.725-2.987c0-1.1.772-1.545,1.725-1A3.811,3.811,0,0,1,876.9,141.459Z" transform="translate(-829.814 -104.488)" fill="#45bbcc"/>
        <path id="Trazado_127927" data-name="Trazado 127927" d="M895.334,155.689l-3.544-2.047a2.3,2.3,0,0,1-.958-1.831v-3.749c0-.705.43-1.031.958-.725l3.544,2.047a2.292,2.292,0,0,1,.958,1.831v3.749C896.292,155.67,895.864,155.995,895.334,155.689Z" transform="translate(-822.624 -100.771)" fill="#45bbcc"/>
      </g>
      <g id="Grupo_85949" data-name="Grupo 85949" transform="translate(3.694 95.529)">
        <path id="Trazado_127928" data-name="Trazado 127928" d="M920.4,198.042l-74.791-43.18a7.261,7.261,0,0,1-3.031-5.792V134.809c0-2.232,1.357-3.258,3.031-2.292L920.4,175.7a7.258,7.258,0,0,1,3.032,5.792v14.262C923.436,197.982,922.079,199.009,920.4,198.042Z" transform="translate(-842.582 -132.154)" fill="#8fd6e0"/>
        <path id="Trazado_127929" data-name="Trazado 127929" d="M917.193,191.526l-70.5-40.7a3.681,3.681,0,0,1-1.538-2.938V137.164c0-1.132.688-1.653,1.538-1.162l70.5,40.7a3.685,3.685,0,0,1,1.538,2.938v10.723C918.731,191.5,918.041,192.017,917.193,191.526Z" transform="translate(-841.517 -130.638)" fill="#daf1f5" opacity="0.4"/>
        <path id="Trazado_127930" data-name="Trazado 127930" d="M860.152,151.594l-10.52-6.074a3.571,3.571,0,0,1-1.493-2.853h0c0-1.1.667-1.6,1.493-1.128l10.52,6.073a3.576,3.576,0,0,1,1.494,2.854h0C861.647,151.566,860.978,152.07,860.152,151.594Z" transform="translate(-840.283 -128.346)" fill="#daf1f5"/>
        <path id="Trazado_127931" data-name="Trazado 127931" d="M863.988,151.795c0,1.1-.772,1.547-1.723,1a3.811,3.811,0,0,1-1.725-2.987c0-1.1.772-1.545,1.725-1A3.813,3.813,0,0,1,863.988,151.795Z" transform="translate(-835.154 -125.361)" fill="#fff"/>
        <path id="Trazado_127932" data-name="Trazado 127932" d="M868.292,154.28c0,1.1-.773,1.545-1.725,1a3.811,3.811,0,0,1-1.725-2.987c0-1.1.772-1.545,1.725-1A3.815,3.815,0,0,1,868.292,154.28Z" transform="translate(-833.374 -124.334)" fill="#45bbcc"/>
        <path id="Trazado_127933" data-name="Trazado 127933" d="M872.6,156.764c0,1.1-.772,1.547-1.725,1a3.811,3.811,0,0,1-1.725-2.987c0-1.1.772-1.545,1.725-1A3.809,3.809,0,0,1,872.6,156.764Z" transform="translate(-831.594 -123.306)" fill="#daf1f5"/>
        <path id="Trazado_127934" data-name="Trazado 127934" d="M876.9,159.249c0,1.1-.772,1.545-1.725,1a3.811,3.811,0,0,1-1.725-2.987c0-1.1.772-1.545,1.725-1A3.811,3.811,0,0,1,876.9,159.249Z" transform="translate(-829.814 -122.278)" fill="#45bbcc"/>
        <path id="Trazado_127935" data-name="Trazado 127935" d="M895.334,173.479l-3.544-2.047a2.3,2.3,0,0,1-.958-1.831v-3.749c0-.705.43-1.031.958-.725l3.544,2.047a2.292,2.292,0,0,1,.958,1.831v3.749C896.292,173.46,895.864,173.785,895.334,173.479Z" transform="translate(-822.624 -118.561)" fill="#45bbcc"/>
      </g>
      <g id="Grupo_85950" data-name="Grupo 85950" transform="translate(3.694 120.678)">
        <path id="Trazado_127936" data-name="Trazado 127936" d="M920.4,215.832l-74.791-43.18a7.261,7.261,0,0,1-3.031-5.792V152.6c0-2.232,1.357-3.258,3.031-2.292l74.791,43.18a7.258,7.258,0,0,1,3.032,5.792V213.54C923.436,215.772,922.079,216.8,920.4,215.832Z" transform="translate(-842.582 -149.944)" fill="#8fd6e0"/>
        <path id="Trazado_127937" data-name="Trazado 127937" d="M917.193,209.316l-70.5-40.7a3.681,3.681,0,0,1-1.538-2.938V154.954c0-1.132.688-1.653,1.538-1.162l70.5,40.7a3.685,3.685,0,0,1,1.538,2.938v10.723C918.731,209.287,918.041,209.807,917.193,209.316Z" transform="translate(-841.517 -148.428)" fill="#daf1f5" opacity="0.4"/>
        <path id="Trazado_127938" data-name="Trazado 127938" d="M860.152,169.384l-10.52-6.074a3.571,3.571,0,0,1-1.493-2.853h0c0-1.1.667-1.6,1.493-1.13l10.52,6.074a3.576,3.576,0,0,1,1.494,2.854h0C861.647,169.356,860.978,169.86,860.152,169.384Z" transform="translate(-840.283 -146.136)" fill="#daf1f5"/>
        <path id="Trazado_127939" data-name="Trazado 127939" d="M863.988,169.585c0,1.1-.772,1.547-1.723,1a3.811,3.811,0,0,1-1.725-2.987c0-1.1.772-1.545,1.725-1A3.813,3.813,0,0,1,863.988,169.585Z" transform="translate(-835.154 -143.151)" fill="#45bbcc"/>
        <path id="Trazado_127940" data-name="Trazado 127940" d="M868.292,172.07c0,1.1-.773,1.545-1.725,1a3.811,3.811,0,0,1-1.725-2.987c0-1.1.772-1.545,1.725-1A3.815,3.815,0,0,1,868.292,172.07Z" transform="translate(-833.374 -142.124)" fill="#45bbcc"/>
        <path id="Trazado_127941" data-name="Trazado 127941" d="M872.6,174.554c0,1.1-.772,1.545-1.725,1a3.811,3.811,0,0,1-1.725-2.987c0-1.1.772-1.545,1.725-1A3.809,3.809,0,0,1,872.6,174.554Z" transform="translate(-831.594 -141.096)" fill="#daf1f5"/>
        <path id="Trazado_127942" data-name="Trazado 127942" d="M876.9,177.039c0,1.1-.772,1.545-1.725,1a3.811,3.811,0,0,1-1.725-2.987c0-1.1.772-1.545,1.725-1A3.811,3.811,0,0,1,876.9,177.039Z" transform="translate(-829.814 -140.068)" fill="#45bbcc"/>
        <path id="Trazado_127943" data-name="Trazado 127943" d="M895.334,191.27l-3.544-2.047a2.3,2.3,0,0,1-.958-1.831v-3.749c0-.707.43-1.031.958-.725l3.544,2.046a2.3,2.3,0,0,1,.958,1.832v3.749C896.292,191.25,895.864,191.575,895.334,191.27Z" transform="translate(-822.624 -136.351)" fill="#daf1f5"/>
      </g>
      <g id="Grupo_85951" data-name="Grupo 85951" transform="translate(3.694 145.827)">
        <path id="Trazado_127944" data-name="Trazado 127944" d="M920.4,233.622l-74.791-43.18a7.261,7.261,0,0,1-3.031-5.792V170.389c0-2.232,1.357-3.258,3.031-2.292l74.791,43.18a7.258,7.258,0,0,1,3.032,5.792V231.33C923.436,233.562,922.079,234.589,920.4,233.622Z" transform="translate(-842.582 -167.734)" fill="#8fd6e0"/>
        <path id="Trazado_127945" data-name="Trazado 127945" d="M917.193,227.106l-70.5-40.7a3.681,3.681,0,0,1-1.538-2.938V172.744c0-1.132.688-1.653,1.538-1.162l70.5,40.7a3.685,3.685,0,0,1,1.538,2.938v10.723C918.731,227.076,918.041,227.6,917.193,227.106Z" transform="translate(-841.517 -166.218)" fill="#daf1f5" opacity="0.4"/>
        <path id="Trazado_127946" data-name="Trazado 127946" d="M860.152,187.174l-10.52-6.074a3.573,3.573,0,0,1-1.493-2.853h0c0-1.1.667-1.6,1.493-1.13l10.52,6.074a3.576,3.576,0,0,1,1.494,2.854h0C861.647,187.144,860.978,187.65,860.152,187.174Z" transform="translate(-840.283 -163.926)" fill="#daf1f5"/>
        <path id="Trazado_127947" data-name="Trazado 127947" d="M863.988,187.375c0,1.1-.772,1.547-1.723,1a3.811,3.811,0,0,1-1.725-2.987c0-1.1.772-1.545,1.725-1A3.811,3.811,0,0,1,863.988,187.375Z" transform="translate(-835.154 -160.941)" fill="#45bbcc"/>
        <path id="Trazado_127948" data-name="Trazado 127948" d="M868.292,189.86c0,1.1-.773,1.545-1.725,1a3.811,3.811,0,0,1-1.725-2.987c0-1.1.772-1.545,1.725-1A3.815,3.815,0,0,1,868.292,189.86Z" transform="translate(-833.374 -159.914)" fill="#fff"/>
        <path id="Trazado_127949" data-name="Trazado 127949" d="M872.6,192.344c0,1.1-.772,1.545-1.725,1a3.806,3.806,0,0,1-1.725-2.986c0-1.1.772-1.545,1.725-1A3.806,3.806,0,0,1,872.6,192.344Z" transform="translate(-831.594 -158.886)" fill="#daf1f5"/>
        <path id="Trazado_127950" data-name="Trazado 127950" d="M876.9,194.829c0,1.1-.772,1.545-1.725,1a3.811,3.811,0,0,1-1.725-2.987c0-1.1.772-1.545,1.725-1A3.811,3.811,0,0,1,876.9,194.829Z" transform="translate(-829.814 -157.858)" fill="#fff"/>
        <path id="Trazado_127951" data-name="Trazado 127951" d="M895.334,209.06l-3.544-2.047a2.3,2.3,0,0,1-.958-1.831v-3.749c0-.707.43-1.031.958-.725l3.544,2.046a2.3,2.3,0,0,1,.958,1.832v3.749C896.292,209.04,895.864,209.365,895.334,209.06Z" transform="translate(-822.624 -154.141)" fill="#daf1f5"/>
      </g>
      <g id="Grupo_85952" data-name="Grupo 85952" transform="translate(3.694 170.976)">
        <path id="Trazado_127952" data-name="Trazado 127952" d="M920.4,251.412l-74.791-43.18a7.261,7.261,0,0,1-3.031-5.792V188.178c0-2.231,1.357-3.257,3.031-2.29l74.791,43.18a7.258,7.258,0,0,1,3.032,5.792V249.12C923.436,251.352,922.079,252.379,920.4,251.412Z" transform="translate(-842.582 -185.524)" fill="#8fd6e0"/>
        <path id="Trazado_127953" data-name="Trazado 127953" d="M917.193,244.9l-70.5-40.7a3.681,3.681,0,0,1-1.538-2.938V190.534c0-1.132.688-1.653,1.538-1.162l70.5,40.7a3.685,3.685,0,0,1,1.538,2.938v10.723C918.731,244.867,918.041,245.387,917.193,244.9Z" transform="translate(-841.517 -184.008)" fill="#daf1f5" opacity="0.4"/>
        <path id="Trazado_127954" data-name="Trazado 127954" d="M860.152,204.964l-10.52-6.074a3.573,3.573,0,0,1-1.493-2.853h0c0-1.1.667-1.6,1.493-1.13l10.52,6.074a3.576,3.576,0,0,1,1.494,2.854h0C861.647,204.934,860.978,205.44,860.152,204.964Z" transform="translate(-840.283 -181.716)" fill="#daf1f5"/>
        <path id="Trazado_127955" data-name="Trazado 127955" d="M863.988,205.165c0,1.1-.772,1.545-1.723,1a3.811,3.811,0,0,1-1.725-2.987c0-1.1.772-1.545,1.725-1A3.811,3.811,0,0,1,863.988,205.165Z" transform="translate(-835.154 -178.731)" fill="#45bbcc"/>
        <path id="Trazado_127956" data-name="Trazado 127956" d="M868.292,207.65c0,1.1-.773,1.545-1.725,1a3.811,3.811,0,0,1-1.725-2.987c0-1.1.772-1.545,1.725-1A3.815,3.815,0,0,1,868.292,207.65Z" transform="translate(-833.374 -177.704)" fill="#45bbcc"/>
        <path id="Trazado_127957" data-name="Trazado 127957" d="M872.6,210.134c0,1.1-.772,1.545-1.725,1a3.808,3.808,0,0,1-1.725-2.986c0-1.1.772-1.545,1.725-1A3.811,3.811,0,0,1,872.6,210.134Z" transform="translate(-831.594 -176.676)" fill="#daf1f5"/>
        <path id="Trazado_127958" data-name="Trazado 127958" d="M876.9,212.619c0,1.1-.772,1.545-1.725,1a3.811,3.811,0,0,1-1.725-2.987c0-1.1.772-1.545,1.725-1A3.811,3.811,0,0,1,876.9,212.619Z" transform="translate(-829.814 -175.648)" fill="#45bbcc"/>
        <path id="Trazado_127959" data-name="Trazado 127959" d="M895.334,226.848l-3.544-2.046a2.3,2.3,0,0,1-.958-1.831v-3.749c0-.707.43-1.031.958-.725l3.544,2.046a2.3,2.3,0,0,1,.958,1.832v3.749C896.292,226.83,895.864,227.155,895.334,226.848Z" transform="translate(-822.624 -171.931)" fill="#45bbcc"/>
      </g>
      <g id="Grupo_85953" data-name="Grupo 85953" transform="translate(3.694 196.124)">
        <path id="Trazado_127960" data-name="Trazado 127960" d="M920.4,269.2l-74.791-43.18a7.261,7.261,0,0,1-3.031-5.792V205.968c0-2.231,1.357-3.257,3.031-2.292L920.4,246.858a7.258,7.258,0,0,1,3.032,5.792V266.91C923.436,269.143,922.079,270.169,920.4,269.2Z" transform="translate(-842.582 -203.313)" fill="#8fd6e0"/>
        <path id="Trazado_127961" data-name="Trazado 127961" d="M917.193,262.686l-70.5-40.7a3.681,3.681,0,0,1-1.538-2.938V208.324c0-1.132.688-1.653,1.538-1.162l70.5,40.7a3.685,3.685,0,0,1,1.538,2.938v10.723C918.731,262.657,918.041,263.177,917.193,262.686Z" transform="translate(-841.517 -201.797)" fill="#daf1f5" opacity="0.4"/>
        <path id="Trazado_127962" data-name="Trazado 127962" d="M860.152,222.754l-10.52-6.074a3.573,3.573,0,0,1-1.493-2.853h0c0-1.1.667-1.606,1.493-1.13l10.52,6.074a3.576,3.576,0,0,1,1.494,2.853h0C861.647,222.725,860.978,223.231,860.152,222.754Z" transform="translate(-840.283 -199.505)" fill="#daf1f5"/>
        <path id="Trazado_127963" data-name="Trazado 127963" d="M863.988,222.955c0,1.1-.772,1.545-1.723,1a3.809,3.809,0,0,1-1.725-2.986c0-1.1.772-1.545,1.725-1A3.809,3.809,0,0,1,863.988,222.955Z" transform="translate(-835.154 -196.521)" fill="#fff"/>
        <path id="Trazado_127964" data-name="Trazado 127964" d="M868.292,225.44c0,1.1-.773,1.545-1.725,1a3.811,3.811,0,0,1-1.725-2.987c0-1.1.772-1.545,1.725-1A3.815,3.815,0,0,1,868.292,225.44Z" transform="translate(-833.374 -195.493)" fill="#45bbcc"/>
        <path id="Trazado_127965" data-name="Trazado 127965" d="M872.6,227.924c0,1.1-.772,1.545-1.725,1a3.81,3.81,0,0,1-1.725-2.986c0-1.1.772-1.547,1.725-1A3.811,3.811,0,0,1,872.6,227.924Z" transform="translate(-831.594 -194.466)" fill="#daf1f5"/>
        <path id="Trazado_127966" data-name="Trazado 127966" d="M876.9,230.409c0,1.1-.772,1.545-1.725,1a3.811,3.811,0,0,1-1.725-2.987c0-1.1.772-1.545,1.725-1A3.811,3.811,0,0,1,876.9,230.409Z" transform="translate(-829.814 -193.438)" fill="#45bbcc"/>
        <path id="Trazado_127967" data-name="Trazado 127967" d="M895.334,244.638l-3.544-2.046a2.3,2.3,0,0,1-.958-1.831v-3.75c0-.705.43-1.029.958-.724l3.544,2.046a2.293,2.293,0,0,1,.958,1.832v3.749C896.292,244.62,895.864,244.945,895.334,244.638Z" transform="translate(-822.624 -189.721)" fill="#daf1f5"/>
      </g>
    </g>
    <g id="Grupo_85958" data-name="Grupo 85958" transform="translate(936.735 57.59)">
      <path id="Trazado_127968" data-name="Trazado 127968" d="M882.574,102.141a1.129,1.129,0,0,1-1.128-1.13V54.52a1.129,1.129,0,1,1,2.258,0v46.492A1.129,1.129,0,0,1,882.574,102.141Z" transform="translate(-876.03 -27.303)" fill="#8fd6e0"/>
      <g id="Grupo_85957" data-name="Grupo 85957">
        <g id="Grupo_85955" data-name="Grupo 85955" transform="translate(2.506 24.293)">
          <rect id="Rectángulo_36660" data-name="Rectángulo 36660" width="8.077" height="17.43" transform="translate(0)" fill="#8fd6e0"/>
          <path id="Trazado_127969" data-name="Trazado 127969" d="M886.281,66.782a6.313,6.313,0,0,1-5.711,0c-1.578-.91-1.578-2.388,0-3.3a6.313,6.313,0,0,1,5.711,0C887.859,64.4,887.859,65.871,886.281,66.782Z" transform="translate(-879.387 -47.703)" fill="#8fd6e0"/>
        </g>
        <g id="Grupo_85956" data-name="Grupo 85956">
          <rect id="Rectángulo_36661" data-name="Rectángulo 36661" width="13.089" height="27.338" fill="#8fd6e0"/>
          <path id="Trazado_127970" data-name="Trazado 127970" d="M879.387,54.387v5.9a10.449,10.449,0,0,0,8.078,0v-5.9A10.449,10.449,0,0,0,879.387,54.387Z" transform="translate(-876.881 -27.227)" fill="#6ac9d6"/>
          <path id="Trazado_127971" data-name="Trazado 127971" d="M888.786,58.053a10.224,10.224,0,0,1-9.254,0c-2.556-1.476-2.556-3.868,0-5.344a10.227,10.227,0,0,1,9.255,0C891.342,54.185,891.342,56.577,888.786,58.053Z" transform="translate(-877.615 -28.043)" fill="#8fd6e0"/>
        </g>
      </g>
    </g>
    <g id="Grupo_85962" data-name="Grupo 85962" transform="translate(947.773 64.181)">
      <path id="Trazado_127972" data-name="Trazado 127972" d="M890.383,106.8a1.13,1.13,0,0,1-1.13-1.13V59.181a1.13,1.13,0,0,1,2.259,0v46.492A1.13,1.13,0,0,1,890.383,106.8Z" transform="translate(-883.838 -31.966)" fill="#8fd6e0"/>
      <g id="Grupo_85961" data-name="Grupo 85961">
        <g id="Grupo_85959" data-name="Grupo 85959" transform="translate(2.505 24.293)">
          <rect id="Rectángulo_36662" data-name="Rectángulo 36662" width="8.077" height="17.43" transform="translate(0)" fill="#8fd6e0"/>
          <path id="Trazado_127973" data-name="Trazado 127973" d="M894.089,71.443a6.3,6.3,0,0,1-5.711,0c-1.578-.91-1.578-2.386,0-3.3a6.313,6.313,0,0,1,5.711,0C895.667,69.057,895.667,70.533,894.089,71.443Z" transform="translate(-887.195 -52.365)" fill="#8fd6e0"/>
        </g>
        <g id="Grupo_85960" data-name="Grupo 85960">
          <rect id="Rectángulo_36663" data-name="Rectángulo 36663" width="13.089" height="27.338" fill="#8fd6e0"/>
          <path id="Trazado_127974" data-name="Trazado 127974" d="M887.2,59.05v5.9a10.449,10.449,0,0,0,8.078,0v-5.9A10.449,10.449,0,0,0,887.2,59.05Z" transform="translate(-884.69 -31.889)" fill="#6ac9d6"/>
          <path id="Trazado_127975" data-name="Trazado 127975" d="M896.6,62.714a10.227,10.227,0,0,1-9.255,0c-2.556-1.476-2.556-3.868,0-5.344a10.232,10.232,0,0,1,9.254,0C899.15,58.846,899.15,61.24,896.6,62.714Z" transform="translate(-885.423 -32.705)" fill="#8fd6e0"/>
        </g>
      </g>
    </g>
    <g id="Grupo_85966" data-name="Grupo 85966" transform="translate(958.811 70.772)">
      <path id="Trazado_127976" data-name="Trazado 127976" d="M898.192,111.466a1.128,1.128,0,0,1-1.129-1.13V63.844a1.129,1.129,0,0,1,2.258,0v46.492A1.128,1.128,0,0,1,898.192,111.466Z" transform="translate(-891.646 -36.628)" fill="#8fd6e0"/>
      <g id="Grupo_85965" data-name="Grupo 85965">
        <g id="Grupo_85963" data-name="Grupo 85963" transform="translate(2.505 24.293)">
          <rect id="Rectángulo_36664" data-name="Rectángulo 36664" width="8.077" height="17.43" transform="translate(0)" fill="#8fd6e0"/>
          <path id="Trazado_127977" data-name="Trazado 127977" d="M901.9,76.107a6.312,6.312,0,0,1-5.711,0c-1.578-.91-1.578-2.388,0-3.3a6.312,6.312,0,0,1,5.711,0C903.475,73.719,903.475,75.2,901.9,76.107Z" transform="translate(-895.003 -57.028)" fill="#8fd6e0"/>
        </g>
        <g id="Grupo_85964" data-name="Grupo 85964">
          <rect id="Rectángulo_36665" data-name="Rectángulo 36665" width="13.089" height="27.338" fill="#8fd6e0"/>
          <path id="Trazado_127978" data-name="Trazado 127978" d="M895,63.712v5.9a10.449,10.449,0,0,0,8.078,0v-5.9A10.449,10.449,0,0,0,895,63.712Z" transform="translate(-892.498 -36.552)" fill="#6ac9d6"/>
          <path id="Trazado_127979" data-name="Trazado 127979" d="M904.4,67.378a10.231,10.231,0,0,1-9.255,0c-2.556-1.476-2.556-3.868,0-5.344a10.227,10.227,0,0,1,9.255,0C906.958,63.51,906.959,65.9,904.4,67.378Z" transform="translate(-893.231 -37.368)" fill="#8fd6e0"/>
        </g>
      </g>
    </g>
    <g id="Grupo_85970" data-name="Grupo 85970" transform="translate(969.849 77.363)">
      <path id="Trazado_127980" data-name="Trazado 127980" d="M906,116.128a1.129,1.129,0,0,1-1.13-1.13V68.508a1.129,1.129,0,1,1,2.259,0V115A1.128,1.128,0,0,1,906,116.128Z" transform="translate(-899.455 -41.29)" fill="#8fd6e0"/>
      <g id="Grupo_85969" data-name="Grupo 85969">
        <g id="Grupo_85967" data-name="Grupo 85967" transform="translate(2.505 24.293)">
          <rect id="Rectángulo_36666" data-name="Rectángulo 36666" width="8.077" height="17.43" transform="translate(0.001)" fill="#8fd6e0"/>
          <path id="Trazado_127981" data-name="Trazado 127981" d="M909.705,80.768a6.313,6.313,0,0,1-5.711,0c-1.578-.91-1.578-2.386,0-3.3a6.313,6.313,0,0,1,5.711,0C911.283,78.382,911.283,79.858,909.705,80.768Z" transform="translate(-902.811 -61.69)" fill="#8fd6e0"/>
        </g>
        <g id="Grupo_85968" data-name="Grupo 85968">
          <rect id="Rectángulo_36667" data-name="Rectángulo 36667" width="13.089" height="27.338" fill="#8fd6e0"/>
          <path id="Trazado_127982" data-name="Trazado 127982" d="M902.811,68.373v5.9a10.449,10.449,0,0,0,8.078,0v-5.9A10.461,10.461,0,0,0,902.811,68.373Z" transform="translate(-900.306 -41.214)" fill="#6ac9d6"/>
          <path id="Trazado_127983" data-name="Trazado 127983" d="M912.211,72.039a10.227,10.227,0,0,1-9.255,0c-2.556-1.476-2.556-3.868,0-5.344a10.231,10.231,0,0,1,9.255,0C914.767,68.172,914.767,70.564,912.211,72.039Z" transform="translate(-901.039 -42.03)" fill="#8fd6e0"/>
        </g>
      </g>
    </g>
    <g id="Grupo_85977" data-name="Grupo 85977" transform="translate(893.103 -19.828)">
      <g id="Grupo_85973" data-name="Grupo 85973">
        <path id="Trazado_127984" data-name="Trazado 127984" d="M943,93.408l17.55-10.336L943.834,62.213l-4.394,7.179Z" transform="translate(-808.408 53.764)" fill="#8fd6e0"/>
        <path id="Trazado_127985" data-name="Trazado 127985" d="M851.817,8.009,879.826-8.1s-1.053,16.082-1.053,16.114-16.09,4.985-16.09,4.985Z" transform="translate(-844.654 24.677)" fill="#8fd6e0"/>
        <path id="Trazado_127986" data-name="Trazado 127986" d="M978.033,74.889a17.669,17.669,0,0,0-6.06-2.245c-2.825-14.842-13.151-30.6-25.464-37.712a24.926,24.926,0,0,0-10.422-3.526C934.406,13.418,921.9-7.026,906.71-15.8c-7.933-4.58-15.132-5.122-20.444-2.317v-.014l-.257.148c-.136.075-.271.153-.4.232L869.09-7.992l5.488,4.336c-4.927,2.152-8.039,7.678-8.039,15.844,0,15.061,10.573,33.375,23.617,40.906l87.878,62.751c9.794,5.655,17.734,1.072,17.734-10.238S987.827,80.544,978.033,74.889Z" transform="translate(-838.565 19.828)" fill="#8fd6e0"/>
        <path id="Trazado_127987" data-name="Trazado 127987" d="M867.115,5.557l37.906-22.148c-7.358-3.838-14.008-4.155-18.994-1.521v-.014l-.257.148c-.136.075-.271.153-.4.232L868.851-7.992l5.488,4.336C870.9-2.152,868.342,1.006,867.115,5.557Z" transform="translate(-838.326 19.828)" fill="#8fd6e0"/>
        <path id="Trazado_127988" data-name="Trazado 127988" d="M925.08,55.115l27.658-16.232c-4.744-8.2-11.277-15.372-18.508-19.548q-1.435-.829-2.833-1.457L896.219,38.452Z" transform="translate(-826.287 35.425)" fill="#8fd6e0"/>
        <path id="Trazado_127989" data-name="Trazado 127989" d="M873.856-6.39,886.182.727l22.573-13.3a44.909,44.909,0,0,0-5.072-3.437,31.669,31.669,0,0,0-7.888-3.314Z" transform="translate(-835.537 20.038)" fill="#daf1f5"/>
        <path id="Trazado_127990" data-name="Trazado 127990" d="M940.5,29.359,918.426,42.367,926.1,50.93,946.144,39.1A64.332,64.332,0,0,0,940.5,29.359Z" transform="translate(-817.101 40.174)" fill="#daf1f5"/>
        <path id="Trazado_127991" data-name="Trazado 127991" d="M968.879,82.118a17.646,17.646,0,0,0-6.06-2.246c-2.824-14.842-13.151-30.6-25.464-37.711a24.929,24.929,0,0,0-10.42-3.527C925.252,20.645,912.745.2,897.556-8.568,881.222-18,867.98-10.353,867.98,8.507c0,.64.018,1.285.048,1.934-11.945-5.54-21.278.7-21.278,14.85,0,15.061,10.574,33.375,23.618,40.906l98.511,56.874c9.794,5.656,17.734,1.072,17.734-10.238S978.672,87.773,968.879,82.118Z" transform="translate(-846.75 22.814)" fill="#daf1f5"/>
        <g id="Grupo_85971" data-name="Grupo 85971" transform="translate(5.403 8.803)">
          <path id="Trazado_127992" data-name="Trazado 127992" d="M866.447,4.688c-.03-.649-.048-1.295-.048-1.934,0-.027,0-.054,0-.081-6.6-2.566-12.269-1.449-15.829,2.669C854.438,2.16,860.06,1.725,866.447,4.688Z" transform="translate(-850.572 19.765)" fill="#fff"/>
          <path id="Trazado_127993" data-name="Trazado 127993" d="M962.193,81.122a17.659,17.659,0,0,0-6.06-2.245c-2.825-14.842-13.151-30.6-25.464-37.712a24.94,24.94,0,0,0-10.42-3.526c-1.682-17.989-14.189-38.433-29.377-47.2-10.177-5.875-19.152-5.12-24.473.843,5.421-4.633,13.721-4.811,23.03.564,15.19,8.769,27.7,29.212,29.377,47.2a24.945,24.945,0,0,1,10.421,3.526c12.313,7.111,22.64,22.87,25.464,37.712a17.637,17.637,0,0,1,6.06,2.246c9.794,5.655,17.734,19.407,17.734,30.716,0,4.081-1.046,7.27-2.829,9.435,2.656-2.047,4.271-5.756,4.271-10.84C979.927,100.53,971.987,86.777,962.193,81.122Z" transform="translate(-844.026 13.601)" fill="#fff"/>
        </g>
        <g id="Grupo_85972" data-name="Grupo 85972" transform="translate(4.952 15.147)">
          <path id="Trazado_127994" data-name="Trazado 127994" d="M864.5,13.487l7.406,3.434-.378-8.153c-.027-.573-.042-1.142-.042-1.706,0-7.279,2.2-12.555,6.186-14.859s9.661-1.566,15.963,2.071c13.555,7.827,25.382,26.879,26.923,43.375l.389,4.156,4.162.319A20.034,20.034,0,0,1,933.43,45C944.2,51.219,953.9,65.665,956.5,79.351l.652,3.427,3.445.54a12.782,12.782,0,0,1,4.353,1.643c8.27,4.775,15.258,16.878,15.258,26.428,0,3.574-.991,6.2-2.719,7.194s-4.492.544-7.588-1.243l-98.51-56.876c-11.461-6.616-21.141-23.385-21.141-36.618,0-5.192,1.531-9.148,4.2-10.854a7.188,7.188,0,0,1,3.926-1.05A14.8,14.8,0,0,1,864.5,13.487Z" transform="translate(-850.253 9.113)" fill="#6ac9d6"/>
        </g>
      </g>
      <g id="Grupo_85976" data-name="Grupo 85976" transform="translate(46.875 63.014)">
        <path id="Trazado_127995" data-name="Trazado 127995" d="M895.107,51.5l2.6-1.3-2.558-1.938Z" transform="translate(-873.622 -15.024)" fill="#8fd6e0"/>
        <path id="Trazado_127996" data-name="Trazado 127996" d="M889.586,26.09l2.522-1.276.046,1.32Z" transform="translate(-875.906 -24.72)" fill="#8fd6e0"/>
        <path id="Trazado_127997" data-name="Trazado 127997" d="M901.064,46.541l2.633-1.324-5.067-4.82Z" transform="translate(-872.165 -18.274)" fill="#8fd6e0"/>
        <g id="Grupo_85974" data-name="Grupo 85974" transform="translate(2.639)">
          <path id="Trazado_127998" data-name="Trazado 127998" d="M900.337,56.46l-12.3-7.245a2.628,2.628,0,0,1-1.127-2.07l.041-14.244,14.565,8.578-.041,14.244C901.471,56.5,900.962,56.829,900.337,56.46Z" transform="translate(-879.653 -21.375)" fill="#8fd6e0"/>
          <path id="Trazado_127999" data-name="Trazado 127999" d="M895.313,24.857l-13.288,8.551c-.564.362-.109,1.715.748,2.219l13.571,7.993,13.571,7.993c.857.5,1.319-.307.759-1.333l-13.2-24.148C896.908,25.089,895.887,24.488,895.313,24.857Z" transform="translate(-881.776 -24.748)" fill="#8fd6e0"/>
        </g>
        <g id="Grupo_85975" data-name="Grupo 85975" transform="translate(0 1.329)">
          <path id="Trazado_128000" data-name="Trazado 128000" d="M898.471,57.4l-12.3-7.246a2.618,2.618,0,0,1-1.127-2.068l.039-14.244,14.565,8.578-.04,14.244C899.6,57.438,899.1,57.767,898.471,57.4Z" transform="translate(-877.786 -22.315)" fill="#daf1f5"/>
          <path id="Trazado_128001" data-name="Trazado 128001" d="M893.446,25.8l-13.288,8.55c-.564.363-.108,1.716.749,2.221l13.571,7.993,13.571,7.993c.857.5,1.318-.308.758-1.333L895.612,27.072C895.042,26.029,894.02,25.428,893.446,25.8Z" transform="translate(-879.909 -25.688)" fill="#daf1f5"/>
        </g>
      </g>
    </g>
    <path id="Trazado_128002" data-name="Trazado 128002" d="M926.418,267.6H924.91V183.391l9.944-5.742V136.2h1.508v42.321l-9.944,5.742Z" transform="translate(78.685 64.541)" fill="#fff"/>
    <g id="Grupo_85978" data-name="Grupo 85978" transform="translate(734.692 288.169)">
      <path id="Trazado_128003" data-name="Trazado 128003" d="M766.055,260.208a5.175,5.175,0,0,1-2.549-.674l-27.476-15.559a2.638,2.638,0,0,1-.023-4.579l68.538-39.646a12.775,12.775,0,0,1,12.748,0l78.338,45.277-1.131,1.958-78.338-45.277a10.515,10.515,0,0,0-10.487,0l-68.537,39.645a.378.378,0,0,0,0,.657l27.479,15.559a2.892,2.892,0,0,0,3.011-.088l11.612-7.508,1.226,1.9-11.61,7.508A5.158,5.158,0,0,1,766.055,260.208Z" transform="translate(-734.692 -198.045)" fill="#fff"/>
    </g>
    <g id="Grupo_85989" data-name="Grupo 85989" transform="translate(752.629 216.292)">
      <path id="Trazado_128004" data-name="Trazado 128004" d="M793.443,260.4l-36.936-21.325c-2.268-1.309-1.983-3.595.635-5.106l35.665-20.593c2.618-1.511,6.578-1.675,8.845-.366l36.936,21.325c2.268,1.309,1.983,3.6-.635,5.108L802.288,260.03C799.67,261.542,795.711,261.706,793.443,260.4Z" transform="translate(-744.239 -120.345)" fill="#b5e4eb"/>
      <g id="Grupo_85980" data-name="Grupo 85980" transform="translate(0 51.008)">
        <path id="Trazado_128005" data-name="Trazado 128005" d="M853.981,223.432h0V207.473l-35.785-.02-12.37-7.142c-2.839-1.638-7.8-1.433-11.076.459l-11.54,6.663-35.818-.02v16.414a3.213,3.213,0,0,0,1.9,2.967l46.253,26.7c2.839,1.638,7.8,1.433,11.075-.459l44.662-25.785C853.176,226.163,854.087,224.75,853.981,223.432Z" transform="translate(-747.378 -176.696)" fill="#6ac9d6"/>
        <path id="Trazado_128006" data-name="Trazado 128006" d="M800.688,199.212a12.773,12.773,0,0,0-5.937,1.556l-11.54,6.663-35.818-.02v16.414a3.213,3.213,0,0,0,1.9,2.967l46.253,26.7a10.015,10.015,0,0,0,5.14,1.1Z" transform="translate(-747.378 -176.693)" fill="#6ac9d6"/>
        <path id="Trazado_128007" data-name="Trazado 128007" d="M751.447,205.015l-4.054,0v16.414a3.213,3.213,0,0,0,1.9,2.967l2.153,1.241Z" transform="translate(-747.378 -174.294)" fill="#8fd6e0"/>
        <path id="Trazado_128008" data-name="Trazado 128008" d="M781.959,243.342a12.623,12.623,0,0,0,8.854-.1V224.6h-8.854Z" transform="translate(-733.077 -166.19)" fill="#8fd6e0"/>
        <path id="Trazado_128009" data-name="Trazado 128009" d="M795.55,243.731l-46.253-26.7c-2.839-1.638-2.482-4.5.8-6.394l44.66-25.785c3.278-1.893,8.237-2.1,11.076-.459l46.253,26.7c2.839,1.64,2.482,4.5-.8,6.394l-44.662,25.785C803.348,245.165,798.389,245.371,795.55,243.731Z" transform="translate(-747.381 -183.282)" fill="#daf1f5"/>
        <path id="Trazado_128010" data-name="Trazado 128010" d="M793.856,237.466l-38.761-22.378c-2.378-1.373-2.08-3.773.667-5.358l37.427-21.609c2.747-1.586,6.9-1.757,9.281-.385l38.761,22.378c2.378,1.374,2.079,3.773-.667,5.359l-37.427,21.608C800.39,238.667,796.235,238.84,793.856,237.466Z" transform="translate(-744.854 -181.824)" fill="#8fd6e0"/>
        <g id="Grupo_85979" data-name="Grupo 85979" transform="translate(85.853 42.674)">
          <path id="Trazado_128011" data-name="Trazado 128011" d="M811.848,219.713a4.131,4.131,0,0,1-1.867,3.236c-1.032.6-1.869.112-1.869-1.079a4.128,4.128,0,0,1,1.869-3.236C811.013,218.038,811.848,218.522,811.848,219.713Z" transform="translate(-808.112 -211.439)" fill="#daf1f5"/>
          <path id="Trazado_128012" data-name="Trazado 128012" d="M816.1,217.258a4.129,4.129,0,0,1-1.867,3.236c-1.032.6-1.869.113-1.869-1.079a4.128,4.128,0,0,1,1.869-3.236C815.265,215.584,816.1,216.067,816.1,217.258Z" transform="translate(-806.353 -212.454)" fill="#daf1f5"/>
          <path id="Trazado_128013" data-name="Trazado 128013" d="M820.352,214.8a4.127,4.127,0,0,1-1.867,3.236c-1.032.6-1.869.113-1.869-1.079a4.13,4.13,0,0,1,1.869-3.236C819.517,213.129,820.352,213.612,820.352,214.8Z" transform="translate(-804.594 -213.47)" fill="#daf1f5"/>
        </g>
      </g>
      <g id="Grupo_85982" data-name="Grupo 85982" transform="translate(0 25.504)">
        <path id="Trazado_128014" data-name="Trazado 128014" d="M853.981,205.391h0V189.432l-35.785-.02-12.37-7.142c-2.839-1.638-7.8-1.433-11.076.459l-11.54,6.663-35.818-.02v16.414a3.213,3.213,0,0,0,1.9,2.967l46.253,26.7c2.839,1.638,7.8,1.433,11.075-.459l44.662-25.785C853.176,208.122,854.087,206.709,853.981,205.391Z" transform="translate(-747.378 -158.655)" fill="#6ac9d6"/>
        <path id="Trazado_128015" data-name="Trazado 128015" d="M800.688,181.171a12.773,12.773,0,0,0-5.937,1.556l-11.54,6.663-35.818-.02v16.414a3.213,3.213,0,0,0,1.9,2.967l46.253,26.7a10.014,10.014,0,0,0,5.14,1.1Z" transform="translate(-747.378 -158.652)" fill="#6ac9d6"/>
        <path id="Trazado_128016" data-name="Trazado 128016" d="M751.447,186.974l-4.054,0v16.414a3.213,3.213,0,0,0,1.9,2.967l2.153,1.241Z" transform="translate(-747.378 -156.253)" fill="#8fd6e0"/>
        <path id="Trazado_128017" data-name="Trazado 128017" d="M781.959,225.3a12.623,12.623,0,0,0,8.854-.1V206.563h-8.854Z" transform="translate(-733.077 -148.149)" fill="#8fd6e0"/>
        <path id="Trazado_128018" data-name="Trazado 128018" d="M795.55,225.69l-46.253-26.7c-2.839-1.638-2.482-4.5.8-6.394l44.66-25.785c3.278-1.893,8.237-2.1,11.076-.459l46.253,26.7c2.839,1.64,2.482,4.5-.8,6.4l-44.662,25.785C803.348,227.124,798.389,227.33,795.55,225.69Z" transform="translate(-747.381 -165.241)" fill="#daf1f5"/>
        <path id="Trazado_128019" data-name="Trazado 128019" d="M793.856,219.425l-38.761-22.378c-2.378-1.373-2.08-3.772.667-5.358l37.427-21.609c2.747-1.585,6.9-1.757,9.281-.385l38.761,22.378c2.378,1.374,2.079,3.773-.667,5.359L803.136,219.04C800.39,220.626,796.235,220.8,793.856,219.425Z" transform="translate(-744.854 -163.782)" fill="#8fd6e0"/>
        <g id="Grupo_85981" data-name="Grupo 85981" transform="translate(85.853 42.674)">
          <path id="Trazado_128020" data-name="Trazado 128020" d="M811.848,201.672a4.131,4.131,0,0,1-1.867,3.236c-1.032.6-1.869.112-1.869-1.079a4.128,4.128,0,0,1,1.869-3.236C811.013,200,811.848,200.481,811.848,201.672Z" transform="translate(-808.112 -193.398)" fill="#daf1f5"/>
          <path id="Trazado_128021" data-name="Trazado 128021" d="M816.1,199.217a4.129,4.129,0,0,1-1.867,3.236c-1.032.6-1.869.113-1.869-1.079a4.128,4.128,0,0,1,1.869-3.236C815.265,197.543,816.1,198.026,816.1,199.217Z" transform="translate(-806.353 -194.413)" fill="#daf1f5"/>
          <path id="Trazado_128022" data-name="Trazado 128022" d="M820.352,196.762A4.127,4.127,0,0,1,818.485,200c-1.032.6-1.869.113-1.869-1.079a4.13,4.13,0,0,1,1.869-3.236C819.517,195.088,820.352,195.571,820.352,196.762Z" transform="translate(-804.594 -195.429)" fill="#daf1f5"/>
        </g>
      </g>
      <g id="Grupo_85985" data-name="Grupo 85985">
        <path id="Trazado_128023" data-name="Trazado 128023" d="M853.981,187.351h0v-15.96l-35.785-.02-12.37-7.142c-2.839-1.638-7.8-1.433-11.076.459l-11.54,6.663-35.818-.02v16.414a3.213,3.213,0,0,0,1.9,2.967l46.253,26.7c2.839,1.638,7.8,1.433,11.075-.459l44.662-25.785C853.176,190.081,854.087,188.668,853.981,187.351Z" transform="translate(-747.378 -140.614)" fill="#6ac9d6"/>
        <path id="Trazado_128024" data-name="Trazado 128024" d="M800.688,163.13a12.773,12.773,0,0,0-5.937,1.556l-11.54,6.663-35.818-.02v16.414a3.213,3.213,0,0,0,1.9,2.967l46.253,26.7a10.029,10.029,0,0,0,5.14,1.1Z" transform="translate(-747.378 -140.611)" fill="#6ac9d6"/>
        <path id="Trazado_128025" data-name="Trazado 128025" d="M751.447,168.933l-4.054,0v16.414a3.213,3.213,0,0,0,1.9,2.967l2.153,1.241Z" transform="translate(-747.378 -138.212)" fill="#8fd6e0"/>
        <path id="Trazado_128026" data-name="Trazado 128026" d="M781.959,207.26a12.623,12.623,0,0,0,8.854-.1V188.522h-8.854Z" transform="translate(-733.077 -130.108)" fill="#8fd6e0"/>
        <path id="Trazado_128027" data-name="Trazado 128027" d="M795.55,207.649l-46.253-26.7c-2.839-1.638-2.482-4.5.8-6.394l44.66-25.785c3.278-1.893,8.237-2.1,11.076-.459l46.253,26.7c2.839,1.64,2.482,4.5-.8,6.4l-44.662,25.785C803.348,209.083,798.389,209.289,795.55,207.649Z" transform="translate(-747.381 -147.2)" fill="#daf1f5"/>
        <path id="Trazado_128028" data-name="Trazado 128028" d="M851.286,169.76l-44.662,25.785c-3.277,1.893-8.236,2.1-11.075.459L749.3,169.3a4.283,4.283,0,0,1-1.417-1.257c-.974,1.571-.533,3.273,1.417,4.4l46.253,26.7c2.839,1.64,7.8,1.433,11.075-.459L851.286,172.9c2.547-1.472,3.321-3.526,2.212-5.139A6.193,6.193,0,0,1,851.286,169.76Z" transform="translate(-747.38 -138.695)" fill="#fff"/>
        <g id="Grupo_85983" data-name="Grupo 85983" transform="translate(85.853 42.674)">
          <path id="Trazado_128029" data-name="Trazado 128029" d="M811.848,183.631a4.129,4.129,0,0,1-1.867,3.236c-1.032.6-1.869.112-1.869-1.079a4.128,4.128,0,0,1,1.869-3.236C811.013,181.956,811.848,182.44,811.848,183.631Z" transform="translate(-808.112 -175.357)" fill="#daf1f5"/>
          <path id="Trazado_128030" data-name="Trazado 128030" d="M816.1,181.176a4.129,4.129,0,0,1-1.867,3.236c-1.032.6-1.869.113-1.869-1.079a4.128,4.128,0,0,1,1.869-3.236C815.265,179.5,816.1,179.984,816.1,181.176Z" transform="translate(-806.353 -176.372)" fill="#daf1f5"/>
          <path id="Trazado_128031" data-name="Trazado 128031" d="M820.352,178.721a4.127,4.127,0,0,1-1.867,3.236c-1.032.6-1.869.113-1.869-1.079a4.13,4.13,0,0,1,1.869-3.236C819.517,177.047,820.352,177.53,820.352,178.721Z" transform="translate(-804.594 -177.388)" fill="#daf1f5"/>
        </g>
        <g id="Grupo_85984" data-name="Grupo 85984" transform="translate(28.363 15.606)">
          <path id="Trazado_128032" data-name="Trazado 128032" d="M789.986,186.527l-21.645-12.5c-1.329-.766-1.162-2.106.372-2.993l20.9-12.066a5.764,5.764,0,0,1,5.182-.215l21.645,12.5c1.329.766,1.162,2.106-.372,2.991l-20.9,12.067A5.764,5.764,0,0,1,789.986,186.527Z" transform="translate(-767.444 -158.24)" fill="#8fd6e0"/>
          <path id="Trazado_128033" data-name="Trazado 128033" d="M785.769,171.993l-3-1.729c-.184-.106-.16-.291.052-.414l2.891-1.668a.791.791,0,0,1,.717-.03l3,1.729c.184.106.16.291-.052.413l-2.891,1.67A.8.8,0,0,1,785.769,171.993Z" transform="translate(-761.155 -154.17)" fill="#daf1f5"/>
          <path id="Trazado_128034" data-name="Trazado 128034" d="M768.341,174.031l.061.035a3.762,3.762,0,0,1,.311-.214l20.9-12.067a5.764,5.764,0,0,1,5.182-.215l21.584,12.461c1.224-.876,1.288-2.07.061-2.778l-21.645-12.5a5.764,5.764,0,0,0-5.182.215l-20.9,12.066C767.18,171.924,767.013,173.264,768.341,174.031Z" transform="translate(-767.444 -158.24)" fill="#6ac9d6"/>
        </g>
      </g>
      <g id="Grupo_85986" data-name="Grupo 85986" transform="translate(38.774 60.527)">
        <path id="Trazado_128035" data-name="Trazado 128035" d="M780.082,193.947c0,.8-.563,1.127-1.257.727a2.78,2.78,0,0,1-1.257-2.178c0-.8.563-1.127,1.257-.725A2.779,2.779,0,0,1,780.082,193.947Z" transform="translate(-773.668 -189.362)" fill="#daf1f5"/>
        <path id="Trazado_128036" data-name="Trazado 128036" d="M777.324,192.365c0,.8-.564,1.127-1.258.725a2.777,2.777,0,0,1-1.257-2.177c0-.8.563-1.127,1.257-.725A2.778,2.778,0,0,1,777.324,192.365Z" transform="translate(-774.809 -190.016)" fill="#daf1f5"/>
        <path id="Trazado_128037" data-name="Trazado 128037" d="M780.082,197.278c0,.8-.563,1.127-1.257.725a2.777,2.777,0,0,1-1.257-2.177c0-.8.563-1.127,1.257-.727A2.782,2.782,0,0,1,780.082,197.278Z" transform="translate(-773.668 -187.985)" fill="#daf1f5"/>
        <path id="Trazado_128038" data-name="Trazado 128038" d="M777.324,195.694c0,.8-.564,1.127-1.258.727a2.779,2.779,0,0,1-1.257-2.177c0-.8.563-1.127,1.257-.727A2.781,2.781,0,0,1,777.324,195.694Z" transform="translate(-774.809 -188.639)" fill="#daf1f5"/>
      </g>
      <g id="Grupo_85987" data-name="Grupo 85987" transform="translate(38.774 85.904)">
        <path id="Trazado_128039" data-name="Trazado 128039" d="M780.082,211.9c0,.8-.563,1.127-1.257.725a2.777,2.777,0,0,1-1.257-2.177c0-.8.563-1.127,1.257-.727A2.782,2.782,0,0,1,780.082,211.9Z" transform="translate(-773.668 -207.313)" fill="#daf1f5"/>
        <path id="Trazado_128040" data-name="Trazado 128040" d="M777.324,210.316c0,.8-.564,1.127-1.258.727a2.779,2.779,0,0,1-1.257-2.177c0-.8.563-1.127,1.257-.727A2.781,2.781,0,0,1,777.324,210.316Z" transform="translate(-774.809 -207.968)" fill="#daf1f5"/>
        <path id="Trazado_128041" data-name="Trazado 128041" d="M780.082,215.228c0,.8-.563,1.127-1.257.727a2.782,2.782,0,0,1-1.257-2.178c0-.8.563-1.127,1.257-.725A2.777,2.777,0,0,1,780.082,215.228Z" transform="translate(-773.668 -205.936)" fill="#daf1f5"/>
        <path id="Trazado_128042" data-name="Trazado 128042" d="M777.324,213.647c0,.8-.564,1.127-1.258.725a2.777,2.777,0,0,1-1.257-2.177c0-.8.563-1.127,1.257-.727A2.783,2.783,0,0,1,777.324,213.647Z" transform="translate(-774.809 -206.591)" fill="#daf1f5"/>
      </g>
      <g id="Grupo_85988" data-name="Grupo 85988" transform="translate(38.774 111.281)">
        <path id="Trazado_128043" data-name="Trazado 128043" d="M780.082,229.85c0,.8-.563,1.127-1.257.727a2.782,2.782,0,0,1-1.257-2.178c0-.8.563-1.127,1.257-.725A2.777,2.777,0,0,1,780.082,229.85Z" transform="translate(-773.668 -225.264)" fill="#daf1f5"/>
        <path id="Trazado_128044" data-name="Trazado 128044" d="M777.324,228.269c0,.8-.564,1.127-1.258.725a2.777,2.777,0,0,1-1.257-2.177c0-.8.563-1.127,1.257-.727A2.783,2.783,0,0,1,777.324,228.269Z" transform="translate(-774.809 -225.919)" fill="#daf1f5"/>
        <path id="Trazado_128045" data-name="Trazado 128045" d="M780.082,233.18c0,.8-.563,1.127-1.257.725a2.78,2.78,0,0,1-1.257-2.177c0-.8.563-1.127,1.257-.727A2.78,2.78,0,0,1,780.082,233.18Z" transform="translate(-773.668 -223.887)" fill="#daf1f5"/>
        <path id="Trazado_128046" data-name="Trazado 128046" d="M777.324,231.6c0,.8-.564,1.127-1.258.727a2.782,2.782,0,0,1-1.257-2.178c0-.8.563-1.127,1.257-.725A2.779,2.779,0,0,1,777.324,231.6Z" transform="translate(-774.809 -224.542)" fill="#daf1f5"/>
      </g>
    </g>
    <path id="Trazado_128047" data-name="Trazado 128047" d="M793.826,268.466A7.616,7.616,0,0,1,790,267.44l-23.307-13.526a2.54,2.54,0,0,1,0-4.394l15.328-8.889,1.135,1.954-15.328,8.891a.279.279,0,0,0,0,.483l23.308,13.527a5.387,5.387,0,0,0,5.344.02l45.651-26.014a7.656,7.656,0,0,1,7.6.031l38.239,22.087a5.368,5.368,0,0,0,5.382.008l18.438-10.663,1.132,1.958-18.438,10.663a7.634,7.634,0,0,1-7.646-.011L848.6,241.48a5.385,5.385,0,0,0-5.352-.024L797.6,267.47A7.612,7.612,0,0,1,793.826,268.466Z" transform="translate(12.714 106.857)" fill="#fff"/>
    <g id="Grupo_85997" data-name="Grupo 85997" transform="translate(959.806 321.326)">
      <path id="Trazado_128048" data-name="Trazado 128048" d="M940,334.7,903.061,313.37c-2.268-1.309-1.983-3.595.635-5.106l35.665-20.591c2.618-1.511,6.578-1.675,8.845-.367l36.936,21.326c2.267,1.309,1.983,3.595-.635,5.106l-35.665,20.591C946.224,335.84,942.264,336,940,334.7Z" transform="translate(-890.793 -194.644)" fill="#b5e4eb"/>
      <g id="Grupo_85991" data-name="Grupo 85991" transform="translate(0 51.008)">
        <path id="Trazado_128049" data-name="Trazado 128049" d="M1000.535,297.732h0v-15.96l-35.785-.02-12.37-7.14c-2.839-1.64-7.8-1.433-11.076.458l-11.54,6.663-35.818-.02v16.414a3.213,3.213,0,0,0,1.9,2.967L942.1,327.8c2.839,1.638,7.8,1.433,11.075-.46l44.661-25.785C999.729,300.462,1000.641,299.048,1000.535,297.732Z" transform="translate(-893.932 -250.995)" fill="#6ac9d6"/>
        <path id="Trazado_128050" data-name="Trazado 128050" d="M947.242,273.511a12.774,12.774,0,0,0-5.937,1.556l-11.54,6.663-35.818-.02v16.414a3.213,3.213,0,0,0,1.9,2.967L942.1,327.8a10.029,10.029,0,0,0,5.14,1.1Z" transform="translate(-893.932 -250.992)" fill="#6ac9d6"/>
        <path id="Trazado_128051" data-name="Trazado 128051" d="M898,279.314l-4.054,0v16.414a3.213,3.213,0,0,0,1.9,2.967L898,299.935Z" transform="translate(-893.932 -248.593)" fill="#8fd6e0"/>
        <path id="Trazado_128052" data-name="Trazado 128052" d="M928.513,317.641a12.615,12.615,0,0,0,8.854-.1V298.9h-8.854Z" transform="translate(-879.631 -240.489)" fill="#8fd6e0"/>
        <path id="Trazado_128053" data-name="Trazado 128053" d="M942.1,318.03l-46.253-26.7c-2.839-1.638-2.482-4.5.8-6.394l44.66-25.785c3.278-1.893,8.237-2.1,11.076-.459l46.253,26.705c2.839,1.638,2.482,4.5-.8,6.394l-44.661,25.785C949.9,319.464,944.943,319.67,942.1,318.03Z" transform="translate(-893.935 -257.581)" fill="#daf1f5"/>
        <path id="Trazado_128054" data-name="Trazado 128054" d="M940.41,311.765l-38.761-22.378c-2.378-1.373-2.079-3.772.667-5.358l37.426-21.608c2.747-1.586,6.9-1.759,9.281-.386l38.761,22.38c2.378,1.373,2.079,3.772-.667,5.358L949.69,311.38C946.944,312.966,942.789,313.139,940.41,311.765Z" transform="translate(-891.408 -256.122)" fill="#8fd6e0"/>
        <g id="Grupo_85990" data-name="Grupo 85990" transform="translate(85.853 42.674)">
          <path id="Trazado_128055" data-name="Trazado 128055" d="M958.4,294.012a4.129,4.129,0,0,1-1.868,3.236c-1.032.6-1.869.113-1.869-1.079a4.128,4.128,0,0,1,1.869-3.236C957.567,292.338,958.4,292.821,958.4,294.012Z" transform="translate(-954.666 -285.738)" fill="#daf1f5"/>
          <path id="Trazado_128056" data-name="Trazado 128056" d="M962.654,291.557a4.127,4.127,0,0,1-1.867,3.236c-1.032.6-1.869.113-1.869-1.079a4.13,4.13,0,0,1,1.869-3.236C961.819,289.883,962.654,290.366,962.654,291.557Z" transform="translate(-952.907 -286.753)" fill="#daf1f5"/>
          <path id="Trazado_128057" data-name="Trazado 128057" d="M966.906,289.1a4.127,4.127,0,0,1-1.867,3.236c-1.032.6-1.869.113-1.869-1.079a4.13,4.13,0,0,1,1.869-3.236C966.071,287.428,966.906,287.912,966.906,289.1Z" transform="translate(-951.148 -287.769)" fill="#daf1f5"/>
        </g>
      </g>
      <g id="Grupo_85993" data-name="Grupo 85993" transform="translate(0 25.504)">
        <path id="Trazado_128058" data-name="Trazado 128058" d="M1000.535,279.691h0v-15.96l-35.785-.02-12.37-7.14c-2.839-1.64-7.8-1.433-11.076.458l-11.54,6.664-35.818-.021v16.414a3.213,3.213,0,0,0,1.9,2.967l46.254,26.7c2.839,1.638,7.8,1.433,11.075-.459l44.661-25.785C999.729,282.421,1000.641,281.007,1000.535,279.691Z" transform="translate(-893.932 -232.954)" fill="#6ac9d6"/>
        <path id="Trazado_128059" data-name="Trazado 128059" d="M947.242,255.47a12.791,12.791,0,0,0-5.937,1.556l-11.54,6.664-35.818-.021v16.414a3.213,3.213,0,0,0,1.9,2.967l46.254,26.7a10.029,10.029,0,0,0,5.14,1.1Z" transform="translate(-893.932 -232.951)" fill="#6ac9d6"/>
        <path id="Trazado_128060" data-name="Trazado 128060" d="M898,261.273l-4.054,0v16.414a3.213,3.213,0,0,0,1.9,2.967L898,281.894Z" transform="translate(-893.932 -230.552)" fill="#8fd6e0"/>
        <path id="Trazado_128061" data-name="Trazado 128061" d="M928.513,299.6a12.616,12.616,0,0,0,8.854-.1V280.863h-8.854Z" transform="translate(-879.631 -222.447)" fill="#8fd6e0"/>
        <path id="Trazado_128062" data-name="Trazado 128062" d="M942.1,299.989l-46.253-26.7c-2.839-1.638-2.482-4.5.8-6.394l44.66-25.785c3.278-1.893,8.237-2.1,11.076-.459l46.253,26.705c2.839,1.638,2.482,4.5-.8,6.394l-44.661,25.785C949.9,301.423,944.943,301.629,942.1,299.989Z" transform="translate(-893.935 -239.54)" fill="#daf1f5"/>
        <path id="Trazado_128063" data-name="Trazado 128063" d="M940.41,293.724l-38.761-22.378c-2.378-1.373-2.079-3.772.667-5.358l37.426-21.608c2.747-1.586,6.9-1.759,9.281-.386l38.761,22.38c2.378,1.373,2.079,3.772-.667,5.358L949.69,293.339C946.944,294.925,942.789,295.1,940.41,293.724Z" transform="translate(-891.408 -238.081)" fill="#8fd6e0"/>
        <g id="Grupo_85992" data-name="Grupo 85992" transform="translate(85.853 42.674)">
          <path id="Trazado_128064" data-name="Trazado 128064" d="M958.4,275.971a4.129,4.129,0,0,1-1.868,3.236c-1.032.6-1.869.113-1.869-1.079a4.128,4.128,0,0,1,1.869-3.236C957.567,274.3,958.4,274.78,958.4,275.971Z" transform="translate(-954.666 -267.697)" fill="#daf1f5"/>
          <path id="Trazado_128065" data-name="Trazado 128065" d="M962.654,273.516a4.127,4.127,0,0,1-1.867,3.236c-1.032.6-1.869.113-1.869-1.079a4.13,4.13,0,0,1,1.869-3.236C961.819,271.842,962.654,272.325,962.654,273.516Z" transform="translate(-952.907 -268.712)" fill="#daf1f5"/>
          <path id="Trazado_128066" data-name="Trazado 128066" d="M966.906,271.061a4.127,4.127,0,0,1-1.867,3.236c-1.032.6-1.869.113-1.869-1.079a4.133,4.133,0,0,1,1.869-3.236C966.071,269.387,966.906,269.871,966.906,271.061Z" transform="translate(-951.148 -269.728)" fill="#daf1f5"/>
        </g>
      </g>
      <g id="Grupo_85996" data-name="Grupo 85996" transform="translate(0 0)">
        <path id="Trazado_128067" data-name="Trazado 128067" d="M1000.535,261.65h0V245.69l-35.785-.02-12.37-7.14c-2.839-1.64-7.8-1.433-11.076.458l-11.54,6.664-35.818-.021v16.414a3.211,3.211,0,0,0,1.9,2.967l46.254,26.7c2.839,1.638,7.8,1.433,11.075-.46l44.661-25.785C999.729,264.38,1000.641,262.966,1000.535,261.65Z" transform="translate(-893.932 -214.913)" fill="#6ac9d6"/>
        <path id="Trazado_128068" data-name="Trazado 128068" d="M947.242,237.429a12.79,12.79,0,0,0-5.937,1.556l-11.54,6.664-35.818-.021v16.414a3.211,3.211,0,0,0,1.9,2.967l46.254,26.7a10.028,10.028,0,0,0,5.14,1.1Z" transform="translate(-893.932 -214.91)" fill="#6ac9d6"/>
        <path id="Trazado_128069" data-name="Trazado 128069" d="M898,243.232l-4.054,0v16.414a3.211,3.211,0,0,0,1.9,2.967L898,263.853Z" transform="translate(-893.932 -212.511)" fill="#8fd6e0"/>
        <path id="Trazado_128070" data-name="Trazado 128070" d="M928.513,281.559a12.615,12.615,0,0,0,8.854-.1V262.822h-8.854Z" transform="translate(-879.631 -204.406)" fill="#8fd6e0"/>
        <path id="Trazado_128071" data-name="Trazado 128071" d="M942.1,281.95l-46.253-26.705c-2.839-1.638-2.482-4.5.8-6.394l44.66-25.785c3.278-1.893,8.237-2.1,11.076-.459l46.253,26.705c2.839,1.638,2.482,4.5-.8,6.394L953.179,281.49C949.9,283.382,944.943,283.588,942.1,281.95Z" transform="translate(-893.935 -221.499)" fill="#daf1f5"/>
        <path id="Trazado_128072" data-name="Trazado 128072" d="M997.84,244.058l-44.661,25.785c-3.277,1.893-8.236,2.1-11.075.46L895.85,243.6a4.312,4.312,0,0,1-1.416-1.257c-.974,1.569-.533,3.271,1.416,4.4L942.1,273.444c2.839,1.638,7.8,1.432,11.075-.459L997.84,247.2c2.547-1.47,3.321-3.526,2.211-5.137A6.186,6.186,0,0,1,997.84,244.058Z" transform="translate(-893.934 -212.994)" fill="#fff"/>
        <g id="Grupo_85994" data-name="Grupo 85994" transform="translate(85.853 42.674)">
          <path id="Trazado_128073" data-name="Trazado 128073" d="M958.4,257.93a4.127,4.127,0,0,1-1.868,3.236c-1.032.6-1.869.113-1.869-1.079a4.128,4.128,0,0,1,1.869-3.236C957.567,256.256,958.4,256.738,958.4,257.93Z" transform="translate(-954.666 -249.656)" fill="#daf1f5"/>
          <path id="Trazado_128074" data-name="Trazado 128074" d="M962.654,255.475a4.127,4.127,0,0,1-1.867,3.236c-1.032.6-1.869.113-1.869-1.079a4.13,4.13,0,0,1,1.869-3.236C961.819,253.8,962.654,254.284,962.654,255.475Z" transform="translate(-952.907 -250.671)" fill="#daf1f5"/>
          <path id="Trazado_128075" data-name="Trazado 128075" d="M966.906,253.02a4.127,4.127,0,0,1-1.867,3.236c-1.032.6-1.869.113-1.869-1.079a4.133,4.133,0,0,1,1.869-3.236C966.071,251.346,966.906,251.83,966.906,253.02Z" transform="translate(-951.148 -251.687)" fill="#daf1f5"/>
        </g>
        <g id="Grupo_85995" data-name="Grupo 85995" transform="translate(28.363 15.606)">
          <path id="Trazado_128076" data-name="Trazado 128076" d="M936.54,260.826l-21.644-12.5c-1.329-.766-1.162-2.106.372-2.991l20.9-12.067a5.764,5.764,0,0,1,5.182-.215l21.645,12.5c1.329.766,1.162,2.106-.372,2.993l-20.9,12.066A5.765,5.765,0,0,1,936.54,260.826Z" transform="translate(-913.998 -232.539)" fill="#8fd6e0"/>
          <path id="Trazado_128077" data-name="Trazado 128077" d="M932.323,246.293l-3-1.729c-.184-.107-.16-.293.052-.414l2.891-1.67a.8.8,0,0,1,.717-.03l3,1.729c.184.106.16.291-.052.414l-2.891,1.669A.8.8,0,0,1,932.323,246.293Z" transform="translate(-907.709 -228.469)" fill="#daf1f5"/>
          <path id="Trazado_128078" data-name="Trazado 128078" d="M914.9,248.329l.061.035c.1-.072.2-.146.311-.213l20.9-12.066a5.756,5.756,0,0,1,5.182-.215l21.584,12.46c1.224-.876,1.288-2.07.061-2.778l-21.645-12.5a5.764,5.764,0,0,0-5.182.215l-20.9,12.067C913.734,246.223,913.567,247.563,914.9,248.329Z" transform="translate(-913.998 -232.539)" fill="#6ac9d6"/>
        </g>
      </g>
    </g>
    <path id="Trazado_128079" data-name="Trazado 128079" d="M882.1,63c0,.8-.563,1.127-1.258.727a2.78,2.78,0,0,1-1.257-2.178c0-.8.563-1.127,1.257-.725A2.777,2.777,0,0,1,882.1,63Z" transform="translate(59.937 33.29)" fill="#daf1f5"/>
    <path id="Trazado_128080" data-name="Trazado 128080" d="M889.936,67.75c0,.8-.563,1.127-1.257.727a2.781,2.781,0,0,1-1.258-2.178c0-.8.564-1.127,1.258-.725A2.779,2.779,0,0,1,889.936,67.75Z" transform="translate(63.177 35.255)" fill="#daf1f5"/>
    <path id="Trazado_128081" data-name="Trazado 128081" d="M897.768,72.5c0,.8-.563,1.127-1.257.727a2.78,2.78,0,0,1-1.257-2.178c0-.8.563-1.127,1.257-.725A2.779,2.779,0,0,1,897.768,72.5Z" transform="translate(66.418 37.22)" fill="#daf1f5"/>
    <path id="Trazado_128082" data-name="Trazado 128082" d="M905.6,77.25c0,.8-.563,1.127-1.258.727a2.78,2.78,0,0,1-1.257-2.178c0-.8.563-1.127,1.257-.725A2.777,2.777,0,0,1,905.6,77.25Z" transform="translate(69.658 39.185)" fill="#daf1f5"/>
  </g>
</svg>
