<svg xmlns="http://www.w3.org/2000/svg" width="76.521" height="76.479" viewBox="0 0 76.521 76.479">
  <g id="Grupo_85803" data-name="Grupo 85803" transform="translate(-1209.957 -318.98)">
    <path id="Trazado_127096" data-name="Trazado 127096" d="M1238.035,380.174c-.065,1.271-.065,1.271-1.382,1.271q-10.558,0-21.116,0c-3.49,0-5.575-2.1-5.577-5.607,0-1.036-.009-2.071,0-3.107a1.3,1.3,0,0,1,1.456-1.48c.956-.013,1.914-.038,2.868.01.594.03.795-.1.791-.757-.032-4.966-.017-9.932-.017-14.9q0-9.2,0-18.4a6.339,6.339,0,0,1,5.94-6.716c.423-.051.441-.218.438-.543q-.016-2.191,0-4.382a6.363,6.363,0,0,1,6.584-6.574q20.2-.011,40.4,0a6.36,6.36,0,0,1,6.561,6.518c.01,1.461.017,2.921-.008,4.382-.007.425.089.556.547.6a6.326,6.326,0,0,1,5.831,6.418c.019,6.135,0,12.269.018,18.4,0,.514-.121.724-.648.645a3.473,3.473,0,0,0-.635.018c-1.279-.063-1.279-.063-1.279-1.392q0-8.792,0-17.584a3.7,3.7,0,0,0-2.541-3.719c-1.28-.483-1.281-.482-1.281.795v12.853c0,1.335,0,1.335-1.271,1.4-1.278-.065-1.276-.065-1.279-1.333q-.014-7.474-.031-14.948c.01-2.07.027-4.14.03-6.21,0-2.767-1.522-4.3-4.267-4.3h-39.9c-2.745,0-4.278,1.538-4.278,4.292q0,20.783,0,41.566c0,1.267,0,1.267-1.278,1.332-1.272-.065-1.272-.065-1.272-1.323q0-16.809.013-33.617c0-.68-.142-.873-.837-.693a3.866,3.866,0,0,0-3,3.979q0,14.18,0,28.359c0,1.513.016,3.026.025,4.539a3.469,3.469,0,0,1-.028.395c-.131.731.174.934.894.9,1.4-.065,2.8-.034,4.2-.042q5.049.013,10.1.025c1.347,0,1.347,0,1.4,1.289-.049,1.261-.049,1.261-1.31,1.261q-9.163,0-18.326,0c-.659,0-1.546-.221-1.916.114-.435.394-.129,1.3-.134,1.977-.017,2.048.959,3.005,3.024,3.006h21.115C1237.969,378.9,1237.969,378.9,1238.035,380.174Z" fill="#000101"/>
    <path id="Trazado_127097" data-name="Trazado 127097" d="M1335.148,437.168c2.258,2.279,4.524,4.55,6.772,6.839a4.881,4.881,0,1,1-6.877,6.924q-3.775-3.713-7.48-7.5a.974.974,0,0,0-1.444-.212,21.6,21.6,0,0,1-27.747-5.451c-.162-.208-.338-.406-.508-.608-.407-.647-.823-1.288-1.22-1.941a27,27,0,0,1-2.379-5.755,38.661,38.661,0,0,1-.552-4.74c.075-.9.065-1.8.161-2.7a21.764,21.764,0,0,1,15.661-18.484,26.744,26.744,0,0,1,7.163-.839l2.063.212c1.071.275,2.156.5,3.21.833a22.579,22.579,0,0,1,8.719,5.238l2.555,3.038a31.947,31.947,0,0,1,2.289,4.321,26.668,26.668,0,0,1,1.528,6.19q.01,1.895.02,3.79a22.169,22.169,0,0,1-2.5,8.17c-.773,1.509-.79,1.5.492,2.645A.218.218,0,0,0,1335.148,437.168ZM1296.3,424.432a19.123,19.123,0,1,0,19.141-19.139A19.14,19.14,0,0,0,1296.3,424.432Zm44.625,23.183a2.359,2.359,0,0,0-.682-1.669c-2.511-2.518-5.033-5.025-7.536-7.552-.339-.342-.521-.285-.8.056a14,14,0,0,1-2.359,2.359c-.522.4-.412.633-.008,1.026,1.521,1.481,3.01,3,4.512,4.5.977.975,1.938,1.966,2.938,2.917a2.18,2.18,0,0,0,2.573.433A2.286,2.286,0,0,0,1340.92,447.615Z" transform="translate(-57.011 -56.99)" fill="#030302"/>
    <path id="Trazado_127098" data-name="Trazado 127098" d="M1242.5,486.516a27.016,27.016,0,0,0,2.379,5.755c.4.652.813,1.294,1.22,1.941h-2.818c-.066-1.278-.066-1.278-1.379-1.278h-21.115c-2.065,0-3.041-.957-3.024-3.006.005-.68-.3-1.583.134-1.977.37-.335,1.257-.113,1.916-.114q9.163-.006,18.326,0c1.261,0,1.261,0,1.31-1.261Z" transform="translate(-5.244 -114.038)" fill="#ab9df1"/>
    <path id="Trazado_127099" data-name="Trazado 127099" d="M1421.333,396.028a26.669,26.669,0,0,0-1.528-6.19,31.931,31.931,0,0,0-2.289-4.321c.007-.37.02-.741.02-1.111q.005-10.323.007-20.645a3.7,3.7,0,0,1,2.541,3.719q.009,8.792,0,17.584c0,1.329,0,1.329,1.279,1.392Q1421.349,391.243,1421.333,396.028Z" transform="translate(-141.281 -30.481)" fill="#b5e4eb"/>
    <path id="Trazado_127100" data-name="Trazado 127100" d="M1421.124,487.519a.218.218,0,0,1-.074-.027c-1.281-1.144-1.265-1.136-.492-2.645a22.172,22.172,0,0,0,2.5-8.17c.013.658.024,1.316.038,1.973.028,1.339-.234,1.209,1.219,1.207a4.677,4.677,0,0,1,.02.714c-.053.446.105.577.561.583.616.008,1.45-.319,1.794.153.317.436.149,1.227.189,1.862a5.62,5.62,0,0,1,.007.636,2.3,2.3,0,0,1-1.711,2.24c-.84.16-.9.587-.837,1.234a1.189,1.189,0,0,1-.023.237Z" transform="translate(-142.988 -107.341)" fill="#ab9df1"/>
    <path id="Trazado_127101" data-name="Trazado 127101" d="M1433.469,491.586a1.171,1.171,0,0,0,.023-.237c-.068-.647,0-1.073.837-1.234a2.3,2.3,0,0,0,1.711-2.24,5.678,5.678,0,0,0-.007-.636c-.04-.635.128-1.426-.189-1.862-.344-.472-1.178-.145-1.794-.153-.456-.006-.614-.136-.561-.583a4.693,4.693,0,0,0-.02-.714c.064-1.271.064-1.271,1.377-1.271.742,0,1.484,0,2.227,0a1.158,1.158,0,0,1,1.3,1.038,21.628,21.628,0,0,1,.135,4.913,4.965,4.965,0,0,1-4.065,4.143c-.938.194-.937.194-.948-.772C1433.492,491.85,1433.478,491.718,1433.469,491.586Z" transform="translate(-152.14 -111.411)" fill="#030302"/>
    <path id="Trazado_127102" data-name="Trazado 127102" d="M1286.865,351.157a26.743,26.743,0,0,0-7.163.839,21.764,21.764,0,0,0-15.66,18.484c-.1.9-.087,1.8-.162,2.7a7.816,7.816,0,0,0-1.919,1.736,1.651,1.651,0,0,1-1.258.508c-3.6-.017-7.2-.006-10.8,0l-.023-1.256c1.278-.065,1.278-.065,1.278-1.332q0-20.784,0-41.566c0-2.754,1.533-4.292,4.278-4.292h39.9c2.745,0,4.27,1.536,4.267,4.3,0,2.07-.02,4.14-.03,6.21a.708.708,0,0,0-.469.263q-2.009,2.011-4.021,4.021a.71.71,0,0,0-.263.468.328.328,0,0,0-.346.347c-.53.125-.749.629-1.135.93-.468.364-.737.965-1.362,1.142a10.544,10.544,0,0,0-.244-1.081,3.844,3.844,0,0,0-3.4-2.577,3.707,3.707,0,0,0-3.673,2.278,9.647,9.647,0,0,0-.072,5.464.7.7,0,0,0,.342.51c0,.33.292.475.437.712C1285.73,350.547,1286.525,350.565,1286.865,351.157Zm-11.56-13.985h20.239c1.515,0,1.521,0,1.512-1.553-.007-1.142.146-.993-1.033-.993q-20.319-.005-40.638,0c-1.679,0-1.633,0-1.694,1.712-.027.749.236.854.9.851C1261.494,337.162,1268.4,337.171,1275.306,337.171Zm-13.944,9.048c0-.538.006-.962,0-1.387a3.823,3.823,0,1,0-7.646-.025c-.014.875-.016,1.751,0,2.626a3.819,3.819,0,0,0,7.5.965A9.105,9.105,0,0,0,1261.361,346.22Zm15.3-.055c0-.5,0-.9,0-1.3a3.824,3.824,0,1,0-7.647-.015c-.011.876-.018,1.751,0,2.627a3.821,3.821,0,0,0,7.471,1.031A8.521,8.521,0,0,0,1276.66,346.165Zm-15.3,22.977c0-.536.007-.961,0-1.386a3.823,3.823,0,1,0-7.646.018c-.012.876-.017,1.751,0,2.627a3.82,3.82,0,0,0,7.485,1A8.757,8.757,0,0,0,1261.361,369.142Zm-6.374-11.566v2.071c0,1.76,0,1.735,1.8,1.758.58.007.78-.125.763-.741-.045-1.672-.016-3.346-.016-5.019,0-1.973,0-1.951-1.961-1.918-.53.009-.606.215-.6.662C1255,355.451,1254.987,356.514,1254.987,357.576Zm11.474-11.482v-1.912c0-1.977,0-1.955-1.952-1.926-.518.008-.612.192-.606.652.022,1.7.009,3.4.009,5.1,0,2.032,0,2.017,2.032,1.924.438-.02.53-.179.523-.57C1266.448,348.272,1266.461,347.183,1266.461,346.094Zm15.3,0v-1.912c0-1.978,0-1.957-1.949-1.929-.514.007-.616.184-.609.648.023,1.7.009,3.4.009,5.1,0,2.032,0,2.017,2.029,1.926.434-.019.534-.172.527-.566C1281.747,348.275,1281.759,347.186,1281.76,346.1Zm-19.124,11.517v-1.992c0-1.965,0-1.948-1.985-1.892-.465.013-.578.167-.573.6.02,1.726.008,3.452.008,5.178,0,1.965,0,1.965,1.985,1.879a.51.51,0,0,1,.079,0c.394.049.5-.146.491-.51C1262.625,359.792,1262.635,358.7,1262.636,357.614Zm-1.275-26.816c-.022-1.466.176-1.26-.978-1.271-1.571-.015-1.571,0-1.571.994,0,1.551,0,1.551,1.1,1.552C1261.361,332.072,1261.361,332.072,1261.361,330.8Zm-6.348,1.274c1.248,0,1.248,0,1.249-1,0-1.545,0-1.545-1.024-1.545-1.525,0-1.525,0-1.525,1.044C1253.711,332.072,1253.711,332.072,1255.013,332.072Zm8.9-1.266c.022,1.46-.176,1.251.987,1.263,1.563.015,1.563,0,1.563-1,0-1.543,0-1.543-1.1-1.543C1263.911,329.523,1263.911,329.523,1263.911,330.806Z" transform="translate(-27.177 -5.441)" fill="#d5cef8"/>
    <path id="Trazado_127103" data-name="Trazado 127103" d="M1239.019,398.667l.023,1.256-.042-.015-5.051,0c-.009-1.513-.024-3.026-.025-4.539q0-14.18,0-28.359a3.866,3.866,0,0,1,3-3.979c.7-.18.839.013.837.693q-.027,16.808-.013,33.617C1237.747,398.6,1237.747,398.6,1239.019,398.667Z" transform="translate(-16.312 -29.944)" fill="#b5e4eb"/>
    <path id="Trazado_127104" data-name="Trazado 127104" d="M1375.208,367.068c.625-.177.894-.778,1.362-1.142.386-.3.605-.805,1.135-.93.01,1.8.026,3.6.03,5.4.005,2.037,0,2.024,2.012,1.94.412-.017.549-.134.546-.549q-.024-3.259,0-6.518c0-.435-.108-.623-.575-.6-.554.028-1.111-.012-1.667-.023a.709.709,0,0,1,.263-.468q2.012-2.009,4.021-4.021a.708.708,0,0,1,.469-.263q.016,7.474.031,14.948c0,1.268,0,1.268,1.279,1.333q-.015,1.835-.03,3.671a22.579,22.579,0,0,0-8.719-5.238c-1.054-.329-2.139-.558-3.21-.833.049-.44.456-.366.717-.484a3.073,3.073,0,0,0,1.692-1.635,1.594,1.594,0,0,0,.48-.966A23.276,23.276,0,0,0,1375.208,367.068Z" transform="translate(-110.405 -27.851)" fill="#826be9"/>
    <path id="Trazado_127105" data-name="Trazado 127105" d="M1409.514,381.845q.015-1.835.03-3.671c1.271-.065,1.271-.065,1.271-1.4V363.921c0-1.277,0-1.278,1.281-.795q0,10.323-.007,20.645c0,.37-.013.74-.02,1.111Z" transform="translate(-135.834 -29.847)" fill="#6ac9d6"/>
    <path id="Trazado_127106" data-name="Trazado 127106" d="M1249.866,473.914c3.6,0,7.2-.013,10.8,0a1.651,1.651,0,0,0,1.258-.508,7.818,7.818,0,0,1,1.919-1.736,38.661,38.661,0,0,0,.552,4.74l-3.051.057c-.051-1.288-.051-1.286-1.4-1.289q-5.05-.011-10.1-.025-.009-.629-.019-1.258Z" transform="translate(-27.136 -103.934)" fill="#826be9"/>
    <path id="Trazado_127107" data-name="Trazado 127107" d="M1238.934,478.642q.009.629.018,1.258c-1.4.009-2.8-.023-4.2.042-.72.033-1.025-.17-.894-.9a3.555,3.555,0,0,0,.028-.395Z" transform="translate(-16.246 -108.678)" fill="#6ac9d6"/>
    <path id="Trazado_127108" data-name="Trazado 127108" d="M1301.8,429.945a19.123,19.123,0,1,1,19.02,19.1A19.132,19.132,0,0,1,1301.8,429.945Zm19.146-16.589a16.564,16.564,0,1,0,16.525,16.891A16.584,16.584,0,0,0,1320.944,413.355Z" transform="translate(-62.514 -62.503)" fill="#2ff980"/>
    <path id="Trazado_127109" data-name="Trazado 127109" d="M1416.549,523.2a2.286,2.286,0,0,1-1.36,2.065,2.179,2.179,0,0,1-2.573-.433c-1-.95-1.961-1.942-2.938-2.917-1.5-1.5-2.991-3.014-4.512-4.5-.4-.393-.514-.629.008-1.026a14,14,0,0,0,2.359-2.359c.277-.342.459-.4.8-.056,2.5,2.527,5.024,5.034,7.536,7.552A2.36,2.36,0,0,1,1416.549,523.2Z" transform="translate(-132.64 -132.573)" fill="#2ff980"/>
    <path id="Trazado_127110" data-name="Trazado 127110" d="M1366.055,394.39a3.073,3.073,0,0,1-1.692,1.636c-.261.118-.669.044-.717.484l-2.062-.212c-.34-.591-1.135-.609-1.493-1.193-.145-.237-.438-.382-.437-.712l1.9-1.1a2.1,2.1,0,0,0,2.6,0Z" transform="translate(-101.895 -50.582)" fill="#826be9"/>
    <path id="Trazado_127111" data-name="Trazado 127111" d="M1283.417,353.467c-6.906,0-13.811-.009-20.717.014-.661,0-.924-.1-.9-.851.061-1.71.015-1.712,1.694-1.712q20.319,0,40.638,0c1.179,0,1.026-.149,1.033.993.01,1.553,0,1.553-1.512,1.553Z" transform="translate(-35.288 -21.736)"/>
    <path id="Trazado_127112" data-name="Trazado 127112" d="M1269.5,376.111a9.105,9.105,0,0,1-.146,2.179,3.819,3.819,0,0,1-7.5-.965c-.018-.875-.015-1.751,0-2.626a3.823,3.823,0,1,1,7.646.025C1269.508,375.149,1269.5,375.573,1269.5,376.111Zm-2.556-.135h0c0-.423.021-.847,0-1.268a1.262,1.262,0,0,0-1.257-1.267,1.243,1.243,0,0,0-1.274,1.247c-.033.87-.034,1.745,0,2.615a1.263,1.263,0,0,0,2.524.021C1266.973,376.876,1266.947,376.425,1266.947,375.976Z" transform="translate(-35.318 -35.332)" fill="#010101"/>
    <path id="Trazado_127113" data-name="Trazado 127113" d="M1317.413,376.057a8.521,8.521,0,0,1-.174,2.345,3.821,3.821,0,0,1-7.47-1.031c-.022-.875-.014-1.751,0-2.627a3.824,3.824,0,1,1,7.647.015C1317.418,375.157,1317.413,375.555,1317.413,376.057Zm-2.552-.069c0-.423.02-.846,0-1.268a1.264,1.264,0,0,0-1.246-1.279,1.243,1.243,0,0,0-1.285,1.235c-.034.87-.034,1.744,0,2.615a1.243,1.243,0,0,0,1.28,1.24,1.264,1.264,0,0,0,1.251-1.275C1314.88,376.834,1314.861,376.41,1314.861,375.988Z" transform="translate(-67.93 -35.332)" fill="#010101"/>
    <path id="Trazado_127114" data-name="Trazado 127114" d="M1269.5,447.944a8.756,8.756,0,0,1-.159,2.259,3.82,3.82,0,0,1-7.485-1c-.019-.875-.015-1.751,0-2.627a3.823,3.823,0,1,1,7.646-.018C1269.509,446.983,1269.5,447.407,1269.5,447.944Zm-2.559-.084a11.756,11.756,0,0,0-.011-1.425,1.261,1.261,0,0,0-2.509,0c-.049.922-.045,1.85,0,2.773a1.227,1.227,0,0,0,1.258,1.177,1.249,1.249,0,0,0,1.26-1.18C1266.976,448.76,1266.945,448.309,1266.943,447.859Z" transform="translate(-35.319 -84.242)" fill="#010101"/>
    <path id="Trazado_127115" data-name="Trazado 127115" d="M1360.056,378.043l-1.9,1.1a.7.7,0,0,1-.342-.51,9.646,9.646,0,0,1,.072-5.464,3.707,3.707,0,0,1,3.672-2.278,3.843,3.843,0,0,1,3.4,2.577,10.546,10.546,0,0,1,.244,1.081,23.261,23.261,0,0,1-.164,3.626,1.593,1.593,0,0,1-.479.966l-1.9-1.1q-.015-1.537-.03-3.074c-.011-.948-.463-1.5-1.236-1.528-.807-.024-1.3.551-1.312,1.53C1360.071,375.993,1360.065,377.018,1360.056,378.043Z" transform="translate(-100.399 -35.331)" fill="#010101"/>
    <path id="Trazado_127116" data-name="Trazado 127116" d="M1265.846,414.59c0-1.062.016-2.125-.008-3.187-.01-.447.065-.653.6-.662,1.962-.033,1.961-.056,1.961,1.918,0,1.673-.029,3.347.016,5.019.016.616-.183.748-.763.741-1.8-.022-1.8,0-1.8-1.758Q1265.846,415.626,1265.846,414.59Z" transform="translate(-38.036 -62.454)"/>
    <path id="Trazado_127117" data-name="Trazado 127117" d="M1296.343,378.657c0,1.089-.012,2.178.006,3.266.007.391-.086.55-.523.57-2.033.093-2.032.109-2.032-1.924,0-1.7.013-3.4-.009-5.1-.006-.46.088-.644.606-.652,1.952-.029,1.952-.05,1.952,1.926Z" transform="translate(-57.059 -38.003)"/>
    <path id="Trazado_127118" data-name="Trazado 127118" d="M1344.253,378.662c0,1.089-.013,2.178.006,3.266.007.394-.093.547-.527.566-2.03.091-2.029.106-2.029-1.926,0-1.7.014-3.4-.009-5.1-.006-.464.1-.641.609-.648,1.949-.028,1.949-.049,1.949,1.929Z" transform="translate(-89.67 -38.005)"/>
    <path id="Trazado_127119" data-name="Trazado 127119" d="M1389.883,374.779c.556.011,1.113.051,1.667.023.467-.024.578.165.575.6q-.026,3.259,0,6.518c0,.415-.134.532-.546.549-2.011.085-2.007.1-2.012-1.94,0-1.8-.019-3.6-.03-5.4A.328.328,0,0,1,1389.883,374.779Z" transform="translate(-122.235 -37.981)"/>
    <path id="Trazado_127120" data-name="Trazado 127120" d="M1284.366,414.616c0,1.089-.011,2.178.006,3.266.005.365-.1.56-.491.51a.5.5,0,0,0-.079,0c-1.985.086-1.985.086-1.985-1.879,0-1.726.012-3.453-.008-5.178-.005-.435.107-.589.573-.6,1.985-.056,1.985-.073,1.985,1.892Q1284.366,413.62,1284.366,414.616Z" transform="translate(-48.908 -62.443)"/>
    <path id="Trazado_127121" data-name="Trazado 127121" d="M1280.391,336.231c0,1.274,0,1.274-1.453,1.274-1.1,0-1.1,0-1.1-1.552,0-1,0-1.009,1.571-.994C1280.567,334.971,1280.37,334.765,1280.391,336.231Z" transform="translate(-46.208 -10.874)"/>
    <path id="Trazado_127122" data-name="Trazado 127122" d="M1263.173,337.507c-1.3,0-1.3,0-1.3-1.505,0-1.044,0-1.044,1.526-1.044,1.025,0,1.025,0,1.024,1.545C1264.421,337.507,1264.421,337.507,1263.173,337.507Z" transform="translate(-35.337 -10.875)"/>
    <path id="Trazado_127123" data-name="Trazado 127123" d="M1293.811,336.241c0-1.283,0-1.283,1.445-1.283,1.106,0,1.106,0,1.1,1.543,0,1.007,0,1.018-1.563,1C1293.635,337.492,1293.833,337.7,1293.811,336.241Z" transform="translate(-57.077 -10.876)"/>
    <path id="Trazado_127124" data-name="Trazado 127124" d="M1326.388,418.792a16.564,16.564,0,1,1-16.592,16.687A16.512,16.512,0,0,1,1326.388,418.792Zm.015,2.551a14.02,14.02,0,1,0,13.985,14.075A14.031,14.031,0,0,0,1326.4,421.343Z" transform="translate(-67.958 -67.939)" fill="#030201"/>
    <path id="Trazado_127125" data-name="Trazado 127125" d="M1365.6,383.482c.008-1.025.015-2.05.026-3.075.01-.979.505-1.554,1.312-1.53.773.023,1.225.579,1.236,1.528q.018,1.537.03,3.074A2.1,2.1,0,0,1,1365.6,383.482Z" transform="translate(-105.943 -40.77)" fill="#d5cef8"/>
    <path id="Trazado_127126" data-name="Trazado 127126" d="M1272.371,381.417c0,.449.027.9-.006,1.347a1.263,1.263,0,0,1-2.524-.021c-.036-.871-.035-1.745,0-2.615a1.243,1.243,0,0,1,1.274-1.247,1.262,1.262,0,0,1,1.257,1.267c.025.421,0,.845,0,1.268Z" transform="translate(-40.743 -40.774)" fill="#d5cef8"/>
    <path id="Trazado_127127" data-name="Trazado 127127" d="M1320.285,381.428c0,.423.02.847,0,1.268a1.264,1.264,0,0,1-1.251,1.275,1.243,1.243,0,0,1-1.28-1.24c-.034-.871-.035-1.745,0-2.615a1.243,1.243,0,0,1,1.285-1.235,1.264,1.264,0,0,1,1.247,1.279C1320.3,380.582,1320.285,381.006,1320.285,381.428Z" transform="translate(-73.354 -40.773)" fill="#d5cef8"/>
    <path id="Trazado_127128" data-name="Trazado 127128" d="M1272.366,453.306c0,.449.031.9-.006,1.347a1.248,1.248,0,0,1-1.26,1.18,1.228,1.228,0,0,1-1.258-1.177c-.042-.923-.046-1.851,0-2.773a1.261,1.261,0,0,1,2.509,0A11.88,11.88,0,0,1,1272.366,453.306Z" transform="translate(-40.74 -89.689)" fill="#d5cef8"/>
    <path id="Trazado_127129" data-name="Trazado 127129" d="M1331.833,426.781a14.02,14.02,0,1,1-14.06,14.161A14.042,14.042,0,0,1,1331.833,426.781Zm7.117,22.7.258-.262c.816-.144,1.214-.825,1.641-1.392a11.264,11.264,0,0,0,2.279-8.713,11.046,11.046,0,0,0-4.278-7.351,11.189,11.189,0,0,0-8.71-2.306,11.529,11.529,0,0,0-9.815,10.752,11.234,11.234,0,0,0,1.945,6.982,4.177,4.177,0,0,0,2.112,2.029l.578.435a.661.661,0,0,0,.375.649,11.694,11.694,0,0,0,5.715,1.953,11.124,11.124,0,0,0,7.4-2.134C1338.666,449.969,1339,449.869,1338.95,449.486Z" transform="translate(-73.388 -73.377)" fill="#583ae2"/>
    <path id="Trazado_127130" data-name="Trazado 127130" d="M1329.79,454.688a4.178,4.178,0,0,1-2.112-2.029,11.235,11.235,0,0,1-1.945-6.982,11.529,11.529,0,0,1,9.815-10.752,11.189,11.189,0,0,1,8.71,2.305,11.047,11.047,0,0,1,4.278,7.351,11.263,11.263,0,0,1-2.279,8.713c-.426.567-.825,1.248-1.64,1.392a2.044,2.044,0,0,0,.24-.912q-.011-3.7,0-7.4a1.177,1.177,0,0,0-.783-1.255c-.47-.146-.525-.419-.495-.818a6.756,6.756,0,0,0,0-.8,6.372,6.372,0,0,0-11.088-4.058c-.9,1-.9,1,.231,1.659a5.3,5.3,0,0,1,.548.323c.421.319.686.237,1.03-.185a3.745,3.745,0,0,1,4.816-.859,3.979,3.979,0,0,1,1.939,3.908c-.022.548-.142.713-.707.708-3.05-.028-6.1-.016-9.152-.012-1.2,0-1.63.428-1.632,1.625,0,2.308,0,4.615-.005,6.923A2.221,2.221,0,0,0,1329.79,454.688Z" transform="translate(-78.797 -78.839)" fill="#ab9df1"/>
    <path id="Trazado_127131" data-name="Trazado 127131" d="M1337.957,460.131a2.221,2.221,0,0,1-.239-1.151c.008-2.308,0-4.615.005-6.923,0-1.2.431-1.624,1.632-1.625,3.051,0,6.1-.016,9.152.012.565.005.685-.161.707-.708a3.979,3.979,0,0,0-1.939-3.908,3.745,3.745,0,0,0-4.816.859c-.344.422-.609.5-1.03.185a5.316,5.316,0,0,0-.548-.323c-1.129-.659-1.129-.659-.231-1.659a6.372,6.372,0,0,1,11.088,4.058,6.782,6.782,0,0,1,0,.8c-.03.4.026.672.495.818a1.177,1.177,0,0,1,.783,1.255q0,3.7,0,7.4a2.046,2.046,0,0,1-.24.912l-.258.262a2.33,2.33,0,0,1-1.226.241c-3.384-.006-6.768,0-10.152-.006-.871,0-1.742-.039-2.613-.06Zm7.434-7.146v0c-1.512,0-3.024.014-4.535-.009-.432-.007-.606.091-.6.565q.046,1.988,0,3.978c-.01.46.141.577.586.574q4.535-.028,9.07,0c.48,0,.564-.18.557-.6-.022-1.3-.033-2.6,0-3.9.014-.508-.157-.621-.632-.612C1348.363,453,1346.877,452.984,1345.392,452.984Z" transform="translate(-86.964 -84.282)" fill="#000101"/>
    <path id="Trazado_127132" data-name="Trazado 127132" d="M1340.267,498.06c.871.021,1.742.058,2.613.06,3.384.007,6.768,0,10.153.006a2.33,2.33,0,0,0,1.226-.241c.049.383-.284.483-.5.642a11.124,11.124,0,0,1-7.4,2.134,11.7,11.7,0,0,1-5.715-1.953A.661.661,0,0,1,1340.267,498.06Z" transform="translate(-88.696 -121.776)" fill="#ab9df1"/>
    <path id="Trazado_127133" data-name="Trazado 127133" d="M1350.812,474.663c1.485,0,2.971.018,4.455-.011.475-.009.647.1.632.612-.037,1.3-.026,2.6,0,3.9.007.422-.078.605-.557.6q-4.535-.029-9.07,0c-.444,0-.6-.114-.586-.574q.044-1.988,0-3.977c-.011-.474.163-.571.6-.565,1.511.022,3.023.009,4.535.009Z" transform="translate(-92.384 -105.961)" fill="#ab9df1"/>
  </g>
</svg>
