<svg xmlns="http://www.w3.org/2000/svg" width="882" height="252.001" viewBox="0 0 882 252.001">
  <g id="Grupo_86067" data-name="Grupo 86067" transform="translate(-285 -6890.141)">
    <path id="Rectángulo_36541" data-name="Rectángulo 36541" d="M126,0H882a0,0,0,0,1,0,0V252a0,0,0,0,1,0,0H126A126,126,0,0,1,0,126v0A126,126,0,0,1,126,0Z" transform="translate(285 6890.141)" fill="#b5e4eb"/>
    <g id="Grupo_85797" data-name="Grupo 85797" transform="translate(0 342.141)">
      <path id="hacker-working-in-the-darkness" d="M0,0H117.276A125.758,125.758,0,0,0,235.563,83.065,126.85,126.85,0,0,0,252,82V196.147q-8.147.553-16.436.56C117.927,196.707,20.114,111.844,0,0Z" transform="translate(1167 6548.001) rotate(90)" fill="#daf1f5"/>
      <g id="Elipse_5419" data-name="Elipse 5419" transform="translate(298 6728)" fill="none" stroke="#583ae2" stroke-width="15">
        <ellipse cx="36" cy="36" rx="36" ry="36" stroke="none"/>
        <ellipse cx="36" cy="36" rx="28.5" ry="28.5" fill="none"/>
      </g>
      <ellipse id="Elipse_5420" data-name="Elipse 5420" cx="11.5" cy="11.5" rx="11.5" ry="11.5" transform="translate(285 6709)" fill="#40327b"/>
    </g>
  </g>
</svg>
