<svg xmlns="http://www.w3.org/2000/svg" width="90.997" height="90.997" viewBox="0 0 90.997 90.997">
  <g id="Grupo_85703" data-name="Grupo 85703" transform="translate(-0.278 -0.277)">
    <circle id="Elipse_5411" data-name="Elipse 5411" cx="45.498" cy="45.498" r="45.498" transform="translate(0.278 0.277)" fill="#2ff980"/>
    <g id="Grupo_85756" data-name="Grupo 85756" transform="translate(-369.672 324.225)">
      <path id="Trazado_126911" data-name="Trazado 126911" d="M397.8-311.412c.326-1.324.722-1.635,2.106-1.638,1.7,0,3.4-.009,5.1,0a5.055,5.055,0,0,1,5.34,5.338c.006,1.3.044,2.6-.017,3.9-.032.692.206.809.844.807q14.569-.032,29.138-.015c3.477,0,6.953-.006,10.43,0,3.411.008,5.485,2.1,5.487,5.517q0,4.736,0,9.472a5,5,0,0,1-3.41,5.026c-.555.216-.436.57-.436.935q-.007,12.179,0,24.358a8.907,8.907,0,0,1-.485,3.258c.929,0,1.771-.016,2.612,0a1.566,1.566,0,0,1,1.713,1.744c.013,1.353.023,2.707,0,4.059a4.873,4.873,0,0,1-4.6,4.789c-.291.018-.584.02-.875.02q-35.308,0-70.617,0c-2.635,0-4.453-1.192-5.191-3.37a7.638,7.638,0,0,1-.25-2.518c0-1.008-.012-2.017,0-3.025a1.566,1.566,0,0,1,1.678-1.7c.424-.015.849,0,1.274,0h1.346c-.722-2.015-.434-4.065-.439-6.088q-.037-15.92,0-31.84a.956.956,0,0,0-.714-1.07,4.769,4.769,0,0,1-3.133-4.562c-.056-3.342-.035-6.686-.009-10.029a4.962,4.962,0,0,1,4.858-4.986c1.829-.062,3.662-.024,5.493-.021,1.308,0,1.72.344,2.023,1.637-.359,1.217-.78,1.541-2.047,1.546-1.645.006-3.29-.006-4.935,0-1.549.009-2.211.685-2.213,2.245q0,4.536,0,9.073c0,1.653.647,2.294,2.319,2.295,4.7,0,9.394.078,14.088-.037a6.1,6.1,0,0,1,4.76,1.639,29.4,29.4,0,0,0,2.562,1.994c0-.482,0-.8,0-1.109s-.013-.638.006-.955a1.565,1.565,0,0,1,1.578-1.559c.609-.024,1.22,0,1.831-.008a1.92,1.92,0,0,0,2.144-2.17q.009-4.576,0-9.152c0-1.591-.672-2.251-2.29-2.257-1.645-.007-3.29,0-4.935,0C398.587-309.869,398.186-310.164,397.8-311.412Zm17.639,50.194q12.935,0,25.87,0c.373,0,.766.139.764-.54q-.036-10.187-.005-20.374c0-.456-.138-.585-.585-.578q-2.387.035-4.776,0a1.706,1.706,0,0,0-1.154.4c-1.9,1.491-3.815,2.955-5.716,4.441a1.647,1.647,0,0,1-1.845.3,1.647,1.647,0,0,1-.925-1.7c.027-.954-.017-1.911.017-2.865.016-.464-.146-.625-.589-.57a4.264,4.264,0,0,1-.557,0,5.135,5.135,0,0,1-5.374-5.414c0-1.486-.016-2.972.008-4.457.007-.418-.114-.535-.534-.534q-7.363.022-14.726,0c-.408,0-.555.094-.54.525.033.927-.01,1.857.016,2.785a1.709,1.709,0,0,1-.893,1.8,1.734,1.734,0,0,1-1.978-.355c-1.855-1.458-3.731-2.889-5.589-4.345a1.625,1.625,0,0,0-1.087-.374c-1.857.02-3.715.039-5.571-.008-.649-.016-.841.137-.839.813q.034,15.121,0,30.243c0,.659.153.825.819.823Q402.545-261.239,415.44-261.218Zm-.008,6.768h30.813c2.148,0,2.944-.789,2.945-2.914q0-10.429,0-20.857c0-1.3-.017-2.6.009-3.9.009-.448-.125-.608-.583-.591a24.31,24.31,0,0,1-2.547-.005c-.652-.045-.843.142-.841.816.025,7.244.016,14.488.015,21.732,0,1.667-.464,2.136-2.118,2.136H387.791c-1.661,0-2.129-.467-2.129-2.124q0-15.4,0-30.808c0-.478-.031-.958.009-1.432.042-.505-.1-.71-.648-.68a16.512,16.512,0,0,1-2.466-.006c-.748-.071-.857.221-.855.89q.03,17.394.015,34.788c0,2.184.778,2.956,2.982,2.956Zm14.829-27.787c1.368-1.06,2.616-2,3.828-2.98a2.94,2.94,0,0,1,1.967-.682c4.906.02,9.812.013,14.719.008,1.577,0,2.261-.7,2.263-2.287q0-4.693,0-9.387c0-1.575-.69-2.258-2.286-2.267-1.326-.008-2.652,0-3.978,0q-10.343,0-20.686,0c-1.64,0-2.334.691-2.336,2.305,0,3.182-.01,6.364,0,9.546a1.909,1.909,0,0,0,2.068,2.088c.9.016,1.8-.019,2.7.01a1.62,1.62,0,0,1,1.731,1.754C430.272-283.55,430.261-282.971,430.261-282.236Zm-38.316,35.207h9.71c.9,0,1.8-.011,2.706,0,.4.007.539-.128.4-.514a6.99,6.99,0,0,1-.272-2.91c.043-.682-.192-.825-.842-.823-7.906.023-15.812.011-23.717.02-.656,0-1.5-.282-1.919.122s-.125,1.259-.132,1.913c-.018,1.621.564,2.185,2.21,2.186Q386.016-247.026,391.945-247.029Zm47.792-4.228c-4.165,0-8.33.016-12.5-.016-.677-.005-.861.2-.819.846a6.155,6.155,0,0,1-.2,2.6c-.29.766.026.809.657.807q9.033-.025,18.066-.01c2.069,0,4.139.013,6.208-.006a1.719,1.719,0,0,0,1.877-1.885c.011-.5-.041-1.012.013-1.511.07-.653-.139-.849-.817-.843C448.067-251.241,443.9-251.258,439.737-251.258Zm-24.276-.007h-6.285c-1.523,0-1.523,0-1.519,1.528,0,1.9.8,2.711,2.7,2.713,3.129,0,6.26-.076,9.386.024,2.9.093,3.66-.831,3.529-3.6-.027-.579-.2-.686-.728-.679C420.181-251.25,417.821-251.265,415.461-251.265ZM410-296.284c3.438,0,6.777-.008,10.117.01.432,0,.463-.2.455-.529a7.077,7.077,0,0,1,.21-2.522c.182-.525-.077-.509-.439-.508-3.155,0-6.311.01-9.466-.006-.414,0-.551.114-.537.534A7.5,7.5,0,0,1,410-296.284Z" fill="#020303"/>
      <path id="Trazado_126912" data-name="Trazado 126912" d="M404.636-307.891c.385,1.248.786,1.543,2.13,1.546,1.645,0,3.29,0,4.935,0,1.617.006,2.288.666,2.29,2.257q.006,4.576,0,9.152a1.92,1.92,0,0,1-2.144,2.17c-.61.008-1.221-.016-1.831.008a1.565,1.565,0,0,0-1.578,1.559c-.019.317-.005.636-.006.955s0,.627,0,1.109a29.41,29.41,0,0,1-2.562-1.994,6.1,6.1,0,0,0-4.76-1.639c-4.693.115-9.391.039-14.088.037-1.671,0-2.318-.642-2.319-2.295q0-4.536,0-9.073c0-1.561.664-2.236,2.213-2.245,1.645-.01,3.29,0,4.935,0,1.267-.005,1.688-.329,2.047-1.546l3.806.005c.219.947.686,1.434,1.452,1.516.853.091,1.426-.393,1.792-1.514Zm-5.365,9.829q4.218,0,8.437,0a3.909,3.909,0,0,0,.944-.094,1.543,1.543,0,0,0,1.153-1.606,1.554,1.554,0,0,0-1.347-1.451,6.478,6.478,0,0,0-.874-.034q-8.277,0-16.555,0a6.416,6.416,0,0,0-.873.035,1.519,1.519,0,0,0-1.328,1.452,1.516,1.516,0,0,0,1.142,1.605,3.927,3.927,0,0,0,.945.091Q395.093-298.056,399.271-298.062Z" transform="translate(-6.835 -3.522)" fill="#f3f1ff"/>
      <path id="Trazado_126913" data-name="Trazado 126913" d="M428.687-311.344c-.366,1.121-.94,1.6-1.792,1.514-.766-.081-1.233-.569-1.452-1.516.169-1.056.648-1.581,1.483-1.624C427.847-313.018,428.409-312.5,428.687-311.344Z" transform="translate(-34.574 -0.061)" fill="#050505"/>
      <path id="Trazado_126914" data-name="Trazado 126914" d="M445.668-218.643q-12.9,0-25.79.017c-.666,0-.82-.164-.819-.823q.035-15.121,0-30.243c0-.676.191-.829.839-.813,1.856.047,3.714.028,5.571.008a1.626,1.626,0,0,1,1.087.374c1.857,1.456,3.734,2.887,5.589,4.345a1.734,1.734,0,0,0,1.978.355,1.709,1.709,0,0,0,.893-1.8c-.026-.928.016-1.857-.016-2.785-.015-.431.132-.526.54-.525q7.363.02,14.726,0c.419,0,.54.115.534.534-.024,1.485-.013,2.971-.008,4.457a5.135,5.135,0,0,0,5.374,5.414,4.261,4.261,0,0,0,.557,0c.444-.055.605.106.589.57-.034.954.01,1.91-.017,2.865a1.647,1.647,0,0,0,.925,1.7,1.647,1.647,0,0,0,1.845-.3c1.9-1.486,3.819-2.951,5.716-4.442a1.706,1.706,0,0,1,1.154-.4q2.387.036,4.776,0c.446-.006.586.122.585.578q-.02,10.187.005,20.374c0,.679-.391.54-.764.54Q458.6-218.641,445.668-218.643Zm-15.514-15.946c-1.3,0-2.6-.008-3.9,0a1.665,1.665,0,0,0-1.9,1.911q-.012,3.737,0,7.474a1.666,1.666,0,0,0,1.907,1.9q3.857.011,7.714,0c1.3,0,1.93-.594,1.938-1.871q.024-3.777,0-7.553a1.655,1.655,0,0,0-1.868-1.861C432.752-234.6,431.453-234.589,430.154-234.589Zm6.139-7.689v0c-3.42,0-6.841-.011-10.261.007a1.582,1.582,0,0,0-1.67,1.554,1.637,1.637,0,0,0,1.629,1.618c.185.014.371,0,.557,0q9.7,0,19.409,0a4.306,4.306,0,0,0,.946-.07,1.518,1.518,0,0,0,1.207-1.707c-.086-.881-.724-1.4-1.795-1.4C442.974-242.284,439.633-242.278,436.293-242.278Zm13.9,15.792q-3.94,0-7.879,0c-1.151,0-1.88.632-1.873,1.593s.751,1.588,1.894,1.589q7.839.007,15.679,0c1.166,0,1.861-.617,1.857-1.608s-.688-1.571-1.878-1.573C455.389-226.49,452.789-226.486,450.189-226.486Zm-2.821-4.723c1.722,0,3.444.005,5.166,0,1.157,0,1.885-.626,1.88-1.582s-.746-1.6-1.892-1.6q-5.126-.017-10.252,0a1.647,1.647,0,0,0-1.834,1.65c.03.942.72,1.524,1.846,1.529C443.977-231.2,445.673-231.21,447.368-231.21Zm16.617,6.339a1.536,1.536,0,0,0,1.521,1.6,1.633,1.633,0,0,0,1.652-1.585,1.611,1.611,0,0,0-1.594-1.56A1.549,1.549,0,0,0,463.985-224.87Z" transform="translate(-30.228 -42.575)" fill="#ab9df1"/>
      <path id="Trazado_126915" data-name="Trazado 126915" d="M430.45-211.845H399.717c-2.2,0-2.982-.772-2.982-2.956q0-17.394-.015-34.788c0-.668.107-.96.855-.89a16.516,16.516,0,0,0,2.466.006c.547-.031.69.174.648.68-.04.474-.009.955-.009,1.432q0,15.4,0,30.808c0,1.657.468,2.124,2.129,2.124h55.336c1.654,0,2.118-.469,2.118-2.136,0-7.244.01-14.488-.015-21.732,0-.674.189-.861.841-.816a24.293,24.293,0,0,0,2.547.005c.458-.017.592.143.583.591-.026,1.3-.009,2.6-.009,3.9q0,10.428,0,20.857c0,2.125-.8,2.914-2.945,2.914Z" transform="translate(-15.018 -42.604)" fill="#826be9"/>
      <path id="Trazado_126916" data-name="Trazado 126916" d="M534.978-254.015c0-.735.01-1.314,0-1.891a1.62,1.62,0,0,0-1.731-1.754c-.9-.029-1.8.006-2.7-.01a1.909,1.909,0,0,1-2.068-2.088c-.013-3.182-.007-6.364,0-9.546,0-1.615.7-2.3,2.336-2.306q10.343-.006,20.686,0c1.326,0,2.652-.006,3.978,0,1.6.009,2.284.692,2.286,2.267q0,4.693,0,9.387c0,1.587-.686,2.286-2.263,2.287-4.906.005-9.812.011-14.719-.008a2.939,2.939,0,0,0-1.967.682C537.594-256.014,536.347-255.076,534.978-254.015Zm8.369-9.235c2.915,0,5.83.008,8.745,0a1.549,1.549,0,0,0,1.719-1.562,1.558,1.558,0,0,0-1.687-1.612q-8.745-.023-17.489-.007a1.664,1.664,0,0,0-1.289.516,1.49,1.49,0,0,0-.314,1.688,1.545,1.545,0,0,0,1.572.982Q538.974-263.255,543.347-263.251Z" transform="translate(-104.717 -28.221)" fill="#f3f1ff"/>
      <path id="Trazado_126917" data-name="Trazado 126917" d="M398.594-115.366q-5.929,0-11.859,0c-1.647,0-2.229-.566-2.21-2.186.007-.655-.293-1.5.132-1.913s1.263-.122,1.919-.122c7.905-.009,15.811,0,23.717-.02.649,0,.884.142.842.823a6.991,6.991,0,0,0,.272,2.91c.143.386,0,.52-.4.514-.9-.015-1.8,0-2.706,0Z" transform="translate(-6.649 -131.663)" fill="#ab9df1"/>
      <path id="Trazado_126918" data-name="Trazado 126918" d="M549.513-119.438c4.165,0,8.33.016,12.5-.017.677-.005.887.191.817.843-.054.5,0,1.007-.013,1.511a1.719,1.719,0,0,1-1.877,1.885c-2.069.019-4.139.006-6.208.006q-9.033,0-18.066.01c-.631,0-.947-.041-.657-.807a6.155,6.155,0,0,0,.2-2.6c-.042-.65.142-.851.819-.846C541.183-119.422,545.348-119.438,549.513-119.438Z" transform="translate(-109.776 -131.82)" fill="#ab9df1"/>
      <path id="Trazado_126919" data-name="Trazado 126919" d="M485.851-119.449c2.36,0,4.72.015,7.08-.011.527-.006.7.1.728.679.131,2.766-.634,3.69-3.529,3.6-3.126-.1-6.257-.019-9.386-.024-1.9,0-2.692-.81-2.7-2.713,0-1.528,0-1.528,1.519-1.528Z" transform="translate(-70.39 -131.816)" fill="#c0d1da"/>
      <path id="Trazado_126920" data-name="Trazado 126920" d="M485.377-268.074a7.493,7.493,0,0,0,.339-3.022c-.014-.42.123-.536.537-.534,3.155.015,6.31.01,9.466.006.362,0,.621-.017.439.508a7.076,7.076,0,0,0-.21,2.522c.008.334-.023.532-.455.529C492.154-268.082,488.815-268.074,485.377-268.074Z" transform="translate(-75.381 -28.21)" fill="#826be9"/>
      <path id="Trazado_126921" data-name="Trazado 126921" d="M408.07-283.9q-4.179,0-8.357,0a3.922,3.922,0,0,1-.945-.091,1.515,1.515,0,0,1-1.142-1.605,1.519,1.519,0,0,1,1.328-1.452,6.426,6.426,0,0,1,.873-.035q8.278,0,16.555,0a6.473,6.473,0,0,1,.873.034A1.554,1.554,0,0,1,418.6-285.6a1.543,1.543,0,0,1-1.153,1.606,3.907,3.907,0,0,1-.944.094Q412.289-283.891,408.07-283.9Z" transform="translate(-15.634 -17.686)" fill="#050505"/>
      <path id="Trazado_126922" data-name="Trazado 126922" d="M441.449-200.583c1.3,0,2.6-.009,3.9,0a1.655,1.655,0,0,1,1.868,1.861q.024,3.777,0,7.553c-.008,1.277-.635,1.868-1.938,1.871q-3.857.009-7.714,0a1.666,1.666,0,0,1-1.907-1.9q-.013-3.737,0-7.474a1.665,1.665,0,0,1,1.9-1.911C438.851-200.591,440.15-200.583,441.449-200.583Zm-.02,3.184c-.688,0-1.378.022-2.065-.008-.424-.019-.543.134-.535.545.022,1.3.019,2.594,0,3.891-.005.38.124.5.5.5q2.1-.025,4.209,0c.385,0,.5-.135.5-.507q-.022-1.985,0-3.97c0-.347-.13-.462-.467-.454C442.859-197.387,442.143-197.4,441.429-197.4Z" transform="translate(-41.522 -76.581)" fill="#020203"/>
      <path id="Trazado_126923" data-name="Trazado 126923" d="M447.606-224.673c3.341,0,6.682-.006,10.022,0,1.07,0,1.709.523,1.795,1.4a1.518,1.518,0,0,1-1.207,1.707,4.308,4.308,0,0,1-.946.07q-9.7.005-19.409,0c-.185,0-.372.009-.557,0a1.637,1.637,0,0,1-1.629-1.618,1.582,1.582,0,0,1,1.67-1.554c3.42-.018,6.841-.007,10.261-.007Z" transform="translate(-41.54 -60.18)" fill="#030404"/>
      <path id="Trazado_126924" data-name="Trazado 126924" d="M495.8-175.189c2.6,0,5.2,0,7.8,0,1.19,0,1.874.583,1.878,1.573s-.69,1.607-1.857,1.608q-7.84.008-15.679,0c-1.143,0-1.887-.637-1.894-1.589s.721-1.591,1.873-1.593Q491.857-175.2,495.8-175.189Z" transform="translate(-75.835 -93.872)" fill="#010202"/>
      <path id="Trazado_126925" data-name="Trazado 126925" d="M492.972-196.8c-1.7,0-3.391.006-5.086,0-1.126-.006-1.816-.587-1.846-1.529a1.647,1.647,0,0,1,1.834-1.65q5.126-.023,10.252,0c1.146,0,1.887.654,1.892,1.6s-.723,1.577-1.88,1.582C496.416-196.793,494.694-196.8,492.972-196.8Z" transform="translate(-75.831 -76.986)" fill="#030405"/>
      <path id="Trazado_126926" data-name="Trazado 126926" d="M559.829-173.426a1.55,1.55,0,0,1,1.579-1.548,1.611,1.611,0,0,1,1.594,1.56,1.633,1.633,0,0,1-1.653,1.585A1.536,1.536,0,0,1,559.829-173.426Z" transform="translate(-126.072 -94.019)" fill="#050505"/>
      <path id="Trazado_126927" data-name="Trazado 126927" d="M552.8-252.207q-4.373,0-8.745,0a1.545,1.545,0,0,1-1.571-.982,1.49,1.49,0,0,1,.314-1.688,1.664,1.664,0,0,1,1.289-.516q8.745,0,17.489.007a1.558,1.558,0,0,1,1.687,1.612,1.549,1.549,0,0,1-1.719,1.562C558.628-252.2,555.713-252.207,552.8-252.207Z" transform="translate(-114.169 -39.264)" fill="#030303"/>
      <path id="Trazado_126928" data-name="Trazado 126928" d="M448.213-190.62c.715,0,1.43.012,2.144,0,.337-.008.47.107.467.454q-.02,1.985,0,3.97c0,.372-.115.512-.5.507q-2.1-.026-4.209,0c-.378,0-.507-.12-.5-.5.018-1.3.021-2.594,0-3.891-.007-.411.111-.564.536-.545C446.836-190.6,447.525-190.62,448.213-190.62Z" transform="translate(-48.307 -83.36)" fill="#583ae2"/>
    </g>
  </g>
</svg>
