<svg id="Grupo_81330" data-name="Grupo 81330" xmlns="http://www.w3.org/2000/svg" width="67" height="105" viewBox="0 0 67 105">
  <rect id="Rectángulo_34185" data-name="Rectángulo 34185" width="67" height="105" rx="5" fill="#fff"/>
  <g id="Grupo_84759" data-name="Grupo 84759" transform="translate(-772.239 -536.207)">
    <path id="Trazado_123720" data-name="Trazado 123720" d="M818.7,562.258c.1,1.539.034,3.08.037,4.62,0,.359.089.49.453.449a7.328,7.328,0,0,1,.833-.006,1.569,1.569,0,0,1,1.778,1.793c0,1.4.013,2.8-.008,4.207a.5.5,0,0,0,.42.573,8.3,8.3,0,0,1,5.674,7.427c.085,1.845.033,3.7.035,5.546a1.348,1.348,0,0,0,.178.7,9.88,9.88,0,0,1-5.878,14.492c-.336.1-.451.22-.426.558.029.4.01.8.006,1.2a1.533,1.533,0,0,1-1.693,1.687q-4.375,0-8.751,0H783.9c-1.31,0-1.864-.547-1.864-1.844q0-18.769,0-37.538c0-1.3.553-1.853,1.853-1.857.926,0,1.851-.011,2.777-.017.169.006.338.016.508.016,3.424,0,6.849.006,10.273,0a1.647,1.647,0,0,1,1.624,1c.288.595.6,1.179.879,1.776a.429.429,0,0,0,.451.29q8.237-.011,16.475,0c.293,0,.357-.083.353-.362-.016-1.232-.025-2.464,0-3.7.01-.415-.093-.532-.522-.531q-14.809.02-29.618.011c-.138,0-.277.01-.415.015a7.259,7.259,0,0,1-.049-1.364c-.013-.224.151-.182.282-.184.412-.007.824-.01,1.236-.015.169,0,.339.014.508.014q14.112,0,28.224-.009A1.8,1.8,0,0,1,818.7,562.258Zm-5.679,14.227h-.514q-14.212,0-28.424-.01c-.434,0-.525.122-.524.534q.017,13.2,0,26.39c0,.506.158.586.615.585q17.476-.018,34.951-.01c1.194,0,1.186,0,1.166-1.213,0-.255-.056-.349-.333-.323a7.933,7.933,0,0,1-1.937-.094,9.911,9.911,0,0,1-7.1-14.768,1.312,1.312,0,0,0,.19-.694c-.009-1.664,0-3.328-.006-4.991a8.363,8.363,0,0,1,1.917-5.405Zm-13.862-1.515q7.547,0,15.094,0a1.185,1.185,0,0,0,.7-.171,8.171,8.171,0,0,1,4.953-1.352c.328.014.383-.086.38-.376-.012-1.263-.02-2.527,0-3.79.007-.359-.105-.431-.442-.429-2.33.014-4.661.008-6.991.008-4.167,0-8.334-.006-12.5.005a1.717,1.717,0,0,1-1.732-1.055c-.251-.545-.549-1.068-.794-1.615a.582.582,0,0,0-.625-.395q-6.574.018-13.149,0c-.436,0-.494.148-.492.526q.022,4.044,0,8.089c0,.436.092.568.551.567C789.127,574.964,794.143,574.97,799.158,574.97Zm28.759,17.579a8.405,8.405,0,1,0-8.442,8.37A8.39,8.39,0,0,0,827.917,592.549Zm-1.511-7.215c-.059-1.521.1-2.984-.089-4.437a6.875,6.875,0,0,0-13.345-1.2c-.6,1.83-.255,3.713-.368,5.649.475-.367.861-.693,1.277-.975a.585.585,0,0,0,.289-.568q-.023-1.039,0-2.08a5.343,5.343,0,0,1,10.58-.945,17.15,17.15,0,0,1,.114,3.042.54.54,0,0,0,.221.513C825.514,584.63,825.919,584.961,826.406,585.334Zm-3.073-1.987c0-.594.015-1.117,0-1.64a3.819,3.819,0,0,0-7.512-.831,9.452,9.452,0,0,0-.142,2.111c-.012.3.042.368.354.251a9.74,9.74,0,0,1,4.446-.59A11.651,11.651,0,0,1,823.333,583.347Z" transform="translate(0 -13.402)" fill="#040404"/>
    <path id="Trazado_123721" data-name="Trazado 123721" d="M807.034,569.528c.138,0,.277-.015.415-.015q14.809,0,29.617-.011c.43,0,.532.116.523.531-.028,1.231-.019,2.464,0,3.7,0,.279-.061.363-.353.362q-8.237-.014-16.475,0a.429.429,0,0,1-.451-.29c-.282-.6-.591-1.182-.879-1.776a1.647,1.647,0,0,0-1.624-.995c-3.424.009-6.849,0-10.273,0-.169,0-.339-.011-.508-.016Z" transform="translate(-20.359 -20.166)" fill="#e5e8eb"/>
    <path id="Trazado_123722" data-name="Trazado 123722" d="M815.011,546.3c-.006-.4.01-.8-.025-1.2-.027-.312.109-.342.37-.341,1.943.009,3.886.005,5.829.005q11.958,0,23.917-.011c.418,0,.539.109.489.5a6.632,6.632,0,0,1-.046,1.055c-.123-.005-.246-.014-.369-.014Z" transform="translate(-26.844)" fill="#070605"/>
    <path id="Trazado_123723" data-name="Trazado 123723" d="M815.036,553.09H845.2c.123,0,.246.009.369.014q0,1.273,0,2.546a1.8,1.8,0,0,0-1.823-1.052q-14.112.023-28.224.009c-.169,0-.339-.009-.508-.014Q815.025,553.841,815.036,553.09Z" transform="translate(-26.868 -6.794)" fill="#ead0b6"/>
    <path id="Trazado_123724" data-name="Trazado 123724" d="M819.7,643.645a8.362,8.362,0,0,0-1.917,5.405c0,1.664,0,3.328.006,4.991a1.312,1.312,0,0,1-.19.694,9.911,9.911,0,0,0,7.1,14.768,7.937,7.937,0,0,0,1.938.094c.276-.025.328.068.333.323.02,1.213.028,1.213-1.166,1.213q-17.475,0-34.951.01c-.457,0-.616-.079-.615-.585q.027-13.2,0-26.39c0-.412.09-.534.524-.534q14.212.021,28.424.011Zm-12.626,23.671h2.592c1.126,0,2.252,0,3.379,0,.128,0,.347.081.276-.206a15.715,15.715,0,0,0-.836-3.3.385.385,0,0,1,.118-.56,5.759,5.759,0,0,0,2.048-3.96,50.5,50.5,0,0,0-.012-7.43,7.635,7.635,0,0,0-15.208,1.129c-.006,1.679.034,3.359-.01,5.036a6.454,6.454,0,0,0,2.207,5.3c.111.1.188.174.1.345a13.554,13.554,0,0,0-.865,3.238c-.08.311-.008.413.339.41C803.158,667.306,805.118,667.315,807.077,667.315Zm-11.539-.754h2.778c1.13,0,1.113,0,1.127-1.12,0-.364-.118-.428-.45-.426-2.006.015-4.013.007-6.02.007-1.24,0-1.229,0-1.207,1.221.005.274.1.325.345.323C793.254,666.555,794.4,666.562,795.538,666.562Zm1.58-3.053h1.157c1.188,0,1.174,0,1.167-1.172,0-.322-.117-.379-.4-.375-1,.015-2.006.006-3.009.006-1.24,0-1.23,0-1.2,1.225.006.279.1.326.349.321C795.822,663.5,796.47,663.509,797.118,663.509Zm.77,6.106h.415c1.149,0,1.134,0,1.14-1.143,0-.341-.118-.413-.426-.4-.491.022-.984.006-1.476.006-1.235,0-1.225,0-1.18,1.246.01.263.105.3.327.294C797.088,669.6,797.488,669.615,797.888,669.615Zm-4.611,0h.37c1.237,0,1.226,0,1.2-1.22-.007-.283-.112-.327-.354-.32-.508.014-1.017,0-1.526,0-1.232,0-1.225,0-1.195,1.229.006.234.057.324.306.312C792.474,669.6,792.876,669.615,793.277,669.615Zm-.741-6.106c.777,0,.777,0,.777-.764s0-.777-.771-.777-.767,0-.767.771S791.774,663.509,792.535,663.509Z" transform="translate(-6.683 -80.561)" fill="#e4e7ea"/>
    <path id="Trazado_123725" data-name="Trazado 123725" d="M805.867,595.192c-5.016,0-10.031-.007-15.047.011-.46,0-.555-.131-.551-.567q.031-4.044,0-8.089c0-.378.055-.527.492-.526q6.574.028,13.149,0a.582.582,0,0,1,.625.395c.245.547.543,1.07.794,1.615a1.717,1.717,0,0,0,1.732,1.055c4.167-.011,8.334-.005,12.5-.005,2.331,0,4.661.007,6.991-.008.337,0,.449.07.442.429-.024,1.263-.016,2.527,0,3.79,0,.29-.052.39-.38.376a8.171,8.171,0,0,0-4.953,1.352,1.185,1.185,0,0,1-.7.171Q813.414,595.19,805.867,595.192Zm-11.007-4.554v-.416c0-1.233,0-1.226-1.238-1.143-.224.015-.291.089-.287.3.01.554,0,1.109,0,1.663,0,1.109,0,1.1,1.108,1.1.312,0,.448-.062.42-.4C794.837,591.379,794.859,591.008,794.86,590.638Zm3.058-.042v-.37c0-1.233,0-1.233-1.233-1.142a.274.274,0,0,1-.046,0c-.18-.015-.242.072-.241.245,0,.847,0,1.693,0,2.54,0,.126,0,.266.176.263.428-.008.914.144,1.266-.066.227-.135.053-.6.074-.919C797.928,590.966,797.918,590.781,797.918,590.6Zm3.058,0v-.369c0-1.191,0-1.181-1.19-1.146-.27.008-.34.1-.332.349.015.538,0,1.077,0,1.616,0,1.11,0,1.1,1.1,1.105.31,0,.447-.061.421-.4C800.953,591.364,800.976,590.977,800.976,590.593Z" transform="translate(-6.709 -33.624)" fill="#7cd1b3"/>
    <path id="Trazado_123726" data-name="Trazado 123726" d="M955.749,693.4a8.405,8.405,0,1,1-8.348-8.412A8.4,8.4,0,0,1,955.749,693.4Zm-8.394,6.852a6.878,6.878,0,1,0-6.9-6.862A6.9,6.9,0,0,0,947.356,700.25Z" transform="translate(-127.832 -114.251)" fill="#f2d37d"/>
    <path id="Trazado_123727" data-name="Trazado 123727" d="M960.818,645.872c-.487-.373-.892-.7-1.321-1a.54.54,0,0,1-.221-.513,17.15,17.15,0,0,0-.114-3.042,5.343,5.343,0,0,0-10.58.945q-.022,1.039,0,2.08a.586.586,0,0,1-.289.568c-.416.281-.8.607-1.277.975.113-1.936-.229-3.819.368-5.649a6.876,6.876,0,0,1,13.346,1.2C960.918,642.888,960.759,644.351,960.818,645.872Z" transform="translate(-134.413 -73.94)" fill="#a7aeb8"/>
    <path id="Trazado_123728" data-name="Trazado 123728" d="M971.25,657.317a11.649,11.649,0,0,0-2.858-.7,9.739,9.739,0,0,0-4.446.59c-.311.117-.366.05-.354-.251a9.449,9.449,0,0,1,.142-2.111,3.819,3.819,0,0,1,7.512.831C971.264,656.2,971.25,656.723,971.25,657.317Z" transform="translate(-147.917 -87.372)" fill="#f5f7f8"/>
    <path id="Trazado_123729" data-name="Trazado 123729" d="M847.454,674.028c-1.959,0-3.918-.009-5.878.008-.347,0-.419-.1-.339-.41a13.556,13.556,0,0,1,.865-3.238c.093-.171.016-.248-.1-.345a6.453,6.453,0,0,1-2.207-5.3c.043-1.678,0-3.357.01-5.036a7.635,7.635,0,0,1,15.208-1.129,50.5,50.5,0,0,1,.012,7.43,5.759,5.759,0,0,1-2.048,3.96.385.385,0,0,0-.118.56,15.719,15.719,0,0,1,.836,3.3c.071.287-.148.205-.276.206-1.126.005-2.252,0-3.379,0Zm-1.879-15.682c-.084-.18-.146-.336-.227-.481-.148-.265-.158-.442.211-.51a3.938,3.938,0,0,0,.743-.251c.237-.1.376-.08.488.2a2.3,2.3,0,0,0,.931,1.06,3.353,3.353,0,0,0,1.913.405,2.3,2.3,0,0,1,2.416,2.411c.006.708.011,1.417,0,2.126a4.313,4.313,0,0,1-1.511,3.393.856.856,0,0,0-.261,1.2c.1.238.3.29.471.4a5.083,5.083,0,0,1,.726.491c.227.208.373.172.575-.026a4.7,4.7,0,0,0,1.51-3.456q.008-2.7,0-5.407a8.458,8.458,0,0,0-.086-1.426,6.115,6.115,0,0,0-12.134.85c-.04,2.033-.036,4.067,0,6.1a4.642,4.642,0,0,0,1.529,3.356c.2.187.339.21.543.025a5.06,5.06,0,0,1,.97-.622.886.886,0,0,0,.121-1.328,4.33,4.33,0,0,1-1.513-2.476,18.72,18.72,0,0,1-.106-3.64,2.195,2.195,0,0,1,1.732-2.171C844.923,658.484,845.236,658.422,845.575,658.346Zm4.928,4.1v-.966c0-1.019-.165-1.191-1.171-1.189a4.35,4.35,0,0,1-2.221-.522.6.6,0,0,0-.44-.079l-1.628.337a.76.76,0,0,0-.655.822c-.006.862-.023,1.726.006,2.587a3.056,3.056,0,0,0,6.034.577A8.328,8.328,0,0,0,850.5,662.448Zm-3.017,10.067q2.012,0,4.023,0c.216,0,.373.03.309-.311a3.613,3.613,0,0,0-1.538-2.423.4.4,0,0,0-.62.057c-.636.67-1.31,1.3-1.951,1.97-.2.2-.309.212-.51,0-.641-.666-1.316-1.3-1.952-1.968a.4.4,0,0,0-.621-.063,3.573,3.573,0,0,0-1.517,2.284c-.071.323-.042.466.354.459C844.8,672.5,846.145,672.515,847.486,672.515Zm-1.017-4.7c-.147-.039-.24.007-.264.164-.035.22-.28.423-.021.666.369.347.721.712,1.079,1.072.1.1.182.2.333.043.371-.388.755-.765,1.139-1.142.232-.228,0-.427-.032-.636-.02-.135-.111-.2-.268-.168A4.426,4.426,0,0,1,846.469,667.814Z" transform="translate(-47.06 -87.274)" fill="#030202"/>
    <path id="Trazado_123730" data-name="Trazado 123730" d="M802.24,760.578c-1.142,0-2.284-.006-3.427.005-.248,0-.34-.048-.345-.323-.022-1.221-.032-1.221,1.207-1.221,2.007,0,4.013.007,6.02-.007.331,0,.454.062.45.426-.014,1.12,0,1.12-1.127,1.12Z" transform="translate(-13.385 -174.577)" fill="#070605"/>
    <path id="Trazado_123731" data-name="Trazado 123731" d="M817.262,744.1c-.648,0-1.3-.01-1.944,0-.245.006-.344-.042-.349-.321-.025-1.225-.035-1.225,1.2-1.225,1,0,2.006.009,3.009-.006.288,0,.4.053.4.375.007,1.172.02,1.172-1.167,1.172Z" transform="translate(-26.827 -161.148)" fill="#070605"/>
    <path id="Trazado_123732" data-name="Trazado 123732" d="M824.754,777.068c-.4,0-.8-.01-1.2,0-.222.008-.318-.031-.327-.294-.045-1.246-.055-1.246,1.18-1.246.492,0,.985.016,1.476-.006.307-.014.427.058.426.4-.006,1.143.009,1.143-1.14,1.143Z" transform="translate(-33.549 -188.015)" fill="#070605"/>
    <path id="Trazado_123733" data-name="Trazado 123733" d="M799.973,777.079c-.4,0-.8-.015-1.2.005-.249.013-.3-.078-.307-.312-.031-1.23-.038-1.229,1.195-1.229.509,0,1.018.01,1.526,0,.243-.007.347.038.354.32.029,1.22.04,1.22-1.2,1.22Z" transform="translate(-13.38 -188.025)" fill="#070605"/>
    <path id="Trazado_123734" data-name="Trazado 123734" d="M799.3,744.122c-.761,0-.761,0-.761-.77s0-.771.767-.771.771,0,.771.777S800.072,744.122,799.3,744.122Z" transform="translate(-13.443 -161.175)" fill="#070605"/>
    <path id="Trazado_123735" data-name="Trazado 123735" d="M808.341,603.942c0,.37-.023.741.007,1.108.027.34-.109.4-.42.4-1.108-.007-1.109,0-1.108-1.1,0-.555.007-1.109,0-1.663,0-.213.063-.287.287-.3,1.238-.083,1.238-.09,1.238,1.143Q808.341,603.734,808.341,603.942Z" transform="translate(-20.19 -46.928)" fill="#030202"/>
    <path id="Trazado_123736" data-name="Trazado 123736" d="M824.866,603.91c0,.185.01.37,0,.554-.022.317.152.783-.074.919-.352.21-.837.058-1.266.066-.176,0-.176-.137-.176-.263,0-.847,0-1.694,0-2.54,0-.173.061-.261.241-.245a.273.273,0,0,0,.046,0c1.233-.091,1.233-.091,1.233,1.142Z" transform="translate(-33.657 -46.939)" fill="#030202"/>
    <path id="Trazado_123737" data-name="Trazado 123737" d="M841.362,603.983c0,.385-.023.771.007,1.154.026.34-.111.4-.421.4-1.1-.007-1.1,0-1.1-1.105,0-.539.011-1.078,0-1.616-.007-.252.063-.341.333-.349,1.19-.035,1.189-.045,1.189,1.146Z" transform="translate(-47.095 -47.015)" fill="#030202"/>
    <path id="Trazado_123738" data-name="Trazado 123738" d="M954.017,706.885A6.878,6.878,0,1,1,960.888,700,6.909,6.909,0,0,1,954.017,706.885ZM959.351,700A5.346,5.346,0,1,0,954,705.347,5.339,5.339,0,0,0,959.351,700Z" transform="translate(-134.494 -120.886)" fill="#040402"/>
    <path id="Trazado_123739" data-name="Trazado 123739" d="M852.224,665.069c-.339.076-.651.137-.96.216a2.195,2.195,0,0,0-1.732,2.171,18.719,18.719,0,0,0,.106,3.64,4.329,4.329,0,0,0,1.513,2.476.886.886,0,0,1-.121,1.328,5.061,5.061,0,0,0-.97.622c-.2.185-.348.161-.543-.025a4.642,4.642,0,0,1-1.529-3.356c-.037-2.033-.041-4.067,0-6.1a6.115,6.115,0,0,1,12.134-.85,8.457,8.457,0,0,1,.086,1.426q0,2.7,0,5.407a4.7,4.7,0,0,1-1.51,3.456c-.2.2-.348.234-.575.026a5.077,5.077,0,0,0-.726-.491c-.176-.112-.366-.164-.471-.4a.856.856,0,0,1,.261-1.2,4.313,4.313,0,0,0,1.511-3.393c.012-.708.007-1.417,0-2.126a2.3,2.3,0,0,0-2.416-2.411,3.352,3.352,0,0,1-1.913-.405,2.3,2.3,0,0,1-.931-1.06c-.112-.275-.251-.292-.488-.2a3.932,3.932,0,0,1-.743.251c-.369.069-.359.246-.21.51C852.078,664.733,852.14,664.889,852.224,665.069Z" transform="translate(-53.709 -93.996)" fill="#a8794d"/>
    <path id="Trazado_123740" data-name="Trazado 123740" d="M870.642,696.771a8.344,8.344,0,0,1-.075,1.568,3.056,3.056,0,0,1-6.034-.577c-.03-.861-.012-1.725-.006-2.587a.76.76,0,0,1,.655-.822l1.628-.337a.6.6,0,0,1,.44.079,4.35,4.35,0,0,0,2.221.522c1.006,0,1.171.17,1.171,1.189Zm-3.72,2.417a3.54,3.54,0,0,0,2.5-.766c.163-.141.253-.242.041-.426-.256-.221-.487-.472-.725-.714-.1-.1-.17-.153-.3-.036a2.37,2.37,0,0,1-1.7.43c-.663-.007-.663,0-.663.645C866.068,699.189,866.068,699.189,866.922,699.189Z" transform="translate(-67.2 -121.597)" fill="#e7ceb4"/>
    <path id="Trazado_123741" data-name="Trazado 123741" d="M861.913,750.733c-1.341,0-2.682-.015-4.023.009-.4.007-.425-.136-.354-.459A3.572,3.572,0,0,1,859.054,748a.4.4,0,0,1,.621.063c.636.67,1.311,1.3,1.952,1.968.2.209.314.2.51,0,.641-.665,1.314-1.3,1.951-1.97a.4.4,0,0,1,.62-.057,3.613,3.613,0,0,1,1.538,2.423c.064.34-.093.311-.309.311Q863.925,750.73,861.913,750.733Z" transform="translate(-61.488 -165.491)" fill="#e88471"/>
    <path id="Trazado_123742" data-name="Trazado 123742" d="M874.035,737.848a4.428,4.428,0,0,0,1.965,0c.157-.034.248.033.268.168.031.209.264.409.032.636-.384.376-.767.753-1.139,1.142-.151.158-.232.058-.333-.043-.358-.359-.71-.724-1.079-1.072-.258-.243-.013-.446.021-.666C873.8,737.855,873.888,737.809,874.035,737.848Z" transform="translate(-74.626 -157.307)" fill="#e7ceb4"/>
    <path id="Trazado_123743" data-name="Trazado 123743" d="M966.14,706.789a5.346,5.346,0,1,1-5.367-5.328A5.34,5.34,0,0,1,966.14,706.789Zm-6.119,2.216v.461c0,1.2,0,1.186,1.218,1.163.267-.005.334-.085.329-.34-.015-.769.014-1.539-.014-2.307a.731.731,0,0,1,.426-.786,2.214,2.214,0,0,0,1.049-2.454,2.293,2.293,0,0,0-4.37-.3,2.064,2.064,0,0,0,.7,2.551,1.339,1.339,0,0,1,.668,1.507C960.013,708.666,960.022,708.836,960.022,709.005Z" transform="translate(-141.283 -127.674)" fill="#f9e8ad"/>
    <path id="Trazado_123744" data-name="Trazado 123744" d="M873.742,713.165c-.854,0-.854,0-.854-.867,0-.647,0-.652.663-.645a2.37,2.37,0,0,0,1.7-.43c.134-.117.209-.061.3.036.238.242.469.492.725.714.212.183.122.285-.041.426A3.541,3.541,0,0,1,873.742,713.165Z" transform="translate(-74.02 -135.574)" fill="#040402"/>
    <path id="Trazado_123745" data-name="Trazado 123745" d="M973.4,715.655c0-.169-.009-.339,0-.508a1.339,1.339,0,0,0-.668-1.508,2.064,2.064,0,0,1-.7-2.551,2.293,2.293,0,0,1,4.37.3,2.214,2.214,0,0,1-1.049,2.454.731.731,0,0,0-.426.786c.028.768,0,1.538.014,2.307.005.255-.063.335-.329.34-1.218.023-1.218.032-1.218-1.163Zm1.536-3.726a.763.763,0,1,0-.784.741A.759.759,0,0,0,974.937,711.929Z" transform="translate(-154.663 -134.324)" fill="#040404"/>
    <path id="Trazado_123746" data-name="Trazado 123746" d="M981.708,718.718a.763.763,0,1,1-.766-.761A.755.755,0,0,1,981.708,718.718Z" transform="translate(-161.434 -141.113)" fill="#7cd1b3"/>
  </g>
</svg>
