<svg id="Grupo_81332" data-name="Grupo 81332" xmlns="http://www.w3.org/2000/svg" width="315" height="196" viewBox="0 0 315 196">
  <rect id="Rectángulo_33807" data-name="Rectángulo 33807" width="315" height="196" fill="#d5cef8"/>
  <g id="Grupo_80172" data-name="Grupo 80172" transform="translate(0.001 0)">
    <path id="hacker-working-in-the-darkness" d="M0,66.349H39.557A42.447,42.447,0,0,1,85,38.692V.189Q82.251,0,79.455,0A80.757,80.757,0,0,0,0,66.349Z" transform="translate(84.999 66.349) rotate(180)" fill="#ab9df1"/>
    <ellipse id="Elipse_4720" data-name="Elipse 4720" cx="2.576" cy="2.576" rx="2.576" ry="2.576" transform="translate(69.791 15.87) rotate(180)" fill="#ab9df1"/>
  </g>
  <g id="Grupo_80173" data-name="Grupo 80173" transform="translate(315 196) rotate(180)">
    <path id="hacker-working-in-the-darkness-2" data-name="hacker-working-in-the-darkness" d="M0,66.349H39.557A42.447,42.447,0,0,1,85,38.692V.189Q82.251,0,79.455,0A80.757,80.757,0,0,0,0,66.349Z" transform="translate(84.999 66.349) rotate(180)" fill="#e4deff"/>
    <ellipse id="Elipse_4720-2" data-name="Elipse 4720" cx="2.576" cy="2.576" rx="2.576" ry="2.576" transform="translate(69.791 15.87) rotate(180)" fill="#e4deff"/>
  </g>
</svg>
