<svg id="Grupo_81330" data-name="Grupo 81330" xmlns="http://www.w3.org/2000/svg" width="67" height="105" viewBox="0 0 67 105">
  <rect id="Rectángulo_34185" data-name="Rectángulo 34185" width="67" height="105" rx="5" fill="#fff"/>
  <g id="Grupo_84757" data-name="Grupo 84757" transform="translate(8.31 8.183)">
    <path id="Trazado_123652" data-name="Trazado 123652" d="M402.417,143.885c-.586.3-.823.26-1.232-.232a23.542,23.542,0,0,1,26.682-37.024c.308.122.441.086.586-.226.385-.829.8-1.643,1.228-2.453a3.837,3.837,0,0,1,3.6-2.225,3.777,3.777,0,0,1,3.562,2.2q4.411,8.747,8.779,17.516a3.954,3.954,0,0,1-2.479,5.61c-.338.1-.385.233-.372.539a23.39,23.39,0,0,1-15.92,23.15c-8.3,2.725-15.923,1.221-22.765-4.2-.548-.435-.592-.64-.335-1.212.5-.382.714-.386,1.209.026a22.265,22.265,0,0,0,4.122,2.743,21.982,21.982,0,0,0,12.375,2.347,18.051,18.051,0,0,0,5.007-1.144c.11-.01.225,0,.3-.109l-.006,0c.156-.046.316-.079.466-.138A22.064,22.064,0,0,0,441.3,128.68c.018-1.766.339-1.439-1.552-1.427-.319-.074-.255.142-.246.32a19.094,19.094,0,0,1-.376,4.931,20.3,20.3,0,0,1-18.448,16.2,19.848,19.848,0,0,1-13.732-4.047,1.545,1.545,0,0,1-.184-2.464c.353-.365.72-.717,1.076-1.079.1-.1.234-.176.118-.365-.28-.458-.54-.927-.838-1.441-.525.529-1.027,1.041-1.537,1.545a1.581,1.581,0,0,1-2.63-.207,20.23,20.23,0,0,1,.888-25.347c.438-.513.618-.55,1.235-.3a.857.857,0,0,1-.056,1.192,18.5,18.5,0,0,0-4.54,14.165,18.292,18.292,0,0,0,3.638,9.387c.194.262.3.191.481.007.537-.552,1.073-1.106,1.638-1.629a.768.768,0,0,0,.256-.9,4.774,4.774,0,0,1-.2-1.306c-.021-3.372-.049-6.745-.01-10.117a3.134,3.134,0,0,1,2.7-2.886,3.556,3.556,0,0,1,2.151.429v-.595c0-1.572-.014-3.143,0-4.715a3.182,3.182,0,0,1,3.624-3.264,5.755,5.755,0,0,1,1.247.4c.128-2.082.855-3.165,2.4-3.578a3.1,3.1,0,0,1,2.331.277,3.351,3.351,0,0,1,1.528,1.815,3.14,3.14,0,0,1,2.479-.5c.222.053.324-.027.414-.216.267-.56.535-1.12.83-1.666.132-.244.075-.327-.168-.416a18.827,18.827,0,0,0-8.648-1.074,18.394,18.394,0,0,0-9.509,3.871.846.846,0,0,1-1.192.013c-.249-.592-.205-.819.286-1.183a20.171,20.171,0,0,1,18.829-3.272c.411.125.872.537,1.214.324.321-.2.412-.753.633-1.135.164-.285.058-.383-.21-.487a21.7,21.7,0,0,0-11.058-1.282,22.1,22.1,0,0,0-18.7,25.655,21.175,21.175,0,0,0,4.812,10.328A.9.9,0,0,1,402.417,143.885Zm30.734-40.675a2.493,2.493,0,0,0-2.242,1.565q-2.164,4.341-4.342,8.675-2.138,4.272-4.272,8.545a2.506,2.506,0,0,0,.4,2.991,2.693,2.693,0,0,0,2.054.765q8.387,0,16.773,0c.162,0,.325-.025.488-.039a2.236,2.236,0,0,0,2.034-.958,2.49,2.49,0,0,0,.182-2.815q-2.515-5-5.012-10-1.8-3.6-3.6-7.193A2.46,2.46,0,0,0,433.152,103.209Zm-8.961,40.449a8.881,8.881,0,0,0,6.467-7.9c.122-2.742.035-5.493.046-8.241,0-.193-.029-.309-.264-.3-.408.022-.816.023-1.225.033-.294-.01-.588-.029-.882-.03-1.03,0-1.03,0-1.04,1,0,.1,0,.2-.008.294a.719.719,0,0,1-.726.714.707.707,0,0,1-.734-.7,9.025,9.025,0,0,1-.01-.982c.006-.212-.032-.335-.291-.329a5.2,5.2,0,0,1-3.118-.591c0,.408.014.719,0,1.029a.76.76,0,0,1-.734.773.745.745,0,0,1-.736-.808c-.01-.606-.013-1.212,0-1.818a3.287,3.287,0,0,0-.21-1.289,3.745,3.745,0,0,1,.058-2.779,1.391,1.391,0,0,0,.151-.511c0-2.195.01-4.389-.011-6.584a1.666,1.666,0,0,0-1.367-1.636,1.7,1.7,0,0,0-2.049,1.787q-.007,6.264,0,12.529a3.3,3.3,0,0,1-.008.442.733.733,0,0,1-1.452.049,2.375,2.375,0,0,1-.017-.49q0-4.618,0-9.237a1.712,1.712,0,1,0-3.413-.026c-.008,3.931,0,7.861-.011,11.792,0,.326.119.412.413.457a7.234,7.234,0,0,1,5.939,5.5,6.328,6.328,0,0,1,.182,1.655.731.731,0,0,1-1.46.039c-.024-.195-.031-.392-.05-.587a5.711,5.711,0,0,0-4.833-5.141,1.661,1.661,0,0,1-1.662-1.951c0-1.245.01-2.489-.005-3.734a1.67,1.67,0,0,0-1.313-1.675,1.708,1.708,0,0,0-2.078,1.8c-.009,2.964,0,5.929,0,8.893a9.671,9.671,0,0,0,.115,1.418,9.047,9.047,0,0,0,7.927,7.455c2.1.174,4.2.068,6.3.055A6.273,6.273,0,0,0,424.191,143.658Zm7.989-11.652a34.356,34.356,0,0,1-.2,5.092,10.534,10.534,0,0,1-9.3,8.359,60.181,60.181,0,0,1-6.2.05,10.21,10.21,0,0,1-7.2-3.135c-.229-.23-.363-.31-.594-.02a5.142,5.142,0,0,1-.694.7c-.264.224-.272.356.032.576a18.2,18.2,0,0,0,14.03,3.442,18.4,18.4,0,0,0,14.408-11.037,17.941,17.941,0,0,0,1.576-8.359c-.014-.356-.119-.461-.486-.456q-2.46.034-4.921,0c-.38-.005-.461.107-.456.467C432.193,129.023,432.18,130.366,432.18,132.006Zm-9.763-13.754.088.017,1.822-3.651a1.674,1.674,0,0,0-1.9,1.493C422.386,116.823,422.417,117.539,422.417,118.252Z" transform="translate(-395.671 -101.724)" fill="#040303"/>
    <path id="Trazado_123653" data-name="Trazado 123653" d="M432.424,168.546a18.05,18.05,0,0,1-5.007,1.144,21.981,21.981,0,0,1-12.375-2.347,22.266,22.266,0,0,1-4.122-2.743c-.495-.411-.711-.408-1.209-.026-.4-.518-.97-.884-1.332-1.44a.9.9,0,0,0-.137-1.232,21.175,21.175,0,0,1-4.812-10.328A22.091,22.091,0,0,1,433.186,127.2c.269.1.375.2.21.487-.22.382-.311.935-.633,1.135-.342.213-.8-.2-1.214-.324a20.171,20.171,0,0,0-18.829,3.272c-.492.364-.535.591-.286,1.183l-1.4,1.3c-.617-.255-.8-.218-1.235.3a20.23,20.23,0,0,0-.888,25.347,1.581,1.581,0,0,0,2.63.207c.509-.5,1.011-1.016,1.537-1.545.3.514.558.983.838,1.441.116.189-.023.268-.119.365-.356.362-.723.714-1.076,1.079a1.545,1.545,0,0,0,.184,2.464,19.848,19.848,0,0,0,13.732,4.047,20.3,20.3,0,0,0,18.447-16.2,19.086,19.086,0,0,0,.376-4.931c-.01-.178-.074-.395.246-.32a24.464,24.464,0,0,1-.653,6.836,22.381,22.381,0,0,1-4.911,9.363,21.811,21.811,0,0,1-6.923,5.381c-.185.089-.416.128-.506.357l.006,0C432.607,168.428,432.489,168.414,432.424,168.546Z" transform="translate(-401.632 -120.974)" fill="#e8707f"/>
    <path id="Trazado_123654" data-name="Trazado 123654" d="M473.363,189.522a6.274,6.274,0,0,1-2.119.373c-2.1.014-4.2.119-6.3-.055a9.047,9.047,0,0,1-7.927-7.455,9.654,9.654,0,0,1-.115-1.418c0-2.964-.008-5.929,0-8.893a1.708,1.708,0,0,1,2.078-1.8,1.67,1.67,0,0,1,1.313,1.675c.015,1.245,0,2.489.005,3.734a1.661,1.661,0,0,0,1.661,1.951,5.711,5.711,0,0,1,4.833,5.141c.019.2.026.393.05.587a.731.731,0,0,0,1.46-.039,6.33,6.33,0,0,0-.182-1.655,7.233,7.233,0,0,0-5.939-5.5c-.294-.045-.414-.131-.413-.457.012-3.931,0-7.861.011-11.792a1.712,1.712,0,1,1,3.413.026q0,4.618,0,9.237a2.368,2.368,0,0,0,.017.49.733.733,0,0,0,1.452-.049,3.3,3.3,0,0,0,.008-.442q0-6.264,0-12.529a1.7,1.7,0,0,1,2.049-1.787,1.666,1.666,0,0,1,1.367,1.636c.021,2.194.007,4.389.011,6.584a1.393,1.393,0,0,1-.151.511,3.745,3.745,0,0,0-.058,2.779,3.286,3.286,0,0,1,.21,1.289c-.013.606-.01,1.212,0,1.818a.745.745,0,0,0,.736.807.76.76,0,0,0,.734-.773c.018-.31,0-.621,0-1.029a5.194,5.194,0,0,0,3.117.591c.259-.007.3.116.291.329a9.018,9.018,0,0,0,.01.982.707.707,0,0,0,.734.7.719.719,0,0,0,.726-.714c.011-.1.007-.2.008-.294.01-1,.01-1,1.039-1,.294,0,.588.019.882.03,0,1.667.008,3.335,0,5a25.453,25.453,0,0,1-.188,4.488,9.787,9.787,0,0,1-3.451,5.858C474.3,188.842,473.717,189.032,473.363,189.522Z" transform="translate(-444.843 -147.588)" fill="#f8decf"/>
    <path id="Trazado_123655" data-name="Trazado 123655" d="M549.269,131.764c-.162.013-.325.039-.488.039q-8.387,0-16.773,0a2.693,2.693,0,0,1-2.054-.765,2.506,2.506,0,0,1-.4-2.991q2.127-4.277,4.272-8.545,2.171-4.337,4.342-8.675a2.493,2.493,0,0,1,2.242-1.565,4.526,4.526,0,0,1,.743.967q4.394,8.777,8.783,17.557a3.2,3.2,0,0,1-.115,3.186C549.659,131.259,549.314,131.406,549.269,131.764Zm-8.727-17.892v.017c-.229,0-.459-.01-.689,0a2.321,2.321,0,0,0-2.315,2.466q.178,2.471.488,4.932a2.467,2.467,0,0,0,2.666,2.209,2.549,2.549,0,0,0,2.385-2.43q.2-2.224.449-4.443a2.371,2.371,0,0,0-2.052-2.7C541.168,113.878,540.853,113.888,540.543,113.872Zm2.347,13.783a2.367,2.367,0,1,0-2.375,2.354A2.339,2.339,0,0,0,542.89,127.655Z" transform="translate(-502.932 -107.781)" fill="#f9de67"/>
    <path id="Trazado_123656" data-name="Trazado 123656" d="M424.338,147.56l1.4-1.3a.846.846,0,0,0,1.192-.013,18.394,18.394,0,0,1,9.509-3.871,18.827,18.827,0,0,1,8.648,1.074c.243.09.3.173.168.416-.295.546-.563,1.106-.83,1.666-.09.189-.193.27-.414.216a3.14,3.14,0,0,0-2.479.5A3.351,3.351,0,0,0,440,144.436a3.1,3.1,0,0,0-2.331-.277c-1.548.413-2.275,1.5-2.4,3.578a5.754,5.754,0,0,0-1.247-.4A3.182,3.182,0,0,0,430.4,150.6c-.018,1.571,0,3.143,0,4.715v.595a3.556,3.556,0,0,0-2.151-.429,3.134,3.134,0,0,0-2.7,2.886c-.039,3.372-.011,6.744.01,10.117a4.772,4.772,0,0,0,.2,1.306.768.768,0,0,1-.256.9c-.565.522-1.1,1.077-1.638,1.629-.179.184-.287.254-.481-.007a18.292,18.292,0,0,1-3.638-9.387,18.5,18.5,0,0,1,4.54-14.165A.857.857,0,0,0,424.338,147.56Z" transform="translate(-414.931 -134.282)" fill="#faf3f3"/>
    <path id="Trazado_123657" data-name="Trazado 123657" d="M481.6,235.935c0-1.64.013-2.983-.009-4.326-.006-.361.076-.473.456-.467q2.46.034,4.922,0c.367-.005.472.1.486.456a17.941,17.941,0,0,1-1.576,8.359,18.4,18.4,0,0,1-14.408,11.037,18.2,18.2,0,0,1-14.03-3.442c-.3-.22-.3-.352-.031-.576a5.138,5.138,0,0,0,.694-.7c.232-.29.365-.211.594.02a10.211,10.211,0,0,0,7.2,3.135,60.182,60.182,0,0,0,6.2-.05,10.534,10.534,0,0,0,9.3-8.359A34.348,34.348,0,0,0,481.6,235.935Z" transform="translate(-445.095 -205.653)" fill="#faf2f2"/>
    <path id="Trazado_123658" data-name="Trazado 123658" d="M594.833,131.75c.046-.358.39-.505.555-.788a3.2,3.2,0,0,0,.115-3.186q-4.368-8.79-8.783-17.557a4.525,4.525,0,0,0-.743-.967,2.46,2.46,0,0,1,2.458,1.534q1.8,3.6,3.6,7.193,2.5,5,5.012,10a2.49,2.49,0,0,1-.182,2.815A2.236,2.236,0,0,1,594.833,131.75Z" transform="translate(-548.496 -107.766)" fill="#e8b94c"/>
    <path id="Trazado_123659" data-name="Trazado 123659" d="M553.506,253.153c.09-.229.322-.268.506-.357a21.813,21.813,0,0,0,6.923-5.381,22.38,22.38,0,0,0,4.911-9.363,24.46,24.46,0,0,0,.653-6.836c1.891-.013,1.57-.34,1.552,1.427a22.065,22.065,0,0,1-14.079,20.372C553.822,253.073,553.662,253.107,553.506,253.153Z" transform="translate(-522.42 -205.686)" fill="#e55362"/>
    <path id="Trazado_123660" data-name="Trazado 123660" d="M540.481,247.616c.353-.49.936-.681,1.38-1.055a9.787,9.787,0,0,0,3.451-5.858,25.464,25.464,0,0,0,.188-4.488c.013-1.667,0-3.335,0-5,.408-.01.817-.011,1.225-.033.234-.013.265.1.264.3-.011,2.747.076,5.5-.046,8.241A8.881,8.881,0,0,1,540.481,247.616Z" transform="translate(-511.96 -205.682)" fill="#eec4bc"/>
    <path id="Trazado_123661" data-name="Trazado 123661" d="M531.425,170.813c0-.714-.031-1.429.008-2.141a1.674,1.674,0,0,1,1.9-1.493l-1.822,3.651Z" transform="translate(-504.679 -154.285)" fill="#f4dacc"/>
    <path id="Trazado_123662" data-name="Trazado 123662" d="M552.01,342.8c.065-.132.183-.119.3-.109C552.235,342.795,552.12,342.789,552.01,342.8Z" transform="translate(-521.219 -295.227)" fill="#e55362"/>
    <path id="Trazado_123663" data-name="Trazado 123663" d="M574.357,132.654c.311.016.625.006.931.051a2.37,2.37,0,0,1,2.052,2.7q-.246,2.219-.449,4.443a2.549,2.549,0,0,1-2.385,2.43,2.467,2.467,0,0,1-2.666-2.209q-.314-2.457-.488-4.932a2.321,2.321,0,0,1,2.315-2.466c.229-.012.459,0,.689,0Zm-.011,1.493v.01a5.8,5.8,0,0,0-.736.005.821.821,0,0,0-.781.9c.137,1.612.29,3.224.475,4.831a1,1,0,0,0,1.091.91,1.053,1.053,0,0,0,1.013-1.008q.24-2.292.467-4.586a.908.908,0,0,0-.89-1.063C574.773,134.132,574.559,134.147,574.346,134.147Z" transform="translate(-536.746 -126.562)" fill="#040402"/>
    <path id="Trazado_123664" data-name="Trazado 123664" d="M579.252,192.964a2.339,2.339,0,0,1-2.375,2.354,2.365,2.365,0,0,1-2.358-2.333,2.367,2.367,0,1,1,4.733-.021Zm-1.479-.007a.894.894,0,0,0-.862-.889.921.921,0,0,0-.914.9.893.893,0,0,0,.924.876A.86.86,0,0,0,577.773,192.957Z" transform="translate(-539.294 -173.089)" fill="#040402"/>
    <path id="Trazado_123665" data-name="Trazado 123665" d="M580.376,140.21c.213,0,.427-.015.639,0a.908.908,0,0,1,.889,1.063q-.226,2.294-.467,4.586a1.053,1.053,0,0,1-1.013,1.008,1,1,0,0,1-1.091-.91c-.185-1.607-.337-3.219-.475-4.831a.821.821,0,0,1,.781-.9,5.8,5.8,0,0,1,.736-.005Z" transform="translate(-542.776 -132.626)" fill="#f8f0f0"/>
    <path id="Trazado_123666" data-name="Trazado 123666" d="M583.8,198.975a.861.861,0,0,1-.853.885.893.893,0,0,1-.924-.876.921.921,0,0,1,.914-.9A.894.894,0,0,1,583.8,198.975Z" transform="translate(-545.321 -179.107)" fill="#f5eded"/>
  </g>
</svg>
