<svg id="Grupo_84800" data-name="Grupo 84800" xmlns="http://www.w3.org/2000/svg" width="93" height="93" viewBox="0 0 93 93">
  <rect id="Rectángulo_34442" data-name="Rectángulo 34442" width="93" height="93" fill="none"/>
  <g id="Grupo_84801" data-name="Grupo 84801" transform="translate(12.802 12.804)">
    <path id="Trazado_123821" data-name="Trazado 123821" d="M433.4,409.53q4.351,0,8.7,0a3.378,3.378,0,0,1,3.618,3.645q.005,5.334,0,10.668a3.386,3.386,0,0,1-3.68,3.655c-1.24,0-2.48.013-3.72-.008-.361-.006-.514.087-.466.463a2.788,2.788,0,0,1,0,.631,1.607,1.607,0,0,0,.9,1.9,2.568,2.568,0,0,1,1.295,2.142,19,19,0,0,1,.024,2.873,1.011,1.011,0,0,1-1.094.974q-5.615.018-11.229,0a1.008,1.008,0,0,1-1.1-.969,17,17,0,0,1,.038-2.941,3,3,0,0,1,1.741-2.393.655.655,0,0,0,.444-.741c-.053-.623.256-1.447-.115-1.821s-1.2-.095-1.82-.108c-.842-.017-1.685.005-2.527-.006a3.346,3.346,0,0,1-3.4-3.367q-.027-5.614,0-11.229a3.333,3.333,0,0,1,3.4-3.367C427.413,409.519,430.407,409.53,433.4,409.53Zm-2.256,19.1a3.306,3.306,0,0,1-.025.417c-.11.592.138.747.713.714.9-.052,1.814-.014,2.722-.014,1.093,0,1.093,0,1.037-1.117a3.17,3.17,0,0,1,.024-.347c.111-.635-.139-.837-.782-.8-.9.058-1.815.015-2.722.015-1.013,0-1.013,0-.985.991A1.389,1.389,0,0,0,431.146,428.628Zm12.307-14.885c.008-.163.023-.326.023-.49,0-1.1-.372-1.471-1.468-1.477-.327,0-.655,0-.983,0q-8.176,0-16.353,0c-.927,0-1.4.375-1.4,1.182-.018,2.456,0,4.913-.014,7.369,0,.332.093.44.433.438q6.035-.027,12.07-.03c2.43.008,4.859.01,7.289.029.335,0,.439-.1.436-.436C443.463,418.135,443.461,415.939,443.453,413.743Zm-10.085,9.264h-1.614c-2.644,0-5.287,0-7.93.009-.188,0-.466-.169-.565.206a1.462,1.462,0,0,0,1.549,2.031h17.054c1.288,0,1.591-.334,1.63-1.611.016-.528-.125-.653-.649-.649C439.685,423.02,436.526,423.007,433.368,423.007Zm0,11.231c1.331,0,2.662,0,3.993,0,.182,0,.41.1.5-.219a1.451,1.451,0,0,0-1.481-2.022q-2.907,0-5.813,0c-1.4,0-1.722.343-1.7,1.74.006.391.106.522.509.515C430.707,434.223,432.038,434.237,433.369,434.237Z" transform="translate(-421.008 -409.526)" fill="#010101"/>
    <path id="Trazado_123822" data-name="Trazado 123822" d="M585.351,409.53q4.351,0,8.7,0a3.375,3.375,0,0,1,3.625,3.639q.006,5.369,0,10.738a3.373,3.373,0,0,1-3.6,3.592c-1.263,0-2.527.012-3.79-.006-.348-.005-.527.066-.473.455a2.819,2.819,0,0,1,0,.631c-.072.81-.025,1.475.9,1.9a2.512,2.512,0,0,1,1.24,1.868,12.63,12.63,0,0,1,.074,3.214c-.031.615-.562.918-1.358.918q-4.808,0-9.615,0c-.445,0-.889.013-1.333-.005a1.026,1.026,0,0,1-1.1-.964,16.429,16.429,0,0,1,.035-2.941,3.024,3.024,0,0,1,1.8-2.428.577.577,0,0,0,.388-.636c-.035-.648.2-1.481-.124-1.894-.3-.386-1.18-.1-1.8-.111-.865-.018-1.732.009-2.6-.008a3.343,3.343,0,0,1-3.336-3.359q-.027-5.614,0-11.229a3.334,3.334,0,0,1,3.39-3.373C579.362,409.518,582.356,409.53,585.351,409.53Zm2.2,19.1a3.249,3.249,0,0,1,.024-.347c.111-.635-.139-.837-.782-.8-.9.058-1.815.015-2.722.015-1.013,0-1.013,0-.984.991a1.318,1.318,0,0,0,.018.138,3.266,3.266,0,0,1-.025.417c-.109.592.139.747.714.714.9-.052,1.814-.014,2.722-.014C587.606,429.745,587.606,429.745,587.549,428.628Zm.165-7.891c2.43.008,4.859.01,7.289.029.335,0,.44-.1.437-.436-.02-2.2-.022-4.392-.03-6.588.008-.163.023-.326.023-.49,0-1.1-.372-1.471-1.468-1.477-.327,0-.655,0-.982,0q-8.177,0-16.353,0c-.927,0-1.4.375-1.4,1.182-.017,2.456,0,4.913-.014,7.369,0,.332.093.44.432.438Q581.679,420.74,587.714,420.737Zm-2.385,2.27h-.912c-2.877,0-5.755,0-8.632.009-.189,0-.466-.169-.568.2a1.464,1.464,0,0,0,1.543,2.036h17.054c1.291,0,1.6-.333,1.633-1.606.015-.518-.11-.659-.643-.654C591.645,423.021,588.487,423.006,585.329,423.006Zm-.034,11.231c1.331,0,2.662.005,3.992-.006.181,0,.416.115.524-.189a1.461,1.461,0,0,0-1.445-2.05q-2.942-.005-5.884,0c-1.354,0-1.664.343-1.661,1.71,0,.435.122.555.552.546C582.68,434.22,583.988,434.237,585.3,434.237Z" transform="translate(-530.286 -409.526)" fill="#010101"/>
    <path id="Trazado_123823" data-name="Trazado 123823" d="M585.31,553.486q4.386,0,8.773,0a3.37,3.37,0,0,1,3.6,3.592q.008,5.4,0,10.808a3.367,3.367,0,0,1-3.556,3.567c-1.24.006-2.48.03-3.719-.012-.515-.018-.665.155-.587.625a1.158,1.158,0,0,1,0,.28c-.072.892-.064,1.662.968,2.151a2.43,2.43,0,0,1,1.217,2.035,19.071,19.071,0,0,1,.03,2.942,1.011,1.011,0,0,1-1.107.958q-5.614.014-11.229,0a.988.988,0,0,1-1.071-.916,12.313,12.313,0,0,1,.058-3.146,3.1,3.1,0,0,1,1.726-2.251.623.623,0,0,0,.433-.678,8.888,8.888,0,0,1,0-1.472c.045-.466-.149-.53-.554-.522-1.286.024-2.573.018-3.86.007A3.352,3.352,0,0,1,572.98,568q-.017-5.544,0-11.089a3.339,3.339,0,0,1,3.416-3.42C579.368,553.476,582.339,553.486,585.31,553.486Zm-2.2,19.1a3.267,3.267,0,0,1-.025.417c-.109.591.138.747.714.714.9-.051,1.814-.013,2.722-.013,1.093,0,1.093,0,1.037-1.117a3.25,3.25,0,0,1,.024-.347c.111-.635-.14-.837-.782-.8-.9.058-1.814.015-2.722.015-1.013,0-1.013,0-.985.99A1.29,1.29,0,0,0,583.107,572.584Zm4.612-7.891c2.43.008,4.859.01,7.289.029.335,0,.439-.1.436-.436-.02-2.2-.022-4.392-.03-6.588.008-.163.023-.326.023-.489,0-1.1-.372-1.471-1.468-1.477-.327,0-.655,0-.982,0q-8.177,0-16.353,0c-.927,0-1.4.375-1.4,1.182-.017,2.456,0,4.913-.014,7.369,0,.332.093.44.433.438Q581.684,564.7,587.719,564.694Zm-2.318,2.27h-1.474c-2.714,0-5.428,0-8.141.009-.189,0-.466-.169-.566.2a1.463,1.463,0,0,0,1.546,2.033h17.054c1.289,0,1.593-.333,1.632-1.609.015-.523-.118-.656-.647-.651C591.671,566.977,588.536,566.963,585.4,566.963Zm-.143,11.231c1.354,0,2.709,0,4.063-.005.182,0,.41.1.5-.217a1.452,1.452,0,0,0-1.48-2.023q-2.906,0-5.813,0c-1.4,0-1.722.343-1.7,1.738.006.39.1.524.508.517C582.644,578.179,583.951,578.194,585.259,578.194Z" transform="translate(-530.291 -513.052)" fill="#010101"/>
    <path id="Trazado_123824" data-name="Trazado 123824" d="M433.382,553.488q4.351,0,8.7,0a3.376,3.376,0,0,1,3.638,3.625q.007,5.369,0,10.738a3.373,3.373,0,0,1-3.589,3.6c-1.24,0-2.481.026-3.719-.012-.482-.015-.617.151-.554.588a1.984,1.984,0,0,1,0,.42c-.062.847-.067,1.581.94,2.025a2.418,2.418,0,0,1,1.193,1.818,12.651,12.651,0,0,1,.079,3.214c-.029.62-.557.93-1.348.931q-4.246.005-8.492,0c-.772,0-1.544.009-2.316,0a1.147,1.147,0,0,1-1.284-1.3c-.009-.7-.021-1.4.005-2.105a3.223,3.223,0,0,1,1.783-2.892c.332-.177.495-.337.465-.729-.047-.625.2-1.449-.114-1.827-.328-.4-1.181-.1-1.8-.12-.865-.021-1.731.007-2.6-.009a3.342,3.342,0,0,1-3.349-3.346q-.029-5.614,0-11.229a3.341,3.341,0,0,1,3.448-3.388C427.439,553.48,430.411,553.488,433.382,553.488Zm-2.236,19.1a3.311,3.311,0,0,1-.025.417c-.109.591.138.747.713.714.9-.051,1.814-.013,2.722-.013,1.093,0,1.093,0,1.037-1.117a3.176,3.176,0,0,1,.024-.347c.111-.635-.14-.837-.782-.8-.9.058-1.814.015-2.722.015-1.013,0-1.013,0-.985.99A1.375,1.375,0,0,0,431.146,572.586ZM443.453,557.7c.008-.163.023-.326.023-.49,0-1.1-.372-1.471-1.468-1.477-.328,0-.655,0-.983,0q-8.176,0-16.353,0c-.927,0-1.4.375-1.4,1.182-.018,2.456,0,4.913-.014,7.369,0,.332.093.44.432.438q6.035-.027,12.07-.029c2.43.008,4.859.01,7.289.029.335,0,.439-.1.436-.436C443.463,562.093,443.461,559.9,443.453,557.7Zm-10.085,9.264h-1.614c-2.643,0-5.287,0-7.931.009-.188,0-.465-.169-.564.206a1.462,1.462,0,0,0,1.549,2.031h17.054c1.288,0,1.591-.334,1.63-1.611.016-.527-.124-.653-.649-.648C439.684,566.979,436.526,566.965,433.368,566.965Zm-.005,11.231c1.331,0,2.662,0,3.993-.005.182,0,.411.1.505-.213a1.453,1.453,0,0,0-1.474-2.027q-2.906,0-5.813,0c-1.409,0-1.716.34-1.71,1.734,0,.471.187.525.578.52C430.748,578.184,432.056,578.2,433.363,578.2Z" transform="translate(-421.008 -513.053)" fill="#010101"/>
    <path id="Trazado_123825" data-name="Trazado 123825" d="M524.823,452.2c0,2.573-.021,5.146.016,7.719.008.579-.181.675-.7.665-1.563-.03-1.564-.009-1.564-1.538,0-4.865-.015-9.73.019-14.6,0-.647-.186-.756-.771-.739-1.449.043-2.9,0-4.35.022-.367,0-.52-.051-.526-.479-.024-1.775-.041-1.774,1.749-1.774,3.672,0,7.345.02,11.017-.019.65-.007.753.19.737.772-.041,1.492-.013,1.493-1.54,1.493-1.123,0-2.248.05-3.367-.019-.66-.04-.742.2-.736.774C524.84,447.054,524.823,449.628,524.823,452.2Z" transform="translate(-489.999 -432.492)"/>
    <path id="Trazado_123826" data-name="Trazado 123826" d="M522.581,557.824c0-2.6.01-5.193-.01-7.789,0-.439.085-.589.563-.586,1.693.012,1.693-.009,1.693,1.691,0,4.842.008,9.684-.012,14.525,0,.5.086.675.634.659,1.5-.045,2.994,0,4.49-.024.382-.005.509.08.514.491.022,1.764.038,1.764-1.689,1.764-3.719,0-7.438-.01-11.157.012-.5,0-.67-.089-.658-.636.035-1.622.007-1.623,1.623-1.623,1.123,0,2.246-.028,3.368.013.512.019.662-.1.655-.639C522.563,563.063,522.581,560.444,522.581,557.824Z" transform="translate(-490.003 -510.151)"/>
    <path id="Trazado_123827" data-name="Trazado 123827" d="M568.231,519.074c-2.245,0-4.491-.012-6.736.01-.42,0-.548-.084-.548-.531,0-1.726-.018-1.726,1.728-1.726,4.093,0,8.186-.008,12.279.012.479,0,.649-.093.619-.6-.048-.792,0-1.59-.019-2.385-.006-.3.069-.447.386-.395a.343.343,0,0,0,.07,0c1.8-.065,1.8-.065,1.8,1.715,0,2.246-.011,4.491.01,6.736,0,.422-.085.548-.531.547-1.725,0-1.721.018-1.728-1.728,0-.532.165-1.233-.105-1.549-.285-.333-1.008-.1-1.539-.1C572.02,519.067,570.125,519.074,568.231,519.074Z" transform="translate(-521.644 -484.255)"/>
    <path id="Trazado_123828" data-name="Trazado 123828" d="M470.543,519.092c-2.245,0-4.491.013-6.736-.011-.452,0-.6.1-.577.571.041.793,0,1.59.019,2.385.01.335-.09.421-.427.435-1.827.071-1.826.082-1.826-1.765,0-2.222.013-4.444-.011-6.665-.005-.455.112-.579.572-.576,1.685.011,1.683-.008,1.687,1.7,0,.535-.185,1.244.084,1.558.318.372,1.051.117,1.6.119,4.093.012,8.186.017,12.279-.007.521,0,.66.115.649.645-.033,1.614-.007,1.615-1.63,1.615Z" transform="translate(-449.756 -484.272)"/>
    <path id="Trazado_123829" data-name="Trazado 123829" d="M532.329,517.509a3.367,3.367,0,1,1-3.32,3.376A3.38,3.38,0,0,1,532.329,517.509Zm.021,2.247a1.121,1.121,0,1,0,1.148,1.078A1.129,1.129,0,0,0,532.349,519.756Z" transform="translate(-498.676 -487.181)" fill="#030303"/>
    <path id="Trazado_123830" data-name="Trazado 123830" d="M441.512,426.5q-6.035.012-12.07.03c-.34,0-.434-.106-.433-.438.012-2.456,0-4.913.014-7.369.006-.807.476-1.182,1.4-1.182q8.176,0,16.353,0c.327,0,.655,0,.983,0,1.1.005,1.47.381,1.468,1.477,0,.163-.015.326-.023.49-.574.7-1.124,1.417-1.725,2.09A28.427,28.427,0,0,1,441.512,426.5Z" transform="translate(-426.763 -415.286)" fill="#6ba8e1"/>
    <path id="Trazado_123831" data-name="Trazado 123831" d="M438.915,457.451c3.158,0,6.316.014,9.474-.014.524,0,.665.121.649.649-.039,1.277-.342,1.611-1.63,1.611H430.355a1.462,1.462,0,0,1-1.549-2.031c.1-.375.376-.205.564-.206,2.643-.013,5.287-.009,7.931-.009Z" transform="translate(-426.554 -443.97)" fill="#d7d6d9"/>
    <path id="Trazado_123832" data-name="Trazado 123832" d="M473.526,431.534a28.426,28.426,0,0,0,5.97-4.9c.6-.673,1.151-1.392,1.725-2.09.008,2.2.01,4.392.03,6.588,0,.336-.1.439-.436.436C478.385,431.544,475.956,431.542,473.526,431.534Z" transform="translate(-458.776 -420.323)" fill="#5599db"/>
    <path id="Trazado_123833" data-name="Trazado 123833" d="M453.49,491.759c-1.331,0-2.662-.014-3.992.009-.4.007-.5-.124-.509-.515-.021-1.4.3-1.739,1.7-1.74q2.907,0,5.813,0a1.451,1.451,0,0,1,1.481,2.022c-.091.319-.319.217-.5.219C456.152,491.764,454.821,491.759,453.49,491.759Z" transform="translate(-441.129 -467.048)" fill="#88878e"/>
    <path id="Trazado_123834" data-name="Trazado 123834" d="M461.423,477.54c.057,1.117.057,1.117-1.037,1.117-.908,0-1.817-.038-2.722.014-.575.033-.823-.122-.713-.714a3.311,3.311,0,0,0,.025-.417Z" transform="translate(-446.838 -458.438)" fill="#abaaaf"/>
    <path id="Trazado_123835" data-name="Trazado 123835" d="M461.487,474.6H457.04a1.392,1.392,0,0,1-.018-.138c-.028-.991-.028-.991.985-.991.908,0,1.818.043,2.722-.015.643-.041.893.161.782.8A3.173,3.173,0,0,0,461.487,474.6Z" transform="translate(-446.902 -455.497)" fill="#88878e"/>
    <path id="Trazado_123836" data-name="Trazado 123836" d="M593.469,426.5q-6.035.012-12.07.03c-.34,0-.434-.106-.433-.438.012-2.456,0-4.913.014-7.369.006-.807.477-1.182,1.4-1.182q8.177,0,16.353,0c.327,0,.655,0,.982,0,1.1.005,1.47.381,1.468,1.477,0,.163-.015.326-.023.49-.574.7-1.124,1.417-1.725,2.09A28.433,28.433,0,0,1,593.469,426.5Z" transform="translate(-536.041 -415.286)" fill="#6ba8e1"/>
    <path id="Trazado_123837" data-name="Trazado 123837" d="M590.868,457.45c3.158,0,6.316.015,9.474-.014.534,0,.659.136.643.654-.037,1.273-.342,1.606-1.633,1.606H582.3a1.464,1.464,0,0,1-1.543-2.036c.1-.37.379-.2.568-.2,2.877-.013,5.755-.009,8.632-.009Z" transform="translate(-535.825 -443.969)" fill="#d7d6d9"/>
    <path id="Trazado_123838" data-name="Trazado 123838" d="M625.482,431.534a28.434,28.434,0,0,0,5.97-4.9c.6-.673,1.151-1.392,1.725-2.09.008,2.2.01,4.392.03,6.588,0,.336-.1.439-.436.436C630.341,431.544,627.912,431.542,625.482,431.534Z" transform="translate(-568.055 -420.323)" fill="#5599db"/>
    <path id="Trazado_123839" data-name="Trazado 123839" d="M605.415,491.759c-1.308,0-2.615-.017-3.922.01-.43.009-.551-.111-.552-.546,0-1.368.307-1.71,1.661-1.71q2.942,0,5.884,0a1.461,1.461,0,0,1,1.445,2.05c-.108.3-.343.188-.524.189C608.077,491.764,606.746,491.759,605.415,491.759Z" transform="translate(-550.406 -467.047)" fill="#88878e"/>
    <path id="Trazado_123840" data-name="Trazado 123840" d="M613.379,477.54c.057,1.117.057,1.117-1.037,1.117-.907,0-1.817-.038-2.722.014-.575.033-.823-.122-.714-.714a3.266,3.266,0,0,0,.025-.417Z" transform="translate(-556.116 -458.438)" fill="#abaaaf"/>
    <path id="Trazado_123841" data-name="Trazado 123841" d="M613.442,474.6H609a1.276,1.276,0,0,1-.018-.138c-.028-.991-.028-.991.984-.991.908,0,1.818.043,2.722-.015.643-.041.893.161.782.8A3.25,3.25,0,0,0,613.442,474.6Z" transform="translate(-556.18 -455.497)" fill="#88878e"/>
    <path id="Trazado_123842" data-name="Trazado 123842" d="M593.469,570.453q-6.035.011-12.07.03c-.34,0-.434-.106-.433-.438.012-2.456,0-4.913.014-7.369.006-.807.477-1.182,1.4-1.182q8.177,0,16.353,0c.327,0,.655,0,.982,0,1.1.006,1.47.381,1.468,1.477,0,.163-.015.326-.023.49-.574.7-1.124,1.417-1.725,2.09A28.433,28.433,0,0,1,593.469,570.453Z" transform="translate(-536.041 -518.811)" fill="#6ba8e1"/>
    <path id="Trazado_123843" data-name="Trazado 123843" d="M590.939,601.407c3.135,0,6.27.014,9.4-.014.529,0,.662.127.647.651-.038,1.276-.342,1.609-1.631,1.609H582.305a1.463,1.463,0,0,1-1.546-2.033c.1-.372.377-.2.566-.2,2.714-.013,5.427-.009,8.141-.009Z" transform="translate(-535.829 -547.495)" fill="#d7d6d9"/>
    <path id="Trazado_123844" data-name="Trazado 123844" d="M625.482,575.49a28.438,28.438,0,0,0,5.97-4.9c.6-.673,1.151-1.392,1.725-2.09.008,2.2.01,4.392.03,6.588,0,.336-.1.439-.436.436C630.341,575.5,627.912,575.5,625.482,575.49Z" transform="translate(-568.055 -523.848)" fill="#5599db"/>
    <path id="Trazado_123845" data-name="Trazado 123845" d="M605.375,635.715c-1.307,0-2.615-.015-3.922.009-.4.007-.5-.126-.508-.516-.021-1.4.3-1.738,1.7-1.739q2.907,0,5.813,0a1.452,1.452,0,0,1,1.48,2.023c-.092.318-.32.216-.5.217C608.084,635.719,606.729,635.715,605.375,635.715Z" transform="translate(-550.408 -570.573)" fill="#88878e"/>
    <path id="Trazado_123846" data-name="Trazado 123846" d="M609,618.554a1.318,1.318,0,0,1-.018-.138c-.029-.99-.028-.99.985-.99.908,0,1.818.043,2.722-.015.643-.041.893.161.782.8a3.223,3.223,0,0,0-.024.347Z" transform="translate(-556.18 -559.022)" fill="#88878e"/>
    <path id="Trazado_123847" data-name="Trazado 123847" d="M608.932,621.5h4.447c.057,1.117.057,1.117-1.037,1.117-.907,0-1.817-.038-2.722.013-.575.033-.823-.122-.714-.714A3.266,3.266,0,0,0,608.932,621.5Z" transform="translate(-556.116 -561.962)" fill="#abaaaf"/>
    <path id="Trazado_123848" data-name="Trazado 123848" d="M441.512,570.453q-6.035.011-12.07.03c-.34,0-.434-.106-.433-.438.012-2.456,0-4.913.014-7.369.006-.807.476-1.182,1.4-1.182q8.176,0,16.353,0c.327,0,.655,0,.983,0,1.1.005,1.47.381,1.468,1.477,0,.163-.015.326-.023.49-.574.7-1.124,1.417-1.725,2.09A28.426,28.426,0,0,1,441.512,570.453Z" transform="translate(-426.763 -518.811)" fill="#6ba8e1"/>
    <path id="Trazado_123849" data-name="Trazado 123849" d="M438.914,601.407c3.158,0,6.316.014,9.474-.013.525,0,.665.121.649.648-.039,1.277-.342,1.611-1.629,1.611H430.354a1.462,1.462,0,0,1-1.549-2.031c.1-.374.376-.205.565-.206,2.644-.013,5.287-.009,7.93-.009Z" transform="translate(-426.554 -547.496)" fill="#d7d6d9"/>
    <path id="Trazado_123850" data-name="Trazado 123850" d="M473.526,575.49a28.43,28.43,0,0,0,5.97-4.9c.6-.673,1.151-1.392,1.725-2.09.008,2.2.01,4.392.03,6.588,0,.336-.1.438-.436.436C478.385,575.5,475.956,575.5,473.526,575.49Z" transform="translate(-458.776 -523.848)" fill="#5599db"/>
    <path id="Trazado_123851" data-name="Trazado 123851" d="M453.477,635.715c-1.307,0-2.615-.012-3.922.007-.391.006-.576-.049-.578-.52-.005-1.394.3-1.733,1.71-1.734q2.907,0,5.813,0a1.453,1.453,0,0,1,1.474,2.027c-.094.316-.324.211-.505.213C456.139,635.719,454.808,635.715,453.477,635.715Z" transform="translate(-441.122 -570.573)" fill="#88878e"/>
    <path id="Trazado_123852" data-name="Trazado 123852" d="M457.04,618.554a1.343,1.343,0,0,1-.018-.138c-.028-.99-.028-.99.985-.99.908,0,1.818.043,2.722-.015.643-.041.893.161.782.8a3.169,3.169,0,0,0-.024.347Z" transform="translate(-446.902 -559.022)" fill="#88878e"/>
    <path id="Trazado_123853" data-name="Trazado 123853" d="M456.976,621.5h4.447c.057,1.117.057,1.117-1.037,1.117-.908,0-1.817-.038-2.722.013-.575.033-.823-.122-.713-.714A3.311,3.311,0,0,0,456.976,621.5Z" transform="translate(-446.838 -561.962)" fill="#abaaaf"/>
    <path id="Trazado_123854" data-name="Trazado 123854" d="M538.1,525.51a1.121,1.121,0,1,1-1.1,1.129A1.131,1.131,0,0,1,538.1,525.51Z" transform="translate(-504.424 -492.935)" fill="#e59439"/>
  </g>
</svg>
