<svg xmlns="http://www.w3.org/2000/svg" width="93" height="93" viewBox="0 0 93 93">
  <g id="Grupo_84799" data-name="Grupo 84799" transform="translate(-824 -4097)">
    <rect id="Rectángulo_34442" data-name="Rectángulo 34442" width="93" height="93" transform="translate(824 4097)" fill="none"/>
    <g id="Grupo_84802" data-name="Grupo 84802" transform="translate(739.221 3435.195)">
      <path id="Trazado_123887" data-name="Trazado 123887" d="M94.971,724.717c0-4.514.028-9.028-.017-13.542a3.46,3.46,0,0,1,1.548-3.041,15.663,15.663,0,0,1,5.717-2.3,34.165,34.165,0,0,1,6.286-.906c.4-.02.536-.143.532-.559-.021-2.025-.029-4.051,0-6.075.008-.5-.184-.537-.59-.533-1.952.018-3.9-.006-5.856.018-.46.006-.61-.093-.608-.588q.025-12.3,0-24.595c0-.458.09-.612.586-.61q7.613.03,15.226,0c.554,0,.61.194.607.665-.019,3.465,0,6.93-.023,10.394,0,.53.1.711.666.684,1.12-.052,2.245-.047,3.366,0,.538.021.686-.109.681-.668-.03-3.465,0-6.93-.029-10.394,0-.539.114-.682.67-.679q7.539.037,15.079,0c.539,0,.684.114.679.67-.029,3.465,0,6.93-.029,10.394,0,.542.117.7.672.678,1.144-.049,2.294-.04,3.439,0,.48.015.6-.122.6-.6-.021-3.489,0-6.979-.026-10.467,0-.55.133-.675.676-.672q7.539.035,15.079,0c.551,0,.673.133.672.676q-.029,12.224,0,24.448c0,.548-.127.685-.675.674-1.927-.037-3.855,0-5.783-.027-.483-.007-.6.128-.6.6.028,1.878.048,3.759-.007,5.636-.021.718.161.913.9.968a28.836,28.836,0,0,1,10.2,2.309,7.7,7.7,0,0,1,1.784,1.13,3.256,3.256,0,0,1,1.206,2.619q-.029,13.579.009,27.157a3.628,3.628,0,0,1-1.737,3.241,15.629,15.629,0,0,1-5.47,2.154,40.545,40.545,0,0,1-19.476-.276,14.534,14.534,0,0,1-4.232-1.749,3.651,3.651,0,0,1-1.923-3.51c.094-1.531.006-3.073.029-4.61.006-.406-.1-.534-.518-.529q-3,.034-6,0c-.409,0-.533.1-.526.521.025,1.586-.047,3.175.026,4.757a3.5,3.5,0,0,1-1.734,3.242,15.625,15.625,0,0,1-5.469,2.154,40.546,40.546,0,0,1-19.476-.276,14.535,14.535,0,0,1-4.232-1.749,3.783,3.783,0,0,1-1.929-3.509C95.021,733.6,94.971,729.158,94.971,724.717Zm36.33-26.948c-2.489,0-4.978-.031-7.465.021-.683.014-.772-.207-.767-.808.029-3.366-.013-6.734.035-10.1.011-.738-.207-.884-.883-.842a26.763,26.763,0,0,1-3,0c-.63-.032-.852.1-.844.8.043,3.391,0,6.782.034,10.173,0,.579-.09.785-.731.768-1.9-.051-3.806-.005-5.708-.028-.449-.005-.625.073-.616.581.034,1.951.027,3.9,0,5.855-.005.452.082.615.583.619a38.911,38.911,0,0,1,8.551,1.011,15.452,15.452,0,0,1,5.778,2.335,3.426,3.426,0,0,1,1.513,2.986c-.041,4.635,0,9.271-.037,13.906-.007.737.207.863.881.843q2.632-.077,5.269,0c.693.019.928-.1.921-.878-.046-4.659-.005-9.32-.035-13.98a3.292,3.292,0,0,1,1.3-2.721,10.764,10.764,0,0,1,3.492-1.78,37.1,37.1,0,0,1,11-1.727c.433-.01.634-.055.624-.578-.036-1.975-.033-3.952,0-5.928.008-.48-.153-.55-.578-.545-1.927.022-3.855-.019-5.782.027-.607.014-.7-.192-.693-.73.023-3.415-.012-6.832.032-10.247.009-.68-.2-.8-.807-.768a24.657,24.657,0,0,1-3.072-.006c-.745-.057-.851.21-.843.881.037,3.318,0,6.636.033,9.954.008.691-.1.942-.878.922C136.182,697.729,133.741,697.769,131.3,697.769Zm-26.959-12.884c0,3.293.014,6.587-.014,9.88,0,.547.128.68.675.676q5.2-.042,10.392,0c.55,0,.675-.133.673-.677q-.032-9.879,0-19.759c0-.547-.127-.68-.675-.675q-5.2.042-10.392,0c-.55,0-.678.133-.674.677C104.357,678.3,104.343,681.592,104.343,684.885Zm32.8.067c0-3.318-.016-6.635.015-9.953,0-.558-.145-.673-.681-.669-3.464.026-6.928.021-10.392,0-.463,0-.671.04-.669.6q.034,9.953,0,19.906c0,.487.137.6.6.593q5.269-.029,10.538,0c.491,0,.594-.142.592-.607C137.13,691.538,137.139,688.245,137.139,684.952Zm21.084.008c0-3.318-.014-6.635.014-9.953,0-.541-.117-.684-.672-.679q-5.2.044-10.392,0c-.544,0-.679.123-.677.673q.033,9.88,0,19.759c0,.54.117.684.671.679q5.2-.043,10.392,0c.544,0,.682-.122.678-.673C158.208,691.5,158.223,688.229,158.223,684.96Zm-47.077,29.219a36.233,36.233,0,0,0,11.014-1.61,11.037,11.037,0,0,0,2.526-1.118c.964-.615.956-.995-.026-1.615a9.489,9.489,0,0,0-1.708-.815,28.976,28.976,0,0,0-7.384-1.653,36.529,36.529,0,0,0-15.021,1.378,10.957,10.957,0,0,0-2.4,1.049c-1.079.659-1.071,1.066.03,1.727a7.3,7.3,0,0,0,.909.46A32.538,32.538,0,0,0,111.145,714.179Zm38.958-.017a37.511,37.511,0,0,0,10.962-1.308,11.347,11.347,0,0,0,3.727-1.61c.61-.452.6-.716,0-1.186a7.433,7.433,0,0,0-2-1.03,30.882,30.882,0,0,0-9.35-1.817,34.574,34.574,0,0,0-13.807,1.806,7.642,7.642,0,0,0-2.127,1.106c-.459.357-.453.706,0,1.061a6.072,6.072,0,0,0,1.387.8A31.8,31.8,0,0,0,150.1,714.162Zm3.434,15.2c0-4.073-.013-8.146.015-12.219,0-.591-.158-.708-.724-.678a26.967,26.967,0,0,1-3.289,0c-.624-.043-.7.172-.7.708q.035,4.134,0,8.268a.918.918,0,0,0,.506.935,3.47,3.47,0,0,1,1.691,2.026,3.393,3.393,0,0,1-1.521,3.92c-.3.207-.684.31-.679.839q.04,4.28,0,8.56c0,.447.185.531.557.529,1.146-.006,2.292-.019,3.437.013.57.016.719-.185.715-.753C153.525,737.456,153.537,733.408,153.537,729.359Zm-22.23,1.206c3.294,0,6.589.011,9.883-.012.508,0,.683.116.646.64-.048.68-.025,1.366-.008,2.049.019.753.492,1.038,1.1.639q2.692-1.763,5.353-3.573a1,1,0,0,0,.043-1.8c-1.789-1.228-3.6-2.426-5.413-3.615-.579-.379-1.056-.107-1.083.592a13.6,13.6,0,0,0,.007,1.829c.069.7-.108.931-.883.927-6.174-.039-12.347-.022-18.521-.022-1.707,0-1.676,0-1.709,1.691-.011.581.184.666.7.662C124.719,730.554,128.013,730.565,131.307,730.565Zm-5.882-16.823c-.5.226-.892.413-1.291.583a28.162,28.162,0,0,1-7.486,1.826c-.5.065-.626.231-.605.715.042,1,.026,2,.005,3a1.03,1.03,0,0,0,.342.83c.961.934,1.862,1.933,2.864,2.819a1.035,1.035,0,0,1,.249,1.53c-.385.671-.276.824.516.832,1.656.018,3.313,0,4.97.013.361,0,.444-.119.443-.459C125.422,721.558,125.426,717.688,125.426,713.743Zm21.084,10.721c0-2.666-.012-5.177.011-7.688,0-.435-.115-.576-.545-.624a33,33,0,0,1-5.575-1.116,24.527,24.527,0,0,1-3.262-1.286v10.317c0,1.876,0,1.865,1.854,1.822.364-.008.482-.083.5-.478A2.955,2.955,0,0,1,144.3,723C145,723.459,145.7,723.93,146.51,724.464Zm-21.084,11.509c0-.852-.023-1.705.01-2.557.017-.428-.135-.522-.535-.516-1.534.021-3.068.006-4.6.009-1.151,0-1.218.069-.7,1.049a.815.815,0,0,1-.2,1.166c-1.029.966-2.005,1.989-3.007,2.984a.876.876,0,0,0-.34.682c.021.925.024,1.851,0,2.776-.01.382.126.449.465.384,1.05-.2,2.114-.34,3.155-.58a17.326,17.326,0,0,0,4.988-1.787,1.317,1.317,0,0,0,.785-1.348C125.376,737.487,125.426,736.727,125.426,735.972Zm21.084-1.642c-.908.595-1.7,1.157-2.528,1.647a2.97,2.97,0,0,1-4.442-1.874c-.1-.4.231-.968-.268-1.161a3.876,3.876,0,0,0-1.3-.034,2.483,2.483,0,0,1-.365,0c-.411-.064-.475.143-.47.5.017,1.438.093,2.883-.02,4.312a1.949,1.949,0,0,0,1.365,2.186c.067.028.133.061.2.091a27.876,27.876,0,0,0,7.452,1.967c.466.072.381-.218.381-.473C146.51,739.149,146.51,736.81,146.51,734.331Zm-36.083-13.137c-1.4,0-1.4,0-1.4,1.395,0,.2.013.391,0,.585-.029.36.031.483.472.428a5.844,5.844,0,1,1,.489,11.641c-.959-.037-.959-.037-.959.973,0,1.378,0,1.378,1.417,1.378,1.2,0,1.2,0,1.678-1.112.217-.51,1.265-1.015,1.7-.7.9.645,1.485.279,2.042-.448a2.118,2.118,0,0,1,.466-.464,1.082,1.082,0,0,0,.321-1.7,1.31,1.31,0,0,1,.643-1.808c1.081-.234,1.231-.89,1.1-1.795a1.662,1.662,0,0,1,0-.511,1.185,1.185,0,0,0-1.062-1.588c-.549-.11-1.082-1.22-.776-1.652.681-.961.262-1.568-.493-2.157a2.911,2.911,0,0,1-.617-.622c-.352-.514-.731-.463-1.231-.212a1.422,1.422,0,0,1-2.221-.881c-.186-.572-.441-.869-1.065-.753A2.867,2.867,0,0,1,110.427,721.194Zm54.824,6.584a17.54,17.54,0,0,1-2.881,1.183,36.971,36.971,0,0,1-6.057,1.27c-.333.047-.447.133-.441.483.022,1.266.028,2.532,0,3.8-.011.449.169.46.517.394,1-.19,2.016-.327,3.012-.543a16.516,16.516,0,0,0,4.989-1.776c.385-.228.854-.44.859-1C165.258,730.352,165.25,729.116,165.25,727.778Zm0,7.073c-.6.257-1.122.5-1.659.708a32.2,32.2,0,0,1-7.224,1.695c-.335.047-.505.108-.5.51.03,1.266.025,2.533,0,3.8-.007.383.122.438.464.388a32.972,32.972,0,0,0,5.752-1.3,10.191,10.191,0,0,0,2.572-1.19c.279-.192.583-.389.586-.783C165.252,737.419,165.248,736.162,165.248,734.852Zm0-14.046c-.745.308-1.385.6-2.042.84a32.679,32.679,0,0,1-6.809,1.546c-.366.052-.542.124-.53.554.033,1.241.028,2.483,0,3.724-.008.416.127.485.5.412,1.025-.2,2.065-.331,3.084-.557a16.522,16.522,0,0,0,4.919-1.758c.4-.239.879-.462.876-1.065C165.247,723.286,165.251,722.071,165.251,720.805ZM97.314,734.82c0,1.229.025,2.367-.011,3.5a1.161,1.161,0,0,0,.61,1.144c.293.172.583.354.89.5a27.264,27.264,0,0,0,7.51,2c.388.06.376-.144.375-.41-.006-1.217-.023-2.436.008-3.652.012-.454-.117-.6-.578-.665A27.739,27.739,0,0,1,97.314,734.82Zm0-7.021c0,1.207.034,2.3-.013,3.4a1.255,1.255,0,0,0,.666,1.263c.272.159.542.325.826.462a25.916,25.916,0,0,0,7.5,2.008c.357.055.4-.089.4-.385-.011-1.169-.039-2.338.01-3.5.024-.564-.108-.78-.706-.859A26.986,26.986,0,0,1,97.314,727.8Zm0-7.032a24.981,24.981,0,0,1-.022,2.873,1.926,1.926,0,0,0,1.352,2.193c.312.136.615.291.93.418a29.376,29.376,0,0,0,6.706,1.649c.434.066.41-.157.408-.445-.006-1.217-.024-2.435.009-3.651.012-.438-.119-.557-.547-.618A27.972,27.972,0,0,1,97.314,720.767Zm0-7.039a21.748,21.748,0,0,1-.024,2.846c-.169,1.239.461,1.821,1.452,2.284a27.183,27.183,0,0,0,7.583,2.019c.413.062.36-.18.36-.424,0-1.1-.069-2.2.022-3.287.068-.806-.234-1.006-.965-1.089A24.787,24.787,0,0,1,97.314,713.727Zm67.937.021c-.6.266-1.1.5-1.619.711a29.959,29.959,0,0,1-7.293,1.716c-.377.05-.472.175-.467.534.02,1.242.023,2.485,0,3.727-.008.405.113.494.5.419,1.026-.2,2.067-.33,3.086-.558a15.955,15.955,0,0,0,5.108-1.875,1.14,1.14,0,0,0,.7-1.024C165.232,716.2,165.251,715.011,165.251,713.748Zm-56.224,15.643c0,.949.017,1.9-.008,2.847-.009.365.12.493.467.58a3.5,3.5,0,1,0,0-6.851c-.4.1-.479.284-.47.65C109.042,727.541,109.027,728.466,109.027,729.391Zm4.686,9.939c-.187.659-.674.63-1.2.615-1-.029-2-.011-3-.005-.16,0-.444-.075-.455.1a19.864,19.864,0,0,0,0,2.042c.008.167.231.14.368.147,1.291.065,2.582.058,3.874.007.309-.012.42-.127.413-.44C113.7,740.976,113.713,740.152,113.713,739.33Zm0-19.895c0-.851-.018-1.7.008-2.553.011-.371-.117-.441-.463-.423-.8.041-1.606.016-2.408.052-.595.027-1.407-.313-1.721.082-.3.378-.062,1.164-.11,1.767-.036.45.162.51.545.5,1.022-.023,2.045.013,3.066-.017C113.127,718.829,113.556,718.832,113.712,719.435Z" transform="translate(0 0)" fill="#010101"/>
      <path id="Trazado_123888" data-name="Trazado 123888" d="M126.994,690.542c0-3.293.014-6.587-.014-9.88,0-.544.123-.682.674-.677q5.2.043,10.392,0c.547,0,.677.129.675.675q-.032,9.879,0,19.759c0,.544-.123.682-.673.677q-5.2-.043-10.392,0c-.547,0-.68-.128-.675-.675C127.008,697.128,126.994,693.835,126.994,690.542Zm5.822,8.2h1.755c1.825,0,1.806,0,1.806-1.8,0-.458-.121-.567-.568-.559-1.56.029-3.12.011-4.68.011-1.859,0-1.846,0-1.8,1.869.008.387.115.492.492.482C130.816,698.724,131.816,698.74,132.816,698.74Zm.088-7.028h-1.755c-1.87,0-1.852,0-1.825,1.85.006.445.165.505.549.5,1.56-.019,3.12-.008,4.681-.008,1.869,0,1.851,0,1.825-1.85-.006-.445-.165-.51-.549-.5C134.854,691.728,133.879,691.712,132.9,691.712Zm-.127-2.343H134.6c1.808,0,1.793,0,1.771-1.829-.005-.413-.113-.53-.526-.523-1.584.024-3.169.01-4.753.01-1.856,0-1.845,0-1.77,1.9.014.349.1.456.452.448C130.777,689.355,131.777,689.369,132.777,689.369Zm.073-7.028h-1.755c-1.807,0-1.792,0-1.77,1.83.005.414.116.528.527.522,1.584-.023,3.169-.01,4.753-.01,1.856,0,1.844,0,1.769-1.9-.014-.35-.1-.454-.453-.447C134.9,682.355,133.874,682.341,132.85,682.341Z" transform="translate(-22.652 -5.656)" fill="#e5e8eb"/>
      <path id="Trazado_123889" data-name="Trazado 123889" d="M210.684,690.611c0,3.293-.009,6.586.011,9.88,0,.465-.1.61-.592.607q-5.269-.034-10.538,0c-.468,0-.606-.106-.6-.593q.026-9.953,0-19.906c0-.564.206-.606.669-.6,3.464.017,6.928.022,10.392,0,.537,0,.686.111.681.669C210.669,683.975,210.684,687.293,210.684,690.611Zm-5.928,8.132h1.828c1.807,0,1.792,0,1.769-1.831-.005-.416-.119-.527-.528-.521-1.584.023-3.169.009-4.753.009-1.856,0-1.844,0-1.767,1.9.014.352.106.453.454.446C202.757,698.729,203.757,698.743,204.756,698.743Zm.011-4.685H206.6c1.772,0,1.749,0,1.761-1.769,0-.5-.163-.591-.615-.584-1.56.026-3.12.01-4.68.01-1.772,0-1.749,0-1.761,1.769,0,.5.162.6.615.584C202.865,694.035,203.816,694.058,204.767,694.058Zm0-4.685h1.828c1.8,0,1.787,0,1.762-1.839-.006-.427-.138-.518-.537-.513-1.56.021-3.12.009-4.68.009-1.928,0-1.915,0-1.834,1.912.016.362.125.444.463.437C202.765,689.359,203.764,689.372,204.764,689.372Zm.137-7.028h-1.828c-1.807,0-1.793,0-1.77,1.83,0,.413.115.529.527.523,1.584-.023,3.169-.01,4.753-.01,1.856,0,1.845,0,1.769-1.9-.014-.35-.1-.455-.453-.447C206.9,682.359,205.9,682.344,204.9,682.344Z" transform="translate(-73.545 -5.659)" fill="#e5e8eb"/>
      <path id="Trazado_123890" data-name="Trazado 123890" d="M282.664,690.616c0,3.269-.015,6.538.015,9.806,0,.551-.134.677-.678.673q-5.2-.041-10.392,0c-.554,0-.673-.139-.671-.679q.031-9.88,0-19.759c0-.55.133-.678.677-.673q5.2.041,10.392,0c.554,0,.676.139.672.679C282.651,683.98,282.664,687.3,282.664,690.616Zm-5.856,8.123h1.755c1.807,0,1.792,0,1.77-1.83-.005-.415-.116-.528-.527-.522-1.584.023-3.169.009-4.754.009-1.856,0-1.845,0-1.769,1.9.014.35.1.454.453.447C274.761,698.725,275.785,698.739,276.809,698.739Zm.035-7.028h-1.828c-1.753,0-1.734,0-1.734,1.794,0,.455.116.569.566.561,1.56-.03,3.12-.011,4.681-.011,1.86,0,1.847,0,1.805-1.867-.008-.384-.11-.494-.49-.484C278.844,691.728,277.843,691.711,276.844,691.711Zm.038-4.685h-1.828c-1.808,0-1.793,0-1.771,1.829.005.412.113.53.526.523,1.584-.024,3.169-.01,4.754-.01,1.856,0,1.845,0,1.77-1.9-.014-.348-.1-.456-.452-.448C278.881,687.04,277.882,687.026,276.882,687.026Zm-.07-4.685h-1.755c-1.81,0-1.8,0-1.774,1.825.005.407.1.534.522.527,1.584-.025,3.169-.01,4.754-.01,1.856,0,1.845,0,1.773-1.9-.013-.344-.091-.46-.448-.452C278.861,682.356,277.836,682.341,276.812,682.341Z" transform="translate(-124.442 -5.656)" fill="#e5e8eb"/>
      <path id="Trazado_123891" data-name="Trazado 123891" d="M116.939,799.038a32.538,32.538,0,0,1-12.06-2.2,7.3,7.3,0,0,1-.909-.46c-1.1-.661-1.108-1.068-.03-1.727a10.957,10.957,0,0,1,2.4-1.049,36.528,36.528,0,0,1,15.021-1.378,28.976,28.976,0,0,1,7.384,1.653,9.484,9.484,0,0,1,1.708.815c.982.62.99,1,.026,1.615a11.034,11.034,0,0,1-2.526,1.118A36.231,36.231,0,0,1,116.939,799.038Z" transform="translate(-5.794 -84.859)" fill="#f9e7ad"/>
      <path id="Trazado_123892" data-name="Trazado 123892" d="M252.019,799.035a31.8,31.8,0,0,1-11.208-2.181,6.073,6.073,0,0,1-1.387-.8c-.455-.356-.461-.7,0-1.061a7.641,7.641,0,0,1,2.127-1.106,34.574,34.574,0,0,1,13.807-1.806,30.882,30.882,0,0,1,9.35,1.817,7.433,7.433,0,0,1,2,1.03c.6.47.61.734,0,1.186a11.347,11.347,0,0,1-3.727,1.61A37.511,37.511,0,0,1,252.019,799.035Z" transform="translate(-101.916 -84.873)" fill="#f9e7ad"/>
      <path id="Trazado_123893" data-name="Trazado 123893" d="M283.637,836.7c0,4.048-.012,8.1.014,12.146,0,.568-.146.769-.715.753-1.145-.032-2.292-.019-3.437-.013-.371,0-.56-.082-.557-.529q.031-4.28,0-8.56c0-.529.38-.631.679-.839a3.393,3.393,0,0,0,1.521-3.92,3.47,3.47,0,0,0-1.691-2.026.918.918,0,0,1-.506-.935q.029-4.134,0-8.268c0-.536.072-.751.7-.708a26.968,26.968,0,0,0,3.289,0c.567-.03.728.087.724.678C283.624,828.558,283.637,832.631,283.637,836.7Z" transform="translate(-130.1 -107.345)" fill="#fae9ae"/>
      <path id="Trazado_123894" data-name="Trazado 123894" d="M193.537,857.88c-3.294,0-6.588-.011-9.883.011-.517,0-.712-.081-.7-.662.033-1.691,0-1.691,1.709-1.691,6.174,0,12.347-.017,18.521.022.774.005.951-.224.883-.927a13.6,13.6,0,0,1-.007-1.829c.027-.7.5-.971,1.083-.592,1.815,1.188,3.624,2.387,5.413,3.615a1,1,0,0,1-.043,1.8q-2.658,1.814-5.353,3.573c-.609.4-1.082.113-1.1-.639-.017-.683-.04-1.369.008-2.049.037-.524-.139-.643-.646-.64C200.126,857.891,196.831,857.88,193.537,857.88Z" transform="translate(-62.23 -127.314)" fill="#ed8773"/>
      <path id="Trazado_123895" data-name="Trazado 123895" d="M176.351,814.542c0,3.945,0,7.816.007,11.687,0,.34-.082.463-.443.459-1.656-.018-3.314,0-4.97-.013-.793-.009-.9-.162-.516-.833a1.035,1.035,0,0,0-.249-1.53c-1-.886-1.9-1.885-2.864-2.819a1.03,1.03,0,0,1-.342-.83c.021-1,.037-2-.005-3-.021-.484.1-.65.605-.715a28.155,28.155,0,0,0,7.486-1.826C175.459,814.955,175.851,814.768,176.351,814.542Z" transform="translate(-50.925 -100.799)" fill="#f4d57e"/>
      <path id="Trazado_123896" data-name="Trazado 123896" d="M248.365,825.281c-.8-.534-1.5-1.005-2.212-1.466a2.955,2.955,0,0,0-4.8,2.413c-.019.394-.137.469-.5.478-1.854.043-1.854.053-1.854-1.822V814.567a24.552,24.552,0,0,0,3.262,1.286,33,33,0,0,0,5.575,1.116c.431.048.549.189.545.624C248.352,820.1,248.365,822.615,248.365,825.281Z" transform="translate(-101.855 -100.817)" fill="#f4d57e"/>
      <path id="Trazado_123897" data-name="Trazado 123897" d="M176.365,883.015c0,.755-.05,1.514.015,2.263a1.317,1.317,0,0,1-.785,1.348,17.326,17.326,0,0,1-4.988,1.787c-1.041.24-2.1.379-3.155.58-.339.065-.476,0-.465-.384.025-.925.022-1.851,0-2.776a.876.876,0,0,1,.34-.682c1-.995,1.978-2.018,3.007-2.984a.815.815,0,0,0,.2-1.166c-.518-.98-.452-1.047.7-1.049,1.534,0,3.068.012,4.6-.009.4-.006.552.088.535.516C176.342,881.31,176.365,882.163,176.365,883.015Z" transform="translate(-50.939 -147.043)" fill="#f3d57e"/>
      <path id="Trazado_123898" data-name="Trazado 123898" d="M248.272,881.3c0,2.479,0,4.818,0,7.158,0,.256.085.545-.381.473a27.876,27.876,0,0,1-7.452-1.967c-.066-.031-.132-.063-.2-.091a1.949,1.949,0,0,1-1.365-2.186c.114-1.429.037-2.874.02-4.312,0-.358.059-.565.47-.5a2.491,2.491,0,0,0,.365,0,3.874,3.874,0,0,1,1.3.034c.5.192.163.765.268,1.161a2.97,2.97,0,0,0,4.442,1.874C246.576,882.453,247.364,881.891,248.272,881.3Z" transform="translate(-101.763 -146.965)" fill="#f4d57e"/>
      <path id="Trazado_123899" data-name="Trazado 123899" d="M144.4,839.911a2.873,2.873,0,0,0,.512,0c.624-.115.879.181,1.065.753a1.422,1.422,0,0,0,2.221.881c.5-.252.879-.3,1.231.212a2.911,2.911,0,0,0,.617.622c.754.59,1.174,1.2.493,2.157-.306.432.226,1.542.776,1.652a1.185,1.185,0,0,1,1.062,1.588,1.66,1.66,0,0,0,0,.511c.127.9-.023,1.561-1.1,1.795a1.31,1.31,0,0,0-.643,1.808,1.082,1.082,0,0,1-.321,1.7,2.119,2.119,0,0,0-.466.464c-.557.728-1.139,1.093-2.042.448-.439-.313-1.487.192-1.7.7-.473,1.112-.473,1.112-1.678,1.112-1.417,0-1.417,0-1.417-1.378,0-1.01,0-1.01.959-.973a5.844,5.844,0,1,0-.489-11.641c-.442.055-.5-.068-.472-.428.016-.194,0-.39,0-.585C143,839.911,143,839.911,144.4,839.911Z" transform="translate(-33.972 -118.717)" fill="#b8d687"/>
      <path id="Trazado_123900" data-name="Trazado 123900" d="M312.318,862.458c0,1.338.007,2.574,0,3.81,0,.559-.474.771-.859,1a16.512,16.512,0,0,1-4.989,1.776c-1,.216-2.01.353-3.012.543-.348.066-.528.055-.517-.394.03-1.265.024-2.532,0-3.8-.006-.349.108-.436.441-.483a36.966,36.966,0,0,0,6.057-1.27A17.541,17.541,0,0,0,312.318,862.458Z" transform="translate(-147.068 -134.68)" fill="#f3d57e"/>
      <path id="Trazado_123901" data-name="Trazado 123901" d="M312.315,886.606c0,1.31,0,2.567,0,3.825,0,.395-.306.591-.586.783a10.194,10.194,0,0,1-2.572,1.19,32.966,32.966,0,0,1-5.752,1.3c-.342.05-.471,0-.464-.388.023-1.266.028-2.533,0-3.8-.009-.4.16-.463.5-.51a32.2,32.2,0,0,0,7.224-1.695C311.194,887.106,311.717,886.863,312.315,886.606Z" transform="translate(-147.067 -151.755)" fill="#f3d57e"/>
      <path id="Trazado_123902" data-name="Trazado 123902" d="M312.316,838.653c0,1.266,0,2.481,0,3.7,0,.6-.472.826-.876,1.065a16.523,16.523,0,0,1-4.919,1.758c-1.019.226-2.059.359-3.084.557-.375.073-.51,0-.5-.412.026-1.241.031-2.484,0-3.724-.012-.43.164-.5.53-.554a32.687,32.687,0,0,0,6.81-1.546C310.931,839.251,311.57,838.961,312.316,838.653Z" transform="translate(-147.065 -117.848)" fill="#f3d57e"/>
      <path id="Trazado_123903" data-name="Trazado 123903" d="M103.005,886.5a27.741,27.741,0,0,0,8.8,2.416c.461.066.59.211.578.665-.032,1.217-.014,2.435-.008,3.652,0,.266.013.47-.375.41a27.264,27.264,0,0,1-7.51-2c-.307-.143-.6-.325-.89-.5a1.161,1.161,0,0,1-.61-1.144C103.031,888.865,103.005,887.727,103.005,886.5Z" transform="translate(-5.691 -151.678)" fill="#f3d57e"/>
      <path id="Trazado_123904" data-name="Trazado 123904" d="M103,862.528a26.986,26.986,0,0,0,8.68,2.381c.6.079.729.295.706.859-.049,1.166-.021,2.336-.01,3.5,0,.3-.04.439-.4.385a25.916,25.916,0,0,1-7.5-2.008c-.283-.137-.553-.3-.826-.462a1.255,1.255,0,0,1-.666-1.263C103.03,864.831,103,863.735,103,862.528Z" transform="translate(-5.682 -134.729)" fill="#f3d57e"/>
      <path id="Trazado_123905" data-name="Trazado 123905" d="M102.929,838.522a27.972,27.972,0,0,0,8.836,2.42c.428.06.559.18.547.618-.033,1.216-.015,2.434-.009,3.651,0,.287.026.51-.408.445a29.379,29.379,0,0,1-6.706-1.649c-.315-.127-.618-.282-.93-.418a1.926,1.926,0,0,1-1.352-2.193A24.979,24.979,0,0,0,102.929,838.522Z" transform="translate(-5.615 -117.755)" fill="#f3d57e"/>
      <path id="Trazado_123906" data-name="Trazado 123906" d="M102.91,814.49a24.787,24.787,0,0,0,8.428,2.348c.731.083,1.033.283.965,1.089-.092,1.089-.023,2.191-.022,3.287,0,.244.053.486-.36.424a27.185,27.185,0,0,1-7.583-2.019c-.991-.463-1.621-1.045-1.452-2.284A21.747,21.747,0,0,0,102.91,814.49Z" transform="translate(-5.596 -100.763)" fill="#f3d57e"/>
      <path id="Trazado_123907" data-name="Trazado 123907" d="M312.323,814.561c0,1.263-.019,2.457.009,3.649a1.14,1.14,0,0,1-.7,1.024,15.952,15.952,0,0,1-5.108,1.875c-1.019.228-2.06.358-3.086.558-.384.075-.5-.013-.5-.419.024-1.242.021-2.485,0-3.727-.006-.359.09-.484.467-.534a29.958,29.958,0,0,0,7.293-1.716C311.219,815.066,311.721,814.827,312.323,814.561Z" transform="translate(-147.072 -100.813)" fill="#f3d57e"/>
      <path id="Trazado_123908" data-name="Trazado 123908" d="M143,859.495c0-.925.015-1.85-.007-2.774-.009-.366.065-.553.47-.65a3.5,3.5,0,1,1,0,6.851c-.347-.087-.477-.215-.467-.58C143.017,861.394,143,860.444,143,859.495Z" transform="translate(-33.973 -130.104)" fill="#f5f7f8"/>
      <path id="Trazado_123909" data-name="Trazado 123909" d="M147.725,901.894c0,.823-.012,1.646.006,2.468.007.314-.1.428-.413.44-1.292.051-2.583.059-3.874-.007-.138-.007-.361.02-.368-.147a19.871,19.871,0,0,1,0-2.042c.011-.179.295-.1.455-.1,1-.006,2-.024,3,.005C147.051,902.524,147.538,902.552,147.725,901.894Z" transform="translate(-34.012 -162.564)" fill="#f8e6ac"/>
      <path id="Trazado_123910" data-name="Trazado 123910" d="M147.58,826.649c-.156-.6-.586-.606-1.083-.591-1.021.029-2.044-.006-3.066.017-.383.008-.581-.052-.545-.5.048-.6-.19-1.389.11-1.767.314-.395,1.127-.055,1.721-.082.8-.036,1.606-.011,2.408-.052.345-.018.474.052.463.423C147.562,824.946,147.58,825.8,147.58,826.649Z" transform="translate(-33.868 -107.214)" fill="#fae9ae"/>
      <path id="Trazado_123911" data-name="Trazado 123911" d="M138.452,738.331c-1,0-2-.016-3,.008-.378.009-.484-.1-.492-.482-.042-1.869-.055-1.869,1.8-1.869,1.56,0,3.12.018,4.68-.011.446-.008.568.1.568.559,0,1.8.018,1.8-1.806,1.8Z" transform="translate(-28.288 -45.247)"/>
      <path id="Trazado_123912" data-name="Trazado 123912" d="M138.546,720c.975,0,1.951.016,2.925-.008.383-.009.542.056.549.5.027,1.85.045,1.85-1.825,1.85-1.56,0-3.121-.011-4.681.008-.383,0-.542-.056-.549-.5-.027-1.85-.045-1.85,1.825-1.85Z" transform="translate(-28.294 -33.944)"/>
      <path id="Trazado_123913" data-name="Trazado 123913" d="M138.383,706.344c-1,0-2-.014-3,.008-.351.008-.438-.1-.452-.448-.075-1.9-.086-1.9,1.77-1.9,1.584,0,3.169.014,4.753-.01.413-.006.521.111.526.523.023,1.829.037,1.829-1.771,1.829Z" transform="translate(-28.258 -22.632)"/>
      <path id="Trazado_123914" data-name="Trazado 123914" d="M138.5,688.012c1.024,0,2.048.014,3.072-.008.349-.007.439.1.453.447.076,1.9.087,1.9-1.769,1.9-1.585,0-3.169-.014-4.753.01-.411.006-.522-.108-.527-.522-.023-1.83-.038-1.83,1.77-1.83Z" transform="translate(-28.302 -11.327)"/>
      <path id="Trazado_123915" data-name="Trazado 123915" d="M210.362,738.336c-1,0-2-.014-3,.008-.348.007-.44-.094-.454-.446-.077-1.9-.088-1.9,1.767-1.9,1.584,0,3.169.014,4.753-.009.41-.006.523.105.528.521.023,1.831.038,1.831-1.769,1.831Z" transform="translate(-79.151 -45.252)"/>
      <path id="Trazado_123916" data-name="Trazado 123916" d="M210.422,722.339c-.951,0-1.9-.023-2.852.01-.453.015-.619-.08-.615-.584.012-1.768-.011-1.769,1.761-1.769,1.56,0,3.12.016,4.68-.01.453-.007.619.081.615.584-.011,1.768.011,1.769-1.761,1.769Z" transform="translate(-79.2 -33.94)"/>
      <path id="Trazado_123917" data-name="Trazado 123917" d="M210.363,706.347c-1,0-2-.013-3,.007-.337.007-.447-.075-.463-.437-.081-1.913-.094-1.912,1.834-1.912,1.56,0,3.12.013,4.68-.009.4-.006.531.085.537.513.025,1.839.041,1.839-1.762,1.839Z" transform="translate(-79.145 -22.634)"/>
      <path id="Trazado_123918" data-name="Trazado 123918" d="M210.552,688.012c1,0,2,.014,3-.008.35-.008.439.1.453.447.076,1.9.087,1.9-1.769,1.9-1.585,0-3.169-.014-4.753.01-.412.006-.522-.109-.527-.523-.023-1.83-.038-1.83,1.77-1.83Z" transform="translate(-79.197 -11.327)"/>
      <path id="Trazado_123919" data-name="Trazado 123919" d="M282.413,738.336c-1.024,0-2.048-.014-3.072.008-.349.007-.439-.1-.453-.447-.076-1.9-.087-1.9,1.769-1.9,1.584,0,3.169.014,4.753-.009.411-.006.522.107.527.522.023,1.83.038,1.83-1.77,1.83Z" transform="translate(-130.046 -45.252)"/>
      <path id="Trazado_123920" data-name="Trazado 123920" d="M282.5,720c1,0,2,.017,3-.008.38-.01.482.1.49.484.042,1.867.055,1.867-1.805,1.867-1.56,0-3.121-.018-4.681.011-.45.008-.566-.105-.566-.561,0-1.794-.018-1.794,1.734-1.794Z" transform="translate(-130.098 -33.943)"/>
      <path id="Trazado_123921" data-name="Trazado 123921" d="M282.532,704.007c1,0,2,.014,3-.008.351-.008.438.1.452.448.075,1.9.086,1.9-1.77,1.9-1.585,0-3.169-.014-4.754.01-.413.006-.52-.111-.526-.523-.023-1.829-.037-1.829,1.771-1.829Z" transform="translate(-130.091 -22.636)"/>
      <path id="Trazado_123922" data-name="Trazado 123922" d="M282.463,688.011c1.024,0,2.048.015,3.072-.008.357-.008.435.108.448.452.073,1.9.083,1.9-1.773,1.9-1.585,0-3.169-.015-4.754.01-.418.006-.517-.12-.522-.527-.022-1.825-.036-1.825,1.774-1.825Z" transform="translate(-130.092 -11.326)"/>
    </g>
  </g>
</svg>
