<svg xmlns="http://www.w3.org/2000/svg" width="820" height="245.559" viewBox="0 0 820 245.559">
  <g id="Grupo_84803" data-name="Grupo 84803" transform="translate(-390 -4180)">
    <g id="Grupo_82753" data-name="Grupo 82753" transform="translate(363.63 4099.255)">
      <circle id="Elipse_5317" data-name="Elipse 5317" cx="96.366" cy="96.366" r="96.366" transform="translate(52.784 107.158)" fill="#583ae2"/>
      <g id="Grupo_82722" data-name="Grupo 82722" transform="translate(26.37 80.745)">
        <g id="Grupo_82719" data-name="Grupo 82719">
          <g id="Grupo_82718" data-name="Grupo 82718">
            <path id="Trazado_120373" data-name="Trazado 120373" d="M147.085,319.675a118.246,118.246,0,1,1,83.591-201.807L228.1,120.45a114.692,114.692,0,1,0,33.556,81.01v-1.826h32.556v3.651H265.288a118.117,118.117,0,0,1-118.2,116.39Z" transform="translate(-24.306 -78.681)" fill="#40327b"/>
            <path id="Trazado_120374" data-name="Trazado 120374" d="M149.149,326.3a122.81,122.81,0,1,1,86.819-209.6l3.226,3.226-9.035,9.037-3.228-3.228a110.123,110.123,0,1,0,32.22,77.782v-6.39h41.683v12.779H271.768A122.676,122.676,0,0,1,149.149,326.3Z" transform="translate(-26.37 -80.745)" fill="#40327b"/>
          </g>
        </g>
        <g id="Grupo_82721" data-name="Grupo 82721" transform="translate(254.172 101.403)">
          <g id="Grupo_82720" data-name="Grupo 82720">
            <path id="Trazado_120375" data-name="Trazado 120375" d="M171.624,169.684l-2.491-2.674,13.187-12.255L169.133,142.5l2.491-2.674,16.058,14.932Z" transform="translate(-162.679 -133.375)" fill="#40327b"/>
            <path id="Trazado_120376" data-name="Trazado 120376" d="M174.311,179.046l-8.712-9.354,12.938-12.021L165.6,145.645l8.712-9.354,22.993,21.38Z" transform="translate(-165.598 -136.29)" fill="#40327b"/>
          </g>
        </g>
      </g>
      <ellipse id="Elipse_5319" data-name="Elipse 5319" cx="86" cy="86" rx="86" ry="86" transform="translate(351.164 288.746) rotate(-90)" fill="#583ae2"/>
      <g id="Grupo_82730" data-name="Grupo 82730" transform="translate(327.592 93.173)">
        <g id="Grupo_82727" data-name="Grupo 82727" transform="translate(0 0)">
          <g id="Grupo_82726" data-name="Grupo 82726">
            <path id="Trazado_120378" data-name="Trazado 120378" d="M291.7,294.244a105.527,105.527,0,1,1,74.6-180.1l-2.3,2.3a102.355,102.355,0,1,0,29.947,72.3v-1.629h29.508v3.258H397.188A105.41,105.41,0,0,1,291.7,294.244Z" transform="translate(-182.129 -79.172)" fill="#40327b"/>
            <path id="Trazado_120379" data-name="Trazado 120379" d="M293.275,299.89a109.6,109.6,0,1,1,77.479-187.051l2.879,2.879-8.063,8.065-2.88-2.88a98.284,98.284,0,1,0,28.754,69.416v-5.7H429.1v11.4H402.7A109.481,109.481,0,0,1,293.275,299.89Z" transform="translate(-183.702 -80.745)" fill="#40327b"/>
          </g>
        </g>
        <g id="Grupo_82729" data-name="Grupo 82729" transform="translate(224.009 90.495)">
          <g id="Grupo_82728" data-name="Grupo 82728">
            <path id="Trazado_120380" data-name="Trazado 120380" d="M326.955,166.472l-2.223-2.387L336.5,153.149l-11.769-10.94,2.223-2.386,14.33,13.326Z" transform="translate(-318.973 -134.068)" fill="#40327b"/>
            <path id="Trazado_120381" data-name="Trazado 120381" d="M328.973,174.447,321.2,166.1l11.546-10.728L321.2,144.639l7.775-8.348,20.518,19.08Z" transform="translate(-321.197 -136.29)" fill="#40327b"/>
          </g>
        </g>
      </g>
      <circle id="Elipse_5321" data-name="Elipse 5321" cx="96.366" cy="96.366" r="96.366" transform="translate(627.225 299.89) rotate(-90)" fill="#583ae2"/>
      <g id="Grupo_82735" data-name="Grupo 82735" transform="translate(600.812 80.745)">
        <g id="Grupo_82734" data-name="Grupo 82734">
          <path id="Trazado_120383" data-name="Trazado 120383" d="M461.748,319.675a118.246,118.246,0,1,1,83.591-201.807l-2.581,2.581a114.695,114.695,0,1,0,33.554,81.01h3.651A118.117,118.117,0,0,1,461.748,319.675Z" transform="translate(-338.969 -78.681)" fill="#40327b"/>
          <path id="Trazado_120384" data-name="Trazado 120384" d="M463.812,326.3a122.809,122.809,0,1,1,86.819-209.6l3.226,3.226-9.035,9.037-3.226-3.228a110.135,110.135,0,1,0,32.216,77.782V198.96h12.779v4.564A122.678,122.678,0,0,1,463.812,326.3Z" transform="translate(-341.033 -80.745)" fill="#40327b"/>
        </g>
      </g>
    </g>
    <path id="Trazado_128252" data-name="Trazado 128252" d="M-38.491-2.656h-4.7L-44.009,0h-3.662l5.215-14.219h3.223L-33.979,0h-3.682ZM-42.368-5.3h3.057l-1.533-4.932Zm19.082.1a6.372,6.372,0,0,1-1.108,3.931A3.554,3.554,0,0,1-27.388.2,3.046,3.046,0,0,1-29.78-.869V4.063h-3.291V-10.566H-30l.1.977a3.046,3.046,0,0,1,2.49-1.172,3.582,3.582,0,0,1,3.037,1.44,6.45,6.45,0,0,1,1.084,3.96Zm-3.291-.205q0-2.812-1.641-2.812a1.549,1.549,0,0,0-1.562.84v4.16a1.6,1.6,0,0,0,1.582.879q1.572,0,1.621-2.715ZM-18.364,0h-3.3V-15h3.3Zm5.5,0h-3.3V-10.566h3.3Zm-3.5-13.291a1.469,1.469,0,0,1,.508-1.152,1.916,1.916,0,0,1,1.318-.449,1.916,1.916,0,0,1,1.318.449,1.469,1.469,0,0,1,.508,1.152,1.469,1.469,0,0,1-.508,1.152,1.916,1.916,0,0,1-1.318.449,1.916,1.916,0,0,1-1.318-.449A1.469,1.469,0,0,1-16.362-13.291Zm9.99,10.947A1.464,1.464,0,0,0-5.3-2.72a1.379,1.379,0,0,0,.371-1.05h3.086A3.653,3.653,0,0,1-3.086-.918,4.631,4.631,0,0,1-6.294.2,4.689,4.689,0,0,1-9.927-1.25a5.7,5.7,0,0,1-1.328-4v-.137a6.436,6.436,0,0,1,.591-2.827A4.3,4.3,0,0,1-8.96-10.1a5.081,5.081,0,0,1,2.637-.659A4.573,4.573,0,0,1-3.052-9.619a4.053,4.053,0,0,1,1.211,3.1H-4.927a1.807,1.807,0,0,0-.4-1.26A1.382,1.382,0,0,0-6.4-8.223q-1.279,0-1.494,1.631a11.508,11.508,0,0,0-.068,1.426,4.52,4.52,0,0,0,.381,2.207A1.319,1.319,0,0,0-6.372-2.344ZM5.5,0A3.716,3.716,0,0,1,5.19-.947,3.06,3.06,0,0,1,2.651.2a3.749,3.749,0,0,1-2.539-.9A2.875,2.875,0,0,1-.933-2.979a2.955,2.955,0,0,1,1.27-2.6,6.468,6.468,0,0,1,3.691-.879H5.044v-.559q0-1.462-1.26-1.462A1.03,1.03,0,0,0,2.612-7.319H-.679a2.95,2.95,0,0,1,1.3-2.487,5.479,5.479,0,0,1,3.325-.956,4.8,4.8,0,0,1,3.193.986,3.429,3.429,0,0,1,1.2,2.705v4.678A4.79,4.79,0,0,0,8.794-.166V0ZM3.442-2.148a1.836,1.836,0,0,0,1.021-.264,1.653,1.653,0,0,0,.581-.6V-4.7H4.087q-1.719,0-1.719,1.543a.942.942,0,0,0,.3.728A1.1,1.1,0,0,0,3.442-2.148Zm11.191-.2a1.464,1.464,0,0,0,1.074-.376,1.379,1.379,0,0,0,.371-1.05h3.086A3.653,3.653,0,0,1,17.92-.918,4.631,4.631,0,0,1,14.712.2,4.689,4.689,0,0,1,11.079-1.25a5.7,5.7,0,0,1-1.328-4v-.137a6.436,6.436,0,0,1,.591-2.827,4.3,4.3,0,0,1,1.7-1.885,5.081,5.081,0,0,1,2.637-.659,4.573,4.573,0,0,1,3.271,1.143,4.053,4.053,0,0,1,1.211,3.1H16.079a1.807,1.807,0,0,0-.4-1.26A1.382,1.382,0,0,0,14.6-8.223q-1.279,0-1.494,1.631a11.508,11.508,0,0,0-.068,1.426,4.52,4.52,0,0,0,.381,2.207A1.319,1.319,0,0,0,14.634-2.344ZM24.028,0h-3.3V-10.566h3.3Zm-3.5-13.291a1.469,1.469,0,0,1,.508-1.152,1.916,1.916,0,0,1,1.318-.449,1.916,1.916,0,0,1,1.318.449,1.469,1.469,0,0,1,.508,1.152,1.469,1.469,0,0,1-.508,1.152,1.916,1.916,0,0,1-1.318.449,1.916,1.916,0,0,1-1.318-.449A1.469,1.469,0,0,1,20.532-13.291Zm5.107,7.91A6.236,6.236,0,0,1,26.255-8.2a4.4,4.4,0,0,1,1.768-1.9,5.323,5.323,0,0,1,2.705-.664,4.858,4.858,0,0,1,3.74,1.47,5.64,5.64,0,0,1,1.367,4v.117a5.472,5.472,0,0,1-1.372,3.921A4.871,4.871,0,0,1,30.747.2a4.927,4.927,0,0,1-3.623-1.353,5.29,5.29,0,0,1-1.475-3.667Zm3.291.205a3.932,3.932,0,0,0,.459,2.148,1.529,1.529,0,0,0,1.357.684q1.758,0,1.8-2.705v-.332q0-2.842-1.816-2.842-1.65,0-1.787,2.451ZM31.177-15h3.477l-2.715,3.066-2.686,0Zm9.131,4.434.107,1.24a3.583,3.583,0,0,1,3.018-1.436,3.015,3.015,0,0,1,2.466.986,4.7,4.7,0,0,1,.845,2.969V0h-3.3V-6.67a1.783,1.783,0,0,0-.322-1.177,1.491,1.491,0,0,0-1.172-.376,1.569,1.569,0,0,0-1.436.762V0H37.222V-10.566Z" transform="translate(514 4310)" fill="#fff"/>
    <path id="Trazado_128253" data-name="Trazado 128253" d="M-21.773,0h-2.905V-12.086h2.905Zm4.541-8.981.091,1.054a3.088,3.088,0,0,1,2.565-1.22,2.273,2.273,0,0,1,2.3,1.353,2.989,2.989,0,0,1,2.64-1.353q2.731,0,2.806,3.3V0H-9.637V-5.669a1.712,1.712,0,0,0-.232-1,.989.989,0,0,0-.847-.315,1.325,1.325,0,0,0-1.237.739l.008.116V0H-14.75V-5.653a1.8,1.8,0,0,0-.224-1.021.987.987,0,0,0-.855-.315,1.342,1.342,0,0,0-1.229.739V0h-2.8V-8.981ZM3.1-4.424a5.416,5.416,0,0,1-.942,3.341A3.021,3.021,0,0,1-.382.166a2.589,2.589,0,0,1-2.034-.9V3.453h-2.8V-8.981H-2.6l.083.83a2.589,2.589,0,0,1,2.117-1A3.045,3.045,0,0,1,2.183-7.923,5.483,5.483,0,0,1,3.1-4.557ZM.307-4.6q0-2.391-1.395-2.391a1.316,1.316,0,0,0-1.328.714v3.536a1.359,1.359,0,0,0,1.345.747Q.266-1.992.307-4.3Zm3.677.025a5.3,5.3,0,0,1,.523-2.395,3.74,3.74,0,0,1,1.5-1.615,4.525,4.525,0,0,1,2.3-.564A4.13,4.13,0,0,1,11.488-7.9,4.794,4.794,0,0,1,12.65-4.5v.1a4.651,4.651,0,0,1-1.166,3.333A4.141,4.141,0,0,1,8.326.166a4.188,4.188,0,0,1-3.08-1.15A4.5,4.5,0,0,1,3.993-4.1Zm2.8.174a3.342,3.342,0,0,0,.39,1.826,1.3,1.3,0,0,0,1.154.581q1.494,0,1.527-2.3v-.282q0-2.416-1.544-2.416-1.4,0-1.519,2.083ZM19.316-6.45l-.921-.066a1.655,1.655,0,0,0-1.693.83V0H13.9V-8.981h2.623l.091,1.154a2.166,2.166,0,0,1,1.967-1.32,2.728,2.728,0,0,1,.78.1ZM24-11.214v2.233h1.478v1.942H24V-2.93a1.049,1.049,0,0,0,.183.706.98.98,0,0,0,.722.2,4.1,4.1,0,0,0,.7-.05v2a5.163,5.163,0,0,1-1.577.241,2.93,2.93,0,0,1-2.133-.681A2.79,2.79,0,0,1,21.2-2.582V-7.039H20.055V-8.981H21.2v-2.233ZM-10.521,13.164h-3.627V23h-2.914V13.164h-3.561v-2.25h10.1ZM-5.757,23a3.159,3.159,0,0,1-.266-.805,2.6,2.6,0,0,1-2.158.971,3.187,3.187,0,0,1-2.158-.768,2.444,2.444,0,0,1-.888-1.93,2.512,2.512,0,0,1,1.079-2.208,5.5,5.5,0,0,1,3.138-.747h.863v-.475q0-1.243-1.071-1.243a.875.875,0,0,0-1,.984h-2.8A2.508,2.508,0,0,1-9.9,14.665a4.657,4.657,0,0,1,2.826-.813,4.083,4.083,0,0,1,2.714.838,2.915,2.915,0,0,1,1.021,2.3v3.976a4.072,4.072,0,0,0,.382,1.893V23Zm-1.751-1.826a1.56,1.56,0,0,0,.867-.224,1.4,1.4,0,0,0,.494-.506V19.007H-6.96q-1.461,0-1.461,1.312a.8.8,0,0,0,.257.618A.931.931,0,0,0-7.508,21.174Zm14.053-2.59a5.474,5.474,0,0,1-.913,3.4,3.058,3.058,0,0,1-2.573,1.187A2.654,2.654,0,0,1,.851,22.079L.735,23H-1.772V10.25h2.8v4.491a2.561,2.561,0,0,1,2.017-.888,3.059,3.059,0,0,1,2.59,1.2,5.5,5.5,0,0,1,.913,3.387ZM3.74,18.406A3.651,3.651,0,0,0,3.4,16.562a1.161,1.161,0,0,0-1.058-.551,1.339,1.339,0,0,0-1.312.721V20.3a1.347,1.347,0,0,0,1.328.713,1.188,1.188,0,0,0,1.253-.961A6.9,6.9,0,0,0,3.74,18.406ZM10.729,23H7.923V10.25h2.806Zm6.068.166a4.617,4.617,0,0,1-3.345-1.233,4.257,4.257,0,0,1-1.278-3.208v-.232a5.516,5.516,0,0,1,.51-2.432,3.735,3.735,0,0,1,1.49-1.631,4.5,4.5,0,0,1,2.324-.577,3.888,3.888,0,0,1,2.988,1.175,4.616,4.616,0,0,1,1.1,3.275v1.087H15.02a2.016,2.016,0,0,0,.656,1.187,1.951,1.951,0,0,0,1.312.432,2.514,2.514,0,0,0,2.075-.93l1.278,1.511a3.573,3.573,0,0,1-1.482,1.15A5.007,5.007,0,0,1,16.8,23.166Zm-.315-7.155q-1.229,0-1.461,1.627h2.822v-.216a1.386,1.386,0,0,0-.34-1.042A1.354,1.354,0,0,0,16.481,16.011Z" transform="translate(800.02 4296.351)" fill="#fff"/>
    <path id="Trazado_128254" data-name="Trazado 128254" d="M-28.613-5.3l1.631-8.916h3.4L-26.6,0h-3.555l-1.9-8.105L-33.926,0h-3.545L-40.5-14.219h3.408L-35.459-5.3l1.953-8.916h2.91ZM-18.926,0h-3.3V-10.566h3.3Zm-3.5-13.291a1.469,1.469,0,0,1,.508-1.152,1.916,1.916,0,0,1,1.318-.449,1.916,1.916,0,0,1,1.318.449,1.469,1.469,0,0,1,.508,1.152,1.469,1.469,0,0,1-.508,1.152,1.916,1.916,0,0,1-1.318.449,1.916,1.916,0,0,1-1.318-.449A1.469,1.469,0,0,1-22.422-13.291Zm8.545,2.725.107,1.24a3.583,3.583,0,0,1,3.018-1.436,3.015,3.015,0,0,1,2.466.986,4.7,4.7,0,0,1,.845,2.969V0h-3.3V-6.67a1.783,1.783,0,0,0-.322-1.177,1.491,1.491,0,0,0-1.172-.376,1.569,1.569,0,0,0-1.436.762V0h-3.291V-10.566Zm7.842,5.205A6.455,6.455,0,0,1-4.951-9.316a3.568,3.568,0,0,1,3.027-1.445A3.035,3.035,0,0,1,.459-9.648V-15h3.3V0H.8L.635-1.133A3.116,3.116,0,0,1-1.943.2,3.562,3.562,0,0,1-4.932-1.25,6.659,6.659,0,0,1-6.035-5.361Zm3.291.205q0,2.813,1.641,2.813A1.62,1.62,0,0,0,.459-3.262V-7.285a1.576,1.576,0,0,0-1.543-.937q-1.523,0-1.65,2.461Zm7.959-.225A6.236,6.236,0,0,1,5.83-8.2,4.4,4.4,0,0,1,7.6-10.1a5.323,5.323,0,0,1,2.705-.664,4.858,4.858,0,0,1,3.74,1.47,5.64,5.64,0,0,1,1.367,4v.117a5.472,5.472,0,0,1-1.372,3.921A4.871,4.871,0,0,1,10.322.2,4.927,4.927,0,0,1,6.7-1.157,5.29,5.29,0,0,1,5.225-4.824Zm3.291.205a3.932,3.932,0,0,0,.459,2.148,1.529,1.529,0,0,0,1.357.684q1.758,0,1.8-2.705v-.332q0-2.842-1.816-2.842-1.65,0-1.787,2.451Zm17.48.84,1.064-6.23h3.154L27.715,0H24.932L23.184-6.27,21.426,0H18.643l-2.49-10.566h3.154l1.045,6.377,1.68-6.377h2.295ZM36.914-2.969a.76.76,0,0,0-.439-.674A6.685,6.685,0,0,0,34.8-4.17a7.615,7.615,0,0,1-2.031-.718,3.4,3.4,0,0,1-1.221-1.079,2.577,2.577,0,0,1-.42-1.455,2.92,2.92,0,0,1,1.2-2.4,4.948,4.948,0,0,1,3.145-.942,5.482,5.482,0,0,1,3.359.947,2.962,2.962,0,0,1,1.27,2.49h-3.3q0-1.27-1.338-1.27a1.326,1.326,0,0,0-.869.288.892.892,0,0,0-.352.718.819.819,0,0,0,.43.713,4.06,4.06,0,0,0,1.372.449,11.857,11.857,0,0,1,1.655.42,3.007,3.007,0,0,1,2.383,2.939A2.767,2.767,0,0,1,38.8-.713,5.632,5.632,0,0,1,35.479.2a5.747,5.747,0,0,1-2.422-.488A4.05,4.05,0,0,1,31.4-1.621a3.007,3.007,0,0,1-.6-1.768h3.076a1.272,1.272,0,0,0,.488,1.069,2.009,2.009,0,0,0,1.2.337,1.58,1.58,0,0,0,1.011-.273A.875.875,0,0,0,36.914-2.969Z" transform="translate(1084 4310)" fill="#fff"/>
  </g>
</svg>
