<svg xmlns="http://www.w3.org/2000/svg" xmlns:xlink="http://www.w3.org/1999/xlink" width="96" height="96" viewBox="0 0 96 96">
  <defs>
    <clipPath id="clip-path">
      <rect id="Rectángulo_34455" data-name="Rectángulo 34455" width="96" height="96" fill="#fff" stroke="#707070" stroke-width="1"/>
    </clipPath>
  </defs>
  <g id="Grupo_130" data-name="Grupo 130" clip-path="url(#clip-path)">
    <g id="Grupo_85016" data-name="Grupo 85016" transform="translate(335.321 -29.898)">
      <path id="Trazado_124378" data-name="Trazado 124378" d="M-325.136,80.511c-.061-1.5-.666-2.935-.562-4.458a1.682,1.682,0,0,0,1.059-2.115,7.069,7.069,0,0,1-.1-.931c-.365-6.337-.106-12.681-.186-19.021a1.066,1.066,0,0,1,1.1-1.217,17.62,17.62,0,0,0,3.917-.877c6.467-2.327,10.764-6.609,12.082-13.525.18-.946.668-1.178,1.556-1.177q20.621.03,41.242.017c.279,0,.558.035.837.054a16.743,16.743,0,0,0,1.316,5.476c.208.571.635,1.085.521,1.753-.229-.4-.47-.8-.684-1.214a4.224,4.224,0,0,0-3.98-2.477q-17.055-.008-34.11,0a4.113,4.113,0,0,0-3.922,2.41,24.441,24.441,0,0,1-13.038,12.033,4.2,4.2,0,0,0-2.839,4.118c0,4.495-.163,8.993.257,13.483a57.839,57.839,0,0,0,9.389,26.618A66.872,66.872,0,0,0-286.7,121.725a5.007,5.007,0,0,0,5.217.03,73.055,73.055,0,0,0,11.993-8.112A62.128,62.128,0,0,0-250.04,85.321a70.44,70.44,0,0,0,2.329-9.811c.352.3.232.71.187,1.052-.216,1.659-.437,3.32-.735,4.966a62.681,62.681,0,0,1-9.063,22.852,64.059,64.059,0,0,1-5.991,7.973,42.764,42.764,0,0,1-5.1,5.2c-.548.439-1.261.842-1.378,1.678l0,0c-.451-.074-.766.036-.768.568a1.791,1.791,0,0,1-.194.195,89.724,89.724,0,0,1-12.7,7.509,1.3,1.3,0,0,1-1.325-.04c-.847-.463-1.709-.9-2.565-1.346-18.379-9.6-30.981-23.909-36.06-44.327A1.456,1.456,0,0,0-325.136,80.511Z" transform="translate(-3.252 -4.553)" fill="#dfe2e5"/>
      <path id="Trazado_124379" data-name="Trazado 124379" d="M-267.447,32.709c-.279-.019-.558-.054-.837-.054q-20.621,0-41.242-.017c-.889,0-1.376.231-1.556,1.177-1.318,6.917-5.614,11.2-12.082,13.525a17.62,17.62,0,0,1-3.917.877,1.066,1.066,0,0,0-1.1,1.217c.08,6.34-.178,12.684.186,19.021a7.074,7.074,0,0,0,.1.931,1.682,1.682,0,0,1-1.059,2.115c-1.262-.178-1.584-.53-1.677-1.806-.5-6.864-.193-13.738-.239-20.608a3.463,3.463,0,0,1,3.289-3.566,16.969,16.969,0,0,0,8.036-3.057,13.878,13.878,0,0,0,5.8-9.257,3.691,3.691,0,0,1,3.884-3.3q22.539-.007,45.078,0a3.594,3.594,0,0,1,3.826,3.139c.833,6.081,5.941,11.009,12.423,12.243.643.122,1.3.192,1.936.334a3.359,3.359,0,0,1,2.792,3.207c.006,7.026.278,14.055-.23,21.075a1.463,1.463,0,0,1-1.464,1.515c-1.1-.343-1.386-.783-1.271-1.928.05-.5.1-.994.13-1.493.339-5.962.1-11.929.165-17.893.019-1.688-.041-1.738-1.732-1.985a18.794,18.794,0,0,1-8.726-3.595,16.326,16.326,0,0,1-6.618-10.6c-.16-.951-.594-1.362-1.566-1.274C-265.886,32.713-266.668,32.691-267.447,32.709Z" transform="translate(0 0)" fill="#040404"/>
      <path id="Trazado_124380" data-name="Trazado 124380" d="M-325.838,152.483a1.456,1.456,0,0,1,1.74,1.278c5.079,20.418,17.681,34.723,36.06,44.327.856.447,1.718.883,2.565,1.346a1.3,1.3,0,0,0,1.325.04,89.726,89.726,0,0,0,12.7-7.509,1.791,1.791,0,0,0,.194-.195,1.453,1.453,0,0,0,.768-.568l0,0a43.762,43.762,0,0,0,5.777-4.724,63.949,63.949,0,0,0,19.178-32.4c.3-1.257.619-1.514,1.828-1.55.994.451,1.086,1.216.85,2.182-3.867,15.814-12.6,28.4-25.382,38.3a92.07,92.07,0,0,1-14.775,8.948,3.628,3.628,0,0,1-3.418.046c-8.274-4.088-15.954-9.025-22.465-15.65a66.776,66.776,0,0,1-17.808-31.726C-327,153.433-326.837,153.041-325.838,152.483Z" transform="translate(-2.55 -76.524)" fill="#040404"/>
      <path id="Trazado_124381" data-name="Trazado 124381" d="M-150.07,80.555c-1.209.036-1.528.293-1.828,1.55a63.949,63.949,0,0,1-19.178,32.4,43.768,43.768,0,0,1-5.777,4.724c.116-.836.829-1.239,1.378-1.678a42.768,42.768,0,0,0,5.1-5.2,64.062,64.062,0,0,0,5.991-7.973,62.682,62.682,0,0,0,9.063-22.852c.3-1.646.519-3.307.735-4.966.045-.342.165-.755-.187-1.052l.031-.374c.413-.111.359-.259.034-.429q.081-.63.162-1.261c.023-.016.066-.038.063-.047a.79.79,0,0,0-.056-.128c0-.216,0-.434.012-.649a107.629,107.629,0,0,0,.1-14.784c.016-.746.053-1.492.044-2.237a2.039,2.039,0,0,0-1.715-2.02c-.577-.108-1.159-.191-1.732-.313a15.371,15.371,0,0,1-8.075-4.53c-.366-.383-.633-.964-1.305-.951l-.121-.165c.027-.345-.034-.618-.473-.587l-.091-.157c.006-.294.044-.612-.411-.58l.016.017c.037-.3.063-.6-.386-.583l.015.017c.021-.458.02-.9-.6-.962-.14-.051-.153-.17-.159-.293.114-.668-.313-1.183-.521-1.753a16.745,16.745,0,0,1-1.316-5.476c.779-.018,1.561,0,2.336-.065.972-.088,1.406.323,1.566,1.274a16.326,16.326,0,0,0,6.618,10.6,18.794,18.794,0,0,0,8.726,3.595c1.691.248,1.751.3,1.732,1.985-.067,5.964.174,11.932-.165,17.893-.029.5-.08,1-.13,1.493-.115,1.146.172,1.585,1.271,1.928Z" transform="translate(-96.187 -4.542)" fill="#c8c8c9"/>
      <path id="Trazado_124382" data-name="Trazado 124382" d="M-239.475,63.828a107.629,107.629,0,0,1-.1,14.784c-.016.216-.008.433-.012.649a.194.194,0,0,0-.008.175q-.081.631-.162,1.261-.017.215-.034.429l-.031.374a70.436,70.436,0,0,1-2.329,9.811A62.127,62.127,0,0,1-261.6,119.634a73.054,73.054,0,0,1-11.993,8.112,5.007,5.007,0,0,1-5.217-.03,66.872,66.872,0,0,1-24.587-22.263,57.838,57.838,0,0,1-9.389-26.618c-.421-4.489-.256-8.988-.257-13.483a4.2,4.2,0,0,1,2.839-4.118A24.441,24.441,0,0,0-297.163,49.2a4.113,4.113,0,0,1,3.922-2.41q17.055-.008,34.11,0a4.224,4.224,0,0,1,3.98,2.477c.214.412.455.81.684,1.214.006.123.019.242.159.293a2.663,2.663,0,0,0,.6.962l-.015-.017a1.07,1.07,0,0,0,.386.583l-.016-.017.411.58.091.157.473.587.121.165a23.049,23.049,0,0,0,9.353,7.1A6.1,6.1,0,0,1-239.475,63.828ZM-262.7,49.553c-4.5-.115-8.994-.088-13.491-.013q-8.528-.021-17.057-.037a1.719,1.719,0,0,0-1.589,1.113A26.766,26.766,0,0,1-309.046,63.7a1.861,1.861,0,0,0-1.271,1.949c.034,2.812,0,5.624.02,8.436a53.621,53.621,0,0,0,5.127,22.553c6.02,12.822,15.632,22.189,28.017,28.846a1.322,1.322,0,0,0,.973.248,1.213,1.213,0,0,0,.888-.2,59.475,59.475,0,0,0,8.711-5.522,4.99,4.99,0,0,0,.478-.286,61.335,61.335,0,0,0,17.108-19.506,54.8,54.8,0,0,0,6.784-22.685c.293-3.995.089-7.994.165-11.991a1.745,1.745,0,0,0-1.2-1.807,27.225,27.225,0,0,1-3.533-1.718,26.375,26.375,0,0,1-10.662-11.26,1.875,1.875,0,0,0-1.7-1.257C-260.328,49.488-261.512,49.532-262.7,49.553Z" transform="translate(-11.144 -10.544)" fill="#030303"/>
      <path id="Trazado_124383" data-name="Trazado 124383" d="M-178.117,255.535a1.452,1.452,0,0,1-.768.568C-178.882,255.571-178.568,255.461-178.117,255.535Z" transform="translate(-94.919 -140.857)" fill="#c8c8c9"/>
      <path id="Trazado_124384" data-name="Trazado 124384" d="M-138.412,75.442a6.1,6.1,0,0,0-3.43-2.952,23.049,23.049,0,0,1-9.353-7.1c.672-.013.939.568,1.305.951a15.371,15.371,0,0,0,8.075,4.53c.573.122,1.155.205,1.732.313a2.039,2.039,0,0,1,1.715,2.02C-138.359,73.95-138.4,74.7-138.412,75.442Z" transform="translate(-112.207 -22.158)" fill="#dfe2e5"/>
      <path id="Trazado_124385" data-name="Trazado 124385" d="M-156.052,58.364a2.664,2.664,0,0,1-.6-.962C-156.032,57.461-156.031,57.905-156.052,58.364Z" transform="translate(-108.799 -17.171)" fill="#dfe2e5"/>
      <path id="Trazado_124386" data-name="Trazado 124386" d="M-154.709,60.5a1.07,1.07,0,0,1-.386-.583C-154.646,59.9-154.672,60.2-154.709,60.5Z" transform="translate(-109.771 -18.74)" fill="#dfe2e5"/>
      <path id="Trazado_124387" data-name="Trazado 124387" d="M-153.7,62l-.411-.58C-153.656,61.392-153.695,61.709-153.7,62Z" transform="translate(-110.386 -19.68)" fill="#dfe2e5"/>
      <path id="Trazado_124388" data-name="Trazado 124388" d="M-152.3,63.973l-.473-.587C-152.337,63.355-152.276,63.628-152.3,63.973Z" transform="translate(-111.219 -20.905)" fill="#dfe2e5"/>
      <path id="Trazado_124389" data-name="Trazado 124389" d="M-118.005,137.48q.017-.215.034-.429C-117.646,137.221-117.592,137.37-118.005,137.48Z" transform="translate(-132.928 -66.897)" fill="#dfe2e5"/>
      <path id="Trazado_124390" data-name="Trazado 124390" d="M-117.512,133.4a.194.194,0,0,1,.008-.175.787.787,0,0,1,.056.128C-117.446,133.366-117.489,133.387-117.512,133.4Z" transform="translate(-133.224 -64.511)" fill="#dfe2e5"/>
      <path id="Trazado_124391" data-name="Trazado 124391" d="M-271.605,130.245a1.322,1.322,0,0,1-.973-.248c-12.385-6.657-22-16.024-28.017-28.846A53.621,53.621,0,0,1-305.723,78.6c-.024-2.812.015-5.625-.02-8.436a1.861,1.861,0,0,1,1.271-1.949,26.766,26.766,0,0,0,14.213-13.085,1.719,1.719,0,0,1,1.589-1.113q8.528,0,17.057.037,0,2.554.006,5.109c-.093.011-.185.029-.278.033a13.316,13.316,0,0,0-12.729,10.6c-.514,2.315-.249,4.668-.287,7-.036,2.232-.008,2.232-2.187,2.263l-.187,0a4.261,4.261,0,0,0-4.2,4.191q-.045,9.934,0,19.867a4.229,4.229,0,0,0,3.667,4.108,25.082,25.082,0,0,0,3.556.08c4.216.028,8.431.038,12.647.054Q-271.6,118.807-271.605,130.245Z" transform="translate(-15.719 -15.056)" fill="#71cc98"/>
      <path id="Trazado_124392" data-name="Trazado 124392" d="M-214.886,130.2l0-22.877c.342-.015.685-.044,1.027-.044,4.747,0,9.495.007,14.242-.006,2.766-.008,4.7-1.733,4.725-4.37q.076-9.744,0-19.488a4.3,4.3,0,0,0-4.488-4.4,11.827,11.827,0,0,0-1.311.007c-.62.062-.8-.177-.792-.791.036-1.811.018-3.623.011-5.434a13.1,13.1,0,0,0-1.176-5.728,13.266,13.266,0,0,0-12.246-7.958q0-2.554-.006-5.109c4.5-.075,8.994-.1,13.491.013.326.6.663,1.2.975,1.806a26.282,26.282,0,0,0,4.544,6.47,26.446,26.446,0,0,0,9.25,6.181,2.733,2.733,0,0,1,1.791,1.981,2.67,2.67,0,0,1,.138.633c-.026,6.221.276,12.454-.926,18.622a58.158,58.158,0,0,1-8.144,20.434,72.535,72.535,0,0,1-10.837,13.281c-.3.286-.755.5-.675,1.047A59.474,59.474,0,0,1-214,130,1.213,1.213,0,0,1-214.886,130.2Z" transform="translate(-72.438 -15.011)" fill="#5db39e"/>
      <path id="Trazado_124393" data-name="Trazado 124393" d="M-189.337,124.512c-.08-.544.378-.761.675-1.047a72.535,72.535,0,0,0,10.837-13.281,58.158,58.158,0,0,0,8.144-20.434c1.2-6.167.9-12.4.926-18.622a2.67,2.67,0,0,0-.138-.633,2.733,2.733,0,0,0-1.791-1.981,26.446,26.446,0,0,1-9.25-6.181,26.282,26.282,0,0,1-4.544-6.47c-.311-.609-.649-1.2-.975-1.806,1.185-.021,2.369-.064,3.554-.054a1.875,1.875,0,0,1,1.7,1.257,26.375,26.375,0,0,0,10.662,11.26A27.225,27.225,0,0,0-166,68.238a1.745,1.745,0,0,1,1.2,1.807c-.075,4,.129,8-.165,11.991a54.8,54.8,0,0,1-6.784,22.685,61.335,61.335,0,0,1-17.108,19.506A4.989,4.989,0,0,1-189.337,124.512Z" transform="translate(-88.387 -15.047)" fill="#46928d"/>
      <path id="Trazado_124394" data-name="Trazado 124394" d="M-247.927,67.713a13.266,13.266,0,0,1,12.246,7.958A13.1,13.1,0,0,1-234.5,81.4c.008,1.812.026,3.623-.011,5.434-.012.614.172.853.792.791a11.826,11.826,0,0,1,1.311-.007,4.3,4.3,0,0,1,4.488,4.4q.065,9.744,0,19.488c-.021,2.637-1.959,4.362-4.725,4.37-4.747.013-9.495,0-14.242.006-.342,0-.685.029-1.027.044-4.216-.017-8.431-.026-12.647-.054a25.08,25.08,0,0,1-3.556-.08,4.229,4.229,0,0,1-3.667-4.108q-.043-9.933,0-19.867a4.261,4.261,0,0,1,4.2-4.191l.187,0c2.179-.031,2.15-.032,2.187-2.263.039-2.336-.227-4.689.287-7a13.316,13.316,0,0,1,12.729-10.6C-248.112,67.742-248.019,67.724-247.927,67.713Zm-10.49,19.737c-.009.13.062.16.174.136l10.316-.005q5.055.018,10.111.04c.368,0,.589-.07.574-.508a71.194,71.194,0,0,0-.186-7.851,10.476,10.476,0,0,0-10.491-8.722,10.407,10.407,0,0,0-10.3,8.336C-258.749,81.706-258.435,84.588-258.417,87.45Zm23.437,2.973c-.373-.038-.745-.108-1.117-.108q-13.4-.009-26.8,0c-1.655,0-2.14.535-2.141,2.224q0,9.182,0,18.365c0,1.752.471,2.223,2.215,2.224q13.446,0,26.893,0c.312,0,.623-.023.935-.035.874.012,1.749.054,2.621.03a1.614,1.614,0,0,0,1.695-1.727q.019-9.7,0-19.4a1.468,1.468,0,0,0-1.583-1.586C-233.168,90.382-234.075,90.415-234.98,90.423Z" transform="translate(-39.399 -23.608)" fill="#020303"/>
      <path id="Trazado_124395" data-name="Trazado 124395" d="M-230.384,150.64c-.312.012-.623.035-.935.035q-13.447,0-26.893,0c-1.744,0-2.214-.471-2.215-2.224q0-9.182,0-18.365c0-1.689.486-2.221,2.141-2.224q13.4-.016,26.8,0c.372,0,.745.071,1.117.109a12.777,12.777,0,0,1,.379,3.23q-.035,7.636,0,15.272A15.654,15.654,0,0,1-230.384,150.64Zm-14.242-7.836c0,.5-.007,1,0,1.5.017.982.511,1.614,1.284,1.657a1.481,1.481,0,0,0,1.477-1.593c.03-.779.045-1.562,0-2.339a2.167,2.167,0,0,1,.825-2,3.124,3.124,0,0,0,.035-4.514,3.208,3.208,0,0,0-4.605.12,3.1,3.1,0,0,0,.221,4.5,1.828,1.828,0,0,1,.768,1.821C-244.649,142.241-244.627,142.524-244.626,142.8Z" transform="translate(-44.01 -61.158)" fill="#636973"/>
      <path id="Trazado_124396" data-name="Trazado 124396" d="M-214.872,75.225a10.476,10.476,0,0,1,10.491,8.722A71.19,71.19,0,0,1-204.2,91.8c.015.438-.206.51-.574.508q-5.055-.029-10.111-.04Q-214.876,83.746-214.872,75.225Z" transform="translate(-72.446 -28.295)" fill="#5db29d"/>
      <path id="Trazado_124397" data-name="Trazado 124397" d="M-232.485,75.228q0,8.521-.008,17.041l-10.316.005-.174-.136c-.018-2.861-.332-5.743.195-8.575A10.407,10.407,0,0,1-232.485,75.228Z" transform="translate(-54.833 -28.298)" fill="#71cc98"/>
      <path id="Trazado_124398" data-name="Trazado 124398" d="M-180.455,150.789a15.654,15.654,0,0,0,.391-4.165q-.03-7.636,0-15.272a12.777,12.777,0,0,0-.379-3.23c.905-.008,1.812-.041,2.716-.016a1.468,1.468,0,0,1,1.583,1.587q.023,9.7,0,19.4a1.614,1.614,0,0,1-1.695,1.727C-178.706,150.843-179.581,150.8-180.455,150.789Z" transform="translate(-93.939 -61.307)" fill="#505762"/>
      <path id="Trazado_124399" data-name="Trazado 124399" d="M-242.8,120.249l.174.136C-242.741,120.409-242.811,120.379-242.8,120.249Z" transform="translate(-55.013 -56.408)" fill="#5db29d"/>
      <path id="Trazado_124400" data-name="Trazado 124400" d="M-221.434,154.012c0-.281-.023-.564,0-.842a1.828,1.828,0,0,0-.768-1.821,3.1,3.1,0,0,1-.221-4.5,3.208,3.208,0,0,1,4.605-.12,3.124,3.124,0,0,1-.035,4.514,2.167,2.167,0,0,0-.825,2c.048.777.033,1.56,0,2.339a1.481,1.481,0,0,1-1.477,1.593c-.773-.042-1.267-.674-1.284-1.657C-221.44,155.01-221.433,154.511-221.434,154.012Z" transform="translate(-67.203 -72.365)" fill="#020202"/>
    </g>
  </g>
</svg>
