<svg xmlns="http://www.w3.org/2000/svg" width="1030" height="245.559" viewBox="0 0 1030 245.559">
  <g id="Grupo_84885" data-name="Grupo 84885" transform="translate(-285 -9557)">
    <g id="Grupo_84882" data-name="Grupo 84882">
      <circle id="Elipse_5317" data-name="Elipse 5317" cx="96.366" cy="96.366" r="96.366" transform="translate(311.414 9583.413)" fill="#583ae2"/>
      <g id="Grupo_82722" data-name="Grupo 82722" transform="translate(285 9557)">
        <g id="Grupo_82719" data-name="Grupo 82719">
          <g id="Grupo_82718" data-name="Grupo 82718">
            <path id="Trazado_120373" data-name="Trazado 120373" d="M147.085,319.675a118.246,118.246,0,1,1,83.591-201.807L228.1,120.45a114.692,114.692,0,1,0,33.556,81.01v-1.826h32.556v3.651H265.288a118.117,118.117,0,0,1-118.2,116.39Z" transform="translate(-24.306 -78.681)" fill="#40327b"/>
            <path id="Trazado_120374" data-name="Trazado 120374" d="M149.149,326.3a122.81,122.81,0,1,1,86.819-209.6l3.226,3.226-9.035,9.037-3.228-3.228a110.123,110.123,0,1,0,32.22,77.782v-6.39h41.683v12.779H271.768A122.676,122.676,0,0,1,149.149,326.3Z" transform="translate(-26.37 -80.745)" fill="#40327b"/>
          </g>
        </g>
        <g id="Grupo_82721" data-name="Grupo 82721" transform="translate(254.172 101.403)">
          <g id="Grupo_82720" data-name="Grupo 82720">
            <path id="Trazado_120375" data-name="Trazado 120375" d="M171.624,169.684l-2.491-2.674,13.187-12.255L169.133,142.5l2.491-2.674,16.058,14.932Z" transform="translate(-162.679 -133.375)" fill="#40327b"/>
            <path id="Trazado_120376" data-name="Trazado 120376" d="M174.311,179.046l-8.712-9.354,12.938-12.021L165.6,145.645l8.712-9.354,22.993,21.38Z" transform="translate(-165.598 -136.29)" fill="#40327b"/>
          </g>
        </g>
      </g>
      <path id="Trazado_128255" data-name="Trazado 128255" d="M-38.491-2.656h-4.7L-44.009,0h-3.662l5.215-14.219h3.223L-33.979,0h-3.682ZM-42.368-5.3h3.057l-1.533-4.932Zm19.082.1a6.372,6.372,0,0,1-1.108,3.931A3.554,3.554,0,0,1-27.388.2,3.046,3.046,0,0,1-29.78-.869V4.063h-3.291V-10.566H-30l.1.977a3.046,3.046,0,0,1,2.49-1.172,3.582,3.582,0,0,1,3.037,1.44,6.45,6.45,0,0,1,1.084,3.96Zm-3.291-.205q0-2.812-1.641-2.812a1.549,1.549,0,0,0-1.562.84v4.16a1.6,1.6,0,0,0,1.582.879q1.572,0,1.621-2.715ZM-18.364,0h-3.3V-15h3.3Zm5.5,0h-3.3V-10.566h3.3Zm-3.5-13.291a1.469,1.469,0,0,1,.508-1.152,1.916,1.916,0,0,1,1.318-.449,1.916,1.916,0,0,1,1.318.449,1.469,1.469,0,0,1,.508,1.152,1.469,1.469,0,0,1-.508,1.152,1.916,1.916,0,0,1-1.318.449,1.916,1.916,0,0,1-1.318-.449A1.469,1.469,0,0,1-16.362-13.291Zm9.99,10.947A1.464,1.464,0,0,0-5.3-2.72a1.379,1.379,0,0,0,.371-1.05h3.086A3.653,3.653,0,0,1-3.086-.918,4.631,4.631,0,0,1-6.294.2,4.689,4.689,0,0,1-9.927-1.25a5.7,5.7,0,0,1-1.328-4v-.137a6.436,6.436,0,0,1,.591-2.827A4.3,4.3,0,0,1-8.96-10.1a5.081,5.081,0,0,1,2.637-.659A4.573,4.573,0,0,1-3.052-9.619a4.053,4.053,0,0,1,1.211,3.1H-4.927a1.807,1.807,0,0,0-.4-1.26A1.382,1.382,0,0,0-6.4-8.223q-1.279,0-1.494,1.631a11.508,11.508,0,0,0-.068,1.426,4.52,4.52,0,0,0,.381,2.207A1.319,1.319,0,0,0-6.372-2.344ZM5.5,0A3.716,3.716,0,0,1,5.19-.947,3.06,3.06,0,0,1,2.651.2a3.749,3.749,0,0,1-2.539-.9A2.875,2.875,0,0,1-.933-2.979a2.955,2.955,0,0,1,1.27-2.6,6.468,6.468,0,0,1,3.691-.879H5.044v-.559q0-1.462-1.26-1.462A1.03,1.03,0,0,0,2.612-7.319H-.679a2.95,2.95,0,0,1,1.3-2.487,5.479,5.479,0,0,1,3.325-.956,4.8,4.8,0,0,1,3.193.986,3.429,3.429,0,0,1,1.2,2.705v4.678A4.79,4.79,0,0,0,8.794-.166V0ZM3.442-2.148a1.836,1.836,0,0,0,1.021-.264,1.653,1.653,0,0,0,.581-.6V-4.7H4.087q-1.719,0-1.719,1.543a.942.942,0,0,0,.3.728A1.1,1.1,0,0,0,3.442-2.148Zm11.191-.2a1.464,1.464,0,0,0,1.074-.376,1.379,1.379,0,0,0,.371-1.05h3.086A3.653,3.653,0,0,1,17.92-.918,4.631,4.631,0,0,1,14.712.2,4.689,4.689,0,0,1,11.079-1.25a5.7,5.7,0,0,1-1.328-4v-.137a6.436,6.436,0,0,1,.591-2.827,4.3,4.3,0,0,1,1.7-1.885,5.081,5.081,0,0,1,2.637-.659,4.573,4.573,0,0,1,3.271,1.143,4.053,4.053,0,0,1,1.211,3.1H16.079a1.807,1.807,0,0,0-.4-1.26A1.382,1.382,0,0,0,14.6-8.223q-1.279,0-1.494,1.631a11.508,11.508,0,0,0-.068,1.426,4.52,4.52,0,0,0,.381,2.207A1.319,1.319,0,0,0,14.634-2.344ZM24.028,0h-3.3V-10.566h3.3Zm-3.5-13.291a1.469,1.469,0,0,1,.508-1.152,1.916,1.916,0,0,1,1.318-.449,1.916,1.916,0,0,1,1.318.449,1.469,1.469,0,0,1,.508,1.152,1.469,1.469,0,0,1-.508,1.152,1.916,1.916,0,0,1-1.318.449,1.916,1.916,0,0,1-1.318-.449A1.469,1.469,0,0,1,20.532-13.291Zm5.107,7.91A6.236,6.236,0,0,1,26.255-8.2a4.4,4.4,0,0,1,1.768-1.9,5.323,5.323,0,0,1,2.705-.664,4.858,4.858,0,0,1,3.74,1.47,5.64,5.64,0,0,1,1.367,4v.117a5.472,5.472,0,0,1-1.372,3.921A4.871,4.871,0,0,1,30.747.2a4.927,4.927,0,0,1-3.623-1.353,5.29,5.29,0,0,1-1.475-3.667Zm3.291.205a3.932,3.932,0,0,0,.459,2.148,1.529,1.529,0,0,0,1.357.684q1.758,0,1.8-2.705v-.332q0-2.842-1.816-2.842-1.65,0-1.787,2.451ZM31.177-15h3.477l-2.715,3.066-2.686,0Zm9.131,4.434.107,1.24a3.583,3.583,0,0,1,3.018-1.436,3.015,3.015,0,0,1,2.466.986,4.7,4.7,0,0,1,.845,2.969V0h-3.3V-6.67a1.783,1.783,0,0,0-.322-1.177,1.491,1.491,0,0,0-1.172-.376,1.569,1.569,0,0,0-1.436.762V0H37.222V-10.566Z" transform="translate(409 9687)" fill="#fff"/>
    </g>
    <g id="Grupo_84881" data-name="Grupo 84881" transform="translate(-6.222)">
      <ellipse id="Elipse_5319" data-name="Elipse 5319" cx="81.687" cy="81.687" rx="81.687" ry="81.687" transform="translate(608.611 9766.453) rotate(-90)" fill="#583ae2"/>
      <g id="Grupo_82730" data-name="Grupo 82730" transform="translate(586.222 9580.689)">
        <g id="Grupo_82727" data-name="Grupo 82727" transform="translate(0 0)">
          <g id="Grupo_82726" data-name="Grupo 82726">
            <path id="Trazado_120378" data-name="Trazado 120378" d="M286.41,283.662a100.235,100.235,0,1,1,70.857-171.067l-2.188,2.188a97.221,97.221,0,1,0,28.445,68.67v-1.547h28.028V185H386.606a100.123,100.123,0,0,1-100.2,98.661Z" transform="translate(-182.333 -79.376)" fill="#40327b"/>
            <path id="Trazado_120379" data-name="Trazado 120379" d="M287.779,288.9a104.1,104.1,0,1,1,73.593-177.67l2.734,2.734-7.659,7.66-2.736-2.736a93.354,93.354,0,1,0,27.312,65.934v-5.416h35.764v10.833h-25.07A103.99,103.99,0,0,1,287.779,288.9Z" transform="translate(-183.702 -80.745)" fill="#40327b"/>
          </g>
        </g>
        <g id="Grupo_82729" data-name="Grupo 82729" transform="translate(212.774 85.957)">
          <g id="Grupo_82728" data-name="Grupo 82728">
            <path id="Trazado_120380" data-name="Trazado 120380" d="M326.844,165.135l-2.111-2.267,11.179-10.388-11.179-10.391,2.111-2.267,13.612,12.658Z" transform="translate(-319.262 -134.357)" fill="#40327b"/>
            <path id="Trazado_120381" data-name="Trazado 120381" d="M328.583,172.534,321.2,164.6l10.967-10.19L321.2,144.22l7.385-7.929,19.489,18.123Z" transform="translate(-321.197 -136.29)" fill="#40327b"/>
          </g>
        </g>
      </g>
      <path id="Trazado_128256" data-name="Trazado 128256" d="M-20.492,0h-2.734V-11.375h2.734Zm4.273-8.453.086.992a2.906,2.906,0,0,1,2.414-1.148,2.14,2.14,0,0,1,2.164,1.273A2.813,2.813,0,0,1-9.07-8.609q2.57,0,2.641,3.109V0H-9.07V-5.336a1.611,1.611,0,0,0-.219-.945.931.931,0,0,0-.8-.3,1.247,1.247,0,0,0-1.164.7l.008.109V0h-2.641V-5.32a1.694,1.694,0,0,0-.211-.961.929.929,0,0,0-.8-.3,1.263,1.263,0,0,0-1.156.7V0h-2.633V-8.453ZM2.922-4.164A5.1,5.1,0,0,1,2.035-1.02,2.843,2.843,0,0,1-.359.156,2.437,2.437,0,0,1-2.273-.7V3.25H-4.906v-11.7h2.461l.078.781A2.437,2.437,0,0,1-.375-8.609a2.866,2.866,0,0,1,2.43,1.152,5.16,5.16,0,0,1,.867,3.168ZM.289-4.328q0-2.25-1.312-2.25a1.239,1.239,0,0,0-1.25.672v3.328a1.279,1.279,0,0,0,1.266.7q1.258,0,1.3-2.172ZM3.75-4.3a4.989,4.989,0,0,1,.492-2.254,3.52,3.52,0,0,1,1.414-1.52A4.259,4.259,0,0,1,7.82-8.609a3.887,3.887,0,0,1,2.992,1.176,4.512,4.512,0,0,1,1.094,3.2v.094A4.378,4.378,0,0,1,10.809-1,3.9,3.9,0,0,1,7.836.156a3.942,3.942,0,0,1-2.9-1.082,4.232,4.232,0,0,1-1.18-2.934Zm2.633.164A3.145,3.145,0,0,0,6.75-2.422a1.223,1.223,0,0,0,1.086.547q1.406,0,1.438-2.164V-4.3q0-2.273-1.453-2.273-1.32,0-1.43,1.961Zm11.8-1.93-.867-.062a1.558,1.558,0,0,0-1.594.781V0H13.086V-8.453h2.469l.086,1.086a2.039,2.039,0,0,1,1.852-1.242,2.567,2.567,0,0,1,.734.094Zm4.406-4.484v2.1h1.391v1.828H22.586v3.867a.987.987,0,0,0,.172.664.922.922,0,0,0,.68.188,3.862,3.862,0,0,0,.656-.047V-.07a4.859,4.859,0,0,1-1.484.227A2.758,2.758,0,0,1,20.6-.484a2.626,2.626,0,0,1-.648-1.945v-4.2H18.875V-8.453h1.078v-2.1ZM-9.9,12.742h-3.414V22h-2.742V12.742H-19.41V10.625H-9.9ZM-5.418,22a2.973,2.973,0,0,1-.25-.758,2.448,2.448,0,0,1-2.031.914,3,3,0,0,1-2.031-.723,2.3,2.3,0,0,1-.836-1.816,2.364,2.364,0,0,1,1.016-2.078,5.174,5.174,0,0,1,2.953-.7h.813v-.448q0-1.17-1.008-1.17a.824.824,0,0,0-.937.926h-2.633a2.36,2.36,0,0,1,1.043-1.99,4.383,4.383,0,0,1,2.66-.765,3.843,3.843,0,0,1,2.555.789,2.743,2.743,0,0,1,.961,2.164v3.742a3.832,3.832,0,0,0,.359,1.781V22Zm-1.648-1.719a1.469,1.469,0,0,0,.816-.211,1.322,1.322,0,0,0,.465-.477V18.242h-.766q-1.375,0-1.375,1.234a.754.754,0,0,0,.242.582A.876.876,0,0,0-7.066,20.281ZM6.16,17.844a5.152,5.152,0,0,1-.859,3.2,2.878,2.878,0,0,1-2.422,1.117A2.5,2.5,0,0,1,.8,21.133L.691,22H-1.668V10H.965v4.227a2.41,2.41,0,0,1,1.9-.836A2.879,2.879,0,0,1,5.3,14.523a5.179,5.179,0,0,1,.859,3.188ZM3.52,17.676A3.437,3.437,0,0,0,3.2,15.941a1.093,1.093,0,0,0-1-.519A1.261,1.261,0,0,0,.965,16.1v3.354a1.268,1.268,0,0,0,1.25.671,1.118,1.118,0,0,0,1.18-.9A6.5,6.5,0,0,0,3.52,17.676ZM10.1,22H7.457V10H10.1Zm5.711.156A4.345,4.345,0,0,1,12.66,21a4.006,4.006,0,0,1-1.2-3.02v-.219a5.191,5.191,0,0,1,.48-2.289,3.516,3.516,0,0,1,1.4-1.535,4.233,4.233,0,0,1,2.188-.543A3.659,3.659,0,0,1,18.34,14.5a4.344,4.344,0,0,1,1.031,3.082V18.6H14.137a1.9,1.9,0,0,0,.617,1.117,1.836,1.836,0,0,0,1.234.406,2.366,2.366,0,0,0,1.953-.875l1.2,1.422a3.363,3.363,0,0,1-1.395,1.082A4.713,4.713,0,0,1,15.809,22.156Zm-.3-6.734q-1.156,0-1.375,1.531h2.656v-.2a1.3,1.3,0,0,0-.32-.98A1.275,1.275,0,0,0,15.512,15.422Z" transform="translate(688.868 9679.303)" fill="#fff"/>
    </g>
    <g id="Grupo_84883" data-name="Grupo 84883" transform="translate(-4)">
      <ellipse id="Elipse_5405" data-name="Elipse 5405" cx="81.687" cy="81.687" rx="81.687" ry="81.687" transform="translate(852.183 9766.453) rotate(-90)" fill="#583ae2"/>
      <g id="Grupo_84880" data-name="Grupo 84880" transform="translate(829.793 9580.689)">
        <g id="Grupo_82727-2" data-name="Grupo 82727" transform="translate(0 0)">
          <g id="Grupo_82726-2" data-name="Grupo 82726">
            <path id="Trazado_120378-2" data-name="Trazado 120378" d="M286.41,283.662a100.235,100.235,0,1,1,70.857-171.067l-2.188,2.188a97.221,97.221,0,1,0,28.445,68.67v-1.547h28.028V185H386.606a100.123,100.123,0,0,1-100.2,98.661Z" transform="translate(-182.333 -79.376)" fill="#40327b"/>
            <path id="Trazado_120379-2" data-name="Trazado 120379" d="M287.779,288.9a104.1,104.1,0,1,1,73.593-177.67l2.734,2.734-7.659,7.66-2.736-2.736a93.354,93.354,0,1,0,27.312,65.934v-5.416h35.764v10.833h-25.07A103.99,103.99,0,0,1,287.779,288.9Z" transform="translate(-183.702 -80.745)" fill="#40327b"/>
          </g>
        </g>
        <g id="Grupo_82729-2" data-name="Grupo 82729" transform="translate(212.774 85.957)">
          <g id="Grupo_82728-2" data-name="Grupo 82728">
            <path id="Trazado_120380-2" data-name="Trazado 120380" d="M326.844,165.135l-2.111-2.267,11.179-10.388-11.179-10.391,2.111-2.267,13.612,12.658Z" transform="translate(-319.262 -134.357)" fill="#40327b"/>
            <path id="Trazado_120381-2" data-name="Trazado 120381" d="M328.583,172.534,321.2,164.6l10.967-10.19L321.2,144.22l7.385-7.929,19.489,18.123Z" transform="translate(-321.197 -136.29)" fill="#40327b"/>
          </g>
        </g>
      </g>
      <path id="Trazado_128257" data-name="Trazado 128257" d="M-11.887-3.023a1.127,1.127,0,0,0-.426-.937,5.292,5.292,0,0,0-1.5-.7,14.353,14.353,0,0,1-1.75-.7A3.314,3.314,0,0,1-17.77-8.336,2.676,2.676,0,0,1-17.219-10a3.562,3.562,0,0,1,1.559-1.125,6.065,6.065,0,0,1,2.266-.4,5.305,5.305,0,0,1,2.2.438A3.482,3.482,0,0,1-9.684-9.848,3.254,3.254,0,0,1-9.145-8h-2.734A1.375,1.375,0,0,0-12.3-9.078a1.66,1.66,0,0,0-1.152-.383,1.872,1.872,0,0,0-1.16.324,1,1,0,0,0-.426.824,1,1,0,0,0,.469.793,5.911,5.911,0,0,0,1.648.734,10.1,10.1,0,0,1,1.938.816,3.256,3.256,0,0,1,1.844,2.93A2.778,2.778,0,0,1-10.27-.7a5,5,0,0,1-3.086.852,6.122,6.122,0,0,1-2.5-.5A3.775,3.775,0,0,1-17.547-1.7a3.542,3.542,0,0,1-.566-1.988h2.75a1.744,1.744,0,0,0,.473,1.348,2.234,2.234,0,0,0,1.535.434A1.765,1.765,0,0,0-12.281-2.2.967.967,0,0,0-11.887-3.023Zm6.6-4.523A2.635,2.635,0,0,1-3.129-8.609a2.627,2.627,0,0,1,2.109.828A3.721,3.721,0,0,1-.293-5.336V0H-2.934V-5.273a1.488,1.488,0,0,0-.273-.988,1.175,1.175,0,0,0-.93-.316,1.266,1.266,0,0,0-1.148.516V0H-7.918V-12h2.633ZM3.949,0H1.309V-8.453H3.949Zm-2.8-10.633a1.175,1.175,0,0,1,.406-.922,1.533,1.533,0,0,1,1.055-.359,1.533,1.533,0,0,1,1.055.359,1.175,1.175,0,0,1,.406.922,1.175,1.175,0,0,1-.406.922,1.533,1.533,0,0,1-1.055.359,1.533,1.533,0,0,1-1.055-.359A1.175,1.175,0,0,1,1.152-10.633Zm6.906,2.18.086.992a2.906,2.906,0,0,1,2.414-1.148,2.14,2.14,0,0,1,2.164,1.273,2.813,2.813,0,0,1,2.484-1.273q2.57,0,2.641,3.109V0H15.207V-5.336a1.611,1.611,0,0,0-.219-.945.931.931,0,0,0-.8-.3,1.247,1.247,0,0,0-1.164.7l.008.109V0H10.395V-5.32a1.694,1.694,0,0,0-.211-.961.929.929,0,0,0-.8-.3,1.263,1.263,0,0,0-1.156.7V0H5.59V-8.453Z" transform="translate(934 9691.267)" fill="#fff"/>
    </g>
    <g id="Grupo_84884" data-name="Grupo 84884">
      <circle id="Elipse_5321" data-name="Elipse 5321" cx="96.366" cy="96.366" r="96.366" transform="translate(1095.855 9776.146) rotate(-90)" fill="#583ae2"/>
      <g id="Grupo_82735" data-name="Grupo 82735" transform="translate(1069.441 9557)">
        <g id="Grupo_82734" data-name="Grupo 82734">
          <path id="Trazado_120383" data-name="Trazado 120383" d="M461.748,319.675a118.246,118.246,0,1,1,83.591-201.807l-2.581,2.581a114.695,114.695,0,1,0,33.554,81.01h3.651A118.117,118.117,0,0,1,461.748,319.675Z" transform="translate(-338.969 -78.681)" fill="#40327b"/>
          <path id="Trazado_120384" data-name="Trazado 120384" d="M463.812,326.3a122.809,122.809,0,1,1,86.819-209.6l3.226,3.226-9.035,9.037-3.226-3.228a110.135,110.135,0,1,0,32.216,77.782V198.96h12.779v4.564A122.678,122.678,0,0,1,463.812,326.3Z" transform="translate(-341.033 -80.745)" fill="#40327b"/>
        </g>
      </g>
      <path id="Trazado_128258" data-name="Trazado 128258" d="M-28.613-5.3l1.631-8.916h3.4L-26.6,0h-3.555l-1.9-8.105L-33.926,0h-3.545L-40.5-14.219h3.408L-35.459-5.3l1.953-8.916h2.91ZM-18.926,0h-3.3V-10.566h3.3Zm-3.5-13.291a1.469,1.469,0,0,1,.508-1.152,1.916,1.916,0,0,1,1.318-.449,1.916,1.916,0,0,1,1.318.449,1.469,1.469,0,0,1,.508,1.152,1.469,1.469,0,0,1-.508,1.152,1.916,1.916,0,0,1-1.318.449,1.916,1.916,0,0,1-1.318-.449A1.469,1.469,0,0,1-22.422-13.291Zm8.545,2.725.107,1.24a3.583,3.583,0,0,1,3.018-1.436,3.015,3.015,0,0,1,2.466.986,4.7,4.7,0,0,1,.845,2.969V0h-3.3V-6.67a1.783,1.783,0,0,0-.322-1.177,1.491,1.491,0,0,0-1.172-.376,1.569,1.569,0,0,0-1.436.762V0h-3.291V-10.566Zm7.842,5.205A6.455,6.455,0,0,1-4.951-9.316a3.568,3.568,0,0,1,3.027-1.445A3.035,3.035,0,0,1,.459-9.648V-15h3.3V0H.8L.635-1.133A3.116,3.116,0,0,1-1.943.2,3.562,3.562,0,0,1-4.932-1.25,6.659,6.659,0,0,1-6.035-5.361Zm3.291.205q0,2.813,1.641,2.813A1.62,1.62,0,0,0,.459-3.262V-7.285a1.576,1.576,0,0,0-1.543-.937q-1.523,0-1.65,2.461Zm7.959-.225A6.236,6.236,0,0,1,5.83-8.2,4.4,4.4,0,0,1,7.6-10.1a5.323,5.323,0,0,1,2.705-.664,4.858,4.858,0,0,1,3.74,1.47,5.64,5.64,0,0,1,1.367,4v.117a5.472,5.472,0,0,1-1.372,3.921A4.871,4.871,0,0,1,10.322.2,4.927,4.927,0,0,1,6.7-1.157,5.29,5.29,0,0,1,5.225-4.824Zm3.291.205a3.932,3.932,0,0,0,.459,2.148,1.529,1.529,0,0,0,1.357.684q1.758,0,1.8-2.705v-.332q0-2.842-1.816-2.842-1.65,0-1.787,2.451Zm17.48.84,1.064-6.23h3.154L27.715,0H24.932L23.184-6.27,21.426,0H18.643l-2.49-10.566h3.154l1.045,6.377,1.68-6.377h2.295ZM36.914-2.969a.76.76,0,0,0-.439-.674A6.685,6.685,0,0,0,34.8-4.17a7.615,7.615,0,0,1-2.031-.718,3.4,3.4,0,0,1-1.221-1.079,2.577,2.577,0,0,1-.42-1.455,2.92,2.92,0,0,1,1.2-2.4,4.948,4.948,0,0,1,3.145-.942,5.482,5.482,0,0,1,3.359.947,2.962,2.962,0,0,1,1.27,2.49h-3.3q0-1.27-1.338-1.27a1.326,1.326,0,0,0-.869.288.892.892,0,0,0-.352.718.819.819,0,0,0,.43.713,4.06,4.06,0,0,0,1.372.449,11.857,11.857,0,0,1,1.655.42,3.007,3.007,0,0,1,2.383,2.939A2.767,2.767,0,0,1,38.8-.713,5.632,5.632,0,0,1,35.479.2a5.747,5.747,0,0,1-2.422-.488A4.05,4.05,0,0,1,31.4-1.621a3.007,3.007,0,0,1-.6-1.768h3.076a1.272,1.272,0,0,0,.488,1.069,2.009,2.009,0,0,0,1.2.337,1.58,1.58,0,0,0,1.011-.273A.875.875,0,0,0,36.914-2.969Z" transform="translate(1189 9687)" fill="#fff"/>
    </g>
  </g>
</svg>
