<svg xmlns="http://www.w3.org/2000/svg" xmlns:xlink="http://www.w3.org/1999/xlink" width="85" height="85" viewBox="0 0 85 85">
  <defs>
    <clipPath id="clip-path">
      <rect id="Rectángulo_34037" data-name="Rectángulo 34037" width="85" height="85" transform="translate(915 14109)" fill="#2ff980" stroke="#707070" stroke-width="1"/>
    </clipPath>
  </defs>
  <g id="Enmascarar_grupo_82" data-name="Enmascarar grupo 82" transform="translate(-915 -14109)" clip-path="url(#clip-path)">
    <g id="Grupo_85033" data-name="Grupo 85033" transform="translate(1361.336 14471.41)">
      <path id="Trazado_124437" data-name="Trazado 124437" d="M-390.729-357.422c.062-1.206.062-1.206,1.312-1.206h53.853c4.085,0,6.584,2.5,6.584,6.591q0,24.915,0,49.83a6,6,0,0,1-4.439,6.254c-.4.135-.406.339-.405.652q.008,3.856,0,7.713a6.062,6.062,0,0,1-6.4,6.4q-11.761,0-23.523,0a6.075,6.075,0,0,1-6.4-6.034q0-1.222,0-2.444,0-.591,0-1.182l-.005-2.45v-2.4l.006-2.441q0-4.756,0-9.512a1.638,1.638,0,0,0-.084-.36,59.587,59.587,0,0,0,.023-6.862c.158-2.288.05-4.577.056-6.866.006-4.386.059-8.772,0-13.156a6.751,6.751,0,0,1,2.35-5.554,7.59,7.59,0,0,1,4.562-1.253c7.661.035,15.323.014,22.985.016a6.062,6.062,0,0,1,6.43,6.438q0,6.5,0,13,.005,5.4.024,10.807,0,2.417,0,4.833,0,3.405,0,6.811c-.008.276,0,.555-.026.829-.075.682.23.566.626.318a3.494,3.494,0,0,0,1.779-2.977c.045-1.659,0-3.321,0-4.981.008-.251.022-.5.022-.754q0-22.336,0-44.673c0-2.773-1.4-4.171-4.186-4.171h-53.835C-390.666-356.208-390.666-356.208-390.729-357.422Zm54.215,71.394a3.49,3.49,0,0,0,.284-1.532c.08-.7-.109-.915-.869-.913-9.918.031-19.836.02-29.755.02-.176,0-.353.007-.529,0-.207-.009-.339.048-.327.289a4.352,4.352,0,0,0,.271,2.137,3.452,3.452,0,0,0,3.3,2.407c1.839.024,3.678.007,5.517.007q9.3,0,18.591,0A3.471,3.471,0,0,0-336.514-286.027Zm0-50.827a3.47,3.47,0,0,0-3.52-2.413q-8.2-.007-16.4,0c-2.544,0-5.089-.011-7.633,0a3.459,3.459,0,0,0-3.371,2.409c-.485,1.216-.485,1.216.8,1.216,1.988,0,3.977-.006,5.965,0,.954,0,1.352.4,1.442,1.357a7.114,7.114,0,0,0,.164,1.041c.244.99.561,1.229,1.574,1.23h11.025c1.012,0,1.333-.243,1.578-1.227a6.575,6.575,0,0,0,.16-.966c.1-1.094.469-1.434,1.594-1.436,2.064,0,4.129-.032,6.191.016.727.017.8-.255.593-.819C-336.4-336.581-336.458-336.717-336.513-336.855Zm.245,38.721c.009-.276.025-.553.025-.829q0-9.671,0-19.343c0-4.735-.013-9.47.016-14.2,0-.613-.178-.736-.747-.722q-2.379.057-4.761,0c-.523-.013-.71.141-.849.648-.6,2.2-1.691,3-3.975,3-3.754,0-7.507-.014-11.261.007a2.942,2.942,0,0,1-3.168-2.066c-.419-1.6-1.337-1.758-2.638-1.572-.149.021-.3.019-.452.027-.957-.008-1.917.025-2.871-.04-.631-.043-.779.142-.778.773q.031,20.415,0,40.83c0,.628.145.777.775.776q14.975-.034,29.95-.016a2.1,2.1,0,0,1,.3,0c.367.053.466-.1.463-.461C-336.258-293.6-336.259-295.866-336.268-298.134Z" transform="translate(-36.127 0)" fill="#000101"/>
      <path id="Trazado_124438" data-name="Trazado 124438" d="M-409.871-287.228c-.038,1.2-.038,1.2-1.237,1.2q-4.649,0-9.3,0c-1.182,0-1.578-.4-1.582-1.587,0-.68-.017-1.361,0-2.04a3.472,3.472,0,0,1,2.078-3.244,1.152,1.152,0,0,0,.749-.909c.116-.614.282-1.218.444-1.9h-.949q-8.2,0-16.4,0c-3.968,0-6.494-2.54-6.494-6.524q0-24.94,0-49.88c0-3.981,2.528-6.509,6.506-6.511h.68c1.248,0,1.248,0,1.31,1.206-.063,1.214-.063,1.214-1.307,1.214h-.68c-2.659,0-4.088,1.439-4.089,4.115q0,21.574,0,43.149c0,1.17,0,1.17,1.213,1.107l18.744,0c2.283.007,4.566.082,6.848-.039l3.449.07.028,1.181-.025,1.228q-12.442,0-24.885,0c-1.386,0-2.772.015-4.158.024a3.65,3.65,0,0,1-.451-.028c-.634-.115-.819.14-.777.769.058.877.012,1.761.015,2.642a3.631,3.631,0,0,0,3.822,3.849q13.217.006,26.434,0l-.024.034q0,1.181,0,2.363l.022.031-2.566.021c-.975-.011-1.953.016-2.924-.047-.636-.041-.908.155-1.046.8-.371,1.722-.4,1.715,1.4,1.628l5.14.01-.022.031q0,1.183.006,2.366l.019.043-6.051,0c-.629-.005-1.259-.015-1.888-.015-1.394,0-1.722.357-1.761,1.728-.016.561.126.711.7.706,3-.026,6,0,9,0Z" transform="translate(0 0)" fill="#000101"/>
      <path id="Trazado_124439" data-name="Trazado 124439" d="M-433.364-305.061c-1.212.063-1.212.063-1.212-1.107q0-21.575,0-43.149c0-2.676,1.43-4.114,4.089-4.115h.68c1.244,0,1.244,0,1.307-1.214h2.37c.064,1.213.064,1.213,1.2,1.213,1.209,0,1.209,0,1.273-1.213h2.37c.063,1.214.063,1.214,1.308,1.214h53.835c2.782,0,4.185,1.4,4.186,4.171q0,22.336,0,44.673c0,.252-.015.5-.022.754l-1.189.037,0-.054q0-2.408-.006-4.817,0-20.6,0-41.2a2.362,2.362,0,0,0-2.354-2.349q-31.5,0-63,0c-.755,0-1.511-.007-2.267,0a2.384,2.384,0,0,0-2.577,2.6Q-433.367-327.344-433.364-305.061Z" transform="translate(-5.567 -2.775)" fill="#ddd"/>
      <path id="Trazado_124440" data-name="Trazado 124440" d="M-334.725-128.646l-.017-1.207q.015-.6.031-1.2l3.584-.037q0,1.222,0,2.444Z" transform="translate(-75.147 -158.581)" fill="#706f73"/>
      <path id="Trazado_124441" data-name="Trazado 124441" d="M-404.233-357.421c-.064,1.213-.064,1.213-1.273,1.213-1.134,0-1.134,0-1.2-1.213.062-1.207.062-1.207,1.311-1.207C-404.3-358.628-404.3-358.628-404.233-357.421Z" transform="translate(-24.993 0)" fill="#000101"/>
      <path id="Trazado_124442" data-name="Trazado 124442" d="M-414.6-346.642q31.5,0,63,0a2.362,2.362,0,0,1,2.354,2.349q0,20.6,0,41.2l-1.18,0q-.013-5.4-.024-10.807-.006-6.5,0-13a6.062,6.062,0,0,0-6.43-6.438c-7.662,0-15.323.019-22.985-.016a7.589,7.589,0,0,0-4.562,1.253,5.065,5.065,0,0,0-3.8.934c-.31.233-.481.654-.931.7-.007-.932,0-1.863-.026-2.794a1.2,1.2,0,0,0-1.273-1.283c-.428-.017-.857-.021-1.284,0a.485.485,0,0,1-.552-.354c-.662-1.544-.672-1.54.453-2.745a1.253,1.253,0,0,0-.032-1.977c-.792-.81-1.6-1.6-2.4-2.406-1.675-1.674-1.753-1.685-3.41-.023-.319.319-.543.285-.956.177-1.179-.309-1.715-.946-1.432-2.173a.531.531,0,0,0,0-.151,1.193,1.193,0,0,0-1.244-1.236q-2.38-.032-4.761,0a1.182,1.182,0,0,0-1.249,1.227,9.176,9.176,0,0,0,0,1.283c.034.377-.171.473-.452.64a1.78,1.78,0,0,1-2.7-.5c-.52-.7-1.248-.609-1.9.008-.545.519-1.084,1.045-1.625,1.568A19.379,19.379,0,0,1-414.6-346.642Zm50.3,1.205h-6.2c-1.75,0-1.723,0-1.758,1.738-.011.566.131.7.7.7,4.411-.027,8.823-.015,13.234-.015,1.839,0,1.819,0,1.831-1.814,0-.493-.125-.624-.619-.619C-359.514-345.422-361.909-345.437-364.3-345.437Zm11.446,0c-1.236,0-1.236,0-1.236,1.26,0,1.16,0,1.16,1.185,1.16,1.236,0,1.236,0,1.236-1.26C-351.673-345.437-351.673-345.437-352.858-345.437Z" transform="translate(-19.485 -8.351)" fill="#fefefe"/>
      <path id="Trazado_124443" data-name="Trazado 124443" d="M-283.363-239.748c.008,2.268.01,4.535.033,6.8,0,.36-.1.515-.463.461a2.091,2.091,0,0,0-.3,0q-14.975,0-29.95.016c-.629,0-.776-.148-.775-.776q.03-20.415,0-40.83c0-.631.147-.816.778-.773.954.065,1.914.032,2.871.04A43.141,43.141,0,0,0-310-265.825a14.548,14.548,0,0,0,1.128,3.711c-.154.2-.3.4-.462.59a13.286,13.286,0,0,0,.925,17.955,13.343,13.343,0,0,0,16.592,1.692A23.318,23.318,0,0,0-283.363-239.748Z" transform="translate(-89.031 -58.387)" fill="#ddd"/>
      <path id="Trazado_124444" data-name="Trazado 124444" d="M-274.972-239.845a23.319,23.319,0,0,1-8.451-2.129c4.477-3.187,6.553-7.483,5.916-12.984a13.322,13.322,0,0,0-15.625-11.281,14.151,14.151,0,0,0-7.347,4.028,14.545,14.545,0,0,1-1.128-3.711,43.143,43.143,0,0,1-1.173-8.983c.151-.008.3-.006.452-.027,1.3-.186,2.219-.025,2.638,1.572a2.942,2.942,0,0,0,3.168,2.067c3.754-.021,7.507-.007,11.261-.007,2.285,0,3.372-.793,3.975-3,.139-.507.326-.661.849-.648q2.379.06,4.761,0c.569-.014.751.11.747.722-.029,4.735-.016,9.47-.016,14.2q0,9.672,0,19.343C-274.947-240.4-274.963-240.122-274.972-239.845Z" transform="translate(-97.422 -58.289)" fill="#f0f0f0"/>
      <path id="Trazado_124445" data-name="Trazado 124445" d="M-283.636-289.581c.055.138.114.274.165.413.206.565.134.836-.593.819-2.063-.048-4.128-.019-6.191-.016-1.125,0-1.491.342-1.594,1.436a6.571,6.571,0,0,1-.16.966c-.245.985-.566,1.227-1.578,1.227h-11.025c-1.013,0-1.33-.24-1.574-1.23a7.121,7.121,0,0,1-.164-1.041c-.089-.957-.487-1.353-1.442-1.356-1.988-.008-3.977,0-5.965,0-1.287,0-1.287,0-.8-1.216a1.081,1.081,0,0,0,.348-.114,5.227,5.227,0,0,1,3.433-1.1q11.785.038,23.571,0a5.559,5.559,0,0,1,2.921.849C-284.073-289.822-283.853-289.7-283.636-289.581Zm-15.49,2.425h3.02c1.891,0,1.869,0,1.863-1.862,0-.489-.158-.572-.6-.568-2.416.021-4.832.01-7.248.01-1.933,0-1.917,0-1.861,1.937.012.414.146.5.523.49C-301.994-287.167-300.56-287.156-299.125-287.155Z" transform="translate(-89.004 -47.274)" fill="#76c7f4"/>
      <path id="Trazado_124446" data-name="Trazado 124446" d="M-314.5-124.686a4.351,4.351,0,0,1-.271-2.137c-.011-.241.12-.3.327-.289.176.008.352,0,.529,0,9.918,0,19.836.01,29.754-.02.759,0,.949.213.869.913a3.489,3.489,0,0,1-.284,1.532,6.638,6.638,0,0,1-3.258,1.208c-2.458-.014-4.916-.008-7.374-.01,0-.6-.026-1.209.022-1.809.041-.508-.144-.62-.626-.615-2.238.025-4.477,0-6.715.018-.769.007-1.826-.341-2.228.147-.385.468-.1,1.484-.112,2.26-1.731,0-3.463-.038-5.192.018C-310.992-123.408-312.873-123.462-314.5-124.686Z" transform="translate(-89.061 -161.34)" fill="#76c7f4"/>
      <path id="Trazado_124447" data-name="Trazado 124447" d="M-333.518-297.125c.45-.045.621-.466.931-.7a5.065,5.065,0,0,1,3.8-.934,6.752,6.752,0,0,0-2.35,5.554c.06,4.385.007,8.771,0,13.156-1.192-.3-1.192-.3-1.192-1.467a7.032,7.032,0,0,1,.007-.9c.071-.552-.176-.683-.681-.651-.573.037-1.152,0-1.728-.006q-.012-.589-.024-1.178,0-4.838,0-9.676c.946-.246,1.2-.557,1.212-1.49Q-333.527-296.27-333.518-297.125Z" transform="translate(-75.138 -41.693)" fill="#e6e5e5"/>
      <path id="Trazado_124448" data-name="Trazado 124448" d="M-293.582-117.866c2.458,0,4.916,0,7.374.01a6.639,6.639,0,0,0,3.258-1.208,3.471,3.471,0,0,1-3.52,2.413q-9.3.007-18.591,0c-1.839,0-3.678.017-5.517-.007a3.452,3.452,0,0,1-3.3-2.407c1.631,1.224,3.512,1.278,5.441,1.216,1.729-.056,3.461-.016,5.192-.018Z" transform="translate(-89.691 -166.963)" fill="#4698e2"/>
      <path id="Trazado_124449" data-name="Trazado 124449" d="M-282.949-292.342c-.218-.123-.437-.242-.652-.369a5.559,5.559,0,0,0-2.921-.849q-11.786.035-23.571,0a5.227,5.227,0,0,0-3.433,1.1,1.085,1.085,0,0,1-.348.114,3.459,3.459,0,0,1,3.371-2.409c2.544-.015,5.089,0,7.633,0q8.2,0,16.4,0A3.47,3.47,0,0,1-282.949-292.342Z" transform="translate(-89.691 -44.513)" fill="#4698e2"/>
      <path id="Trazado_124450" data-name="Trazado 124450" d="M-334.791-188.99l.025-1.228c.245-.025.491-.048.736-.075a6.5,6.5,0,0,0,2.773-1.317,1.635,1.635,0,0,1,.084.36q0,4.756,0,9.512l-3.639.04.024-.034-.014-1.213Q-334.8-185.967-334.791-188.99Z" transform="translate(-75.096 -116.403)" fill="#706f73"/>
      <path id="Trazado_124451" data-name="Trazado 124451" d="M-331.209-210.582a6.5,6.5,0,0,1-2.773,1.317c-.245.027-.49.05-.736.075l-.028-1.181v-7.277l.026-1.184c.247.022.494.042.741.067a6.827,6.827,0,0,1,2.792,1.321A59.572,59.572,0,0,1-331.209-210.582Z" transform="translate(-75.144 -97.431)" fill="#ddd"/>
      <path id="Trazado_124452" data-name="Trazado 124452" d="M-331.185-237a6.828,6.828,0,0,0-2.792-1.321c-.247-.025-.494-.045-.741-.067q-.013-.61-.026-1.219v-6.07l.021-1.215c.576.005,1.154.042,1.728.006.505-.032.752.1.681.651a7.028,7.028,0,0,0-.007.9c0,1.172,0,1.172,1.192,1.467C-331.135-241.576-331.027-239.286-331.185-237Z" transform="translate(-75.145 -77.876)" fill="#706f73"/>
      <path id="Trazado_124453" data-name="Trazado 124453" d="M-201.774-186.944l1.189-.037c.005,1.661.049,3.322,0,4.981a3.494,3.494,0,0,1-1.779,2.978c-.4.248-.7.363-.626-.319.03-.274.018-.552.026-.829a1.917,1.917,0,0,0,1.179-1.973C-201.751-183.743-201.773-185.344-201.774-186.944Z" transform="translate(-166.966 -119.629)" fill="#a2a2a2"/>
      <path id="Trazado_124454" data-name="Trazado 124454" d="M-334.814-158.995l3.639-.04q0,1.221-.006,2.441l-3.629-.038Q-334.812-157.813-334.814-158.995Z" transform="translate(-75.096 -139.106)" fill="#454547"/>
      <path id="Trazado_124455" data-name="Trazado 124455" d="M-334.805-151.105l3.629.038q0,1.2,0,2.4l-3.631.038.022-.031v-2.41Z" transform="translate(-75.102 -144.633)" fill="#706f73"/>
      <path id="Trazado_124456" data-name="Trazado 124456" d="M-334.806-143.038l3.631-.038q0,1.225.005,2.45l-3.63-.046Q-334.8-141.855-334.806-143.038Z" transform="translate(-75.102 -150.228)" fill="#454547"/>
      <path id="Trazado_124457" data-name="Trazado 124457" d="M-201.688-186.983c0,1.6.022,3.2-.007,4.8a1.917,1.917,0,0,1-1.179,1.973q0-3.405,0-6.811l1.188-.018Z" transform="translate(-167.052 -119.59)" fill="#b4b4b4"/>
      <path id="Trazado_124458" data-name="Trazado 124458" d="M-201.682-198.115l-1.188.018q0-2.417,0-4.833l1.18,0Q-201.685-200.524-201.682-198.115Z" transform="translate(-167.054 -108.512)" fill="#f0f0f0"/>
      <path id="Trazado_124459" data-name="Trazado 124459" d="M-334.8-135.143l3.63.046q0,.591,0,1.182l-3.584.037-.048-.046.024-1.176Z" transform="translate(-75.106 -155.757)" fill="#b4b4b4"/>
      <path id="Trazado_124460" data-name="Trazado 124460" d="M-425.738-346.646a19.378,19.378,0,0,0,.592,5.437c-.54.559-1.089,1.111-1.619,1.679a1.2,1.2,0,0,0-.01,1.808c.305.335.635.647.958.965a.406.406,0,0,1,.118.514c-.592,1.641-.58,1.645-2.295,1.693a1.24,1.24,0,0,0-1.376,1.413c-.01,1.183,0,2.367,0,3.551,0,2.16.129,2.306,2.31,2.282.5-.005.655.2.914.607a1.6,1.6,0,0,1-.541,2.485.635.635,0,0,0-.105.108,1.186,1.186,0,0,0,0,1.752q1.659,1.707,3.366,3.366a1.179,1.179,0,0,0,1.751.016c.339-.3.649-.632.966-.956a.447.447,0,0,1,.578-.138c1.592.629,1.6.615,1.658,2.321a1.211,1.211,0,0,0,1.3,1.336q2.343.028,4.685,0a1.2,1.2,0,0,0,1.274-1.283c.02-.478.02-.956.029-1.433a16.755,16.755,0,0,1,1.974,1.471,29.336,29.336,0,0,0,4.029,2.613.387.387,0,0,1-.261.516c-1.546.734-1.54.747-2.817-.432-.055-.051-.109-.105-.169-.151a1.152,1.152,0,0,0-1.641.044q-1.738,1.683-3.423,3.42a1.159,1.159,0,0,0-.012,1.694c.3.34.635.647.953.971.155.158.285.266.174.568-.6,1.635-.582,1.641-2.3,1.69a1.243,1.243,0,0,0-1.373,1.419c-.009.781-.021,1.563,0,2.343.023.747-.334,1.8.133,2.159.494.378,1.489.1,2.265.113,1.525.055,1.525.055,1.82,1.2l-18.744,0q0-22.283,0-44.566a2.384,2.384,0,0,1,2.577-2.6C-427.249-346.653-426.493-346.647-425.738-346.646Z" transform="translate(-8.352 -8.348)" fill="#f0f0f0"/>
      <path id="Trazado_124461" data-name="Trazado 124461" d="M-401.54-182.964q-.006,3.023-.013,6.046-13.284,0-26.568,0a2.365,2.365,0,0,1-2.464-2.475c-.008-1.182,0-2.364,0-3.546,1.386-.008,2.772-.023,4.158-.024Q-413.983-182.965-401.54-182.964Zm-19.362,4.841h1.81c1.879,0,1.863,0,1.83-1.891-.008-.433-.135-.543-.553-.538-1.633.022-3.268.009-4.9.009-1.934,0-1.923,0-1.829,1.967.017.365.123.467.477.46C-423.014-178.135-421.958-178.123-420.9-178.123Zm-7.266,0c1.213,0,1.213,0,1.213-1.208s0-1.212-1.208-1.212-1.213,0-1.213,1.208S-429.377-178.123-428.169-178.123Z" transform="translate(-8.347 -122.429)" fill="#b4b4b4"/>
      <path id="Trazado_124462" data-name="Trazado 124462" d="M-372.909-227.162c-.3-1.15-.3-1.15-1.82-1.2.006-1.007.034-2.015.009-3.022-.011-.448.092-.663.579-.6a7.37,7.37,0,0,0,.755.007,1.256,1.256,0,0,0,1.374-1.042,10.464,10.464,0,0,1,1.186-2.843,1.224,1.224,0,0,0-.126-1.535c-.316-.381-1-.667-.919-1.1s.665-.775,1.029-1.156a2.541,2.541,0,0,0,.212-.215c.229-.306.433-.257.657.015a6.844,6.844,0,0,0,.531.538,1.279,1.279,0,0,0,1.881.245,10.289,10.289,0,0,1,2.643-1.083,1.341,1.341,0,0,0,1.109-1.48c-.012-1.216.011-1.216,1.2-1.246v6.069a6.058,6.058,0,0,0-5.885,4.618c-.328,1.388-.328,1.388,1.059,1.445a4.578,4.578,0,0,0,.107,1.039,8.379,8.379,0,0,0,1.27,2.508C-368.343-227.08-370.626-227.155-372.909-227.162Z" transform="translate(-47.278 -80.67)" fill="#919191"/>
      <path id="Trazado_124463" data-name="Trazado 124463" d="M-433.409-183c0,1.182-.01,2.364,0,3.546a2.365,2.365,0,0,0,2.464,2.475q13.284.006,26.568,0,.007.606.014,1.213-13.217,0-26.435,0a3.631,3.631,0,0,1-3.822-3.849c0-.881.043-1.765-.015-2.642-.042-.629.143-.884.777-.769A3.645,3.645,0,0,0-433.409-183Z" transform="translate(-5.521 -122.364)" fill="#a2a2a2"/>
      <path id="Trazado_124464" data-name="Trazado 124464" d="M-349.3-207.719a8.379,8.379,0,0,1-1.269-2.508,4.585,4.585,0,0,1-.107-1.039,2.57,2.57,0,0,1,.449-.018c.519.068.734-.071.835-.667a3.568,3.568,0,0,1,3.542-2.976v7.277Z" transform="translate(-64.037 -100.153)" fill="#f0f0f0"/>
      <path id="Trazado_124465" data-name="Trazado 124465" d="M-357.01-133.811l-.031,1.2c-3-.006-6-.029-9,0-.572,0-.714-.145-.7-.706.039-1.371.367-1.729,1.761-1.728.629,0,1.259.01,1.888.015.22.708.849.887,1.446,1.025a22.072,22.072,0,0,0,4.582.149Z" transform="translate(-52.848 -155.824)" fill="#b4b4b4"/>
      <path id="Trazado_124466" data-name="Trazado 124466" d="M-346.553-151v2.41l-5.14-.01a2.932,2.932,0,0,1,.9-1.224c.5-.49,1.282-.54,1.678-1.155Z" transform="translate(-63.333 -144.703)" fill="#919191"/>
      <path id="Trazado_124467" data-name="Trazado 124467" d="M-348.663-133.826a22.073,22.073,0,0,1-4.582-.149c-.6-.138-1.225-.317-1.446-1.025l6.051,0Z" transform="translate(-61.243 -155.855)" fill="#ddd"/>
      <path id="Trazado_124468" data-name="Trazado 124468" d="M-352.8-151.055c-.4.615-1.177.664-1.678,1.155a2.932,2.932,0,0,0-.9,1.224c-1.8.087-1.767.094-1.4-1.628.139-.643.411-.839,1.046-.8C-354.751-151.039-353.773-151.066-352.8-151.055Z" transform="translate(-59.654 -144.631)" fill="#706f73"/>
      <path id="Trazado_124469" data-name="Trazado 124469" d="M-408.416-316.361c-.009.478-.009.956-.029,1.433a1.2,1.2,0,0,1-1.274,1.283q-2.342.03-4.685,0a1.211,1.211,0,0,1-1.3-1.336c-.061-1.706-.066-1.692-1.658-2.321a.447.447,0,0,0-.578.138c-.317.324-.628.656-.966.956a1.178,1.178,0,0,1-1.751-.016q-1.705-1.66-3.366-3.366a1.186,1.186,0,0,1,0-1.752.637.637,0,0,1,.105-.108,1.6,1.6,0,0,0,.541-2.485c-.259-.411-.41-.613-.914-.607-2.181.024-2.31-.122-2.31-2.282,0-1.184-.008-2.367,0-3.551a1.24,1.24,0,0,1,1.376-1.413c1.715-.048,1.7-.052,2.3-1.693a.406.406,0,0,0-.118-.514c-.324-.318-.653-.63-.958-.965a1.2,1.2,0,0,1,.01-1.808c.531-.568,1.079-1.12,1.619-1.679.542-.523,1.08-1.049,1.625-1.568.649-.617,1.377-.7,1.9-.008a1.78,1.78,0,0,0,2.7.5c.281-.168.486-.264.452-.64a9.162,9.162,0,0,1,0-1.283,1.182,1.182,0,0,1,1.249-1.227q2.38-.03,4.761,0a1.193,1.193,0,0,1,1.244,1.236.534.534,0,0,1,0,.151c-.284,1.227.252,1.864,1.432,2.173.412.108.637.142.956-.177,1.658-1.662,1.736-1.651,3.411.023.8.8,1.61,1.6,2.4,2.406a1.253,1.253,0,0,1,.032,1.977c-1.125,1.206-1.115,1.2-.453,2.745a.485.485,0,0,0,.552.354c.427-.023.857-.019,1.284,0a1.2,1.2,0,0,1,1.273,1.283c.025.931.018,1.863.026,2.794q-.01.855-.021,1.71c-.013.933-.266,1.243-1.212,1.49-.427-.007-.857.015-1.279-.031s-.505.191-.686.492c-.63,1.049-.61,1.922.508,2.608a.508.508,0,0,1,.1.109,1.192,1.192,0,0,1-.019,1.749q-1.654,1.7-3.358,3.356a1.085,1.085,0,0,1-1.721,0c-.893-1.282-1.88-1.157-3.011-.455-.021.013-.044.024-.066.036-.1-.012-.146.025-.122.129Zm5.738-19.351a2.5,2.5,0,0,0-.732-.9c-.925-.944-.939-.949-1.875-.041a1.251,1.251,0,0,1-1.634.3,11.476,11.476,0,0,0-2.984-1.241,1.218,1.218,0,0,1-.959-1.129c-.058-.507.263-1.2-.179-1.473-.386-.238-1.028-.061-1.557-.067a1.89,1.89,0,0,1-.227,0c-.37-.049-.5.121-.463.474a6.781,6.781,0,0,1,0,.68c-.008.983-.236,1.31-1.169,1.573a11.159,11.159,0,0,0-2.57,1.068,1.279,1.279,0,0,1-1.882-.241c-.885-.856-.885-.856-1.722-.024-.862.858-.862.858-.021,1.72.664.682.735,1.084.276,1.876a10.345,10.345,0,0,0-1.108,2.714,1.281,1.281,0,0,1-1.364,1.056c-1.332.02-1.332.036-1.332,1.333,0,1.075,0,1.1,1.134,1.074a1.344,1.344,0,0,1,1.551,1.013,11.016,11.016,0,0,0,1.215,2.913,1.225,1.225,0,0,1-.168,1.531c-.313.373-.991.634-.889,1.1.091.417.648.733,1,1.094a.467.467,0,0,1,.053.054c.351.517.682.449,1.031-.012a4.129,4.129,0,0,1,.532-.535,1.156,1.156,0,0,1,1.46-.189,12.254,12.254,0,0,0,3.055,1.269,1.2,1.2,0,0,1,.922,1.157c.044.49-.249,1.157.147,1.423.35.236.973.066,1.476.075a.441.441,0,0,1,.075,0c.614.116.806-.169.725-.742a5.448,5.448,0,0,1-.005-.6,1.225,1.225,0,0,1,.989-1.335,10.859,10.859,0,0,0,2.915-1.212,1.221,1.221,0,0,1,1.533.149c.378.315.645.994,1.1.908.412-.077.735-.642,1.1-.992a1.588,1.588,0,0,1,.162-.159c.372-.268.407-.525.014-.819a6.447,6.447,0,0,1-.538-.529,1.274,1.274,0,0,1-.214-1.767,9.52,9.52,0,0,0,1.122-2.707,1.309,1.309,0,0,1,1.417-1.089c1.293,0,1.293-.022,1.293-1.295,0-1.114,0-1.114-1.1-1.119-1.078-.005-1.353-.214-1.652-1.261a10.365,10.365,0,0,0-.943-2.3c-.609-1.071-.571-1.356.314-2.231C-403.134-335.368-402.884-335.543-402.677-335.712Z" transform="translate(-11.128 -11.113)" fill="#000101"/>
      <path id="Trazado_124470" data-name="Trazado 124470" d="M-266.926-342.686c2.395,0,4.79.015,7.184-.012.494-.005.622.126.619.618-.011,1.814.008,1.814-1.831,1.814-4.412,0-8.823-.012-13.234.015-.566,0-.708-.131-.7-.7.035-1.737.008-1.738,1.758-1.738Z" transform="translate(-116.863 -11.102)" fill="#000101"/>
      <path id="Trazado_124471" data-name="Trazado 124471" d="M-213.693-342.658c1.185,0,1.185,0,1.185,1.16,0,1.26,0,1.26-1.236,1.26-1.185,0-1.185,0-1.185-1.16C-214.929-342.658-214.929-342.658-213.693-342.658Z" transform="translate(-158.65 -11.131)" fill="#000101"/>
      <path id="Trazado_124472" data-name="Trazado 124472" d="M-303.271-242.642a14.151,14.151,0,0,1,7.347-4.028A13.322,13.322,0,0,1-280.3-235.389c.637,5.5-1.439,9.8-5.916,12.984a13.343,13.343,0,0,1-16.593-1.692,13.286,13.286,0,0,1-.925-17.955C-303.575-242.245-303.425-242.445-303.271-242.642Zm20.24,11.94.08-.155a10.544,10.544,0,0,0-3.324-10.868c-4.542-4.166-12.129-3.477-15.666,1.353a1.418,1.418,0,0,0-.162.152,10.866,10.866,0,0,0,1.157,14.549,10.884,10.884,0,0,0,14.48.415,9.963,9.963,0,0,0,3.438-5.453Z" transform="translate(-94.63 -77.858)" fill="#020304"/>
      <path id="Trazado_124473" data-name="Trazado 124473" d="M-274.078-284.366c-1.434,0-2.869-.012-4.3.008-.376.005-.511-.076-.523-.49-.056-1.938-.071-1.937,1.861-1.937,2.416,0,4.832.011,7.247-.01.442,0,.6.079.6.568.006,1.862.028,1.862-1.863,1.862Z" transform="translate(-114.052 -50.063)" fill="#000101"/>
      <path id="Trazado_124474" data-name="Trazado 124474" d="M-269.338-120.907H-279c.01-.775-.273-1.792.112-2.26.4-.488,1.459-.14,2.228-.147,2.238-.019,4.477.007,6.715-.018.482-.005.667.107.626.615C-269.364-122.116-269.334-121.51-269.338-120.907Z" transform="translate(-113.935 -163.923)" fill="#000101"/>
      <path id="Trazado_124475" data-name="Trazado 124475" d="M-368.377-248.419c-1.187.03-1.21.03-1.2,1.246a1.341,1.341,0,0,1-1.109,1.48,10.291,10.291,0,0,0-2.643,1.082,1.279,1.279,0,0,1-1.881-.245,6.838,6.838,0,0,1-.531-.538c-.224-.272-.428-.321-.657-.015a2.536,2.536,0,0,1-.212.215c-.364.381-.943.72-1.029,1.156s.6.718.919,1.1a1.224,1.224,0,0,1,.126,1.535,10.464,10.464,0,0,0-1.186,2.843,1.256,1.256,0,0,1-1.373,1.042,7.371,7.371,0,0,1-.755-.007c-.488-.067-.59.148-.579.6.026,1.007,0,2.014-.009,3.022-.776-.01-1.771.265-2.265-.113-.467-.357-.11-1.412-.133-2.159-.024-.78-.013-1.562,0-2.343a1.243,1.243,0,0,1,1.373-1.419c1.718-.049,1.7-.055,2.3-1.69.11-.3-.019-.41-.174-.568-.318-.323-.654-.631-.953-.971a1.159,1.159,0,0,1,.012-1.693q1.686-1.735,3.423-3.42a1.152,1.152,0,0,1,1.641-.044c.06.046.113.1.169.151,1.277,1.179,1.271,1.166,2.817.432a.387.387,0,0,0,.262-.516c.008-.4.013-.806.025-1.208a1.227,1.227,0,0,1,1.355-1.357c.756-.012,1.512.007,2.268.012l.024,1.178Z" transform="translate(-41.513 -75.132)" fill="#000101"/>
      <path id="Trazado_124476" data-name="Trazado 124476" d="M-356.95-273.11c-.756-.005-1.512-.024-2.268-.012a1.227,1.227,0,0,0-1.355,1.357c-.012.4-.017.805-.025,1.208a29.328,29.328,0,0,1-4.029-2.613,16.765,16.765,0,0,0-1.974-1.471l0-.152.122-.129c.022-.012.045-.023.066-.036,1.131-.7,2.118-.827,3.011.455a1.085,1.085,0,0,0,1.721,0q1.7-1.653,3.358-3.356a1.192,1.192,0,0,0,.018-1.749.509.509,0,0,0-.1-.109c-1.118-.687-1.138-1.559-.508-2.608.181-.3.275-.538.686-.492s.852.024,1.279.031Q-356.948-277.948-356.95-273.11Z" transform="translate(-52.943 -52.833)" fill="#f7f9fa"/>
      <path id="Trazado_124477" data-name="Trazado 124477" d="M-348.691-220.451a3.568,3.568,0,0,0-3.542,2.976c-.1.6-.316.735-.835.667a2.57,2.57,0,0,0-.449.018c-1.387-.057-1.387-.057-1.059-1.445a6.058,6.058,0,0,1,5.885-4.618q.013.61.026,1.219Z" transform="translate(-61.198 -94.627)" fill="#020304"/>
      <path id="Trazado_124478" data-name="Trazado 124478" d="M-407.079-172.576c-1.056,0-2.112-.013-3.167.007-.354.007-.459-.095-.477-.46-.093-1.967-.105-1.967,1.829-1.967,1.634,0,3.268.013,4.9-.009.418-.005.546.105.553.538.033,1.892.048,1.891-1.83,1.891Z" transform="translate(-22.17 -127.975)" fill="#000101"/>
      <path id="Trazado_124479" data-name="Trazado 124479" d="M-425.382-172.555c-1.208,0-1.208,0-1.208-1.213s0-1.208,1.213-1.208,1.208,0,1.208,1.212S-424.169-172.555-425.382-172.555Z" transform="translate(-11.134 -127.996)" fill="#000101"/>
      <path id="Trazado_124480" data-name="Trazado 124480" d="M-397.105-330.262c-.206.169-.456.344-.67.556-.885.875-.923,1.16-.314,2.231a10.361,10.361,0,0,1,.943,2.3c.3,1.047.574,1.256,1.652,1.261,1.1.005,1.1.005,1.1,1.119,0,1.273,0,1.291-1.293,1.295a1.309,1.309,0,0,0-1.417,1.089,9.521,9.521,0,0,1-1.122,2.707,1.274,1.274,0,0,0,.214,1.767,6.466,6.466,0,0,0,.538.529c.393.294.357.551-.014.819a1.6,1.6,0,0,0-.162.159c-.362.35-.684.915-1.1.992-.46.085-.727-.593-1.1-.908a1.221,1.221,0,0,0-1.533-.149,10.859,10.859,0,0,1-2.915,1.212,1.225,1.225,0,0,0-.989,1.335,5.426,5.426,0,0,0,.005.6c.081.573-.111.858-.725.742a.444.444,0,0,0-.075,0c-.5-.009-1.126.161-1.476-.075-.4-.267-.1-.933-.147-1.423a1.2,1.2,0,0,0-.922-1.157,12.254,12.254,0,0,1-3.055-1.269,1.156,1.156,0,0,0-1.46.189,4.125,4.125,0,0,0-.532.535c-.349.46-.681.529-1.031.012a.462.462,0,0,0-.053-.054c-.351-.361-.908-.677-1-1.094-.1-.471.576-.732.889-1.1a1.225,1.225,0,0,0,.169-1.531,11.014,11.014,0,0,1-1.215-2.913,1.344,1.344,0,0,0-1.551-1.013c-1.134.027-1.134,0-1.134-1.074,0-1.3,0-1.312,1.332-1.333a1.281,1.281,0,0,0,1.364-1.056,10.345,10.345,0,0,1,1.108-2.714c.459-.791.387-1.194-.276-1.876-.841-.863-.841-.863.021-1.72.837-.832.837-.832,1.722.024a1.279,1.279,0,0,0,1.882.241,11.166,11.166,0,0,1,2.57-1.068c.933-.263,1.162-.59,1.169-1.573a6.782,6.782,0,0,0,0-.68c-.033-.353.093-.524.463-.474a1.871,1.871,0,0,0,.227,0c.529.006,1.171-.171,1.557.067.442.272.121.966.179,1.473a1.217,1.217,0,0,0,.959,1.129,11.474,11.474,0,0,1,2.984,1.241,1.251,1.251,0,0,0,1.634-.3c.936-.908.95-.9,1.875.041A2.5,2.5,0,0,1-397.105-330.262Zm-9.383,1.506a6.061,6.061,0,0,0-6.063,6.054,6.071,6.071,0,0,0,6.077,6.045,6.065,6.065,0,0,0,6.025-6.019A6.06,6.06,0,0,0-406.488-328.757Z" transform="translate(-16.7 -16.562)" fill="#919191"/>
      <path id="Trazado_124481" data-name="Trazado 124481" d="M-366.483-256.758l-.122.129C-366.629-256.734-366.582-256.771-366.483-256.758Z" transform="translate(-52.936 -70.996)" fill="#f0f0f0"/>
      <path id="Trazado_124482" data-name="Trazado 124482" d="M-290.8-234.738c3.537-4.83,11.124-5.519,15.666-1.353a10.544,10.544,0,0,1,3.324,10.868l-.08.155,0-.006a1.708,1.708,0,0,0-.739.336,11.37,11.37,0,0,1-7.769,1.468c.167-.186.325-.38.5-.556q3.307-3.312,6.617-6.62c.852-.854.856-1.4.022-2.243q-1.542-1.554-3.1-3.1c-.879-.873-1.408-.869-2.3.017-1.87,1.866-3.748,3.725-5.6,5.611-.375.382-.618.5-.993.022a8.906,8.906,0,0,0-1.009-1.017,1.207,1.207,0,0,0-1.865.008c-.5.459-.98.934-1.469,1.4A14.592,14.592,0,0,1-290.8-234.738Z" transform="translate(-105.775 -83.492)" fill="#47a7f6"/>
      <path id="Trazado_124483" data-name="Trazado 124483" d="M-285.974-213.856a11.37,11.37,0,0,0,7.769-1.468,1.707,1.707,0,0,1,.739-.336,9.964,9.964,0,0,1-3.438,5.453,10.884,10.884,0,0,1-14.48-.415,10.866,10.866,0,0,1-1.157-14.549,1.414,1.414,0,0,1,.162-.152,14.585,14.585,0,0,0,1.222,5c-.611.632-1.219,1.268-1.833,1.9-.812.831-.826,1.381-.02,2.19q2.774,2.785,5.56,5.559c.848.845,1.388.841,2.245,0Z" transform="translate(-100.192 -92.906)" fill="#2e7bf3"/>
      <path id="Trazado_124484" data-name="Trazado 124484" d="M-228.4-193.773l.08-.155Z" transform="translate(-149.262 -114.787)" fill="#2e7bf3"/>
      <path id="Trazado_124485" data-name="Trazado 124485" d="M-392.57-314.71a6.06,6.06,0,0,1,6.039,6.08,6.065,6.065,0,0,1-6.025,6.019,6.071,6.071,0,0,1-6.077-6.045A6.061,6.061,0,0,1-392.57-314.71Zm3.615,6.029a3.635,3.635,0,0,0-3.609-3.608,3.639,3.639,0,0,0-3.646,3.647,3.641,3.641,0,0,0,3.61,3.608A3.639,3.639,0,0,0-388.954-308.681Z" transform="translate(-30.618 -30.609)" fill="#020304"/>
      <path id="Trazado_124486" data-name="Trazado 124486" d="M-283.215-217.76l-3.232,3.172c-.857.842-1.4.846-2.245,0q-2.784-2.775-5.56-5.559c-.805-.809-.791-1.358.02-2.19.614-.629,1.223-1.264,1.833-1.9.49-.468.972-.942,1.47-1.4a1.207,1.207,0,0,1,1.865-.008,8.9,8.9,0,0,1,1.009,1.017c.375.478.618.36.993-.022,1.849-1.887,3.727-3.745,5.6-5.611.888-.886,1.417-.89,2.3-.017q1.553,1.542,3.1,3.1c.834.841.829,1.389-.022,2.243q-3.305,3.313-6.617,6.62C-282.89-218.14-283.048-217.946-283.215-217.76Zm-2.814-.73q3.11-3.081,6.215-6.166c.458-.458,1.257-.86,1.252-1.417s-.845-.918-1.25-1.425c-.349-.437-.582-.434-.989-.017-1.88,1.93-3.8,3.825-5.707,5.725-.778.774-1.346.764-2.136-.006-.162-.158-.32-.321-.48-.481-.908-.91-.908-.91-1.792.111-.132.113-.257.234-.4.336-.534.391-.56.723-.025,1.2.825.728,1.563,1.555,2.355,2.321.464.448.866,1.268,1.407,1.248.583-.023.973-.846,1.468-1.3A.536.536,0,0,0-286.03-218.49Z" transform="translate(-102.95 -89.002)" fill="#020304"/>
      <path id="Trazado_124487" data-name="Trazado 124487" d="M-383.382-303.112a3.639,3.639,0,0,1-3.646,3.647,3.641,3.641,0,0,1-3.61-3.608,3.639,3.639,0,0,1,3.646-3.647A3.635,3.635,0,0,1-383.382-303.112Z" transform="translate(-36.19 -36.178)" fill="#fefefe"/>
      <path id="Trazado_124488" data-name="Trazado 124488" d="M-281.87-215.041c.884-1.02.884-1.02,1.792-.111.16.16.318.323.48.481.79.769,1.358.779,2.136.006,1.911-1.9,3.827-3.8,5.707-5.725.406-.417.639-.421.989.017.4.506,1.244.869,1.249,1.425s-.794.96-1.252,1.417q-3.1,3.1-6.215,6.166A11.654,11.654,0,0,1-281.87-215.041Z" transform="translate(-111.996 -96.127)" fill="#f0f0f0"/>
      <path id="Trazado_124489" data-name="Trazado 124489" d="M-283.733-202.021a11.654,11.654,0,0,0,4.886,3.675.536.536,0,0,1-.076.126c-.494.453-.885,1.277-1.468,1.3-.542.021-.943-.8-1.407-1.248-.793-.766-1.53-1.593-2.355-2.321-.535-.472-.509-.8.025-1.2C-283.989-201.787-283.865-201.908-283.733-202.021Z" transform="translate(-110.133 -109.147)" fill="#ddd"/>
    </g>
  </g>
</svg>
