<svg xmlns="http://www.w3.org/2000/svg" xmlns:xlink="http://www.w3.org/1999/xlink" width="96" height="96" viewBox="0 0 96 96">
  <defs>
    <clipPath id="clip-path">
      <rect id="Rectángulo_34458" data-name="Rectángulo 34458" width="96" height="96" fill="#fff" stroke="#707070" stroke-width="1"/>
    </clipPath>
  </defs>
  <g id="Grupo_131" data-name="Grupo 131" clip-path="url(#clip-path)">
    <g id="Grupo_85017" data-name="Grupo 85017" transform="translate(667.119 60.778)">
      <path id="Trazado_124401" data-name="Trazado 124401" d="M-617.353-30.587h3.2c.211,1.021.545,1.292,1.623,1.294q7.628.018,15.255.032a4.414,4.414,0,0,1,.333,2.059q-.01,30.91,0,61.82a3.756,3.756,0,0,1-.334,1.737c-.27.015-.54.044-.811.044q-22.968,0-45.936,0c-1.748,0-2.079-.336-2.079-2.1V-27.153c0-.218-.006-.435,0-.653a1.357,1.357,0,0,1,1.463-1.482c.843-.021,1.69.044,2.528-.021.68-.053.846.152.843.836-.028,7.018-.021,14.037-.015,21.055a3.736,3.736,0,0,0,4.106,4.094q7.751,0,15.5,0c2.826,0,4.279-1.441,4.28-4.253q0-8.406,0-16.812C-617.384-26.454-617.365-28.521-617.353-30.587Zm-.009,57.949a1.358,1.358,0,0,0,1.512,1.163c4.513-.017,9.025,0,13.538-.011a2.763,2.763,0,0,0,2.9-2.689c.047-1.848.043-3.7,0-5.546a2.725,2.725,0,0,0-2.718-2.7q-10.887-.027-21.775,0a2.726,2.726,0,0,0-2.73,2.687q-.06,2.772,0,5.547a2.763,2.763,0,0,0,2.721,2.7c.57.018,1.144-.025,1.712.011a1.375,1.375,0,0,0,1.6-1.163Zm-3.413-16.288h18.6c.272,0,.545.01.816-.013a1.133,1.133,0,0,0,1.117-1.094,1.121,1.121,0,0,0-.905-1.272,3.484,3.484,0,0,0-.888-.07q-18.725,0-37.451,0a2.467,2.467,0,0,0-.966.094,1.147,1.147,0,0,0-.794,1.274,1.111,1.111,0,0,0,1.05,1.063,6.9,6.9,0,0,0,.815.02Zm0-8.389h-18.6a7.356,7.356,0,0,0-.815.015,1.105,1.105,0,0,0-1.052,1.06,1.145,1.145,0,0,0,.793,1.274,2.5,2.5,0,0,0,.966.1h37.451a2.466,2.466,0,0,0,1.044-.122,1.147,1.147,0,0,0,.752-1.227,1.124,1.124,0,0,0-1.037-1.082,6.433,6.433,0,0,0-.815-.02Zm-20.5,20.288c0,.9-.028,1.8.006,2.693a2.782,2.782,0,0,0,2.916,2.849q2.325.019,4.651,0a2.8,2.8,0,0,0,2.938-2.916c.028-1.713.03-3.428,0-5.141a2.8,2.8,0,0,0-2.962-2.89q-2.284-.016-4.569,0a2.792,2.792,0,0,0-2.973,2.876C-641.3,21.286-641.278,22.13-641.277,22.973Zm35.287-42.478c1.414,0,2.828.006,4.242,0,.945-.006,1.516-.47,1.528-1.218s-.559-1.227-1.5-1.23q-4.242-.009-8.484,0c-.96,0-1.514.448-1.523,1.2-.01.775.575,1.245,1.576,1.249C-608.764-19.5-607.377-19.5-605.991-19.505Z" transform="translate(-5.037 -16.142)" fill="#eaf4fc"/>
      <path id="Trazado_124402" data-name="Trazado 124402" d="M-602.308-45.4q-7.628-.016-15.255-.032c-1.078,0-1.412-.273-1.623-1.294a1.324,1.324,0,0,1,1.5-1.162c5.685.013,11.369,0,17.054.013A3.8,3.8,0,0,1-596.758-44c.009.571.038,1.146-.009,1.713s.1.736.7.727c2.393-.037,4.787-.019,7.18-.014,2.717.005,4.237,1.524,4.237,4.244q0,31.054,0,62.109c0,2.714-1.533,4.246-4.24,4.246q-27.212,0-54.425,0a3.853,3.853,0,0,1-4.224-4.184c0-.676.21-1.549-.126-1.974-.36-.455-1.271-.126-1.941-.148a3.805,3.805,0,0,1-3.972-4.024q-.009-31.3,0-62.6a3.776,3.776,0,0,1,4.009-3.973c3.209-.013,6.419-.019,9.628.01.584.005.734-.168.716-.73a7.7,7.7,0,0,1,.18-2.59,4.883,4.883,0,0,1,5.335-3.341,4.741,4.741,0,0,1,4.149,4.611c.016.648-.212,1.511.116,1.89.388.446,1.275.124,1.944.14,1.142.027,2.286.043,3.427,0a1.447,1.447,0,0,1,1.687,1.168c-.012,2.066-.031,4.133-.033,6.2q-.007,8.406,0,16.812c0,2.812-1.453,4.252-4.28,4.253q-7.751,0-15.5,0a3.736,3.736,0,0,1-4.106-4.094c-.007-7.018-.013-14.037.015-21.055,0-.683-.162-.888-.843-.836-.838.065-1.685,0-2.528.021a1.357,1.357,0,0,0-1.463,1.482c-.008.217,0,.435,0,.653V18.158c0,1.764.331,2.1,2.079,2.1q22.969,0,45.936,0c.27,0,.54-.028.811-.044.27.015.54.043.81.044,2.017.006,2.292-.272,2.292-2.3V-43.292c0-.245.01-.49,0-.734a1.363,1.363,0,0,0-1.388-1.4C-601.168-45.447-601.738-45.413-602.308-45.4Zm12.405,6.327c-.959-.093-.954-.093-.839.818a5.785,5.785,0,0,1,.027.731c0,3.173-.018,6.347.014,9.52a1.47,1.47,0,0,1-1.163,1.686c-1.06-.284-1.3-.574-1.3-1.636,0-2.878-.07-5.758.019-8.634.08-2.593-.764-2.66-2.8-2.484-.744-.239-.825.139-.824.774q.023,17.749.011,35.5,0,10.731,0,21.462a3.955,3.955,0,0,1-1.335,3.115,4.379,4.379,0,0,1-3.116.941q-21.009-.016-42.018-.007c-1.872,0-1.872,0-1.87,1.833,0,1.646.377,2.03,1.992,2.03h46.342c.271,0,.542-.017.814-.026,2.168.149,2.811,0,2.8-2.6-.045-15.106-.022-30.211-.021-45.317,0-1.159.24-1.468,1.3-1.7,1,.355,1.149.583,1.149,1.763q0,22.508,0,45.015a9.574,9.574,0,0,1-.208,2.843h1.023c2.3.149,2.823-.033,2.818-2.66q-.055-30.289-.02-60.578c0-2.237-.255-2.488-2.479-2.428A2.754,2.754,0,0,0-589.9-39.077ZM-627.608-45.4c-1.923-.115-1.923-.115-1.954,1.787,0,.082,0,.163,0,.245a3.36,3.36,0,0,1-2.994,3.147,1.3,1.3,0,0,1-1.524-1.027,1.2,1.2,0,0,1,1.141-1.395.965.965,0,0,0,.934-1.1A9.726,9.726,0,0,1-632-44.89c.036-.425-.107-.565-.543-.555-1.223.028-2.447.03-3.669,0-.479-.012-.585.162-.582.608.017,3.181,0,6.363.014,9.544a2.366,2.366,0,0,0,2.353,2.405,2.321,2.321,0,0,0,2.418-2.411c.013-.652-.035-1.309.024-1.957a1.139,1.139,0,0,1,1.194-1.107,1.077,1.077,0,0,1,1.193,1,9.935,9.935,0,0,1-.19,3.643,4.8,4.8,0,0,1-5.161,3.237,4.679,4.679,0,0,1-4.27-4.571c-.045-3.235-.025-6.471-.006-9.707,0-.522-.123-.714-.677-.69-1.058.045-2.122.057-3.179,0-.668-.038-.8.2-.8.821.021,6.961.013,13.922.014,20.882a5.517,5.517,0,0,0,.011.571,1.24,1.24,0,0,0,1.327,1.254c4.865,0,9.731-.01,14.6-.018.516.009,1.032.03,1.548.024,1.031-.011,1.507-.457,1.509-1.493q.015-10.73.012-21.46c0-.409-.1-.6-.543-.573C-626.14-45.405-626.875-45.415-627.608-45.4Zm-6.789-2.481h.569c1.865,0,1.865,0,1.817-1.853a2.3,2.3,0,0,0-2.422-2.377,2.346,2.346,0,0,0-2.355,2.376c-.011.406.026.816-.01,1.219-.043.479.085.69.615.646C-635.592-47.923-634.993-47.885-634.4-47.885Z" transform="translate(0 0)" fill="#030303"/>
      <path id="Trazado_124403" data-name="Trazado 124403" d="M-496.84-26.593c.57-.009,1.141-.043,1.709-.02a1.363,1.363,0,0,1,1.388,1.4c.014.244,0,.489,0,.734V36.765c0,2.031-.274,2.308-2.292,2.3-.27,0-.54-.028-.81-.044a3.754,3.754,0,0,0,.334-1.737q-.011-30.91,0-61.82A4.413,4.413,0,0,0-496.84-26.593Z" transform="translate(-105.468 -18.811)" fill="#ceedfb"/>
      <path id="Trazado_124404" data-name="Trazado 124404" d="M-580.625,126.4a1.375,1.375,0,0,1-1.6,1.163c-.569-.036-1.142.007-1.712-.011a2.763,2.763,0,0,1-2.721-2.7q-.057-2.772,0-5.547a2.727,2.727,0,0,1,2.73-2.687q10.887-.024,21.775,0a2.725,2.725,0,0,1,2.718,2.7c.042,1.848.045,3.7,0,5.546a2.763,2.763,0,0,1-2.9,2.689c-4.513.009-9.025-.006-13.538.011a1.358,1.358,0,0,1-1.512-1.163c.242-1.03.562-1.29,1.622-1.294q5.561-.019,11.122-.03c.732.009,1.464.01,2.2.032.42.012.582-.176.579-.586q-.013-2.442,0-4.885c0-.41-.159-.6-.58-.586-.732.022-1.464.022-2.2.032q-9.455-.014-18.911-.037c-.566,0-.686.245-.676.742.023,1.114.007,2.229.007,3.343,0,1.957,0,1.957,1.954,1.975C-581.2,125.116-580.9,125.353-580.625,126.4Z" transform="translate(-45.015 -115.181)" fill="#010202"/>
      <path id="Trazado_124405" data-name="Trazado 124405" d="M-575.57,131.426c-.271-1.047-.572-1.284-1.641-1.294-1.954-.018-1.954-.018-1.954-1.975,0-1.114.016-2.229-.007-3.343-.01-.5.11-.744.676-.742q9.456.035,18.911.037V130.1q-5.561.014-11.122.03c-1.061,0-1.38.264-1.622,1.294Z" transform="translate(-50.07 -120.207)" fill="#a8e3f8"/>
      <path id="Trazado_124406" data-name="Trazado 124406" d="M-610.808,91.716h-18.6a6.9,6.9,0,0,1-.815-.02,1.111,1.111,0,0,1-1.05-1.063,1.147,1.147,0,0,1,.794-1.274,2.466,2.466,0,0,1,.966-.094q18.725,0,37.451,0a3.484,3.484,0,0,1,.888.07,1.121,1.121,0,0,1,.905,1.272,1.133,1.133,0,0,1-1.117,1.094c-.27.023-.543.013-.815.013Z" transform="translate(-15.005 -96.783)" fill="#040505"/>
      <path id="Trazado_124407" data-name="Trazado 124407" d="M-610.807,71.114h18.684a6.432,6.432,0,0,1,.815.02,1.124,1.124,0,0,1,1.037,1.082,1.147,1.147,0,0,1-.752,1.227,2.466,2.466,0,0,1-1.044.122h-37.451a2.5,2.5,0,0,1-.966-.1,1.145,1.145,0,0,1-.793-1.274,1.105,1.105,0,0,1,1.052-1.06,7.356,7.356,0,0,1,.815-.015Z" transform="translate(-15.004 -84.571)" fill="#040505"/>
      <path id="Trazado_124408" data-name="Trazado 124408" d="M-631.381,122c0-.843-.025-1.687,0-2.529A2.792,2.792,0,0,1-628.4,116.6q2.284-.014,4.569,0a2.8,2.8,0,0,1,2.963,2.89c.032,1.713.029,3.427,0,5.141a2.8,2.8,0,0,1-2.938,2.916q-2.325.017-4.651,0a2.782,2.782,0,0,1-2.916-2.849C-631.409,123.8-631.381,122.9-631.381,122Zm5.323,3.067c.7.009,1.41,0,2.114.032.46.018.635-.189.633-.628q-.009-2.4,0-4.8c0-.438-.174-.646-.633-.629-.7.027-1.409.023-2.114.032-.734-.009-1.468,0-2.2-.035-.5-.024-.685.191-.682.667q.012,2.366,0,4.731c0,.476.182.691.682.667C-627.526,125.071-626.791,125.081-626.058,125.071Z" transform="translate(-14.933 -115.174)" fill="#030404"/>
      <path id="Trazado_124409" data-name="Trazado 124409" d="M-535.292-1.757c-1.387,0-2.773,0-4.161,0-1,0-1.585-.474-1.575-1.249.01-.752.563-1.2,1.523-1.2q4.242-.007,8.484,0c.94,0,1.51.483,1.5,1.23s-.583,1.212-1.528,1.218C-532.464-1.751-533.878-1.757-535.292-1.757Z" transform="translate(-75.736 -33.89)" fill="#040505"/>
      <path id="Trazado_124410" data-name="Trazado 124410" d="M-607.978-3.177c-4.865.008-9.731.023-14.6.018A1.24,1.24,0,0,1-623.9-4.413a5.517,5.517,0,0,1-.011-.571c0-6.961.007-13.922-.014-20.882,0-.622.13-.859.8-.821,1.057.06,2.121.048,3.179,0,.555-.024.68.168.677.69-.019,3.236-.039,6.472.006,9.707A4.679,4.679,0,0,0-615-11.716a4.8,4.8,0,0,0,5.161-3.237,9.935,9.935,0,0,0,.19-3.643,1.077,1.077,0,0,0-1.193-1,1.139,1.139,0,0,0-1.194,1.107c-.059.648-.01,1.3-.023,1.957a2.321,2.321,0,0,1-2.419,2.411,2.366,2.366,0,0,1-2.353-2.405c-.016-3.181,0-6.362-.014-9.544,0-.446.1-.62.582-.608,1.222.031,2.447.029,3.669,0,.436-.01.579.13.543.554a9.7,9.7,0,0,0-.005,1.141.965.965,0,0,1-.934,1.1,1.2,1.2,0,0,0-1.141,1.395,1.3,1.3,0,0,0,1.524,1.027,3.36,3.36,0,0,0,2.994-3.147c0-.081,0-.163,0-.245.03-1.9.03-1.9,1.954-1.787q0,10.578.01,21.155A5.992,5.992,0,0,1-607.978-3.177Z" transform="translate(-19.957 -18.764)" fill="#e89783"/>
      <path id="Trazado_124411" data-name="Trazado 124411" d="M-578.473,58.28c-.271.009-.542.026-.814.026h-46.342c-1.614,0-1.99-.384-1.992-2.03,0-1.833,0-1.833,1.87-1.833q21.009,0,42.018.007a4.379,4.379,0,0,0,3.116-.941,3.955,3.955,0,0,0,1.335-3.115q-.015-10.731,0-21.462,0-17.749-.011-35.5c0-.636.08-1.013.824-.774a3.849,3.849,0,0,1,.336,1.737q-.012,30.912,0,61.824A4.4,4.4,0,0,1-578.473,58.28Z" transform="translate(-17.471 -31.736)" fill="#cceaf8"/>
      <path id="Trazado_124412" data-name="Trazado 124412" d="M-477.386,58.309a4.4,4.4,0,0,0,.334-2.059q-.01-30.912,0-61.824a3.848,3.848,0,0,0-.336-1.737c2.038-.176,2.881-.11,2.8,2.484-.089,2.876-.023,5.756-.019,8.634,0,1.062.237,1.352,1.3,1.636q0,1.623,0,3.246c-1.06.234-1.3.542-1.3,1.7,0,15.106-.024,30.211.021,45.317C-474.576,58.31-475.218,58.458-477.386,58.309Z" transform="translate(-118.557 -31.764)" fill="#a8e3f8"/>
      <path id="Trazado_124413" data-name="Trazado 124413" d="M-458.919-7.3a2.754,2.754,0,0,1,.32-.045c2.224-.06,2.479.191,2.479,2.428q0,30.289.02,60.578c0,2.627-.517,2.809-2.818,2.66a3.249,3.249,0,0,0,.331-1.572q-.01-31.283,0-62.566A2.762,2.762,0,0,0-458.919-7.3Z" transform="translate(-130.984 -31.773)" fill="#a9e3f8"/>
      <path id="Trazado_124414" data-name="Trazado 124414" d="M-462.953-7.275a2.763,2.763,0,0,1,.334,1.483q-.012,31.283,0,62.566a3.249,3.249,0,0,1-.331,1.572h-1.023a9.574,9.574,0,0,0,.208-2.843q0-22.508,0-45.015c0-1.18-.151-1.408-1.149-1.763q0-1.623,0-3.246a1.47,1.47,0,0,0,1.163-1.686c-.032-3.173-.012-6.346-.014-9.52a5.785,5.785,0,0,0-.027-.731C-463.908-7.368-463.913-7.368-462.953-7.275Z" transform="translate(-126.949 -31.801)" fill="#cdebf9"/>
      <path id="Trazado_124415" data-name="Trazado 124415" d="M-575.175-3.157a5.991,5.991,0,0,0,.336-2.308q-.021-10.578-.01-21.155c.733-.01,1.468,0,2.2-.039.445-.023.543.164.543.573q-.015,10.73-.012,21.46c0,1.036-.478,1.482-1.509,1.493C-574.143-3.127-574.659-3.148-575.175-3.157Z" transform="translate(-52.76 -18.784)" fill="#df8674"/>
      <path id="Trazado_124416" data-name="Trazado 124416" d="M-519.3,130.114v-5.993c.732-.009,1.464-.01,2.2-.032.42-.012.582.177.58.586q-.013,2.443,0,4.885c0,.41-.16.6-.579.586C-517.833,130.124-518.565,130.124-519.3,130.114Z" transform="translate(-90.358 -120.217)" fill="#80d7f5"/>
      <path id="Trazado_124417" data-name="Trazado 124417" d="M-621.014,130.1c-.733.009-1.468,0-2.2.035-.5.025-.685-.19-.682-.667q.012-2.365,0-4.731c0-.476.182-.691.682-.667.732.036,1.466.026,2.2.035Z" transform="translate(-19.977 -120.207)" fill="#3b8fee"/>
      <path id="Trazado_124418" data-name="Trazado 124418" d="M-615.087,130.111v-6c.7-.009,1.41,0,2.114-.032.459-.018.635.19.633.629q-.009,2.4,0,4.8c0,.438-.173.646-.633.628C-613.677,130.116-614.382,130.121-615.087,130.111Z" transform="translate(-25.904 -120.214)" fill="#327fed"/>
    </g>
  </g>
</svg>
