<svg xmlns="http://www.w3.org/2000/svg" xmlns:xlink="http://www.w3.org/1999/xlink" width="133.918" height="133.918" viewBox="0 0 133.918 133.918">
  <defs>
    <clipPath id="clip-path">
      <rect id="Rectángulo_36658" data-name="Rectángulo 36658" width="133.918" height="133.918" fill="#fff" stroke="#707070" stroke-width="1"/>
    </clipPath>
  </defs>
  <g id="Grupo_85921" data-name="Grupo 85921" clip-path="url(#clip-path)">
    <g id="Grupo_85925" data-name="Grupo 85925" transform="translate(170.975 -693.371)">
      <path id="Trazado_127791" data-name="Trazado 127791" d="M-56.382,789.528c0,.037.006.074,0,.112a2.814,2.814,0,0,0,1.911,2.969,6.5,6.5,0,0,1,3.753,5.659c.814,8.874-4.1,16.307-12.247,18.523a16.268,16.268,0,0,1-4.288.564q-38.584-.005-77.167-.01a16.633,16.633,0,0,1-16.633-17.719c.034-.651.3-.7.81-.694,1.893.02,3.786-.012,5.679.02.61.01.905-.048.9-.809q-.039-21.373,0-42.746a2.068,2.068,0,0,0-.587-1.367,31.309,31.309,0,0,1,15.214-49.3,31.3,31.3,0,0,1,39.86,23.41c.178.822.489.984,1.237.971,2.338-.041,4.677-.046,7.015,0,.762.015,1.065-.174,1.248-.977a57.094,57.094,0,0,1,10.4-22.255c2.646-3.458,6.839-3.416,9.466.079A57.291,57.291,0,0,1-58.132,737.8c.041.719.456.9.929,1.2,7.451,4.582,10.6,11.355,10.213,19.993l-9.116-2.189c-1.489-.561-2.976-1.153-4.138.6a1.05,1.05,0,0,1-.548.36c-.826.249-.978.815-.9,1.6a6.183,6.183,0,0,1-1.807,5.137,6.538,6.538,0,0,1-4.775,1.38c-.668-.063-.755.292-.887.8a3.54,3.54,0,0,1-3.622,2.843c-1.262.02-2.525.029-3.786-.008a3.368,3.368,0,0,1-3.3-2.51c-.205-1.041-.68-1.133-1.562-1.128-3.731.02-6.064-2.3-6.005-6.036.017-1.115-.158-1.891-1.28-2.326a2.55,2.55,0,0,1-1-.863,1.058,1.058,0,0,0-1.321-.4q-5.1,1.329-10.239,2.542a.993.993,0,0,0-.925,1.178c.038,4.119,0,8.239.035,12.357.006.723-.178.938-.92.933q-6.459-.054-12.918,0c-.761.007-.914-.247-.909-.949q.044-6.4,0-12.8c-.006-.762.17-1.008.969-1,3.675.044,7.35.032,11.025.01.879-.005,2,.384,2.572-.175.527-.512.041-1.635.2-2.463.183-.943-.2-1.086-1.044-1.085q-19.155.035-38.31-.006c-.953,0-1.14.286-1.137,1.18q.045,17.257,0,34.513c0,.949.266,1.14,1.17,1.138q20.157-.046,40.315-.021c2.45,0,4.9-.009,7.35.007.539,0,.865-.037.937-.733a9.562,9.562,0,0,1,4.97-7.593,1.26,1.26,0,0,0,.676-.791,7.219,7.219,0,0,1,6.379-5.53c.532-.072.759-.212.757-.807,0-.95-.446-2.288.2-2.751.666-.481,1.925-.143,2.925-.158.185,0,.37.018.556.028,0,2.152-.013,4.3.028,6.456.012.652-.116.943-.844.888-.886-.068-1.781-.022-2.672-.015a3.547,3.547,0,0,0-3.82,3.813c.028,1-.376,1.3-1.216,1.579a6.015,6.015,0,0,0-4.282,5.058,16.619,16.619,0,0,0-.072,2.555c-.008,1.682,0,1.7-1.658,1.7a3.575,3.575,0,0,0-3.534,2.215c-.576,1.269-.46,1.431.921,1.431h37.978c.223,0,.447-.018.668,0,.543.052.609-.213.525-.674a3.832,3.832,0,0,0-3.107-2.958c-.783-.116-1.882.4-2.276-.275-.373-.64-.092-1.661-.1-2.514,0-.148,0-.3,0-.445a6.079,6.079,0,0,0-4.409-6.107,1.342,1.342,0,0,1-1.137-1.537c.021-2.414-1.485-3.825-3.914-3.839-.854,0-1.711-.046-2.561.013-.7.049-.884-.193-.871-.875.044-2.152.022-4.3.025-6.457,1.182,0,2.547-.36,3.485.118.649.33.154,1.844.2,2.827.02.429.075.671.582.706a7.811,7.811,0,0,1,4.972,2.413,8.626,8.626,0,0,1,1.6,3.231.774.774,0,0,0,.45.578A10.428,10.428,0,0,1-56.382,789.528ZM-105.9,813.646q7.46,0,14.92,0c8.091,0,16.183.078,24.272-.053a12.646,12.646,0,0,0,12.024-9.8c.249-.984.025-1.166-.932-1.164q-17.981.042-35.963-.01c-1.127,0-1.406.269-1.393,1.389.043,3.734-2.288,5.989-6.054,5.994q-6.736.01-13.472,0c-4.008,0-6.239-2.185-6.186-6.171.013-.992-.248-1.211-1.219-1.208-12.025.036-24.05.024-36.075.024-.223,0-.447.016-.668,0-.472-.038-.582.157-.442.588.091.28.113.581.191.867a12.818,12.818,0,0,0,12.807,9.542Q-125,813.664-105.9,813.646Zm8.357-18.35H-98.91q-21.49,0-42.98,0c-3.052,0-4.429-1.372-4.429-4.4q0-24.989,0-49.978c0-3.15,1.306-4.458,4.453-4.458h48.324c2.52,0,2.49,0,2.865-2.424.148-.952.025-1.318-1.1-1.315q-25.943.061-51.887.029c-4.158,0-6.31,2.143-6.311,6.3q0,29.33-.026,58.66c0,1.041.295,1.258,1.285,1.256q24.5-.046,48.992-.022c.223,0,.446-.011.668,0,.4.021.622-.093.626-.551A7.874,7.874,0,0,1-97.547,795.3Zm10.083-53.824c0,1.706.032,3.413-.016,5.118-.019.681.169.9.864.878,1.854-.047,3.711-.042,5.565,0,.654.014.954-.129,1.1-.842a3.439,3.439,0,0,1,3.4-2.8c1.186-.042,2.374-.028,3.562-.014a3.565,3.565,0,0,1,3.843,2.984c.14.58.365.674.873.668,1.929-.022,3.859-.034,5.788.005.63.013.813-.171.8-.8-.039-2.373.032-4.749-.037-7.121a54.36,54.36,0,0,0-5.233-21.875c-.3-.639-.564-.731-1.229-.537a22.275,22.275,0,0,1-12.716.016c-.775-.227-1.05-.037-1.374.655A54.847,54.847,0,0,0-87.464,741.473Zm-6.314-1.377c-16.189,0-32.138,0-48.086-.014-.706,0-.762.317-.759.873.016,3.115.035,6.23-.011,9.344-.012.808.337.883.992.883q19.7-.019,39.392.01c.717,0,.937-.3,1.126-.887a19.9,19.9,0,0,1,5.266-8.378C-95.25,741.343-94.594,740.81-93.778,740.1Zm-36.07-11q4.114,0,8.229,0c.438,0,.907.1.824-.651-.223-2.024-.456-4.044-.78-6.056-.1-.647-.459-.642-.927-.641-4.818,0-9.637.013-14.455-.011-.629,0-.923.14-1,.816-.209,1.875-.466,3.746-.747,5.612-.11.727.087.961.85.949C-135.186,729.067-132.517,729.094-129.848,729.094Zm-24.675,3.651c.7,0,1.408-.006,2.112,0a1,1,0,0,0,.887-.326,9.252,9.252,0,0,1,8.095-3.319c.736.039,1.067-.166,1.095-.958a36.9,36.9,0,0,1,.655-5.508c.124-.659-.012-.911-.755-.9q-5.447.054-10.9,0a1.191,1.191,0,0,0-1.249.817,28.739,28.739,0,0,0-2.393,7.476c-.475,2.717-.457,2.72,2.339,2.72Zm17.568-14.707c4.638,0,9.158,0,13.678.005.438,0,.732-.039.566-.6-.934-3.133-1.981-6.222-4.153-8.754-1.889-2.2-3.778-2.206-5.719-.067a12.126,12.126,0,0,0-1.31,1.787A28.2,28.2,0,0,0-136.955,718.038Zm26.949,11.056c2.078,0,4.158-.048,6.233.021.951.032,1.048-.316.834-1.1a33.715,33.715,0,0,0-2.005-5.524,1.127,1.127,0,0,0-1.18-.76c-3.636.031-7.273.04-10.909,0-.829-.01-.877.315-.786.983.255,1.871.5,3.747.659,5.628.059.676.358.768.919.763C-114.162,729.082-112.084,729.094-110.006,729.094Zm-41.649-11.258c.1.129.118.178.138.178,2.482.01,4.964.024,7.445.021,1.072,0,2.4.338,3.139-.166.668-.453.709-1.845,1.007-2.828a32.832,32.832,0,0,1,3.171-7.13A27.851,27.851,0,0,0-151.655,717.836Zm28.856-9.922a32.224,32.224,0,0,1,3.859,9.424c.156.62.467.714,1.016.71,3.08-.02,6.161,0,9.241-.018.265,0,.586.152.842-.2A27.816,27.816,0,0,0-122.8,707.914ZM-76.4,756.7v6.552c0,2.646,0,2.608,2.629,2.649.841.013,1.051-.217,1.044-1.048-.042-4.886-.022-9.774-.024-14.66,0-2.785,0-2.755-2.753-2.759-.746,0-.921.224-.911.936C-76.373,751.148-76.4,753.925-76.4,756.7Zm-29.424,45.945c-2.778,0-5.557-.008-8.335.012-.307,0-.734-.231-.887.355-.518,1.994.449,3.29,2.516,3.293q6.556.009,13.114,0c2.3,0,2.775-.521,2.78-2.814,0-.675-.155-.876-.854-.865C-100.263,802.671-103.042,802.646-105.82,802.646Zm-3.867-33.135c1.192,0,2.158-.028,3.122.01.593.023.762-.2.753-.775-.028-1.929-.023-3.859,0-5.789.006-.533-.1-.816-.725-.805q-2.95.049-5.9,0c-.607-.01-.763.229-.745.785.031.964-.01,1.93.013,2.894.029,1.18-.493,2.738.187,3.439C-112.246,770.033-110.669,769.4-109.687,769.51Zm51.661-26.718c0,3.245.008,6.2-.007,9.16,0,.511.315.588.692.681,1.868.465,3.736.932,5.6,1.421.624.164.915.068.759-.661A16.958,16.958,0,0,0-58.026,742.792Zm-16.59-28.446a21.019,21.019,0,0,0,4.732-.536c.58-.14.752-.3.4-.872a53.546,53.546,0,0,0-3.459-5.026,1.9,1.9,0,0,0-3.2-.05,49.114,49.114,0,0,0-3.525,5.115c-.3.487-.232.68.329.815A20.9,20.9,0,0,0-74.616,714.346Zm-16.5,28.454a16.978,16.978,0,0,0-7.075,10.676c-.114.535.026.766.615.613,1.969-.509,3.939-1.014,5.915-1.492.4-.1.552-.263.551-.67C-91.115,748.976-91.111,746.023-91.111,742.8Zm-62.564,5.116c0-2.945.029-5.89-.018-8.834-.014-.859.51-2.038-.069-2.484-.562-.434-1.7-.083-2.587-.149-.726-.054-.967.167-.878.917A24.835,24.835,0,0,0-153.675,747.916Zm88.353,3.257h-.889c-3,0-2.979,0-2.846,2.968.025.546.187.68.7.671,1.593-.03,3.188.01,4.781-.021a1.782,1.782,0,0,0,1.873-1.784c.033-.406-.02-.818.018-1.222.047-.5-.17-.632-.638-.619C-63.319,751.193-64.321,751.174-65.322,751.173Zm-18.454,0c-1,0-2,0-3,0-.245,0-.52-.073-.676.233A2.455,2.455,0,0,0-85.4,754.8c.85.017,1.7,0,2.552,0,2.9,0,2.882,0,2.749-2.946-.023-.518-.144-.715-.686-.694C-81.776,751.2-82.776,751.173-83.775,751.173Zm14.735,9.061c0,1.991,0,1.991,1.664,1.925,1.5-.061,1.955-.752,2-2.685.041-1.645-1.161-.7-1.785-.947a.64.64,0,0,0-.221,0C-69.04,758.524-69.04,758.524-69.04,760.234Zm-11.07.258c0-1.969,0-1.969-1.829-1.969-.407,0-.815,0-1.222,0-.211,0-.435-.037-.568.219a3.081,3.081,0,0,0,.933,3.185,3.146,3.146,0,0,0,2.48.12C-79.8,761.857-80.226,760.969-80.11,760.492Z" transform="translate(0)" fill="#030403"/>
      <path id="Trazado_127792" data-name="Trazado 127792" d="M57.6,830.175a6.183,6.183,0,0,0,1.807-5.137c-.074-.781.078-1.347.9-1.6a1.051,1.051,0,0,0,.548-.36c1.162-1.753,2.65-1.161,4.138-.6q-.006,15.69-.022,31.379c0,.453.209.975-.253,1.353a10.428,10.428,0,0,0-5.069-6.382.774.774,0,0,1-.45-.578,8.632,8.632,0,0,0-1.6-3.231Q57.6,837.6,57.6,830.175Zm1.816,6.88v2.776c0,2.773,0,2.736,2.736,2.751.83,0,.955-.3.943-1.023-.041-2.405-.015-4.812-.015-7.217,0-2.834,0-2.811-2.807-2.8-.66,0-.9.136-.875.848C59.454,833.945,59.413,835.5,59.413,837.056Z" transform="translate(-121.1 -65.686)" fill="#caced5"/>
      <path id="Trazado_127793" data-name="Trazado 127793" d="M78.132,840.725c0-1.557.027-3.115-.013-4.67-.016-.638.1-.893.832-.9,2.859-.018,2.858-.049,2.858,2.771,0,2.484-.019,4.968.013,7.452.008.652-.136.886-.852.892-2.838.022-2.838.051-2.838-2.766Z" transform="translate(-132.465 -73.019)" fill="#030202"/>
      <path id="Trazado_127794" data-name="Trazado 127794" d="M-40.626,828.38q0,7.424,0,14.847a7.813,7.813,0,0,0-4.973-2.413c-.508-.035-.562-.277-.582-.706-.046-.983.449-2.5-.2-2.827-.938-.478-2.3-.12-3.485-.118l-3.672-.01c-.185-.01-.37-.031-.556-.028-1,.015-2.259-.323-2.925.158-.643.464-.2,1.8-.2,2.751,0,.595-.224.735-.757.807a7.219,7.219,0,0,0-6.379,5.53,1.26,1.26,0,0,1-.676.791,9.562,9.562,0,0,0-4.97,7.592c-.072.7-.4.736-.937.733-2.45-.016-4.9-.007-7.35-.007q-20.158,0-40.315.021c-.9,0-1.173-.189-1.17-1.138q.054-17.257,0-34.512c0-.894.184-1.182,1.137-1.18q19.155.051,38.31.006c.842,0,1.227.142,1.044,1.085-.16.828.326,1.95-.2,2.463-.576.559-1.693.17-2.572.175-3.675.022-7.35.034-11.025-.01-.8-.01-.975.236-.969,1q.055,6.4,0,12.8c0,.7.148.955.909.949q6.459-.055,12.918,0c.741.006.926-.209.92-.933-.033-4.119,0-8.239-.035-12.357a.993.993,0,0,1,.925-1.178q5.133-1.215,10.239-2.542a1.058,1.058,0,0,1,1.321.4,2.548,2.548,0,0,0,1,.863c1.122.434,1.3,1.211,1.28,2.326-.059,3.737,2.274,6.056,6.005,6.036.881,0,1.356.087,1.562,1.128a3.368,3.368,0,0,0,3.3,2.51c1.261.037,2.524.028,3.786.008a3.54,3.54,0,0,0,3.622-2.843c.132-.505.218-.86.887-.8A6.537,6.537,0,0,0-40.626,828.38Zm-75.461,1.422c0,2.151.024,4.3-.014,6.451-.012.657.133.893.849.887q6.508-.053,13.017,0c.675,0,.883-.156.877-.855q-.048-6.506,0-13.013c0-.661-.13-.883-.845-.877q-6.508.055-13.016,0c-.792-.008-.89.294-.879.96C-116.065,825.5-116.087,827.652-116.087,829.8Zm18.477,18.315h-15.926c-2.563,0-2.512,0-2.58,2.612-.025.971.293,1.126,1.181,1.124q16.483-.048,32.966-.02c2.694,0,2.653,0,2.691-2.708.012-.869-.264-1.031-1.069-1.026C-86.1,848.133-91.855,848.117-97.609,848.117Zm3.677-7.357H-106.07c-2.689,0-2.646,0-2.689,2.726-.014.883.283,1.013,1.071,1.01,8.574-.027,17.148-.017,25.722-.017,2.691,0,2.65,0,2.687-2.714.012-.87-.267-1.03-1.07-1.024C-84.875,840.78-89.4,840.761-93.932,840.76Zm21.986-9.176V828.8c0-2.848,0-2.824-2.86-2.768-.652.013-.8.22-.8.832.03,2.485.012,4.971.012,7.456,0,2.936,0,2.916,2.912,2.817.6-.02.753-.2.742-.77C-71.966,834.775-71.947,833.18-71.946,831.585Zm7.359,3.685V832.5c0-2.766,0-2.74-2.735-2.746-.7,0-.945.154-.93.9.05,2.441.019,4.883.019,7.325,0,2.9,0,2.874,2.9,2.807.687-.016.77-.282.759-.854C-64.607,838.378-64.588,836.824-64.587,835.27Zm-49.636,5.49c-1.866,0-1.866,0-1.866,1.846,0,1.873,0,1.873,1.829,1.873,1.883,0,1.883,0,1.883-1.836C-112.377,840.76-112.377,840.76-114.223,840.76Z" transform="translate(-22.877 -63.891)" fill="#f9e7ad"/>
      <path id="Trazado_127795" data-name="Trazado 127795" d="M-101.031,936.91q-19.1,0-38.19,0a12.818,12.818,0,0,1-12.807-9.542c-.077-.285-.1-.587-.191-.867-.141-.431-.03-.626.442-.588.221.018.445,0,.668,0,12.025,0,24.05.013,36.075-.024.971,0,1.232.216,1.219,1.208-.053,3.986,2.178,6.168,6.186,6.171q6.736,0,13.472,0c3.765-.005,6.1-2.26,6.054-5.994-.013-1.12.266-1.393,1.393-1.389q17.981.069,35.963.01c.957,0,1.18.18.932,1.164a12.646,12.646,0,0,1-12.024,9.8c-8.089.131-16.181.048-24.272.053Q-93.571,936.915-101.031,936.91Zm36.851-3.642h2.78c2.858,0,2.834,0,2.786-2.846-.012-.686-.217-.888-.892-.879-2.446.033-4.893.013-7.339.013-3.015,0-3,0-2.886,2.977.022.59.2.758.769.747C-67.369,933.246-65.775,933.267-64.181,933.267Z" transform="translate(-4.873 -123.264)" fill="#969ea8"/>
      <path id="Trazado_127796" data-name="Trazado 127796" d="M-83.81,831.8A7.873,7.873,0,0,0-84.7,834.9c0,.458-.23.573-.626.551-.222-.012-.445,0-.668,0q-24.5,0-48.992.022c-.99,0-1.287-.215-1.285-1.257q.052-29.33.026-58.66c0-4.154,2.152-6.3,6.311-6.3q25.943,0,51.887-.029c1.129,0,1.252.363,1.1,1.315-.375,2.419-.345,2.424-2.865,2.424h-48.324c-3.147,0-4.453,1.307-4.453,4.458q0,24.989,0,49.978c0,3.031,1.378,4.4,4.429,4.4q21.49,0,42.98,0Z" transform="translate(-13.737 -36.507)" fill="#caced5"/>
      <path id="Trazado_127797" data-name="Trazado 127797" d="M3.876,758.523a54.834,54.834,0,0,1,5.2-23.67c.324-.692.6-.882,1.374-.655a22.275,22.275,0,0,0,12.716-.016c.666-.194.928-.1,1.229.537a54.359,54.359,0,0,1,5.233,21.875c.068,2.372,0,4.748.037,7.121.011.631-.173.815-.8.8-1.928-.039-3.859-.027-5.788,0-.509.006-.733-.088-.873-.668a3.565,3.565,0,0,0-3.843-2.984c-1.187-.014-2.376-.029-3.562.014a3.439,3.439,0,0,0-3.4,2.8c-.151.713-.451.856-1.1.842-1.854-.04-3.711-.045-5.565,0-.7.017-.883-.2-.864-.878C3.908,761.936,3.875,760.229,3.876,758.523ZM16.741,738.8A7.349,7.349,0,1,0,24.11,746.1,7.359,7.359,0,0,0,16.741,738.8Z" transform="translate(-91.34 -17.05)" fill="#e3e6e9"/>
      <path id="Trazado_127798" data-name="Trazado 127798" d="M5.836,860.091l3.672.01c0,2.152.019,4.305-.025,6.457-.014.682.174.923.871.875.85-.059,1.707-.018,2.561-.013,2.429.014,3.935,1.426,3.914,3.839a1.342,1.342,0,0,0,1.137,1.537,6.079,6.079,0,0,1,4.409,6.107c0,.149,0,.3,0,.445.007.854-.274,1.874.1,2.514.394.676,1.493.159,2.276.275a3.832,3.832,0,0,1,3.107,2.958c.084.461.018.726-.525.674-.221-.021-.445,0-.668,0H-11.314c-1.381,0-1.5-.162-.921-1.431A3.575,3.575,0,0,1-8.7,882.122c1.655,0,1.65-.013,1.658-1.7a16.62,16.62,0,0,1,.072-2.555,6.015,6.015,0,0,1,4.282-5.058c.84-.278,1.244-.582,1.216-1.579a3.547,3.547,0,0,1,3.82-3.813c.891-.008,1.786-.053,2.672.015.729.055.857-.236.844-.888C5.823,864.4,5.841,862.243,5.836,860.091Zm1.829,12.873a4.537,4.537,0,0,1,0-.666c.152-1.01-.158-1.353-1.242-1.121A7.3,7.3,0,0,0,.771,875.95,2.044,2.044,0,0,1-.3,877.212a5.167,5.167,0,0,0-2.992,4.244c-.029.253-.2.651.3.659,1,.017,2,0,3,.01.332,0,.308-.262.37-.455a1.933,1.933,0,0,1,2.132-1.383c1.488.014,1.488-.016,1.509-1.537.028-2.038,1.008-3.509,2.8-3.862.8-.158.934-.481.853-1.147A6.35,6.35,0,0,1,7.665,872.964Z" transform="translate(-82.246 -86.829)" fill="#e4e7ea"/>
      <path id="Trazado_127799" data-name="Trazado 127799" d="M-70.892,785.741c-.816.715-1.472,1.247-2.08,1.83a19.9,19.9,0,0,0-5.266,8.378c-.19.59-.409.888-1.126.887q-19.7-.04-39.392-.01c-.655,0-1-.074-.992-.883.046-3.114.027-6.229.011-9.344,0-.555.053-.874.759-.873C-103.03,785.746-87.081,785.741-70.892,785.741Zm-28.652,7.36c1.9,0,1.9,0,1.9-1.708,0-1.94,0-1.94-1.894-1.94-1.827,0-1.827,0-1.827,1.772C-101.37,793.1-101.37,793.1-99.544,793.1Zm-7.356,0c1.893,0,1.893,0,1.893-1.711,0-1.937,0-1.937-1.9-1.937-1.821,0-1.821,0-1.821,1.775C-108.726,793.1-108.726,793.1-106.9,793.1Zm-7.334,0c1.868,0,1.868,0,1.868-1.736,0-1.912,0-1.912-1.923-1.912-1.791,0-1.791,0-1.791,1.8C-116.081,793.1-116.081,793.1-114.234,793.1Z" transform="translate(-22.886 -45.646)" fill="#b9d788"/>
      <path id="Trazado_127800" data-name="Trazado 127800" d="M-102.118,751.968c-2.669,0-5.338-.027-8.006.017-.763.013-.959-.222-.85-.949.281-1.866.538-3.737.747-5.612.075-.676.369-.819,1-.816,4.818.024,9.637.015,14.455.011.468,0,.823-.006.927.641.323,2.011.557,4.032.78,6.056.083.755-.386.651-.824.651Q-98,751.97-102.118,751.968Z" transform="translate(-27.73 -22.874)" fill="#6cbbe0"/>
      <path id="Trazado_127801" data-name="Trazado 127801" d="M-149.723,755.614h-.111c-2.8,0-2.814,0-2.339-2.721a28.739,28.739,0,0,1,2.393-7.476,1.191,1.191,0,0,1,1.249-.817q5.447.056,10.9,0c.743-.007.879.245.755.9a36.9,36.9,0,0,0-.655,5.508c-.027.792-.359,1-1.095.958a9.252,9.252,0,0,0-8.095,3.319,1,1,0,0,1-.887.326C-148.315,755.608-149.019,755.614-149.723,755.614Z" transform="translate(-4.8 -22.87)" fill="#6dbde2"/>
      <path id="Trazado_127802" data-name="Trazado 127802" d="M-107.02,722.661a28.2,28.2,0,0,1,3.061-7.628,12.132,12.132,0,0,1,1.31-1.787c1.941-2.138,3.83-2.134,5.719.067,2.172,2.532,3.219,5.622,4.153,8.754.166.559-.128.6-.566.6C-97.862,722.657-102.382,722.661-107.02,722.661Z" transform="translate(-29.935 -4.623)" fill="#6dbde2"/>
      <path id="Trazado_127803" data-name="Trazado 127803" d="M-56.359,751.961c-2.078,0-4.156-.012-6.234.008-.561.005-.86-.086-.919-.763-.164-1.881-.4-3.757-.659-5.628-.091-.668-.043-.992.786-.983,3.636.043,7.273.034,10.909,0a1.127,1.127,0,0,1,1.18.76,33.714,33.714,0,0,1,2.005,5.524c.213.782.117,1.13-.834,1.1C-52.2,751.913-54.281,751.961-56.359,751.961Z" transform="translate(-53.647 -22.867)" fill="#6cbbe0"/>
      <path id="Trazado_127804" data-name="Trazado 127804" d="M-139.965,723.553a27.85,27.85,0,0,1,14.9-9.925,32.833,32.833,0,0,0-3.171,7.13c-.3.983-.338,2.375-1.007,2.828-.742.5-2.068.165-3.139.166-2.481,0-4.963-.011-7.445-.021C-139.847,723.732-139.867,723.682-139.965,723.553Z" transform="translate(-11.69 -5.717)" fill="#6dbde2"/>
      <path id="Trazado_127805" data-name="Trazado 127805" d="M-75.3,713.635a27.816,27.816,0,0,1,14.959,9.919c-.256.349-.578.2-.842.2-3.081.013-6.161,0-9.241.018-.55,0-.861-.09-1.016-.71A32.224,32.224,0,0,0-75.3,713.635Z" transform="translate(-47.504 -5.721)" fill="#6dbde2"/>
      <path id="Trazado_127806" data-name="Trazado 127806" d="M28.682,811.475c0-2.777.023-5.553-.016-8.33-.01-.712.165-.937.911-.936,2.751,0,2.752-.026,2.753,2.759,0,4.886-.018,9.773.024,14.66.007.831-.2,1.061-1.044,1.048-2.628-.041-2.629,0-2.629-2.649Q28.681,814.751,28.682,811.475Z" transform="translate(-105.078 -54.773)" fill="#caced5"/>
      <path id="Trazado_127807" data-name="Trazado 127807" d="M-48.858,925.9c2.778,0,5.557.025,8.335-.018.7-.011.855.19.854.865-.005,2.293-.485,2.813-2.78,2.814q-6.557,0-13.114,0c-2.067,0-3.035-1.3-2.516-3.293.152-.585.579-.352.887-.355C-54.415,925.9-51.637,925.9-48.858,925.9Z" transform="translate(-56.962 -123.258)" fill="#f4d57e"/>
      <path id="Trazado_127808" data-name="Trazado 127808" d="M-50.44,842.548c-.981-.11-2.558.523-3.3-.241-.68-.7-.158-2.26-.187-3.439-.024-.964.018-1.93-.013-2.894-.018-.556.138-.795.745-.785q2.95.047,5.9,0c.629-.01.731.272.725.805-.02,1.93-.025,3.86,0,5.789.008.571-.16.8-.753.775C-48.282,842.52-49.248,842.548-50.44,842.548Z" transform="translate(-59.247 -73.038)" fill="#db7783"/>
      <path id="Trazado_127809" data-name="Trazado 127809" d="M69.863,791.8a16.958,16.958,0,0,1,7.044,10.6c.156.729-.136.825-.759.661-1.863-.489-3.731-.956-5.6-1.421-.377-.094-.7-.17-.692-.681C69.871,798,69.863,795.047,69.863,791.8Z" transform="translate(-127.889 -49.01)" fill="#db7783"/>
      <path id="Trazado_127810" data-name="Trazado 127810" d="M26.2,718.947a20.827,20.827,0,0,1-4.729-.553c-.561-.135-.631-.328-.329-.815a49.1,49.1,0,0,1,3.525-5.115,1.9,1.9,0,0,1,3.2.05,53.531,53.531,0,0,1,3.459,5.026c.357.572.185.732-.4.872A20.939,20.939,0,0,1,26.2,718.947Z" transform="translate(-100.812 -4.602)" fill="#db7783"/>
      <path id="Trazado_127811" data-name="Trazado 127811" d="M-13.1,791.82c0,3.223,0,6.176.006,9.128,0,.406-.153.574-.551.67-1.977.478-3.947.983-5.915,1.492-.589.152-.73-.078-.615-.614A16.978,16.978,0,0,1-13.1,791.82Z" transform="translate(-78.008 -49.02)" fill="#db7783"/>
      <path id="Trazado_127812" data-name="Trazado 127812" d="M-148.922,788.964a24.835,24.835,0,0,1-3.552-10.55c-.089-.75.152-.971.878-.917.882.066,2.025-.286,2.587.149.578.447.054,1.625.069,2.484C-148.893,783.074-148.922,786.019-148.922,788.964Z" transform="translate(-4.753 -41.048)" fill="#6cbbe0"/>
      <path id="Trazado_127813" data-name="Trazado 127813" d="M48.832,810.575c1,0,2,.019,3-.008.468-.013.685.116.638.619-.038.4.015.816-.018,1.222a1.782,1.782,0,0,1-1.873,1.784c-1.593.031-3.188-.009-4.781.021-.516.009-.679-.124-.7-.671-.133-2.969-.152-2.968,2.846-2.968Z" transform="translate(-114.153 -59.402)" fill="#e4e7ea"/>
      <path id="Trazado_127814" data-name="Trazado 127814" d="M7.342,810.569c1,0,2,.027,3-.011.542-.021.663.177.686.694.133,2.947.148,2.946-2.749,2.946-.851,0-1.7.014-2.552,0a2.455,2.455,0,0,1-2.053-3.389c.156-.307.431-.232.676-.233C5.344,810.565,6.343,810.569,7.342,810.569Z" transform="translate(-91.117 -59.396)" fill="#e3e6e9"/>
      <path id="Trazado_127815" data-name="Trazado 127815" d="M45.188,828.711c0-1.71,0-1.71,1.66-1.71a.64.64,0,0,1,.221,0c.625.249,1.826-.7,1.785.947-.047,1.933-.5,2.625-2,2.685C45.188,830.7,45.188,830.7,45.188,828.711Z" transform="translate(-114.228 -68.477)" fill="#aab0ba"/>
      <path id="Trazado_127816" data-name="Trazado 127816" d="M15.706,829.026c-.116.477.31,1.365-.2,1.559a3.146,3.146,0,0,1-2.48-.12,3.081,3.081,0,0,1-.933-3.185c.133-.256.357-.215.568-.219.407-.008.814,0,1.222,0C15.706,827.057,15.706,827.057,15.706,829.026Z" transform="translate(-95.816 -68.534)" fill="#aab0ba"/>
      <path id="Trazado_127817" data-name="Trazado 127817" d="M61.643,849.007c0-1.555.04-3.11-.018-4.663-.027-.712.214-.844.875-.848,2.807-.014,2.807-.037,2.807,2.8,0,2.405-.025,4.812.015,7.217.012.725-.113,1.027-.943,1.023-2.736-.015-2.736.022-2.736-2.751Z" transform="translate(-123.33 -77.637)" fill="#030202"/>
      <path id="Trazado_127818" data-name="Trazado 127818" d="M-111.542,834.419c0-2.15.021-4.3-.013-6.45-.011-.666.087-.968.879-.96q6.508.063,13.016,0c.714-.006.849.216.845.877q-.043,6.506,0,13.013c.005.7-.2.86-.877.855q-6.508-.046-13.017,0c-.716.006-.86-.23-.849-.887C-111.518,838.721-111.542,836.57-111.542,834.419Zm11.069-.028c0-.928-.039-1.858.013-2.782.04-.709-.161-.979-.922-.958-1.854.053-3.712.043-5.567,0-.668-.014-.912.172-.9.869.041,1.891.034,3.785,0,5.677-.01.612.153.848.8.835q2.838-.058,5.679,0c.655.012.944-.15.9-.862C-100.515,836.249-100.473,835.319-100.473,834.391Z" transform="translate(-27.423 -68.508)" fill="#030202"/>
      <path id="Trazado_127819" data-name="Trazado 127819" d="M-93.083,884.64c5.755,0,11.509.016,17.262-.018.8,0,1.082.157,1.069,1.026-.038,2.707,0,2.708-2.691,2.708q-16.483,0-32.966.021c-.888,0-1.207-.153-1.181-1.124.068-2.611.018-2.612,2.58-2.612Z" transform="translate(-27.404 -100.414)" fill="#070705"/>
      <path id="Trazado_127820" data-name="Trazado 127820" d="M-80.274,868.152c4.528,0,9.057.02,13.584-.018.8-.007,1.082.153,1.07,1.023-.037,2.713,0,2.714-2.687,2.714-8.574,0-17.148-.01-25.722.017-.788,0-1.085-.128-1.071-1.01.044-2.725,0-2.726,2.689-2.726Z" transform="translate(-36.536 -91.283)" fill="#070705"/>
      <path id="Trazado_127821" data-name="Trazado 127821" d="M-17.135,840.7c0,1.6-.02,3.191.01,4.785.011.565-.145.75-.742.77-2.912.1-2.912.12-2.912-2.817,0-2.486.018-4.972-.012-7.456-.008-.612.144-.819.8-.832,2.86-.057,2.86-.08,2.86,2.768Z" transform="translate(-77.689 -73.011)" fill="#030202"/>
      <path id="Trazado_127822" data-name="Trazado 127822" d="M-.654,849.018c0,1.554-.02,3.108.01,4.662.011.572-.072.837-.759.854-2.9.067-2.9.094-2.9-2.807,0-2.442.031-4.885-.019-7.325-.015-.75.227-.9.93-.9,2.735.005,2.735-.02,2.735,2.746Z" transform="translate(-86.811 -77.639)" fill="#030202"/>
      <path id="Trazado_127823" data-name="Trazado 127823" d="M-109.662,868.175c1.846,0,1.846,0,1.846,1.883,0,1.836,0,1.836-1.883,1.836-1.829,0-1.829,0-1.829-1.873C-111.528,868.175-111.528,868.175-109.662,868.175Z" transform="translate(-27.439 -91.306)" fill="#070705"/>
      <path id="Trazado_127824" data-name="Trazado 127824" d="M38.228,937.809c-1.594,0-3.189-.021-4.781.011-.571.011-.747-.156-.769-.746-.11-2.977-.129-2.977,2.886-2.977,2.446,0,4.893.02,7.339-.013.675-.009.88.194.892.879.048,2.846.072,2.846-2.786,2.846Z" transform="translate(-107.281 -127.806)" fill="#070705"/>
      <path id="Trazado_127825" data-name="Trazado 127825" d="M23.625,744.634a7.349,7.349,0,0,1,.057,14.7,7.349,7.349,0,1,1-.057-14.7ZM23.6,755.629a3.671,3.671,0,1,0,.105-7.342,3.672,3.672,0,0,0-.105,7.342Z" transform="translate(-98.224 -22.888)" fill="#030403"/>
      <path id="Trazado_127826" data-name="Trazado 127826" d="M19.1,886.638a6.351,6.351,0,0,0,.005.777c.082.666-.049.989-.853,1.147-1.8.353-2.774,1.824-2.8,3.862-.021,1.521-.021,1.551-1.509,1.537a1.933,1.933,0,0,0-2.132,1.383c-.062.193-.038.458-.37.455-1-.009-2,.008-3-.01-.5-.009-.328-.407-.3-.659a5.167,5.167,0,0,1,2.992-4.244,2.044,2.044,0,0,0,1.073-1.262,7.3,7.3,0,0,1,5.657-4.773c1.084-.232,1.393.111,1.242,1.121A4.537,4.537,0,0,0,19.1,886.638Z" transform="translate(-93.684 -100.503)" fill="#030403"/>
      <path id="Trazado_127827" data-name="Trazado 127827" d="M-76.733,797.726c-1.826,0-1.826,0-1.826-1.877,0-1.772,0-1.772,1.827-1.772,1.894,0,1.894,0,1.894,1.94C-74.838,797.726-74.838,797.726-76.733,797.726Z" transform="translate(-45.697 -50.27)" fill="#070705"/>
      <path id="Trazado_127828" data-name="Trazado 127828" d="M-93.219,797.726c-1.825,0-1.825,0-1.825-1.874,0-1.775,0-1.775,1.821-1.775,1.9,0,1.9,0,1.9,1.937C-91.326,797.726-91.326,797.726-93.219,797.726Z" transform="translate(-36.567 -50.27)" fill="#070705"/>
      <path id="Trazado_127829" data-name="Trazado 127829" d="M-109.681,797.726c-1.847,0-1.847,0-1.847-1.849,0-1.8,0-1.8,1.791-1.8,1.923,0,1.923,0,1.923,1.912C-107.813,797.726-107.813,797.726-109.681,797.726Z" transform="translate(-27.439 -50.27)" fill="#070705"/>
      <path id="Trazado_127830" data-name="Trazado 127830" d="M-95.868,838.911c0,.928-.042,1.858.013,2.782.043.712-.245.874-.9.862q-2.838-.054-5.679,0c-.652.013-.815-.223-.8-.835.032-1.892.039-3.785,0-5.677-.015-.7.23-.883.9-.869,1.855.039,3.712.049,5.567,0,.761-.022.962.248.922.958C-95.907,837.053-95.868,837.983-95.868,838.911Z" transform="translate(-32.028 -73.027)" fill="#db7783"/>
      <path id="Trazado_127831" data-name="Trazado 127831" d="M28.208,760.162a3.672,3.672,0,0,1,.105-7.342,3.672,3.672,0,1,1-.105,7.342Z" transform="translate(-102.831 -27.421)" fill="#82d0ec"/>
    </g>
  </g>
</svg>
