<svg xmlns="http://www.w3.org/2000/svg" xmlns:xlink="http://www.w3.org/1999/xlink" width="133.918" height="133.918" viewBox="0 0 133.918 133.918">
  <defs>
    <clipPath id="clip-path">
      <rect id="Rectángulo_36659" data-name="Rectángulo 36659" width="133.918" height="133.918" fill="#fff" stroke="#707070" stroke-width="1"/>
    </clipPath>
  </defs>
  <g id="Grupo_85923" data-name="Grupo 85923" clip-path="url(#clip-path)">
    <g id="Grupo_85926" data-name="Grupo 85926" transform="translate(-238.831 -688.42)">
      <path id="Trazado_127832" data-name="Trazado 127832" d="M333.5,710.843a1.967,1.967,0,0,1,2.144-1.732c8.837.006,17.673-.016,26.509.015a4.06,4.06,0,0,1,4.257,4.356q.015,18.332.017,36.665a2.034,2.034,0,0,1-1.706,2.3c-1.5-.361-1.861-.805-1.862-2.373,0-6.306.011-12.613-.012-18.92,0-1.17.532-2.868-.211-3.383-.914-.633-2.5-.24-3.8-.121-.392-.023-.784-.066-1.176-.066q-53.862,0-107.723-.031c-1.08,0-1.256.3-1.256,1.3q.044,33.776.023,67.553c0,1.672,0,1.673,1.7,1.673q42.2,0,84.4,0c.51,0,1.02-.054,1.53-.083,2.35.029,4.7.05,7.049.088,1.51.024,1.939.375,2.29,1.811-.4,1.5-.763,1.746-2.589,1.746q-21.781,0-43.563,0-24.8,0-49.6,0c-2.534,0-4.121-1.075-4.641-3.163a5.856,5.856,0,0,1-.127-1.4q-.009-41.7,0-83.406c0-2.887,1.644-4.547,4.549-4.548q38.472-.011,76.945,0c1.551,0,1.9.275,2.366,1.759-.45,1.482-.867,1.8-2.469,1.805q-10.243.01-20.485,0-27.944,0-55.89-.02c-1.121,0-1.518.3-1.486,1.464.078,2.8.094,5.6-.006,8.4-.045,1.242.311,1.536,1.539,1.535q53.7-.053,107.4-.031c.472,0,.944-.038,1.415-.059a22.226,22.226,0,0,0,2.935.11c.737.065.936-.233.925-.942-.037-2.436.025-4.873-.023-7.308-.072-3.664.846-3.2-3.475-3.206a1.181,1.181,0,0,0-.332.1c-.471-.016-.941-.044-1.412-.044q-10.792,0-21.584,0C334.395,712.679,334.007,712.386,333.5,710.843Z" transform="translate(0 0)" fill="#050404"/>
      <path id="Trazado_127833" data-name="Trazado 127833" d="M337.4,712.763c.506,1.543.894,1.837,2.564,1.838q10.792.009,21.584,0c.471,0,.941.028,1.413.044l-.03,11.243c-.472.021-.943.059-1.415.059q-53.7,0-107.4.031c-1.228,0-1.584-.293-1.539-1.535.1-2.8.084-5.6.006-8.4-.033-1.165.364-1.466,1.486-1.464q27.945.043,55.89.02,10.243,0,20.485,0c1.6,0,2.019-.324,2.469-1.805Zm19.95,9.263c.591,0,1.184.033,1.772-.008a1.752,1.752,0,0,0,1.721-1.744,1.733,1.733,0,0,0-1.69-1.776c-1.139-.06-2.286-.055-3.425,0a1.769,1.769,0,0,0-1.735,1.746,1.791,1.791,0,0,0,1.821,1.78C356.325,722.052,356.838,722.029,357.351,722.027Zm-91.655-3.54a1.773,1.773,0,0,0-.118,3.544,1.774,1.774,0,1,0,.118-3.544Zm5.353,0a1.772,1.772,0,1,0,.005,3.543,1.772,1.772,0,0,0-.005-3.543Zm-8.969,1.793a1.778,1.778,0,1,0-1.828,1.748A1.787,1.787,0,0,0,262.08,720.279Z" transform="translate(-3.901 -1.92)" fill="#eb6278"/>
      <path id="Trazado_127834" data-name="Trazado 127834" d="M446.665,820.176c-.351-1.436-.78-1.787-2.29-1.811-2.349-.038-4.7-.059-7.049-.088-.012-.507.4-.739.685-1.054.815-.905,1.685-1.767,2.443-2.718a67.754,67.754,0,0,0,8.525-13.8,99.981,99.981,0,0,0,6.108-17.316,168.873,168.873,0,0,0,4.743-35.452c1.3-.119,2.882-.512,3.8.121.743.515.207,2.213.211,3.383.023,6.307.009,12.613.012,18.92,0,1.568.358,2.012,1.862,2.373q.02,2.277.04,4.553c-1.49.279-1.9.767-1.9,2.321,0,12.422-.019,24.844.025,37.266,0,1.227-.381,1.545-1.553,1.517-2.958-.073-5.918-.039-8.878-.016-1.419.01-1.854.4-2.2,1.794Z" transform="translate(-100.988 -20.283)" fill="#d0cfd6"/>
      <path id="Trazado_127835" data-name="Trazado 127835" d="M466.661,852.927c.345-1.394.781-1.784,2.2-1.794,2.959-.023,5.92-.057,8.878.016,1.172.028,1.557-.29,1.553-1.517-.044-12.422-.028-24.844-.025-37.266,0-1.554.41-2.042,1.9-2.321a1.96,1.96,0,0,1,1.661,2.208q-.022,19.023-.013,38.045a4.094,4.094,0,0,1-4.356,4.374c-3.191.032-6.384.017-9.576,0C467.427,854.67,467.032,854.338,466.661,852.927Z" transform="translate(-116.404 -53.043)" fill="#020202"/>
      <path id="Trazado_127836" data-name="Trazado 127836" d="M362.754,748.083a168.878,168.878,0,0,1-4.743,35.452,99.983,99.983,0,0,1-6.108,17.316,67.757,67.757,0,0,1-8.525,13.8c-.757.951-1.628,1.813-2.443,2.718-.283.315-.7.547-.685,1.054-.51.029-1.02.083-1.53.083q-42.2.006-84.4,0c-1.7,0-1.7,0-1.7-1.673q0-33.777-.023-67.553c0-.994.176-1.3,1.255-1.3q53.862.051,107.723.031C361.97,748.017,362.362,748.06,362.754,748.083ZM309.643,791.1a18.963,18.963,0,1,0-18.9-19.132A18.985,18.985,0,0,0,309.643,791.1Zm-6.8,17.959q10.653,0,21.306,0a6.388,6.388,0,0,0,1.295-.076,1.574,1.574,0,0,0,1.336-1.578,1.591,1.591,0,0,0-1.232-1.777,5.362,5.362,0,0,0-1.406-.126q-21.306-.009-42.612,0a5.237,5.237,0,0,0-1.406.129,1.737,1.737,0,0,0,.118,3.354,6.434,6.434,0,0,0,1.3.074Q292.186,809.058,302.839,809.055Zm17.3,5.4h17.623c.354,0,.711.013,1.064-.016a1.752,1.752,0,0,0,.2-3.479,5.779,5.779,0,0,0-1.177-.06q-17.682,0-35.364,0a5.784,5.784,0,0,0-1.4.121,1.6,1.6,0,0,0-1.286,1.744,1.633,1.633,0,0,0,1.541,1.655,9.8,9.8,0,0,0,1.181.031Q311.329,814.451,320.14,814.45Zm-32.474,0c2.246,0,4.491.009,6.737,0,1.383-.007,2.2-.671,2.2-1.753s-.837-1.791-2.191-1.8q-6.678-.021-13.356,0c-1.4,0-2.167.663-2.169,1.785s.737,1.755,2.16,1.763C283.253,814.46,285.46,814.45,287.666,814.45ZM309.754,793.5c-2.012,0-4.024-.014-6.036,0-1.293.012-2.071.7-2.067,1.759s.787,1.778,2.071,1.785q5.976.03,11.953,0c1.282-.006,2.067-.728,2.068-1.788s-.78-1.743-2.072-1.756C313.7,793.484,311.726,793.5,309.754,793.5Zm25.738,15.552c1.064,0,2.13.034,3.192-.01a1.7,1.7,0,0,0,1.823-1.746,1.642,1.642,0,0,0-1.687-1.754q-3.307-.1-6.619,0a1.637,1.637,0,0,0-1.694,1.856,1.653,1.653,0,0,0,1.793,1.648C333.363,809.076,334.428,809.049,335.492,809.049Z" transform="translate(-3.913 -20.43)" fill="#e5e4ea"/>
      <path id="Trazado_127837" data-name="Trazado 127837" d="M485.153,727.848q.015-5.622.03-11.243a1.174,1.174,0,0,1,.332-.1c4.321,0,3.4-.457,3.475,3.206.048,2.436-.014,4.873.023,7.308.011.709-.188,1.007-.925.942A22.236,22.236,0,0,1,485.153,727.848Z" transform="translate(-126.122 -3.876)" fill="#c03c4e"/>
      <path id="Trazado_127838" data-name="Trazado 127838" d="M469.672,728.332c-.512,0-1.026.025-1.536,0a1.791,1.791,0,0,1-1.821-1.78,1.769,1.769,0,0,1,1.735-1.746c1.14-.054,2.286-.058,3.425,0a1.733,1.733,0,0,1,1.69,1.776,1.752,1.752,0,0,1-1.721,1.744C470.856,728.364,470.263,728.331,469.672,728.332Z" transform="translate(-116.223 -8.225)" fill="#030102"/>
      <path id="Trazado_127839" data-name="Trazado 127839" d="M278.223,724.825a1.774,1.774,0,1,1-.118,3.544,1.773,1.773,0,0,1,.118-3.544Z" transform="translate(-16.428 -8.259)" fill="#070304"/>
      <path id="Trazado_127840" data-name="Trazado 127840" d="M289.487,724.825a1.772,1.772,0,0,1,.005,3.543,1.772,1.772,0,1,1-.005-3.543Z" transform="translate(-22.339 -8.259)" fill="#070304"/>
      <path id="Trazado_127841" data-name="Trazado 127841" d="M268.669,726.618a1.777,1.777,0,1,1-1.789-1.793A1.779,1.779,0,0,1,268.669,726.618Z" transform="translate(-10.49 -8.259)" fill="#030203"/>
      <path id="Trazado_127842" data-name="Trazado 127842" d="M351.887,796.837A18.963,18.963,0,1,1,370.9,778.051,18.979,18.979,0,0,1,351.887,796.837Zm9.548-30.992c-.369-.292-.717-.613-1.108-.87a15.418,15.418,0,0,0-17.53.513,15.242,15.242,0,0,0-5.62,16.7,14.742,14.742,0,0,0,11.066,10.553,9.7,9.7,0,0,0,4.175.523c7.877-.465,13.743-5.689,14.774-13.506A14.45,14.45,0,0,0,361.435,765.846Z" transform="translate(-46.157 -26.172)" fill="#030203"/>
      <path id="Trazado_127843" data-name="Trazado 127843" d="M331.956,872.742q-10.653,0-21.306,0a6.434,6.434,0,0,1-1.3-.074,1.737,1.737,0,0,1-.118-3.354,5.24,5.24,0,0,1,1.406-.129q21.306-.009,42.612,0a5.365,5.365,0,0,1,1.406.126,1.591,1.591,0,0,1,1.232,1.777,1.574,1.574,0,0,1-1.336,1.578,6.383,6.383,0,0,1-1.295.076Q342.609,872.745,331.956,872.742Z" transform="translate(-33.03 -84.118)" fill="#070707"/>
      <path id="Trazado_127844" data-name="Trazado 127844" d="M372.407,884.121q-8.811,0-17.623,0a9.784,9.784,0,0,1-1.181-.031,1.633,1.633,0,0,1-1.541-1.655,1.6,1.6,0,0,1,1.286-1.744,5.786,5.786,0,0,1,1.4-.121q17.682-.009,35.364,0a5.783,5.783,0,0,1,1.177.06,1.752,1.752,0,0,1-.2,3.479c-.353.029-.709.016-1.064.016Z" transform="translate(-56.18 -90.101)" fill="#050505"/>
      <path id="Trazado_127845" data-name="Trazado 127845" d="M316.78,884.115c-2.206,0-4.413.009-6.619,0-1.423-.008-2.163-.628-2.16-1.763s.765-1.781,2.169-1.785q6.678-.021,13.356,0c1.354,0,2.194.724,2.191,1.8s-.817,1.746-2.2,1.753C321.271,884.124,319.026,884.115,316.78,884.115Z" transform="translate(-33.028 -90.095)" fill="#060606"/>
      <path id="Trazado_127846" data-name="Trazado 127846" d="M364.08,843.9c1.972,0,3.945-.014,5.917,0,1.292.012,2.073.7,2.072,1.756s-.786,1.782-2.068,1.788q-5.976.031-11.953,0c-1.284-.007-2.067-.724-2.071-1.785s.774-1.747,2.067-1.759C360.056,843.883,362.069,843.9,364.08,843.9Z" transform="translate(-58.24 -70.829)" fill="#060606"/>
      <path id="Trazado_127847" data-name="Trazado 127847" d="M421.768,872.732c-1.064,0-2.13.028-3.193-.008a1.753,1.753,0,0,1-.1-3.5q3.307-.1,6.619,0a1.642,1.642,0,0,1,1.687,1.754,1.7,1.7,0,0,1-1.823,1.746C423.9,872.766,422.832,872.733,421.768,872.732Z" transform="translate(-90.189 -84.114)" fill="#070607"/>
      <path id="Trazado_127848" data-name="Trazado 127848" d="M352.149,796.7a14.742,14.742,0,0,1-11.066-10.553,15.242,15.242,0,0,1,5.62-16.7,15.418,15.418,0,0,1,17.53-.513c.391.257.739.578,1.108.87-.047.349.185.579.341.851,3.06,5.348,3.5,10.911.8,16.452A16.283,16.283,0,0,1,352.149,796.7Zm9.078-7.776a1.74,1.74,0,0,0,1.569-1.076,1.672,1.672,0,0,0-.385-1.957c-1.123-1.162-2.245-2.329-3.432-3.424-.559-.516-.493-.8.022-1.28,1.1-1.02,2.141-2.1,3.185-3.17.95-.977,1.009-2.035.195-2.8-.779-.727-1.773-.638-2.718.284-1.073,1.045-2.153,2.086-3.168,3.186-.515.559-.827.493-1.312-.026-1.023-1.094-2.1-2.14-3.172-3.182-.938-.908-1.956-.982-2.721-.242-.8.774-.724,1.812.238,2.794,1.076,1.1,2.151,2.2,3.27,3.252.465.438.417.7-.018,1.111-1.114,1.059-2.193,2.155-3.268,3.254-.922.943-1.013,1.928-.287,2.707.761.817,1.824.76,2.8-.19,1.075-1.043,2.154-2.085,3.171-3.184.509-.55.821-.513,1.312.013,1.021,1.095,2.111,2.125,3.165,3.19A2.089,2.089,0,0,0,361.228,788.929Z" transform="translate(-50.064 -30.134)" fill="#ea6278"/>
      <path id="Trazado_127849" data-name="Trazado 127849" d="M365.14,800.422a16.283,16.283,0,0,0,14.33-9.594c2.706-5.541,2.263-11.1-.8-16.452-.156-.272-.388-.5-.341-.851a14.45,14.45,0,0,1,5.757,13.913c-1.031,7.818-6.9,13.042-14.774,13.506A9.7,9.7,0,0,1,365.14,800.422Z" transform="translate(-63.055 -33.851)" fill="#e74157"/>
      <path id="Trazado_127850" data-name="Trazado 127850" d="M370.447,798.112a2.092,2.092,0,0,1-1.552-.735c-1.054-1.064-2.144-2.095-3.165-3.19-.491-.526-.8-.564-1.312-.013-1.016,1.1-2.1,2.141-3.171,3.184-.98.95-2.043,1.007-2.8.19-.726-.779-.635-1.764.287-2.707,1.075-1.1,2.155-2.2,3.268-3.254.434-.413.483-.673.018-1.111-1.119-1.052-2.195-2.153-3.27-3.252-.961-.982-1.038-2.02-.238-2.794.765-.739,1.783-.666,2.721.242,1.076,1.042,2.149,2.089,3.172,3.182.484.519.8.584,1.312.026,1.015-1.1,2.1-2.141,3.168-3.186.946-.922,1.94-1.011,2.718-.284.814.761.756,1.819-.195,2.8-1.044,1.074-2.089,2.15-3.185,3.17-.515.479-.582.764-.022,1.28,1.187,1.095,2.309,2.261,3.432,3.423a1.672,1.672,0,0,1,.385,1.957A1.741,1.741,0,0,1,370.447,798.112Z" transform="translate(-59.282 -39.316)" fill="#070304"/>
    </g>
  </g>
</svg>
