<svg xmlns="http://www.w3.org/2000/svg" width="925" height="226" viewBox="0 0 925 226">
  <g id="Grupo_86056" data-name="Grupo 86056" transform="translate(-495 -14041.081)">
    <path id="Trazado_128240" data-name="Trazado 128240" d="M15,0H910a15,15,0,0,1,15,15V211a15,15,0,0,1-15,15H15A15,15,0,0,1,0,211V15A15,15,0,0,1,15,0Z" transform="translate(495 14041.081)" fill="#d5cef8"/>
    <path id="hacker-working-in-the-darkness" d="M258.97,245.324h88.423A94.884,94.884,0,0,1,448.97,183.5V97.435q-6.143-.417-12.393-.422A180.517,180.517,0,0,0,258.97,245.324Z" transform="translate(971.03 14021.505)" fill="#ab9df1"/>
  </g>
</svg>
