<svg xmlns="http://www.w3.org/2000/svg" width="38.876" height="52" viewBox="0 0 38.876 52">
  <g id="Grupo_85250" data-name="Grupo 85250" transform="translate(-456.624 -26314.001)">
    <g id="Grupo_85249" data-name="Grupo 85249" transform="translate(-1012.73 25944.176)">
      <path id="Trazado_125212" data-name="Trazado 125212" d="M1502.165,384.472c0,.83.01,1.661-.007,2.491a.582.582,0,0,0,.308.567c4.1,2.741,6.124,6.546,5.711,11.506a13.231,13.231,0,0,1-2.891,6.825,49.747,49.747,0,0,1-5.631,5.923c-3.484,3.344-7.128,6.517-10.587,9.887-.161.157-.267.233-.476.032-4.49-4.326-9.209-8.409-13.616-12.823a20.907,20.907,0,0,1-4.634-6.426,11.953,11.953,0,0,1,4.815-14.922.572.572,0,0,0,.311-.564c.022-1.694-.1-3.39.07-5.081a13.337,13.337,0,0,1,26.484-.56A23.383,23.383,0,0,1,1502.165,384.472Zm-29.771,13.341a8.374,8.374,0,0,0,.569,3.066,14.73,14.73,0,0,0,3.356,5.033c3.916,4.066,8.167,7.781,12.284,11.634.229.215.329.081.479-.059,3.426-3.181,6.89-6.321,10.255-9.568a30.934,30.934,0,0,0,3.705-4.106,9.878,9.878,0,0,0,2.128-7.061,8.446,8.446,0,0,0-11.8-7,30.861,30.861,0,0,0-4.153,2.426.642.642,0,0,1-.8.007c-.975-.639-1.958-1.271-2.97-1.849a8.932,8.932,0,0,0-6.355-1.118A8.8,8.8,0,0,0,1472.395,397.812Zm6.095-14.019c0,.863.016,1.473-.007,2.082-.012.308.089.374.375.321a8.909,8.909,0,0,1,2.427-.143c.34.031.47-.044.431-.39a4.182,4.182,0,0,1,0-.559,16.428,16.428,0,0,1,.2-3.694,7.094,7.094,0,0,1,13.989,1.68c.007.881,0,1.762,0,2.643,0,.152-.071.361.227.331a10.489,10.489,0,0,1,2.731.14c.166.026.292.034.284-.206a25.979,25.979,0,0,0-.187-4.662,10.331,10.331,0,0,0-20.473,2.457Zm14.4.747h-.026c0-.609.035-1.221-.006-1.828a4.063,4.063,0,0,0-8.042-.388,34.781,34.781,0,0,0-.1,4.158c-.008.208.115.263.258.312a15.667,15.667,0,0,1,3.481,1.846.55.55,0,0,0,.711,0,14.851,14.851,0,0,1,3.433-1.826.388.388,0,0,0,.294-.45C1492.882,385.76,1492.891,385.15,1492.891,384.54Z" transform="translate(0 0)" fill="#583ae2"/>
      <path id="Trazado_125213" data-name="Trazado 125213" d="M1544.115,509.854c0-.559-.021-1.119.008-1.677a.551.551,0,0,0-.412-.63,4.9,4.9,0,1,1,3.979-.074.818.818,0,0,0-.574.929c.038,1.083,0,2.168.02,3.252.008.346-.107.424-.429.414-.711-.023-1.424-.034-2.133,0-.405.021-.483-.129-.466-.49C1544.135,511.007,1544.115,510.43,1544.115,509.854Zm1.564-8.681a1.853,1.853,0,0,0-1.931,1.8,1.888,1.888,0,0,0,1.823,1.971,1.918,1.918,0,0,0,1.945-1.864A1.878,1.878,0,0,0,1545.679,501.174Z" transform="translate(-56.814 -102.176)" fill="#583ae2"/>
    </g>
  </g>
</svg>
