<svg xmlns="http://www.w3.org/2000/svg" xmlns:xlink="http://www.w3.org/1999/xlink" width="96" height="96" viewBox="0 0 96 96">
  <defs>
    <clipPath id="clip-path">
      <rect id="Rectángulo_34496" data-name="Rectángulo 34496" width="96" height="96" fill="#fff" stroke="#707070" stroke-width="1"/>
    </clipPath>
  </defs>
  <g id="Grupo_85203" data-name="Grupo 85203" clip-path="url(#clip-path)">
    <g id="Grupo_85206" data-name="Grupo 85206" transform="translate(-524.783 638.82)">
      <path id="Trazado_124977" data-name="Trazado 124977" d="M549.119-571.442c-3.242,0-6.483-.007-9.724,0a6.429,6.429,0,0,1-3.321-.827,6.163,6.163,0,0,1-3.312-5.54q-.048-18.163-.006-36.326a6.4,6.4,0,0,1,6.442-6.391q6.74-.041,13.48.007c.59,0,.756-.119.755-.736a22.81,22.81,0,0,1,.12-4.428,6.351,6.351,0,0,1,6.084-5.166q13.157-.055,26.314,0a6.381,6.381,0,0,1,6.2,6.215c.03,1.049.06,2.1-.007,3.147-.048.745.115.983.928.974,4.3-.05,8.61-.026,12.914-.023a6.467,6.467,0,0,1,6.84,6.817q.006,17.719,0,35.438A6.473,6.473,0,0,1,606-571.443q-4.843.006-9.686,0a2.582,2.582,0,0,0-.274.044c.719.176,1.348.284,1.947.483a10.348,10.348,0,0,1,6.929,11.618,10.327,10.327,0,0,1-10.112,8.511q-22.036.03-44.072,0a10.337,10.337,0,0,1-10.2-9.345,10.361,10.361,0,0,1,7.866-11.008c.248-.06.492-.137.739-.205Zm23.675,18.085c7.29,0,14.581.018,21.872-.006a7.73,7.73,0,0,0,7.671-9.268,7.779,7.779,0,0,0-7.6-6.225,7.785,7.785,0,0,0-7.59,6.23c-.089.492,0,1.22-.29,1.421-.365.256-1.036.032-1.561.11-.857.127-.947-.271-.863-.986a10.352,10.352,0,0,1,8.528-9.175c.44-.086.5-.26.486-.632a14.553,14.553,0,0,0-.305-2.315,12.937,12.937,0,0,0-13.238-10.147,12.977,12.977,0,0,0-12.173,11.14c-.08.585.2,1.412-.313,1.705-.467.268-1.207.032-1.824.073-.467.031-.587-.128-.563-.582a15.335,15.335,0,0,1,1.389-5.758c.2-.418.128-.579-.288-.748a10.386,10.386,0,0,0-13.563,6.635c-.149.522-.008.607.439.715a10.238,10.238,0,0,1,8.071,8.868c.186,1.195.186,1.195-.99,1.195-1.425,0-1.425,0-1.658-1.375a7.755,7.755,0,0,0-8.188-6.357,7.8,7.8,0,0,0-7.16,7.343,7.747,7.747,0,0,0,7.834,8.135C558.214-553.343,565.5-553.358,572.794-553.358Zm16.783-30.734v-.839q0-19.494,0-38.989c0-2.808-1.54-4.359-4.326-4.36H560.391c-2.858,0-4.4,1.528-4.4,4.37q0,21.432,0,42.864a1.752,1.752,0,0,0,.089.9,12.773,12.773,0,0,1,1.687-.728c.661-.184.82-.53.819-1.191q-.031-20.3-.015-40.6c0-2.032.989-3.028,3.006-3.028h22.358c2.093,0,3.052.963,3.052,3.063q0,14.974,0,29.949c0,2.179,0,4.359,0,6.538,0,.277-.1.578.265.766C588.017-584.987,588.751-584.555,589.577-584.091Zm-5.167-2.345c0-1.819,0-3.586,0-5.353,0-.467-.35-.315-.577-.316q-11.051-.01-22.1-.015c-.455,0-.583.124-.58.58q.029,4.6,0,9.2c0,.511.134.623.632.591a11.958,11.958,0,0,1,5.579.986.722.722,0,0,0,1.05-.265,15,15,0,0,1,5.993-4.629A15.211,15.211,0,0,1,584.41-586.437Zm-11.628-16.008c-3.657,0-7.314.011-10.97-.013-.529,0-.67.139-.663.665q.045,3.227,0,6.454c-.008.54.158.657.671.655q10.97-.024,21.941,0c.528,0,.67-.138.662-.664-.03-2.124-.039-4.249,0-6.372.013-.619-.165-.745-.755-.74C580.042-602.43,576.412-602.444,572.782-602.444Zm-.005-12.919c3.657,0,7.314-.009,10.971.011.5,0,.686-.1.677-.65-.034-2.151-.03-4.3,0-6.454.007-.516-.118-.671-.657-.67q-10.97.028-21.941,0c-.607,0-.682.212-.675.734.028,2.1.035,4.2,0,6.292-.011.592.125.76.741.755C565.517-615.38,569.147-615.363,572.777-615.363Zm.093,2.584c-3.684,0-7.368.01-11.051-.012-.516,0-.679.118-.671.657q.049,3.226,0,6.453c-.007.527.137.665.663.663q10.971-.026,21.941,0c.515,0,.679-.117.671-.656-.033-2.124-.038-4.249,0-6.373.011-.6-.143-.753-.747-.748C580.076-612.763,576.473-612.779,572.87-612.779Zm-34.959,38.436v-.952q0-18.56,0-37.119a2.634,2.634,0,0,1,2.919-2.949q5.406,0,10.812,0c1.773,0,1.732,0,1.788-1.79.022-.71-.213-.812-.851-.808-4.33.029-8.66.014-12.991.016a3.9,3.9,0,0,0-4.261,4.257q0,10.49,0,20.98,0,7.343,0,14.686A3.719,3.719,0,0,0,537.911-574.342Zm69.75-.025a3.661,3.661,0,0,0,2.581-3.707q.005-17.873,0-35.746a3.879,3.879,0,0,0-4.149-4.125q-6.011-.007-12.022,0c-1.925,0-1.9,0-1.925,1.892-.007.566.137.71.7.706,3.9-.027,7.8-.015,11.7-.014,2.155,0,3.11.946,3.11,3.083q0,18.518,0,37.037Zm-9.124-20.328c1.99,0,3.98-.013,5.969.01.452.005.587-.115.582-.576q-.035-3.307,0-6.615c0-.454-.12-.582-.577-.58q-5.889.027-11.778,0c-.451,0-.587.115-.582.575q.035,3.308,0,6.615c0,.454.119.586.578.58C594.664-594.709,596.6-594.695,598.537-594.695Zm-51.5-7.75c-1.99,0-3.98.013-5.97-.01-.452-.005-.587.116-.582.576q.036,3.308,0,6.615c0,.455.121.581.578.579q5.888-.026,11.778,0c.451,0,.586-.116.581-.576q-.035-3.307,0-6.615c0-.455-.12-.586-.578-.58C550.908-602.43,548.971-602.444,547.035-602.444Zm-.089,20.668c-1.936,0-3.872.01-5.808-.008-.437,0-.668.024-.659.581.037,2.2.029,4.411,0,6.615-.005.467.142.573.587.571q4.517-.028,9.035,0a.7.7,0,0,0,.73-.45,6.274,6.274,0,0,1,1.117-1.849c1.457-1.319,1.635-2.956,1.459-4.737a.609.609,0,0,1,0-.161c.078-.466-.131-.577-.576-.571C550.873-581.763,548.91-581.776,546.947-581.776Zm.006-2.584c1.963,0,3.926-.014,5.889.01.454.005.585-.119.58-.577q-.035-3.307,0-6.615c0-.457-.124-.58-.579-.578q-5.889.026-11.778,0c-.454,0-.585.118-.58.577q.035,3.308,0,6.615c0,.457.124.584.579.578C543.026-584.374,544.99-584.36,546.952-584.36Zm51.663,0c1.936,0,3.872-.018,5.808.012.519.008.675-.121.667-.657q-.049-3.226,0-6.454c.007-.522-.127-.668-.659-.665q-5.808.035-11.616,0c-.518,0-.675.12-.667.656q.049,3.226,0,6.454c-.007.522.126.674.659.665C594.743-584.381,596.679-584.36,598.616-584.36Zm-.079-20.668c1.99,0,3.98-.013,5.97.01.452.006.587-.115.582-.576q-.035-3.307,0-6.615c0-.454-.12-.581-.578-.58q-5.889.027-11.778,0c-.451,0-.587.115-.582.575q.035,3.308,0,6.615c0,.455.12.586.578.58C594.665-605.043,596.6-605.029,598.537-605.029Zm-51.666,0c1.99,0,3.98-.014,5.969.01.453.006.586-.117.581-.576q-.035-3.308,0-6.615c0-.456-.122-.581-.578-.579q-5.889.026-11.778,0c-.452,0-.586.117-.581.576q.035,3.307,0,6.615c0,.456.122.585.579.579C543-605.043,544.935-605.029,546.871-605.029Zm45.2,23.252a15.537,15.537,0,0,1,3.64,7.355c.069.368.262.4.557.4,2.767-.005,5.534-.014,8.3.008.449,0,.522-.156.519-.555-.017-2.229-.021-4.459,0-6.689,0-.44-.139-.533-.548-.526-1.423.023-2.847.009-4.271.009Z" fill="#010101"/>
      <path id="Trazado_124978" data-name="Trazado 124978" d="M594.42-456.119c-7.29,0-14.581.015-21.872-.005a7.747,7.747,0,0,1-7.834-8.135,7.8,7.8,0,0,1,7.16-7.343,7.755,7.755,0,0,1,8.188,6.357c.233,1.375.233,1.375,1.658,1.375,1.176,0,1.176,0,.99-1.195a10.238,10.238,0,0,0-8.071-8.868c-.448-.108-.589-.193-.439-.715a10.386,10.386,0,0,1,13.563-6.635c.417.17.485.33.288.748a15.336,15.336,0,0,0-1.389,5.758c-.025.455.1.614.563.582.616-.041,1.357.194,1.824-.073.512-.293.233-1.12.313-1.705a12.977,12.977,0,0,1,12.173-11.14,12.937,12.937,0,0,1,13.238,10.147,14.562,14.562,0,0,1,.305,2.315c.018.371-.046.546-.486.632a10.352,10.352,0,0,0-8.528,9.175c-.084.715.006,1.114.863.986.525-.078,1.2.146,1.561-.11.287-.2.2-.929.29-1.421a7.785,7.785,0,0,1,7.59-6.23,7.779,7.779,0,0,1,7.6,6.225,7.73,7.73,0,0,1-7.671,9.268C609-456.1,601.711-456.119,594.42-456.119Zm7.714-28.389c-.3,0-.593-.024-.886,0-2.1.2-2.086.2-1.517,2.2.144.507.3.636.857.529a7.744,7.744,0,0,1,8.856,4.91c.19.5.043,1.293.576,1.463.509.162,1.152-.138,1.74-.173.558-.034.626-.265.519-.768A10.366,10.366,0,0,0,602.134-484.507Zm-27.1,24.567c0-1.345,0-1.345-1.319-1.345-1.264,0-1.264,0-1.264,1.238,0,1.345,0,1.345,1.319,1.345C575.036-458.7,575.036-458.7,575.036-459.941Zm5.167-.107c0-1.238,0-1.238-1.264-1.238-1.319,0-1.319,0-1.319,1.345,0,1.238,0,1.238,1.264,1.238C580.2-458.7,580.2-458.7,580.2-460.047Zm3.837,1.345c1.33,0,1.33,0,1.33-1.333,0-1.25,0-1.25-1.253-1.25-1.33,0-1.33,0-1.33,1.333C582.787-458.7,582.787-458.7,584.04-458.7Z" transform="translate(-21.626 -97.239)" fill="#e4e7ea"/>
      <path id="Trazado_124979" data-name="Trazado 124979" d="M638.171-578.668c-.826-.463-1.56-.9-2.314-1.289-.361-.188-.264-.489-.265-.766-.006-2.18,0-4.359,0-6.538q0-14.974,0-29.949c0-2.1-.959-3.063-3.052-3.063H610.177c-2.017,0-3.006,1-3.006,3.028q0,20.3.015,40.6c0,.661-.157,1.008-.819,1.191a12.773,12.773,0,0,0-1.687.728,1.752,1.752,0,0,1-.089-.9q-.007-21.432,0-42.864c0-2.842,1.537-4.37,4.4-4.37h24.861c2.786,0,4.326,1.552,4.326,4.36q0,19.494,0,38.989Z" transform="translate(-48.593 -5.423)" fill="#969ea8"/>
      <path id="Trazado_124980" data-name="Trazado 124980" d="M643.805-505.437a15.211,15.211,0,0,0-10.007.776,15,15,0,0,0-5.993,4.629.722.722,0,0,1-1.05.265,11.958,11.958,0,0,0-5.579-.986c-.5.032-.636-.08-.632-.591q.036-4.6,0-9.2c0-.456.125-.581.58-.58q11.051.02,22.1.015c.227,0,.578-.151.577.316C643.8-509.023,643.805-507.256,643.805-505.437Zm-19.31-3.09c-1.356,0-1.356,0-1.356,1.308,0,1.276,0,1.276,1.308,1.276,1.276,0,1.276,0,1.276-1.308C625.723-508.528,625.723-508.528,624.5-508.528Zm6.394,1.33c0-1.33,0-1.33-1.333-1.33-1.25,0-1.25,0-1.25,1.253,0,1.331,0,1.331,1.333,1.331C630.89-505.944,630.89-505.944,630.89-507.2Z" transform="translate(-59.395 -80.999)" fill="#83d3ee"/>
      <path id="Trazado_124981" data-name="Trazado 124981" d="M632.174-543.042c3.63,0,7.26.014,10.89-.015.59,0,.768.121.755.74-.043,2.123-.034,4.249,0,6.372.008.526-.134.666-.662.664q-10.971-.027-21.941,0c-.514,0-.68-.115-.671-.655q.049-3.226,0-6.454c-.007-.526.134-.668.663-.665C624.861-543.031,628.518-543.042,632.174-543.042Zm3.879,3.877c0-1.294,0-1.294-1.289-1.294s-1.294,0-1.294,1.289,0,1.294,1.289,1.294S636.053-537.875,636.053-539.164Zm3.833,1.289c1.334,0,1.334,0,1.334-1.33,0-1.254,0-1.254-1.249-1.254-1.334,0-1.334,0-1.334,1.33C638.637-537.875,638.637-537.875,639.886-537.875Z" transform="translate(-59.392 -59.403)" fill="#83d3ef"/>
      <path id="Trazado_124982" data-name="Trazado 124982" d="M632.165-599.168c-3.63,0-7.26-.017-10.89.016-.616.006-.751-.162-.741-.755.039-2.1.031-4.2,0-6.292-.007-.523.068-.736.675-.734q10.97.035,21.941,0c.538,0,.663.154.657.67-.028,2.151-.032,4.3,0,6.454.009.55-.172.653-.677.65C639.479-599.177,635.822-599.168,632.165-599.168Zm7.818-5.167c-1.35,0-1.35,0-1.35,1.313,0,1.27,0,1.27,1.233,1.27,1.35,0,1.35,0,1.35-1.314C641.216-604.335,641.216-604.335,639.983-604.335Zm-3.934,1.308c0-1.308,0-1.308-1.276-1.308-1.308,0-1.308,0-1.308,1.276,0,1.308,0,1.308,1.275,1.308C636.049-601.751,636.049-601.751,636.049-603.027Z" transform="translate(-59.388 -16.195)" fill="#83d3ef"/>
      <path id="Trazado_124983" data-name="Trazado 124983" d="M632.262-574.982c3.6,0,7.206.016,10.809-.016.6-.005.759.143.747.748-.041,2.124-.035,4.249,0,6.373.008.539-.155.657-.671.656q-10.97-.025-21.941,0c-.527,0-.671-.136-.663-.663q.045-3.226,0-6.453c-.008-.539.155-.66.671-.657C624.895-574.972,628.579-574.982,632.262-574.982Zm-1.375,3.882c0-1.3,0-1.3-1.285-1.3s-1.3,0-1.3,1.285,0,1.3,1.285,1.3S630.887-569.815,630.887-571.1Zm-6.405-1.3c-1.345,0-1.345,0-1.345,1.319,0,1.265,0,1.265,1.238,1.265,1.345,0,1.345,0,1.345-1.319C625.72-572.4,625.72-572.4,624.482-572.4Z" transform="translate(-59.392 -37.797)" fill="#83d3ef"/>
      <path id="Trazado_124984" data-name="Trazado 124984" d="M543.324-547.346a3.719,3.719,0,0,1-2.581-3.68q-.01-7.343,0-14.686,0-10.49,0-20.98A3.9,3.9,0,0,1,545-590.95c4.33,0,8.661.013,12.991-.016.637,0,.873.1.851.808-.056,1.789-.016,1.79-1.788,1.79q-5.406,0-10.812,0a2.634,2.634,0,0,0-2.919,2.949q0,18.56,0,37.119Z" transform="translate(-5.413 -26.996)" fill="#ccd0d7"/>
      <path id="Trazado_124985" data-name="Trazado 124985" d="M731.855-547.342v-.876q0-18.518,0-37.037c0-2.137-.955-3.082-3.11-3.083-3.9,0-7.8-.013-11.7.014-.568,0-.712-.14-.7-.706.024-1.891,0-1.892,1.925-1.892q6.011,0,12.022,0a3.879,3.879,0,0,1,4.149,4.125q.006,17.873,0,35.746A3.661,3.661,0,0,1,731.855-547.342Z" transform="translate(-124.194 -27.025)" fill="#ccd0d7"/>
      <path id="Trazado_124986" data-name="Trazado 124986" d="M722.741-535.283c-1.936,0-3.872-.014-5.808.011-.458.006-.582-.126-.578-.58q.034-3.307,0-6.615c0-.46.131-.577.582-.575q5.888.026,11.778,0c.457,0,.582.126.577.58q-.035,3.307,0,6.615c0,.461-.13.581-.582.576C726.72-535.3,724.73-535.283,722.741-535.283Z" transform="translate(-124.204 -59.412)" fill="#fbe9ae"/>
      <path id="Trazado_124987" data-name="Trazado 124987" d="M563.23-543.034c1.936,0,3.872.014,5.808-.011.457-.006.582.125.578.58q-.034,3.307,0,6.615c0,.46-.13.578-.581.576q-5.889-.026-11.778,0c-.457,0-.582-.125-.578-.579q.034-3.307,0-6.615c0-.46.13-.581.582-.576C559.25-543.02,561.24-543.034,563.23-543.034Z" transform="translate(-16.195 -59.411)" fill="#fbe9ae"/>
      <path id="Trazado_124988" data-name="Trazado 124988" d="M563.132-479.157c1.963,0,3.926.013,5.889-.01.446-.005.655.105.576.571a.611.611,0,0,0,0,.161c.176,1.782,0,3.418-1.459,4.737a6.273,6.273,0,0,0-1.117,1.849.7.7,0,0,1-.73.45q-4.517-.023-9.035,0c-.445,0-.592-.1-.587-.571.025-2.2.033-4.411,0-6.615-.009-.558.222-.586.659-.581C559.259-479.147,561.2-479.157,563.132-479.157Z" transform="translate(-16.185 -102.619)" fill="#fbe9ae"/>
      <path id="Trazado_124989" data-name="Trazado 124989" d="M563.148-503.345c-1.963,0-3.926-.014-5.889.01-.456.005-.584-.122-.579-.578q.035-3.307,0-6.615c0-.458.127-.579.58-.577q5.889.026,11.778,0c.455,0,.584.121.579.578q-.035,3.308,0,6.615c0,.458-.126.583-.58.577C567.074-503.359,565.111-503.345,563.148-503.345Zm-2.519-2.583c1.228,0,1.228,0,1.228-1.195,0-1.389,0-1.389-1.356-1.389-1.228,0-1.228,0-1.228,1.195C559.273-505.928,559.273-505.928,560.629-505.928Zm3.811-1.345c0,1.345,0,1.345,1.319,1.345,1.264,0,1.264,0,1.264-1.238,0-1.345,0-1.345-1.319-1.345C564.44-508.512,564.44-508.512,564.44-507.273Z" transform="translate(-16.195 -81.015)" fill="#fbe9ae"/>
      <path id="Trazado_124990" data-name="Trazado 124990" d="M722.814-503.35c-1.936,0-3.872-.02-5.808.013-.533.009-.666-.143-.659-.665q.045-3.226,0-6.454c-.008-.536.149-.659.667-.656q5.808.033,11.616,0c.532,0,.666.142.659.665q-.045,3.226,0,6.454c.008.536-.148.665-.667.657C726.686-503.369,724.75-503.35,722.814-503.35Zm-2.657-2.583c1.37,0,1.37,0,1.37-1.375,0-1.209,0-1.209-1.214-1.209-1.37,0-1.37,0-1.37,1.375C718.943-505.934,718.943-505.934,720.156-505.934Zm6.536-1.253c0-1.331,0-1.331-1.333-1.331-1.25,0-1.25,0-1.25,1.253,0,1.331,0,1.331,1.333,1.331C726.693-505.934,726.693-505.934,726.693-507.187Z" transform="translate(-124.198 -81.01)" fill="#fbe9ae"/>
      <path id="Trazado_124991" data-name="Trazado 124991" d="M722.741-567.221c-1.936,0-3.872-.014-5.808.011-.458.006-.582-.125-.578-.58q.034-3.307,0-6.615c0-.46.13-.577.582-.575q5.889.026,11.778,0c.457,0,.582.125.578.58q-.035,3.308,0,6.615c0,.46-.13.581-.582.576C726.721-567.234,724.731-567.221,722.741-567.221Zm-2.534-2.583c1.325,0,1.325,0,1.325-1.339,0-1.244,0-1.244-1.259-1.244-1.325,0-1.325,0-1.325,1.339C718.948-569.8,718.948-569.8,720.207-569.8Zm6.491-1.28c0-1.3,0-1.3-1.28-1.3-1.3,0-1.3,0-1.3,1.28,0,1.3,0,1.3,1.28,1.3C726.7-569.8,726.7-569.8,726.7-571.084Z" transform="translate(-124.204 -37.808)" fill="#fbe9ae"/>
      <path id="Trazado_124992" data-name="Trazado 124992" d="M563.066-567.22c-1.936,0-3.873-.014-5.808.011-.457.006-.583-.124-.579-.579q.034-3.307,0-6.615c-.005-.459.128-.578.581-.576q5.889.026,11.778,0c.456,0,.583.123.578.579q-.034,3.307,0,6.615c0,.459-.128.582-.581.576C567.046-567.234,565.056-567.22,563.066-567.22ZM565.8-569.8c1.223,0,1.223,0,1.223-1.2,0-1.384,0-1.384-1.36-1.384-1.223,0-1.223,0-1.223,1.2C564.44-569.8,564.44-569.8,565.8-569.8Zm-3.944-1.245c0-1.339,0-1.339-1.325-1.339-1.258,0-1.258,0-1.258,1.244,0,1.339,0,1.339,1.325,1.339C561.857-569.8,561.857-569.8,561.857-571.048Z" transform="translate(-16.195 -37.809)" fill="#fbe9ae"/>
      <path id="Trazado_124993" data-name="Trazado 124993" d="M716.1-479.156h8.2c1.424,0,2.848.015,4.271-.009.409-.007.553.086.548.526-.023,2.229-.019,4.459,0,6.689,0,.4-.07.558-.519.555-2.767-.021-5.533-.013-8.3-.008-.3,0-.488-.03-.557-.4A15.536,15.536,0,0,0,716.1-479.156Z" transform="translate(-124.034 -102.621)" fill="#fae9ae"/>
      <path id="Trazado_124994" data-name="Trazado 124994" d="M674.666-479.064a10.366,10.366,0,0,1,10.145,8.168c.107.5.039.735-.519.768-.588.036-1.232.336-1.74.173-.533-.17-.386-.959-.576-1.463a7.744,7.744,0,0,0-8.856-4.91c-.562.107-.713-.023-.857-.529-.569-2-.587-2,1.517-2.2C674.073-479.089,674.371-479.064,674.666-479.064Z" transform="translate(-94.158 -102.682)" fill="#040404"/>
      <path id="Trazado_124995" data-name="Trazado 124995" d="M591.23-405.931c0,1.238,0,1.238-1.264,1.238-1.319,0-1.319,0-1.319-1.345,0-1.238,0-1.238,1.264-1.238C591.23-407.276,591.23-407.276,591.23-405.931Z" transform="translate(-37.819 -151.248)"/>
      <path id="Trazado_124996" data-name="Trazado 124996" d="M607.2-406.038c0,1.345,0,1.345-1.319,1.345-1.264,0-1.264,0-1.264-1.238,0-1.345,0-1.345,1.319-1.345C607.2-407.276,607.2-407.276,607.2-406.038Z" transform="translate(-48.62 -151.248)"/>
      <path id="Trazado_124997" data-name="Trazado 124997" d="M621.835-404.693c-1.253,0-1.253,0-1.253-1.25,0-1.333,0-1.333,1.33-1.333,1.253,0,1.253,0,1.253,1.25C623.165-404.693,623.165-404.693,621.835-404.693Z" transform="translate(-59.421 -151.248)"/>
      <path id="Trazado_124998" data-name="Trazado 124998" d="M629.922-503.09c1.227,0,1.227,0,1.227,1.276,0,1.308,0,1.308-1.276,1.308-1.308,0-1.308,0-1.308-1.276C628.566-503.09,628.566-503.09,629.922-503.09Z" transform="translate(-64.821 -86.437)"/>
      <path id="Trazado_124999" data-name="Trazado 124999" d="M647.117-501.76c0,1.253,0,1.253-1.25,1.253-1.333,0-1.333,0-1.333-1.331,0-1.253,0-1.253,1.25-1.253C647.117-503.09,647.117-503.09,647.117-501.76Z" transform="translate(-75.623 -86.437)"/>
      <path id="Trazado_125000" data-name="Trazado 125000" d="M663.084-533.734c0,1.289,0,1.289-1.294,1.289s-1.289,0-1.289-1.294,0-1.289,1.294-1.289S663.084-535.028,663.084-533.734Z" transform="translate(-86.423 -64.833)"/>
      <path id="Trazado_125001" data-name="Trazado 125001" d="M677.717-532.444c-1.249,0-1.249,0-1.249-1.254,0-1.33,0-1.33,1.334-1.33,1.249,0,1.249,0,1.249,1.254C679.051-532.444,679.051-532.444,677.717-532.444Z" transform="translate(-97.224 -64.833)"/>
      <path id="Trazado_125002" data-name="Trazado 125002" d="M677.818-598.9c1.233,0,1.233,0,1.233,1.27,0,1.314,0,1.314-1.35,1.314-1.233,0-1.233,0-1.233-1.27C676.468-598.9,676.468-598.9,677.818-598.9Z" transform="translate(-97.224 -21.626)"/>
      <path id="Trazado_125003" data-name="Trazado 125003" d="M663.084-597.6c0,1.276,0,1.276-1.308,1.276-1.275,0-1.275,0-1.275-1.308,0-1.276,0-1.276,1.308-1.276C663.084-598.9,663.084-598.9,663.084-597.6Z" transform="translate(-86.423 -21.626)"/>
      <path id="Trazado_125004" data-name="Trazado 125004" d="M647.116-565.667c0,1.285,0,1.285-1.3,1.285s-1.285,0-1.285-1.3,0-1.285,1.3-1.285S647.116-566.966,647.116-565.667Z" transform="translate(-75.622 -43.23)"/>
      <path id="Trazado_125005" data-name="Trazado 125005" d="M629.91-566.966c1.238,0,1.238,0,1.238,1.265,0,1.319,0,1.319-1.345,1.319-1.238,0-1.238,0-1.238-1.265C628.565-566.966,628.565-566.966,629.91-566.966Z" transform="translate(-64.821 -43.23)"/>
      <path id="Trazado_125006" data-name="Trazado 125006" d="M566.051-500.507c-1.356,0-1.356,0-1.356-1.389,0-1.195,0-1.195,1.228-1.195,1.356,0,1.356,0,1.356,1.389C567.278-500.507,567.278-500.507,566.051-500.507Z" transform="translate(-21.617 -86.437)"/>
      <path id="Trazado_125007" data-name="Trazado 125007" d="M580.663-501.852c0-1.238,0-1.238,1.264-1.238,1.319,0,1.319,0,1.319,1.345,0,1.238,0,1.238-1.264,1.238C580.663-500.507,580.663-500.507,580.663-501.852Z" transform="translate(-32.418 -86.437)"/>
      <path id="Trazado_125008" data-name="Trazado 125008" d="M725.585-500.507c-1.214,0-1.214,0-1.214-1.209,0-1.375,0-1.375,1.37-1.375,1.214,0,1.214,0,1.214,1.209C726.954-500.507,726.954-500.507,725.585-500.507Z" transform="translate(-129.626 -86.437)"/>
      <path id="Trazado_125009" data-name="Trazado 125009" d="M742.921-501.759c0,1.253,0,1.253-1.25,1.253-1.333,0-1.333,0-1.333-1.331,0-1.253,0-1.253,1.25-1.253C742.921-503.09,742.921-503.09,742.921-501.759Z" transform="translate(-140.427 -86.437)"/>
      <path id="Trazado_125010" data-name="Trazado 125010" d="M725.63-564.382c-1.259,0-1.259,0-1.259-1.244,0-1.339,0-1.339,1.325-1.339,1.259,0,1.259,0,1.259,1.244C726.954-564.382,726.954-564.382,725.63-564.382Z" transform="translate(-129.626 -43.23)"/>
      <path id="Trazado_125011" data-name="Trazado 125011" d="M742.921-565.662c0,1.28,0,1.28-1.3,1.28-1.28,0-1.28,0-1.28-1.3,0-1.28,0-1.28,1.3-1.28C742.921-566.966,742.921-566.966,742.921-565.662Z" transform="translate(-140.427 -43.23)"/>
      <path id="Trazado_125012" data-name="Trazado 125012" d="M582.023-564.382c-1.36,0-1.36,0-1.36-1.384,0-1.2,0-1.2,1.223-1.2,1.36,0,1.36,0,1.36,1.384C583.246-564.382,583.246-564.382,582.023-564.382Z" transform="translate(-32.418 -43.23)"/>
      <path id="Trazado_125013" data-name="Trazado 125013" d="M567.278-565.627c0,1.244,0,1.244-1.259,1.244-1.325,0-1.325,0-1.325-1.339,0-1.244,0-1.244,1.258-1.244C567.278-566.966,567.278-566.966,567.278-565.627Z" transform="translate(-21.617 -43.23)"/>
    </g>
  </g>
</svg>
