<svg xmlns="http://www.w3.org/2000/svg" width="52.001" height="52" viewBox="0 0 52.001 52">
  <g id="Grupo_85252" data-name="Grupo 85252" transform="translate(-1898.931 -70.119)">
    <path id="Trazado_125217" data-name="Trazado 125217" d="M1924.436,122.115a26,26,0,1,1,26.49-25.413A25.981,25.981,0,0,1,1924.436,122.115Zm.492-4.344a21.658,21.658,0,1,0-21.66-21.581A21.634,21.634,0,0,0,1924.928,117.77Z" fill="#583ae2"/>
    <path id="Trazado_125218" data-name="Trazado 125218" d="M1973.975,130.089c-.592,0-1.186-.021-1.777.008-.322.016-.381-.091-.391-.394a13,13,0,0,0-25.8-1.8,10.437,10.437,0,0,0-.179,1.866c0,.281-.1.329-.351.327-1.219-.011-2.437-.015-3.656,0-.313,0-.345-.119-.341-.386a17.342,17.342,0,0,1,34.14-3.9,18.9,18.9,0,0,1,.54,3.91c.013.286-.061.383-.355.372C1975.194,130.074,1974.584,130.089,1973.975,130.089Z" transform="translate(-33.888 -33.973)" fill="#583ae2"/>
    <path id="Trazado_125219" data-name="Trazado 125219" d="M2003.44,161.964c0,1.472.016,2.945-.013,4.417-.006.3.155.321.336.4a6.43,6.43,0,0,1,3.9,4.615,6.494,6.494,0,1,1-8.764-4.616.4.4,0,0,0,.3-.466c-.02-2.928-.028-5.856-.008-8.785a2.128,2.128,0,0,1,4.253.019c.024,1.472.006,2.945.006,4.418Zm-4.277,10.794a2.154,2.154,0,1,0,2.171-2.15A2.159,2.159,0,0,0,1999.162,172.758Z" transform="translate(-76.387 -67.989)" fill="#583ae2"/>
  </g>
</svg>
