<svg xmlns="http://www.w3.org/2000/svg" xmlns:xlink="http://www.w3.org/1999/xlink" width="85" height="85" viewBox="0 0 85 85">
  <defs>
    <clipPath id="clip-path">
      <rect id="Rectángulo_34042" data-name="Rectángulo 34042" width="85" height="85" transform="translate(600 14109)" fill="#2ff980" stroke="#707070" stroke-width="1"/>
    </clipPath>
  </defs>
  <g id="Grupo_87" data-name="Grupo 87" transform="translate(-600 -14109)" clip-path="url(#clip-path)">
    <g id="Grupo_85852" data-name="Grupo 85852" transform="translate(605.654 14114.668)">
      <path id="Trazado_127451" data-name="Trazado 127451" d="M173.583-495.2h30.382c3.917,0,6.4,2.479,6.4,6.388q0,23.358,0,46.715a5.887,5.887,0,0,1-4.351,6.073c-.445.149-.411.4-.4.71a13.368,13.368,0,0,1-1.406,6.6,13.1,13.1,0,0,1-13.773,7.031,13.121,13.121,0,0,1-10.783-10.652,11.262,11.262,0,0,1-.179-2.81c.038-.521-.116-.651-.641-.649-5.274.021-10.548.013-15.822.013q-9.991,0-19.982,0a5.961,5.961,0,0,1-6.353-6.363q0-23.358,0-46.715a5.957,5.957,0,0,1,6.376-6.339Q158.318-495.2,173.583-495.2Zm32.03,56.773a3.524,3.524,0,0,0,2.376-3.6q0-23.394,0-46.788c0-2.61-1.417-4.012-4.053-4.012H143.1c-2.633,0-4.046,1.4-4.046,4.018q0,23.32,0,46.639c0,2.579,1.419,4.006,3.985,4.006h35.506c.97,0,.99-.006.727-.966a21.205,21.205,0,0,0-1.731-3.764,3.138,3.138,0,0,1,.157-3.5,3.244,3.244,0,0,1,3.365-1.222,7.42,7.42,0,0,1,3.156,1.36v-.863q0-5.459,0-10.917a5.142,5.142,0,0,1,.057-.961,3.58,3.58,0,0,1,3.81-2.927,3.568,3.568,0,0,1,3.256,3.53c.024,2.253,0,4.505.011,6.758,0,.247-.163.642.4.509a3.38,3.38,0,0,1,3.565,1.26.393.393,0,0,0,.549.144,3.407,3.407,0,0,1,4.2,1.036c.166.191.28.29.546.151a3.592,3.592,0,0,1,5.015,3.659C205.537-442.752,205.613-440.626,205.613-438.428Zm-16.64-10q0-2.933,0-5.866c0-1.337.013-2.674-.007-4.01a1.175,1.175,0,0,0-1.19-1.247,1.2,1.2,0,0,0-1.178,1.264c-.009.2,0,.4,0,.594q0,8.873,0,17.747c0,1.839,0,1.822-1.866,1.793-.438-.007-.53-.149-.519-.55.026-.915.031-1.832,0-2.747a4.033,4.033,0,0,0-3.658-3.834c-.939-.072-1.3.433-.9,1.27.31.645.624,1.29.968,1.918a10,10,0,0,1,1.237,5.2,21.832,21.832,0,0,0,.095,3.78,10.707,10.707,0,0,0,11.362,9.193,10.732,10.732,0,0,0,9.919-10.67c.018-3.465.005-6.93,0-10.4,0-.941-.437-1.482-1.178-1.488s-1.194.536-1.2,1.468c-.005,1.708,0,3.416,0,5.124,0,1.745,0,1.726-1.777,1.734-.481,0-.617-.12-.612-.609.026-2.475.015-4.95.01-7.425,0-.937-.443-1.479-1.185-1.481s-1.187.54-1.189,1.476c0,2.079,0,4.158,0,6.237,0,1.814,0,1.794-1.784,1.8-.494,0-.608-.141-.6-.616.022-2.871.013-5.742.01-8.614,0-.936-.447-1.477-1.192-1.474s-1.181.545-1.182,1.483q-.006,3.713,0,7.425c0,1.81,0,1.787-1.79,1.8-.507,0-.6-.16-.6-.624C188.982-441.988,188.973-445.205,188.973-448.423Z" transform="translate(-136.675 495.201)" fill="#010101"/>
      <path id="Trazado_127452" data-name="Trazado 127452" d="M211.223-432.819c0-2.2-.076-4.324.018-6.443a3.592,3.592,0,0,0-5.015-3.659c-.266.139-.38.041-.546-.151a3.407,3.407,0,0,0-4.2-1.036.393.393,0,0,1-.549-.144,3.38,3.38,0,0,0-3.565-1.26c-.566.133-.4-.262-.4-.509-.009-2.253.012-4.505-.011-6.758a3.568,3.568,0,0,0-3.256-3.53,3.58,3.58,0,0,0-3.81,2.927,5.143,5.143,0,0,0-.057.961q-.005,5.458,0,10.917v.863a7.42,7.42,0,0,0-3.156-1.36,3.244,3.244,0,0,0-3.365,1.222,3.138,3.138,0,0,0-.157,3.5,21.2,21.2,0,0,1,1.731,3.764c.263.96.243.966-.727.966H148.648c-2.566,0-3.985-1.426-3.985-4.006q0-23.32,0-46.639c0-2.615,1.413-4.018,4.046-4.018h60.836c2.636,0,4.053,1.4,4.053,4.012q0,23.394,0,46.788A3.524,3.524,0,0,1,211.223-432.819Zm-43.96-23.5q8.728,0,17.456,0a2.426,2.426,0,0,0,2.731-2.748q0-11.512,0-23.023a2.423,2.423,0,0,0-2.73-2.748H149.808a2.445,2.445,0,0,0-2.767,2.784q0,11.474,0,22.949c0,1.879.9,2.786,2.766,2.786Q158.535-456.317,167.264-456.318Zm27.319-20.035v-6.9c0-1.587,0-1.556-1.623-1.6-.615-.016-.773.14-.77.763.028,5.1.01,10.193.024,15.289a1.094,1.094,0,0,1-.624,1.152,3.382,3.382,0,0,0-.4,5.711,2.16,2.16,0,0,1,1.016,2.293c-.013.147.013.3,0,.445-.043.366.064.506.476.519,1.9.061,1.922.076,1.891-1.835a1.034,1.034,0,0,1,.611-1.082,3.49,3.49,0,0,0-.086-6.127.859.859,0,0,1-.52-.909C194.593-471.207,194.583-473.78,194.583-476.353Zm4.754,10.373v5.567c0,1.731,0,1.7,1.711,1.735.574.011.682-.163.679-.7-.023-4.354-.007-8.708-.021-13.063a.973.973,0,0,1,.578-1.023,3.383,3.383,0,0,0,.541-5.66,2.538,2.538,0,0,1-1.117-2.622c.029-.419,0-.841,0-1.261,0-1.912,0-1.9-1.9-1.842-.4.012-.494.135-.488.511.021,1.261-.01,2.524.017,3.785a.905.905,0,0,1-.552.967,3.31,3.31,0,0,0-1.824,3.091,3.341,3.341,0,0,0,1.866,3.067.81.81,0,0,1,.509.843C199.327-470.384,199.338-468.182,199.338-465.98Zm7.131-11.621c0,2.227-.009,4.453.008,6.68a.751.751,0,0,1-.468.792,3.347,3.347,0,0,0-1.906,3.118,3.334,3.334,0,0,0,1.911,3.113.74.74,0,0,1,.462.8c-.025.865-.008,1.732-.008,2.6,0,1.862,0,1.849,1.843,1.82.408-.007.552-.1.544-.531-.027-1.286.006-2.573-.019-3.859a.8.8,0,0,1,.508-.842,3.342,3.342,0,0,0,1.867-3.068,3.329,3.329,0,0,0-1.883-3.131.8.8,0,0,1-.489-.853q.017-6.086.007-12.172c0-1.713,0-1.692-1.732-1.711-.511-.005-.667.114-.659.645C206.488-482,206.469-479.8,206.469-477.6Zm-54.66,33.166a4.765,4.765,0,0,0-4.768,4.756,4.77,4.77,0,0,0,4.7,4.75,4.768,4.768,0,0,0,4.806-4.72A4.763,4.763,0,0,0,151.809-444.434Zm7.117,4.716a4.769,4.769,0,0,0,4.736,4.79,4.77,4.77,0,0,0,4.771-4.681,4.765,4.765,0,0,0-4.7-4.826A4.766,4.766,0,0,0,158.927-439.718Zm21.393.07a4.763,4.763,0,0,0-4.739-4.786,4.767,4.767,0,0,0-4.768,4.682,4.771,4.771,0,0,0,4.7,4.825A4.768,4.768,0,0,0,180.319-439.648Zm-26.149-10.741a3.581,3.581,0,0,0-3.54-3.552,3.581,3.581,0,0,0-3.59,3.576,3.584,3.584,0,0,0,3.54,3.553A3.584,3.584,0,0,0,154.171-450.389Zm5.93,3.577a3.585,3.585,0,0,0,3.579-3.515,3.58,3.58,0,0,0-3.551-3.614,3.582,3.582,0,0,0-3.578,3.513A3.583,3.583,0,0,0,160.1-446.812Zm13.087-3.5a3.583,3.583,0,0,0-3.463-3.628,3.582,3.582,0,0,0-3.667,3.5,3.583,3.583,0,0,0,3.537,3.63A3.586,3.586,0,0,0,173.188-450.312Zm9.508-.03a3.583,3.583,0,0,0-3.493-3.6,3.582,3.582,0,0,0-3.637,3.529,3.583,3.583,0,0,0,3.567,3.6A3.584,3.584,0,0,0,182.7-450.342Z" transform="translate(-142.286 489.592)" fill="#aab1bb"/>
      <path id="Trazado_127453" data-name="Trazado 127453" d="M289.989-364.3c0,3.218.009,6.436-.01,9.653,0,.464.09.627.6.624,1.79-.01,1.79.013,1.79-1.8q0-3.713,0-7.425c0-.938.441-1.479,1.182-1.483s1.19.538,1.192,1.474c0,2.871.012,5.743-.01,8.614,0,.476.11.619.6.616,1.784-.009,1.784.012,1.784-1.8q0-3.119,0-6.237c0-.936.446-1.477,1.189-1.476s1.183.544,1.185,1.481c0,2.475.015,4.95-.01,7.425-.005.489.131.611.612.609,1.777-.008,1.777.011,1.777-1.734,0-1.708,0-3.416,0-5.124,0-.932.452-1.475,1.2-1.468s1.177.548,1.178,1.488c0,3.465.015,6.93,0,10.4a10.732,10.732,0,0,1-9.919,10.67,10.707,10.707,0,0,1-11.362-9.193,21.828,21.828,0,0,1-.095-3.78,10,10,0,0,0-1.237-5.2c-.344-.628-.658-1.273-.968-1.918-.4-.837-.04-1.342.9-1.27a4.033,4.033,0,0,1,3.658,3.834c.033.915.027,1.832,0,2.747-.011.4.081.543.519.55,1.867.029,1.866.046,1.866-1.793q0-8.873,0-17.747c0-.2-.007-.4,0-.594a1.2,1.2,0,0,1,1.178-1.264,1.175,1.175,0,0,1,1.19,1.247c.021,1.336.007,2.673.007,4.01Q289.99-367.228,289.989-364.3Z" transform="translate(-237.691 411.073)" fill="#e9d0b6"/>
      <path id="Trazado_127454" data-name="Trazado 127454" d="M172.872-450.711q-8.728,0-17.457,0c-1.866,0-2.766-.907-2.766-2.786q0-11.475,0-22.949a2.445,2.445,0,0,1,2.767-2.784H190.33a2.423,2.423,0,0,1,2.73,2.748q0,11.512,0,23.023a2.426,2.426,0,0,1-2.731,2.748Q181.6-450.709,172.872-450.711Zm0-26.143c-5.694,0-11.389.01-17.083-.014-.6,0-.784.109-.778.75.035,3.737.017,7.475.017,11.213,0,1.109,0,1.109,1.115,1.124a3.571,3.571,0,0,1,3.638,3.607c.007.421-.03.846.017,1.261a1.17,1.17,0,0,0,1.836.858,1.409,1.409,0,0,0,.529-1.309q-.012-5.643,0-11.287a3.594,3.594,0,0,1,3.568-3.824,3.594,3.594,0,0,1,3.561,3.832c0,2.228,0,4.455,0,6.683a1.208,1.208,0,0,0,1.153,1.362c.719.021,1.21-.519,1.219-1.372.011-1.064,0-2.129,0-3.193a3.586,3.586,0,0,1,3.571-3.747,3.586,3.586,0,0,1,3.558,3.76c.007,1.807,0,3.614,0,5.421,0,.951.42,1.489,1.158,1.508.761.02,1.216-.543,1.217-1.524q0-4.419,0-8.837a5.117,5.117,0,0,1,.058-.961,3.58,3.58,0,0,1,3.811-2.924,3.563,3.563,0,0,1,3.253,3.531c.023,3.02.005,6.04.009,9.059a3.028,3.028,0,0,0,.06.808c.2.708.915,1.024,1.988.841.662-.113.308-.679.309-1.01.026-4.926.006-9.852.032-14.777,0-.639-.109-.862-.819-.858C184.208-476.839,178.539-476.854,172.869-476.854Zm-.062,23.767c5.743,0,11.487-.007,17.23.012.505,0,.682-.1.66-.639-.045-1.137-.048-2.278,0-3.414.025-.583-.142-.732-.724-.727-2.666.024-4.044-1.389-4.044-4.079,0-2.921,0-5.841,0-8.762,0-.973-.69-1.6-1.482-1.361a1.252,1.252,0,0,0-.9,1.369q.016,4.567,0,9.133a3.582,3.582,0,0,1-3.531,3.713,3.582,3.582,0,0,1-3.6-3.722c-.008-1.857,0-3.713,0-5.569,0-.871-.47-1.4-1.192-1.4s-1.174.536-1.18,1.41c-.008,1.114.012,2.228-.006,3.341a3.574,3.574,0,0,1-3.534,3.561,3.568,3.568,0,0,1-3.59-3.578c-.018-1.361,0-2.722,0-4.084,0-.99.015-1.98-.007-2.97a1.178,1.178,0,0,0-1.192-1.246,1.2,1.2,0,0,0-1.176,1.265c-.009.2,0,.4,0,.594,0,3.737.019,7.475-.008,11.212a3.557,3.557,0,0,1-4.628,3.4c-1.639-.51-2.494-1.884-2.5-4.01,0-1.428-.341-1.739-1.721-1.784-.591-.019-.675.185-.669.707.028,2.277.035,4.555,0,6.831-.011.625.108.82.789.816C161.468-453.1,167.137-453.088,172.807-453.088Z" transform="translate(-147.894 483.985)" fill="#000101"/>
      <path id="Trazado_127455" data-name="Trazado 127455" d="M301.086-470.786c0,2.573.01,5.146-.009,7.719a.859.859,0,0,0,.52.908,3.49,3.49,0,0,1,.086,6.127,1.034,1.034,0,0,0-.611,1.082c.031,1.911.012,1.9-1.891,1.835-.411-.013-.519-.154-.476-.519.017-.146-.008-.3,0-.445a2.16,2.16,0,0,0-1.016-2.293,3.382,3.382,0,0,1,.4-5.711,1.094,1.094,0,0,0,.624-1.152c-.013-5.1,0-10.193-.024-15.289,0-.623.154-.779.769-.763,1.623.044,1.623.012,1.623,1.6Zm-1.2,12.9a1.2,1.2,0,0,0,1.2-1.16,1.2,1.2,0,0,0-1.141-1.214,1.2,1.2,0,0,0-1.233,1.2A1.2,1.2,0,0,0,299.888-457.883Z" transform="translate(-248.788 484.025)" fill="#010101"/>
      <path id="Trazado_127456" data-name="Trazado 127456" d="M322.756-460.437c0-2.2-.011-4.4.009-6.605a.81.81,0,0,0-.509-.843,3.34,3.34,0,0,1-1.866-3.067,3.31,3.31,0,0,1,1.824-3.091.905.905,0,0,0,.552-.967c-.028-1.261,0-2.524-.017-3.785-.006-.377.086-.5.488-.511,1.9-.056,1.9-.07,1.9,1.842,0,.421.024.843,0,1.261a2.538,2.538,0,0,0,1.117,2.622,3.383,3.383,0,0,1-.541,5.66.973.973,0,0,0-.578,1.023c.014,4.354,0,8.709.021,13.063,0,.538-.1.712-.679.7-1.71-.032-1.711,0-1.711-1.735Zm1.183-9.353a1.2,1.2,0,0,0,1.192-1.164,1.2,1.2,0,0,0-1.145-1.21,1.2,1.2,0,0,0-1.229,1.2A1.2,1.2,0,0,0,323.939-469.79Z" transform="translate(-265.704 484.049)" fill="#010101"/>
      <path id="Trazado_127457" data-name="Trazado 127457" d="M346.717-472.025c0-2.2.018-4.4-.013-6.605-.008-.532.148-.651.659-.645,1.732.019,1.732,0,1.732,1.711q0,6.086-.007,12.172a.8.8,0,0,0,.489.853,3.329,3.329,0,0,1,1.883,3.131,3.342,3.342,0,0,1-1.867,3.068.8.8,0,0,0-.508.842c.025,1.286-.008,2.573.019,3.859.009.43-.135.524-.544.531-1.844.029-1.843.042-1.843-1.82,0-.866-.017-1.732.008-2.6a.74.74,0,0,0-.462-.8,3.334,3.334,0,0,1-1.911-3.113,3.347,3.347,0,0,1,1.906-3.118.751.751,0,0,0,.468-.792C346.708-467.572,346.717-469.8,346.717-472.025Zm1.154,11.774a1.2,1.2,0,0,0,1.222-1.135,1.2,1.2,0,0,0-1.116-1.239,1.2,1.2,0,0,0-1.258,1.17A1.2,1.2,0,0,0,347.87-460.25Z" transform="translate(-282.533 484.016)" fill="#010101"/>
      <path id="Trazado_127458" data-name="Trazado 127458" d="M157.419-343.5a4.763,4.763,0,0,1,4.739,4.786,4.768,4.768,0,0,1-4.805,4.72,4.77,4.77,0,0,1-4.7-4.75A4.765,4.765,0,0,1,157.419-343.5Zm-.017,7.129a2.4,2.4,0,0,0,2.379-2.338,2.4,2.4,0,0,0-2.375-2.415,2.389,2.389,0,0,0-2.378,2.337A2.4,2.4,0,0,0,157.4-336.366Z" transform="translate(-147.896 388.653)" fill="#020202"/>
      <path id="Trazado_127459" data-name="Trazado 127459" d="M192.58-338.779a4.766,4.766,0,0,1,4.808-4.716,4.765,4.765,0,0,1,4.7,4.825,4.77,4.77,0,0,1-4.771,4.681A4.769,4.769,0,0,1,192.58-338.779Zm7.13.038a2.4,2.4,0,0,0-2.338-2.377,2.387,2.387,0,0,0-2.414,2.374,2.4,2.4,0,0,0,2.337,2.379A2.4,2.4,0,0,0,199.71-338.741Z" transform="translate(-175.939 388.653)" fill="#020202"/>
      <path id="Trazado_127460" data-name="Trazado 127460" d="M242.016-338.709a4.768,4.768,0,0,1-4.806,4.72,4.771,4.771,0,0,1-4.7-4.825,4.767,4.767,0,0,1,4.768-4.682A4.763,4.763,0,0,1,242.016-338.709Zm-2.377,0a2.4,2.4,0,0,0-2.308-2.406,2.388,2.388,0,0,0-2.444,2.344,2.4,2.4,0,0,0,2.307,2.408A2.4,2.4,0,0,0,239.639-338.712Z" transform="translate(-203.983 388.653)" fill="#020202"/>
      <path id="Trazado_127461" data-name="Trazado 127461" d="M159.781-371.88a3.584,3.584,0,0,1-3.59,3.577,3.584,3.584,0,0,1-3.54-3.553,3.581,3.581,0,0,1,3.59-3.576A3.58,3.58,0,0,1,159.781-371.88Zm-3.577,1.2a1.2,1.2,0,0,0,1.2-1.156,1.2,1.2,0,0,0-1.137-1.216,1.2,1.2,0,0,0-1.235,1.193A1.2,1.2,0,0,0,156.2-370.681Z" transform="translate(-147.896 411.083)" fill="#020202"/>
      <path id="Trazado_127462" data-name="Trazado 127462" d="M188.146-368.3a3.583,3.583,0,0,1-3.551-3.616,3.582,3.582,0,0,1,3.578-3.513,3.58,3.58,0,0,1,3.551,3.614A3.585,3.585,0,0,1,188.146-368.3Zm1.2-3.548a1.2,1.2,0,0,0-1.151-1.2,1.2,1.2,0,0,0-1.221,1.133,1.2,1.2,0,0,0,1.188,1.239A1.2,1.2,0,0,0,189.345-371.851Z" transform="translate(-170.33 411.083)" fill="#020202"/>
      <path id="Trazado_127463" data-name="Trazado 127463" d="M223.668-371.8a3.586,3.586,0,0,1-3.593,3.5,3.583,3.583,0,0,1-3.537-3.63,3.582,3.582,0,0,1,3.667-3.5A3.583,3.583,0,0,1,223.668-371.8Zm-2.379-.094a1.2,1.2,0,0,0-1.2-1.156,1.2,1.2,0,0,0-1.174,1.253,1.2,1.2,0,0,0,1.234,1.12A1.2,1.2,0,0,0,221.289-371.9Z" transform="translate(-192.765 411.083)" fill="#020202"/>
      <path id="Trazado_127464" data-name="Trazado 127464" d="M255.611-371.834a3.584,3.584,0,0,1-3.562,3.531,3.583,3.583,0,0,1-3.567-3.6,3.582,3.582,0,0,1,3.637-3.529A3.582,3.582,0,0,1,255.611-371.834Zm-3.57,1.152a1.2,1.2,0,0,0,1.191-1.163,1.2,1.2,0,0,0-1.144-1.209,1.2,1.2,0,0,0-1.228,1.2A1.2,1.2,0,0,0,252.042-370.682Z" transform="translate(-215.201 411.084)" fill="#020202"/>
      <path id="Trazado_127465" data-name="Trazado 127465" d="M178.437-471.291c5.669,0,11.339.015,17.008-.019.711,0,.823.219.819.858-.025,4.926-.006,9.852-.032,14.777,0,.331.353.9-.309,1.01-1.072.183-1.787-.133-1.988-.841a3.026,3.026,0,0,1-.06-.808c0-3.02.013-6.04-.009-9.06a3.563,3.563,0,0,0-3.253-3.531,3.58,3.58,0,0,0-3.811,2.924,5.113,5.113,0,0,0-.058.961q-.006,4.418,0,8.837c0,.981-.456,1.544-1.217,1.524-.738-.019-1.156-.557-1.158-1.508,0-1.807,0-3.614,0-5.421a3.586,3.586,0,0,0-3.558-3.76,3.586,3.586,0,0,0-3.571,3.747c-.005,1.064.007,2.129,0,3.193-.009.853-.5,1.393-1.219,1.372a1.208,1.208,0,0,1-1.153-1.362c-.009-2.228,0-4.455,0-6.683a3.594,3.594,0,0,0-3.561-3.832,3.594,3.594,0,0,0-3.568,3.824q-.006,5.644,0,11.287a1.409,1.409,0,0,1-.529,1.309,1.17,1.17,0,0,1-1.836-.858c-.048-.416-.01-.841-.017-1.261a3.571,3.571,0,0,0-3.638-3.607c-1.115-.015-1.115-.015-1.115-1.124,0-3.738.018-7.476-.017-11.213-.006-.641.182-.752.778-.75C167.049-471.282,172.743-471.291,178.437-471.291Z" transform="translate(-153.462 478.422)" fill="#83d2ee"/>
      <path id="Trazado_127466" data-name="Trazado 127466" d="M178.378-436.284c-5.669,0-11.339-.014-17.007.019-.68,0-.8-.191-.789-.816.039-2.277.031-4.554,0-6.831-.007-.522.077-.727.669-.707,1.38.045,1.72.356,1.721,1.785,0,2.127.856,3.5,2.5,4.01a3.557,3.557,0,0,0,4.628-3.4c.027-3.737.007-7.475.008-11.212,0-.2-.007-.4,0-.594a1.2,1.2,0,0,1,1.176-1.265,1.178,1.178,0,0,1,1.192,1.246c.022.989.006,1.98.007,2.97,0,1.362-.014,2.723,0,4.084a3.568,3.568,0,0,0,3.59,3.578,3.574,3.574,0,0,0,3.534-3.561c.018-1.114,0-2.228.006-3.341.007-.875.46-1.406,1.18-1.41s1.189.527,1.192,1.4c.008,1.856,0,3.712,0,5.569a3.582,3.582,0,0,0,3.6,3.722,3.582,3.582,0,0,0,3.531-3.713q.014-4.567,0-9.133a1.252,1.252,0,0,1,.9-1.369c.792-.243,1.48.388,1.482,1.361.008,2.921,0,5.841,0,8.762,0,2.69,1.378,4.1,4.044,4.079.583-.005.749.144.724.727-.049,1.137-.046,2.278,0,3.415.021.538-.155.641-.66.639C189.865-436.291,184.122-436.284,178.378-436.284Z" transform="translate(-153.466 467.182)" fill="#83d2ee"/>
      <path id="Trazado_127467" data-name="Trazado 127467" d="M305.565-412.98a1.2,1.2,0,0,1-1.178-1.178,1.2,1.2,0,0,1,1.233-1.2,1.2,1.2,0,0,1,1.141,1.214A1.2,1.2,0,0,1,305.565-412.98Z" transform="translate(-254.465 439.122)" fill="#eacc79"/>
      <path id="Trazado_127468" data-name="Trazado 127468" d="M329.526-452.9a1.2,1.2,0,0,1-1.181-1.174,1.2,1.2,0,0,1,1.229-1.2,1.2,1.2,0,0,1,1.145,1.21A1.2,1.2,0,0,1,329.526-452.9Z" transform="translate(-271.291 467.161)" fill="#eacc79"/>
      <path id="Trazado_127469" data-name="Trazado 127469" d="M353.454-420.966a1.2,1.2,0,0,1-1.153-1.2,1.2,1.2,0,0,1,1.258-1.17,1.2,1.2,0,0,1,1.116,1.239A1.2,1.2,0,0,1,353.454-420.966Z" transform="translate(-288.117 444.732)" fill="#eacc79"/>
      <path id="Trazado_127470" data-name="Trazado 127470" d="M163.01-330.758a2.4,2.4,0,0,1-2.374-2.416,2.389,2.389,0,0,1,2.378-2.337,2.4,2.4,0,0,1,2.375,2.415A2.4,2.4,0,0,1,163.01-330.758Z" transform="translate(-153.504 383.045)" fill="#f0d27c"/>
      <path id="Trazado_127471" data-name="Trazado 127471" d="M205.32-333.133a2.4,2.4,0,0,1-2.415,2.375,2.4,2.4,0,0,1-2.337-2.379,2.387,2.387,0,0,1,2.414-2.374A2.4,2.4,0,0,1,205.32-333.133Z" transform="translate(-181.549 383.045)" fill="#f0d27c"/>
      <path id="Trazado_127472" data-name="Trazado 127472" d="M245.249-333.1a2.4,2.4,0,0,1-2.445,2.346,2.4,2.4,0,0,1-2.307-2.408,2.388,2.388,0,0,1,2.444-2.344A2.4,2.4,0,0,1,245.249-333.1Z" transform="translate(-209.592 383.046)" fill="#f0d27c"/>
      <path id="Trazado_127473" data-name="Trazado 127473" d="M161.817-365.072a1.2,1.2,0,0,1-1.174-1.18,1.2,1.2,0,0,1,1.235-1.193,1.2,1.2,0,0,1,1.137,1.216A1.2,1.2,0,0,1,161.817-365.072Z" transform="translate(-153.509 405.474)" fill="#e3816e"/>
      <path id="Trazado_127474" data-name="Trazado 127474" d="M194.956-366.241a1.2,1.2,0,0,1-1.184,1.17,1.2,1.2,0,0,1-1.188-1.239,1.2,1.2,0,0,1,1.221-1.133A1.2,1.2,0,0,1,194.956-366.241Z" transform="translate(-175.941 405.473)" fill="#e3816e"/>
      <path id="Trazado_127475" data-name="Trazado 127475" d="M226.9-366.286a1.2,1.2,0,0,1-1.138,1.216,1.2,1.2,0,0,1-1.234-1.12,1.2,1.2,0,0,1,1.174-1.253A1.2,1.2,0,0,1,226.9-366.286Z" transform="translate(-198.376 405.472)" fill="#e3816e"/>
      <path id="Trazado_127476" data-name="Trazado 127476" d="M257.655-365.071a1.2,1.2,0,0,1-1.181-1.173,1.2,1.2,0,0,1,1.228-1.2,1.2,1.2,0,0,1,1.144,1.209A1.2,1.2,0,0,1,257.655-365.071Z" transform="translate(-220.814 405.473)" fill="#e3816e"/>
    </g>
  </g>
</svg>
