<svg xmlns="http://www.w3.org/2000/svg" xmlns:xlink="http://www.w3.org/1999/xlink" width="85" height="85" viewBox="0 0 85 85">
  <defs>
    <clipPath id="clip-path">
      <rect id="Rectángulo_34037" data-name="Rectángulo 34037" width="85" height="85" transform="translate(915 14109)" fill="#2ff980" stroke="#707070" stroke-width="1"/>
    </clipPath>
  </defs>
  <g id="Grupo_82" data-name="Grupo 82" transform="translate(-915 -14109)" clip-path="url(#clip-path)">
    <g id="Grupo_85846" data-name="Grupo 85846" transform="translate(919.459 14113.455)">
      <path id="Trazado_127477" data-name="Trazado 127477" d="M515.95-495.915c-.517-1.189-.349-1.729.748-2.4a28.252,28.252,0,0,1,42.194,17.813,28.193,28.193,0,0,1-22.242,34,27.472,27.472,0,0,1-21.192-4.452c-.542-.366-.825-.331-1.18.14a4.9,4.9,0,0,1-.521.528c-.808.788-1.656,1.4-1.141,2.891a3.627,3.627,0,0,1-1.244,3.688q-7.982,7.982-15.97,15.958a4.4,4.4,0,0,1-6.38.028q-2.106-2.041-4.149-4.148a4.4,4.4,0,0,1,.04-6.377q7.968-8,15.964-15.965a4.362,4.362,0,0,1,4.647-1.1.68.68,0,0,0,.833-.183c.594-.63,1.209-1.242,1.839-1.836.259-.244.3-.41.08-.725a27.4,27.4,0,0,1-4.9-12.649,27.8,27.8,0,0,1,4.062-18.451c.53-.857,1.155-.971,2.245-.5.7.919.709,1.314.06,2.409a24.754,24.754,0,0,0-3.122,17.987,25.273,25.273,0,0,0,30.239,19.685A25.3,25.3,0,0,0,555-483.183a25.268,25.268,0,0,0-36.7-12.634A1.653,1.653,0,0,1,515.95-495.915Zm-11.895,43.355a1.443,1.443,0,0,0-1.128.486q-7.926,7.926-15.851,15.854a1.473,1.473,0,0,0,.005,2.338q1.956,1.981,3.938,3.936a1.477,1.477,0,0,0,2.34.037q7.938-7.914,15.855-15.85a1.494,1.494,0,0,0,0-2.295c-1.318-1.341-2.658-2.661-3.985-3.993A1.467,1.467,0,0,0,504.055-452.561Zm6.352,1.369a2.4,2.4,0,0,0,.232-.181c.525-.521,1.041-1.053,1.575-1.565.235-.225.194-.378-.007-.611-1.7-1.968-1.694-1.972-3.487-.126l-.258.265a.238.238,0,0,0,.015.382c.577.574,1.151,1.151,1.73,1.723A.921.921,0,0,0,510.407-451.192Z" transform="translate(-483.522 502.461)" fill="#020202"/>
      <path id="Trazado_127478" data-name="Trazado 127478" d="M569.237-488.853a1.653,1.653,0,0,0,2.347.1,25.268,25.268,0,0,1,36.7,12.634,25.3,25.3,0,0,1-18.135,33.609A25.273,25.273,0,0,1,559.912-462.2a24.754,24.754,0,0,1,3.122-17.987c.649-1.094.645-1.49-.06-2.409a4.743,4.743,0,0,1,1.095-1.612,3.2,3.2,0,0,0,.573-.84,1.735,1.735,0,0,0,1.357.44c1.209-.233,1.571-1.417.787-2.583.671-.278,1.089-.892,1.688-1.262C568.717-488.6,568.916-488.845,569.237-488.853Zm31.136,35.243a14.728,14.728,0,0,0,1.834-2.363c1.089.343,1.7.135,2.173-.783a21.963,21.963,0,0,0,2.385-13.287A22.271,22.271,0,0,0,581.2-489.16a22.336,22.336,0,0,0-18.334,26.643,22.316,22.316,0,0,0,32.08,15.126,1.556,1.556,0,0,0,.917-2.236,12.742,12.742,0,0,0,2.363-1.836,1.616,1.616,0,0,0,1.638.4C600.927-451.457,601.142-452.512,600.373-453.609Z" transform="translate(-536.81 495.399)" fill="#e2e2e2"/>
      <path id="Trazado_127479" data-name="Trazado 127479" d="M578.345-475.694c.784,1.167.422,2.35-.787,2.583a1.734,1.734,0,0,1-1.357-.44c-.488-.878-.464-1.531.074-2.069S577.468-476.181,578.345-475.694Z" transform="translate(-548.368 483.906)" fill="#060606"/>
      <path id="Trazado_127480" data-name="Trazado 127480" d="M511.086-334.83a1.467,1.467,0,0,1,1.174.513c1.328,1.332,2.667,2.652,3.985,3.993a1.494,1.494,0,0,1,0,2.295q-7.918,7.935-15.855,15.85a1.477,1.477,0,0,1-2.34-.037q-1.98-1.957-3.937-3.936a1.473,1.473,0,0,1-.005-2.338q7.918-7.935,15.851-15.854A1.443,1.443,0,0,1,511.086-334.83Z" transform="translate(-490.554 384.73)" fill="#a36042"/>
      <path id="Trazado_127481" data-name="Trazado 127481" d="M569.039-339.308a.922.922,0,0,1-.2-.112c-.579-.572-1.153-1.15-1.73-1.724a.238.238,0,0,1-.015-.382l.258-.265c1.793-1.846,1.789-1.843,3.487.126.2.233.242.386.007.611-.534.512-1.049,1.044-1.575,1.565A2.4,2.4,0,0,1,569.039-339.308Z" transform="translate(-542.154 390.578)" fill="#7c7c7c"/>
      <path id="Trazado_127482" data-name="Trazado 127482" d="M616.31-442.1a14.718,14.718,0,0,1-1.834,2.363c-.925-.459-1.5-.428-2.038.109s-.569,1.115-.11,2.037a12.745,12.745,0,0,1-2.363,1.836c-.8-.863-1.225-.936-2.353-.366a19.121,19.121,0,0,1-11.512,1.957,19.2,19.2,0,0,1-16.334-22.3c1.385-7.836,6.06-13.121,13.676-15.324,7.7-2.226,14.467-.139,19.838,5.814a19.009,19.009,0,0,1,2.726,21.384C615.378-443.321,615.426-442.92,616.31-442.1Zm-7.136-7.589c0-.778.006-1.347,0-1.916a1.514,1.514,0,0,0-1.484-1.68,1.512,1.512,0,0,0-1.485,1.677c-.01,1.015.042,2.033-.018,3.044a7.157,7.157,0,0,1-4.156,6.379,7.03,7.03,0,0,1-7.516-.593c-2.72-1.887-3.409-4.658-3.14-7.772a1.449,1.449,0,0,1,1.517-1.25,1.473,1.473,0,0,1,1.41,1.369c.04.567,0,1.138.019,1.707a4.466,4.466,0,0,0,4.465,4.345,4.461,4.461,0,0,0,4.44-4.369c.022-.965.014-1.931,0-2.9a1.5,1.5,0,0,0-1.445-1.642,1.5,1.5,0,0,0-1.521,1.64c-.012.916.013,1.832-.008,2.747a1.487,1.487,0,0,1-1.467,1.545,1.489,1.489,0,0,1-1.493-1.519c-.02-.519,0-1.04-.01-1.559a4.478,4.478,0,0,0-4.02-4.328,4.463,4.463,0,0,0-4.773,3.473,9.708,9.708,0,0,0-.1,2.662,10,10,0,0,0,6.2,9.267,9.843,9.843,0,0,0,10.953-1.613A10.148,10.148,0,0,0,609.174-449.688Zm-10.383-18.454a10.43,10.43,0,0,0-10.415,10.127,1.536,1.536,0,0,0,1.408,1.751c.9.047,1.518-.617,1.566-1.676a7.442,7.442,0,0,1,7.443-7.229,7.44,7.44,0,0,1,7.4,7.195c.047,1.08.635,1.737,1.532,1.712s1.456-.717,1.443-1.791A10.428,10.428,0,0,0,598.791-468.142Zm-.016,5.943a4.483,4.483,0,0,0-4.445,4.051,1.558,1.558,0,0,0,1.338,1.881c.862.081,1.487-.51,1.624-1.537a1.5,1.5,0,0,1,1.517-1.42,1.5,1.5,0,0,1,1.446,1.417c.138,1.031.759,1.62,1.622,1.541a1.558,1.558,0,0,0,1.341-1.878A4.481,4.481,0,0,0,598.775-462.2Z" transform="translate(-550.912 481.526)" fill="#a1e8ec"/>
      <path id="Trazado_127483" data-name="Trazado 127483" d="M609.214-448.927c-.884-.82-.932-1.222-.3-2.487a19.008,19.008,0,0,0-2.726-21.384c-5.371-5.953-12.143-8.04-19.838-5.814-7.616,2.2-12.292,7.488-13.676,15.324A19.2,19.2,0,0,0,589-440.991a19.121,19.121,0,0,0,11.512-1.957c1.128-.57,1.552-.5,2.353.366a1.556,1.556,0,0,1-.917,2.236,22.316,22.316,0,0,1-32.08-15.126,22.336,22.336,0,0,1,18.334-26.643A22.271,22.271,0,0,1,613.772-463a21.962,21.962,0,0,1-2.385,13.287C610.912-448.792,610.3-448.584,609.214-448.927Z" transform="translate(-543.816 488.354)" fill="#020303"/>
      <path id="Trazado_127484" data-name="Trazado 127484" d="M689.091-360.682c-.46-.922-.429-1.5.11-2.037s1.113-.567,2.038-.109c.769,1.1.554,2.152-.51,2.549A1.616,1.616,0,0,1,689.091-360.682Z" transform="translate(-627.674 404.617)" fill="#060707"/>
      <path id="Trazado_127485" data-name="Trazado 127485" d="M630.108-407.512a10.147,10.147,0,0,1-3.639,8.72,9.843,9.843,0,0,1-10.953,1.613,10,10,0,0,1-6.2-9.267,9.711,9.711,0,0,1,.1-2.662,4.464,4.464,0,0,1,4.773-3.473,4.478,4.478,0,0,1,4.02,4.328c.015.519-.01,1.04.01,1.559a1.489,1.489,0,0,0,1.493,1.519,1.487,1.487,0,0,0,1.467-1.545c.021-.915,0-1.832.008-2.747a1.5,1.5,0,0,1,1.521-1.64,1.5,1.5,0,0,1,1.445,1.643c.011.965.019,1.931,0,2.9a4.461,4.461,0,0,1-4.44,4.369,4.466,4.466,0,0,1-4.465-4.345c-.015-.569.022-1.141-.019-1.707a1.473,1.473,0,0,0-1.41-1.369,1.449,1.449,0,0,0-1.517,1.25c-.269,3.114.42,5.885,3.14,7.772a7.03,7.03,0,0,0,7.516.593,7.157,7.157,0,0,0,4.156-6.379c.06-1.011.008-2.029.018-3.044a1.512,1.512,0,0,1,1.485-1.677,1.514,1.514,0,0,1,1.484,1.68C630.114-408.859,630.108-408.29,630.108-407.512Z" transform="translate(-571.846 439.35)" fill="#020202"/>
      <path id="Trazado_127486" data-name="Trazado 127486" d="M619.8-457.5a10.428,10.428,0,0,1,10.379,10.088c.013,1.075-.544,1.767-1.443,1.791s-1.484-.632-1.532-1.712a7.44,7.44,0,0,0-7.4-7.195,7.442,7.442,0,0,0-7.443,7.229c-.048,1.059-.668,1.723-1.566,1.676a1.536,1.536,0,0,1-1.408-1.751A10.43,10.43,0,0,1,619.8-457.5Z" transform="translate(-571.918 470.882)" fill="#020303"/>
      <path id="Trazado_127487" data-name="Trazado 127487" d="M633.8-437.532a4.481,4.481,0,0,1,4.443,4.054,1.558,1.558,0,0,1-1.341,1.878c-.863.079-1.483-.51-1.622-1.541a1.5,1.5,0,0,0-1.446-1.417,1.5,1.5,0,0,0-1.517,1.42c-.138,1.028-.762,1.619-1.624,1.537a1.558,1.558,0,0,1-1.338-1.881A4.484,4.484,0,0,1,633.8-437.532Z" transform="translate(-585.942 456.859)" fill="#020404"/>
    </g>
  </g>
</svg>
