<svg xmlns="http://www.w3.org/2000/svg" xmlns:xlink="http://www.w3.org/1999/xlink" width="96" height="96" viewBox="0 0 96 96">
  <defs>
    <clipPath id="clip-path">
      <rect id="Rectángulo_34520" data-name="Rectángulo 34520" width="96" height="96" fill="#fff" stroke="#707070" stroke-width="1"/>
    </clipPath>
  </defs>
  <g id="Grupo_85649" data-name="Grupo 85649" clip-path="url(#clip-path)">
    <g id="Grupo_85841" data-name="Grupo 85841" transform="translate(-205.747 -96.107)">
      <path id="Trazado_127397" data-name="Trazado 127397" d="M299.324,141.154q0,11.492,0,22.983c0,4.834-3.081,7.907-7.925,7.908-6.374,0-12.749.014-19.123-.018-.732,0-.882.177-.721.858a8.722,8.722,0,0,0,2.7,4.591,1.74,1.74,0,0,0,1.228.466,25.971,25.971,0,0,1,4.767.155,7.384,7.384,0,0,1,5.82,6.623,4.441,4.441,0,0,1-4.619,4.974q-17.79.011-35.579,0c-2.543,0-5.1-.134-7.628.034-3.094.206-6-2.243-4.867-6.35a7.4,7.4,0,0,1,6.937-5.445c1.133-.025,2.268-.028,3.4,0a1.65,1.65,0,0,0,1.235-.445,8.807,8.807,0,0,0,2.688-4.5c.179-.7.093-.979-.769-.973-6.374.042-12.748.025-19.122.022-4.769,0-7.854-3.1-7.855-7.885q0-11.629.014-23.259a1.283,1.283,0,0,0-.743-1.277c-6.282-3.8-10.078-9.31-10.857-16.649a22,22,0,0,1,40.83-13.63,1.605,1.605,0,0,0,1.633.938q20.318-.041,40.636-.019c4.848,0,7.923,3.069,7.924,7.907Q299.327,129.662,299.324,141.154ZM259.6,157.335q14.984,0,29.968.019c.758,0,.951-.17.949-.941q-.041-18.2,0-36.4c0-.773-.194-.941-.95-.94-11.675.026-23.349.015-35.024.026-.757,0-1.758-.337-2.2.15-.368.406-.041,1.4-.127,2.117-.078.649.22.682.723.674,1.5-.024,3,.021,4.5-.023.577-.017.711.153.706.714q-.04,5.194,0,10.387c.006.593-.183.7-.725.694-2.911-.026-5.822.009-8.733-.028a1.669,1.669,0,0,0-1.457.691,21.624,21.624,0,0,1-17.706,8.114c-.738-.012-.833.2-.829.85.027,4.321.034,8.641,0,12.961-.007.749.155.957.935.955C239.62,157.324,249.61,157.335,259.6,157.335Zm-8.61-44.129a14.294,14.294,0,0,1,.557,1.967c.116.863.551,1,1.348.994q18.525-.042,37.05-.019c2.391,0,3.495,1.094,3.495,3.469q0,18.571,0,37.141c0,2.437-1.089,3.52-3.537,3.52H229.316c-2.458,0-3.544-1.076-3.544-3.512q0-6.9-.009-13.79c0-.319.205-.752-.363-.89-.847-.206-1.683-.456-2.57-.7v.892q0,10.986,0,21.972c0,3.052,1.8,4.854,4.851,4.854q31.9,0,63.8,0c3.115,0,4.894-1.783,4.894-4.9q0-23.029,0-46.059c0-3.175-1.768-4.933-4.956-4.933H250.989Zm-10.51,7.368a10.295,10.295,0,1,0-10.287,10.281A10.324,10.324,0,0,0,240.479,120.574Zm-10.4,19.162c.861-.077,1.626-.116,2.383-.217A18.935,18.935,0,0,0,246.9,129.8c.267-.454.225-.656-.295-.855-1.369-.525-2.729-1.08-4.062-1.691-.592-.271-.85-.184-1.211.384a13.206,13.206,0,1,1-21.887-14.761c.311-.442.325-.68-.076-1.058-1.025-.966-2.036-1.953-2.984-2.993-.541-.594-.828-.646-1.338.06-4.541,6.283-5.4,13.032-2.025,19.994C216.442,135.921,222.4,139.347,230.078,139.735Zm29.531,47.019q10.846,0,21.692,0c1.4,0,2.021-.742,1.8-2.109a4.4,4.4,0,0,0-4.334-3.763q-19.164-.024-38.329,0a4.351,4.351,0,0,0-4.241,3.415c-.413,1.673.192,2.459,1.9,2.46Q248.855,186.756,259.609,186.755Zm11.046-8.847a10.768,10.768,0,0,1-2.043-5.071c-.072-.7-.367-.807-.992-.8-5.056.024-10.113.014-15.169.014-1.607,0-1.628,0-1.966,1.576a13.194,13.194,0,0,1-1.888,4.286Zm-41.963-73.435h.023c0-.735-.043-1.473.013-2.2.05-.651-.2-.748-.783-.678a19.136,19.136,0,0,0-9.688,4.041c-.446.349-.392.549-.023.9q1.654,1.591,3.245,3.247c.355.371.6.363.989.062a13.733,13.733,0,0,1,3.735-1.917c.816-.3,2.038-.04,2.406-.747S228.691,105.39,228.691,104.472Zm21.022,26.385c1.735,0,3.351-.011,4.967.008.4,0,.529-.13.519-.526-.023-.916-.007-1.834-.007-2.751,0-2.866,0-2.866-2.91-2.614-.061.006-.122,0-.183,0a.354.354,0,0,0-.373.325A23.958,23.958,0,0,1,249.713,130.857Zm-18.058-26.435v1.284c0,1.685.007,1.654,1.648,2.021.488.109.629-.028.791-.437.584-1.474,1.181-2.944,1.828-4.39.208-.465.045-.578-.342-.68a21.637,21.637,0,0,0-3.412-.653c-.42-.041-.531.068-.519.47C231.672,102.831,231.655,103.627,231.655,104.421Zm17.514,18.086c.167-.5-.182-.483-.547-.48-1.192.008-2.385,0-3.577,0-1.69,0-1.661.007-2.025,1.643-.107.482.017.631.43.795,1.474.583,2.943,1.182,4.39,1.826.453.2.579.065.684-.335A18.586,18.586,0,0,0,249.169,122.508Zm-2.9-3.418c.766,0,1.534-.032,2.3.011.558.032.651-.179.6-.687a25.1,25.1,0,0,0-.628-3.238c-.125-.516-.358-.5-.773-.316-1.346.583-2.695,1.166-4.07,1.672-.653.24-.8.54-.618,1.2.362,1.345.324,1.356,1.725,1.356Zm-4.314-4.994c.074-.033.157-.073.241-.108,1.525-.629,3.049-1.261,4.578-1.881.325-.131.415-.27.225-.611a23.277,23.277,0,0,0-1.982-2.976c-.271-.349-.442-.28-.71-.006q-1.705,1.739-3.444,3.445a.476.476,0,0,0-.042.77,11.5,11.5,0,0,1,.72,1.063C241.639,113.941,241.706,114.129,241.953,114.1Zm-3.546-3.933a2.467,2.467,0,0,0,.3-.217c1.214-1.208,2.422-2.421,3.638-3.626.345-.342.006-.468-.186-.627a22.163,22.163,0,0,0-2.725-1.854c-.449-.27-.663-.23-.862.292-.5,1.311-1.073,2.594-1.592,3.9-.169.425-.67.893.113,1.281A13.164,13.164,0,0,1,238.408,110.163Z" fill="#010101"/>
      <path id="Trazado_127398" data-name="Trazado 127398" d="M294.873,192.586c-9.99,0-19.979-.01-29.968.02-.781,0-.942-.205-.935-.955.039-4.32.032-8.641,0-12.961,0-.646.091-.862.829-.85a21.624,21.624,0,0,0,17.706-8.114,1.669,1.669,0,0,1,1.457-.691c2.911.037,5.822,0,8.733.028.542,0,.731-.1.725-.694q-.047-5.194,0-10.387c0-.561-.129-.731-.706-.714-1.5.044-3,0-4.5.023-.5.008-.8-.025-.723-.674.086-.72-.241-1.712.127-2.117.442-.487,1.443-.15,2.2-.15,11.675-.01,23.349,0,35.024-.026.756,0,.952.167.95.94q-.041,18.2,0,36.4c0,.771-.191.943-.949.941Q309.857,192.563,294.873,192.586ZM304.4,186.7H320.85c1.981,0,1.929,0,2-1.986.032-.847-.241-.976-1.012-.974q-16.771.039-33.542.011c-.725,0-1.68.318-2.107-.143-.358-.387-.176-1.335-.123-2.026s-.216-.793-.827-.781c-1.929.039-3.859,0-5.789.022-.723.009-1.68-.329-2.1.152-.355.405-.153,1.34-.112,2.035.035.6-.144.77-.752.761-2.45-.036-4.9-.015-7.351-.015-2.243,0-2.215,0-2.225,2.216,0,.629.2.745.775.738,2.419-.029,4.84-.017,7.259-.01.729,0,1.678-.231,2.126.134.477.388.169,1.38.134,2.1-.034.669.257.725.8.718,1.991-.025,3.982-.01,5.973-.01,2.069,0,2.107,0,2.056-2.071-.018-.741.209-.89.909-.887C292.761,186.715,298.581,186.7,304.4,186.7Zm3.717-23.444c0-1.775-.019-3.551.012-5.326.009-.519-.142-.664-.661-.661q-5.235.033-10.47,0c-.518,0-.664.142-.661.661q.033,5.234,0,10.469c0,.519.142.664.661.661q5.234-.033,10.469,0c.519,0,.671-.141.661-.661C308.1,166.688,308.118,164.973,308.118,163.259Zm14.71-.092c0-1.745-.019-3.49.012-5.235.009-.521-.144-.663-.662-.66q-5.234.033-10.469,0c-.52,0-.663.144-.66.662q.033,5.234,0,10.469c0,.52.143.663.661.66q5.234-.033,10.469,0c.52,0,.67-.143.66-.662C322.81,166.656,322.828,164.911,322.828,163.166Zm-13.3,11.768h11.207c2.1,0,2.067,0,2.109-2.054.014-.7-.152-.909-.888-.906-7.839.03-15.678.018-23.516.018-2.109,0-2.083,0-2.109,2.146-.007.632.138.818.8.813C301.262,174.919,305.4,174.935,309.53,174.935Zm2.994,2.942H304.35c-2.13,0-2.094,0-2.137,2.121-.014.713.2.839.866.837,5.847-.027,11.694-.015,17.541-.015,2.242,0,2.215,0,2.225-2.213,0-.622-.193-.746-.771-.741C318.892,177.891,315.708,177.877,312.524,177.877Zm-14.69,0c-1.484,0-1.484,0-1.484,1.458,0,1.484,0,1.484,1.457,1.484,1.484,0,1.485,0,1.485-1.458C299.292,177.877,299.292,177.877,297.834,177.877Z" transform="translate(-35.273 -35.252)" fill="#83d3ef"/>
      <path id="Trazado_127399" data-name="Trazado 127399" d="M276.183,138.528h40.435c3.188,0,4.956,1.758,4.956,4.933q0,23.029,0,46.059c0,3.122-1.78,4.9-4.894,4.9q-31.9,0-63.8,0c-3.051,0-4.851-1.8-4.851-4.854q0-10.986,0-21.972v-.892c.887.244,1.723.495,2.57.7.568.138.362.571.363.89q.019,6.9.009,13.79c0,2.436,1.086,3.512,3.544,3.512H315.1c2.449,0,3.537-1.083,3.537-3.52q0-18.571,0-37.141c0-2.375-1.1-3.469-3.495-3.469q-18.525,0-37.05.02c-.8,0-1.233-.132-1.348-.994A14.3,14.3,0,0,0,276.183,138.528Zm-20.76,50.014c-1.515,0-1.515,0-1.515,1.519,0,1.423,0,1.423,1.427,1.423,1.515,0,1.515,0,1.515-1.519C256.849,188.542,256.849,188.542,255.422,188.542Zm5.786,2.942c1.525,0,1.525,0,1.525-1.509,0-1.433,0-1.433-1.417-1.433-1.525,0-1.525,0-1.525,1.509C259.791,191.483,259.791,191.483,261.208,191.483Zm5.884,0c1.525,0,1.525,0,1.525-1.509,0-1.433,0-1.433-1.417-1.433-1.525,0-1.525,0-1.525,1.509C265.676,191.483,265.676,191.483,267.093,191.483Z" transform="translate(-25.193 -25.322)" fill="#ccd0d7"/>
      <path id="Trazado_127400" data-name="Trazado 127400" d="M234.9,156.743c-7.678-.388-13.636-3.814-17.051-10.857-3.375-6.962-2.516-13.711,2.025-19.994.51-.706.8-.654,1.338-.06.948,1.04,1.959,2.027,2.984,2.993.4.378.387.616.076,1.058a13.206,13.206,0,1,0,21.887,14.761c.361-.568.619-.655,1.211-.384,1.333.611,2.692,1.166,4.062,1.691.52.2.562.4.295.855a18.935,18.935,0,0,1-14.443,9.72C236.523,156.627,235.758,156.666,234.9,156.743Z" transform="translate(-4.819 -17.008)" fill="#bad988"/>
      <path id="Trazado_127401" data-name="Trazado 127401" d="M307.555,328.349q-10.755,0-21.509,0c-1.712,0-2.318-.786-1.9-2.46a4.351,4.351,0,0,1,4.241-3.415q19.164-.022,38.329,0a4.4,4.4,0,0,1,4.334,3.763c.223,1.367-.4,2.108-1.8,2.109Q318.4,328.354,307.555,328.349Z" transform="translate(-47.946 -141.594)" fill="#969ea8"/>
      <path id="Trazado_127402" data-name="Trazado 127402" d="M340.126,304.316H318.069a13.194,13.194,0,0,0,1.888-4.286c.337-1.581.359-1.576,1.965-1.576,5.056,0,10.113.011,15.169-.014.625,0,.92.1.992.8A10.768,10.768,0,0,0,340.126,304.316Z" transform="translate(-69.472 -126.409)" fill="#aab1bb"/>
      <path id="Trazado_127403" data-name="Trazado 127403" d="M245.479,109.8c0,.917.293,1.988-.083,2.709s-1.59.448-2.406.747a13.733,13.733,0,0,0-3.735,1.917c-.391.3-.634.309-.989-.062q-1.586-1.658-3.245-3.247c-.369-.355-.423-.555.023-.9a19.136,19.136,0,0,1,9.688-4.041c.579-.069.833.027.783.678-.056.73-.013,1.468-.013,2.2Z" transform="translate(-16.788 -5.331)" fill="#ec8673"/>
      <path id="Trazado_127404" data-name="Trazado 127404" d="M321.1,176.226a23.957,23.957,0,0,0,2.013-5.554.354.354,0,0,1,.373-.325c.061,0,.123,0,.183,0,2.91-.252,2.91-.252,2.91,2.614,0,.917-.016,1.835.007,2.751.01.4-.115.531-.519.526C324.454,176.214,322.838,176.226,321.1,176.226Z" transform="translate(-71.39 -45.369)" fill="#ed8773"/>
      <path id="Trazado_127405" data-name="Trazado 127405" d="M272,109.73c0-.795.017-1.59-.007-2.385-.012-.4.1-.511.519-.47a21.635,21.635,0,0,1,3.412.653c.387.1.55.215.342.68-.647,1.446-1.244,2.916-1.828,4.39-.162.408-.3.546-.791.437-1.641-.367-1.648-.336-1.648-2.021Z" transform="translate(-40.345 -5.308)" fill="#f1d37d"/>
      <path id="Trazado_127406" data-name="Trazado 127406" d="M308.994,162.988a18.585,18.585,0,0,1-.645,3.451c-.1.4-.231.536-.684.335-1.448-.645-2.916-1.243-4.39-1.826-.413-.164-.537-.313-.43-.795.365-1.636.335-1.643,2.025-1.643,1.192,0,2.385,0,3.577,0C308.812,162.506,309.161,162.484,308.994,162.988Z" transform="translate(-59.825 -40.48)" fill="#f1d37d"/>
      <path id="Trazado_127407" data-name="Trazado 127407" d="M306.122,147.056h-1.47c-1.4,0-1.363-.01-1.725-1.356-.178-.663-.035-.963.618-1.2,1.376-.506,2.724-1.089,4.07-1.672.416-.18.648-.2.773.316a25.1,25.1,0,0,1,.628,3.238c.054.508-.039.719-.6.687C307.656,147.023,306.888,147.056,306.122,147.056Z" transform="translate(-59.855 -27.966)" fill="#eb8572"/>
      <path id="Trazado_127408" data-name="Trazado 127408" d="M297.759,130.958c-.248.034-.315-.155-.414-.3a11.5,11.5,0,0,0-.72-1.063.476.476,0,0,1,.042-.77q1.738-1.707,3.444-3.445c.268-.274.439-.343.71.006a23.277,23.277,0,0,1,1.982,2.976c.189.341.1.479-.225.611-1.529.62-3.053,1.253-4.578,1.881C297.916,130.885,297.833,130.925,297.759,130.958Z" transform="translate(-55.806 -16.862)" fill="#f1d37d"/>
      <path id="Trazado_127409" data-name="Trazado 127409" d="M287.376,119.107a13.169,13.169,0,0,0-1.316-.853c-.782-.388-.282-.856-.113-1.281.519-1.3,1.091-2.587,1.592-3.9.2-.522.413-.562.862-.292a22.166,22.166,0,0,1,2.725,1.854c.192.159.532.284.186.627-1.216,1.205-2.424,2.419-3.638,3.626A2.468,2.468,0,0,1,287.376,119.107Z" transform="translate(-48.968 -8.944)" fill="#eb8572"/>
      <path id="Trazado_127410" data-name="Trazado 127410" d="M309.458,232.215c-5.82,0-11.64.012-17.46-.016-.7,0-.926.146-.909.887.05,2.07.013,2.071-2.056,2.071-1.991,0-3.983-.015-5.973.01-.54.007-.831-.049-.8-.718.036-.718.344-1.709-.134-2.1-.448-.365-1.4-.131-2.126-.134-2.42-.007-4.84-.02-7.259.01-.573.007-.778-.11-.775-.738.01-2.216-.017-2.216,2.225-2.216,2.451,0,4.9-.021,7.351.015.608.009.787-.164.752-.761-.041-.7-.243-1.63.112-2.035.421-.481,1.378-.143,2.1-.152,1.93-.024,3.86.016,5.789-.022.611-.012.879.1.827.781s-.235,1.639.123,2.026c.427.461,1.383.143,2.107.143q16.771.014,33.542-.011c.77,0,1.043.127,1.012.974-.074,1.984-.022,1.986-2,1.986Zm-24.233-1.56c0,1.56,0,1.56,1.565,1.56,1.377,0,1.377,0,1.377-1.383,0-1.559,0-1.559-1.565-1.559C285.226,229.272,285.226,229.272,285.226,230.655Z" transform="translate(-40.33 -80.763)"/>
      <path id="Trazado_127411" data-name="Trazado 127411" d="M363.743,168.476c0,1.714-.02,3.429.012,5.143.009.52-.143.664-.661.661q-5.234-.033-10.469,0c-.519,0-.664-.142-.661-.661q.033-5.234,0-10.469c0-.519.142-.664.661-.661q5.235.033,10.47,0c.519,0,.67.141.661.661C363.724,164.925,363.743,166.7,363.743,168.476Zm-5.8-2.98c-.973,0-2.29-.383-2.83.1-.621.557-.158,1.894-.184,2.891-.023.911-.324,2.142.138,2.652.53.585,1.78.159,2.716.178.972.02,2.287.348,2.83-.144.621-.563.158-1.9.184-2.893.024-.911.324-2.136-.137-2.654C360.122,165.028,358.873,165.529,357.939,165.5Z" transform="translate(-90.897 -40.469)"/>
      <path id="Trazado_127412" data-name="Trazado 127412" d="M403.731,168.383c0,1.745-.019,3.49.012,5.234.009.518-.141.665-.66.662q-5.234-.033-10.469,0c-.518,0-.665-.14-.661-.66q.033-5.234,0-10.469c0-.518.14-.665.66-.662q5.235.033,10.469,0c.518,0,.671.139.662.66C403.712,164.893,403.731,166.638,403.731,168.383Zm-5.9,2.943c.795,0,1.59-.02,2.383.008.421.014.591-.092.583-.552-.026-1.588-.022-3.178,0-4.766.005-.42-.092-.591-.552-.583-1.588.026-3.178.022-4.767,0-.42-.005-.591.092-.583.552.026,1.588.032,3.178,0,4.766-.011.527.211.6.648.581C396.3,171.306,397.069,171.326,397.833,171.326Z" transform="translate(-116.176 -40.468)"/>
      <path id="Trazado_127413" data-name="Trazado 127413" d="M365.145,205.417c-4.134,0-8.267-.016-12.4.017-.658.005-.8-.181-.8-.813.026-2.146,0-2.146,2.109-2.146,7.838,0,15.677.011,23.516-.018.736,0,.9.2.888.906-.042,2.054-.011,2.054-2.109,2.054Z" transform="translate(-90.888 -65.734)"/>
      <path id="Trazado_127414" data-name="Trazado 127414" d="M378.243,218.48c3.184,0,6.368.014,9.551-.012.578-.005.774.119.771.741-.01,2.213.017,2.213-2.225,2.213-5.847,0-11.694-.011-17.541.015-.663,0-.88-.124-.866-.837.043-2.12.006-2.121,2.137-2.121Z" transform="translate(-100.992 -75.855)"/>
      <path id="Trazado_127415" data-name="Trazado 127415" d="M353.478,218.5c1.457,0,1.458,0,1.458,1.484,0,1.457,0,1.458-1.485,1.458-1.457,0-1.457,0-1.457-1.484C351.994,218.5,351.994,218.5,353.478,218.5Z" transform="translate(-90.917 -75.877)"/>
      <path id="Trazado_127416" data-name="Trazado 127416" d="M265.534,274.485c1.427,0,1.427,0,1.427,1.423,0,1.519,0,1.519-1.515,1.519-1.427,0-1.427,0-1.427-1.423C264.019,274.485,264.019,274.485,265.534,274.485Z" transform="translate(-35.305 -111.266)"/>
      <path id="Trazado_127417" data-name="Trazado 127417" d="M281.431,277.427c-1.417,0-1.417,0-1.417-1.433,0-1.509,0-1.509,1.525-1.509,1.417,0,1.417,0,1.417,1.433C282.956,277.427,282.956,277.427,281.431,277.427Z" transform="translate(-45.416 -111.266)"/>
      <path id="Trazado_127418" data-name="Trazado 127418" d="M297.427,277.427c-1.417,0-1.417,0-1.417-1.433,0-1.509,0-1.509,1.525-1.509,1.417,0,1.417,0,1.417,1.433C298.952,277.427,298.952,277.427,297.427,277.427Z" transform="translate(-55.528 -111.266)"/>
      <path id="Trazado_127419" data-name="Trazado 127419" d="M308.006,235.879c0-1.382,0-1.382,1.377-1.382,1.565,0,1.565,0,1.565,1.559,0,1.383,0,1.383-1.377,1.383C308.006,237.439,308.006,237.439,308.006,235.879Z" transform="translate(-63.111 -85.988)" fill="#ee8774"/>
      <path id="Trazado_127420" data-name="Trazado 127420" d="M362.785,170.38c.934.033,2.184-.468,2.716.131.461.518.161,1.743.137,2.654-.026,1,.437,2.33-.184,2.893-.543.492-1.857.164-2.83.144-.936-.019-2.185.408-2.716-.178-.462-.51-.161-1.741-.138-2.652.026-1-.437-2.334.184-2.891C360.495,170,361.811,170.38,362.785,170.38Z" transform="translate(-95.744 -45.353)" fill="#f5d67f"/>
      <path id="Trazado_127421" data-name="Trazado 127421" d="M402.886,176.384c-.764,0-1.528-.019-2.291.007-.437.015-.66-.054-.648-.581.034-1.588.028-3.178,0-4.766-.008-.46.163-.557.583-.552,1.589.02,3.178.024,4.767,0,.46-.007.557.164.552.583-.02,1.589-.024,3.178,0,4.766.008.46-.163.566-.583.552C404.475,176.364,403.68,176.384,402.886,176.384Z" transform="translate(-121.229 -45.526)" fill="#bbda89"/>
    </g>
  </g>
</svg>
