<svg xmlns="http://www.w3.org/2000/svg" xmlns:xlink="http://www.w3.org/1999/xlink" width="81.311" height="81.311" viewBox="0 0 81.311 81.311">
  <defs>
    <clipPath id="clip-path">
      <rect id="Rectángulo_36623" data-name="Rectángulo 36623" width="81.311" height="81.311" fill="#fff" stroke="#707070" stroke-width="1"/>
    </clipPath>
  </defs>
  <g id="Grupo_85832" data-name="Grupo 85832" clip-path="url(#clip-path)">
    <g id="Grupo_85826" data-name="Grupo 85826" transform="translate(4.618 4.64)">
      <path id="Trazado_127265" data-name="Trazado 127265" d="M-290.2-606.729q10.616,0,21.233,0a3.638,3.638,0,0,1,3.993,4q0,4.463,0,8.927a3.585,3.585,0,0,1-3.894,3.857c-.741-.014-1.034.15-.918.918.07.463-.139,1.068.089,1.38.249.34.882.083,1.346.128a3.408,3.408,0,0,1,2.851,1.8,1.057,1.057,0,0,0,1.087.629,57.079,57.079,0,0,1,14.294,1.919,15.886,15.886,0,0,1,4.763,2.119,4.326,4.326,0,0,1,2.017,3.843q-.067,17.328,0,34.658a4.2,4.2,0,0,1-1.889,3.68,17.8,17.8,0,0,1-6.543,2.656,67.357,67.357,0,0,1-20.2,1.282,46.467,46.467,0,0,1-11.247-2.036A13.392,13.392,0,0,1-287.284-539,4.013,4.013,0,0,1-289-542.463c.06-2.774,0-5.551.031-8.326.006-.573-.124-.737-.722-.735q-10.841.035-21.683.014c-2.583,0-4.02-1.45-4.021-4.049q0-4.426,0-8.852a3.576,3.576,0,0,1,3.864-3.883c.781.016,1-.186.957-.963-.07-1.383-.02-1.386-1.413-1.464a3.575,3.575,0,0,1-3.394-3.457q-.055-4.951,0-9.9a3.569,3.569,0,0,1,3.637-3.441c1.149-.019,1.149-.019,1.149-1.179,0-1.2,0-1.2-1.181-1.223a3.6,3.6,0,0,1-3.616-3.624c-.019-3.151-.014-6.3,0-9.452a3.588,3.588,0,0,1,3.738-3.726Q-300.927-606.737-290.2-606.729Zm-15.6,19.182c.646.008,1.292.019,1.938.022.216,0,.475.051.466-.3a5,5,0,0,0-.115-1.967c-.186-.37-1.008-.087-1.545-.123-.247-.017-.5.012-.744.02-.645-.008-1.292,0-1.937-.03-.356-.016-.451.1-.468.46-.093,1.953-.1,1.953,1.809,1.945C-306.194-587.524-306-587.538-305.8-587.547Zm31.216-2.352c-.646-.008-1.292,0-1.937-.03-.356-.016-.451.1-.468.46-.093,1.953-.1,1.953,1.809,1.945.2,0,.4-.015.595-.023.646.008,1.292.019,1.938.022.216,0,.475.051.466-.3a4.993,4.993,0,0,0-.115-1.967c-.186-.37-1.008-.087-1.545-.123C-274.085-589.935-274.334-589.906-274.582-589.9ZM-305.8-570.692c-.645-.008-1.292,0-1.936-.03-.356-.017-.451.105-.468.46-.093,1.953-.1,1.953,1.809,1.945.2,0,.4-.015.595-.023.646.008,1.292.018,1.938.022.216,0,.475.05.466-.3a5,5,0,0,0-.115-1.967c-.186-.37-1.009-.087-1.545-.123C-305.3-570.728-305.55-570.7-305.8-570.692Zm53.129-10.64a45.181,45.181,0,0,0-7.469-1.134,65.687,65.687,0,0,0-19.457,1.1,17.389,17.389,0,0,0-6.056,2.285c-1.241.831-1.231,1.484,0,2.322a15.338,15.338,0,0,0,4.822,1.98,57.2,57.2,0,0,0,15,1.652,56.8,56.8,0,0,0,13.161-1.38,18,18,0,0,0,2.809-.762,11.522,11.522,0,0,0,3.417-1.659c.886-.68.888-1.306,0-1.978a8.046,8.046,0,0,0-1.339-.815A20.523,20.523,0,0,0-252.669-581.332Zm-18.6-22.971c-.1-.008-.2-.023-.3-.023q-19.983,0-39.966,0c-1.027,0-1.453.43-1.455,1.463q-.009,4.386,0,8.772c0,1.436.329,1.767,1.756,1.767q19.608,0,39.217,0c.249,0,.5-.015.748-.023.872.008,1.743.035,2.614.018a1.189,1.189,0,0,0,1.282-1.324q.017-4.671,0-9.342a1.187,1.187,0,0,0-1.281-1.324C-269.53-604.337-270.4-604.311-271.273-604.3Zm17.707,65.988a.431.431,0,0,0,.4-.1l.031,0c.559-.119,1.126-.209,1.675-.364a16.371,16.371,0,0,0,4.811-1.991,1.774,1.774,0,0,0,.9-1.675c-.055-1.245-.015-2.495-.015-3.742v-4.335a22.236,22.236,0,0,1-3.615,1.655c-.457.124-.914.246-1.371.371a54.438,54.438,0,0,1-12.063,1.7,66.472,66.472,0,0,1-16.844-1.235,23.592,23.592,0,0,1-6.926-2.479c0,2.793.015,5.485-.011,8.177a1.6,1.6,0,0,0,.69,1.4,9.911,9.911,0,0,0,2.436,1.294,40.019,40.019,0,0,0,10.738,2.229,72.655,72.655,0,0,0,13.4-.019A35.254,35.254,0,0,0-253.566-538.315Zm4.21-25.18a8.908,8.908,0,0,0,2.932-1.447,1.562,1.562,0,0,0,.674-1.413c-.038-1.224-.011-2.449-.011-3.674v-4.516a20.89,20.89,0,0,1-3.615,1.673,50.256,50.256,0,0,1-6.428,1.42,72.422,72.422,0,0,1-15.486.565,49.461,49.461,0,0,1-11.352-1.922,20.317,20.317,0,0,1-3.939-1.7c0,2.881,0,5.654,0,8.428a1.251,1.251,0,0,0,.535,1.021,7.312,7.312,0,0,0,1.119.745,26.026,26.026,0,0,0,8.3,2.426,69.2,69.2,0,0,0,20.843.012A26.659,26.659,0,0,0-249.357-563.495Zm-.02,2.627a48.49,48.49,0,0,1-6.278,1.4,72.763,72.763,0,0,1-15.336.6,50.563,50.563,0,0,1-11.578-1.919,21.67,21.67,0,0,1-4.012-1.709c0,2.6.08,5.1-.033,7.591a2.4,2.4,0,0,0,1.482,2.493c.311.159.618.326.937.468a28.687,28.687,0,0,0,7.561,2.06,69.517,69.517,0,0,0,20.843.01,26.657,26.657,0,0,0,6.435-1.618,9.092,9.092,0,0,0,2.874-1.4,1.6,1.6,0,0,0,.733-1.461c-.043-1.223-.012-2.449-.012-3.674v-4.494A22.739,22.739,0,0,1-249.377-560.868Zm-21.969-24.115,0-.1a2.978,2.978,0,0,0-.324-.035q-19.958,0-39.917,0c-.971,0-1.4.447-1.4,1.44q-.009,4.576,0,9.153c0,.972.447,1.405,1.438,1.406,7.328,0,14.656,0,21.984.015.529,0,.6-.188.595-.642-.026-1.3.012-2.6-.016-3.9a3.5,3.5,0,0,1,1.079-2.623,9,9,0,0,1,2.87-1.871,34.432,34.432,0,0,1,9.406-2.371C-274.21-584.7-272.776-584.828-271.346-584.983Zm-29.194,19.069q-5.438,0-10.876,0c-1.183,0-1.578.392-1.579,1.567q0,4.425,0,8.85c0,1.184.394,1.585,1.562,1.585q10.876,0,21.752.013c.534,0,.718-.092.713-.68q-.048-5.324,0-10.649c0-.555-.125-.7-.693-.7C-293.288-565.9-296.914-565.914-300.539-565.914Zm10.353-24.008h-9.152c-1.654,0-1.62,0-1.668,1.652-.019.632.155.766.772.764,6.376-.026,12.753-.016,19.129-.016,1.734,0,1.707,0,1.742-1.727.012-.569-.142-.692-.7-.687C-283.434-589.908-286.81-589.922-290.186-589.922Zm-4.8,19.206h-4.2c-1.824,0-1.8,0-1.815,1.8,0,.492.13.615.616.611,3.2-.022,6.4-.011,9.6-.011,1.85,0,1.835,0,1.814-1.875,0-.425-.118-.54-.54-.534C-291.336-570.7-293.162-570.716-294.987-570.716Z" transform="translate(315.411 606.73)" fill="#020101"/>
      <path id="Trazado_127266" data-name="Trazado 127266" d="M-182.415-448.644a26.659,26.659,0,0,1-6.435,1.618,69.52,69.52,0,0,1-20.843-.01,28.682,28.682,0,0,1-7.561-2.06c-.318-.143-.626-.309-.937-.468a2.4,2.4,0,0,1-1.482-2.493c.113-2.493.033-5,.033-7.592a21.667,21.667,0,0,0,4.012,1.709,50.568,50.568,0,0,0,11.578,1.919,72.765,72.765,0,0,0,15.336-.6,48.514,48.514,0,0,0,6.278-1.4Q-182.426-453.332-182.415-448.644Zm-15.615-1.269c0-1.15,0-1.15-1.175-1.15-1.226,0-1.226,0-1.226,1.25,0,1.151,0,1.151,1.175,1.151C-198.03-448.663-198.03-448.663-198.03-449.912Z" transform="translate(248.47 503.883)" fill="#f8dc6c"/>
      <path id="Trazado_127267" data-name="Trazado 127267" d="M-182.338-488.579a26.655,26.655,0,0,1-6.435,1.618,69.2,69.2,0,0,1-20.843-.012,26.03,26.03,0,0,1-8.3-2.426,7.309,7.309,0,0,1-1.119-.745,1.251,1.251,0,0,1-.535-1.021c.009-2.774,0-5.548,0-8.428a20.316,20.316,0,0,0,3.939,1.7,49.448,49.448,0,0,0,11.351,1.921,72.406,72.406,0,0,0,15.486-.565,50.246,50.246,0,0,0,6.428-1.42Q-182.348-493.268-182.338-488.579Zm-15.615-2.376c0-1.244,0-1.244-1.231-1.244-1.17,0-1.17,0-1.17,1.156,0,1.244,0,1.244,1.231,1.244C-197.953-489.8-197.953-489.8-197.953-490.955Z" transform="translate(248.392 531.814)" fill="#f8dc6c"/>
      <path id="Trazado_127268" data-name="Trazado 127268" d="M-186.128-407.681l-.032,0a.361.361,0,0,0-.4.1,35.248,35.248,0,0,1-5.763.9,72.66,72.66,0,0,1-13.4.019,40.019,40.019,0,0,1-10.738-2.229,9.908,9.908,0,0,1-2.436-1.294,1.6,1.6,0,0,1-.69-1.4c.026-2.692.011-5.384.011-8.177a23.59,23.59,0,0,0,6.926,2.479,66.481,66.481,0,0,0,16.844,1.235,54.456,54.456,0,0,0,12.063-1.7c.457-.125.914-.247,1.371-.371,0,2.171-.005,4.342.02,6.512a2.92,2.92,0,0,1-1.221,2.424C-184.359-408.558-185.374-408.345-186.128-407.681Zm-11.842-3.444c0-1.25,0-1.25-1.225-1.25-1.175,0-1.175,0-1.175,1.151,0,1.25,0,1.25,1.226,1.25C-197.97-409.975-197.97-409.975-197.97-411.125Z" transform="translate(248.409 475.999)" fill="#f8dc6c"/>
      <path id="Trazado_127269" data-name="Trazado 127269" d="M-265.659-586.761c-.249.008-.5.023-.748.023h-39.217c-1.427,0-1.755-.331-1.756-1.767q0-4.386,0-8.772c0-1.033.427-1.463,1.455-1.463q19.983,0,39.966,0c.1,0,.2.015.3.024a4.651,4.651,0,0,1,.3,2.351c-1.2.063-1.2.063-1.2,1.15,0,1.237,0,1.237,1.2,1.3v2.351c-1.2.063-1.2.063-1.2,1.151,0,1.237,0,1.237,1.2,1.3A4.635,4.635,0,0,1-265.659-586.761Zm-32.116-5.965c0-.748.01-1.5,0-2.245a1.21,1.21,0,0,0-1.323-1.364q-2.283-.023-4.566,0a1.185,1.185,0,0,0-1.307,1.3q-.026,2.283,0,4.565a1.187,1.187,0,0,0,1.282,1.326q2.32.029,4.641,0a1.181,1.181,0,0,0,1.27-1.262C-297.759-591.179-297.777-591.953-297.775-592.726Zm2.4-.029c0,.773-.014,1.547,0,2.32a1.179,1.179,0,0,0,1.241,1.291q2.358.034,4.716,0a1.157,1.157,0,0,0,1.234-1.22q.036-2.357,0-4.715a1.171,1.171,0,0,0-1.276-1.254q-2.32-.027-4.641,0A1.191,1.191,0,0,0-295.371-595C-295.386-594.253-295.374-593.5-295.374-592.756Zm18.013,3.619h6.668c1.744,0,1.715,0,1.748-1.729.011-.581-.167-.687-.708-.684-4.77.022-9.54.013-14.31.013-1.836,0-1.814,0-1.82,1.8,0,.508.159.61.631.607C-282.555-589.148-279.958-589.137-277.36-589.137Zm-.008-7.2h-6.668c-1.745,0-1.716,0-1.749,1.728-.011.58.164.688.707.685,4.77-.022,9.54-.013,14.31-.013,1.837,0,1.815,0,1.821-1.8,0-.506-.156-.611-.63-.607C-272.174-596.328-274.772-596.34-277.369-596.34Z" transform="translate(309.796 601.143)" fill="#68a3f7"/>
      <path id="Trazado_127270" data-name="Trazado 127270" d="M-185.632-518.69a56.8,56.8,0,0,1-13.161,1.38,57.192,57.192,0,0,1-15-1.652,15.337,15.337,0,0,1-4.822-1.98c-1.23-.838-1.24-1.491,0-2.322a17.39,17.39,0,0,1,6.056-2.285,65.685,65.685,0,0,1,19.457-1.1,45.168,45.168,0,0,1,7.469,1.133c.049.309.341.329.544.454.509.311,1.044.585,1.525.934,1.38,1,1.627,2.376.653,3.436a7.028,7.028,0,0,1-1.337,1.064C-184.71-519.318-185.313-519.209-185.632-518.69Z" transform="translate(248.374 550.913)" fill="#f6cb45"/>
      <path id="Trazado_127271" data-name="Trazado 127271" d="M-265.734-534.74c-1.43.155-2.864.279-4.289.471a34.436,34.436,0,0,0-9.406,2.371,9,9,0,0,0-2.87,1.871,3.5,3.5,0,0,0-1.079,2.623c.028,1.3-.01,2.6.016,3.9.009.454-.066.643-.595.642-7.328-.019-14.656-.011-21.985-.015-.991,0-1.435-.434-1.438-1.406q-.012-4.576,0-9.153c0-.993.432-1.44,1.4-1.44q19.959-.006,39.917,0a2.975,2.975,0,0,1,.324.035Zm-32.045,5.857c0-.748.011-1.5,0-2.245a1.208,1.208,0,0,0-1.341-1.345q-2.245-.022-4.491,0a1.2,1.2,0,0,0-1.363,1.32q-.024,2.283,0,4.565a1.188,1.188,0,0,0,1.3,1.308q2.283.027,4.566,0a1.211,1.211,0,0,0,1.33-1.358C-297.768-527.386-297.779-528.134-297.779-528.883Zm2.4-.069c0,.8-.016,1.6,0,2.395a1.176,1.176,0,0,0,1.257,1.274q2.357.031,4.715,0a1.157,1.157,0,0,0,1.217-1.236q.033-2.357,0-4.715a1.156,1.156,0,0,0-1.218-1.234q-2.357-.035-4.715,0a1.174,1.174,0,0,0-1.256,1.274C-295.392-530.449-295.376-529.7-295.376-528.952Z" transform="translate(309.799 556.487)" fill="#67a3f6"/>
      <path id="Trazado_127272" data-name="Trazado 127272" d="M-294.924-471.05c3.626,0,7.251.014,10.876-.014.568,0,.7.145.693.7q-.041,5.325,0,10.649c.005.588-.178.682-.712.68q-10.876-.027-21.752-.013c-1.167,0-1.561-.4-1.561-1.585q0-4.425,0-8.85c0-1.175.4-1.566,1.579-1.567Q-300.362-471.053-294.924-471.05Zm3.166,9.6c.774,0,1.548.017,2.321,0a1.18,1.18,0,0,0,1.26-1.272q.029-2.32,0-4.64a1.187,1.187,0,0,0-1.328-1.28q-2.283-.021-4.566,0a1.186,1.186,0,0,0-1.3,1.309q-.024,2.282,0,4.565A1.209,1.209,0,0,0-294-461.449C-293.255-461.437-292.506-461.447-291.758-461.448Zm-13.22-3.6c0,.773-.016,1.547,0,2.32a1.176,1.176,0,0,0,1.256,1.276q2.358.031,4.716,0a1.157,1.157,0,0,0,1.218-1.235q.033-2.357,0-4.715A1.156,1.156,0,0,0-299-468.641q-2.357-.035-4.716,0a1.174,1.174,0,0,0-1.257,1.272C-304.994-466.6-304.978-465.823-304.978-465.05Z" transform="translate(309.796 511.866)" fill="#67a3f7"/>
      <path id="Trazado_127273" data-name="Trazado 127273" d="M-256.7-550.877c3.376,0,6.752.014,10.127-.014.554,0,.708.119.7.687-.035,1.726-.008,1.727-1.742,1.727-6.376,0-12.753-.01-19.129.016-.617,0-.791-.132-.772-.764.049-1.651.015-1.652,1.668-1.652Z" transform="translate(281.922 567.685)" fill="#f7f9fa"/>
      <path id="Trazado_127274" data-name="Trazado 127274" d="M-168.655-586.759a4.634,4.634,0,0,0,.3-2.351c1.2-.063,1.2-.063,1.2-1.151,0-1.237,0-1.237-1.2-1.3v-2.351c1.2-.063,1.2-.063,1.2-1.15,0-1.236,0-1.236-1.2-1.3a4.65,4.65,0,0,0-.3-2.351c.872-.008,1.743-.035,2.614-.018a1.187,1.187,0,0,1,1.281,1.324q.017,4.671,0,9.342a1.189,1.189,0,0,1-1.282,1.324C-166.912-586.724-167.783-586.751-168.655-586.759Z" transform="translate(212.792 601.141)" fill="#4088f5"/>
      <path id="Trazado_127275" data-name="Trazado 127275" d="M-108.325-407.719c.754-.664,1.769-.877,2.552-1.516a2.919,2.919,0,0,0,1.221-2.424c-.025-2.171-.015-4.341-.02-6.512a22.236,22.236,0,0,0,3.615-1.655v4.334c0,1.248-.04,2.5.015,3.742a1.774,1.774,0,0,1-.9,1.676,16.37,16.37,0,0,1-4.81,1.991C-107.2-407.928-107.766-407.839-108.325-407.719Z" transform="translate(170.606 476.037)" fill="#f6cb45"/>
      <path id="Trazado_127276" data-name="Trazado 127276" d="M-95.826-488.664q-.01-4.689-.02-9.377a20.9,20.9,0,0,0,3.615-1.673v4.516c0,1.225-.027,2.45.011,3.674a1.562,1.562,0,0,1-.674,1.413A8.9,8.9,0,0,1-95.826-488.664Z" transform="translate(161.88 531.899)" fill="#f6cb45"/>
      <path id="Trazado_127277" data-name="Trazado 127277" d="M-95.826-448.7q-.01-4.689-.02-9.377a22.754,22.754,0,0,0,3.615-1.651v4.494c0,1.225-.03,2.451.012,3.674a1.6,1.6,0,0,1-.733,1.461A9.089,9.089,0,0,1-95.826-448.7Z" transform="translate(161.88 503.938)" fill="#f6cb45"/>
      <path id="Trazado_127278" data-name="Trazado 127278" d="M-261.485-487c1.825,0,3.65.013,5.475-.01.422-.005.535.11.54.534.022,1.876.037,1.875-1.814,1.875-3.2,0-6.4-.011-9.6.011-.486,0-.619-.119-.616-.611.011-1.8-.009-1.8,1.815-1.8Z" transform="translate(281.909 523.019)" fill="#f7f9fa"/>
      <path id="Trazado_127279" data-name="Trazado 127279" d="M-106.793-515.455c.32-.519.922-.629,1.386-.937a7.03,7.03,0,0,0,1.337-1.064c.974-1.061.727-2.436-.653-3.436-.481-.349-1.016-.623-1.525-.934-.2-.124-.495-.144-.544-.453a20.52,20.52,0,0,1,4.883,1.61,8.046,8.046,0,0,1,1.339.815c.891.672.89,1.3,0,1.978a11.522,11.522,0,0,1-3.417,1.66A18.011,18.011,0,0,1-106.793-515.455Z" transform="translate(169.535 547.678)" fill="#dfbb3e"/>
      <path id="Trazado_127280" data-name="Trazado 127280" d="M-289.11-484.623c-.2.008-.4.022-.595.023-1.913.008-1.9.008-1.809-1.945.017-.355.111-.477.468-.46.645.03,1.291.022,1.936.03Z" transform="translate(298.723 523.013)" fill="#abaaaf"/>
      <path id="Trazado_127281" data-name="Trazado 127281" d="M-283.448-484.757v-2.352c.248-.008.5-.036.744-.02.536.036,1.359-.247,1.545.123a5,5,0,0,1,.115,1.967c.009.353-.25.3-.466.3C-282.156-484.739-282.8-484.749-283.448-484.757Z" transform="translate(293.061 523.148)" fill="#88878e"/>
      <path id="Trazado_127282" data-name="Trazado 127282" d="M-179.655-550.971c.248-.008.5-.036.744-.02.537.036,1.359-.247,1.545.123a4.992,4.992,0,0,1,.115,1.968c.009.353-.251.3-.466.3-.646,0-1.292-.014-1.938-.022Q-179.655-549.795-179.655-550.971Z" transform="translate(220.484 567.803)" fill="#88878e"/>
      <path id="Trazado_127283" data-name="Trazado 127283" d="M-185.318-550.837q0,1.176,0,2.352c-.2.008-.4.022-.595.023-1.913.008-1.9.008-1.809-1.945.017-.355.112-.477.468-.46C-186.61-550.837-185.963-550.845-185.318-550.837Z" transform="translate(226.147 567.669)" fill="#abaaaf"/>
      <path id="Trazado_127284" data-name="Trazado 127284" d="M-283.447-550.971c.248-.008.5-.036.744-.02.537.036,1.359-.247,1.545.123a5,5,0,0,1,.115,1.968c.009.353-.251.3-.466.3-.646,0-1.292-.014-1.938-.022Z" transform="translate(293.06 567.803)" fill="#88878e"/>
      <path id="Trazado_127285" data-name="Trazado 127285" d="M-289.11-550.837v2.352c-.2.008-.4.022-.595.023-1.913.008-1.9.008-1.809-1.945.017-.355.112-.477.468-.46C-290.4-550.837-289.755-550.845-289.11-550.837Z" transform="translate(298.723 567.669)" fill="#abaaaf"/>
      <path id="Trazado_127286" data-name="Trazado 127286" d="M-109.775-379.53a.361.361,0,0,1,.4-.1A.43.43,0,0,1-109.775-379.53Z" transform="translate(171.62 447.946)" fill="#f6cb45"/>
      <path id="Trazado_127287" data-name="Trazado 127287" d="M-153.28-429.952c0,1.25,0,1.25-1.225,1.25-1.175,0-1.175,0-1.175-1.151,0-1.25,0-1.25,1.226-1.25C-153.28-431.1-153.28-431.1-153.28-429.952Z" transform="translate(203.72 483.922)"/>
      <path id="Trazado_127288" data-name="Trazado 127288" d="M-153.28-473.764c0,1.156,0,1.156-1.17,1.156-1.231,0-1.231,0-1.231-1.244,0-1.156,0-1.156,1.17-1.156C-153.28-475.008-153.28-475.008-153.28-473.764Z" transform="translate(203.72 514.623)"/>
      <path id="Trazado_127289" data-name="Trazado 127289" d="M-153.28-393.93c0,1.15,0,1.15-1.175,1.15-1.226,0-1.226,0-1.226-1.25,0-1.151,0-1.151,1.175-1.151C-153.28-395.18-153.28-395.18-153.28-393.93Z" transform="translate(203.72 458.804)"/>
      <path id="Trazado_127290" data-name="Trazado 127290" d="M-292.208-587.163c0,.773.017,1.547-.005,2.32a1.181,1.181,0,0,1-1.27,1.263q-2.32.029-4.641,0a1.187,1.187,0,0,1-1.282-1.326q-.022-2.282,0-4.565a1.185,1.185,0,0,1,1.307-1.3q2.283-.025,4.566,0a1.209,1.209,0,0,1,1.323,1.364C-292.2-588.66-292.207-587.911-292.208-587.163Zm-3.646,1.188c1.245,0,1.245,0,1.245-1.174,0-1.226,0-1.226-1.193-1.226s-1.208,0-1.208,1.211C-297.009-585.974-297.009-585.974-295.854-585.974Z" transform="translate(304.228 595.579)" fill="#010101"/>
      <path id="Trazado_127291" data-name="Trazado 127291" d="M-267.469-587.194c0-.749-.012-1.5,0-2.245a1.19,1.19,0,0,1,1.276-1.332q2.32-.029,4.641,0a1.171,1.171,0,0,1,1.276,1.254q.032,2.357,0,4.715a1.157,1.157,0,0,1-1.234,1.22q-2.358.033-4.716,0a1.179,1.179,0,0,1-1.241-1.291C-267.482-585.647-267.468-586.421-267.469-587.194Zm3.583-1.183c-1.181,0-1.181,0-1.182.863,0,1.537,0,1.537.882,1.537,1.519,0,1.519,0,1.519-.975C-262.667-588.376-262.667-588.376-263.885-588.376Z" transform="translate(281.891 595.581)" fill="#010101"/>
      <path id="Trazado_127292" data-name="Trazado 127292" d="M-227.145-572.422c-2.6,0-5.195-.011-7.792.01-.472,0-.632-.1-.631-.607.006-1.8-.016-1.8,1.82-1.8,4.77,0,9.54.009,14.31-.013.541,0,.719.1.708.684-.033,1.728,0,1.729-1.748,1.729Z" transform="translate(259.581 584.428)"/>
      <path id="Trazado_127293" data-name="Trazado 127293" d="M-227.16-590.783c2.6,0,5.195.011,7.792-.01.473,0,.631.1.63.608-.006,1.8.016,1.8-1.821,1.8-4.77,0-9.54-.009-14.31.013-.543,0-.718-.106-.707-.685.033-1.728,0-1.728,1.749-1.728Z" transform="translate(259.588 595.586)"/>
      <path id="Trazado_127294" data-name="Trazado 127294" d="M-170.451-590.841c1.2.064,1.2.064,1.2,1.3,0,1.087,0,1.087-1.2,1.15-1.2-.062-1.2-.062-1.2-1.3C-171.65-590.778-171.65-590.778-170.451-590.841Z" transform="translate(214.886 595.62)"/>
      <path id="Trazado_127295" data-name="Trazado 127295" d="M-170.451-574.876c1.2.063,1.2.063,1.2,1.3,0,1.087,0,1.087-1.2,1.151-1.2-.063-1.2-.063-1.2-1.3C-171.65-574.813-171.65-574.813-170.451-574.876Z" transform="translate(214.886 584.456)"/>
      <path id="Trazado_127296" data-name="Trazado 127296" d="M-292.207-523.317c0,.748.01,1.5,0,2.245a1.211,1.211,0,0,1-1.33,1.358q-2.283.023-4.566,0a1.188,1.188,0,0,1-1.3-1.308q-.024-2.283,0-4.565a1.2,1.2,0,0,1,1.363-1.32q2.246-.018,4.491,0a1.208,1.208,0,0,1,1.341,1.345C-292.2-524.814-292.207-524.065-292.207-523.317Zm-3.646,1.207c1.244,0,1.244,0,1.244-1.175,0-1.225,0-1.225-1.194-1.225s-1.207,0-1.207,1.213C-297.009-522.11-297.009-522.11-295.853-522.11Z" transform="translate(304.228 550.921)" fill="#010101"/>
      <path id="Trazado_127297" data-name="Trazado 127297" d="M-267.468-523.39c0-.748-.016-1.5,0-2.245a1.174,1.174,0,0,1,1.256-1.274q2.358-.03,4.715,0a1.156,1.156,0,0,1,1.218,1.234q.032,2.357,0,4.714a1.157,1.157,0,0,1-1.217,1.236q-2.358.036-4.715,0A1.176,1.176,0,0,1-267.464-521C-267.484-521.793-267.468-522.592-267.468-523.39Zm3.561,1.276c1.24,0,1.24,0,1.241-.879,0-1.521,0-1.521-.9-1.521-1.5,0-1.5,0-1.5.916C-265.068-522.115-265.068-522.115-263.908-522.115Z" transform="translate(281.891 550.926)" fill="#010101"/>
      <path id="Trazado_127298" data-name="Trazado 127298" d="M-263.859-455.849c-.748,0-1.5.011-2.245,0a1.209,1.209,0,0,1-1.366-1.321q-.024-2.283,0-4.565a1.186,1.186,0,0,1,1.3-1.309q2.283-.026,4.566,0a1.187,1.187,0,0,1,1.328,1.28q.029,2.32,0,4.64a1.18,1.18,0,0,1-1.26,1.272C-262.311-455.832-263.085-455.85-263.859-455.849Zm1.186-3.564c0-1.237,0-1.237-1.182-1.237-1.219,0-1.219,0-1.219,1.2s0,1.2,1.22,1.2C-262.673-458.25-262.673-458.25-262.673-459.413Z" transform="translate(281.897 506.267)" fill="#010101"/>
      <path id="Trazado_127299" data-name="Trazado 127299" d="M-299.4-459.455c0-.773-.016-1.547,0-2.32a1.174,1.174,0,0,1,1.257-1.273q2.358-.03,4.716,0a1.156,1.156,0,0,1,1.217,1.236q.032,2.357,0,4.715a1.157,1.157,0,0,1-1.218,1.235q-2.358.036-4.716,0a1.176,1.176,0,0,1-1.256-1.275C-299.42-457.908-299.4-458.681-299.4-459.455Zm3.556,1.2c1.245,0,1.245,0,1.245-1.174,0-1.227,0-1.227-1.193-1.227-1.208,0-1.208,0-1.208,1.212C-297-458.253-297-458.253-295.849-458.253Z" transform="translate(304.223 506.27)" fill="#010101"/>
      <path id="Trazado_127300" data-name="Trazado 127300" d="M-290.253-580.375c-1.156,0-1.156,0-1.156-1.189,0-1.211,0-1.211,1.208-1.211,1.193,0,1.193,0,1.193,1.227C-289.008-580.375-289.008-580.375-290.253-580.375Z" transform="translate(298.628 589.979)" fill="#ee805f"/>
      <path id="Trazado_127301" data-name="Trazado 127301" d="M-258.291-582.775c1.219,0,1.219,0,1.219,1.425,0,.976,0,.976-1.519.975-.882,0-.882,0-.882-1.537C-259.472-582.775-259.472-582.775-258.291-582.775Z" transform="translate(276.297 589.979)" fill="#50b2ba"/>
      <path id="Trazado_127302" data-name="Trazado 127302" d="M-290.253-516.513c-1.156,0-1.156,0-1.156-1.188,0-1.213,0-1.213,1.207-1.213s1.194,0,1.194,1.225C-289.008-516.513-289.008-516.513-290.253-516.513Z" transform="translate(298.628 545.324)" fill="#ee805f"/>
      <path id="Trazado_127303" data-name="Trazado 127303" d="M-258.313-516.512c-1.16,0-1.16,0-1.16-1.484,0-.917,0-.917,1.5-.916.9,0,.9,0,.9,1.521C-257.073-516.512-257.073-516.512-258.313-516.512Z" transform="translate(276.296 545.323)" fill="#50b2ba"/>
      <path id="Trazado_127304" data-name="Trazado 127304" d="M-257.072-453.813c0,1.163,0,1.163-1.181,1.163-1.22,0-1.22,0-1.22-1.2s0-1.2,1.219-1.2C-257.072-455.05-257.072-455.05-257.072-453.813Z" transform="translate(276.296 500.668)" fill="#50b2ba"/>
      <path id="Trazado_127305" data-name="Trazado 127305" d="M-290.253-452.651c-1.156,0-1.156,0-1.156-1.189,0-1.212,0-1.212,1.208-1.212,1.193,0,1.193,0,1.193,1.226C-289.008-452.651-289.008-452.651-290.253-452.651Z" transform="translate(298.628 500.668)" fill="#ee805f"/>
    </g>
  </g>
</svg>
