<svg xmlns="http://www.w3.org/2000/svg" xmlns:xlink="http://www.w3.org/1999/xlink" width="81.311" height="81.311" viewBox="0 0 81.311 81.311">
  <defs>
    <clipPath id="clip-path">
      <rect id="Rectángulo_36627" data-name="Rectángulo 36627" width="81.311" height="81.311" fill="#fff" stroke="#707070" stroke-width="1"/>
    </clipPath>
  </defs>
  <g id="Grupo_85840" data-name="Grupo 85840" clip-path="url(#clip-path)">
    <g id="Grupo_85830" data-name="Grupo 85830" transform="translate(6.519 6.535)">
      <path id="Trazado_127370" data-name="Trazado 127370" d="M981.118-538.7a30,30,0,0,1-1.13-3.553c-.055-.245-.262-.29-.46-.352-.677-.209-1.349-.436-2.031-.629-.345-.1-.508-.23-.5-.646q.036-4.712,0-9.424a.575.575,0,0,1,.475-.671c.821-.259,1.867-.255,2.392-.88a6.908,6.908,0,0,0,.81-2.374.8.8,0,0,0,0-.182c-1.165,0-2.328,0-3.492,0a3.307,3.307,0,0,1-3.478-3.506c-.005-2.018-.01-4.036.007-6.053a.735.735,0,0,0-.464-.779,3.194,3.194,0,0,1-1.64-3.65,3.288,3.288,0,0,1,3.131-2.519,3.293,3.293,0,0,1,3.248,2.46,3.2,3.2,0,0,1-1.572,3.681.826.826,0,0,0-.517.885c.02,1.972.005,3.944.01,5.916,0,.979.391,1.36,1.383,1.364,1.284,0,2.569-.017,3.852.012a.618.618,0,0,0,.706-.464,2.78,2.78,0,0,1,.428-.856,2.356,2.356,0,0,0,0-3.181c-.667-.995-.582-1.052.253-1.886.584-.584,1.159-1.176,1.755-1.747.233-.223.309-.357.029-.634q-3.912-3.87-7.783-7.782c-.307-.311-.543-.193-.849-.107a3.255,3.255,0,0,1-3.652-1.382,3.273,3.273,0,0,1,.2-3.848,3.286,3.286,0,0,1,3.716-1.028,3.317,3.317,0,0,1,2.152,3.27c0,.069.015.151-.016.2-.567.963.119,1.47.7,2.051,2.456,2.439,4.9,4.9,7.384,7.39.86-.869,1.708-1.7,2.527-2.566.262-.276.47-.368.809-.135.28.192.644.272.9.484a2,2,0,0,0,2.753-.047.716.716,0,0,0,.356-.652c-.013-1.513,0-3.027-.009-4.54a1.12,1.12,0,0,0-1.274-1.263c-1.651-.009-3.3.014-4.953-.014a.785.785,0,0,0-.823.5,3.231,3.231,0,0,1-4,1.5,3.309,3.309,0,0,1-2.1-3.682,3.3,3.3,0,0,1,3.4-2.7A3.1,3.1,0,0,1,986.47-581a.781.781,0,0,0,.838.482c1.651-.022,3.3-.015,4.953-.008a3.3,3.3,0,0,1,3.457,3.458c.007,1.3,0,2.6,0,3.958a28.167,28.167,0,0,1,3.5-1.116c.275-.06.335-.266.4-.493.211-.7.445-1.394.649-2.1a.5.5,0,0,1,.57-.421q4.781.024,9.563,0a.5.5,0,0,1,.571.42c.2.7.437,1.4.648,2.1.068.226.13.421.4.5.791.214,1.575.451,2.4.691,0-1.2-.005-2.362,0-3.529a3.3,3.3,0,0,1,3.449-3.464c1.995-.008,3.99-.012,5.985.006a.878.878,0,0,0,.945-.534,3.192,3.192,0,0,1,3.689-1.551,3.3,3.3,0,0,1,2.441,3.194,3.294,3.294,0,0,1-2.473,3.169,3.191,3.191,0,0,1-3.673-1.586.826.826,0,0,0-.893-.5c-1.972.017-3.944,0-5.916.009-.947,0-1.345.393-1.351,1.325-.007,1.307.01,2.614-.01,3.921a.618.618,0,0,0,.405.677c.7.328,1.388.7,2.062,1.086a.671.671,0,0,0,.754.011c.618-.347,1.266-.64,1.879-.995a.552.552,0,0,1,.814.113c.7.753,1.477,1.444,2.171,2.206.342.376.51.227.782-.047q3.758-3.781,7.542-7.537a.848.848,0,0,0,.254-1,3.214,3.214,0,0,1,1.324-3.609,3.284,3.284,0,0,1,3.907.18,3.273,3.273,0,0,1,1.013,3.719,3.307,3.307,0,0,1-3.276,2.142.528.528,0,0,1-.2-.017c-.906-.486-1.419.063-2,.661q-3.465,3.54-7,7.005c-.345.34-.351.508,0,.833.758.7,1.459,1.46,2.2,2.173a.488.488,0,0,1,.1.7c-.339.6-.621,1.224-.966,1.816a1.015,1.015,0,0,0,0,1,1.83,1.83,0,0,0,2.2,1.264c1.137-.107,2.291-.018,3.438-.026.9-.006,1.313-.4,1.318-1.29.009-1.674-.011-3.348.013-5.021a.685.685,0,0,0-.455-.715,3.243,3.243,0,0,1-1.57-3.979,3.333,3.333,0,0,1,3.722-2.145,3.3,3.3,0,0,1,2.688,3.412,3.063,3.063,0,0,1-1.673,2.667.874.874,0,0,0-.526.95c.019,1.559.009,3.118.007,4.678a3.339,3.339,0,0,1-3.682,3.648c-1.215,0-2.43,0-3.721,0a36.445,36.445,0,0,1,1.131,3.584c.048.212.235.247.417.3.678.206,1.345.453,2.03.632a.593.593,0,0,1,.536.694q-.032,4.677,0,9.355c0,.4-.085.591-.5.724-.817.262-1.876.24-2.383.886a7.974,7.974,0,0,0-.832,2.534h3.352a3.334,3.334,0,0,1,3.655,3.675c0,1.972.009,3.944-.007,5.916a.685.685,0,0,0,.43.729,3.191,3.191,0,0,1,1.665,3.7,3.294,3.294,0,0,1-3.156,2.491,3.292,3.292,0,0,1-3.224-2.491,3.19,3.19,0,0,1,1.667-3.7.688.688,0,0,0,.43-.729c-.016-2.018,0-4.036-.01-6.054,0-.937-.4-1.329-1.343-1.334-1.307-.007-2.615.011-3.921-.01a.617.617,0,0,0-.665.423,22.287,22.287,0,0,1-1.058,2,.771.771,0,0,0,0,.878c.335.6.614,1.228.967,1.815a.549.549,0,0,1-.134.811c-.861.82-1.694,1.671-2.553,2.524,2.727,2.726,5.425,5.41,8.1,8.116.289.293.5.172.789.094a3.12,3.12,0,0,1,3.456,1.073,3.068,3.068,0,0,1,.41,3.533,3.151,3.151,0,0,1-3.122,1.843,3.256,3.256,0,0,1-2.981-4.17.853.853,0,0,0-.271-.994q-3.762-3.729-7.489-7.493c-.336-.34-.519-.433-.884-.023-.655.735-1.4,1.391-2.073,2.109a.587.587,0,0,1-.866.148c-.546-.331-1.153-.563-1.693-.9-.414-.261-.7-.141-1.118.022a1.714,1.714,0,0,0-1.189,2.037c.106,1.183.018,2.382.027,3.575.006.892.41,1.294,1.308,1.3,1.674.008,3.348-.008,5.022.011a.641.641,0,0,0,.673-.409,3.2,3.2,0,0,1,3.688-1.694,3.289,3.289,0,0,1,2.516,3.2,3.294,3.294,0,0,1-2.465,3.175,3.2,3.2,0,0,1-3.744-1.7.644.644,0,0,0-.685-.391c-1.674.015-3.348.012-5.022.006a3.308,3.308,0,0,1-3.494-3.491c-.006-1.284,0-2.567,0-3.917a32.117,32.117,0,0,1-3.534,1.119c-.241.053-.3.242-.36.448-.216.723-.455,1.438-.67,2.161a.462.462,0,0,1-.526.387q-4.815-.021-9.631,0c-.313,0-.463-.1-.524-.387a.957.957,0,0,0-.033-.134c-.288-.79-.261-1.84-.861-2.329a7.894,7.894,0,0,0-2.573-.871c0,1.174,0,2.309,0,3.443a3.32,3.32,0,0,1-3.555,3.569c-2,0-3.99.007-5.985,0a.728.728,0,0,0-.792.442,3.188,3.188,0,0,1-3.706,1.648,3.29,3.29,0,0,1-2.473-3.168,3.286,3.286,0,0,1,2.506-3.211,3.2,3.2,0,0,1,3.694,1.684.643.643,0,0,0,.667.418c2.041-.019,4.082,0,6.123-.011.9,0,1.31-.4,1.316-1.292.01-1.33-.012-2.66.012-3.99a.6.6,0,0,0-.441-.651,7.176,7.176,0,0,1-1.456-.76,1.521,1.521,0,0,0-1.973,0c-.526.345-1.139.9-1.691.778-.513-.111-.9-.8-1.346-1.223-.53-.5-.988-1.417-1.578-1.4-.521.015-1.02.891-1.522,1.393-2.141,2.139-4.274,4.287-6.429,6.413a.792.792,0,0,0-.236.943,3.24,3.24,0,0,1-1.464,3.735,3.286,3.286,0,0,1-4.04-.533,3.28,3.28,0,0,1-.485-3.99,3.235,3.235,0,0,1,3.733-1.466.8.8,0,0,0,.944-.233q3.774-3.814,7.589-7.588c.32-.316.32-.482,0-.784-.753-.7-1.456-1.463-2.2-2.175a.515.515,0,0,1-.112-.757c.337-.57.592-1.188.933-1.755a1.036,1.036,0,0,0,0-1.059,1.8,1.8,0,0,0-2.151-1.234c-1.159.112-2.337.018-3.506.028-.86.007-1.276.409-1.282,1.254-.011,1.7.009,3.394-.013,5.09a.64.64,0,0,0,.426.661,3.206,3.206,0,0,1,1.673,3.7,3.293,3.293,0,0,1-3.149,2.5,3.293,3.293,0,0,1-3.231-2.486,3.191,3.191,0,0,1,1.661-3.7.686.686,0,0,0,.435-.726c-.019-1.674-.014-3.348-.007-5.022a3.3,3.3,0,0,1,3.442-3.471C978.452-538.707,979.757-538.7,981.118-538.7Zm4.536-23.632c-.1.165-.192.322-.291.473A19.367,19.367,0,0,0,982.319-555c-.31,1.61-1.015,2.455-2.581,2.639-.491.058-.545.336-.539.757.022,1.49.006,2.981.01,4.471,0,.687-.223,1.526.091,2.019.338.53,1.263.522,1.937.72a.877.877,0,0,1,.708.774,23.664,23.664,0,0,0,2.625,6.97c.344.613,1.032,1.168.991,1.822a4.758,4.758,0,0,1-.923,1.888c-.232.381-.126.587.154.863q2.183,2.147,4.328,4.331c.266.271.463.355.811.141.485-.3,1.024-.512,1.511-.81a.743.743,0,0,1,.919.047,23.641,23.641,0,0,0,6.779,3.087c.682.189,1.563.155,2,.583a4.521,4.521,0,0,1,.732,2.027c.1.39.281.493.667.487,1.513-.022,3.027,0,4.54-.014.7-.007,1.579.283,2.064-.117.449-.37.538-1.225.693-1.887a.89.89,0,0,1,.826-.737,23.09,23.09,0,0,0,6.84-2.584c.631-.36,1.255-1,1.892-1.011s1.309.577,1.946.936a.526.526,0,0,0,.756-.116c1.071-1.1,2.169-2.177,3.252-3.266.484-.487,1.243-.923,1.362-1.491.127-.607-.524-1.259-.86-1.876a.871.871,0,0,1,.037-1.042,18.808,18.808,0,0,0,3.028-6.792c.313-1.632,1.027-2.5,2.628-2.679.453-.052.508-.326.5-.718-.019-1.513,0-3.027-.01-4.54,0-.683.214-1.546-.117-2s-1.213-.543-1.874-.7a.9.9,0,0,1-.75-.813,23.094,23.094,0,0,0-2.613-6.9c-.35-.612-.987-1.218-.989-1.828a4.566,4.566,0,0,1,.936-1.947c.21-.357.117-.55-.15-.809-1.053-1.023-2.081-2.07-3.121-3.106-.52-.517-.978-1.319-1.588-1.46-.65-.151-1.334.562-2,.9a.73.73,0,0,1-.86-.051,23.52,23.52,0,0,0-6.777-3.093c-.7-.194-1.6-.179-2.057-.621a4.46,4.46,0,0,1-.719-2.036c-.1-.372-.277-.451-.625-.449q-3.1.02-6.191,0c-.378,0-.582.074-.672.479-.114.511-.361.995-.456,1.508s-.4.679-.872.775a22.891,22.891,0,0,0-6.835,2.595c-.613.352-1.215.995-1.827,1-.649.006-1.317-.563-1.949-.929a.556.556,0,0,0-.812.126c-1.264,1.3-2.554,2.57-3.834,3.851-.883.883-.883.882-.3,2.005C985.21-563.193,985.43-562.766,985.655-562.332Zm-10.86-18.19a1.107,1.107,0,0,0-1.088,1.091,1.108,1.108,0,0,0,1.073,1.106,1.109,1.109,0,0,0,1.123-1.125A1.108,1.108,0,0,0,974.794-580.522Zm8.809,0a1.107,1.107,0,0,0-1.091,1.088,1.108,1.108,0,0,0,1.07,1.109,1.109,1.109,0,0,0,1.126-1.122A1.108,1.108,0,0,0,983.6-580.522Zm44.031,2.2a1.11,1.11,0,0,0,1.1-1.077,1.109,1.109,0,0,0-1.059-1.12,1.107,1.107,0,0,0-1.137,1.111A1.108,1.108,0,0,0,1027.635-578.325Zm8.834-2.2a1.108,1.108,0,0,0-1.121,1.059,1.11,1.11,0,0,0,1.041,1.138,1.11,1.11,0,0,0,1.156-1.093A1.108,1.108,0,0,0,1036.469-580.522ZM975.9-570.6a1.109,1.109,0,0,0-1.066-1.113,1.11,1.11,0,0,0-1.13,1.049,1.109,1.109,0,0,0,1.1,1.148A1.109,1.109,0,0,0,975.9-570.6Zm60.537-1.113a1.108,1.108,0,0,0-1.092,1.088,1.108,1.108,0,0,0,1.07,1.109,1.109,1.109,0,0,0,1.126-1.122A1.108,1.108,0,0,0,1036.439-571.717ZM975.9-526.562a1.11,1.11,0,0,0-1.051-1.129,1.111,1.111,0,0,0-1.145,1.034,1.109,1.109,0,0,0,1.084,1.163A1.11,1.11,0,0,0,975.9-526.562Zm60.527-1.129a1.107,1.107,0,0,0-1.081,1.1,1.108,1.108,0,0,0,1.148,1.1,1.112,1.112,0,0,0,1.047-1.132A1.109,1.109,0,0,0,1036.429-527.691Zm-61.636,11a1.11,1.11,0,0,0,1.109-1.071,1.11,1.11,0,0,0-1.053-1.126,1.107,1.107,0,0,0-1.143,1.1A1.108,1.108,0,0,0,974.793-516.689Zm9.916-1.091a1.109,1.109,0,0,0-1.073-1.106,1.108,1.108,0,0,0-1.123,1.056,1.108,1.108,0,0,0,1.107,1.141A1.11,1.11,0,0,0,984.708-517.78Zm44.03-.032a1.108,1.108,0,0,0-1.106-1.074,1.108,1.108,0,0,0-1.09,1.157,1.112,1.112,0,0,0,1.139,1.04A1.111,1.111,0,0,0,1028.738-517.812Zm8.806.036a1.109,1.109,0,0,0-1.07-1.11,1.109,1.109,0,0,0-1.126,1.053,1.109,1.109,0,0,0,1.1,1.144A1.11,1.11,0,0,0,1037.544-517.776Z" transform="translate(-971.501 582.726)" fill="#030202"/>
      <path id="Trazado_127371" data-name="Trazado 127371" d="M1005.7-542.114c-.224-.435-.444-.861-.665-1.287-.583-1.123-.583-1.123.3-2.005,1.281-1.281,2.571-2.553,3.834-3.851a.556.556,0,0,1,.812-.126c.632.366,1.3.935,1.949.929.612-.006,1.214-.649,1.827-1a22.894,22.894,0,0,1,6.835-2.595c.47-.1.774-.249.872-.775s.343-1,.456-1.507c.09-.406.295-.483.673-.479q3.1.026,6.191,0c.348,0,.528.077.625.449a4.459,4.459,0,0,0,.719,2.035c.462.441,1.355.427,2.057.621a23.512,23.512,0,0,1,6.777,3.093.731.731,0,0,0,.86.051c.663-.343,1.346-1.055,2-.9.61.141,1.068.943,1.588,1.46,1.04,1.035,2.068,2.083,3.121,3.106.267.259.36.452.15.809a4.569,4.569,0,0,0-.937,1.947c0,.61.638,1.217.989,1.828a23.083,23.083,0,0,1,2.613,6.9.9.9,0,0,0,.75.813c.661.16,1.542.25,1.874.7s.114,1.316.118,2c.008,1.514-.009,3.027.01,4.54,0,.392-.05.666-.5.718-1.6.182-2.314,1.048-2.628,2.679a18.808,18.808,0,0,1-3.028,6.792.871.871,0,0,0-.037,1.042c.336.618.987,1.269.86,1.877-.119.567-.877,1-1.362,1.491-1.084,1.089-2.182,2.164-3.252,3.266a.526.526,0,0,1-.756.116c-.637-.36-1.3-.948-1.946-.936s-1.26.651-1.892,1.011a23.093,23.093,0,0,1-6.84,2.584.89.89,0,0,0-.826.737c-.155.663-.244,1.518-.693,1.887-.486.4-1.36.11-2.064.117-1.513.016-3.027-.008-4.54.014-.386.006-.563-.1-.667-.487a4.52,4.52,0,0,0-.732-2.028c-.441-.428-1.322-.394-2-.583a23.646,23.646,0,0,1-6.779-3.087.743.743,0,0,0-.919-.047c-.487.3-1.026.51-1.511.81-.348.215-.545.13-.811-.141q-2.143-2.185-4.328-4.331c-.28-.276-.386-.482-.154-.863a4.76,4.76,0,0,0,.923-1.888c.041-.654-.647-1.209-.991-1.822a23.657,23.657,0,0,1-2.625-6.97.877.877,0,0,0-.708-.774c-.674-.2-1.6-.189-1.937-.72-.314-.493-.089-1.333-.091-2.019,0-1.491.013-2.981-.01-4.471-.006-.421.048-.7.539-.757,1.566-.184,2.271-1.029,2.581-2.639a19.364,19.364,0,0,1,3.045-6.861C1005.508-541.792,1005.6-541.949,1005.7-542.114Zm19.956-8.286a22.047,22.047,0,0,0-22,21.991,22.052,22.052,0,0,0,22.028,22.035,22.053,22.053,0,0,0,22-21.994A22.049,22.049,0,0,0,1025.656-550.4Z" transform="translate(-991.546 562.508)" fill="#f4d47d"/>
      <path id="Trazado_127372" data-name="Trazado 127372" d="M980.586-574.733a1.109,1.109,0,0,1,1.108,1.071,1.109,1.109,0,0,1-1.123,1.126,1.108,1.108,0,0,1-1.073-1.106A1.107,1.107,0,0,1,980.586-574.733Z" transform="translate(-977.293 576.937)" fill="#e3816e"/>
      <path id="Trazado_127373" data-name="Trazado 127373" d="M1012.526-574.733a1.108,1.108,0,0,1,1.105,1.075,1.11,1.11,0,0,1-1.126,1.122,1.108,1.108,0,0,1-1.07-1.109A1.107,1.107,0,0,1,1012.526-574.733Z" transform="translate(-1000.424 576.937)" fill="#e3816e"/>
      <path id="Trazado_127374" data-name="Trazado 127374" d="M1172.21-572.538a1.108,1.108,0,0,1-1.093-1.086,1.107,1.107,0,0,1,1.137-1.111,1.109,1.109,0,0,1,1.059,1.12A1.11,1.11,0,0,1,1172.21-572.538Z" transform="translate(-1116.076 576.939)" fill="#e3816e"/>
      <path id="Trazado_127375" data-name="Trazado 127375" d="M1204.172-574.734a1.109,1.109,0,0,1,1.076,1.1,1.11,1.11,0,0,1-1.156,1.093,1.111,1.111,0,0,1-1.041-1.138A1.108,1.108,0,0,1,1204.172-574.734Z" transform="translate(-1139.204 576.938)" fill="#e3816e"/>
      <path id="Trazado_127376" data-name="Trazado 127376" d="M981.691-541.688a1.11,1.11,0,0,1-1.1,1.084,1.109,1.109,0,0,1-1.1-1.148,1.11,1.11,0,0,1,1.13-1.049A1.109,1.109,0,0,1,981.691-541.688Z" transform="translate(-977.289 553.81)" fill="#e3816e"/>
      <path id="Trazado_127377" data-name="Trazado 127377" d="M1204.144-542.8a1.109,1.109,0,0,1,1.1,1.075,1.11,1.11,0,0,1-1.126,1.122,1.108,1.108,0,0,1-1.07-1.109A1.108,1.108,0,0,1,1204.144-542.8Z" transform="translate(-1139.206 553.809)" fill="#e3816e"/>
      <path id="Trazado_127378" data-name="Trazado 127378" d="M981.691-382.006a1.11,1.11,0,0,1-1.112,1.068A1.109,1.109,0,0,1,979.5-382.1a1.111,1.111,0,0,1,1.145-1.034A1.11,1.11,0,0,1,981.691-382.006Z" transform="translate(-977.29 438.17)" fill="#e3816e"/>
      <path id="Trazado_127379" data-name="Trazado 127379" d="M1204.135-383.132a1.109,1.109,0,0,1,1.115,1.065,1.112,1.112,0,0,1-1.048,1.132,1.108,1.108,0,0,1-1.148-1.1A1.107,1.107,0,0,1,1204.135-383.132Z" transform="translate(-1139.207 438.167)" fill="#e3816e"/>
      <path id="Trazado_127380" data-name="Trazado 127380" d="M980.585-349A1.108,1.108,0,0,1,979.5-350.1a1.107,1.107,0,0,1,1.143-1.1,1.11,1.11,0,0,1,1.053,1.126A1.11,1.11,0,0,1,980.585-349Z" transform="translate(-977.293 415.041)" fill="#e3816e"/>
      <path id="Trazado_127381" data-name="Trazado 127381" d="M1013.629-350.093a1.11,1.11,0,0,1-1.09,1.091,1.108,1.108,0,0,1-1.106-1.141,1.108,1.108,0,0,1,1.123-1.056A1.109,1.109,0,0,1,1013.629-350.093Z" transform="translate(-1000.422 415.039)" fill="#e3816e"/>
      <path id="Trazado_127382" data-name="Trazado 127382" d="M1173.31-350.124a1.112,1.112,0,0,1-1.057,1.123,1.112,1.112,0,0,1-1.139-1.04,1.108,1.108,0,0,1,1.09-1.157A1.108,1.108,0,0,1,1173.31-350.124Z" transform="translate(-1116.073 415.038)" fill="#e3816e"/>
      <path id="Trazado_127383" data-name="Trazado 127383" d="M1205.247-350.089a1.11,1.11,0,0,1-1.093,1.087,1.108,1.108,0,0,1-1.1-1.144,1.109,1.109,0,0,1,1.126-1.053A1.108,1.108,0,0,1,1205.247-350.089Z" transform="translate(-1139.204 415.039)" fill="#e3816e"/>
      <path id="Trazado_127384" data-name="Trazado 127384" d="M1037.419-538.814a22.049,22.049,0,0,1,22.029,22.032,22.053,22.053,0,0,1-22,21.994,22.053,22.053,0,0,1-22.028-22.034A22.048,22.048,0,0,1,1037.419-538.814Zm.015,20.911c2.016,0,4.031-.009,6.047.008.391,0,.566-.05.539-.515a62.867,62.867,0,0,0-.644-6.763c-.06-.361-.187-.439-.516-.438q-5.428.013-10.857,0c-.332,0-.454.084-.514.441a61.733,61.733,0,0,0-.644,6.764c-.026.469.155.515.542.512C1033.4-517.911,1035.419-517.9,1037.435-517.9Zm-.017,2.2c-2.016,0-4.031.011-6.047-.01-.419,0-.547.094-.523.532a63.436,63.436,0,0,0,.632,6.7c.071.436.238.493.611.492q5.325-.017,10.651,0c.4,0,.577-.055.652-.524a65.785,65.785,0,0,0,.624-6.628c.027-.46-.105-.573-.554-.568C1041.449-515.687,1039.433-515.7,1037.417-515.7Zm-14.233,0c-1.672,0-3.344,0-5.016,0-.314,0-.489.015-.457.432a19.776,19.776,0,0,0,1.827,6.921.535.535,0,0,0,.568.361c2.931-.011,5.863-.015,8.794,0,.418,0,.435-.155.378-.484a47.724,47.724,0,0,1-.617-6.695c-.014-.475-.183-.549-.6-.543C1026.436-515.688,1024.81-515.7,1023.184-515.7Zm-.063-2.2c1.649,0,3.3-.013,4.947.009.426.006.578-.086.593-.55a45.755,45.755,0,0,1,.624-6.694c.08-.447-.1-.477-.458-.475q-4.328.016-8.657,0a.618.618,0,0,0-.661.43,19.849,19.849,0,0,0-1.788,6.722c-.039.46.067.577.522.57C1019.869-517.918,1021.495-517.9,1023.121-517.9Zm28.55,0c1.672,0,3.344-.011,5.016.008.387,0,.5-.083.464-.493a19.828,19.828,0,0,0-1.818-6.854.532.532,0,0,0-.56-.372q-4.4.018-8.794,0c-.39,0-.456.121-.394.472a48.9,48.9,0,0,1,.626,6.763c.014.391.135.491.513.487C1048.373-517.914,1050.022-517.9,1051.671-517.9Zm.01,2.2c-1.626,0-3.252.013-4.878-.009-.419-.005-.583.074-.6.546a46.012,46.012,0,0,1-.623,6.693c-.079.441.088.481.455.48q4.328-.017,8.657,0a.616.616,0,0,0,.663-.425,19.93,19.93,0,0,0,1.787-6.722c.038-.448-.049-.582-.516-.575C1054.979-515.683,1053.329-515.7,1051.681-515.7Zm-14.274-12.108c1.651,0,3.3-.006,4.953.005.332,0,.513-.024.4-.441a24.183,24.183,0,0,0-2.026-5.453,7.647,7.647,0,0,0-1.7-2.225,2.206,2.206,0,0,0-3.21.011,6.974,6.974,0,0,0-1.425,1.753,22.736,22.736,0,0,0-2.3,5.93c-.12.444.121.425.425.423C1034.151-527.812,1035.779-527.808,1037.407-527.808Zm.076,22.014c-1.651,0-3.3.008-4.953-.006-.376,0-.535.041-.414.486a25.113,25.113,0,0,0,1.875,5.146,8.721,8.721,0,0,0,1.573,2.24,2.333,2.333,0,0,0,3.719.021,7.679,7.679,0,0,0,1.282-1.694,23.326,23.326,0,0,0,2.2-5.75c.109-.407-.05-.451-.394-.448C1040.739-505.787,1039.111-505.794,1037.483-505.794Zm4.359-30.315a23.067,23.067,0,0,1,3.14,7.817c.094.406.262.5.645.492,1.808-.018,3.616-.008,5.424-.008h2.849A20.1,20.1,0,0,0,1041.842-536.109Zm-8.826,0a20.061,20.061,0,0,0-12.043,8.3h7.362c1.39,0,1.4,0,1.748-1.34A22.579,22.579,0,0,1,1033.016-536.109Zm20.887,30.314c-2.9,0-5.642,0-8.386-.006-.305,0-.443.088-.514.4a23.314,23.314,0,0,1-3.153,7.906A20.122,20.122,0,0,0,1053.9-505.795Zm-21.019,8.266c0-.1.016-.15,0-.178a22.951,22.951,0,0,1-3-7.6c-.094-.405-.26-.5-.644-.494-1.4.021-2.792.009-4.188.009h-4.085A20.028,20.028,0,0,0,1032.884-497.529Z" transform="translate(-1003.309 550.922)" fill="#020202"/>
      <path id="Trazado_127385" data-name="Trazado 127385" d="M1077.95-483.225c-2.016,0-4.031-.008-6.047.007-.387,0-.568-.044-.542-.512a61.791,61.791,0,0,1,.644-6.763c.06-.357.182-.441.514-.441q5.429.014,10.857,0c.329,0,.456.077.516.438a62.9,62.9,0,0,1,.644,6.763c.026.465-.148.518-.539.515C1081.981-483.233,1079.966-483.225,1077.95-483.225Z" transform="translate(-1043.825 516.244)" fill="#83d2ee"/>
      <path id="Trazado_127386" data-name="Trazado 127386" d="M1077.937-455.015c2.016,0,4.031.013,6.047-.01.448-.005.58.108.554.568a65.855,65.855,0,0,1-.624,6.628c-.076.47-.256.526-.653.524q-5.326-.018-10.651,0c-.373,0-.54-.055-.611-.492a63.533,63.533,0,0,1-.631-6.7c-.024-.438.1-.537.522-.532C1073.906-455,1075.921-455.015,1077.937-455.015Z" transform="translate(-1043.829 490.236)" fill="#83d2ee"/>
      <path id="Trazado_127387" data-name="Trazado 127387" d="M1029.2-455.011c1.626,0,3.252.012,4.878-.008.416-.006.585.069.6.543a47.763,47.763,0,0,0,.617,6.695c.056.329.04.486-.378.484-2.932-.018-5.863-.014-8.794,0a.536.536,0,0,1-.568-.361,19.784,19.784,0,0,1-1.827-6.921c-.031-.417.144-.434.457-.432C1025.852-455.007,1027.524-455.011,1029.2-455.011Z" transform="translate(-1009.321 490.233)" fill="#83d3ee"/>
      <path id="Trazado_127388" data-name="Trazado 127388" d="M1029.147-483.23c-1.626,0-3.252-.016-4.878.01-.456.007-.562-.109-.522-.57a19.849,19.849,0,0,1,1.788-6.722.618.618,0,0,1,.661-.43q4.328.02,8.657,0c.359,0,.538.028.458.475a45.755,45.755,0,0,0-.624,6.693c-.014.464-.167.556-.593.55C1032.445-483.243,1030.8-483.23,1029.147-483.23Z" transform="translate(-1009.335 516.249)" fill="#83d3ee"/>
      <path id="Trazado_127389" data-name="Trazado 127389" d="M1130.852-483.233c-1.649,0-3.3-.011-4.947.009-.378,0-.5-.1-.513-.487a48.957,48.957,0,0,0-.627-6.763c-.061-.351,0-.473.394-.471q4.4.024,8.794,0a.532.532,0,0,1,.56.372,19.824,19.824,0,0,1,1.818,6.854c.032.41-.077.5-.464.493C1134.2-483.244,1132.524-483.233,1130.852-483.233Z" transform="translate(-1082.491 516.252)" fill="#83d3ee"/>
      <path id="Trazado_127390" data-name="Trazado 127390" d="M1130.86-455.018c1.649,0,3.3.017,4.946-.011.467-.008.554.126.516.575a19.942,19.942,0,0,1-1.787,6.722.616.616,0,0,1-.663.425q-4.328-.019-8.657,0c-.367,0-.533-.039-.455-.48a45.978,45.978,0,0,0,.623-6.693c.015-.472.178-.551.6-.546C1127.608-455,1129.234-455.018,1130.86-455.018Z" transform="translate(-1082.489 490.24)" fill="#83d3ee"/>
      <path id="Trazado_127391" data-name="Trazado 127391" d="M1081.136-522.018c-1.628,0-3.256,0-4.884,0-.3,0-.544.021-.425-.423a22.749,22.749,0,0,1,2.3-5.93,6.982,6.982,0,0,1,1.425-1.753,2.206,2.206,0,0,1,3.211-.011,7.643,7.643,0,0,1,1.7,2.225,24.167,24.167,0,0,1,2.026,5.453c.112.417-.069.444-.4.441C1084.438-522.024,1082.787-522.018,1081.136-522.018Z" transform="translate(-1047.038 545.132)" fill="#83d2ee"/>
      <path id="Trazado_127392" data-name="Trazado 127392" d="M1081.236-419.08c1.628,0,3.256.007,4.884-.006.345,0,.5.041.394.448a23.316,23.316,0,0,1-2.2,5.75,7.686,7.686,0,0,1-1.282,1.694,2.333,2.333,0,0,1-3.719-.021,8.727,8.727,0,0,1-1.573-2.24,25.135,25.135,0,0,1-1.875-5.146c-.12-.445.038-.489.415-.486C1077.933-419.072,1079.585-419.08,1081.236-419.08Z" transform="translate(-1047.062 464.208)" fill="#83d2ee"/>
      <path id="Trazado_127393" data-name="Trazado 127393" d="M1111.247-529.005a20.094,20.094,0,0,1,12.058,8.3h-2.849c-1.808,0-3.616-.01-5.424.008-.383,0-.551-.086-.645-.492A23.072,23.072,0,0,0,1111.247-529.005Z" transform="translate(-1072.714 543.818)" fill="#82d1ed"/>
      <path id="Trazado_127394" data-name="Trazado 127394" d="M1047.606-529a22.586,22.586,0,0,0-2.934,6.961c-.35,1.342-.357,1.34-1.747,1.34h-7.362A20.062,20.062,0,0,1,1047.606-529Z" transform="translate(-1017.899 543.817)" fill="#82d1ed"/>
      <path id="Trazado_127395" data-name="Trazado 127395" d="M1123.33-419.079a20.122,20.122,0,0,1-12.052,8.3,23.32,23.32,0,0,0,3.153-7.906c.07-.308.208-.4.513-.4C1117.688-419.075,1120.432-419.079,1123.33-419.079Z" transform="translate(-1072.737 464.207)" fill="#82d1ed"/>
      <path id="Trazado_127396" data-name="Trazado 127396" d="M1047.459-410.821a20.027,20.027,0,0,1-11.916-8.266h4.085c1.4,0,2.792.013,4.188-.008.384-.006.551.088.644.493a22.951,22.951,0,0,0,3,7.6C1047.476-410.971,1047.459-410.921,1047.459-410.821Z" transform="translate(-1017.884 464.214)" fill="#82d1ed"/>
    </g>
  </g>
</svg>
