<svg id="Grupo_81330" data-name="Grupo 81330" xmlns="http://www.w3.org/2000/svg" width="67" height="105" viewBox="0 0 67 105">
  <rect id="Rectángulo_34185" data-name="Rectángulo 34185" width="67" height="105" rx="5" fill="#fff"/>
  <g id="Grupo_84758" data-name="Grupo 84758" transform="translate(9.8 8.53)">
    <path id="Trazado_123667" data-name="Trazado 123667" d="M787.453,232.8c.177-.458.333-.906.519-1.341a12.986,12.986,0,1,1,14.588,17.832c-.262.054-.373.13-.366.421.021.859.024,1.72,0,2.579-.009.312.1.361.376.357,1.258-.015,2.516.012,3.773-.017.395-.009.459.123.453.475-.02,1.21.018,2.421-.021,3.629-.014.446.133.511.527.5,1.066-.027,2.133-.013,3.2-.008a2.288,2.288,0,0,1,2.4,2.4q.009,2.962,0,5.923a2.292,2.292,0,0,1-2.377,2.376c-.111,0-.223,0-.334,0-1.207,0-1.287.1-1.112,1.33.019.131.04.21.189.2a1.663,1.663,0,0,1,.239,0c.359.026.908-.16,1.036.075.182.333.058.831.07,1.258,0,.139-.043.209-.189.2-.063-.005-.127,0-.191,0-2.8,0-5.6,0-8.407.007-.3,0-.432-.066-.39-.387.048-.373-.164-.873.088-1.09.213-.183.7-.075,1.06-.052.312.02.395-.076.393-.389-.007-1.146.006-1.146-1.156-1.146a2.345,2.345,0,0,1-2.674-2.655v-2.961a1.2,1.2,0,0,1,0-.191c.042-.258-.074-.317-.317-.313-.812.014-1.624.017-2.436,0-.261-.006-.313.084-.311.324.011,1.13.009,2.261,0,3.391a2.3,2.3,0,0,1-2.4,2.406H793.4c-1.272,0-1.266,0-1.145,1.3.018.2.085.236.258.231.318-.01.637.009.955-.007.231-.011.324.035.331.3.03,1.229.041,1.229-1.17,1.229-2.532,0-5.063-.006-7.595.008-.32,0-.461-.054-.422-.406s-.107-.837.076-1.056.687-.082,1.046-.066c.326.015.429-.064.424-.409-.016-1.128,0-1.185-1.127-1.114a2.441,2.441,0,0,1-2.716-2.735c.065-.951.012-1.91.012-2.865a1.243,1.243,0,0,1,0-.191c.042-.267-.062-.35-.335-.344q-1.194.028-2.388,0c-.27-.006-.345.072-.342.342.015,1.114.01,2.229.005,3.343a2.3,2.3,0,0,1-2.415,2.436c-.382,0-.765.012-1.146,0-.216-.01-.272.068-.264.272.016.4-.138.9.052,1.164.205.281.741.092,1.128.086.309-.005.359.1.359.378,0,1.163.01,1.163-1.139,1.163-2.531,0-5.063-.005-7.595.007-.325,0-.468-.031-.458-.423.028-1.109.005-1.122,1.1-1.105.332,0,.464-.043.455-.426-.026-1.109-.005-1.107-1.1-1.111a3.869,3.869,0,0,1-.949-.06,2.27,2.27,0,0,1-1.779-2.2q-.02-3.081,0-6.162a2.271,2.271,0,0,1,2.281-2.275c1.13-.014,2.261-.017,3.391,0,.343.007.457-.059.449-.432-.028-1.257,0-2.515-.017-3.773,0-.3.06-.4.384-.4,1.273.021,2.548,0,3.821.015.3,0,.407-.062.4-.385-.026-.763-.023-1.529,0-2.292.009-.306-.07-.393-.387-.4a13.156,13.156,0,0,1-3.325-.181,5.345,5.345,0,0,1,.4-10.4c.249-.044.385-.1.444-.382a9.117,9.117,0,0,1,13.843-5.95C787.272,232.705,787.356,232.746,787.453,232.8Zm2.51,8.175c0-.3.01-.571,0-.837a7.637,7.637,0,0,0-15.252-.245c-.036.461-.153.559-.605.539a3.814,3.814,0,1,0-.114,7.621q6.615.012,13.229,0c1.735,0,3.471.029,5.206-.012a3.814,3.814,0,1,0-.86-7.559C791.035,240.585,790.553,240.84,789.964,240.974Zm.008,12.4c0,1.146.012,2.291-.008,3.436-.006.322.058.432.406.424,1.145-.024,2.291-.018,3.437-.006a2.216,2.216,0,0,1,1.916,1.063,2.314,2.314,0,0,1,.366,1.31c0,.68.005.68.7.68h1.718c.631,0,.631,0,.634-.609a2.3,2.3,0,0,1,2.447-2.448c1.082,0,2.164-.02,3.245.01.374.01.444-.106.432-.449-.027-.747-.027-1.5,0-2.243.012-.326-.1-.387-.4-.383-1.273.016-2.546-.005-3.818.015-.321,0-.389-.093-.385-.4.017-1.288,0-2.577.015-3.866,0-.3-.073-.365-.369-.35a11.491,11.491,0,0,1-4.226-.581,1.576,1.576,0,0,0-1.588.091,2.945,2.945,0,0,1-.934.334,12.653,12.653,0,0,1-3.229.165c-.286.005-.376.061-.37.364C789.984,251.084,789.972,252.23,789.972,253.375Zm-6.831-3.792c-1.672,0-3.343.008-5.014-.007-.309,0-.4.074-.392.389.019,1.273,0,2.547.015,3.82,0,.309-.074.4-.389.392-1.289-.019-2.579,0-3.868-.014-.268,0-.349.067-.343.34.018.78.022,1.56,0,2.34-.009.312.077.4.39.391,1.146-.02,2.292-.017,3.438,0a2.273,2.273,0,0,1,2.253,1.887,3.677,3.677,0,0,1,.035.856c-.013.252.067.323.318.317.7-.017,1.4-.006,2.1-.006.64,0,.64,0,.644-.646a2.3,2.3,0,0,1,2.438-2.41c1.1,0,2.2-.013,3.295.007.314.006.391-.083.389-.392q-.02-3.438,0-6.876c0-.312-.08-.393-.391-.39C786.42,249.592,784.781,249.584,783.141,249.584Zm-10.754,13.757c1.655,0,3.311-.008,4.966.007.307,0,.4-.072.4-.39-.021-1.1,0-2.2-.01-3.295,0-.624-.282-.906-.9-.906q-4.441-.006-8.882,0c-.643,0-.91.283-.912.946,0,1.066.014,2.133-.01,3.2-.008.347.067.454.436.449C769.108,263.328,770.748,263.341,772.388,263.341Zm16.82,0c1.655,0,3.311-.009,4.966.007.314,0,.4-.083.392-.394-.019-1.1,0-2.2-.009-3.295,0-.622-.283-.9-.907-.9q-4.441-.005-8.882,0c-.625,0-.9.28-.908.9-.006,1.1.01,2.2-.009,3.295-.005.309.075.4.391.4C785.9,263.333,787.552,263.341,789.207,263.341Zm16.819,0c1.656,0,3.311-.009,4.966.008.319,0,.394-.092.389-.4-.018-1.1,0-2.2-.009-3.295,0-.62-.284-.9-.91-.9q-4.441-.005-8.882,0c-.624,0-.9.281-.905.9-.006,1.1.01,2.2-.009,3.295-.006.314.083.395.394.392C802.715,263.333,804.371,263.341,806.026,263.341Zm-6.115-27.515c1.655,0,3.31,0,4.965,0,.227,0,.389.01.365-.315a26.752,26.752,0,0,0-.544-3.964c-.061-.269-.183-.314-.422-.313q-4.369.009-8.737,0c-.29,0-.366.108-.426.368a26.709,26.709,0,0,0-.526,3.726c-.034.383.03.517.456.509C796.664,235.809,798.287,235.826,799.911,235.826Zm-.008,1.529c-1.653,0-3.307.006-4.96-.006-.291,0-.39.059-.346.369.07.5.1,1.012.13,1.519a.448.448,0,0,0,.26.407,5.1,5.1,0,0,1,1.96,2.031.429.429,0,0,0,.434.272q3.458-.014,6.916,0c.259,0,.347-.084.4-.334a26.729,26.729,0,0,0,.541-3.912c.027-.338-.121-.35-.378-.349C803.209,237.359,801.556,237.355,799.9,237.355Zm4.226-7.662a10.7,10.7,0,0,0-1.211-2.5,5.357,5.357,0,0,0-1.5-1.579,2.446,2.446,0,0,0-2.662-.193c-1.687.929-2.4,2.566-3.077,4.271Zm.016,13.777c-2.151,0-4.22.006-6.29-.007-.306,0-.273.137-.258.347a5.3,5.3,0,0,1-.92,3.434c-.061.09-.151.169-.126.306a12.045,12.045,0,0,0,3.043.507,3.061,3.061,0,0,0,2.3-.864A9.149,9.149,0,0,0,804.145,243.469Zm4.839-7.643c.683,0,1.367-.009,2.05,0,.233,0,.293-.057.272-.3a11.4,11.4,0,0,0-1.14-4.051.38.38,0,0,0-.4-.248c-1.1.009-2.193.007-3.289,0-.2,0-.291.024-.235.261a21.564,21.564,0,0,1,.51,4.009c.012.285.128.329.374.323C807.745,235.816,808.365,235.826,808.984,235.826Zm-.838,6.115c.524,0,1.049-.013,1.573.006a.435.435,0,0,0,.47-.293,11.608,11.608,0,0,0,1.114-3.962c.027-.284-.049-.345-.319-.342q-1.93.019-3.861,0c-.249,0-.359.043-.372.325a21.591,21.591,0,0,1-.51,4.008c-.056.239.044.262.238.26C807.035,241.936,807.591,241.941,808.147,241.941Zm-16.453-10.7c-.525,0-1.051.018-1.575-.007a.461.461,0,0,0-.5.319,13.724,13.724,0,0,0-.768,2.048.463.463,0,0,0,.119.515,7.139,7.139,0,0,1,1.134,1.468.457.457,0,0,0,.461.249c.716-.014,1.432-.018,2.147,0,.271.007.346-.079.358-.343a21.043,21.043,0,0,1,.5-3.967c.063-.261-.034-.291-.253-.286C792.776,231.247,792.235,231.24,791.694,231.24Zm14.342,33.63c-1.656,0-3.311,0-4.967.006-.132,0-.32-.112-.4.128a1,1,0,0,0,1.038,1.395h8.548c.9,0,1.1-.225,1.123-1.13.008-.353-.111-.408-.429-.405C809.316,264.879,807.676,264.87,806.036,264.87Zm-16.829,0c-1.656,0-3.311,0-4.967.006-.129,0-.317-.114-.385.14a1,1,0,0,0,1.054,1.382h8.5c.939,0,1.144-.219,1.156-1.144,0-.312-.081-.395-.393-.392C792.518,264.879,790.863,264.87,789.207,264.87Zm-16.781,0c-1.672,0-3.343,0-5.014.005-.128,0-.316-.11-.374.153-.194.864.192,1.37,1.069,1.37h8.548c.869,0,1.069-.23,1.1-1.108.013-.384-.123-.431-.456-.428C775.674,264.879,774.05,264.87,772.427,264.87Zm18.321-35.158h2.441c.841,0,.847,0,1.141-.784a15.586,15.586,0,0,1,1.549-3.023A11.246,11.246,0,0,0,790.747,229.712Zm18.314,0a11.682,11.682,0,0,0-5.239-3.882,13.4,13.4,0,0,1,1.878,3.689.243.243,0,0,0,.27.2C806.965,229.709,807.96,229.712,809.061,229.712Zm-5.121,17.549a11.062,11.062,0,0,0,5.111-3.792c-1.084,0-2.066.007-3.047-.006-.205,0-.275.093-.329.255A14.4,14.4,0,0,1,803.94,247.261Zm2.046,22.195h.428c1.159,0,1.144,0,1.147-1.155,0-.332-.116-.39-.407-.379-.57.02-1.141.006-1.712.006-.948,0-.924,0-.958.964-.016.438.068.64.552.572A6.9,6.9,0,0,1,805.986,269.456Zm-33.565-1.528h-.38c-1.224,0-1.216,0-1.184,1.21.006.242.059.333.316.324.522-.019,1.046-.006,1.569-.006,1.224,0,1.216,0,1.184-1.21-.007-.242-.058-.337-.316-.324C773.215,267.943,772.818,267.928,772.422,267.928Zm16.739,1.528h.428c1.185,0,1.185,0,1.148-1.192a.649.649,0,0,1,0-.1c.022-.186-.062-.245-.245-.244-.856.007-1.712,0-2.568,0-.138,0-.251.008-.245.194.013.425-.111.922.07,1.253.134.244.674.053,1.031.08C788.906,269.464,789.033,269.456,789.16,269.456Zm2.89-32.1c-.27,0-.54.007-.81,0-.189-.007-.259.045-.2.244a3.649,3.649,0,0,0,.41,1.287c.153.181.714.018,1.092.009a.146.146,0,0,1,.048,0c.541.18.569-.1.534-.537C793.041,237.356,793.058,237.354,792.05,237.354Z" transform="translate(-765.507 -223.61)" fill="#010101"/>
    <path id="Trazado_123668" data-name="Trazado 123668" d="M809.4,279.735c.589-.134,1.071-.39,1.6-.49a3.814,3.814,0,1,1,.86,7.559c-1.734.041-3.47.012-5.206.012q-6.615,0-13.229,0a3.814,3.814,0,1,1,.114-7.622c.452.02.569-.078.605-.539a7.637,7.637,0,0,1,15.252.245C809.411,279.164,809.4,279.431,809.4,279.735Zm-12.976.967a2.292,2.292,0,1,0,2.282,2.326A2.3,2.3,0,0,0,796.425,280.7Zm6.114,0a2.292,2.292,0,1,0,2.283,2.325A2.3,2.3,0,0,0,802.539,280.7Zm6.123,4.584a2.292,2.292,0,1,0-2.31-2.251A2.3,2.3,0,0,0,808.662,285.287Zm-6.9-11.485a1.253,1.253,0,0,1,0,.19c-.064.426.046.591.545.648a4.477,4.477,0,0,1,3.492,2.35c.162.277.133.75.466.811.292.053.627-.182.952-.244.359-.069.411-.222.273-.544a6.089,6.089,0,0,0-4.9-3.886C801.766,272.994,801.765,273,801.765,273.8Z" transform="translate(-784.943 -262.371)" fill="#e4e7ea"/>
    <path id="Trazado_123669" data-name="Trazado 123669" d="M778.845,412.063c-1.64,0-3.279-.013-4.919.01-.369.005-.444-.1-.436-.449.024-1.066.006-2.133.01-3.2,0-.663.27-.945.912-.946q4.441-.005,8.882,0c.622,0,.9.283.9.906.006,1.1-.011,2.2.01,3.295.006.318-.089.392-.4.39C782.155,412.055,780.5,412.063,778.845,412.063Z" transform="translate(-771.963 -372.331)" fill="#83d3ef"/>
    <path id="Trazado_123670" data-name="Trazado 123670" d="M866.83,412.063c-1.656,0-3.311-.009-4.966.008-.316,0-.4-.086-.391-.4.019-1.1,0-2.2.009-3.295,0-.622.283-.9.908-.9q4.441-.005,8.882,0c.624,0,.9.281.907.9.006,1.1-.01,2.2.009,3.295.005.311-.078.4-.392.394C870.141,412.054,868.486,412.063,866.83,412.063Z" transform="translate(-843.129 -372.331)" fill="#83d3ef"/>
    <path id="Trazado_123671" data-name="Trazado 123671" d="M954.806,412.063c-1.656,0-3.311-.008-4.966.007-.31,0-.4-.078-.394-.392.02-1.1,0-2.2.009-3.295,0-.623.281-.9.905-.9q4.441-.005,8.882,0c.626,0,.906.279.91.9.006,1.1-.009,2.2.009,3.295,0,.305-.07.4-.389.4C958.117,412.054,956.462,412.063,954.806,412.063Z" transform="translate(-914.287 -372.331)" fill="#83d3ef"/>
    <path id="Trazado_123672" data-name="Trazado 123672" d="M922.929,268.087c-1.623,0-3.247-.017-4.87.011-.426.007-.489-.126-.456-.509a26.7,26.7,0,0,1,.526-3.726c.06-.26.136-.369.426-.368q4.368.017,8.737,0c.24,0,.361.044.422.313a26.76,26.76,0,0,1,.544,3.964c.024.325-.137.316-.365.315C926.239,268.085,924.584,268.087,922.929,268.087Z" transform="translate(-888.525 -255.871)" fill="#83d3ee"/>
    <path id="Trazado_123673" data-name="Trazado 123673" d="M922.96,295.494c1.653,0,3.307,0,4.96,0,.257,0,.405.011.378.349a26.744,26.744,0,0,1-.541,3.912c-.058.25-.146.335-.4.334q-3.458-.014-6.915,0a.429.429,0,0,1-.434-.272,5.1,5.1,0,0,0-1.96-2.031.448.448,0,0,1-.26-.407c-.028-.507-.06-1.016-.13-1.519-.043-.31.056-.371.346-.369C919.653,295.5,921.307,295.494,922.96,295.494Z" transform="translate(-888.564 -281.749)" fill="#83d3ee"/>
    <path id="Trazado_123674" data-name="Trazado 123674" d="M931.79,236.056h-8.454c.675-1.7,1.39-3.342,3.077-4.271a2.446,2.446,0,0,1,2.662.193,5.358,5.358,0,0,1,1.5,1.579A10.7,10.7,0,0,1,931.79,236.056Z" transform="translate(-893.168 -229.973)" fill="#83d2ee"/>
    <path id="Trazado_123675" data-name="Trazado 123675" d="M935.5,327.479a9.15,9.15,0,0,1-2.251,3.722,3.061,3.061,0,0,1-2.3.864,12.047,12.047,0,0,1-3.043-.507c-.025-.137.065-.215.126-.306a5.3,5.3,0,0,0,.92-3.434c-.015-.21-.048-.349.258-.347C931.276,327.485,933.346,327.479,935.5,327.479Z" transform="translate(-896.858 -307.619)" fill="#83d2ee"/>
    <path id="Trazado_123676" data-name="Trazado 123676" d="M981.295,268.1c-.62,0-1.24-.01-1.859.005-.246.006-.361-.038-.374-.323a21.585,21.585,0,0,0-.51-4.009c-.056-.237.04-.262.235-.261,1.1.006,2.193.008,3.289,0a.38.38,0,0,1,.4.248,11.4,11.4,0,0,1,1.14,4.051c.021.238-.039.3-.272.3C982.661,268.089,981.978,268.1,981.295,268.1Z" transform="translate(-937.817 -255.882)" fill="#83d2ee"/>
    <path id="Trazado_123677" data-name="Trazado 123677" d="M980.455,300.081c-.556,0-1.112-.005-1.668,0-.193,0-.294-.021-.238-.26a21.586,21.586,0,0,0,.51-4.008c.013-.283.123-.327.372-.325q1.93.016,3.861,0c.27,0,.346.058.319.342a11.607,11.607,0,0,1-1.114,3.962.435.435,0,0,1-.47.293C981.5,300.068,980.98,300.081,980.455,300.081Z" transform="translate(-937.815 -281.75)" fill="#83d2ee"/>
    <path id="Trazado_123678" data-name="Trazado 123678" d="M890.336,263.495c.541,0,1.082.007,1.623,0,.219,0,.316.025.253.286a21.033,21.033,0,0,0-.5,3.967c-.012.263-.087.35-.357.343-.715-.019-1.432-.015-2.148,0a.457.457,0,0,1-.461-.249,7.14,7.14,0,0,0-1.134-1.468.463.463,0,0,1-.119-.515,13.725,13.725,0,0,1,.768-2.048.461.461,0,0,1,.5-.319C889.285,263.512,889.811,263.495,890.336,263.495Z" transform="translate(-864.148 -255.864)" fill="#83d2ee"/>
    <path id="Trazado_123679" data-name="Trazado 123679" d="M954.565,439.385c1.64,0,3.279.009,4.919-.007.318,0,.437.052.429.405-.021.906-.222,1.13-1.123,1.13h-8.548a1,1,0,0,1-1.039-1.395c.075-.24.263-.127.4-.128C951.254,439.382,952.909,439.385,954.565,439.385Z" transform="translate(-914.035 -398.124)" fill="#ccd0d7"/>
    <path id="Trazado_123680" data-name="Trazado 123680" d="M866.608,439.389c1.656,0,3.311.008,4.966-.008.312,0,.4.08.393.392-.011.924-.216,1.144-1.156,1.144h-8.5a1,1,0,0,1-1.054-1.382c.068-.254.256-.139.385-.14C863.3,439.386,864.952,439.389,866.608,439.389Z" transform="translate(-842.907 -398.128)" fill="#ccd0d7"/>
    <path id="Trazado_123681" data-name="Trazado 123681" d="M778.7,439.4c1.624,0,3.247.009,4.871-.007.333,0,.469.044.456.428-.03.878-.23,1.108-1.1,1.108h-8.548c-.876,0-1.263-.506-1.069-1.37.059-.263.246-.152.374-.153C775.357,439.395,777.028,439.4,778.7,439.4Z" transform="translate(-771.779 -398.137)" fill="#ccd0d7"/>
    <path id="Trazado_123682" data-name="Trazado 123682" d="M897.556,239.428a11.247,11.247,0,0,1,5.131-3.806,15.587,15.587,0,0,0-1.549,3.023c-.294.786-.3.784-1.141.784Z" transform="translate(-872.315 -233.326)" fill="#81d0eb"/>
    <path id="Trazado_123683" data-name="Trazado 123683" d="M971.2,239.106c-1.1,0-2.1,0-3.092,0a.243.243,0,0,1-.27-.2,13.4,13.4,0,0,0-1.878-3.689A11.681,11.681,0,0,1,971.2,239.106Z" transform="translate(-927.644 -233.004)" fill="#81d0eb"/>
    <path id="Trazado_123684" data-name="Trazado 123684" d="M966.578,331.275a14.4,14.4,0,0,0,1.735-3.543c.054-.163.123-.258.329-.255.982.013,1.963.006,3.047.006A11.062,11.062,0,0,1,966.578,331.275Z" transform="translate(-928.144 -307.623)" fill="#81d0eb"/>
    <path id="Trazado_123685" data-name="Trazado 123685" d="M970.92,456.964a6.9,6.9,0,0,0-.95.008c-.484.068-.568-.134-.552-.572.035-.963.01-.964.958-.964.571,0,1.142.014,1.712-.006.291-.01.408.047.407.379,0,1.154.011,1.155-1.147,1.155Z" transform="translate(-930.44 -411.118)" fill="#aab1bb"/>
    <path id="Trazado_123686" data-name="Trazado 123686" d="M795.027,455.437c.4,0,.793.016,1.189-.005.258-.014.31.082.316.324.032,1.21.04,1.21-1.184,1.21-.523,0-1.047-.014-1.569.006-.257.01-.31-.081-.316-.324-.032-1.21-.04-1.21,1.184-1.21Z" transform="translate(-788.111 -411.119)" fill="#aab1bb"/>
    <path id="Trazado_123687" data-name="Trazado 123687" d="M882.862,456.983c-.127,0-.254.008-.38,0-.357-.027-.9.164-1.031-.08-.181-.331-.057-.828-.07-1.253-.006-.186.107-.194.245-.194.856,0,1.712,0,2.568,0,.182,0,.267.057.245.244a.666.666,0,0,0,0,.095c.037,1.192.037,1.192-1.148,1.192Z" transform="translate(-859.208 -411.136)" fill="#aab1bb"/>
    <path id="Trazado_123688" data-name="Trazado 123688" d="M900.01,295.5c1.008,0,.991,0,1.073,1,.035.434.007.716-.534.537a.146.146,0,0,0-.048,0c-.377.008-.939.172-1.092-.009a3.646,3.646,0,0,1-.41-1.287c-.059-.2.011-.251.2-.244C899.47,295.512,899.74,295.505,900.01,295.5Z" transform="translate(-873.467 -281.76)" fill="#81d0eb"/>
    <path id="Trazado_123689" data-name="Trazado 123689" d="M815.831,319.515a2.292,2.292,0,1,1-2.3,2.257A2.3,2.3,0,0,1,815.831,319.515Zm.752,2.3a.763.763,0,1,0-.754.76A.769.769,0,0,0,816.583,321.81Z" transform="translate(-804.349 -301.183)" fill="#030303"/>
    <path id="Trazado_123690" data-name="Trazado 123690" d="M847.821,319.515a2.292,2.292,0,1,1-2.3,2.258A2.3,2.3,0,0,1,847.821,319.515Zm.753,2.285a.763.763,0,1,0-.744.77A.769.769,0,0,0,848.574,321.8Z" transform="translate(-830.225 -301.183)" fill="#030303"/>
    <path id="Trazado_123691" data-name="Trazado 123691" d="M879.819,324.1a2.292,2.292,0,1,1,2.274-2.287A2.3,2.3,0,0,1,879.819,324.1Zm.745-2.3a.763.763,0,1,0-.745.769A.769.769,0,0,0,880.564,321.8Z" transform="translate(-856.1 -301.183)" fill="#030303"/>
    <path id="Trazado_123692" data-name="Trazado 123692" d="M853.434,280.285c0-.8,0-.808.826-.675a6.089,6.089,0,0,1,4.9,3.886c.137.323.086.475-.273.544-.325.063-.66.3-.952.244-.333-.061-.3-.534-.466-.811a4.478,4.478,0,0,0-3.492-2.35c-.5-.057-.609-.222-.545-.648A1.261,1.261,0,0,0,853.434,280.285Z" transform="translate(-836.613 -268.853)" fill="#040404"/>
    <path id="Trazado_123693" data-name="Trazado 123693" d="M823.054,328.281a.763.763,0,1,1-.747-.766A.77.77,0,0,1,823.054,328.281Z" transform="translate(-810.82 -307.654)" fill="#e3816e"/>
    <path id="Trazado_123694" data-name="Trazado 123694" d="M855.046,328.271a.763.763,0,1,1-.757-.756A.77.77,0,0,1,855.046,328.271Z" transform="translate(-836.697 -307.654)" fill="#e3816e"/>
    <path id="Trazado_123695" data-name="Trazado 123695" d="M887.037,328.271a.763.763,0,1,1-.757-.757A.771.771,0,0,1,887.037,328.271Z" transform="translate(-862.573 -307.654)" fill="#e3816e"/>
  </g>
</svg>
