<svg id="Grupo_81330" data-name="Grupo 81330" xmlns="http://www.w3.org/2000/svg" width="67" height="105" viewBox="0 0 67 105">
  <rect id="Rectángulo_34185" data-name="Rectángulo 34185" width="67" height="105" rx="5" fill="#fff"/>
  <g id="Grupo_84760" data-name="Grupo 84760" transform="translate(-47.182 -368.963)">
    <path id="Trazado_123696" data-name="Trazado 123696" d="M78.322,378.068c6.537,0,13.074.032,19.61-.021a2.642,2.642,0,0,1,2.83,2.806c-.055,5.232,0,10.464-.04,15.7a6.774,6.774,0,0,0,.588,2.77,7.093,7.093,0,0,0,3.87,3.858.531.531,0,0,1,.383.586,29.339,29.339,0,0,1-11.239,23.411,2.312,2.312,0,0,1-3.226,0,29.131,29.131,0,0,1-8.19-10.176.634.634,0,0,0-.676-.417q-11.836.014-23.672.007a2.448,2.448,0,0,1-2.759-2.735q0-16.524,0-33.048a2.447,2.447,0,0,1,2.76-2.733Zm3.661,36.911c-.056-.167-.092-.292-.139-.414a29.441,29.441,0,0,1-1.979-10.716.638.638,0,0,1,.447-.7,6.616,6.616,0,0,0,3.84-3.993,1.679,1.679,0,0,1,1.647-1.283,44.514,44.514,0,0,1,12.882-.107c.395.056.464-.015.462-.4q-.021-5.364,0-10.729c0-.465-.126-.559-.57-.559q-20.307.018-40.614,0c-.445,0-.57.1-.569.559q.023,13.562.012,27.123c0,1,.211,1.214,1.191,1.214H81.983Zm-3.714-35.305H58.464c-.789,0-1.054.265-1.056,1.048,0,.852,0,1.7,0,2.557,0,1.25,0,1.239,1.257,1.217.295-.005.358-.1.353-.373-.015-.835,0-1.671-.007-2.507,0-.2-.011-.347.274-.344,1.42.013,2.841.01,4.262,0,.218,0,.29.064.285.284-.013.568,0,1.136,0,1.7,0,1.258,0,1.243,1.241,1.235.338,0,.374-.128.369-.408-.015-.819.007-1.638-.012-2.456-.007-.287.079-.365.363-.362q2.056.021,4.111,0c.3,0,.363.1.353.371-.019.534-.006,1.069-.006,1.6,0,1.292,0,1.283,1.275,1.249.264-.007.34-.076.335-.339-.016-.819.015-1.638-.015-2.456-.013-.367.112-.435.45-.43,1.32.02,2.641.017,3.961,0,.314,0,.434.061.423.4-.027.8.007,1.6-.016,2.406-.01.329.086.418.414.414,1.454-.018,2.908-.008,4.362-.008q8.6,0,17.2.011c.424,0,.525-.109.513-.521-.032-1.052-.01-2.105-.011-3.158,0-.915-.234-1.145-1.16-1.145ZM92.71,405.35a6.419,6.419,0,1,0,6.425,6.4A6.437,6.437,0,0,0,92.71,405.35Zm-.8,20.4c0-1.947-.006-3.784.006-5.622,0-.3-.087-.392-.383-.435a8.007,8.007,0,0,1-.009-15.844c.333-.048.394-.179.391-.479-.014-1.336-.021-2.673,0-4.009.007-.374-.123-.437-.457-.417q-2.676.165-5.335.5a.557.557,0,0,0-.5.406A8.613,8.613,0,0,1,81.8,404.2a.554.554,0,0,0-.322.588,28.211,28.211,0,0,0,.229,2.845A27.9,27.9,0,0,0,87.9,421.8,26.441,26.441,0,0,0,91.913,425.748Zm1.605.007a26.826,26.826,0,0,0,4.254-4.247,27.855,27.855,0,0,0,6.173-16.7.545.545,0,0,0-.3-.6,8.629,8.629,0,0,1-3.866-4.38.52.52,0,0,0-.459-.38q-2.683-.35-5.384-.512c-.374-.022-.435.106-.431.442.018,1.32.023,2.64,0,3.959-.007.374.116.465.468.513a8.012,8.012,0,0,1-.1,15.844c-.184.029-.359.023-.357.3C93.522,421.883,93.518,423.766,93.518,425.755Zm-31.3-42.037c0-.835,0-.835-.819-.835-.785,0-.785,0-.785.769,0,.835,0,.835.819.835C62.221,384.487,62.221,384.487,62.221,383.718Zm6.42-.066c0-.769,0-.769-.785-.769-.819,0-.819,0-.819.835,0,.769,0,.769.785.769C68.641,384.487,68.641,384.487,68.641,383.652Zm4.815-.015c0,.851,0,.851.854.851.751,0,.751,0,.751-.754,0-.85,0-.85-.854-.85C73.456,382.883,73.456,382.883,73.456,383.636Z" transform="translate(0 0)" fill="#010101"/>
    <path id="Trazado_123697" data-name="Trazado 123697" d="M88.32,446.927H64.934c-.979,0-1.191-.216-1.191-1.214q0-13.562-.012-27.123c0-.463.123-.56.569-.559q20.307.018,40.614,0c.444,0,.573.094.57.558q-.033,5.364,0,10.729c0,.381-.067.453-.462.4a44.515,44.515,0,0,0-12.882.107,1.679,1.679,0,0,0-1.647,1.283,6.616,6.616,0,0,1-3.84,3.993.638.638,0,0,0-.447.7,29.44,29.44,0,0,0,1.979,10.716C88.228,446.635,88.264,446.76,88.32,446.927ZM74.926,426.065c3.092,0,6.184-.005,9.276.007.323,0,.416-.076.413-.408q-.025-2.807,0-5.615c0-.326-.082-.412-.41-.411q-9.226.015-18.452,0c-.323,0-.416.076-.413.408.017,1.855.02,3.71,0,5.565,0,.374.086.465.462.463C68.842,426.057,71.885,426.065,74.926,426.065Zm15.275,1.6c1.22,0,2.44-.012,3.66.008.312.005.386-.078.384-.387q-.02-3.634,0-7.269c0-.312-.078-.386-.386-.384q-3.635.021-7.27,0c-.312,0-.386.078-.384.386q.021,3.634,0,7.269c0,.312.078.389.386.384C87.794,427.658,89,427.67,90.2,427.67Zm9.7-8.024c-1.237,0-2.474.009-3.71-.007-.285,0-.359.079-.358.36q.016,3.659,0,7.319c0,.285.079.359.36.358q3.66-.016,7.32,0c.285,0,.359-.079.358-.36q-.016-3.659,0-7.319c0-.285-.079-.361-.36-.358C102.31,419.654,101.107,419.646,99.9,419.646ZM65.348,441.311c0,1.22.009,2.44-.007,3.659,0,.284.077.36.359.359q3.66-.017,7.32,0c.283,0,.36-.076.359-.359q-.017-3.659,0-7.319c0-.283-.076-.36-.359-.359q-3.66.017-7.32,0c-.283,0-.362.076-.359.359C65.357,438.871,65.348,440.091,65.348,441.311ZM79,437.3c-1.2,0-2.407.009-3.61-.007-.307,0-.426.049-.423.4.017,2.406.014,4.812,0,7.219,0,.306.049.425.4.423q3.61-.026,7.219,0c.306,0,.426-.049.423-.4q-.026-3.609,0-7.218c0-.373-.121-.427-.451-.422C81.375,437.31,80.188,437.3,79,437.3Zm-4.075-4.815H83.5c1.109,0,1.087,0,1.118-1.1.012-.419-.1-.514-.515-.513q-8.8.023-17.6.01c-1.163,0-1.145,0-1.167,1.152-.007.377.09.464.464.462C68.843,432.477,71.885,432.484,74.927,432.484Zm0,3.21H83.5c1.109,0,1.087,0,1.118-1.1.012-.419-.1-.514-.515-.513q-8.8.023-17.6.01c-1.163,0-1.145,0-1.167,1.152-.007.377.09.464.464.462C68.843,435.686,71.885,435.694,74.927,435.694Zm2.408-6.419H83.5c1.108,0,1.086,0,1.118-1.1.012-.42-.1-.514-.515-.513-4.261.017-8.523.01-12.784.01-1.162,0-1.144,0-1.167,1.153-.007.378.091.465.464.462C72.856,429.265,75.1,429.274,77.335,429.274Zm-10.418,0h.4c1.28,0,1.268,0,1.249-1.267,0-.3-.113-.351-.376-.343-.567.017-1.135.005-1.7.005-1.148,0-1.134,0-1.149,1.167,0,.335.056.48.426.446S66.533,429.274,66.917,429.274Z" transform="translate(-6.337 -31.949)" fill="#e5e8eb"/>
    <path id="Trazado_123698" data-name="Trazado 123698" d="M84.65,386.14h19.705c.927,0,1.16.23,1.16,1.145,0,1.053-.021,2.106.011,3.158.012.412-.089.522-.513.521q-8.6-.024-17.2-.011c-1.454,0-2.908-.01-4.362.008-.328,0-.424-.084-.414-.414.024-.8-.011-1.6.016-2.406.011-.344-.109-.408-.423-.4-1.32.016-2.641.018-3.961,0-.338-.005-.463.062-.45.43.03.818,0,1.638.015,2.456.005.263-.071.332-.335.339-1.275.034-1.275.043-1.275-1.249,0-.535-.013-1.07.006-1.6.01-.273-.058-.374-.353-.371q-2.056.023-4.111,0c-.284,0-.37.075-.363.362.019.818,0,1.638.012,2.456.005.28-.031.406-.369.408-1.241.007-1.241.023-1.241-1.235,0-.568-.009-1.137,0-1.7.005-.22-.067-.285-.285-.284-1.421.008-2.842.011-4.262,0-.286,0-.275.148-.274.344,0,.835-.008,1.671.007,2.507.005.272-.058.367-.353.373-1.258.022-1.257.033-1.257-1.217,0-.852,0-1.7,0-2.557,0-.783.268-1.047,1.056-1.048Z" transform="translate(-6.381 -6.467)" fill="#bbda89"/>
    <path id="Trazado_123699" data-name="Trazado 123699" d="M213.954,513.905a6.419,6.419,0,1,1-6.414,6.411A6.437,6.437,0,0,1,213.954,513.905Zm-1.594,10.744c.128-.121.238-.219.342-.324l5.063-5.062c.784-.784.767-.767,0-1.577-.3-.319-.455-.266-.734.019-1.449,1.477-2.924,2.928-4.379,4.4-.221.224-.347.257-.588.011-.753-.766-.765-.754-1.561.053a1.019,1.019,0,0,1-.107.105c-.192.145-.179.271-.006.439.6.581,1.183,1.177,1.774,1.765C212.221,524.537,212.285,524.585,212.36,524.649Z" transform="translate(-121.244 -108.555)" fill="#ed8773"/>
    <path id="Trazado_123700" data-name="Trazado 123700" d="M194.011,508.813a26.445,26.445,0,0,1-4.018-3.949,27.9,27.9,0,0,1-6.185-14.166,28.208,28.208,0,0,1-.229-2.845.554.554,0,0,1,.322-.588,8.614,8.614,0,0,0,3.832-4.346.557.557,0,0,1,.5-.406q2.66-.336,5.335-.5c.334-.021.463.042.457.417-.024,1.336-.017,2.673,0,4.009,0,.3-.059.431-.391.479a8.007,8.007,0,0,0,.009,15.844c.3.043.385.138.383.435C194,505.029,194.011,506.867,194.011,508.813Z" transform="translate(-102.098 -83.066)" fill="#a9b0ba"/>
    <path id="Trazado_123701" data-name="Trazado 123701" d="M243.435,508.818c0-1.989,0-3.872,0-5.755,0-.277.173-.271.357-.3a8.012,8.012,0,0,0,.1-15.844c-.352-.049-.475-.14-.468-.513.025-1.319.02-2.64,0-3.959,0-.336.057-.465.431-.442q2.7.163,5.384.512a.52.52,0,0,1,.459.38,8.629,8.629,0,0,0,3.866,4.38.545.545,0,0,1,.3.6,27.855,27.855,0,0,1-6.173,16.7A26.827,26.827,0,0,1,243.435,508.818Z" transform="translate(-149.917 -83.063)" fill="#a9b0ba"/>
    <path id="Trazado_123702" data-name="Trazado 123702" d="M81.366,402.946c0,.769,0,.769-.785.769-.819,0-.819,0-.819-.835,0-.769,0-.769.785-.769C81.366,402.111,81.366,402.111,81.366,402.946Z" transform="translate(-19.145 -19.228)" fill="#fbe9ae"/>
    <path id="Trazado_123703" data-name="Trazado 123703" d="M113.311,402.88c0,.835,0,.835-.819.835-.785,0-.785,0-.785-.769,0-.835,0-.835.819-.835C113.311,402.111,113.311,402.111,113.311,402.88Z" transform="translate(-44.67 -19.228)" fill="#fbe9ae"/>
    <path id="Trazado_123704" data-name="Trazado 123704" d="M143.65,402.865c0-.754,0-.754.751-.754.854,0,.854,0,.854.85,0,.754,0,.754-.751.754C143.65,403.715,143.65,403.715,143.65,402.865Z" transform="translate(-70.194 -19.228)" fill="#fbe9ae"/>
    <path id="Trazado_123705" data-name="Trazado 123705" d="M81.313,432.455c-3.042,0-6.084-.008-9.126.01-.376,0-.466-.089-.462-.463.021-1.855.019-3.71,0-5.565,0-.332.091-.408.413-.408q9.226.015,18.452,0c.328,0,.413.085.41.411q-.024,2.807,0,5.615c0,.332-.09.409-.413.408C87.5,432.45,84.405,432.455,81.313,432.455Zm.106-4.814c-2.556,0-5.112.005-7.668-.007-.317,0-.43.066-.419.406.026.818.02,1.637,0,2.455-.006.281.074.362.359.362q7.668-.012,15.337,0c.274,0,.374-.061.367-.354-.02-.8-.028-1.6,0-2.405.014-.374-.085-.469-.463-.466C86.431,427.649,83.925,427.64,81.419,427.64Z" transform="translate(-12.724 -38.339)"/>
    <path id="Trazado_123706" data-name="Trazado 123706" d="M179.551,434.058c-1.2,0-2.407-.011-3.61.008-.309,0-.388-.073-.386-.384q.021-3.634,0-7.269c0-.308.073-.388.384-.386q3.635.021,7.27,0c.308,0,.388.073.386.384q-.021,3.634,0,7.269c0,.308-.072.392-.384.387C181.991,434.047,180.771,434.058,179.551,434.058Zm-2.383-4.011c0,.7.009,1.4-.005,2.1,0,.241.074.311.312.309q2.1-.014,4.2,0c.241,0,.311-.074.309-.312q-.014-2.1,0-4.2c0-.241-.074-.311-.312-.309q-2.1.014-4.2,0c-.241,0-.314.074-.309.312C177.176,428.647,177.168,429.347,177.168,430.048Z" transform="translate(-95.687 -38.338)"/>
    <path id="Trazado_123707" data-name="Trazado 123707" d="M227.546,426.039c1.2,0,2.406.009,3.609-.007.282,0,.362.073.36.358q-.017,3.659,0,7.319c0,.281-.073.362-.358.36q-3.66-.017-7.32,0c-.281,0-.361-.073-.36-.358q.017-3.659,0-7.319c0-.281.073-.364.358-.36C225.072,426.048,226.309,426.039,227.546,426.039Zm-.049,6.419c.7,0,1.4-.009,2.1,0,.24,0,.312-.072.311-.311q-.014-2.1,0-4.2c0-.24-.071-.312-.311-.31q-2.1.015-4.2,0c-.24,0-.312.072-.311.311q.014,2.1,0,4.2c0,.24.071.315.311.311C226.1,432.449,226.8,432.458,227.5,432.458Z" transform="translate(-133.979 -38.342)"/>
    <path id="Trazado_123708" data-name="Trazado 123708" d="M71.748,517.89c0-1.22.009-2.44-.007-3.659,0-.283.076-.36.359-.359q3.66.017,7.32,0c.283,0,.36.075.359.359q-.017,3.659,0,7.319c0,.283-.075.36-.359.359q-3.66-.017-7.32,0c-.283,0-.363-.075-.359-.359C71.757,520.33,71.748,519.11,71.748,517.89Zm6.42.005c0-.684-.012-1.368.006-2.052.007-.276-.066-.37-.356-.367q-2.052.022-4.1,0c-.276,0-.37.066-.367.356q.022,2.052,0,4.1c0,.276.066.37.356.367q2.052-.022,4.1,0c.276,0,.376-.065.367-.356C78.154,519.264,78.168,518.579,78.168,517.9Z" transform="translate(-12.737 -108.529)"/>
    <path id="Trazado_123709" data-name="Trazado 123709" d="M123.679,513.872c1.187,0,2.373.012,3.559-.008.33-.005.454.049.451.422q-.028,3.609,0,7.219c0,.349-.117.4-.423.4q-3.61-.017-7.219,0c-.349,0-.4-.117-.4-.423.011-2.406.014-4.812,0-7.219,0-.349.116-.4.423-.4C121.272,513.881,122.475,513.872,123.679,513.872Zm-.062,6.419c.717,0,1.435-.009,2.152,0,.238,0,.313-.067.311-.308q-.015-2.1,0-4.2c0-.238-.067-.313-.309-.311q-2.1.015-4.2,0c-.238,0-.313.067-.311.309q.015,2.1,0,4.2c0,.238.067.316.308.311C122.248,520.281,122.932,520.29,123.616,520.29Z" transform="translate(-51.014 -108.522)"/>
    <path id="Trazado_123710" data-name="Trazado 123710" d="M81.311,483.526c-3.042,0-6.084-.007-9.125.01-.374,0-.471-.085-.464-.462.023-1.152,0-1.152,1.167-1.152q8.8,0,17.6-.01c.416,0,.527.094.515.513-.032,1.1-.009,1.1-1.118,1.1Z" transform="translate(-12.72 -82.991)"/>
    <path id="Trazado_123711" data-name="Trazado 123711" d="M81.311,499.5c-3.042,0-6.084-.007-9.125.009-.374,0-.471-.085-.464-.462.023-1.152,0-1.152,1.167-1.152q8.8,0,17.6-.01c.416,0,.527.094.515.513-.032,1.1-.009,1.1-1.118,1.1Z" transform="translate(-12.72 -95.751)"/>
    <path id="Trazado_123712" data-name="Trazado 123712" d="M102.862,467.555c-2.239,0-4.479-.01-6.718.01-.373,0-.472-.084-.464-.462.023-1.152,0-1.153,1.167-1.153,4.261,0,8.523.007,12.784-.01.415,0,.528.092.515.513-.032,1.1-.01,1.1-1.118,1.1Z" transform="translate(-31.864 -70.23)"/>
    <path id="Trazado_123713" data-name="Trazado 123713" d="M73.309,467.572c-.384,0-.771-.028-1.151.008s-.43-.111-.426-.446c.014-1.167,0-1.167,1.149-1.167.568,0,1.136.012,1.7-.005.263-.008.371.038.376.343.018,1.268.031,1.267-1.249,1.267Z" transform="translate(-12.729 -70.246)"/>
    <path id="Trazado_123714" data-name="Trazado 123714" d="M223.162,538.82c-.074-.064-.138-.113-.195-.169-.591-.589-1.176-1.184-1.774-1.765-.173-.168-.186-.294.006-.439a1.032,1.032,0,0,0,.107-.105c.8-.807.808-.819,1.561-.053.242.246.367.213.588-.011,1.454-1.472,2.93-2.923,4.379-4.4.279-.285.433-.338.734-.019.765.81.782.793,0,1.577L223.5,538.5C223.4,538.6,223.289,538.7,223.162,538.82Z" transform="translate(-132.046 -122.726)" fill="#060403"/>
    <path id="Trazado_123715" data-name="Trazado 123715" d="M87.8,434.012c2.506,0,5.012.009,7.518-.01.378,0,.477.092.463.466-.031.8-.023,1.6,0,2.4.007.293-.093.354-.367.354q-7.668-.011-15.337,0c-.285,0-.365-.08-.359-.362.018-.818.024-1.638,0-2.455-.011-.34.1-.407.419-.406C82.69,434.017,85.246,434.012,87.8,434.012Z" transform="translate(-19.107 -44.71)" fill="#f5d67f"/>
    <path id="Trazado_123716" data-name="Trazado 123716" d="M183.559,436.44c0-.7.009-1.4,0-2.1,0-.238.069-.314.31-.312q2.1.015,4.2,0c.238,0,.314.068.312.309q-.015,2.1,0,4.2c0,.238-.068.314-.309.312q-2.1-.015-4.2,0c-.238,0-.317-.068-.312-.309C183.568,437.841,183.559,437.14,183.559,436.44Z" transform="translate(-102.078 -44.73)" fill="#ee8774"/>
    <path id="Trazado_123717" data-name="Trazado 123717" d="M233.885,438.846c-.7,0-1.4-.009-2.1,0-.24,0-.312-.071-.311-.31q.015-2.1,0-4.2c0-.239.071-.312.311-.311q2.1.015,4.2,0c.239,0,.312.071.311.311q-.015,2.1,0,4.2c0,.239-.071.315-.311.311C235.286,438.837,234.586,438.846,233.885,438.846Z" transform="translate(-140.367 -44.73)" fill="#ee8774"/>
    <path id="Trazado_123718" data-name="Trazado 123718" d="M84.549,524.275c0,.684-.014,1.368.006,2.052.009.291-.091.359-.367.356q-2.052-.019-4.1,0c-.29,0-.359-.091-.356-.367q.019-2.052,0-4.1c0-.29.091-.358.367-.356q2.052.019,4.1,0c.29,0,.363.091.356.367C84.537,522.906,84.549,523.591,84.549,524.275Z" transform="translate(-19.118 -114.908)" fill="#6ebee4"/>
    <path id="Trazado_123719" data-name="Trazado 123719" d="M130.014,526.683c-.684,0-1.368-.009-2.052.005-.242.005-.31-.073-.308-.311q.014-2.1,0-4.2c0-.241.073-.31.311-.309q2.1.015,4.2,0c.242,0,.31.073.309.311q-.015,2.1,0,4.2c0,.242-.073.313-.311.309C131.449,526.675,130.731,526.683,130.014,526.683Z" transform="translate(-57.412 -114.914)" fill="#6ebee4"/>
  </g>
</svg>
