<svg xmlns="http://www.w3.org/2000/svg" xmlns:xlink="http://www.w3.org/1999/xlink" width="402.504" height="377.678" viewBox="0 0 402.504 377.678">
  <defs>
    <linearGradient id="linear-gradient" x1="0.407" y1="1.25" x2="0.533" y2="-0.209" gradientUnits="objectBoundingBox">
      <stop offset="0" stop-color="#01b3f9"/>
      <stop offset="1" stop-color="#015bea"/>
    </linearGradient>
    <linearGradient id="linear-gradient-2" x1="0.052" y1="1.128" x2="1.001" y2="-0.202" gradientUnits="objectBoundingBox">
      <stop offset="0" stop-color="#f6fbff"/>
      <stop offset="1" stop-color="#3d6dff"/>
    </linearGradient>
    <linearGradient id="linear-gradient-3" x1="0" y1="0.5" x2="1" y2="0.5" xlink:href="#linear-gradient"/>
    <linearGradient id="linear-gradient-4" x1="0.872" y1="0.001" x2="0.201" y2="0.9" gradientUnits="objectBoundingBox">
      <stop offset="0" stop-color="#8cb1ff"/>
      <stop offset="1" stop-color="#d7e5ff"/>
    </linearGradient>
    <linearGradient id="linear-gradient-5" x1="0.601" y1="0.237" x2="0.339" y2="0.918" gradientUnits="objectBoundingBox">
      <stop offset="0" stop-color="#01b0f9"/>
      <stop offset="1" stop-color="#1957c8"/>
    </linearGradient>
    <linearGradient id="linear-gradient-6" y1="0.5" x2="1" y2="0.5" gradientUnits="objectBoundingBox">
      <stop offset="0" stop-color="#dffeff"/>
      <stop offset="1" stop-color="#01b0f9"/>
    </linearGradient>
    <linearGradient id="linear-gradient-7" x1="0.001" y1="0.045" x2="1.261" y2="1.194" xlink:href="#linear-gradient-6"/>
    <linearGradient id="linear-gradient-8" x1="1.049" y1="-0.631" x2="0.369" y2="0.822" xlink:href="#linear-gradient-6"/>
    <linearGradient id="linear-gradient-9" x1="0.006" y1="-0.262" x2="0.825" y2="1.2" xlink:href="#linear-gradient-6"/>
    <linearGradient id="linear-gradient-10" x1="0.102" y1="0.024" x2="1.001" y2="1.099" xlink:href="#linear-gradient-6"/>
    <linearGradient id="linear-gradient-11" x1="0.5" y1="-0.2" x2="0.5" y2="0.798" xlink:href="#linear-gradient-6"/>
    <linearGradient id="linear-gradient-14" x1="0.5" y1="0.112" x2="0.5" y2="0.905" xlink:href="#linear-gradient"/>
    <radialGradient id="radial-gradient" cx="-0.495" cy="1.288" r="1.805" gradientTransform="translate(-0.697) scale(2.394 1)" gradientUnits="objectBoundingBox">
      <stop offset="0" stop-color="#419dff"/>
      <stop offset="0.526" stop-color="#1d4cd4"/>
      <stop offset="1" stop-color="#08137a"/>
    </radialGradient>
    <linearGradient id="linear-gradient-17" x1="0.5" y1="-0.013" x2="0.5" y2="1.112" xlink:href="#linear-gradient-6"/>
    <linearGradient id="linear-gradient-18" x1="0.061" y1="0.422" x2="1.377" y2="0.658" xlink:href="#linear-gradient-6"/>
    <linearGradient id="linear-gradient-19" x1="0.211" y1="-0.099" x2="0.803" y2="1.278" xlink:href="#linear-gradient-6"/>
    <linearGradient id="linear-gradient-20" x1="0.296" y1="-0.297" x2="0.705" y2="1.126" xlink:href="#linear-gradient-6"/>
    <linearGradient id="linear-gradient-21" x1="0.11" y1="0.074" x2="0.849" y2="0.81" xlink:href="#linear-gradient"/>
    <linearGradient id="linear-gradient-22" x1="0.547" y1="1.129" x2="0.456" y2="-0.087" xlink:href="#linear-gradient-2"/>
    <linearGradient id="linear-gradient-23" x1="0.597" y1="1.055" x2="-0.021" y2="-2.494" xlink:href="#linear-gradient"/>
    <linearGradient id="linear-gradient-24" x1="0.685" y1="1.563" x2="0.066" y2="-1.987" xlink:href="#linear-gradient"/>
    <linearGradient id="linear-gradient-25" x1="0.774" y1="2.07" x2="0.155" y2="-1.479" xlink:href="#linear-gradient"/>
    <linearGradient id="linear-gradient-26" x1="0.862" y1="2.576" x2="0.243" y2="-0.972" xlink:href="#linear-gradient"/>
    <linearGradient id="linear-gradient-27" x1="0.951" y1="3.084" x2="0.332" y2="-0.465" xlink:href="#linear-gradient"/>
    <linearGradient id="linear-gradient-28" x1="1.039" y1="3.592" x2="0.42" y2="0.042" xlink:href="#linear-gradient"/>
  </defs>
  <g id="Grupo_85647" data-name="Grupo 85647" transform="matrix(1, 0.017, -0.017, 1, -346.599, -127.31)">
    <g id="Grupo_82328" data-name="Grupo 82328" transform="translate(355.258 118.619)">
      <g id="Grupo_82327" data-name="Grupo 82327">
        <path id="Trazado_119506" data-name="Trazado 119506" d="M687.376,328.376c-.011.032-.017.064-.028.1a3.682,3.682,0,0,1-.416.813c-.032.047-.063.1-.1.144a5.04,5.04,0,0,1-.693.764,7.294,7.294,0,0,1-.614.454,6.575,6.575,0,0,1-.541.385L559.1,404.19a9.52,9.52,0,0,1-1.221.58c-.112.044-.226.086-.339.129-.265.1-.545.172-.822.25s-.577.156-.874.218c-.348.072-.7.138-1.059.183-.087.011-.173.026-.261.037-.485.051-.977.077-1.47.081l-.23,0c-.486,0-.971-.031-1.451-.081l-.216-.025a13.992,13.992,0,0,1-1.405-.241c-.083-.018-.166-.04-.248-.061a11.882,11.882,0,0,1-1.215-.37c-.069-.025-.143-.044-.212-.072a9.589,9.589,0,0,1-1.333-.629L357.849,295.132a5.959,5.959,0,0,1-1.936-1.686,3.308,3.308,0,0,1-.643-1.919h0l-.012,4.509c0,1.3.858,2.609,2.577,3.6L546.731,408.7a9.485,9.485,0,0,0,1.263.6c.023.009.047.015.07.025.069.026.141.046.212.071.256.094.512.187.779.264.143.042.29.071.436.107l.249.061c.077.017.15.038.228.055.284.058.574.109.865.15.1.015.207.021.31.035l.216.023c.107.012.215.028.322.037q.428.035.859.046c.089,0,.18,0,.27,0s.155,0,.233,0c.13,0,.259,0,.39,0,.324-.011.647-.032.968-.064.037,0,.073-.011.11-.015.088-.009.172-.025.261-.037.248-.031.5-.058.742-.1.109-.02.209-.057.316-.078.3-.063.586-.138.874-.218.152-.043.315-.068.463-.115.123-.042.238-.092.357-.137s.229-.083.341-.129a9.6,9.6,0,0,0,1.22-.578L684.975,335.54l.106-.063c.167-.1.285-.216.436-.322a6.688,6.688,0,0,0,.612-.454c.017-.014.042-.028.058-.041a5.005,5.005,0,0,0,.541-.583c.037-.046.06-.094.094-.14s.064-.1.1-.144c.054-.08.116-.158.161-.239a3.381,3.381,0,0,0,.233-.5c.01-.025.014-.051.023-.077s.017-.064.028-.1c.032-.107.069-.213.09-.321a2.914,2.914,0,0,0,.058-.5l0-.077.012-4.507A3.029,3.029,0,0,1,687.376,328.376Z" transform="translate(-355.258 -35.733)" fill="url(#linear-gradient)"/>
        <g id="Grupo_82320" data-name="Grupo 82320" transform="translate(0.012 177.603)">
          <path id="Trazado_119507" data-name="Trazado 119507" d="M684.943,351.1c3.427,1.979,3.435,5.185.04,7.158L559.1,431.412a13.6,13.6,0,0,1-12.357,0L357.845,322.354c-3.418-1.973-3.445-5.179-.041-7.158l125.888-73.157a13.631,13.631,0,0,1,12.357,0Z" transform="translate(-355.266 -240.558)" fill="url(#linear-gradient-2)"/>
        </g>
        <g id="Grupo_82323" data-name="Grupo 82323" transform="translate(62.022 195.098)" opacity="0.49" style="mix-blend-mode: overlay;isolation: isolate">
          <g id="Grupo_82322" data-name="Grupo 82322" style="isolation: isolate">
            <g id="Grupo_82321" data-name="Grupo 82321">
              <path id="Trazado_119508" data-name="Trazado 119508" d="M523.1,336.949l-79.194-45.723a3.725,3.725,0,0,0-3.369,0l-44.163,25.665a1.032,1.032,0,0,0,.011,1.951l79.194,45.722a3.706,3.706,0,0,0,3.369,0L523.114,338.9a1.031,1.031,0,0,0-.011-1.951" transform="translate(-395.687 -231.207)" fill="#e0e0e0"/>
              <path id="Trazado_119509" data-name="Trazado 119509" d="M454.853,256.362l-7.215-4.165a2.139,2.139,0,0,0-1.948,0l-7.413,4.308a.6.6,0,0,0,0,1.134l7.213,4.165a2.166,2.166,0,0,0,1.959,0l7.413-4.308a.6.6,0,0,0-.006-1.129" transform="translate(-373.158 -251.962)" fill="#fff"/>
              <path id="Trazado_119510" data-name="Trazado 119510" d="M462.036,260.508l-7.213-4.165a2.151,2.151,0,0,0-1.95,0l-7.413,4.308a.6.6,0,0,0,0,1.135l7.215,4.165a2.166,2.166,0,0,0,1.959-.006l7.411-4.308a.6.6,0,0,0-.006-1.129" transform="translate(-369.321 -249.747)" fill="#fff"/>
              <path id="Trazado_119511" data-name="Trazado 119511" d="M469.212,264.651l-7.2-4.159a2.166,2.166,0,0,0-1.959-.006l-7.413,4.308a.6.6,0,0,0,.006,1.14l7.206,4.16a2.187,2.187,0,0,0,1.967,0l7.413-4.308c.538-.313.526-.822-.015-1.135" transform="translate(-365.486 -247.533)" fill="#fff"/>
              <path id="Trazado_119512" data-name="Trazado 119512" d="M476.4,268.8l-7.215-4.165a2.139,2.139,0,0,0-1.948,0l-7.413,4.308a.6.6,0,0,0,0,1.134l7.213,4.165a2.166,2.166,0,0,0,1.959,0l7.413-4.308a.6.6,0,0,0-.006-1.129" transform="translate(-361.651 -245.319)" fill="#fff"/>
              <path id="Trazado_119513" data-name="Trazado 119513" d="M483.581,272.947l-7.213-4.165a2.152,2.152,0,0,0-1.95,0l-7.411,4.308a.6.6,0,0,0,0,1.135l7.213,4.165a2.165,2.165,0,0,0,1.959-.006l7.413-4.308a.6.6,0,0,0-.008-1.129" transform="translate(-357.814 -243.103)" fill="#fff"/>
              <path id="Trazado_119514" data-name="Trazado 119514" d="M490.757,277.091l-7.2-4.159a2.166,2.166,0,0,0-1.959-.006l-7.413,4.308a.6.6,0,0,0,.006,1.14l7.206,4.16a2.188,2.188,0,0,0,1.967,0l7.413-4.308c.538-.313.526-.822-.015-1.135" transform="translate(-353.979 -240.889)" fill="#fff"/>
              <path id="Trazado_119515" data-name="Trazado 119515" d="M497.943,281.24l-7.215-4.165a2.139,2.139,0,0,0-1.948,0l-7.413,4.308a.6.6,0,0,0,0,1.134l7.213,4.165a2.166,2.166,0,0,0,1.959,0l7.413-4.308a.6.6,0,0,0-.006-1.129" transform="translate(-350.144 -238.675)" fill="#fff"/>
              <path id="Trazado_119516" data-name="Trazado 119516" d="M505.127,285.386l-7.215-4.165a2.152,2.152,0,0,0-1.95,0l-7.411,4.308a.6.6,0,0,0,0,1.135l7.213,4.165a2.166,2.166,0,0,0,1.959-.006l7.413-4.308a.6.6,0,0,0-.006-1.129" transform="translate(-346.308 -236.46)" fill="#fff"/>
              <path id="Trazado_119517" data-name="Trazado 119517" d="M512.3,289.529l-7.2-4.159a2.166,2.166,0,0,0-1.959-.006l-7.413,4.308a.6.6,0,0,0,.006,1.14l7.206,4.16a2.18,2.18,0,0,0,1.968,0l7.411-4.308c.538-.313.526-.822-.015-1.135" transform="translate(-342.472 -234.246)" fill="#fff"/>
              <path id="Trazado_119518" data-name="Trazado 119518" d="M519.488,293.679l-7.215-4.165a2.138,2.138,0,0,0-1.948,0l-7.413,4.308a.6.6,0,0,0,0,1.134l7.213,4.165a2.161,2.161,0,0,0,1.959,0l7.413-4.308a.6.6,0,0,0-.006-1.129" transform="translate(-338.638 -232.032)" fill="#fff"/>
              <path id="Trazado_119519" data-name="Trazado 119519" d="M526.672,297.827l-7.215-4.167a2.148,2.148,0,0,0-1.948,0l-7.413,4.308a.6.6,0,0,0,0,1.135l7.213,4.165a2.161,2.161,0,0,0,1.959-.006l7.413-4.308a.6.6,0,0,0-.006-1.127" transform="translate(-334.801 -229.816)" fill="#fff"/>
              <path id="Trazado_119520" data-name="Trazado 119520" d="M533.847,301.968l-7.2-4.159a2.166,2.166,0,0,0-1.959-.006l-7.413,4.308a.6.6,0,0,0,.008,1.14l7.2,4.16a2.181,2.181,0,0,0,1.968,0l7.411-4.308c.538-.313.526-.822-.015-1.135" transform="translate(-330.966 -227.602)" fill="#fff"/>
              <path id="Trazado_119521" data-name="Trazado 119521" d="M541.033,306.118l-7.215-4.165a2.139,2.139,0,0,0-1.948,0l-7.413,4.308a.6.6,0,0,0,0,1.134l7.215,4.165a2.158,2.158,0,0,0,1.957,0l7.413-4.308a.6.6,0,0,0-.006-1.129" transform="translate(-327.131 -225.388)" fill="#fff"/>
              <path id="Trazado_119522" data-name="Trazado 119522" d="M553.81,313.494l-12.918-7.459a2.151,2.151,0,0,0-1.95,0l-7.413,4.308a.6.6,0,0,0,0,1.135l12.92,7.459a2.163,2.163,0,0,0,1.958-.006l7.413-4.308a.6.6,0,0,0-.006-1.129" transform="translate(-323.354 -223.207)" fill="#fff"/>
              <path id="Trazado_119523" data-name="Trazado 119523" d="M544.435,316.641l-7.215-4.165a2.148,2.148,0,0,0-1.948,0l-7.413,4.308a.6.6,0,0,0,0,1.135l7.213,4.165a2.165,2.165,0,0,0,1.959-.006l7.413-4.308a.6.6,0,0,0-.006-1.129" transform="translate(-325.314 -219.767)" fill="#fff"/>
              <path id="Trazado_119524" data-name="Trazado 119524" d="M537.249,312.494l-7.2-4.16a2.166,2.166,0,0,0-1.959,0l-7.413,4.308a.6.6,0,0,0,.006,1.14l7.205,4.159a2.181,2.181,0,0,0,1.968,0l7.411-4.308c.539-.311.526-.822-.015-1.134" transform="translate(-329.149 -221.981)" fill="#fff"/>
              <path id="Trazado_119525" data-name="Trazado 119525" d="M530.074,308.351l-7.215-4.165a2.138,2.138,0,0,0-1.948,0l-7.413,4.308a.6.6,0,0,0,0,1.134l7.213,4.165a2.166,2.166,0,0,0,1.959,0l7.413-4.308a.6.6,0,0,0-.006-1.129" transform="translate(-332.984 -224.196)" fill="#fff"/>
              <path id="Trazado_119526" data-name="Trazado 119526" d="M522.89,304.2l-7.215-4.165a2.148,2.148,0,0,0-1.948,0l-7.413,4.308a.6.6,0,0,0,0,1.135l7.213,4.165a2.166,2.166,0,0,0,1.959-.006l7.413-4.308a.6.6,0,0,0-.006-1.129" transform="translate(-336.821 -226.411)" fill="#fff"/>
              <path id="Trazado_119527" data-name="Trazado 119527" d="M515.7,300.055l-7.2-4.16a2.166,2.166,0,0,0-1.959,0l-7.413,4.308a.6.6,0,0,0,.006,1.14l7.206,4.159a2.18,2.18,0,0,0,1.968,0l7.411-4.308c.538-.311.526-.822-.015-1.134" transform="translate(-340.656 -228.625)" fill="#fff"/>
              <path id="Trazado_119528" data-name="Trazado 119528" d="M508.529,295.912l-7.215-4.165a2.142,2.142,0,0,0-1.95,0l-7.411,4.308a.6.6,0,0,0,0,1.134l7.213,4.165a2.166,2.166,0,0,0,1.959,0l7.413-4.308a.6.6,0,0,0-.006-1.129" transform="translate(-344.491 -230.839)" fill="#fff"/>
              <path id="Trazado_119529" data-name="Trazado 119529" d="M501.345,291.763,494.13,287.6a2.148,2.148,0,0,0-1.948,0l-7.413,4.308a.6.6,0,0,0,0,1.135l7.213,4.165a2.166,2.166,0,0,0,1.959-.006l7.413-4.308a.6.6,0,0,0-.006-1.129" transform="translate(-348.327 -233.054)" fill="#fff"/>
              <path id="Trazado_119530" data-name="Trazado 119530" d="M494.159,287.616l-7.2-4.16a2.166,2.166,0,0,0-1.959,0l-7.413,4.308a.6.6,0,0,0,.006,1.14l7.206,4.159a2.163,2.163,0,0,0,1.967,0l7.413-4.308c.538-.311.535-.816-.015-1.134" transform="translate(-352.162 -235.268)" fill="#fff"/>
              <path id="Trazado_119531" data-name="Trazado 119531" d="M486.983,283.473l-7.213-4.165a2.142,2.142,0,0,0-1.95,0l-7.411,4.308a.6.6,0,0,0,0,1.134l7.213,4.165a2.166,2.166,0,0,0,1.959,0l7.413-4.308a.6.6,0,0,0-.008-1.129" transform="translate(-355.997 -237.482)" fill="#fff"/>
              <path id="Trazado_119532" data-name="Trazado 119532" d="M479.8,279.325l-7.215-4.165a2.143,2.143,0,0,0-1.948,0l-7.413,4.308a.6.6,0,0,0,0,1.135l7.213,4.165a2.166,2.166,0,0,0,1.959-.006l7.413-4.308a.6.6,0,0,0-.006-1.129" transform="translate(-359.834 -239.698)" fill="#fff"/>
              <path id="Trazado_119533" data-name="Trazado 119533" d="M472.614,275.177l-7.2-4.16a2.165,2.165,0,0,0-1.959,0l-7.413,4.308a.6.6,0,0,0,.006,1.14l7.206,4.159a2.163,2.163,0,0,0,1.967,0l7.413-4.308c.538-.311.535-.816-.015-1.134" transform="translate(-363.669 -241.912)" fill="#fff"/>
              <path id="Trazado_119534" data-name="Trazado 119534" d="M465.438,271.034l-7.213-4.165a2.143,2.143,0,0,0-1.95,0l-7.413,4.308a.6.6,0,0,0,0,1.134l7.215,4.165a2.166,2.166,0,0,0,1.959,0l7.411-4.308a.6.6,0,0,0-.006-1.129" transform="translate(-367.504 -244.126)" fill="#fff"/>
              <path id="Trazado_119535" data-name="Trazado 119535" d="M458.255,266.886l-7.215-4.165a2.139,2.139,0,0,0-1.948,0l-7.413,4.308a.6.6,0,0,0,0,1.134l7.213,4.165a2.161,2.161,0,0,0,1.959,0l7.413-4.308a.6.6,0,0,0-.006-1.129" transform="translate(-371.341 -246.341)" fill="#fff"/>
              <path id="Trazado_119536" data-name="Trazado 119536" d="M453.168,263.949l-12.918-7.459a2.142,2.142,0,0,0-1.95,0l-7.411,4.308a.6.6,0,0,0,0,1.134l12.918,7.459a2.166,2.166,0,0,0,1.959,0l7.411-4.308a.6.6,0,0,0-.006-1.129" transform="translate(-377.104 -249.669)" fill="#fff"/>
              <path id="Trazado_119537" data-name="Trazado 119537" d="M448.767,269.982l-15.919-9.191a2.139,2.139,0,0,0-1.948,0l-7.413,4.308a.6.6,0,0,0,0,1.134l15.919,9.191a2.144,2.144,0,0,0,1.957,0l7.413-4.308a.6.6,0,0,0-.006-1.129" transform="translate(-381.058 -247.371)" fill="#fff"/>
              <path id="Trazado_119538" data-name="Trazado 119538" d="M540.064,322.693l-15.908-9.186a2.147,2.147,0,0,0-1.959,0l-7.411,4.308c-.548.318-.545.821.006,1.14l15.909,9.185a2.142,2.142,0,0,0,1.959-.006l7.413-4.308a.6.6,0,0,0-.008-1.128" transform="translate(-332.298 -219.219)" fill="#fff"/>
              <path id="Trazado_119539" data-name="Trazado 119539" d="M452.625,272.209l-7.215-4.165a2.139,2.139,0,0,0-1.948,0l-7.413,4.308a.6.6,0,0,0,0,1.135l7.215,4.165a2.149,2.149,0,0,0,1.957-.006l7.413-4.308a.6.6,0,0,0-.006-1.129" transform="translate(-374.35 -243.498)" fill="#fff"/>
              <path id="Trazado_119540" data-name="Trazado 119540" d="M459.8,276.352l-7.2-4.159a2.142,2.142,0,0,0-1.959-.006l-7.411,4.308c-.548.318-.545.822.006,1.14l7.2,4.16a2.166,2.166,0,0,0,1.968,0l7.413-4.308c.537-.311.525-.821-.017-1.134" transform="translate(-370.516 -241.285)" fill="#fff"/>
              <path id="Trazado_119541" data-name="Trazado 119541" d="M466.985,280.5l-7.213-4.165a2.142,2.142,0,0,0-1.95,0l-7.413,4.306a.6.6,0,0,0,0,1.135l7.215,4.165a2.14,2.14,0,0,0,1.958-.006l7.413-4.308a.6.6,0,0,0-.006-1.128" transform="translate(-366.68 -239.07)" fill="#fff"/>
              <path id="Trazado_119542" data-name="Trazado 119542" d="M474.169,284.647l-7.215-4.165a2.148,2.148,0,0,0-1.948,0l-7.413,4.308a.6.6,0,0,0,0,1.135l7.215,4.165a2.148,2.148,0,0,0,1.957-.006l7.413-4.308a.6.6,0,0,0-.006-1.129" transform="translate(-362.844 -236.854)" fill="#fff"/>
              <path id="Trazado_119543" data-name="Trazado 119543" d="M481.345,288.791l-7.2-4.159a2.142,2.142,0,0,0-1.959-.006l-7.411,4.308c-.548.318-.545.822.006,1.14l7.2,4.16a2.171,2.171,0,0,0,1.968,0l7.413-4.308c.537-.313.525-.822-.017-1.135" transform="translate(-359.009 -234.641)" fill="#fff"/>
              <path id="Trazado_119544" data-name="Trazado 119544" d="M488.53,292.94l-7.213-4.165a2.142,2.142,0,0,0-1.95,0l-7.413,4.308a.6.6,0,0,0,0,1.134l7.215,4.165a2.143,2.143,0,0,0,1.959-.006l7.411-4.306a.6.6,0,0,0-.006-1.129" transform="translate(-355.173 -232.426)" fill="#fff"/>
              <path id="Trazado_119545" data-name="Trazado 119545" d="M495.714,297.086l-7.215-4.165a2.149,2.149,0,0,0-1.948,0l-7.413,4.308a.6.6,0,0,0,0,1.135l7.215,4.165a2.149,2.149,0,0,0,1.957-.006l7.413-4.308a.6.6,0,0,0-.006-1.129" transform="translate(-351.336 -230.211)" fill="#fff"/>
              <path id="Trazado_119546" data-name="Trazado 119546" d="M502.891,301.23l-7.2-4.159a2.152,2.152,0,0,0-1.959-.006l-7.411,4.308c-.548.317-.545.822.006,1.14l7.2,4.159a2.162,2.162,0,0,0,1.968,0l7.413-4.306c.537-.313.525-.822-.017-1.135" transform="translate(-347.503 -227.998)" fill="#fff"/>
              <path id="Trazado_119547" data-name="Trazado 119547" d="M510.075,305.379l-7.213-4.165a2.142,2.142,0,0,0-1.95,0l-7.413,4.308a.6.6,0,0,0,0,1.134l7.215,4.165a2.143,2.143,0,0,0,1.959-.006l7.411-4.306a.6.6,0,0,0-.006-1.129" transform="translate(-343.666 -225.783)" fill="#fff"/>
              <path id="Trazado_119548" data-name="Trazado 119548" d="M517.25,309.521l-7.2-4.16a2.152,2.152,0,0,0-1.95,0l-7.413,4.308a.6.6,0,0,0,0,1.135l7.206,4.159a2.149,2.149,0,0,0,1.967,0l7.413-4.308c.538-.313.535-.816-.015-1.134" transform="translate(-339.83 -223.568)" fill="#fff"/>
              <path id="Trazado_119549" data-name="Trazado 119549" d="M524.437,313.669l-7.206-4.159a2.139,2.139,0,0,0-1.957-.006l-7.413,4.308c-.548.318-.544.822.006,1.14l7.2,4.16a2.152,2.152,0,0,0,1.959-.006l7.413-4.308a.6.6,0,0,0-.006-1.129" transform="translate(-335.996 -221.355)" fill="#fff"/>
              <path id="Trazado_119550" data-name="Trazado 119550" d="M446.8,277.4l-13.782-7.957-1.8-1.042-5.751-3.32a2.142,2.142,0,0,0-1.95,0L416.1,269.4a.6.6,0,0,0,.006,1.129l5.753,3.321,1.8,1.042,13.782,7.957a2.148,2.148,0,0,0,1.948,0l7.422-4.314a.6.6,0,0,0-.006-1.129" transform="translate(-385.002 -245.08)" fill="#fff"/>
              <path id="Trazado_119551" data-name="Trazado 119551" d="M534.565,328.071l-13.782-7.957-1.793-1.036-5.753-3.321a2.139,2.139,0,0,0-1.948,0l-7.422,4.312a.6.6,0,0,0,.006,1.129l5.751,3.321,1.795,1.036,13.782,7.957a2.141,2.141,0,0,0,1.95,0l7.422-4.312a.6.6,0,0,0-.008-1.129" transform="translate(-338.125 -218.016)" fill="#fff"/>
              <path id="Trazado_119552" data-name="Trazado 119552" d="M448.831,278.572l-7.215-4.165a2.138,2.138,0,0,0-1.948,0l-7.422,4.312a.6.6,0,0,0,.006,1.129l7.213,4.165a2.142,2.142,0,0,0,1.95,0l7.422-4.314a.6.6,0,0,0-.006-1.128" transform="translate(-376.377 -240.1)" fill="#fff"/>
              <path id="Trazado_119553" data-name="Trazado 119553" d="M456.013,282.719l-7.213-4.165a2.142,2.142,0,0,0-1.95,0l-7.422,4.314a.6.6,0,0,0,.008,1.129l7.213,4.165a2.152,2.152,0,0,0,1.95,0l7.422-4.314a.6.6,0,0,0-.008-1.129" transform="translate(-372.54 -237.885)" fill="#fff"/>
              <path id="Trazado_119554" data-name="Trazado 119554" d="M463.191,286.862l-7.2-4.159a2.142,2.142,0,0,0-1.959-.006l-7.422,4.314c-.537.311-.535.816.015,1.134l7.206,4.16a2.162,2.162,0,0,0,1.957,0L463.207,288c.538-.311.526-.821-.015-1.134" transform="translate(-368.706 -235.672)" fill="#fff"/>
              <path id="Trazado_119555" data-name="Trazado 119555" d="M470.376,291.011l-7.215-4.165a2.138,2.138,0,0,0-1.948,0l-7.422,4.312a.6.6,0,0,0,.006,1.129l7.213,4.165a2.142,2.142,0,0,0,1.95,0l7.422-4.312a.6.6,0,0,0-.006-1.129" transform="translate(-364.87 -233.457)" fill="#fff"/>
              <path id="Trazado_119556" data-name="Trazado 119556" d="M477.558,295.157l-7.213-4.165a2.152,2.152,0,0,0-1.95,0l-7.422,4.314a.6.6,0,0,0,.008,1.129l7.213,4.165a2.151,2.151,0,0,0,1.95,0l7.422-4.314a.6.6,0,0,0-.008-1.129" transform="translate(-361.033 -231.241)" fill="#fff"/>
              <path id="Trazado_119557" data-name="Trazado 119557" d="M484.736,299.3l-7.2-4.159a2.152,2.152,0,0,0-1.959-.006l-7.422,4.314c-.537.311-.535.816.015,1.134l7.205,4.159a2.158,2.158,0,0,0,1.958.006l7.422-4.312c.538-.313.526-.822-.015-1.135" transform="translate(-357.2 -229.028)" fill="#fff"/>
              <path id="Trazado_119558" data-name="Trazado 119558" d="M491.921,303.45l-7.215-4.165a2.138,2.138,0,0,0-1.948,0l-7.422,4.312a.6.6,0,0,0,.006,1.129l7.215,4.165a2.138,2.138,0,0,0,1.948,0l7.422-4.312a.6.6,0,0,0-.006-1.129" transform="translate(-353.363 -226.813)" fill="#fff"/>
              <path id="Trazado_119559" data-name="Trazado 119559" d="M499.094,307.592l-7.2-4.16a2.148,2.148,0,0,0-1.948,0l-7.422,4.314a.6.6,0,0,0,.006,1.129l7.2,4.159a2.152,2.152,0,0,0,1.959.006l7.422-4.314c.537-.313.534-.816-.017-1.134" transform="translate(-349.527 -224.598)" fill="#fff"/>
              <path id="Trazado_119560" data-name="Trazado 119560" d="M506.281,311.74l-7.2-4.159a2.143,2.143,0,0,0-1.959-.006l-7.422,4.314c-.537.311-.534.816.015,1.134l7.206,4.16a2.149,2.149,0,0,0,1.948,0l7.422-4.314a.6.6,0,0,0-.006-1.129" transform="translate(-345.693 -222.385)" fill="#fff"/>
              <path id="Trazado_119561" data-name="Trazado 119561" d="M513.466,315.889l-7.215-4.165a2.139,2.139,0,0,0-1.948,0l-7.422,4.312a.6.6,0,0,0,.006,1.129l7.215,4.165a2.138,2.138,0,0,0,1.948,0l7.422-4.312a.6.6,0,0,0-.006-1.129" transform="translate(-341.857 -220.17)" fill="#fff"/>
              <path id="Trazado_119562" data-name="Trazado 119562" d="M425.3,273.538l-7.213-4.165a2.142,2.142,0,0,0-1.95,0l-7.422,4.314a.6.6,0,0,0,.006,1.128l7.215,4.166a2.148,2.148,0,0,0,1.948,0l7.422-4.314a.6.6,0,0,0-.006-1.129" transform="translate(-388.945 -242.789)" fill="#fff"/>
              <path id="Trazado_119563" data-name="Trazado 119563" d="M432.482,277.686l-7.215-4.165a2.138,2.138,0,0,0-1.948,0l-7.422,4.312a.6.6,0,0,0,.006,1.129l7.215,4.165a2.139,2.139,0,0,0,1.948,0l7.422-4.312a.6.6,0,0,0-.006-1.129" transform="translate(-385.108 -240.573)" fill="#fff"/>
              <path id="Trazado_119564" data-name="Trazado 119564" d="M439.657,281.829l-7.2-4.16a2.161,2.161,0,0,0-1.959,0l-7.422,4.312c-.537.313-.525.822.017,1.135l7.2,4.159a2.166,2.166,0,0,0,1.959.006l7.422-4.314c.537-.311.525-.822-.017-1.134" transform="translate(-381.274 -238.359)" fill="#fff"/>
              <path id="Trazado_119565" data-name="Trazado 119565" d="M449.585,287.561l-9.956-5.75a2.142,2.142,0,0,0-1.95,0l-7.422,4.314a.6.6,0,0,0,.006,1.129L440.221,293a2.142,2.142,0,0,0,1.95,0l7.422-4.314a.6.6,0,0,0-.008-1.128" transform="translate(-377.438 -236.145)" fill="#fff"/>
              <path id="Trazado_119566" data-name="Trazado 119566" d="M513.319,325.387l-7.31-4.219a2.048,2.048,0,0,0-1.855,0l-2.385,1.387a.568.568,0,0,0,.006,1.074l7.308,4.219a2.047,2.047,0,0,0,1.855,0l2.387-1.385a.569.569,0,0,0-.006-1.075" transform="translate(-339.234 -215.119)" fill="#fff"/>
              <path id="Trazado_119567" data-name="Trazado 119567" d="M509.974,327.331l-7.308-4.22a2.048,2.048,0,0,0-1.864.006l-2.376,1.381a.568.568,0,0,0,.006,1.074l7.308,4.22a2.047,2.047,0,0,0,1.855,0l2.376-1.381a.57.57,0,0,0,0-1.08" transform="translate(-341.02 -214.081)" fill="#fff"/>
              <path id="Trazado_119568" data-name="Trazado 119568" d="M522.268,329.525l-7.213-4.165a2.142,2.142,0,0,0-1.95,0l-7.42,4.312a.6.6,0,0,0,.006,1.129l7.213,4.165a2.143,2.143,0,0,0,1.95,0l7.422-4.314a.6.6,0,0,0-.008-1.127" transform="translate(-337.155 -212.887)" fill="#fff"/>
              <path id="Trazado_119569" data-name="Trazado 119569" d="M507.863,321.207l-7.2-4.159a2.161,2.161,0,0,0-1.959-.006l-7.422,4.312c-.537.313-.525.822.015,1.135l7.206,4.159a2.158,2.158,0,0,0,1.957.006l7.422-4.314c.538-.311.526-.821-.015-1.134" transform="translate(-344.846 -217.328)" fill="#fff"/>
              <path id="Trazado_119570" data-name="Trazado 119570" d="M500.686,317.064l-7.213-4.165a2.142,2.142,0,0,0-1.95,0l-7.422,4.314a.6.6,0,0,0,.008,1.128l7.213,4.165a2.143,2.143,0,0,0,1.95,0l7.422-4.312a.6.6,0,0,0-.008-1.129" transform="translate(-348.681 -219.542)" fill="#fff"/>
              <path id="Trazado_119571" data-name="Trazado 119571" d="M494.456,313.466l-9.949-5.744a2.139,2.139,0,0,0-1.948,0l-7.422,4.312a.6.6,0,0,0,.006,1.129l9.947,5.744a2.143,2.143,0,0,0,1.95,0l7.422-4.312a.6.6,0,0,0-.006-1.129" transform="translate(-353.47 -222.307)" fill="#fff"/>
              <path id="Trazado_119572" data-name="Trazado 119572" d="M499.881,316.6l-7.555-4.363-.267-.1a1.5,1.5,0,0,0-.295-.224l-2.562-1.48-7.888-4.555-3.133-1.807-7.888-4.555-3.123-1.8-7.9-4.561L448.6,286.993a2.152,2.152,0,0,0-1.959-.006l-7.422,4.314c-.537.313-.535.816.015,1.135l10.67,6.159,7.9,4.559,3.123,1.8,7.888,4.555,3.133,1.809,7.887,4.555,2.563,1.479a2.234,2.234,0,0,0,.39.17l.17.153,7.555,4.363a2.152,2.152,0,0,0,1.95,0l7.422-4.314a.6.6,0,0,0-.006-1.129" transform="translate(-372.65 -233.38)" fill="#fff"/>
            </g>
          </g>
        </g>
        <path id="Trazado_119573" data-name="Trazado 119573" d="M682.564,242.743c0-.043,0-.087,0-.132,0-.212-.012-.423-.028-.634-.018-.273-.048-.543-.086-.812l-.008-.035c-.043-.288-.123-.562-.187-.841-.057-.25-.092-.506-.166-.747l-.017-.057-.006-.017c-.017-.058-.035-.115-.054-.172-.047-.144-.124-.27-.176-.41a10.276,10.276,0,0,0-.472-1.094c-.029-.055-.046-.118-.075-.172-.121-.222-.25-.436-.387-.644-.067-.1-.141-.2-.212-.3-.018-.025-.035-.051-.054-.077s-.051-.072-.077-.107c-.1-.133-.209-.264-.319-.391-.1-.112-.2-.219-.3-.325s-.192-.192-.291-.282v0h0c-.1-.089-.193-.173-.293-.256s-.192-.153-.29-.226-.195-.14-.295-.206-.2-.126-.3-.186l-.018-.011L489.56,125.556q-.143-.083-.285-.156c-.1-.051-.206-.1-.308-.146-.039-.017-.077-.031-.113-.046l-.066-.026-.136-.057c-.109-.04-.218-.077-.327-.109-.072-.022-.143-.04-.213-.058l-.061-.015-.061-.017c-.121-.029-.244-.054-.365-.072-.084-.014-.167-.023-.252-.032l-.077-.009-.061-.008q-.214-.018-.428-.018c-.077,0-.153,0-.228,0l-2.646.11a5.133,5.133,0,0,1,.719.021l.077.011a4.975,4.975,0,0,1,.678.12l.06.015a5.459,5.459,0,0,1,.676.224l.068.028a5.9,5.9,0,0,1,.707.347L675.81,234.726a6.749,6.749,0,0,1,1.2.882v0a7.905,7.905,0,0,1,.986,1.106l.054.077a9.142,9.142,0,0,1,.673,1.114,10.276,10.276,0,0,1,.469,1.089c.075.2.17.382.233.586l0,.014c.083.265.126.545.187.819s.141.545.182.825a11.325,11.325,0,0,1,.121,1.614c0,.026,0,.051,0,.075a10.951,10.951,0,0,1-.126,1.643l0,.034a10.661,10.661,0,0,1-.4,1.666L625.815,409.137a9.637,9.637,0,0,1-.44,1.1l-.011.026a8.989,8.989,0,0,1-.525.946l-.049.077a8,8,0,0,1-.572.769c-.029.034-.058.07-.088.1a7.01,7.01,0,0,1-.632.635c-.149.132-.305.242-.462.357-.115.084-.225.178-.344.255-.169.107-.345.19-.52.279-.115.058-.227.127-.344.178a5.729,5.729,0,0,1-.607.2c-.1.029-.2.074-.3.1a5.239,5.239,0,0,1-.939.127l2.645-.111a5.21,5.21,0,0,0,.939-.127c.106-.025.207-.069.311-.1a5.355,5.355,0,0,0,.6-.2c.118-.051.232-.121.348-.181.173-.087.348-.17.516-.276.119-.077.23-.172.347-.258.155-.113.311-.224.459-.354.02-.017.041-.029.06-.046q.253-.23.489-.491c.029-.032.055-.067.083-.1l.087-.1c.064-.077.13-.15.193-.23.1-.131.2-.266.293-.405.029-.043.057-.089.086-.134l.049-.077c.037-.057.075-.113.11-.172.072-.121.144-.245.212-.373s.129-.249.19-.376l.012-.028.011-.023c.05-.106.1-.212.146-.321.052-.124.1-.25.151-.377s.093-.255.136-.385l.008-.023,53.573-162.866c.04-.123.078-.245.114-.37s.074-.264.106-.4.065-.27.092-.406.055-.281.077-.422l.011-.069,0-.037c.017-.109.034-.218.048-.328.018-.157.035-.311.047-.468s.023-.334.029-.5c0-.114,0-.227,0-.342Z" transform="translate(-286.537 -124.786)" fill="url(#linear-gradient-3)"/>
        <path id="Trazado_119574" data-name="Trazado 119574" d="M696.678,234.688c3.427,1.977,5.027,7.141,3.577,11.545L646.684,409.1c-1.45,4.4-5.392,6.366-8.819,4.389L448.97,304.428c-3.427-1.977-5.027-7.141-3.579-11.545l53.573-162.866c1.45-4.4,5.392-6.368,8.819-4.389Z" transform="translate(-307.405 -124.748)" fill="url(#linear-gradient-4)"/>
        <g id="Grupo_82326" data-name="Grupo 82326" transform="translate(146.429 14.5)">
          <g id="Grupo_82325" data-name="Grupo 82325" style="isolation: isolate">
            <g id="Grupo_82324" data-name="Grupo 82324">
              <path id="Trazado_119575" data-name="Trazado 119575" d="M689.331,243.541l-189.47-109.3L450.708,283.873,640.1,393.217l.095-.047,49.139-149.629" transform="translate(-450.708 -134.238)" fill="url(#linear-gradient-5)"/>
            </g>
          </g>
        </g>
      </g>
    </g>
    <g id="Grupo_82339" data-name="Grupo 82339" transform="translate(406.469 155.826)">
      <g id="Grupo_82330" data-name="Grupo 82330" transform="translate(75.69 0)">
        <g id="Grupo_82329" data-name="Grupo 82329">
          <path id="Trazado_119576" data-name="Trazado 119576" d="M455.276,179.281l16.137-9.378a17.151,17.151,0,0,1-1.645.828c-.175.077-.356.144-.535.216-.353.143-.713.271-1.077.391-.522.172-1.057.313-1.6.437-.238.055-.468.123-.71.169-.305.057-.623.092-.936.135-.388.054-.773.11-1.171.141-.229.018-.46.023-.69.034-.468.02-.94.031-1.422.02-.207,0-.414-.009-.623-.02-.634-.031-1.273-.08-1.925-.164-.038,0-.075-.006-.113-.012-.7-.094-1.413-.229-2.132-.383-.15-.032-.3-.064-.451-.1-.744-.175-1.5-.373-2.261-.614v0l-16.139,9.378q.2.062.387.12.729.221,1.447.4c.146.037.288.063.433.1s.3.067.446.1c.2.043.4.1.6.133q.759.147,1.5.247l.029,0c.04.006.077.008.117.012.485.063.968.115,1.442.149.163.011.32.008.482.015.209.011.416.017.623.02s.39.02.58.02c.285,0,.561-.028.844-.04.229-.011.46-.015.687-.032.092-.008.189-.006.279-.014.305-.028.6-.087.893-.129.313-.043.63-.078.936-.135.068-.012.138-.017.2-.029.175-.035.334-.1.506-.14.545-.124,1.08-.265,1.6-.437.113-.037.236-.055.348-.1.25-.087.488-.2.733-.3.177-.072.356-.138.531-.216A17.019,17.019,0,0,0,455.276,179.281Z" transform="translate(-437.979 -137.897)" fill="url(#linear-gradient-6)"/>
          <path id="Trazado_119577" data-name="Trazado 119577" d="M471.581,149.04l-16.137,9.378L505.017,165l16.137-9.378Z" transform="translate(-428.651 -149.04)" fill="url(#linear-gradient-7)"/>
          <path id="Trazado_119578" data-name="Trazado 119578" d="M568.492,237.28c.258-1.295.5-2.616.74-3.95.04-.232.087-.453.127-.686l.009-.057q.4-2.29.752-4.656l-16.137,9.378q-.354,2.368-.752,4.656c-.044.255-.094.5-.139.75-.235,1.333-.479,2.651-.737,3.943-.107.543-.224,1.068-.336,1.6-.2.983-.41,1.964-.626,2.924-.121.538-.25,1.065-.374,1.6-.241,1.02-.485,2.033-.738,3.027q-.214.84-.436,1.668-.38,1.427-.776,2.813c-.144.506-.289,1.014-.436,1.513-.434,1.465-.879,2.906-1.341,4.308-.021.069-.043.14-.064.207-.488,1.47-.993,2.895-1.508,4.3q-.4,1.077-.8,2.128c-.106.272-.207.549-.314.818q-.605,1.537-1.232,3.021c-.089.21-.181.413-.271.621q-.5,1.169-1.017,2.306c-.147.324-.3.641-.443.959-.268.578-.542,1.148-.815,1.712-.264.545-.529,1.08-.8,1.612q-.357.711-.721,1.41-.405.78-.821,1.54c-.245.454-.491.907-.741,1.352-.279.5-.561.99-.845,1.477-.252.434-.5.867-.76,1.29-.287.48-.578.948-.868,1.416-.258.414-.516.828-.775,1.233-.287.445-.576.879-.864,1.313-.265.4-.531.8-.8,1.192-.293.427-.587.841-.884,1.257-.268.38-.538.762-.81,1.134-.3.408-.6.805-.9,1.2-.273.361-.546.724-.821,1.076-.3.39-.609.767-.914,1.146-.278.344-.554.69-.833,1.026-.308.371-.62.733-.931,1.1-.277.324-.555.65-.834.967-.314.356-.632.7-.948,1.048-.281.307-.56.617-.839.916-.319.337-.64.664-.959.994-.281.288-.56.581-.841.864-.324.324-.647.635-.973.95-.281.272-.562.549-.842.813-.327.308-.653.6-.98.9-.279.255-.558.515-.839.764-.331.294-.664.577-1,.861-.276.238-.552.482-.828.713-.334.278-.667.543-1,.813-.278.224-.554.453-.83.67-.336.264-.672.517-1.008.772-.271.207-.545.422-.818.624-.345.255-.69.5-1.034.746-.262.187-.525.38-.787.563-.365.256-.73.5-1.094.743-.239.161-.479.328-.718.485-.42.278-.841.54-1.258.8-.181.113-.362.233-.542.344q-.9.557-1.79,1.074L522.119,312q.891-.518,1.789-1.074c.179-.11.36-.23.542-.343.419-.264.837-.526,1.258-.8.239-.156.479-.324.718-.485.365-.245.729-.486,1.1-.742.261-.183.523-.376.785-.563.345-.247.689-.491,1.034-.747.273-.2.546-.416.819-.623.336-.256.67-.508,1.006-.772.276-.218.554-.446.83-.67.333-.27.666-.535,1-.815.278-.232.557-.477.834-.716.33-.282.66-.563.99-.854.282-.252.564-.514.848-.772.324-.3.649-.589.973-.9.281-.265.561-.542.844-.813.324-.314.647-.626.971-.95.282-.282.563-.577.844-.867.319-.328.637-.654.954-.991.282-.3.565-.614.847-.923.315-.344.628-.684.94-1.039.282-.318.561-.647.841-.974.31-.361.618-.718.925-1.088.281-.337.558-.686.838-1.031.3-.377.609-.755.911-1.141.276-.354.549-.718.822-1.08.3-.4.6-.793.9-1.2.273-.374.545-.758.816-1.14.293-.413.588-.827.877-1.25.27-.393.537-.8.8-1.2.288-.433.575-.865.859-1.307.09-.141.184-.275.275-.417.169-.267.334-.549.5-.819.29-.468.58-.936.868-1.414.255-.425.506-.858.758-1.292.284-.486.566-.976.845-1.474.25-.446.5-.9.744-1.356q.412-.759.818-1.536.364-.7.723-1.414c.268-.531.532-1.065.8-1.606.114-.238.233-.463.347-.7.158-.333.313-.678.469-1.016.147-.316.294-.632.44-.953q.517-1.134,1.019-2.306c.089-.21.182-.414.272-.627q.628-1.48,1.232-3.016c.107-.27.21-.549.316-.822.215-.555.431-1.106.641-1.674.055-.146.1-.3.159-.451.514-1.4,1.02-2.829,1.506-4.3.022-.068.043-.14.066-.207.46-1.4.905-2.843,1.339-4.306.054-.184.115-.356.169-.542.092-.318.177-.652.268-.973q.4-1.39.776-2.82c.147-.549.292-1.1.434-1.657.253-1,.5-2.011.74-3.034.087-.374.184-.733.27-1.111.035-.156.067-.324.1-.48.216-.962.422-1.944.628-2.927C568.268,238.346,568.384,237.821,568.492,237.28Z" transform="translate(-401.66 -106.905)" fill="url(#linear-gradient-8)"/>
          <path id="Trazado_119579" data-name="Trazado 119579" d="M560.241,247.749c-.1-.1-.209-.193-.313-.293q-1.272-1.208-2.5-2.5c-.111-.117-.224-.233-.335-.351q-1.206-1.282-2.362-2.637l-.33-.385q-1.123-1.33-2.2-2.722c-.156-.2-.311-.408-.466-.612-.514-.678-1.011-1.373-1.5-2.069-.315-.442-.632-.881-.937-1.33-.295-.431-.574-.873-.861-1.312q-.95-1.445-1.844-2.932c-.33-.551-.66-1.1-.979-1.66-.245-.431-.489-.865-.727-1.3-.546-1-1.083-1.994-1.588-3.007l-.008-.017q-.9-1.8-1.7-3.639c-.028-.063-.054-.126-.081-.189q-.755-1.73-1.423-3.481l-.138-.365q-.633-1.682-1.183-3.372c-.048-.146-.094-.291-.141-.437q-.532-1.671-.977-3.343c-.041-.153-.081-.307-.121-.46q-.432-1.668-.776-3.331c-.029-.147-.06-.293-.089-.439q-.331-1.673-.568-3.329-.028-.193-.055-.387-.227-1.691-.351-3.357c-.008-.1-.017-.193-.023-.29-.081-1.189-.124-2.369-.121-3.533,0-.68.023-1.347.055-2.005.009-.193.023-.384.035-.575q.044-.7.111-1.384c.021-.218.043-.436.067-.652.05-.443.112-.881.176-1.315.031-.2.057-.41.091-.609.1-.621.219-1.232.353-1.83L520.3,195.681c-.121.539-.229,1.085-.325,1.641-.011.061-.017.126-.028.189-.033.2-.06.406-.09.609-.046.3-.1.6-.135.907-.017.133-.026.273-.042.408-.026.216-.047.434-.067.654-.02.2-.046.4-.063.6-.02.258-.032.522-.047.782-.012.19-.026.379-.035.571,0,.1-.014.189-.017.285-.023.535-.037,1.078-.038,1.628v.1c0,.523,0,1.049.021,1.579q.025.842.078,1.694c.006.086.015.173.022.261s.015.193.023.29c.027.383.055.767.092,1.154q.081.863.192,1.729c.02.158.046.316.067.474l.055.387c.041.3.08.594.127.891q.14.9.31,1.8c.04.213.087.426.13.64.029.146.058.291.089.439.051.249.1.5.151.744q.2.932.436,1.865c.06.239.127.48.189.719.04.155.081.308.123.463.06.229.117.459.179.689.173.624.358,1.25.548,1.875.08.259.167.519.25.778.046.146.092.291.14.437.068.206.129.411.2.615q.3.9.629,1.807c.115.316.238.632.357.948.046.123.091.245.138.368.054.141.1.282.16.423q.333.858.69,1.715c.184.446.378.893.572,1.338.029.064.055.13.084.195s.043.1.066.155q.386.874.795,1.744t.836,1.73l.012.025,0,.011q.541,1.086,1.114,2.16c.15.281.314.555.466.835q.359.653.729,1.3c.175.308.341.623.52.93.146.249.312.483.459.73q.893,1.489,1.845,2.936c.18.275.341.56.523.831.107.161.224.314.333.474.308.451.626.891.942,1.336.293.413.574.833.873,1.238.207.281.42.551.631.827.155.2.308.408.465.611s.289.385.437.574q.684.868,1.385,1.712c.124.147.25.29.374.437.109.129.219.258.33.387.213.249.423.5.64.747q.683.78,1.385,1.534c.11.12.224.235.334.353l.339.354c.251.265.5.532.756.792q.743.759,1.507,1.49c.077.074.155.143.232.216.1.1.212.2.317.294.331.311.661.626,1,.928q.783.7,1.58,1.378l.127.107,16.137-9.378C562.031,249.394,561.131,248.582,560.241,247.749Z" transform="translate(-394.49 -129.138)" fill="url(#linear-gradient-9)"/>
          <path id="Trazado_119580" data-name="Trazado 119580" d="M487.759,162.711l16.137-9.378,49.439,50.58L537.2,213.29Z" transform="translate(-411.393 -146.747)" fill="url(#linear-gradient-10)"/>
        </g>
        <path id="Trazado_119581" data-name="Trazado 119581" d="M514.346,161.739l49.439,50.579a38.78,38.78,0,0,0-.888,8.37c-.055,19.174,11.6,42.227,27.4,55.491-12.463,83.255-64.839,92.51-76.546,93.541A347.019,347.019,0,0,1,480.99,319.7C465,290.339,444.847,244.1,437.979,188.235c15.826,5,27.577-4.541,27.63-23.717a54.2,54.2,0,0,0-.838-9.366Z" transform="translate(-437.979 -145.775)" fill="url(#linear-gradient-11)"/>
        <path id="Trazado_119582" data-name="Trazado 119582" d="M511.841,359.331a347.083,347.083,0,0,1-28.37-44.108c-14.5-26.606-33.3-69.109-40.684-120.689,16.025,2.249,26.8-9.338,26.857-28.96,0-1.483-.058-3.027-.178-4.581l42.931,5.7L555.22,210.5c-.129,1.411-.2,2.878-.2,4.361-.057,19.622,10.619,43.594,26.6,59.826-12.532,70.4-56.178,82.563-69.781,84.641m.56-193.969-44.089-5.856.037.5c.147,1.68.218,3.338.213,4.941-.054,19.283-10.735,30.586-26.567,28.143l-.428-.061.074.557c7.373,52.142,26.382,95.138,41.032,122.027a347.642,347.642,0,0,0,28.882,44.806l.284.373.295-.038c13.383-1.953,58.047-13.923,70.638-85.686l.086-.463-.427-.431c-15.8-15.823-26.386-39.4-26.331-58.685a46.67,46.67,0,0,1,.241-4.679l.04-.459L512.6,165.564l-.2-.2" transform="translate(-436.063 -143.45)" fill="url(#linear-gradient-6)"/>
      </g>
      <g id="Grupo_82332" data-name="Grupo 82332" transform="translate(97.856 43.775)">
        <path id="Trazado_119583" data-name="Trazado 119583" d="M539.64,245.267q0-.143-.014-.285c-.006-.1-.014-.19-.023-.287s-.02-.192-.032-.288-.026-.2-.042-.3V244.1l0-.006c-.015-.094-.031-.189-.049-.282s-.04-.206-.061-.308-.047-.206-.072-.308-.054-.209-.083-.313c-.023-.081-.046-.163-.071-.244l-.006-.018-.014-.049c-.032-.1-.065-.2-.1-.305s-.069-.2-.1-.3-.071-.193-.109-.29-.075-.19-.115-.285c-.031-.074-.061-.146-.094-.218l-.006-.017-.02-.046c-.043-.1-.086-.19-.13-.285s-.1-.207-.15-.311-.12-.236-.182-.353-.138-.25-.21-.374l-.037-.066c-.014-.025-.028-.052-.043-.078q-.209-.354-.437-.7c-.121-.179-.245-.357-.373-.531h0c-.084-.117-.172-.232-.261-.344-.075-.1-.15-.189-.227-.282s-.152-.178-.229-.265-.152-.17-.229-.255l-.046-.048-.018-.018c-.058-.063-.117-.126-.176-.186-.083-.084-.166-.166-.249-.247s-.172-.161-.259-.241-.175-.153-.262-.229l-.133-.109-.029-.023c-.034-.028-.066-.055-.1-.081-.086-.069-.172-.133-.259-.2s-.17-.123-.256-.183-.167-.112-.25-.166-.166-.1-.25-.152l-.058-.034-59.791-34.521q-.094-.055-.189-.106c-.081-.043-.163-.086-.242-.126s-.161-.077-.241-.112-.158-.071-.236-.1-.161-.061-.239-.091l-.046-.014-.015-.006c-.058-.018-.118-.04-.176-.057-.081-.025-.163-.048-.244-.068s-.163-.038-.242-.054-.173-.031-.258-.043c-.058-.008-.115-.012-.173-.017l-.026,0-.065-.006c-.094-.008-.186-.009-.276-.009s-.207,0-.307.014c-.117.011-.229.028-.341.049l-.006,0-.011,0a3.327,3.327,0,0,0-.394.109,2.872,2.872,0,0,0-.477.221L453.635,209.8a2.911,2.911,0,0,1,.871-.33l.009,0a3.436,3.436,0,0,1,1-.051l.026,0a4.828,4.828,0,0,1,1.092.238l.018.006a6.917,6.917,0,0,1,1.192.549l59.791,34.521a9.09,9.09,0,0,1,1.174.813l.029.025a11.462,11.462,0,0,1,1.08,1.008l.018.02a13.792,13.792,0,0,1,1.845,2.5l.037.063a14.7,14.7,0,0,1,.692,1.37l.008.02a13.023,13.023,0,0,1,.534,1.444l.006.022a11.265,11.265,0,0,1,.336,1.456l0,0a8.994,8.994,0,0,1,.115,1.431l-.132,46.607a6.662,6.662,0,0,1-.121,1.27l-.006.035a4.7,4.7,0,0,1-.334,1.04l-.006.017a3.485,3.485,0,0,1-.443.686c-.055.067-.106.14-.164.2a2.887,2.887,0,0,1-.643.529l0,0h0l16.137-9.378a2.908,2.908,0,0,0,.644-.531c.058-.063.11-.135.164-.2a3.245,3.245,0,0,0,.213-.264,3.757,3.757,0,0,0,.222-.4l.008-.018.008-.017c.044-.1.087-.2.126-.3s.072-.2.1-.311.055-.2.078-.3c.009-.041.017-.086.026-.129l.008-.035c.008-.041.017-.081.024-.124.015-.092.031-.186.042-.282s.022-.187.031-.284.012-.184.017-.278.006-.189.006-.285v-.017l.132-46.607C539.643,245.445,539.643,245.356,539.64,245.267Z" transform="translate(-451.783 -165.585)" fill="url(#linear-gradient-3)"/>
        <path id="Trazado_119584" data-name="Trazado 119584" d="M518.275,241.47a12.949,12.949,0,0,1,5.876,10.176l-.132,46.607c-.011,3.742-2.659,5.25-5.914,3.37L458.313,267.1a12.954,12.954,0,0,1-5.885-10.183l.132-46.607c.011-3.74,2.659-5.25,5.925-3.364Z" transform="translate(-452.428 -162.321)" fill="url(#linear-gradient-14)"/>
        <path id="Trazado_119585" data-name="Trazado 119585" d="M477.834,225.687c4.375,2.527,7.914,8.655,7.9,13.672-.009,2.792-1.126,4.616-2.849,5.294l-.041,14.278c-.009,3.228-2.293,4.53-5.113,2.9a11.174,11.174,0,0,1-5.072-8.784l.04-14.278a16.443,16.443,0,0,1-2.809-8.559C469.906,225.195,473.467,223.167,477.834,225.687Z" transform="translate(-443.101 -152.458)" fill="url(#radial-gradient)"/>
        <g id="Grupo_82331" data-name="Grupo 82331" transform="translate(14.657)">
          <path id="Trazado_119586" data-name="Trazado 119586" d="M475.635,193.034c.014-.066.026-.133.04-.2q.152-.723.36-1.388c.026-.083.054-.164.081-.247a12.259,12.259,0,0,1,.471-1.2c.017-.038.031-.08.049-.118a10.634,10.634,0,0,1,.673-1.218c.035-.054.075-.1.112-.155a8.922,8.922,0,0,1,.641-.847c.084-.1.172-.192.258-.284a8.1,8.1,0,0,1,.629-.607c.091-.08.178-.161.272-.235a8.04,8.04,0,0,1,.968-.675l-6.94,4.035a7.866,7.866,0,0,0-.97.673c-.092.075-.181.156-.271.235a8.616,8.616,0,0,0-.627.607c-.088.094-.175.186-.258.284a9.162,9.162,0,0,0-.643.847c-.035.054-.077.1-.11.155l-.026.037a10.232,10.232,0,0,0-.632,1.146l-.015.035c-.018.038-.034.081-.051.121-.118.258-.233.518-.336.793-.049.132-.089.273-.135.408-.026.081-.055.163-.081.245s-.052.149-.075.227c-.081.276-.155.562-.223.853-.023.1-.04.207-.061.308-.014.067-.028.133-.04.2-.02.1-.044.2-.063.31-.045.261-.084.526-.118.8-.02.147-.032.3-.048.451,0,.054-.012.106-.017.16s-.014.127-.02.193c-.02.258-.037.519-.048.785s-.018.532-.02.805v.049l-.055,19.7a5.132,5.132,0,0,1-.092.968l-.006.028a3.587,3.587,0,0,1-.253.793l-.006.014a2.779,2.779,0,0,1-.337.523c-.042.051-.081.106-.126.153a2.2,2.2,0,0,1-.491.4l6.94-4.033a2.207,2.207,0,0,0,.492-.4c.044-.048.083-.1.124-.155a2.353,2.353,0,0,0,.163-.2,2.678,2.678,0,0,0,.169-.307l.008-.015,0-.012c.034-.074.066-.149.1-.229s.054-.155.078-.236.042-.152.06-.23c.008-.032.014-.066.02-.1l0-.026c.006-.032.014-.063.02-.1.012-.069.023-.141.032-.215s.015-.143.021-.216.011-.141.014-.212,0-.144,0-.218v-.014l.057-19.7c0-.634.032-1.244.087-1.832,0-.054.011-.106.015-.16Q475.489,193.783,475.635,193.034Z" transform="translate(-459.305 -173.151)" fill="url(#linear-gradient-3)"/>
          <path id="Trazado_119587" data-name="Trazado 119587" d="M517.8,224.375q-.018-.617-.058-1.241c-.012-.19-.031-.384-.046-.575-.006-.081-.012-.163-.02-.244-.011-.143-.02-.285-.034-.428q-.06-.626-.14-1.256t-.184-1.29l-.008-.049-.011-.058c-.063-.4-.13-.793-.205-1.192-.083-.445-.175-.893-.272-1.341-.037-.163-.078-.327-.115-.491-.021-.1-.043-.189-.066-.282-.044-.192-.086-.382-.133-.574-.112-.454-.232-.91-.359-1.364-.094-.339-.195-.68-.3-1.019-.017-.06-.034-.12-.052-.179s-.031-.107-.047-.163c-.135-.443-.278-.888-.427-1.332s-.3-.876-.459-1.315c-.029-.084-.063-.169-.1-.253-.024-.069-.051-.136-.077-.206-.1-.267-.2-.534-.3-.8-.163-.419-.331-.836-.5-1.252-.127-.307-.261-.611-.393-.916l-.065-.15c-.024-.055-.047-.11-.072-.166q-.276-.626-.567-1.247c-.213-.456-.434-.91-.658-1.361-.035-.071-.074-.14-.109-.21-.045-.089-.092-.176-.136-.265-.183-.359-.365-.716-.554-1.071-.239-.448-.5-.887-.745-1.329-.126-.222-.247-.448-.376-.67-.051-.087-.1-.178-.149-.265-.224-.382-.474-.749-.706-1.126-.344-.555-.681-1.114-1.042-1.658-.057-.086-.107-.176-.164-.262q-.771-1.155-1.591-2.266c-.016-.02-.028-.04-.042-.06l-.006-.008q-.564-.764-1.148-1.506-.463-.587-.937-1.158l-.034-.041-.021-.026q-.49-.589-.993-1.163t-1-1.109l-.158-.166c-.057-.061-.115-.12-.172-.179-.239-.255-.479-.511-.723-.758q-.538-.548-1.085-1.074c-.109-.1-.221-.2-.33-.305-.086-.08-.17-.158-.255-.238-.183-.169-.364-.342-.546-.508q-.566-.511-1.143-1c-.164-.138-.331-.27-.5-.4l-.259-.212c-.13-.1-.258-.213-.388-.316q-.557-.442-1.126-.859c-.27-.2-.543-.39-.815-.58l-.155-.11-.146-.1q-.541-.373-1.089-.72t-1.084-.664c-.083-.051-.167-.1-.252-.147q-.41-.237-.815-.456c-.1-.057-.209-.107-.311-.163-.14-.072-.278-.144-.417-.215-.106-.055-.215-.113-.322-.167-.175-.086-.347-.164-.52-.245-.124-.058-.249-.118-.371-.175-.049-.021-.1-.048-.147-.069q-.515-.23-1.026-.436h0l-.052-.018q-.492-.2-.98-.37c-.046-.017-.092-.029-.139-.046-.126-.043-.25-.081-.376-.123-.17-.055-.344-.117-.512-.167-.091-.028-.177-.048-.266-.074-.154-.044-.305-.086-.457-.126-.114-.031-.229-.066-.341-.094s-.245-.054-.37-.083c-.152-.035-.3-.069-.453-.1-.077-.017-.155-.037-.232-.052-.144-.028-.287-.046-.43-.071-.173-.031-.347-.061-.518-.086-.06-.009-.12-.021-.178-.029-.147-.02-.29-.029-.434-.045-.186-.02-.371-.041-.555-.057-.051,0-.1-.012-.156-.015-.126-.009-.247-.006-.373-.012-.221-.011-.442-.02-.66-.021-.058,0-.12-.006-.178-.006-.1,0-.185.011-.281.012-.275.006-.545.018-.813.04-.08,0-.163,0-.242.011-.06.006-.117.02-.178.026-.4.042-.8.1-1.195.173-.037.008-.075.009-.112.017l-.022,0a13.1,13.1,0,0,0-1.635.451c-.048.015-.1.023-.146.04s-.075.032-.114.046c-.232.084-.459.181-.684.279-.109.046-.219.089-.327.138-.33.155-.652.321-.965.5l-6.94,4.033c.313-.183.635-.348.963-.5.107-.051.219-.092.328-.14.226-.1.451-.193.683-.279.086-.031.175-.057.261-.086a13.05,13.05,0,0,1,1.635-.449c.043-.009.089-.014.132-.023.391-.075.79-.13,1.2-.173.138-.014.279-.026.419-.037.268-.02.54-.032.813-.038.153,0,.305-.009.46-.008.216,0,.436.011.657.021.178.008.354.014.534.029s.367.035.551.055c.2.023.408.044.614.074.172.026.345.057.52.086.219.038.439.077.66.123.15.031.3.066.454.1.235.054.472.112.709.175.152.04.3.081.457.126.258.075.519.157.779.242.126.04.25.078.376.123q.559.191,1.124.416l.046.017c.39.156.784.328,1.18.508.121.055.244.115.367.173q.423.2.848.414c.138.069.275.141.414.215.374.2.749.4,1.128.617.867.5,1.724,1.049,2.57,1.635.052.035.1.074.155.109.789.551,1.565,1.138,2.33,1.755l.258.212q1.112.911,2.188,1.911c.084.078.169.156.253.236q1.091,1.029,2.14,2.139c.055.06.112.118.169.178q1.114,1.192,2.175,2.464l.034.041q1.075,1.3,2.089,2.672c.017.023.032.048.049.071.6.821,1.184,1.665,1.749,2.519.36.545.7,1.1,1.042,1.66.285.462.58.919.853,1.388.13.222.252.45.379.673.447.792.885,1.589,1.3,2.4.046.087.094.176.138.264.5.986.967,1.982,1.405,2.985l.064.149q.642,1.477,1.2,2.972c.026.067.051.133.075.2q.564,1.528,1.029,3.067c.018.058.034.117.052.173q.442,1.48.79,2.959c.021.1.043.189.066.282.232,1.012.431,2.022.592,3.024l.011.06c.161,1.014.281,2.023.365,3.022.008.081.014.163.02.244.078,1,.122,1.994.119,2.973l-.057,19.7a5.123,5.123,0,0,1-.091.968l-.006.028a3.6,3.6,0,0,1-.255.795l0,.012a2.673,2.673,0,0,1-.339.523c-.041.052-.08.106-.124.153a2.2,2.2,0,0,1-.491.407l6.94-4.035a2.2,2.2,0,0,0,.491-.405c.046-.048.084-.1.126-.153a2.534,2.534,0,0,0,.161-.2,2.928,2.928,0,0,0,.17-.308l.006-.014.006-.014c.034-.074.066-.149.1-.229s.055-.155.078-.236.043-.15.06-.23c.008-.032.014-.066.02-.1l.006-.028c.006-.032.014-.061.018-.094.012-.071.023-.143.032-.215s.017-.144.023-.218.009-.14.012-.212,0-.144.006-.218v-.012l.055-19.7C517.821,225.148,517.815,224.762,517.8,224.375Z" transform="translate(-459.346 -177.575)" fill="url(#linear-gradient-3)"/>
          <path id="Trazado_119588" data-name="Trazado 119588" d="M487.86,183.725c14.19,8.194,25.7,28.12,25.654,44.436l-.057,19.7c-.008,2.855-2.026,4.005-4.512,2.571a9.88,9.88,0,0,1-4.49-7.769l.057-19.7c.029-10.607-7.453-23.565-16.683-28.894s-16.76-1.037-16.79,9.57l-.055,19.7c-.009,2.855-2.027,4.005-4.512,2.57a9.872,9.872,0,0,1-4.49-7.769l.055-19.7C462.083,182.125,473.669,175.533,487.86,183.725Z" transform="translate(-461.982 -176.171)" fill="url(#linear-gradient-17)"/>
        </g>
      </g>
      <g id="Grupo_82337" data-name="Grupo 82337" transform="translate(0 121.491)">
        <path id="Trazado_119589" data-name="Trazado 119589" d="M505.81,231.983a2.191,2.191,0,0,1,.448-.1l.04,0a1.69,1.69,0,0,1,.436.023l.023.006a1.34,1.34,0,0,1,.39.147l-6.265-3.64-.014-.008a1.143,1.143,0,0,0-.138-.068,1.238,1.238,0,0,0-.144-.051c-.031-.009-.063-.015-.094-.022l-.023-.006-.035-.008c-.054-.009-.109-.015-.164-.02s-.12,0-.181,0l-.055.006-.04,0c-.035,0-.071,0-.107.011-.078.012-.158.029-.241.051-.032.009-.068.025-.1.035s-.064.021-.1.034-.084.026-.127.043a3.425,3.425,0,0,0-.382.192L426.912,270.2l6.265,3.64L505.2,232.252a3.109,3.109,0,0,1,.509-.235Z" transform="translate(-368.199 -228.234)" fill="url(#linear-gradient-18)"/>
        <path id="Trazado_119590" data-name="Trazado 119590" d="M437.626,275.182c-.017-5.791-2.069-9.87-5.375-11.791l-6.265-3.64c3.306,1.921,5.359,6,5.375,11.789,0,.667-.031,1.345-.081,2.028-.017.216-.043.433-.064.65q-.064.656-.16,1.316c-.069.486-.158.974-.252,1.464-.064.334-.121.669-.2,1.006-.071.313-.152.627-.232.942-.11.437-.222.874-.35,1.312-.074.253-.153.506-.232.759q-.232.736-.494,1.471c-.072.2-.143.407-.219.609-.253.677-.522,1.352-.813,2.02-.035.078-.074.157-.109.235-.264.6-.545,1.19-.836,1.778-.094.186-.187.371-.282.557q-.428.833-.893,1.649c-.061.107-.12.219-.181.327q-.557.957-1.16,1.887c-.117.178-.238.353-.356.529q-.444.667-.913,1.316c-.169.235-.339.466-.514.7-.27.361-.549.713-.83,1.063-.235.293-.473.585-.715.87s-.469.537-.707.8q-.6.667-1.22,1.3c-.258.262-.514.526-.778.778-.2.2-.411.388-.618.577-.342.313-.689.614-1.039.908-.209.175-.416.351-.627.52-.38.3-.766.589-1.155.87-.184.134-.367.275-.552.4-.577.4-1.16.772-1.75,1.112-.568.328-1.129.612-1.684.874-.144.067-.287.132-.43.2-.535.238-1.066.457-1.588.635-.035.012-.069.02-.1.032-.453.15-.893.265-1.333.371-.252.061-.5.114-.749.16q-.5.094-.979.15c-.184.02-.368.043-.549.055-.406.028-.8.035-1.2.023-.084,0-.172,0-.255,0a10.284,10.284,0,0,1-1.361-.172c-.11-.022-.219-.051-.328-.077a9.07,9.07,0,0,1-1.009-.292c-.1-.037-.209-.069-.31-.109a8.81,8.81,0,0,1-1.209-.575l6.265,3.642.1.057a8.762,8.762,0,0,0,.927.454c.058.025.121.04.179.063.1.04.207.074.311.109.161.057.318.123.483.172s.35.08.526.121c.109.025.216.054.328.075.061.012.118.031.181.041a10.075,10.075,0,0,0,1.112.13c.023,0,.046,0,.067,0,.083.006.17,0,.255,0,.3.009.592.02.9.006.1,0,.2-.021.3-.029.181-.012.365-.034.549-.055s.345-.025.525-.052c.147-.023.3-.069.454-.1.247-.048.5-.1.749-.161.14-.034.273-.049.413-.087.3-.083.611-.18.92-.284.035-.012.069-.02.1-.032.376-.129.755-.27,1.138-.43.147-.061.3-.14.448-.206s.287-.129.433-.2c.555-.262,1.115-.546,1.683-.874.591-.341,1.174-.715,1.749-1.111.187-.129.37-.27.555-.4.388-.281.775-.568,1.154-.87.212-.169.419-.344.627-.52q.525-.44,1.039-.908c.207-.189.414-.381.618-.577.126-.12.256-.23.379-.353s.264-.287.4-.423q.621-.633,1.221-1.3c.126-.143.262-.27.387-.414.109-.124.21-.259.319-.387.242-.285.479-.578.715-.871.152-.19.311-.368.46-.561.127-.163.246-.334.37-.5.175-.232.345-.463.514-.7.113-.156.233-.307.345-.466.195-.278.379-.566.568-.848.118-.178.239-.351.356-.531.046-.072.1-.141.143-.213q.492-.771.954-1.562c.022-.035.04-.074.061-.11.064-.11.123-.222.186-.333.21-.368.42-.736.618-1.111.1-.176.18-.356.27-.532s.19-.371.284-.558c.078-.159.164-.317.242-.479.207-.43.4-.864.594-1.3.035-.08.074-.156.109-.236l.031-.066q.357-.824.675-1.655c.038-.1.071-.2.107-.3.077-.2.146-.4.219-.608.1-.278.206-.554.3-.833.071-.212.129-.425.195-.638.08-.255.16-.508.233-.761.046-.16.1-.317.146-.477.077-.278.133-.555.2-.833.078-.314.161-.629.232-.943.025-.111.057-.222.081-.333.048-.225.072-.448.115-.673.094-.489.181-.977.252-1.462.02-.137.052-.275.071-.41.038-.305.06-.606.089-.91.021-.216.048-.433.063-.647C437.6,276.528,437.628,275.85,437.626,275.182Z" transform="translate(-382.599 -211.402)" fill="url(#linear-gradient-19)"/>
        <path id="Trazado_119591" data-name="Trazado 119591" d="M446.4,254.4c.12.064.244.121.362.19l-6.265-3.64-.166-.1c-.064-.035-.132-.061-.2-.1q-.55-.3-1.126-.549c-.071-.032-.137-.072-.209-.1-.057-.023-.118-.038-.176-.061a14.7,14.7,0,0,0-1.393-.492l-.038-.012-.008,0c-.494-.144-1-.255-1.519-.351-.061-.011-.118-.031-.179-.041-.08-.014-.163-.015-.242-.028q-.677-.108-1.376-.161c-.074-.006-.141-.021-.215-.026-.024,0-.049,0-.074,0-.572-.034-1.158-.037-1.752-.015-.058,0-.113,0-.172,0-.077,0-.155.018-.232.023-.666.037-1.341.1-2.031.2h-.008c-.448.069-.9.153-1.359.252-.146.031-.295.072-.442.107-.287.066-.572.129-.862.209l-.083.025c-.538.149-1.082.314-1.631.5-.1.035-.209.078-.311.115-.448.16-.9.328-1.351.512-.057.025-.112.041-.169.064-.107.044-.218.1-.325.149q-.727.311-1.465.667c-.181.087-.362.175-.545.267-.64.322-1.281.661-1.93,1.036-.976.563-1.939,1.184-2.892,1.838-.308.212-.611.445-.917.667-.641.462-1.278.934-1.907,1.436-.348.278-.69.569-1.035.858q-.868.729-1.717,1.5c-.344.314-.686.631-1.025.956-.207.2-.423.384-.629.588q-.854.842-1.684,1.726l0,0q-.828.884-1.631,1.806c-.18.2-.345.425-.522.634-.4.472-.792.954-1.183,1.441-.252.313-.517.612-.764.93-.207.269-.4.549-.6.821q-.43.571-.85,1.152c-.189.261-.388.512-.572.776-.321.456-.621.927-.931,1.39-.2.295-.4.585-.591.882-.078.121-.163.238-.241.359q-.812,1.27-1.574,2.576c-.034.058-.064.118-.1.176-.1.18-.2.364-.3.543-.348.614-.7,1.226-1.029,1.847-.153.288-.293.584-.443.876s-.311.609-.465.914c-.132.268-.275.531-.4.8-.341.706-.66,1.417-.976,2.129-.06.135-.124.265-.183.4-.017.038-.035.075-.052.112q-.589,1.36-1.117,2.731c-.063.164-.115.33-.176.492-.124.333-.239.666-.357,1-.166.46-.342.919-.5,1.381-.117.351-.212.7-.322,1.054-.132.419-.261.836-.382,1.253-.077.264-.169.526-.241.789-.127.46-.222.917-.337,1.376-.132.52-.267,1.039-.382,1.557-.041.184-.1.368-.135.551-.181.848-.333,1.694-.469,2.536-.029.175-.052.347-.08.52-.058.382-.123.766-.172,1.146-.066.5-.1,1-.149,1.5-.034.357-.078.715-.1,1.069-.085,1.128-.138,2.247-.135,3.352.028,9.559,3.415,16.294,8.872,19.464l6.265,3.642c-5.457-3.171-8.844-9.907-8.872-19.466,0-1.1.051-2.223.135-3.351.026-.354.071-.713.1-1.071.087-.879.186-1.761.322-2.649.026-.172.049-.344.077-.515.167-1.026.376-2.057.606-3.091.115-.517.252-1.036.382-1.554.181-.721.367-1.442.577-2.163.123-.42.253-.839.383-1.258.256-.812.526-1.621.816-2.43.12-.334.235-.667.359-1,.42-1.115.864-2.229,1.344-3.333.06-.137.127-.272.187-.408.434-.98.9-1.954,1.376-2.919.152-.307.308-.614.465-.917q.709-1.378,1.474-2.726c.1-.18.2-.361.3-.539.611-1.054,1.252-2.091,1.913-3.113.192-.3.393-.586.589-.881q.736-1.1,1.5-2.168.419-.582.85-1.152c.446-.594.905-1.174,1.367-1.749.391-.486.784-.971,1.186-1.444.7-.83,1.414-1.654,2.151-2.438h0c.753-.8,1.531-1.565,2.315-2.315q.506-.486,1.023-.954.847-.773,1.715-1.5c.345-.29.689-.58,1.039-.859.627-.5,1.264-.973,1.905-1.436.307-.221.609-.454.917-.667.953-.654,1.916-1.273,2.892-1.838.647-.374,1.29-.713,1.928-1.035.182-.092.365-.179.546-.267q.739-.357,1.464-.667c.166-.071.331-.146.5-.212.453-.186.9-.353,1.347-.511.106-.038.212-.083.318-.118q.822-.281,1.629-.5c.318-.087.631-.161.945-.235.147-.034.3-.075.442-.107q.69-.147,1.367-.252c.69-.106,1.365-.166,2.031-.2.135-.008.27-.017.4-.021.594-.02,1.178-.018,1.75.015.1.006.193.018.29.026q.7.053,1.376.161c.141.023.282.044.422.069.515.1,1.025.209,1.519.351l.046.015a14.638,14.638,0,0,1,1.393.491c.129.052.256.109.385.164Q445.854,254.1,446.4,254.4Z" transform="translate(-388.64 -217.195)" fill="url(#linear-gradient-20)"/>
        <path id="Trazado_119592" data-name="Trazado 119592" d="M523.463,230.984c1.852-1.069,3.177.242,2.613,2.6l-3.41,14.259a6.065,6.065,0,0,1-2.6,3.673l-20.446,11.8a6.006,6.006,0,0,0-2.724,4.719,6.008,6.008,0,0,1-2.725,4.72l-42.667,24.634c-4.32,15.648-15.371,31.4-28.308,38.87-16.754,9.674-30.419,1.875-30.474-17.366S406.247,276.132,423,266.458c12.937-7.469,24.042-4.506,28.436,6.11ZM423.159,322.5c10.139-5.853,18.36-20.1,18.328-31.752s-8.309-16.376-18.447-10.524-18.369,20.11-18.335,31.76,8.309,16.375,18.455,10.516" transform="translate(-386.459 -226.967)" fill="url(#linear-gradient-21)"/>
        <g id="Grupo_82336" data-name="Grupo 82336" transform="translate(74.988 11.536)">
          <g id="Grupo_82335" data-name="Grupo 82335" style="isolation: isolate">
            <g id="Grupo_82334" data-name="Grupo 82334">
              <path id="Trazado_119593" data-name="Trazado 119593" d="M447.8,270.186c-1.319.761-2.4.153-2.408-1.373a5.285,5.285,0,0,1,2.393-4.147c1.328-.767,2.415-.16,2.419,1.368a5.283,5.283,0,0,1-2.4,4.151m7.233-4.176c-1.329.767-2.4.153-2.409-1.373a5.265,5.265,0,0,1,2.393-4.147c1.319-.761,2.405-.153,2.41,1.373a5.289,5.289,0,0,1-2.395,4.147m7.224-4.171c-1.328.767-2.406.155-2.41-1.373a5.271,5.271,0,0,1,2.395-4.145c1.328-.769,2.405-.155,2.408,1.373a5.265,5.265,0,0,1-2.393,4.145m7.224-4.17c-1.33.767-2.406.153-2.41-1.373a5.263,5.263,0,0,1,2.395-4.147c1.328-.767,2.4-.153,2.408,1.373a5.27,5.27,0,0,1-2.393,4.147M476.7,253.5c-1.328.767-2.4.155-2.409-1.373a5.265,5.265,0,0,1,2.393-4.145c1.33-.769,2.406-.155,2.41,1.371A5.263,5.263,0,0,1,476.7,253.5m7.224-4.171c-1.319.762-2.406.155-2.408-1.371a5.28,5.28,0,0,1,2.393-4.147c1.328-.767,2.405-.155,2.41,1.373a5.271,5.271,0,0,1-2.395,4.145m8.51-13.336L439.251,266.7a3.816,3.816,0,0,0-1.73,2.988l.02,7.319c0,1.1.784,1.546,1.743.993l53.185-30.706a3.8,3.8,0,0,0,1.723-2.993l-.021-7.319c0-1.091-.775-1.542-1.734-.988" transform="translate(-437.521 -235.754)" fill="url(#linear-gradient-22)"/>
              <g id="Grupo_82333" data-name="Grupo 82333" transform="translate(7.87 7.724)">
                <path id="Trazado_119594" data-name="Trazado 119594" d="M445.044,254.716a5.285,5.285,0,0,0-2.393,4.147c0,1.526,1.089,2.134,2.408,1.373a5.283,5.283,0,0,0,2.4-4.151c0-1.528-1.091-2.135-2.419-1.368" transform="translate(-442.651 -233.528)" fill="url(#linear-gradient-23)"/>
                <path id="Trazado_119595" data-name="Trazado 119595" d="M449.759,251.993a5.265,5.265,0,0,0-2.393,4.147c0,1.526,1.08,2.14,2.409,1.373a5.289,5.289,0,0,0,2.395-4.147c0-1.526-1.091-2.134-2.41-1.373" transform="translate(-440.133 -234.981)" fill="url(#linear-gradient-24)"/>
                <path id="Trazado_119596" data-name="Trazado 119596" d="M454.469,249.276a5.271,5.271,0,0,0-2.395,4.145c0,1.528,1.082,2.14,2.41,1.373a5.265,5.265,0,0,0,2.393-4.145c0-1.528-1.08-2.142-2.409-1.373" transform="translate(-437.618 -236.434)" fill="url(#linear-gradient-25)"/>
                <path id="Trazado_119597" data-name="Trazado 119597" d="M459.178,246.557a5.263,5.263,0,0,0-2.395,4.147c0,1.526,1.08,2.14,2.41,1.373a5.27,5.27,0,0,0,2.393-4.147c0-1.526-1.08-2.14-2.409-1.373" transform="translate(-435.103 -237.885)" fill="url(#linear-gradient-26)"/>
                <path id="Trazado_119598" data-name="Trazado 119598" d="M463.885,243.839a5.265,5.265,0,0,0-2.393,4.145c0,1.528,1.08,2.14,2.409,1.373a5.263,5.263,0,0,0,2.395-4.147c0-1.526-1.08-2.14-2.41-1.371" transform="translate(-432.588 -239.338)" fill="url(#linear-gradient-27)"/>
                <path id="Trazado_119599" data-name="Trazado 119599" d="M468.594,241.12a5.28,5.28,0,0,0-2.393,4.147c0,1.526,1.089,2.134,2.408,1.371A5.271,5.271,0,0,0,471,242.493c0-1.528-1.082-2.14-2.41-1.373" transform="translate(-430.073 -240.789)" fill="url(#linear-gradient-28)"/>
              </g>
            </g>
          </g>
        </g>
      </g>
    </g>
  </g>
</svg>
