<svg id="Grupo_81330" data-name="Grupo 81330" xmlns="http://www.w3.org/2000/svg" width="67" height="105" viewBox="0 0 67 105">
  <rect id="Rectángulo_34185" data-name="Rectángulo 34185" width="67" height="105" rx="5" fill="#fff"/>
  <g id="Grupo_84756" data-name="Grupo 84756" transform="translate(8.568 9.53)">
    <path id="Trazado_123631" data-name="Trazado 123631" d="M448.019,444.472c.072-.913-.021-1.781.1-2.646a7.385,7.385,0,0,1,14.614.013,41.738,41.738,0,0,1,.089,4.613c.014.616.008,1.232,0,1.848,0,.223.011.34.3.387a2.436,2.436,0,0,1,2.161,2.564q.006,6.442,0,12.883a2.459,2.459,0,0,1-2.615,2.6q-23.1,0-46.2.012c-.44,0-.479-.158-.478-.521.012-3.028.006-6.057.007-9.085a14.029,14.029,0,0,1,11.219-14.017c1.065-.241,2.124-.515,3.191-.747.318-.069.354-.226.389-.515a1.923,1.923,0,0,0-.862-1.915,8.621,8.621,0,0,1-3.252-6.745c-.023-.735-.017-1.472,0-2.207.007-.293-.039-.412-.38-.411-1.095,0-1.287-.192-1.264-1.285a25.706,25.706,0,0,1,.188-4.656,9.031,9.031,0,0,1,8.656-7.18,36.989,36.989,0,0,1,4.717.082,9.05,9.05,0,0,1,7.7,7.689,42.172,42.172,0,0,1,.085,4.512c.007.565-.353.881-.989.836-.533-.038-.674.122-.659.656a12.674,12.674,0,0,1-.485,4.765,8.853,8.853,0,0,1-3.1,4.239,1.088,1.088,0,0,0-.523,1.041c.041,1,.016.983.975,1.225a30.128,30.128,0,0,1,5.7,1.636C447.534,444.246,447.761,444.351,448.019,444.472Zm-15.787,20.6h3.116c-.819-.824-1.623-1.62-2.412-2.431a9.8,9.8,0,0,1-1.288-1.373l-.043-.184c.453-4.113.906-8.227,1.371-12.438-.252.191-.426.318-.6.452-.729.578-1.114.522-1.627-.238q-1.2-1.781-2.4-3.56c-.077-.131-.147-.269-.235-.392-.074-.1-.117-.287-.3-.218s-.085.232-.062.355q1.794,9.691,3.593,19.382C431.479,465.111,431.488,465.11,432.232,465.07Zm7.56-3.8c-.151.182-.29.376-.456.544-1.07,1.084-2.146,2.162-3.239,3.26h3.111c.3-.065.718.277.832-.342,1.181-6.427,2.38-12.851,3.558-19.279.044-.24.292-.632.013-.73-.3-.1-.363.355-.524.574-.062.08-.13.157-.186.241-.768,1.149-1.53,2.3-2.3,3.446a.848.848,0,0,1-1.418.212c-.211-.164-.419-.331-.721-.57.174,1.571.335,3.022.5,4.474q.44,3.993.88,7.986Zm23.835-5.217c.007-1.624.021-3.247.016-4.871,0-.583-.334-.874-.962-.874q-7.257,0-14.513,0a.828.828,0,0,0-.945.944c-.008.769,0,1.538,0,2.308q0,5.257,0,10.513c0,.676.275,1.011.875,1.013,1.76.006,3.521-.009,5.281-.016,3.142.007,6.284.017,9.426.015a.778.778,0,0,0,.839-.836C463.646,461.513,463.634,458.781,463.628,456.049Zm-39.407,4.344c0-1.42,0-2.84,0-4.26a.812.812,0,0,1,.58-.866.783.783,0,0,1,.879.259,1.025,1.025,0,0,1,.188.725c0,2.754.007,5.508-.011,8.262,0,.434.084.607.559.583.8-.042,1.607-.011,2.411-.011,1.008,0,.993,0,.8-.982q-.759-3.963-1.5-7.929c-.647-3.481-1.283-6.964-1.93-10.445-.117-.631-.127-.614-.748-.362a12.436,12.436,0,0,0-4.551,3.158,11.91,11.91,0,0,0-3.233,7.828c-.1,2.751-.013,5.508-.031,8.262,0,.4.137.482.5.478q2.8-.024,5.594,0c.387,0,.5-.112.489-.494C424.208,463.2,424.221,461.8,424.221,460.393Zm11.485-41.3c-.6,0-1.2-.007-1.8,0a7.415,7.415,0,0,0-7.038,5.75,20.67,20.67,0,0,0-.189,3.832c-.013.35.232.267.418.268,1.847,0,3.694.023,5.541-.005a5.569,5.569,0,0,0,4.341-2.078c.429-.51.836-1.039,1.256-1.556.507-.626,1.017-.633,1.518-.015.656.811,1.335,1.605,1.949,2.446a2.888,2.888,0,0,0,2.714,1.219c.275-.017.344-.1.34-.359-.014-.735,0-1.471-.007-2.206a7.427,7.427,0,0,0-5.283-7A12.91,12.91,0,0,0,435.706,419.093Zm-4.819,11.5c-.736,0-1.471,0-2.207,0-.2,0-.368-.017-.355.278.046,1.076-.068,2.154.085,3.228a7.384,7.384,0,0,0,14.522.565,21.094,21.094,0,0,0,.185-3.937c.008-.224-.137-.232-.287-.272a4.311,4.311,0,0,1-2.356-1.634c-.362-.477-.77-.92-1.11-1.411-.27-.391-.43-.393-.711,0a7.526,7.526,0,0,1-3.85,2.846A12.329,12.329,0,0,1,430.886,430.59Zm24.5,18.07c.991,0,1.982-.012,2.972.007.3.005.365-.089.364-.372-.013-1.828.014-3.656-.015-5.483a3.278,3.278,0,0,0-6.554.014c-.026,1.828,0,3.656-.015,5.483,0,.305.1.362.379.357C453.476,448.65,454.433,448.659,455.39,448.659Zm-11.742,16.427h1.129c.814,0,.8,0,.8-.77q-.006-6.622,0-13.245a2.087,2.087,0,0,1,1.493-2.169c1.024-.254,1.043-.812.971-1.583a4.845,4.845,0,0,1,0-.616.421.421,0,0,0-.224-.42,13.542,13.542,0,0,0-2.07-1.012c-.324-.126-.466-.063-.494.3a8.875,8.875,0,0,1-.181.9q-.9,4.924-1.8,9.849-.773,4.195-1.566,8.386c-.051.273.018.381.3.375C442.553,465.079,443.1,465.086,443.648,465.086Zm-5.546-4.773c-.2-1.783-.383-3.5-.575-5.215-.179-1.6-.365-3.193-.541-4.79-.026-.242-.065-.41-.36-.262a1.936,1.936,0,0,1-1.818,0c-.237-.117-.326-.037-.351.221-.063.663-.151,1.324-.225,1.987q-.445,4.027-.89,8.054a.633.633,0,0,0,.176.6q1,.962,1.959,1.96c.191.2.306.187.491,0q.909-.942,1.85-1.852C438.047,460.789,438.2,460.573,438.1,460.313Zm11.582-15.2c0,1.2.006,2.194,0,3.185,0,.248.045.352.331.37.409.025.51-.111.505-.511-.021-1.8-.032-3.592,0-5.388a4.923,4.923,0,0,1,9.844.179q.019,2.642,0,5.285c0,.331.084.431.424.436.36,0,.418-.135.411-.448-.017-.872.009-1.745-.01-2.617a27.3,27.3,0,0,0-.082-3.585,5.735,5.735,0,0,0-11.231-.528A18.1,18.1,0,0,0,449.684,445.117Zm-17.2-3.636a1.025,1.025,0,0,0,.6,1.372,19.511,19.511,0,0,1,2.2,1.307.693.693,0,0,0,.872.013,22.467,22.467,0,0,1,2.152-1.282,1.058,1.058,0,0,0,.656-1.4A8.967,8.967,0,0,1,432.483,441.481Zm-2.819,2.771c.691,1.037,1.337,2,1.973,2.969.124.189.217.207.4.06.645-.531,1.3-1.057,1.959-1.566.28-.215.195-.314-.056-.46-.723-.419-1.434-.859-2.151-1.289a.606.606,0,0,0-.478-.133C430.78,443.969,430.253,444.1,429.664,444.251Zm10.37-.442a1.115,1.115,0,0,0-.228.078c-.808.479-1.612.965-2.42,1.444-.171.1-.158.2-.016.309q1.042.832,2.081,1.667c.136.11.221.109.324-.047q.915-1.392,1.845-2.774c.094-.141.113-.255-.079-.3C441.044,444.055,440.546,443.936,440.033,443.81Zm-3.292,4.2c.016-.626-.578-1.516-1.016-1.52-.418,0-1,.828-1.023,1.46-.01.309.46.608.988.628C436.133,448.6,436.735,448.27,436.742,448.011Z" transform="translate(-416 -417.424)" fill="#232021"/>
    <path id="Trazado_123632" data-name="Trazado 123632" d="M574.143,592.251c-1.761.007-3.521.021-5.281.016-.6,0-.875-.337-.875-1.013q0-5.256,0-10.513c0-.769-.006-1.538,0-2.307a.828.828,0,0,1,.945-.944q7.257-.005,14.513,0c.628,0,.96.291.962.874.006,1.624-.009,3.247-.015,4.871-.19.023-.229.19-.291.323a14.806,14.806,0,0,1-3.739,5.03,18.57,18.57,0,0,1-4.78,2.99C575.1,591.79,574.524,591.818,574.143,592.251Zm1.235-4.446c0,.6,0,1.2,0,1.795,0,.655.294,1.021.81,1.028s.83-.362.832-1.007c0-1.179.016-2.359-.008-3.538a.727.727,0,0,1,.43-.754,2.29,2.29,0,0,0,1.208-2.315,2.322,2.322,0,0,0-1.5-2.039,2.448,2.448,0,0,0-2.131,4.4.6.6,0,0,1,.363.634C575.361,586.608,575.378,587.207,575.378,587.8Z" transform="translate(-536.765 -544.609)" fill="#c52931"/>
    <path id="Trazado_123633" data-name="Trazado 123633" d="M430.509,567.865c0,1.4-.013,2.806.008,4.208.006.382-.1.5-.489.494q-2.8-.028-5.594,0c-.367,0-.507-.077-.5-.478.018-2.754-.064-5.511.031-8.262A11.91,11.91,0,0,1,427.194,556a12.435,12.435,0,0,1,4.551-3.158c.621-.252.631-.268.748.362.647,3.481,1.283,6.964,1.93,10.445q.738,3.966,1.5,7.929c.189.984.2.982-.8.982-.8,0-1.61-.03-2.411.011-.475.025-.562-.148-.559-.583.019-2.754.008-5.508.011-8.262a1.024,1.024,0,0,0-.188-.726.783.783,0,0,0-.879-.259.811.811,0,0,0-.58.866C430.512,565.025,430.509,566.445,430.509,567.865Z" transform="translate(-422.288 -524.895)" fill="#58595a"/>
    <path id="Trazado_123634" data-name="Trazado 123634" d="M477.031,425.533a12.911,12.911,0,0,1,3.765.3,7.427,7.427,0,0,1,5.283,7c.008.735-.007,1.471.007,2.206,0,.259-.064.342-.34.359a2.889,2.889,0,0,1-2.714-1.219c-.614-.841-1.293-1.636-1.949-2.446-.5-.618-1.011-.611-1.518.015-.42.518-.827,1.046-1.256,1.556a5.569,5.569,0,0,1-4.341,2.078c-1.846.029-3.694.008-5.541.005-.186,0-.431.083-.418-.268a20.663,20.663,0,0,1,.189-3.832,7.415,7.415,0,0,1,7.038-5.751C475.834,425.526,476.433,425.533,477.031,425.533Z" transform="translate(-457.326 -423.864)" fill="#ef9b3c"/>
    <path id="Trazado_123635" data-name="Trazado 123635" d="M478.558,468.063a12.329,12.329,0,0,0,3.916-.341,7.526,7.526,0,0,0,3.85-2.846c.281-.391.44-.388.711,0,.34.491.748.934,1.11,1.411a4.311,4.311,0,0,0,2.356,1.634c.149.04.295.048.286.272a21.086,21.086,0,0,1-.185,3.937,7.384,7.384,0,0,1-14.522-.565c-.153-1.074-.039-2.153-.085-3.228-.013-.3.157-.279.355-.278C477.087,468.065,477.822,468.063,478.558,468.063Z" transform="translate(-463.671 -454.897)" fill="#f3bdad"/>
    <path id="Trazado_123636" data-name="Trazado 123636" d="M543.027,572.587c-.548,0-1.1-.007-1.643,0-.282.005-.351-.1-.3-.375q.791-4.191,1.566-8.386.907-4.923,1.8-9.849a8.889,8.889,0,0,0,.181-.9c.029-.367.17-.431.494-.3a13.551,13.551,0,0,1,2.07,1.012.422.422,0,0,1,.224.421,4.829,4.829,0,0,0,0,.616c.072.771.054,1.328-.971,1.583a2.087,2.087,0,0,0-1.493,2.169q-.012,6.622,0,13.245c0,.77.013.77-.8.77Z" transform="translate(-515.378 -524.925)" fill="#58595a"/>
    <path id="Trazado_123637" data-name="Trazado 123637" d="M505.149,586.291c.1.26-.055.476-.283.7q-.942.908-1.85,1.852c-.185.192-.3.2-.491,0q-.962-1-1.959-1.96a.634.634,0,0,1-.176-.6q.45-4.027.89-8.054c.073-.663.162-1.324.225-1.987.024-.258.114-.338.351-.221a1.936,1.936,0,0,0,1.818,0c.3-.148.334.02.36.262.176,1.6.363,3.193.541,4.79C504.766,582.792,504.953,584.509,505.149,586.291Z" transform="translate(-483.047 -543.402)" fill="#f6cb45"/>
    <path id="Trazado_123638" data-name="Trazado 123638" d="M597.971,614.484c.381-.433.957-.461,1.44-.674a18.565,18.565,0,0,0,4.78-2.99,14.807,14.807,0,0,0,3.739-5.03c.062-.134.1-.3.291-.323.006,2.732.018,5.464.015,8.2a.778.778,0,0,1-.839.836C604.255,614.5,601.113,614.49,597.971,614.484Z" transform="translate(-560.593 -566.842)" fill="#b1242b"/>
    <path id="Trazado_123639" data-name="Trazado 123639" d="M476.137,553.122l2.4,3.56c.512.76.9.816,1.627.238.169-.134.343-.261.6-.452-.464,4.211-.917,8.325-1.371,12.438a.2.2,0,0,1-.2-.2c-.065-.368-.135-.734-.209-1.1-.736-3.679-1.482-7.357-2.206-11.038C476.554,555.424,476.253,554.29,476.137,553.122Z" transform="translate(-463.784 -525.249)" fill="#a1c7f7"/>
    <path id="Trazado_123640" data-name="Trazado 123640" d="M526.718,568.889q-.44-3.993-.88-7.986c-.16-1.452-.321-2.9-.5-4.474.3.239.51.406.721.57a.848.848,0,0,0,1.418-.212c.773-1.145,1.535-2.3,2.3-3.446.056-.084.124-.161.186-.241a1.57,1.57,0,0,1,0,.305c-.952,4.78-1.9,9.562-2.877,14.337C527.014,568.125,527.07,568.583,526.718,568.889Z" transform="translate(-502.883 -525.231)" fill="#a1c7f7"/>
    <path id="Trazado_123641" data-name="Trazado 123641" d="M579.97,521.478a18.1,18.1,0,0,1,.184-3.621,5.735,5.735,0,0,1,11.231.528,27.3,27.3,0,0,1,.082,3.585c.019.872-.008,1.745.01,2.617.006.313-.051.453-.411.448-.34,0-.427-.1-.424-.436q.023-2.642,0-5.285a4.923,4.923,0,0,0-9.844-.179c-.031,1.8-.02,3.592,0,5.387,0,.4-.1.536-.505.511-.286-.017-.334-.122-.331-.37C579.976,523.671,579.97,522.679,579.97,521.478Z" transform="translate(-546.286 -493.785)" fill="#ec993b"/>
    <path id="Trazado_123642" data-name="Trazado 123642" d="M529.616,566.611c.352-.306.3-.764.374-1.147.978-4.775,1.925-9.556,2.877-14.337a1.58,1.58,0,0,0,0-.305c.161-.219.227-.677.524-.574.28.1.031.49-.013.73-1.178,6.428-2.378,12.852-3.558,19.279-.114.618-.536.277-.832.342.194-1,.4-2,.57-3,.042-.256.284-.535.013-.8Z" transform="translate(-505.781 -522.953)" fill="#90b1dc"/>
    <path id="Trazado_123643" data-name="Trazado 123643" d="M473.66,550.7c.116,1.168.417,2.3.642,3.45.724,3.682,1.47,7.359,2.206,11.038.073.366.144.733.209,1.1a.2.2,0,0,0,.2.2l.043.184c-.154.09-.11.212-.082.355.228,1.148.445,2.3.666,3.449-.744.04-.753.041-.881-.646q-1.8-9.69-3.593-19.382c-.023-.124-.12-.285.062-.355s.223.116.3.218C473.513,550.435,473.582,550.573,473.66,550.7Z" transform="translate(-461.307 -522.831)" fill="#90b1dc"/>
    <path id="Trazado_123644" data-name="Trazado 123644" d="M496,534.543a8.968,8.968,0,0,0,6.474.008,1.058,1.058,0,0,1-.656,1.4,22.494,22.494,0,0,0-2.152,1.282.693.693,0,0,1-.872-.013,19.5,19.5,0,0,0-2.2-1.307A1.025,1.025,0,0,1,496,534.543Z" transform="translate(-479.518 -510.486)" fill="#f3bdad"/>
    <path id="Trazado_123645" data-name="Trazado 123645" d="M482.521,546.365c.589-.15,1.116-.282,1.642-.418a.606.606,0,0,1,.478.132c.717.43,1.428.869,2.151,1.289.251.146.336.245.056.46-.663.509-1.314,1.034-1.959,1.566-.178.147-.271.129-.395-.06C483.858,548.365,483.212,547.4,482.521,546.365Z" transform="translate(-468.857 -519.537)" fill="#3f87f2"/>
    <path id="Trazado_123646" data-name="Trazado 123646" d="M522.274,545.881c.513.126,1.01.245,1.506.373.192.049.174.163.079.3q-.927,1.384-1.845,2.774c-.1.156-.187.158-.323.047q-1.037-.839-2.081-1.667c-.142-.113-.155-.207.016-.309.808-.48,1.612-.965,2.42-1.444A1.111,1.111,0,0,1,522.274,545.881Z" transform="translate(-498.241 -519.495)" fill="#3f87f2"/>
    <path id="Trazado_123647" data-name="Trazado 123647" d="M492.34,634.666c-.22-1.15-.438-2.3-.666-3.449-.029-.143-.072-.265.082-.355a9.81,9.81,0,0,0,1.288,1.373c.789.811,1.593,1.607,2.412,2.431Z" transform="translate(-476.108 -587.02)" fill="#a1c7f7"/>
    <path id="Trazado_123648" data-name="Trazado 123648" d="M517.538,630.865c.27.269.029.548-.013.8-.165,1-.376,2-.57,3h-3.111c1.092-1.1,2.169-2.176,3.239-3.26C517.248,631.241,517.387,631.047,517.538,630.865Z" transform="translate(-493.746 -587.023)" fill="#a1c7f7"/>
    <path id="Trazado_123649" data-name="Trazado 123649" d="M509.092,560.451c-.007.259-.609.585-1.051.568-.529-.02-1-.319-.988-.628.022-.632.6-1.464,1.023-1.46C508.514,558.935,509.108,559.825,509.092,560.451Z" transform="translate(-488.35 -529.865)" fill="#c1a035"/>
    <path id="Trazado_123650" data-name="Trazado 123650" d="M597.615,600.535c0-.6-.017-1.2.007-1.794a.6.6,0,0,0-.363-.634,2.448,2.448,0,0,1,2.131-4.4,2.322,2.322,0,0,1,1.5,2.039,2.29,2.29,0,0,1-1.208,2.315.727.727,0,0,0-.43.754c.024,1.179.011,2.359.008,3.538,0,.645-.311,1.014-.831,1.007s-.807-.373-.81-1.028C597.613,601.732,597.615,601.134,597.615,600.535Zm.824-5.39a.822.822,0,1,0,.819.811A.826.826,0,0,0,598.439,595.145Z" transform="translate(-559.002 -557.34)" fill="#231f20"/>
    <path id="Trazado_123651" data-name="Trazado 123651" d="M604.8,601.476a.822.822,0,1,1-.823.806A.826.826,0,0,1,604.8,601.476Z" transform="translate(-565.369 -563.67)" fill="#e7e8e8"/>
  </g>
</svg>
