<svg xmlns="http://www.w3.org/2000/svg" xmlns:xlink="http://www.w3.org/1999/xlink" width="81.311" height="81.311" viewBox="0 0 81.311 81.311">
  <defs>
    <clipPath id="clip-path">
      <rect id="Rectángulo_36626" data-name="Rectángulo 36626" width="81.311" height="81.311" fill="#fff" stroke="#707070" stroke-width="1"/>
    </clipPath>
  </defs>
  <g id="Grupo_85838" data-name="Grupo 85838" clip-path="url(#clip-path)">
    <g id="Grupo_85829" data-name="Grupo 85829" transform="translate(6.799 4.539)">
      <path id="Trazado_127346" data-name="Trazado 127346" d="M713.882-555.254a1.171,1.171,0,0,1,1.342-1.046c4.4.01,8.792-.017,13.188.015a4.351,4.351,0,0,1,4.527,3.959c.074.513.263.575.7.569,1.833-.022,3.667-.019,5.5-.007a2.19,2.19,0,0,1,2.25,3.11q-3.8,11.434-7.623,22.864a4.419,4.419,0,0,1-4.551,3.272q-18.3,0-36.6,0a4.469,4.469,0,0,1-4.728-4.73q-.007-14.423,0-28.846a4.436,4.436,0,0,1,4.594-4.721c3.22-.044,6.441-.014,9.662-.008a4.588,4.588,0,0,1,3.45,1.5c.68.716,1.391,1.4,2.093,2.1a4.235,4.235,0,0,0,.58.511c.289.2.64.466.961.321.345-.156.138-.589.141-.892.02-1.81,0-3.621.018-5.43,0-.436-.052-.735-.518-.929a2.487,2.487,0,0,1-1.323-1.313.825.825,0,0,0-.915-.542q-9.274.022-18.548.006a3.327,3.327,0,0,1-3.587-3.617c0-.846-.039-1.7.013-2.538.034-.551-.158-.657-.669-.647-1.6.034-3.2.016-4.8.011a2.209,2.209,0,0,1-2.456-2.422q0-8.816,0-17.632a2.212,2.212,0,0,1,2.419-2.4c2.821,0,5.642.008,8.463-.009a1.693,1.693,0,0,1,1.317.524q2.6,2.636,5.236,5.237a1.621,1.621,0,0,1,.51,1.25c-.013,4.349,0,8.7-.009,13.048a2.174,2.174,0,0,1-2.391,2.4c-1.646.006-3.292.017-4.937-.009-.452-.007-.615.1-.594.581.039.892,0,1.786.013,2.68.01.955.43,1.416,1.357,1.417q9.451.014,18.9.012a.544.544,0,0,0,.587-.367,2.941,2.941,0,0,1,1.5-1.524.625.625,0,0,0,.43-.693,12.252,12.252,0,0,1,0-1.551c.029-.436-.123-.561-.557-.555-1.645.024-3.291.014-4.937.009a2.212,2.212,0,0,1-2.436-2.45q-.009-8.781,0-17.562a2.23,2.23,0,0,1,2.454-2.443c2.821,0,5.642.009,8.463-.009a1.7,1.7,0,0,1,1.312.541q2.578,2.609,5.186,5.187a1.8,1.8,0,0,1,.557,1.381c-.011,4.279,0,8.557-.008,12.836a2.23,2.23,0,0,1-2.51,2.519c-1.622,0-3.245.016-4.866-.009-.437-.007-.6.124-.551.557a2.743,2.743,0,0,1,0,.634c-.1.86,0,1.578.961,1.953a1.666,1.666,0,0,1,.859,1c.184.5.513.553.973.552q9.133-.018,18.266-.008c1.358,0,1.708-.353,1.709-1.708,0-.823-.021-1.646.009-2.468.016-.416-.137-.509-.524-.5-1.669.018-3.338.012-5.008.006a2.174,2.174,0,0,1-2.387-2.408q-.007-8.816,0-17.632a2.194,2.194,0,0,1,2.393-2.413c2.845,0,5.689.007,8.534-.009a1.623,1.623,0,0,1,1.25.513q2.6,2.633,5.235,5.238a1.629,1.629,0,0,1,.532,1.243c-.013,4.373,0,8.745-.009,13.118a2.187,2.187,0,0,1-2.385,2.35c-1.646.007-3.291.016-4.937-.008-.446-.007-.619.091-.6.574.041.868.014,1.739.011,2.609a3.331,3.331,0,0,1-3.588,3.616q-9.2.015-18.407,0c-.506,0-.868.051-1.1.6a2.7,2.7,0,0,1-1.4,1.334c-.22.106-.4.193-.4.5.024,2.608.033,5.216.047,7.824-.016,1.031-.024,2.063-.052,3.094-.011.385.215.395.5.395q9.2-.005,18.4.006c.5,0,.524-.19.423-.6a2.367,2.367,0,0,0-2.573-1.83c-4.3-.007-8.6,0-12.9,0C714.354-554.184,714.129-554.358,713.882-555.254ZM681.1-592.6c-.657-.007-1.314,0-1.97-.028-.344-.015-.433.11-.432.441q.013,8.664,0,17.328c0,.3.04.465.41.464q6.445-.017,12.889,0c.29,0,.428-.065.413-.388-.029-.632-.026-1.265-.037-1.9.01-3.287.017-6.575.038-9.862,0-.337-.1-.443-.436-.436-.963.021-1.926.013-2.889.006a2.21,2.21,0,0,1-2.331-2.346c-.01-.939-.015-1.879,0-2.818.007-.341-.048-.5-.448-.491C684.577-592.6,682.839-592.609,681.1-592.6Zm49.652,0c-.61-.008-1.222.007-1.83-.031-.394-.024-.459.141-.458.488q.013,8.635,0,17.27c0,.366.1.479.47.477q6.379-.019,12.758,0c.348,0,.513-.066.488-.459-.038-.609-.024-1.22-.032-1.831.008-3.286.009-6.572.034-9.858,0-.416-.179-.441-.5-.436-.962.015-1.925.014-2.887,0a2.173,2.173,0,0,1-2.265-2.252c-.012-.986-.015-1.972,0-2.958.007-.329-.08-.447-.427-.443C734.321-592.608,732.537-592.608,730.754-592.6Zm-24.826,0c-.516-.008-1.036.019-1.548-.032-.615-.061-.83.1-.827.783q.047,8.354,0,16.708c0,.656.2.769.792.755,1.667-.039,3.336-.014,5-.014,2.444,0,4.888-.012,7.332.01.479,0,.681-.108.634-.618-.052-.559-.038-1.123-.053-1.685q.021-4.963.047-9.926c0-.354-.189-.36-.448-.358-.939.006-1.878.005-2.817,0a2.192,2.192,0,0,1-2.4-2.339c-.017-.939-.012-1.878,0-2.817,0-.32-.015-.51-.44-.5C709.449-592.6,707.688-592.609,705.928-592.6ZM692.5-537.619q1.784-5.327,3.567-10.654a4.493,4.493,0,0,1,4.81-3.492q3.346-.005,6.692,0c1.877,0,1.868,0,1.819-1.9-.009-.364-.082-.546-.489-.591a4.159,4.159,0,0,1-2.516-1.288c-.763-.764-1.541-1.514-2.287-2.3a2.689,2.689,0,0,0-2.07-.873c-.986.009-1.972,0-2.959,0q-3.343.02-6.685.049a2.3,2.3,0,0,0-2.376,2.6q0,12.439,0,24.879v.719l.133.018Zm0,6.912c-.51,1.48-1.025,2.958-1.528,4.439-.349,1.026-.126,1.4.967,1.594a4.8,4.8,0,0,0,.842.038q18.1,0,36.2,0c1.774,0,2.516-.605,2.929-2.383a2.143,2.143,0,0,0,.119-.248q3.628-10.873,7.266-21.743c.2-.6,0-.644-.514-.644q-19,.015-38,.01a2.361,2.361,0,0,0-2.652,1.917q-1.61,4.8-3.207,9.6C694.107-535.654,693.308-533.179,692.5-530.707Zm19.124-35.835a1.2,1.2,0,0,0-1.2-1.2,1.2,1.2,0,0,0-1.172,1.23,1.16,1.16,0,0,0,1.163,1.153A1.163,1.163,0,0,0,711.625-566.542Zm-20.7-22.6c-.412-.392-.73-.689-1.042-.993s-.6-.6-.97-.963c-.129,2.045-.129,2.045,1.758,1.995C690.692-589.1,690.715-589.107,690.924-589.139Zm49.5.038-1.765-1.733c-.113,1.787-.113,1.787,1.757,1.734C740.443-589.1,740.466-589.108,740.428-589.1Zm-26.663-1.878c0,.548,0,1.012,0,1.476,0,.219-.007.42.312.412.52-.013,1.041,0,1.588,0Z" transform="translate(-676.586 594.75)" fill="#040404"/>
      <path id="Trazado_127347" data-name="Trazado 127347" d="M802.447-455.033c.247.9.472,1.07,1.455,1.071,4.3,0,8.6,0,12.9,0a2.367,2.367,0,0,1,2.572,1.83c.1.406.08.6-.423.6q-9.2-.019-18.4-.006c-.284,0-.509-.009-.5-.395.028-1.031.036-2.062.052-3.093Z" transform="translate(-765.151 494.529)" fill="#efd6a1"/>
      <path id="Trazado_127348" data-name="Trazado 127348" d="M732.886-416.272c.807-2.472,1.605-4.947,2.423-7.415q1.591-4.806,3.207-9.6a2.361,2.361,0,0,1,2.652-1.917q19,0,38-.01c.511,0,.717.039.514.644q-3.653,10.865-7.266,21.743a2.17,2.17,0,0,1-.119.248c-.353,0-.705-.012-1.058-.012q-16.64,0-33.281-.015a5.207,5.207,0,0,1-3.951-1.989C733.551-415.115,733.454-415.848,732.886-416.272Zm33.24-4.094c-1.266,0-2.533-.005-3.8,0-.794,0-1.225.374-1.234,1.03a1.055,1.055,0,0,0,1.2,1.082q3.8.017,7.6,0a1.1,1.1,0,0,0,1.219-1.08c-.011-.624-.488-1.026-1.253-1.03C768.613-420.371,767.369-420.366,766.126-420.366Zm-2.275,4.52c-1.267,0-2.533-.006-3.8,0-.78.005-1.219.392-1.221,1.046s.443,1.062,1.213,1.065q3.764.014,7.528,0c.792,0,1.3-.451,1.274-1.094-.021-.623-.5-1.014-1.266-1.018C766.337-415.851,765.094-415.846,763.851-415.846Z" transform="translate(-716.971 480.315)" fill="#e4bd8a"/>
      <path id="Trazado_127349" data-name="Trazado 127349" d="M732.421-467.205q3.343-.025,6.685-.049c.986-.006,1.973.006,2.959,0a2.689,2.689,0,0,1,2.07.874c.745.781,1.523,1.531,2.287,2.3a4.159,4.159,0,0,0,2.516,1.288c.407.045.48.227.489.591.049,1.9.058,1.9-1.819,1.9q-3.346,0-6.692,0a4.493,4.493,0,0,0-4.81,3.492q-1.781,5.328-3.567,10.654c-.2-.248-.111-.543-.111-.814Q732.418-457.093,732.421-467.205Z" transform="translate(-716.627 503.297)" fill="#f7dea5"/>
      <path id="Trazado_127350" data-name="Trazado 127350" d="M780.282-587.236c1.76-.007,3.521,0,5.28-.033.425-.008.444.182.44.5-.012.939-.017,1.878,0,2.817a2.192,2.192,0,0,0,2.4,2.339c.939,0,1.878,0,2.817,0,.258,0,.45,0,.448.358q-.035,4.963-.047,9.926c-2.62,0-5.241.049-7.86-.012a2.487,2.487,0,0,1-2.486-1.217c1.875,0,3.75,0,5.625-.015.724,0,1.126-.327,1.195-.921.08-.695-.4-1.185-1.227-1.19-1.758-.013-3.516,0-5.274-.009a1.424,1.424,0,0,0-1.149.561,8.344,8.344,0,0,1-.017-3.536,1.323,1.323,0,0,0,1.2.584c1.735-.021,3.47,0,5.206-.009.818,0,1.289-.4,1.278-1.066-.01-.645-.5-1.044-1.314-1.047-1.688-.007-3.377.011-5.065-.01a1.479,1.479,0,0,0-1.286.569c-.233-.172-.157-.425-.157-.649Q780.276-583.265,780.282-587.236Z" transform="translate(-750.94 589.384)" fill="#e9e8ea"/>
      <path id="Trazado_127351" data-name="Trazado 127351" d="M868.17-587.223c1.784-.008,3.567-.007,5.35-.031.347,0,.434.113.427.443-.019.986-.016,1.972,0,2.958a2.173,2.173,0,0,0,2.265,2.252c.963.011,1.925.012,2.887,0,.324-.005.507.02.5.436-.025,3.286-.026,6.572-.034,9.858-2.562,0-5.124-.005-7.686.007a4.179,4.179,0,0,1-1.7-.363c-.386-.169-.859-.323-.909-.875q2.713-.009,5.426-.018c.871,0,1.375-.4,1.362-1.065-.013-.644-.506-1.047-1.324-1.051-1.715-.007-3.431.005-5.146-.007a1.315,1.315,0,0,0-1.2.585c-.227-.124-.213-.342-.213-.553q0-1.264,0-2.529c0-.188-.009-.38.185-.5a1.36,1.36,0,0,0,1.254.6c1.709-.025,3.419-.006,5.129-.01.824,0,1.307-.386,1.318-1.032.012-.664-.5-1.08-1.353-1.083-1.686-.005-3.372.009-5.058-.008a1.355,1.355,0,0,0-1.263.592c-.307-.189-.206-.5-.207-.763Q868.163-583.3,868.17-587.223Z" transform="translate(-814.002 589.373)" fill="#e9e8ea"/>
      <path id="Trazado_127352" data-name="Trazado 127352" d="M692.52-587.231c1.738-.007,3.475,0,5.213-.031.4-.007.455.15.448.491-.019.939-.015,1.879,0,2.818a2.21,2.21,0,0,0,2.331,2.346c.963.008,1.926.015,2.889-.006.339-.007.438.1.436.436-.021,3.287-.028,6.575-.038,9.862-2.6,0-5.2.03-7.8-.014a2.482,2.482,0,0,1-2.486-1.218c1.83-.006,3.661-.009,5.491-.018.836,0,1.29-.382,1.288-1.051s-.467-1.06-1.294-1.064c-1.713-.008-3.427.006-5.14-.007a1.282,1.282,0,0,0-1.274.7,26.3,26.3,0,0,1-.014-3.786,1.273,1.273,0,0,0,1.263.7c1.709-.024,3.419-.006,5.129-.009.875,0,1.348-.39,1.331-1.078-.016-.658-.481-1.034-1.315-1.037-1.71-.006-3.42.008-5.129-.007a1.268,1.268,0,0,0-1.265.7c-.021-.257-.059-.513-.059-.77Q692.515-583.254,692.52-587.231Z" transform="translate(-688.005 589.379)" fill="#e9e8ea"/>
      <path id="Trazado_127353" data-name="Trazado 127353" d="M728.622-368.2c.568.424.665,1.157,1.12,1.673a5.207,5.207,0,0,0,3.951,1.989q16.641.041,33.281.015c.353,0,.705.008,1.058.012-.413,1.777-1.155,2.383-2.929,2.383q-18.1,0-36.2,0a4.808,4.808,0,0,1-.842-.038c-1.093-.2-1.316-.567-.967-1.594C727.6-365.241,728.112-366.719,728.622-368.2Z" transform="translate(-712.706 432.242)" fill="#d9a97d"/>
      <path id="Trazado_127354" data-name="Trazado 127354" d="M774.5-577.694a8.342,8.342,0,0,0,.017,3.536c-.17.957-.02,1.243.83,1.575a2.487,2.487,0,0,0,2.486,1.217c2.619.06,5.24.015,7.86.012.015.562,0,1.126.053,1.685.047.51-.155.622-.634.618-2.444-.022-4.888-.01-7.331-.01-1.668,0-3.337-.026-5,.013-.591.014-.8-.1-.791-.755q.046-8.354,0-16.708c0-.68.212-.844.827-.783.512.051,1.032.024,1.548.032q0,3.97,0,7.94c0,.224-.076.477.157.649A2.329,2.329,0,0,0,774.5-577.694Z" transform="translate(-745.015 589.411)" fill="#d4d2d5"/>
      <path id="Trazado_127355" data-name="Trazado 127355" d="M686.463-587.225q0,3.978,0,7.954c0,.257.038.513.059.77l-.013.731a26.308,26.308,0,0,0,.014,3.786c-.1.864.1,1.168.928,1.443a2.482,2.482,0,0,0,2.486,1.218c2.6.044,5.2.015,7.8.014.01.633.007,1.266.037,1.9.015.323-.124.388-.413.388q-6.445-.01-12.889,0c-.37,0-.41-.159-.409-.464q.01-8.664,0-17.328c0-.331.088-.456.432-.441C685.148-587.224,685.806-587.232,686.463-587.225Z" transform="translate(-681.947 589.373)" fill="#d9d7da"/>
      <path id="Trazado_127356" data-name="Trazado 127356" d="M862.394-587.23q0,3.924,0,7.849c0,.265-.1.574.207.763a1.746,1.746,0,0,0-.026.937c-.193.116-.185.308-.185.5q0,1.265,0,2.529c0,.211-.014.429.213.553-.19.949-.006,1.274.883,1.555.049.552.522.706.909.875a4.175,4.175,0,0,0,1.7.363c2.562-.012,5.124-.006,7.686-.007.008.61-.006,1.222.032,1.831.024.393-.141.46-.488.459q-6.379-.014-12.759,0c-.375,0-.471-.112-.47-.477q.016-8.635,0-17.27c0-.347.064-.512.458-.488C861.172-587.224,861.784-587.238,862.394-587.23Z" transform="translate(-808.226 589.38)" fill="#d9d7da"/>
      <path id="Trazado_127357" data-name="Trazado 127357" d="M726.423-467.075q0,10.112.007,20.225c0,.272-.094.566.111.814l-2.364,7.181-.133-.018v-.719q0-12.44,0-24.879A2.3,2.3,0,0,1,726.423-467.075Z" transform="translate(-710.629 503.167)" fill="#e9cb94"/>
      <path id="Trazado_127358" data-name="Trazado 127358" d="M794.518-498.02a1.163,1.163,0,0,1-1.208,1.179,1.16,1.16,0,0,1-1.163-1.153,1.2,1.2,0,0,1,1.172-1.23A1.2,1.2,0,0,1,794.518-498.02Z" transform="translate(-759.479 526.227)" fill="#b0adb2"/>
      <path id="Trazado_127359" data-name="Trazado 127359" d="M722.08-579.865c-.209.032-.231.038-.254.039-1.886.05-1.886.05-1.758-1.995.365.363.664.666.97.963S721.668-580.257,722.08-579.865Z" transform="translate(-707.742 585.476)" fill="#d4d2d5"/>
      <path id="Trazado_127360" data-name="Trazado 127360" d="M897.847-579.164c.038-.007.015,0-.008,0-1.87.053-1.87.053-1.757-1.734Z" transform="translate(-834.004 584.812)" fill="#d4d2d5"/>
      <path id="Trazado_127361" data-name="Trazado 127361" d="M808.1-581.412l1.9,1.884c-.547,0-1.068-.01-1.588,0-.319.008-.313-.193-.312-.412C808.107-580.4,808.1-580.864,808.1-581.412Z" transform="translate(-770.926 585.182)" fill="#d9d7da"/>
      <path id="Trazado_127362" data-name="Trazado 127362" d="M837.7-382.686c1.243,0,2.486-.005,3.729,0,.765,0,1.242.407,1.253,1.03a1.1,1.1,0,0,1-1.219,1.08q-3.8.017-7.6,0a1.055,1.055,0,0,1-1.2-1.082c.009-.655.441-1.025,1.234-1.03C835.167-382.692,836.434-382.687,837.7-382.686Z" transform="translate(-788.544 442.636)" fill="#030202"/>
      <path id="Trazado_127363" data-name="Trazado 127363" d="M829.686-366.7c1.243,0,2.486,0,3.729,0,.77,0,1.246.4,1.267,1.019.021.643-.482,1.091-1.274,1.094q-3.764.011-7.528,0c-.77,0-1.216-.414-1.213-1.065s.441-1.041,1.221-1.046C827.153-366.7,828.42-366.7,829.686-366.7Z" transform="translate(-782.806 431.167)" fill="#020201"/>
      <path id="Trazado_127364" data-name="Trazado 127364" d="M781.615-540.643c-.85-.333-1-.618-.83-1.575a1.423,1.423,0,0,1,1.149-.56c1.758.013,3.516,0,5.274.009.823.006,1.307.5,1.227,1.19-.069.594-.471.917-1.2.921C785.365-540.648,783.49-540.648,781.615-540.643Z" transform="translate(-751.285 557.471)" fill="#040404"/>
      <path id="Trazado_127365" data-name="Trazado 127365" d="M780.769-557.232a2.33,2.33,0,0,1,.015-.979,1.479,1.479,0,0,1,1.286-.569c1.688.021,3.376,0,5.065.01.816,0,1.3.4,1.314,1.047.011.663-.46,1.064-1.278,1.066-1.735.005-3.471-.011-5.206.009A1.323,1.323,0,0,1,780.769-557.232Z" transform="translate(-751.285 568.949)" fill="#030202"/>
      <path id="Trazado_127366" data-name="Trazado 127366" d="M869.668-540.638c-.889-.281-1.073-.606-.883-1.555a1.315,1.315,0,0,1,1.2-.585c1.715.012,3.43,0,5.146.006.818,0,1.312.407,1.324,1.051.013.664-.49,1.061-1.362,1.065Q872.381-540.644,869.668-540.638Z" transform="translate(-814.403 557.47)" fill="#040404"/>
      <path id="Trazado_127367" data-name="Trazado 127367" d="M868.722-557.248a1.746,1.746,0,0,1,.025-.937,1.355,1.355,0,0,1,1.263-.592c1.686.017,3.372,0,5.058.008.855,0,1.365.419,1.353,1.083-.011.646-.494,1.03-1.318,1.032-1.71,0-3.419-.014-5.129.01A1.359,1.359,0,0,1,868.722-557.248Z" transform="translate(-814.371 568.946)" fill="#040404"/>
      <path id="Trazado_127368" data-name="Trazado 127368" d="M693.642-540.639c-.829-.274-1.025-.578-.928-1.443a1.282,1.282,0,0,1,1.274-.7c1.713.013,3.427,0,5.14.007.827,0,1.292.4,1.294,1.064s-.452,1.046-1.288,1.051Q696.388-540.643,693.642-540.639Z" transform="translate(-688.138 557.471)" fill="#040404"/>
      <path id="Trazado_127369" data-name="Trazado 127369" d="M692.721-557.34l.013-.731a1.268,1.268,0,0,1,1.265-.7c1.71.015,3.42,0,5.129.007.834,0,1.3.379,1.315,1.038.017.688-.456,1.076-1.331,1.077-1.71,0-3.42-.014-5.129.009A1.273,1.273,0,0,1,692.721-557.34Z" transform="translate(-688.16 568.943)" fill="#040404"/>
    </g>
  </g>
</svg>
