<svg xmlns="http://www.w3.org/2000/svg" xmlns:xlink="http://www.w3.org/1999/xlink" width="107" height="107" viewBox="0 0 107 107">
  <defs>
    <clipPath id="clip-path">
      <rect id="Rectángulo_36653" data-name="Rectángulo 36653" width="107" height="107" transform="translate(0 0.001)" fill="#fff" stroke="#707070" stroke-width="1"/>
    </clipPath>
  </defs>
  <g id="Grupo_85881" data-name="Grupo 85881" transform="translate(0 -0.001)" clip-path="url(#clip-path)">
    <g id="Grupo_85895" data-name="Grupo 85895" transform="translate(4.339 27.792)">
      <path id="Trazado_127670" data-name="Trazado 127670" d="M3752.122,372.516a1.64,1.64,0,0,1-2.255-.044c-8.623-6.5-12.417-15.148-10.455-25.742,1.932-10.427,8.488-17.094,18.653-20.145a23.269,23.269,0,0,1,6.731-.861q23.225.01,46.45.009a25.692,25.692,0,0,1,4.479,51.035,30.208,30.208,0,0,1-4.679.368q-23.033-.008-46.067,0a26.8,26.8,0,0,1-8.21-1.234c-1.124-.358-1.542-1.148-1.134-2.025a1.718,1.718,0,0,1,2.188-.589,21.377,21.377,0,0,0,6.882,1.042c15.537,0,31.073.035,46.608-.012A22.834,22.834,0,0,0,3833.422,358a20.971,20.971,0,0,0,.7-9.641,6.522,6.522,0,0,0-.3-1.978,22.879,22.879,0,0,0-22.754-17.853q-23.026-.021-46.052,0a24.209,24.209,0,0,0-4.3.32,22.9,22.9,0,0,0-17.577,30.536,21.383,21.383,0,0,0,8,10.479C3752.57,371.105,3752.645,371.309,3752.122,372.516Z" transform="translate(-3738.906 -325.722)" fill="#060606"/>
      <path id="Trazado_127671" data-name="Trazado 127671" d="M3771.693,408.74c.524-1.207.449-1.411-.984-2.654a1.985,1.985,0,0,1,1.277.3,22.364,22.364,0,0,0,10.145,2.341c15.42.048,30.839.012,46.259.038a29.1,29.1,0,0,0,3.619-.247,23.29,23.29,0,0,0,12.775-5.587c5.293-4.648,8.354-10.446,8.522-17.605.007-.305-.087-.673.384-.745a20.968,20.968,0,0,1-.7,9.641,22.834,22.834,0,0,1-22.107,16.319c-15.536.047-31.072.012-46.609.012a21.374,21.374,0,0,1-6.882-1.042,1.718,1.718,0,0,0-2.188.589,6.144,6.144,0,0,1-2.1-.852A3.367,3.367,0,0,0,3771.693,408.74Z" transform="translate(-3758.477 -361.946)" fill="#eee8f6"/>
      <path id="Trazado_127672" data-name="Trazado 127672" d="M3838.607,352.842c-.471.071-.377.44-.384.745-.168,7.159-3.229,12.957-8.522,17.605a23.288,23.288,0,0,1-12.775,5.587,29.1,29.1,0,0,1-3.619.247c-15.42-.026-30.84.01-46.26-.038a22.361,22.361,0,0,1-10.145-2.341,1.987,1.987,0,0,0-1.277-.3,21.38,21.38,0,0,1-8-10.479,22.9,22.9,0,0,1,17.576-30.536,24.216,24.216,0,0,1,4.3-.32q23.026,0,46.052,0a22.879,22.879,0,0,1,22.754,17.853A6.545,6.545,0,0,1,3838.607,352.842Zm-31.069,21.867,3.8,0a1.62,1.62,0,0,0,1.895,1.347c.861-.044,1.727-.007,2.59-.01a20.122,20.122,0,0,0,.5-40.24q-23.8-.124-47.6,0a19.326,19.326,0,0,0-13.287,5.343c-.9.826-.96,1.279-.349,2.33-.816.827-1.314,1.911-2.177,2.7a1.646,1.646,0,0,0-2.026,1.136,20.148,20.148,0,0,0,17.922,28.71c12.314.093,24.629.017,36.944.028A1.552,1.552,0,0,0,3807.538,374.709Z" transform="translate(-3743.393 -330.203)" fill="#f6f3f6"/>
      <path id="Trazado_127673" data-name="Trazado 127673" d="M3761.835,355.106c.863-.79,1.36-1.873,2.176-2.7a1.586,1.586,0,0,0,2.227-.252,17.1,17.1,0,0,1,12.026-4.64q23.173.021,46.348,0a16.7,16.7,0,0,1,4.278.458,16.924,16.924,0,0,1,11.567,9.374.529.529,0,0,0-.223.495,19.984,19.984,0,0,1-.8,4.843c-.089.377-.11.844-.589,1.02a3.687,3.687,0,0,1-.111-.46,14.165,14.165,0,1,0-22.893,12.675,36.468,36.468,0,0,0,3.311,2.069c-.233.385-.617.272-.953.272q-16.83.007-33.662,0c-.335,0-.719.117-.96-.258,6.343-3.032,9.622-8.615,8.678-15.1a14.14,14.14,0,1,0-27.513,6.138,14.052,14.052,0,0,0,7.921,8.856c-.527.73-1.242.33-1.872.277-1.435-.123-2.864-.312-4.295-.475a2.656,2.656,0,0,1-.308-.215,17.29,17.29,0,0,1-3.9-19.905C3762.884,356.268,3762.822,355.929,3761.835,355.106Zm41.6,3.552.2.312a6.228,6.228,0,0,0-.719.443,5.988,5.988,0,0,0-.679.675,1.4,1.4,0,0,0-.078,1.975,1.333,1.333,0,0,0,2.037-.021q1.929-1.865,3.794-3.795a1.309,1.309,0,0,0,.039-1.969c-1.256-1.318-2.549-2.6-3.859-3.866a1.349,1.349,0,0,0-1.972-.036,1.4,1.4,0,0,0,.066,2.046c.406.432.855.822,1.479,1.415h-1.956c-1.854,0-3.708-.017-5.561.01a1.4,1.4,0,0,0-1.478,1.328,1.423,1.423,0,0,0,1.353,1.46,8.811,8.811,0,0,0,1.053.02Q3800.294,358.659,3803.433,358.658Zm-3.664,11.851-.118-.244c.39-.357.8-.7,1.168-1.074.756-.774.8-1.574.156-2.18-.62-.582-1.37-.526-2.116.205q-1.78,1.743-3.525,3.523a1.4,1.4,0,0,0,.008,2.315q1.746,1.777,3.529,3.519a1.422,1.422,0,0,0,2.111.2c.642-.618.585-1.39-.172-2.178-.382-.4-.779-.782-1.3-1.3,2.54,0,4.838,0,7.137,0,1.166,0,1.775-.494,1.77-1.4s-.6-1.365-1.8-1.372c-1.439-.009-2.877,0-4.314,0Z" transform="translate(-3752.313 -339.132)" fill="#dfd4ef"/>
      <path id="Trazado_127674" data-name="Trazado 127674" d="M3845.121,352.814a16.924,16.924,0,0,0-11.567-9.374,16.7,16.7,0,0,0-4.279-.458q-23.173.005-46.347,0a17.1,17.1,0,0,0-12.026,4.64,1.586,1.586,0,0,1-2.227.252c-.611-1.051-.555-1.5.349-2.33a19.326,19.326,0,0,1,13.287-5.343q23.8-.085,47.6,0a20.122,20.122,0,0,1-.5,40.24c-.864,0-1.729-.034-2.591.01a1.619,1.619,0,0,1-1.894-1.347c.328-1.182.665-1.454,1.875-1.47,1.053-.013,2.108.021,3.161-.016a17.3,17.3,0,0,0,15.159-24.8Z" transform="translate(-3756.977 -334.599)" fill="#050506"/>
      <path id="Trazado_127675" data-name="Trazado 127675" d="M3849.735,373.083a17.3,17.3,0,0,1-15.159,24.8c-1.052.037-2.107,0-3.162.016-1.21.016-1.547.288-1.875,1.47l-3.8,0c-.262-1.21-.619-1.475-2.042-1.475q-17.548,0-35.1,0c-.958,0-1.923.025-2.875-.069a16.418,16.418,0,0,1-9.953-4.391c1.431.162,2.86.351,4.295.475.63.054,1.346.453,1.872-.277a14.723,14.723,0,0,0,10.914.106c.241.376.625.258.96.258q16.831.008,33.663,0c.335,0,.72.112.953-.272.306.085.616.154.916.255a14.177,14.177,0,0,0,15.516-4.393,14.485,14.485,0,0,0,3.262-10.147c.478-.176.5-.643.588-1.02a19.973,19.973,0,0,0,.8-4.843A.529.529,0,0,1,3849.735,373.083Z" transform="translate(-3761.591 -354.868)" fill="#d7c7ec"/>
      <path id="Trazado_127676" data-name="Trazado 127676" d="M3761.958,389.752a16.417,16.417,0,0,0,9.953,4.391c.951.094,1.916.069,2.875.069q17.548.006,35.1,0c1.422,0,1.779.266,2.042,1.475a1.553,1.553,0,0,1-1.783,1.342c-12.315-.012-24.63.064-36.944-.029a20.147,20.147,0,0,1-17.922-28.71,1.646,1.646,0,0,1,2.026-1.136c.987.823,1.048,1.163.448,2.473a17.29,17.29,0,0,0,3.9,19.905A2.682,2.682,0,0,0,3761.958,389.752Z" transform="translate(-3747.779 -351.185)" fill="#060506"/>
      <path id="Trazado_127677" data-name="Trazado 127677" d="M3918.5,368.749a14.487,14.487,0,0,1-3.262,10.147,14.178,14.178,0,0,1-15.516,4.393c-.3-.1-.61-.171-.916-.255a36.537,36.537,0,0,1-3.311-2.069,14.167,14.167,0,1,1,22.893-12.675A3.737,3.737,0,0,0,3918.5,368.749Zm-22.091,9.216c3.71,4.046,10.5,4.386,15.057.754,5.211-4.154,5.679-12.4.949-16.733a11.211,11.211,0,0,0-13.194-2.258C3892.26,363.158,3890.75,372.946,3896.407,377.964Z" transform="translate(-3831.97 -344.175)" fill="#030404"/>
      <path id="Trazado_127678" data-name="Trazado 127678" d="M3788.93,382.952a14.723,14.723,0,0,1-10.914-.106,14.052,14.052,0,0,1-7.921-8.856,14.141,14.141,0,1,1,27.513-6.138C3798.552,374.337,3795.273,379.921,3788.93,382.952Zm-13.25-5.093a11.313,11.313,0,0,0,16-16,11.236,11.236,0,0,0-13.186-2.215C3771.543,363.091,3770.039,372.837,3775.681,377.859Z" transform="translate(-3757.671 -344.081)" fill="#040304"/>
      <path id="Trazado_127679" data-name="Trazado 127679" d="M3857.923,365.783q-3.138,0-6.277,0a8.811,8.811,0,0,1-1.053-.02,1.422,1.422,0,0,1-1.353-1.46,1.4,1.4,0,0,1,1.478-1.328c1.854-.026,3.708-.009,5.562-.01h1.956c-.624-.593-1.073-.984-1.479-1.415a1.4,1.4,0,0,1-.066-2.046,1.349,1.349,0,0,1,1.972.036c1.311,1.264,2.6,2.548,3.859,3.866a1.309,1.309,0,0,1-.039,1.969q-1.869,1.925-3.795,3.795a1.332,1.332,0,0,1-2.036.021,1.4,1.4,0,0,1,.078-1.975,5.973,5.973,0,0,1,.679-.675,6.236,6.236,0,0,1,.719-.443Z" transform="translate(-3806.803 -346.257)" fill="#050506"/>
      <path id="Trazado_127680" data-name="Trazado 127680" d="M3854.228,401.074h2.533c1.439,0,2.877-.007,4.315,0,1.2.007,1.794.473,1.8,1.372s-.6,1.4-1.77,1.4c-2.3.006-4.6,0-7.137,0,.52.52.917.9,1.3,1.3.757.788.814,1.56.172,2.178a1.422,1.422,0,0,1-2.111-.2q-1.778-1.746-3.529-3.519a1.4,1.4,0,0,1-.008-2.315q1.742-1.782,3.525-3.523c.746-.731,1.5-.787,2.116-.2.646.606.6,1.406-.156,2.18-.369.378-.778.717-1.168,1.074Z" transform="translate(-3806.771 -369.697)" fill="#030303"/>
      <path id="Trazado_127681" data-name="Trazado 127681" d="M3900.9,382.481c-5.657-5.018-4.147-14.807,2.813-18.237a11.212,11.212,0,0,1,13.194,2.258,3.338,3.338,0,0,0,.039.666,12.675,12.675,0,0,1-12.067,15.694A28.367,28.367,0,0,1,3900.9,382.481Zm15.008-11.762a1.375,1.375,0,0,0-.877-1.246,1.453,1.453,0,0,0-1.647.427c-1.864,1.881-3.762,3.729-5.6,5.63-.482.5-.756.468-1.192-.02-.637-.712-1.339-1.368-2.022-2.036-.771-.755-1.576-.84-2.181-.25-.64.624-.589,1.387.183,2.171q1.712,1.739,3.455,3.448a1.42,1.42,0,0,0,2.319.018c2.336-2.311,4.653-4.641,6.98-6.961A1.728,1.728,0,0,0,3915.913,370.719Z" transform="translate(-3836.467 -348.693)" fill="#8bcb94"/>
      <path id="Trazado_127682" data-name="Trazado 127682" d="M3906.446,388.007a28.361,28.361,0,0,0,3.979.38,12.675,12.675,0,0,0,12.067-15.694,3.357,3.357,0,0,1-.039-.666c4.729,4.33,4.261,12.579-.95,16.733C3916.947,392.393,3910.156,392.053,3906.446,388.007Z" transform="translate(-3842.008 -354.218)" fill="#77b09c"/>
      <path id="Trazado_127683" data-name="Trazado 127683" d="M3780.2,382.469c-5.642-5.021-4.139-14.767,2.81-18.217a11.236,11.236,0,0,1,13.186,2.216,20.509,20.509,0,0,1,.37,4.25,11.6,11.6,0,0,1-2.732,7.338c-1.094-1.07-2.175-2.153-3.289-3.2-.371-.35-.356-.566,0-.913,1.173-1.131,2.316-2.292,3.464-3.448.813-.819.918-1.629.309-2.257s-1.459-.534-2.26.258c-1.137,1.122-2.286,2.233-3.379,3.4-.447.476-.7.427-1.127-.017-1.1-1.157-2.246-2.271-3.382-3.393-.791-.781-1.664-.862-2.262-.231-.569.6-.475,1.431.274,2.19,1.1,1.114,2.178,2.252,3.333,3.306.591.54.487.85-.033,1.338-1.117,1.048-2.184,2.152-3.262,3.242-.8.8-.894,1.651-.282,2.259s1.469.5,2.264-.29c1.158-1.146,2.317-2.29,3.452-3.459.335-.345.554-.408.917-.023,1.049,1.115,2.136,2.193,3.208,3.286a11.844,11.844,0,0,1-7.142,2.752A19.087,19.087,0,0,1,3780.2,382.469Z" transform="translate(-3762.195 -348.691)" fill="#d38487"/>
      <path id="Trazado_127684" data-name="Trazado 127684" d="M3799.365,383.531a11.6,11.6,0,0,0,2.733-7.338,20.509,20.509,0,0,0-.371-4.25,11.313,11.313,0,0,1-16,16,19.087,19.087,0,0,0,4.439.378,11.842,11.842,0,0,0,7.142-2.752c.192.167.378.34.576.5a1.4,1.4,0,0,0,1.978-.055,1.361,1.361,0,0,0,0-1.907C3799.7,383.908,3799.531,383.722,3799.365,383.531Z" transform="translate(-3767.721 -354.166)" fill="#cb696f"/>
      <path id="Trazado_127685" data-name="Trazado 127685" d="M3923.12,380.833a1.728,1.728,0,0,1-.588,1.181c-2.327,2.32-4.644,4.65-6.98,6.961a1.421,1.421,0,0,1-2.319-.018q-1.742-1.708-3.455-3.448c-.771-.784-.822-1.547-.183-2.171.6-.591,1.41-.505,2.181.25.684.669,1.385,1.324,2.022,2.036.436.488.71.517,1.192.02,1.843-1.9,3.74-3.749,5.6-5.63a1.454,1.454,0,0,1,1.648-.427A1.375,1.375,0,0,1,3923.12,380.833Z" transform="translate(-3843.675 -358.806)" fill="#010101"/>
      <path id="Trazado_127686" data-name="Trazado 127686" d="M3801.514,385.7c.166.192.339.377.5.575a1.362,1.362,0,0,1,.006,1.907,1.4,1.4,0,0,1-1.978.055c-.2-.158-.384-.331-.576-.5-1.073-1.093-2.159-2.172-3.208-3.286-.363-.385-.582-.322-.917.023-1.135,1.168-2.294,2.313-3.452,3.459-.8.788-1.659.891-2.264.29s-.513-1.456.282-2.259c1.079-1.09,2.145-2.193,3.262-3.242.52-.488.624-.8.033-1.338-1.155-1.054-2.234-2.192-3.333-3.306-.749-.759-.844-1.59-.274-2.19.6-.63,1.472-.55,2.262.231,1.137,1.122,2.282,2.237,3.383,3.393.422.444.68.493,1.127.017,1.094-1.163,2.242-2.274,3.379-3.4.8-.792,1.655-.88,2.26-.258s.5,1.438-.309,2.257c-1.148,1.156-2.291,2.318-3.463,3.448-.361.348-.376.563,0,.913C3799.339,383.549,3800.42,384.632,3801.514,385.7Z" transform="translate(-3769.87 -356.337)" fill="#040304"/>
    </g>
  </g>
</svg>
