<svg xmlns="http://www.w3.org/2000/svg" xmlns:xlink="http://www.w3.org/1999/xlink" width="107" height="107" viewBox="0 0 107 107">
  <defs>
    <clipPath id="clip-path">
      <rect id="Rectángulo_36651" data-name="Rectángulo 36651" width="107" height="107" transform="translate(0 0.001)" fill="#fff" stroke="#707070" stroke-width="1"/>
    </clipPath>
  </defs>
  <g id="Grupo_85877" data-name="Grupo 85877" transform="translate(0 -0.001)" clip-path="url(#clip-path)">
    <g id="Grupo_85893" data-name="Grupo 85893" transform="translate(7.375 7.883)">
      <path id="Trazado_127717" data-name="Trazado 127717" d="M4155.665,343.476h43.5c2.057,0,2.562.5,2.563,2.534q0,4.908,0,9.816c0,1.535-.648,2.2-2.182,2.205-2.7.013-5.4.023-8.106-.011-.627-.008-.817.158-.8.8.041,1.95.035,3.9,0,5.853-.01.551.14.71.7.7,2.672-.03,5.344-.016,8.017-.012,1.771,0,2.374.611,2.375,2.385q0,5,0,10c0,1.553-.63,2.182-2.184,2.186-2.7.006-5.4.021-8.106-.013-.629-.008-.813.167-.8.8.039,1.981.033,3.962,0,5.943-.009.517.141.65.648.646,2.762-.024,5.524-.015,8.286-.01,1.489,0,2.151.654,2.154,2.133q.009,5.133,0,10.266c0,1.509-.679,2.172-2.221,2.176-2.672.008-5.344.021-8.016-.012-.628-.008-.883.087-.861.81.062,1.919.047,3.842.007,5.762-.014.646.2.8.818.791,2.671-.031,5.343-.019,8.016-.011,1.66.005,2.257.62,2.259,2.3q0,5,0,10c0,1.613-.619,2.249-2.213,2.254-2.672.009-5.344.023-8.016-.013-.655-.009-.875.14-.864.837.043,2.611.022,5.223.015,7.834,0,1.689-.6,2.295-2.265,2.295q-32.786,0-65.573,0c-1.629,0-2.24-.6-2.246-2.221-.011-2.612-.026-5.223.012-7.834.01-.684-.139-.928-.878-.914-2.642.048-5.285.023-7.926.017-1.677,0-2.287-.612-2.288-2.27q0-5.043,0-10.086c0-1.549.625-2.185,2.182-2.192,2.7-.012,5.4-.023,8.106.011.64.008.812-.185.8-.808q-.057-2.881,0-5.763c.013-.622-.142-.8-.781-.8-2.672.038-5.344.019-8.017.014-1.656,0-2.292-.638-2.292-2.285q0-5.043,0-10.086c0-1.553.641-2.2,2.172-2.2,2.7,0,5.4-.018,8.106.012.59.006.832-.084.814-.758-.05-1.95-.046-3.9,0-5.853.015-.662-.222-.782-.822-.776-2.672.03-5.344.016-8.016.012-1.629,0-2.25-.61-2.251-2.208q-.007-5.088,0-10.176c0-1.518.667-2.177,2.213-2.182,2.673-.009,5.345-.022,8.016.012.638.008.885-.1.864-.817q-.084-2.834,0-5.672c.023-.756-.253-.873-.919-.865-2.611.035-5.224.018-7.836.013-1.725,0-2.338-.615-2.339-2.32q0-4.954,0-9.906c0-1.767.579-2.331,2.4-2.331Q4133.777,343.474,4155.665,343.476Zm22.846,35.572h.007c0-3.9-.015-7.8.016-11.7.005-.686-.124-.857-.84-.715-8.4,1.668-15.508-.763-21.421-6.847-.584-.6-.8-.515-1.332.03-5.937,6.048-13.042,8.5-21.441,6.814-.635-.127-.815-.029-.813.654.027,7.351-.03,14.7.042,22.054a29.465,29.465,0,0,0,5.74,17.292c4.106,5.692,9.578,9.778,15.644,13.142a3.244,3.244,0,0,0,3.34-.167,54.889,54.889,0,0,0,10.361-7.419c6.764-6.273,10.588-13.9,10.691-23.234C4178.541,385.65,4178.511,382.349,4178.511,379.048Zm-56.153-24.613c2.85,0,5.7-.014,8.55.012.581.005.766-.149.754-.751-.04-1.979-.028-3.959-.006-5.938.006-.479-.093-.677-.63-.675q-8.64.028-17.28,0c-.614,0-.665.249-.659.742.021,1.949.038,3.9-.007,5.848-.015.661.217.784.819.778C4116.717,354.418,4119.538,354.435,4122.358,354.435Zm22.171-7.342c-2.853,0-5.705.009-8.557-.009-.494,0-.749.039-.735.656.043,2.01.03,4.022.005,6.033-.005.494.113.671.641.67q8.648-.027,17.294,0c.532,0,.645-.182.638-.672-.024-1.981-.031-3.963,0-5.943.01-.576-.131-.757-.734-.75C4150.234,347.111,4147.381,347.092,4144.529,347.092Zm22.145,0c-2.82,0-5.641.016-8.46-.013-.6-.006-.835.1-.819.767.047,1.949.042,3.9,0,5.848-.012.6.175.752.755.75q8.552-.029,17.1,0c.628,0,.731-.228.723-.78-.029-1.949-.036-3.9,0-5.849.012-.6-.178-.745-.755-.739C4172.374,347.109,4169.524,347.093,4166.674,347.093Zm22.209,7.338c2.822,0,5.644-.02,8.465.015.637.008.8-.178.79-.8-.04-1.95-.033-3.9,0-5.852.008-.531-.1-.717-.681-.715q-8.6.036-17.2,0c-.554,0-.707.138-.7.7.036,1.95.052,3.9-.006,5.852-.021.72.232.825.866.818C4183.239,354.414,4186.061,354.432,4188.883,354.431Zm-55.433,76.663c2.851,0,5.7-.01,8.555.01.51,0,.744-.068.731-.671q-.062-2.97,0-5.942c.012-.615-.2-.75-.772-.748q-8.511.028-17.021,0c-.569,0-.787.124-.774.745.041,1.95.046,3.9,0,5.851-.017.671.222.774.819.768C4127.807,431.078,4130.629,431.095,4133.451,431.095Zm22.154,0c2.818,0,5.636-.015,8.453.012.591.005.848-.095.832-.769-.046-1.947-.039-3.9,0-5.844.011-.606-.2-.754-.774-.752q-8.5.027-17,0c-.665,0-.791.243-.782.836.03,1.918.041,3.837,0,5.754-.016.661.218.785.821.778C4149.968,431.077,4152.786,431.093,4155.6,431.094Zm22.192,0c2.821,0,5.642-.02,8.463.015.636.008.8-.175.79-.8-.042-1.949-.034-3.9,0-5.85.008-.553-.155-.717-.712-.716q-8.552.028-17.105,0c-.623,0-.75.214-.743.78.029,1.95.036,3.9,0,5.85-.013.609.192.741.76.735C4172.095,431.081,4174.946,431.095,4177.8,431.095Zm-55.427-10.949c2.853,0,5.705-.01,8.557.009.508,0,.746-.072.735-.673-.041-2.011-.035-4.023,0-6.033.009-.547-.2-.63-.68-.629q-8.6.021-17.2,0c-.574,0-.7.18-.688.717.03,1.951.041,3.9,0,5.853-.016.667.227.778.822.772C4116.724,420.13,4119.547,420.146,4122.369,420.146Zm66.569-7.319c-2.881,0-5.763.018-8.644-.014-.6-.007-.747.165-.736.746.036,1.98.028,3.961,0,5.941-.006.491.108.664.637.663q8.644-.028,17.288,0c.517,0,.654-.151.647-.656-.027-2.01-.04-4.021,0-6.031.014-.617-.242-.66-.735-.657C4194.582,412.836,4191.76,412.826,4188.938,412.826Zm-58.525-14.57a35.922,35.922,0,0,1-1.229-6.941c-.042-.546-.392-.417-.693-.418-4.92,0-9.84,0-14.76-.014-.507,0-.654.136-.647.646.028,2.009.041,4.02,0,6.028-.015.649.25.713.782.708,2.311-.023,4.621-.01,6.931-.01Zm50.42-.1c.091.044.116.066.142.066q8.315.016,16.631.039c.483,0,.522-.225.521-.6-.01-2.068-.014-4.135,0-6.2,0-.415-.1-.572-.546-.571q-7.508.021-15.017.005c-.3,0-.5.035-.529.413A37.042,37.042,0,0,1,4180.833,398.16Zm-59.744-21.842c2.429,0,4.858-.013,7.286.011.527.005.737-.106.726-.688-.036-1.978-.029-3.958,0-5.936.007-.523-.111-.741-.69-.739q-7.332.03-14.663,0c-.5,0-.668.144-.661.658.026,1.978.04,3.958-.006,5.936-.016.663.216.777.815.769C4116.292,376.3,4118.691,376.318,4121.09,376.318Zm69.028,0c2.429,0,4.858-.012,7.287.009.5,0,.746-.06.733-.666-.041-2.008-.031-4.017,0-6.026.006-.5-.13-.671-.65-.669q-7.332.025-14.664,0c-.566,0-.708.194-.7.729.026,1.978.032,3.957,0,5.935-.009.568.175.7.716.7C4185.26,376.3,4187.689,376.318,4190.118,376.318Zm-12.337-18.282c-2.849,0-5.7.016-8.546-.013-.594-.006-.775.173-.75.758.044.987.012,1.978.012,2.968,0,1.389,0,1.382,1.366,1.581a19.787,19.787,0,0,0,9.48-.875,2.015,2.015,0,0,1,2.261.308,2.115,2.115,0,0,1,.521,1.836c-.045.557.091.806.724.777,1.167-.052,2.34-.048,3.507,0,.578.023.7-.182.688-.715-.03-1.948-.039-3.9,0-5.847.013-.643-.188-.8-.809-.791C4183.421,358.054,4180.6,358.036,4177.781,358.036Zm-44.286,0c-2.848,0-5.7,0-8.545,0-.449,0-.794-.027-.781.629.041,2.038.029,4.077,0,6.115-.007.495.176.6.626.593q1.843-.038,3.688,0c.474.01.663-.151.6-.619a3.066,3.066,0,0,1,0-.449c.034-1.646,1.066-2.4,2.636-1.876a20.119,20.119,0,0,0,10.273.786c.556-.105.756-.289.734-.862-.043-1.168-.061-2.34,0-3.506.04-.718-.24-.828-.874-.821C4139.073,358.054,4136.284,358.036,4133.5,358.036Zm41.859,51.171c3.826,0,7.449-.007,11.071.009.476,0,.62-.161.615-.624q-.027-3.056,0-6.112c.005-.447-.094-.629-.587-.623-2.127.025-4.255.01-6.383.011-.266,0-.531-.04-.671.3A35.981,35.981,0,0,1,4175.354,409.208Zm-39.474,0a34.812,34.812,0,0,1-4.007-6.91.62.62,0,0,0-.674-.434c-2.158.011-4.316.017-6.474,0-.449,0-.554.151-.551.569q.027,3.1,0,6.2c0,.413.122.586.563.584C4128.386,409.2,4132.033,409.208,4135.88,409.208ZM4147.494,420c-.276-.2-.531-.381-.791-.559a32.354,32.354,0,0,1-5.847-4.76,5.145,5.145,0,0,0-4.867-1.874c-.546.07-.764.131-.751.742.042,1.949.045,3.9,0,5.848-.017.653.2.778.806.773,3.569-.028,7.14-.012,10.71-.018A.9.9,0,0,0,4147.494,420ZM4163.7,420c.168.084.216.13.266.13,3.812.006,7.622,0,11.433.022.522,0,.574-.235.567-.651-.017-1.23.021-2.461-.014-3.69-.029-.979.445-2.385-.182-2.826-.708-.5-2.016-.138-3.064-.164a.884.884,0,0,0-.708.3A51.49,51.49,0,0,1,4163.7,420Zm-34.613-36.378c0-.99-.024-1.982.009-2.972.017-.512-.077-.762-.678-.738-1.2.047-2.4.04-3.6,0-.539-.017-.65.194-.646.68q.03,3.016,0,6.034c-.006.483.09.69.63.673,1.229-.04,2.462-.032,3.692,0,.479.011.619-.145.6-.615C4129.066,385.668,4129.089,384.647,4129.089,383.626Zm57.943.068c0-1.047-.015-2.094.008-3.14.009-.44-.09-.647-.591-.634-1.256.032-2.514.026-3.769,0-.439-.008-.561.156-.557.574.015,2.094.021,4.188,0,6.281,0,.482.217.525.6.52,1.256-.014,2.513-.023,3.77,0,.438.009.567-.126.554-.557C4187.013,385.728,4187.032,384.711,4187.032,383.694Zm-35.42-25.651c-1.766,0-3.3,0-4.842,0-.306,0-.426.137-.424.434.007.928,0,1.855,0,2.783,0,.37.2.386.465.25A19.961,19.961,0,0,0,4151.612,358.043Zm8,0a20.206,20.206,0,0,0,4.663,3.4c.375.2.611.211.6-.324-.017-.866-.011-1.732,0-2.6,0-.333-.121-.484-.469-.482C4162.887,358.048,4161.37,358.043,4159.611,358.043Z" transform="translate(-4109.484 -343.476)" fill="#030303"/>
      <path id="Trazado_127718" data-name="Trazado 127718" d="M4219.6,407.19c0,3.3.03,6.6-.005,9.9-.1,9.331-3.928,16.961-10.692,23.234a54.877,54.877,0,0,1-10.361,7.419,3.244,3.244,0,0,1-3.341.167c-6.066-3.364-11.537-7.45-15.644-13.142a29.471,29.471,0,0,1-5.74-17.292c-.072-7.351-.016-14.7-.042-22.054,0-.682.178-.781.813-.654,8.4,1.685,15.5-.765,21.44-6.814.535-.545.749-.632,1.333-.03,5.913,6.084,13.024,8.515,21.42,6.847.717-.142.845.028.839.715-.031,3.9-.015,7.8-.015,11.7Zm-32.969,20.526c-.766,1.023-.847,1.849-.254,2.583q.926,1.142,2.565.288a12.043,12.043,0,0,0,2.886,3.227c-.808,1.273-.713,2.006.468,2.938,1.035.818,2.1,1.6,3.177,2.36a1.821,1.821,0,0,0,2.479-.008,37.6,37.6,0,0,0,6.387-5.384,26.238,26.238,0,0,0,7.514-16.515c.277-4.136.076-8.28.108-12.421.009-1.259-.55-1.864-1.917-2.053a30.315,30.315,0,0,1-12.135-4.454,2.069,2.069,0,0,0-2.427.01,29.976,29.976,0,0,1-12.049,4.428c-1.533.207-2,.807-2,2.348,0,3.362-.015,6.723,0,10.085a26.486,26.486,0,0,0,.853,6.674c.4,1.514,1,1.933,2.521,1.74A33.631,33.631,0,0,0,4186.627,427.715Z" transform="translate(-4150.57 -371.617)" fill="#89b4f7"/>
      <path id="Trazado_127719" data-name="Trazado 127719" d="M4128.721,360.815c-2.821,0-5.641-.016-8.46.013-.6.006-.835-.117-.82-.778.045-1.949.03-3.9.008-5.848,0-.494.045-.745.66-.742q8.64.038,17.28,0c.538,0,.636.2.631.675-.022,1.979-.034,3.959.006,5.938.012.6-.172.756-.754.751C4134.421,360.8,4131.571,360.815,4128.721,360.815Z" transform="translate(-4115.847 -349.856)" fill="#eb8296"/>
      <path id="Trazado_127720" data-name="Trazado 127720" d="M4190.13,353.47c2.852,0,5.7.018,8.557-.015.6-.007.743.174.733.75-.034,1.981-.028,3.962,0,5.943.006.491-.107.674-.639.672q-8.648-.027-17.294,0c-.529,0-.647-.176-.641-.67.024-2.011.038-4.023-.006-6.033-.013-.617.242-.659.735-.656C4184.424,353.48,4187.277,353.47,4190.13,353.47Z" transform="translate(-4155.085 -349.854)" fill="#f7e2b7"/>
      <path id="Trazado_127721" data-name="Trazado 127721" d="M4251.512,353.477c2.85,0,5.7.015,8.55-.013.578-.006.767.137.755.739-.039,1.949-.032,3.9,0,5.849.008.553-.1.783-.724.78q-8.55-.037-17.1,0c-.58,0-.767-.147-.755-.75.04-1.949.045-3.9,0-5.848-.015-.667.225-.773.819-.767C4245.872,353.493,4248.692,353.477,4251.512,353.477Z" transform="translate(-4194.323 -349.859)" fill="#eb8296"/>
      <path id="Trazado_127722" data-name="Trazado 127722" d="M4312.955,360.81c-2.822,0-5.643-.018-8.465.014-.633.007-.888-.1-.867-.818.057-1.949.042-3.9.005-5.852-.01-.558.144-.7.7-.7q8.6.031,17.2,0c.583,0,.688.184.68.715-.03,1.951-.038,3.9,0,5.852.013.624-.152.809-.79.8C4318.6,360.791,4315.777,360.81,4312.955,360.81Z" transform="translate(-4233.557 -349.855)" fill="#f1bec8"/>
      <path id="Trazado_127723" data-name="Trazado 127723" d="M4159.447,573.235c-2.821,0-5.644-.017-8.464.013-.6.006-.836-.1-.819-.768.048-1.95.043-3.9,0-5.851-.013-.62.206-.746.774-.745q8.51.027,17.02,0c.574,0,.785.132.773.748q-.058,2.97,0,5.942c.013.6-.222.674-.731.671C4165.15,573.224,4162.3,573.235,4159.447,573.235Z" transform="translate(-4135.481 -485.615)" fill="#f7e2b7"/>
      <path id="Trazado_127724" data-name="Trazado 127724" d="M4220.848,573.222c-2.818,0-5.636-.016-8.454.013-.6.006-.837-.117-.821-.778.044-1.917.035-3.836,0-5.754-.009-.593.117-.839.782-.836q8.5.037,17,0c.575,0,.785.146.773.752-.034,1.948-.042,3.9,0,5.844.017.674-.241.774-.831.769C4226.484,573.208,4223.666,573.223,4220.848,573.222Z" transform="translate(-4174.728 -485.604)" fill="#eb8296"/>
      <path id="Trazado_127725" data-name="Trazado 127725" d="M4282.271,573.229c-2.851,0-5.7-.014-8.552.012-.569.005-.774-.126-.761-.735.039-1.95.032-3.9,0-5.85-.008-.565.119-.782.742-.78q8.552.036,17.1,0c.558,0,.721.163.713.716-.031,1.95-.038,3.9,0,5.85.014.624-.153.808-.79.8C4287.913,573.21,4285.092,573.229,4282.271,573.229Z" transform="translate(-4213.958 -485.61)" fill="#f1bec8"/>
      <path id="Trazado_127726" data-name="Trazado 127726" d="M4128.734,542.933c-2.823,0-5.645-.016-8.466.013-.6.006-.838-.106-.824-.772.046-1.95.035-3.9.005-5.854-.009-.537.114-.719.688-.717q8.6.032,17.205,0c.478,0,.689.081.682.629-.033,2.01-.038,4.023,0,6.033.011.6-.226.676-.734.673C4134.439,542.923,4131.586,542.933,4128.734,542.933Z" transform="translate(-4115.85 -466.263)" fill="#ee8397"/>
      <path id="Trazado_127727" data-name="Trazado 127727" d="M4313.024,535.607c2.822,0,5.643.009,8.464-.009.495,0,.749.04.736.657-.044,2.01-.033,4.021-.006,6.031.007.5-.13.658-.648.656q-8.643-.027-17.288,0c-.527,0-.642-.172-.636-.663.025-1.98.032-3.961,0-5.941-.011-.581.14-.753.737-.746C4307.261,535.625,4310.143,535.607,4313.024,535.607Z" transform="translate(-4233.57 -466.256)" fill="#fae5b9"/>
      <path id="Trazado_127728" data-name="Trazado 127728" d="M4136.776,482.208h-9.621c-2.311,0-4.62-.013-6.931.01-.533.005-.8-.059-.783-.708.046-2.008.034-4.019.006-6.028-.008-.51.139-.648.646-.646,4.919.018,9.84.01,14.761.014.3,0,.65-.128.693.418A35.957,35.957,0,0,0,4136.776,482.208Z" transform="translate(-4115.848 -427.427)" fill="#f8e3b8"/>
      <path id="Trazado_127729" data-name="Trazado 127729" d="M4307.18,482.116a37.166,37.166,0,0,0,1.2-6.855c.033-.378.226-.413.529-.413q7.508.008,15.016-.005c.446,0,.55.155.546.571-.018,2.068-.013,4.135,0,6.2,0,.38-.038.607-.521.6q-8.315-.036-16.631-.039C4307.3,482.182,4307.271,482.16,4307.18,482.116Z" transform="translate(-4235.832 -427.432)" fill="#ec8396"/>
      <path id="Trazado_127730" data-name="Trazado 127730" d="M4127.452,421.457c-2.4,0-4.8-.019-7.2.013-.6.008-.831-.106-.815-.769.046-1.978.033-3.957.006-5.936-.007-.514.156-.66.66-.658q7.333.023,14.664,0c.579,0,.7.217.691.739-.024,1.978-.033,3.958,0,5.936.01.581-.2.693-.726.688C4132.31,421.444,4129.881,421.457,4127.452,421.457Z" transform="translate(-4115.847 -388.614)" fill="#eb8295"/>
      <path id="Trazado_127731" data-name="Trazado 127731" d="M4318.733,421.458c-2.429,0-4.858-.015-7.287.011-.541.006-.726-.13-.715-.7.033-1.978.029-3.957,0-5.935-.007-.535.135-.731.7-.729q7.331.029,14.662,0c.521,0,.657.167.651.669-.025,2.008-.036,4.018.005,6.026.013.606-.23.67-.733.666C4323.591,421.446,4321.163,421.458,4318.733,421.458Z" transform="translate(-4238.1 -388.615)" fill="#eb8295"/>
      <path id="Trazado_127732" data-name="Trazado 127732" d="M4282.256,383.795c2.819,0,5.638.018,8.457-.014.62-.007.822.148.808.791-.042,1.948-.034,3.9,0,5.847.008.533-.111.738-.688.715-1.167-.046-2.34-.051-3.507,0-.632.029-.769-.221-.724-.777a2.115,2.115,0,0,0-.52-1.836,2.015,2.015,0,0,0-2.261-.308,19.79,19.79,0,0,1-9.48.875c-1.365-.2-1.366-.192-1.366-1.581,0-.989.031-1.98-.012-2.968-.026-.585.157-.764.75-.758C4276.558,383.811,4279.406,383.795,4282.256,383.795Z" transform="translate(-4213.958 -369.234)" fill="#f9e4b9"/>
      <path id="Trazado_127733" data-name="Trazado 127733" d="M4159.5,383.8c2.79,0,5.577.018,8.365-.014.634-.007.914.1.874.821-.064,1.166-.047,2.338,0,3.506.021.573-.178.756-.733.862a20.119,20.119,0,0,1-10.273-.786c-1.57-.522-2.6.23-2.636,1.876a3,3,0,0,0,0,.449c.061.468-.128.629-.6.619q-1.843-.04-3.688,0c-.45.009-.633-.1-.626-.593.025-2.038.037-4.077,0-6.115-.013-.657.332-.63.782-.629C4153.8,383.8,4156.65,383.8,4159.5,383.8Z" transform="translate(-4135.487 -369.235)" fill="#f3c0ca"/>
      <path id="Trazado_127734" data-name="Trazado 127734" d="M4292,512.591a36,36,0,0,0,4.044-7.042c.141-.337.405-.3.672-.3,2.127,0,4.255.014,6.382-.011.494-.006.593.176.588.623q-.029,3.055,0,6.112c0,.463-.14.626-.616.624C4299.446,512.584,4295.824,512.591,4292,512.591Z" transform="translate(-4226.127 -446.859)" fill="#f0bdc7"/>
      <path id="Trazado_127735" data-name="Trazado 127735" d="M4161.893,512.592c-3.846,0-7.493-.005-11.14.007-.44,0-.565-.171-.562-.584q.019-3.1,0-6.2c0-.419.1-.573.551-.569,2.158.022,4.316.016,6.474,0a.622.622,0,0,1,.674.434A34.8,34.8,0,0,0,4161.893,512.592Z" transform="translate(-4135.499 -446.86)" fill="#f0bdc7"/>
      <path id="Trazado_127736" data-name="Trazado 127736" d="M4193.1,542.655a.9.9,0,0,1-.74.151c-3.57.006-7.142-.01-10.711.018-.608.005-.821-.121-.806-.773q.069-2.923,0-5.848c-.012-.611.206-.671.753-.742a5.145,5.145,0,0,1,4.866,1.874,32.361,32.361,0,0,0,5.847,4.76C4192.564,542.274,4192.819,542.459,4193.1,542.655Z" transform="translate(-4155.086 -466.135)" fill="#f9e4b9"/>
      <path id="Trazado_127737" data-name="Trazado 127737" d="M4259.712,542.627a51.506,51.506,0,0,0,8.3-6.875.885.885,0,0,1,.709-.3c1.046.026,2.355-.334,3.063.164.628.442.153,1.847.182,2.826.036,1.229,0,2.46.015,3.69,0,.417-.045.655-.567.651-3.812-.022-7.623-.016-11.434-.022C4259.929,542.757,4259.88,542.711,4259.712,542.627Z" transform="translate(-4205.494 -466.099)" fill="#ec8396"/>
      <path id="Trazado_127738" data-name="Trazado 127738" d="M4155.1,448.151c0,1.021-.022,2.042.01,3.062.014.47-.125.626-.6.615-1.23-.03-2.463-.037-3.693,0-.541.017-.636-.19-.63-.673q.036-3.017,0-6.034c0-.486.106-.7.646-.68,1.2.037,2.4.045,3.6,0,.6-.024.695.226.678.738C4155.073,446.169,4155.1,447.161,4155.1,448.151Z" transform="translate(-4135.492 -408.001)" fill="#f0bdc7"/>
      <path id="Trazado_127739" data-name="Trazado 127739" d="M4315.655,448.228c0,1.017-.02,2.034.009,3.051.012.432-.118.567-.555.557-1.257-.028-2.514-.019-3.77,0-.381,0-.6-.039-.6-.52.023-2.093.019-4.187,0-6.281,0-.418.118-.582.559-.574,1.255.023,2.513.03,3.768,0,.5-.013.6.195.591.634C4315.64,446.134,4315.655,447.181,4315.655,448.228Z" transform="translate(-4238.107 -408.009)" fill="#f7e2b7"/>
      <path id="Trazado_127740" data-name="Trazado 127740" d="M4216.884,383.836a19.96,19.96,0,0,1-4.8,3.464c-.264.136-.465.12-.465-.25,0-.927,0-1.855,0-2.783,0-.3.119-.435.425-.434C4213.581,383.839,4215.119,383.836,4216.884,383.836Z" transform="translate(-4174.757 -369.268)" fill="#eb8295"/>
      <path id="Trazado_127741" data-name="Trazado 127741" d="M4248.374,383.831c1.759,0,3.277.005,4.793,0,.349,0,.473.149.469.483-.009.866-.014,1.733,0,2.6.009.535-.227.525-.6.324A20.208,20.208,0,0,1,4248.374,383.831Z" transform="translate(-4198.248 -369.264)" fill="#eb8296"/>
      <path id="Trazado_127742" data-name="Trazado 127742" d="M4211.357,459.32a12.021,12.021,0,0,1-2.885-3.227,2.426,2.426,0,0,0,.569-.987,1.769,1.769,0,0,0-.563-1.773,1.932,1.932,0,0,0-2.318-.11,33.4,33.4,0,0,1-1.826-4.154,1.94,1.94,0,0,0,.993-2.584,19.349,19.349,0,0,1-.683-4.526c-.044-3.241-.042-6.483-.086-9.724-.007-.516.206-.628.659-.716a33.523,33.523,0,0,0,10.466-3.916.913.913,0,0,1,1.06-.023,32.479,32.479,0,0,0,10.462,3.913c.6.111.691.366.688.888-.021,2.792.007,5.583-.018,8.375a22.85,22.85,0,0,1-.571,5c-1.312,5.646-4.562,10.026-8.925,13.679-2.094,1.752-2.1,1.747-4.265.047A1.908,1.908,0,0,0,4211.357,459.32Z" transform="translate(-4170.103 -397.124)" fill="#c2d9fa"/>
      <path id="Trazado_127743" data-name="Trazado 127743" d="M4205.363,452.193a1.908,1.908,0,0,1,2.757.156c2.166,1.7,2.17,1.706,4.265-.047,4.363-3.652,7.613-8.033,8.925-13.679a23.029,23.029,0,0,0,.571-5c.025-2.792,0-5.583.018-8.375,0-.523-.089-.777-.687-.888a32.473,32.473,0,0,1-10.462-3.913.914.914,0,0,0-1.06.023,33.507,33.507,0,0,1-10.465,3.916c-.454.088-.667.2-.659.716.045,3.241.042,6.483.086,9.724a19.247,19.247,0,0,0,.683,4.526,1.94,1.94,0,0,1-.994,2.584c-1.521.192-2.118-.227-2.52-1.74a26.442,26.442,0,0,1-.854-6.674c-.019-3.361-.008-6.723,0-10.084,0-1.541.471-2.141,2-2.348a29.97,29.97,0,0,0,12.049-4.428,2.069,2.069,0,0,1,2.428-.01,30.316,30.316,0,0,0,12.136,4.454c1.366.189,1.925.794,1.916,2.053-.032,4.141.17,8.285-.107,12.421a26.248,26.248,0,0,1-7.513,16.515,37.6,37.6,0,0,1-6.388,5.384,1.821,1.821,0,0,1-2.479.008c-1.078-.759-2.141-1.542-3.177-2.36C4204.65,454.2,4204.556,453.466,4205.363,452.193Z" transform="translate(-4164.109 -389.997)" fill="#020304"/>
      <path id="Trazado_127744" data-name="Trazado 127744" d="M4208.251,498.325a1.931,1.931,0,0,1,2.317.11,1.769,1.769,0,0,1,.565,1.773,2.434,2.434,0,0,1-.571.987q-1.637.854-2.564-.288C4207.4,500.174,4207.486,499.348,4208.251,498.325Z" transform="translate(-4172.194 -442.227)" fill="#020304"/>
    </g>
  </g>
</svg>
