<svg xmlns="http://www.w3.org/2000/svg" xmlns:xlink="http://www.w3.org/1999/xlink" width="85" height="85" viewBox="0 0 85 85">
  <defs>
    <clipPath id="clip-path">
      <rect id="Rectángulo_34525" data-name="Rectángulo 34525" width="85" height="85" transform="translate(600 14109)" fill="#2ff980" stroke="#707070" stroke-width="1"/>
    </clipPath>
  </defs>
  <g id="Grupo_85655" data-name="Grupo 85655" transform="translate(-600 -14109)" clip-path="url(#clip-path)">
    <g id="Grupo_85849" data-name="Grupo 85849" transform="translate(607.478 14116.04)">
      <path id="Trazado_127488" data-name="Trazado 127488" d="M911.68-466.917c.838.2,1.079.478,1.08,1.334q.006,7.166,0,14.332a4.671,4.671,0,0,1-1.621,3.468,15.039,15.039,0,0,1-5.372,3.043,49.493,49.493,0,0,1-11.383,2.5,80.112,80.112,0,0,1-14.239.411,56.7,56.7,0,0,1-16.526-3.053,14.391,14.391,0,0,1-4.988-2.89,4.983,4.983,0,0,1-1.638-3.811q.025-25.514,0-51.028a5.2,5.2,0,0,1,1.918-4.175,16.781,16.781,0,0,1,5.781-3.019,57.125,57.125,0,0,1,13.562-2.514,81.7,81.7,0,0,1,13.7.009c5.412.47,10.755,1.279,15.754,3.578a.609.609,0,0,0,.681-.092,10.8,10.8,0,0,0,1.768-1.646,2.007,2.007,0,0,1,3.1-.01c2.358,2.812,5.459,3.494,8.913,3.2.8-.069,1.594-.244,2.393-.356a2.044,2.044,0,0,1,2.422,1.873,6.684,6.684,0,0,1,.022.76c0,4.985-.062,9.971.029,14.955a8.836,8.836,0,0,1-2.356,6.3c-.475.533-1,1.018-1.5,1.534a1.156,1.156,0,0,1-1.664.2c-.446-.772-.4-1.092.215-1.7.412-.4.841-.792,1.222-1.223a6.339,6.339,0,0,0,1.973-4.146c.011-1.153-.016-2.307.013-3.459.011-.428-.117-.548-.543-.542-1.661.024-3.323.027-4.983,0-.414-.007-.531.135-.624.509A7.171,7.171,0,0,1,913.191-487c-.363.091-.5.2-.494.574q.02,3.944,0,7.888c0,.551.172.539.586.324,1.43-.744,2.844-1.515,4.212-2.37a1.181,1.181,0,0,1,1.777.133c.215.856.109,1.158-.632,1.6a35.737,35.737,0,0,1-5.59,2.971c-.338.129-.287.364-.288.609,0,1.428,0,2.856,0,4.285,0,.845-.237,1.12-1.08,1.336a1.141,1.141,0,0,1-1-1.333c.029-.75.006-1.5.006-2.229-.238-.089-.322.058-.422.131a17.863,17.863,0,0,1-4.464,2.31,55.206,55.206,0,0,1-15.72,2.876,84.107,84.107,0,0,1-17.6-.765c-4.677-.832-9.311-1.789-13.4-4.68v.779c0,2.56.044,5.121-.019,7.68a3.323,3.323,0,0,0,1.39,2.919,10.3,10.3,0,0,0,1.139.779,31.933,31.933,0,0,0,10.879,3.4c1.13.233,2.274.352,3.419.48a77.552,77.552,0,0,0,23.065-.761,30.174,30.174,0,0,0,8.887-2.91c1.865-1.007,3.229-2.306,2.849-4.694A1.038,1.038,0,0,1,911.68-466.917Zm-.281-32.374a5.184,5.184,0,0,0-4.958,5.133,5.215,5.215,0,0,0,4.958,5.219,5.2,5.2,0,0,0,5.495-5.22A5.175,5.175,0,0,0,911.4-499.292Zm-.815,19.66c.011-2.283.017-4.566.039-6.849,0-.361-.16-.439-.481-.515a7.331,7.331,0,0,1-5.326-4.59c-.2-.49-.034-1.241-.57-1.441a5.037,5.037,0,0,0-1.713-.025c-1.2-.008-2.4-.007-3.6-.03-.329-.006-.442.1-.434.432a21.764,21.764,0,0,1-.008,2.557,6.608,6.608,0,0,0,2.232,5.427,33.458,33.458,0,0,0,8.5,5.975c.416.22.943.747,1.268.5S910.61-479.132,910.584-479.632ZM902.533-505.1a20.093,20.093,0,0,1-3.562-.419c-.282-.065-.465-.071-.464.331q.019,4.8,0,9.609c0,.337.112.431.437.425,1.2-.023,2.4-.022,3.594-.03.414.008.831-.014,1.241.033.5.057.682-.126.809-.625a7.086,7.086,0,0,1,5.52-5.457c.442-.109.53-.3.526-.7-.018-1.657-.007-3.315-.007-4.973v-.975c-.538.382-.95.7-1.385.98A12.6,12.6,0,0,1,902.533-505.1Zm-30.059,21.269a62.283,62.283,0,0,0,6.311.772,76.387,76.387,0,0,0,19.1-.837c.615-.107.537-.244.235-.64a7.722,7.722,0,0,1-1.7-5.2c.067-1.4,0-2.814.021-4.22.007-.447-.021-.631-.581-.545-1.984.3-3.985.472-5.989.577a87.7,87.7,0,0,1-17.39-.77c-4.676-.836-9.315-1.78-13.4-4.68v.786c0,2.492.07,4.986-.026,7.475a3.648,3.648,0,0,0,1.819,3.469,14.523,14.523,0,0,0,1.362.815A35.761,35.761,0,0,0,872.474-483.829Zm2.215-26.014a30.2,30.2,0,0,0-4.565.723,29.407,29.407,0,0,0-8.328,2.844,7,7,0,0,0-2.149,1.713,2.052,2.052,0,0,0-.008,2.777,6.618,6.618,0,0,0,2.269,1.777,38.076,38.076,0,0,0,13.06,3.5,4.269,4.269,0,0,0,.465.108c2.108.253,4.222.415,6.343.5a81.112,81.112,0,0,0,13.944-.662c.488-.064.738-.168.728-.775-.044-2.721-.027-5.443-.016-8.164a2.048,2.048,0,0,1,2.5-2.13c.82.124,1.636.279,2.459.366a9.014,9.014,0,0,0,3.714-.3c-9.815-3.164-19.851-3.505-30-2.358l-.236.057Zm-2.216,39.051a50.476,50.476,0,0,0,6.036.739,76.612,76.612,0,0,0,22.284-1.421,24,24,0,0,0,7.542-2.784,5.565,5.565,0,0,0,1.834-1.637l-.309-.148a41.654,41.654,0,0,1-9.04-5.685,1.468,1.468,0,0,0-1.423-.346,68.433,68.433,0,0,1-9.737,1.192,84.436,84.436,0,0,1-17.176-.8c-4.669-.859-9.308-1.8-13.395-4.673v.856c0,2.536.049,5.074-.021,7.609a3.345,3.345,0,0,0,1.446,2.959,10.635,10.635,0,0,0,1.264.84A32.771,32.771,0,0,0,872.473-470.792Zm0,26.032a60.832,60.832,0,0,0,7.626.849,80.057,80.057,0,0,0,14.373-.422,45.606,45.606,0,0,0,10.953-2.5,13.094,13.094,0,0,0,4.137-2.32,3.084,3.084,0,0,0,1.131-2.482c-.038-2.676-.01-5.353-.018-8.03,0-.188.1-.411-.13-.6a16.077,16.077,0,0,1-3.771,2.126,47.267,47.267,0,0,1-13.445,2.992,84.949,84.949,0,0,1-20.846-.491c-4.678-.833-9.318-1.779-13.313-4.617a1.2,1.2,0,0,0-.084.71c-.006,2.446.088,4.9-.035,7.337a3.839,3.839,0,0,0,2.009,3.722,16.64,16.64,0,0,0,1.747.978A35.1,35.1,0,0,0,872.473-444.76Zm40.353-63.149c-.063.092-.11.128-.11.164-.007,2.006-.006,4.012-.021,6.018,0,.346.2.409.463.473a7.127,7.127,0,0,1,5.615,5.553c.112.446.289.564.736.555,1.591-.031,3.184-.035,4.775,0,.521.011.66-.133.656-.653-.024-3.021-.033-6.042,0-9.063.008-.692-.214-.721-.8-.605a14.811,14.811,0,0,1-7.78-.372A10.484,10.484,0,0,1,912.825-507.908Z" transform="translate(-856.99 512.605)" fill="#040404"/>
      <path id="Trazado_127489" data-name="Trazado 127489" d="M951.982-364.434a1.038,1.038,0,0,0-.987,1.254c.381,2.388-.984,3.687-2.849,4.694a30.175,30.175,0,0,1-8.887,2.91,77.553,77.553,0,0,1-23.065.761c-1.145-.128-2.29-.247-3.419-.48q0-5.439.006-10.877a84.1,84.1,0,0,0,17.6.765,55.2,55.2,0,0,0,15.72-2.876,17.86,17.86,0,0,0,4.464-2.31c.1-.074.184-.22.422-.131,0,.726.022,1.479-.006,2.229a1.141,1.141,0,0,0,1,1.333Q951.982-365.8,951.982-364.434Z" transform="translate(-897.292 410.122)" fill="#89b3f3"/>
      <path id="Trazado_127490" data-name="Trazado 127490" d="M1064.285-429.652a1.181,1.181,0,0,0-1.777-.133c-1.368.855-2.782,1.626-4.212,2.37-.414.215-.589.228-.586-.324q.025-3.944,0-7.888c0-.376.131-.483.494-.574a7.171,7.171,0,0,0,5.594-5.581c.092-.374.21-.517.624-.509,1.661.03,3.323.026,4.983,0,.427-.006.554.114.543.542-.029,1.153,0,2.306-.013,3.459a6.339,6.339,0,0,1-1.973,4.146c-.381.431-.81.82-1.222,1.223-.618.6-.661.925-.215,1.7Z" transform="translate(-1002.003 461.806)" fill="#f7de8c"/>
      <path id="Trazado_127491" data-name="Trazado 127491" d="M912.788-319.383a84.951,84.951,0,0,0,20.846.491,47.267,47.267,0,0,0,13.445-2.992,16.076,16.076,0,0,0,3.771-2.126c.232.185.129.409.13.6.008,2.677-.02,5.354.018,8.03a3.084,3.084,0,0,1-1.131,2.482,13.094,13.094,0,0,1-4.137,2.32,45.6,45.6,0,0,1-10.953,2.5,80.054,80.054,0,0,1-14.373.422,60.828,60.828,0,0,1-7.626-.849Q912.782-313.944,912.788-319.383Z" transform="translate(-897.294 376.351)" fill="#a3c4f4"/>
      <path id="Trazado_127492" data-name="Trazado 127492" d="M912.788-402.33a84.436,84.436,0,0,0,17.176.8,68.442,68.442,0,0,0,9.737-1.192,1.468,1.468,0,0,1,1.423.346,41.656,41.656,0,0,0,9.04,5.685l.309.148a5.564,5.564,0,0,1-1.834,1.637,24,24,0,0,1-7.542,2.784,76.615,76.615,0,0,1-22.284,1.421,50.477,50.477,0,0,1-6.036-.739Q912.782-396.888,912.788-402.33Z" transform="translate(-897.294 433.259)" fill="#a3c4f4"/>
      <path id="Trazado_127493" data-name="Trazado 127493" d="M909.712-504.521c10.154-1.148,20.189-.806,30,2.358a9.016,9.016,0,0,1-3.714.3c-.823-.087-1.64-.242-2.459-.366a2.048,2.048,0,0,0-2.5,2.13c-.012,2.721-.029,5.443.016,8.164.01.607-.24.711-.728.775a81.1,81.1,0,0,1-13.944.662c-2.121-.087-4.236-.25-6.343-.5a4.263,4.263,0,0,1-.465-.108,16.618,16.618,0,0,1-3.315-2.977,5.932,5.932,0,0,1-1.353-3.952,7.622,7.622,0,0,1,3.258-5.373c.392-.311,1.006-.417,1.13-1.031l.178-.027Z" transform="translate(-891.599 507.199)" fill="#b7d5f6"/>
      <path id="Trazado_127494" data-name="Trazado 127494" d="M912.784-448.066a87.7,87.7,0,0,0,17.39.77c2-.1,4.005-.273,5.989-.577.56-.086.588.1.581.545-.023,1.407.046,2.816-.021,4.22a7.721,7.721,0,0,0,1.7,5.2c.3.4.38.533-.235.64a76.387,76.387,0,0,1-19.1.837,62.3,62.3,0,0,1-6.311-.772Q912.782-442.634,912.784-448.066Z" transform="translate(-897.296 465.978)" fill="#89b3f3"/>
      <path id="Trazado_127495" data-name="Trazado 127495" d="M877.846-460.249q0,5.432,0,10.865a35.758,35.758,0,0,1-10.236-3,14.538,14.538,0,0,1-1.362-.815,3.648,3.648,0,0,1-1.819-3.469c.1-2.488.025-4.983.025-7.475v-.786C868.531-462.028,873.169-461.085,877.846-460.249Z" transform="translate(-862.358 478.161)" fill="#5f8fef"/>
      <path id="Trazado_127496" data-name="Trazado 127496" d="M877.871-366.429q0,5.438-.006,10.877a31.933,31.933,0,0,1-10.879-3.4,10.313,10.313,0,0,1-1.139-.779,3.323,3.323,0,0,1-1.39-2.919c.063-2.559.019-5.12.019-7.68v-.779C868.56-368.218,873.194-367.262,877.871-366.429Z" transform="translate(-862.383 410.379)" fill="#5f8fef"/>
      <path id="Trazado_127497" data-name="Trazado 127497" d="M877.835-319.357q-.006,5.439-.011,10.877a35.1,35.1,0,0,1-9.664-2.748,16.646,16.646,0,0,1-1.747-.978,3.839,3.839,0,0,1-2.009-3.722c.123-2.44.029-4.89.035-7.337a1.2,1.2,0,0,1,.084-.71C868.517-321.136,873.157-320.19,877.835-319.357Z" transform="translate(-862.341 376.326)" fill="#89b2f2"/>
      <path id="Trazado_127498" data-name="Trazado 127498" d="M877.889-413.328q-.005,5.442-.011,10.885a32.771,32.771,0,0,1-10.7-3.294,10.629,10.629,0,0,1-1.264-.84,3.345,3.345,0,0,1-1.446-2.958c.07-2.534.02-5.073.02-7.609V-418C868.58-415.131,873.22-414.187,877.889-413.328Z" transform="translate(-862.395 444.257)" fill="#89b2f2"/>
      <path id="Trazado_127499" data-name="Trazado 127499" d="M880.186-502.65c-.124.614-.738.72-1.13,1.031a7.623,7.623,0,0,0-3.258,5.373,5.933,5.933,0,0,0,1.353,3.952,16.615,16.615,0,0,0,3.315,2.977,38.078,38.078,0,0,1-13.06-3.5,6.617,6.617,0,0,1-2.269-1.777,2.052,2.052,0,0,1,.008-2.777,7,7,0,0,1,2.149-1.713,29.407,29.407,0,0,1,8.328-2.844A30.2,30.2,0,0,1,880.186-502.65Z" transform="translate(-862.487 505.413)" fill="#a3c4f4"/>
      <path id="Trazado_127500" data-name="Trazado 127500" d="M1057.834-495.681a10.485,10.485,0,0,0,3.54,2.072,14.812,14.812,0,0,0,7.78.372c.584-.116.806-.087.8.605-.036,3.021-.028,6.042,0,9.063,0,.519-.135.664-.656.653-1.591-.036-3.184-.032-4.775,0-.447.009-.624-.109-.736-.555a7.128,7.128,0,0,0-5.615-5.553c-.268-.064-.466-.127-.463-.473.015-2.006.013-4.012.021-6.018C1057.724-495.553,1057.77-495.589,1057.834-495.681Z" transform="translate(-1001.998 500.378)" fill="#e96d71"/>
      <path id="Trazado_127501" data-name="Trazado 127501" d="M1021.089-492.792a12.6,12.6,0,0,0,6.7-1.8c.435-.28.847-.6,1.385-.98v.975c0,1.658-.01,3.315.007,4.973,0,.4-.083.59-.526.7a7.086,7.086,0,0,0-5.52,5.457c-.127.5-.308.682-.809.625-.409-.047-.827-.024-1.241-.033Q1021.09-487.834,1021.089-492.792Z" transform="translate(-975.546 500.3)" fill="#f9df8d"/>
      <path id="Trazado_127502" data-name="Trazado 127502" d="M1021.051-442.328a5.035,5.035,0,0,1,1.713.025c.536.2.367.951.57,1.441a7.331,7.331,0,0,0,5.326,4.59c.321.077.484.154.481.515-.023,2.283-.028,4.566-.039,6.849a.919.919,0,0,1-.262-.075,24.467,24.467,0,0,1-6.234-5.248,6.22,6.22,0,0,1-1.566-4.093C1021.087-439.657,1021.05-440.993,1021.051-442.328Z" transform="translate(-975.507 461.881)" fill="#eb6e72"/>
      <path id="Trazado_127503" data-name="Trazado 127503" d="M1010.5-442.231c0,1.335.037,2.671-.011,4a6.22,6.22,0,0,0,1.566,4.093,24.464,24.464,0,0,0,6.234,5.248.921.921,0,0,0,.262.075c.026.5.248,1.191-.085,1.443s-.852-.281-1.268-.5a33.457,33.457,0,0,1-8.5-5.975,6.608,6.608,0,0,1-2.232-5.427,21.738,21.738,0,0,0,.007-2.557c-.007-.331.105-.438.434-.432C1008.106-442.239,1009.3-442.239,1010.5-442.231Z" transform="translate(-964.96 461.785)" fill="#ea555b"/>
      <path id="Trazado_127504" data-name="Trazado 127504" d="M1046.186-464.667a5.175,5.175,0,0,1,5.5,5.132,5.2,5.2,0,0,1-5.495,5.22,6.108,6.108,0,0,1-1.821-2.035c-.275-.564-.742-1.1-.535-1.819.445.432.884.87,1.336,1.293a1.025,1.025,0,0,0,1.631-.007q1.362-1.322,2.686-2.683a1.021,1.021,0,0,0,.076-1.578,1.037,1.037,0,0,0-1.533.108c-.482.461-.946.941-1.418,1.413-.628.628-.642.641-1.264-.015-.5-.526-1-.982-1.788-.6A6.512,6.512,0,0,1,1046.186-464.667Z" transform="translate(-991.778 477.981)" fill="#9ecea3"/>
      <path id="Trazado_127505" data-name="Trazado 127505" d="M1010.6-486.73q0,4.958,0,9.916c-1.2.008-2.4.007-3.594.03-.325.006-.439-.088-.437-.425q.018-4.8,0-9.609c0-.4.181-.4.463-.331A20.1,20.1,0,0,0,1010.6-486.73Z" transform="translate(-965.057 494.238)" fill="#f4c46b"/>
      <path id="Trazado_127506" data-name="Trazado 127506" d="M1037.77-458.136c-.206.717.26,1.254.535,1.819a6.108,6.108,0,0,0,1.821,2.035,5.215,5.215,0,0,1-4.958-5.219,5.184,5.184,0,0,1,4.958-5.133,6.512,6.512,0,0,0-2.63,4.427,1.085,1.085,0,0,0-.284,1.4A5.608,5.608,0,0,0,1037.77-458.136Z" transform="translate(-985.718 477.948)" fill="#80ba81"/>
      <path id="Trazado_127507" data-name="Trazado 127507" d="M921.636-502.954l-.236.057Z" transform="translate(-903.524 505.633)" fill="#a3c4f4"/>
      <path id="Trazado_127508" data-name="Trazado 127508" d="M1042.685-449.717a5.639,5.639,0,0,1-.558-.67,1.085,1.085,0,0,1,.284-1.4c.793-.379,1.289.077,1.788.6.622.656.635.643,1.264.015.472-.472.936-.952,1.418-1.413a1.037,1.037,0,0,1,1.533-.109,1.021,1.021,0,0,1-.076,1.578q-1.327,1.357-2.686,2.683a1.025,1.025,0,0,1-1.631.007C1043.569-448.848,1043.13-449.286,1042.685-449.717Z" transform="translate(-990.632 469.529)" fill="#040404"/>
    </g>
  </g>
</svg>
