<svg id="Grupo_81330" data-name="Grupo 81330" xmlns="http://www.w3.org/2000/svg" width="67" height="105" viewBox="0 0 67 105">
  <rect id="Rectángulo_34185" data-name="Rectángulo 34185" width="67" height="105" rx="5" fill="#fff"/>
  <g id="Grupo_84761" data-name="Grupo 84761" transform="translate(-371.822 -742.193)">
    <path id="Trazado_123747" data-name="Trazado 123747" d="M428.574,764c.667.186.807.362.808,1.058q0,11.933,0,23.865a3.522,3.522,0,0,1-1.369,2.808,11.376,11.376,0,0,1-4.123,2.055c-.612.187-1.044-.2-1.048-.895-.009-1.425,0-2.85,0-4.275,0-.8-.016-1.6.008-2.4a.425.425,0,0,0-.374-.513,48.167,48.167,0,0,0-7.428-1.32c-1.23-.127-2.465-.2-3.7-.328-.318-.032-.458.009-.438.367.03.515.016,1.032.02,1.549-.214.6-.414.737-1.086.737q-4.7,0-9.4,0c-.753,0-1.012.261-1.018,1.019-.005.61,0,1.221,0,1.831,0,1.456,0,2.911,0,4.367,0,.717.285.989,1,.992.407,0,.813-.01,1.22-.017,2.894.005,5.787.015,8.681.012.548,0,.828-.323.83-.911.006-1.329,0-2.658,0-3.988,0-.678.168-.881.828-1.033.643.18.774.337.776.977,0,1.362.01,2.724,0,4.086a2.369,2.369,0,0,1-2.484,2.474q-4.98.006-9.959,0a2.377,2.377,0,0,1-2.5-2.424q-.038-3.287,0-6.575a2.319,2.319,0,0,1,1.583-2.272.351.351,0,0,0,.277-.4c-.018-.531-.016-1.063-.021-1.6.007-.469.009-.938.022-1.408a5.269,5.269,0,0,1,3.961-5.146,6.579,6.579,0,0,1,3.923.178c.08.044.159.093.242.133a5.119,5.119,0,0,1,3.066,4.491c.076.947.063.933,1.048,1a55.288,55.288,0,0,1,10.388,1.525c.474.123.526,0,.525-.425q-.017-10.385-.008-20.769c0-.761.138-.952.862-1.189a13.191,13.191,0,0,0,2.243-.943,4.479,4.479,0,0,0,1.439-1.112,1.429,1.429,0,0,0,0-1.929,4.19,4.19,0,0,0-1.226-1.009,16.241,16.241,0,0,0-4.19-1.6,50.056,50.056,0,0,0-7.958-1.3c-1.574-.147-3.149-.3-4.733-.291-.109-.01-.217-.025-.327-.03a90.853,90.853,0,0,0-10.758.193,53.432,53.432,0,0,0-9.87,1.526,13.307,13.307,0,0,0-4.307,1.794c-1.569,1.1-1.552,2.294.024,3.374a11.526,11.526,0,0,0,2.795,1.307c.871.3.928.379.928,1.317q0,10.366-.006,20.732c0,.362.032.484.456.373a50.225,50.225,0,0,1,8.143-1.351c.621-.057.79.077,1,.676-.068.67-.27.86-.939.926a51.03,51.03,0,0,0-8.226,1.4c-.316.085-.445.2-.441.558.02,2.162.011,4.323.01,6.485,0,.967-.423,1.268-1.343.957a12.45,12.45,0,0,1-3.367-1.617,3.641,3.641,0,0,1-1.805-3.012,3.449,3.449,0,0,1,.884-2.122,9.171,9.171,0,0,1,1.32-1.04.838.838,0,0,1,1.3.174c.178.623.11.819-.434,1.177a4.647,4.647,0,0,0-1.015.827,1.42,1.42,0,0,0,.013,2.1,6.973,6.973,0,0,0,2.6,1.623c.2.085.239-.005.238-.187q-.016-3.052-.024-6.1c.007-.14.021-.281.021-.421q0-10.783,0-21.566c0-.078,0-.157,0-.235a.242.242,0,0,0-.183-.278,12.426,12.426,0,0,1-3.125-1.593V762q0,10.242,0,20.485c0,.728-.142.9-.845,1.061-.647-.218-.758-.368-.758-1.054,0-7.819.016-15.638-.015-23.456a3.781,3.781,0,0,1,1.642-3.241,14.793,14.793,0,0,1,5.22-2.247,54.09,54.09,0,0,1,9.543-1.5,94.27,94.27,0,0,1,12.308-.192,57.033,57.033,0,0,1,13.581,1.978,13.274,13.274,0,0,1,4.143,1.934,5.022,5.022,0,0,1,1.22,1.227,2.625,2.625,0,0,1,.069,3.039c-.121.2-.262.387-.394.58a9.549,9.549,0,0,1-3.7,2.315.562.562,0,0,0-.427.64c.012,6.619.029,13.239-.016,19.858-.006.9.163,1.416,1.093,1.659.7.182.775.446.669,1.172-.5.756-1.11.349-1.737.116,0,1.8,0,3.541,0,5.285,0,.246.132.2.27.142a7.61,7.61,0,0,0,2.44-1.446,1.691,1.691,0,0,0,.6-1.131,13.07,13.07,0,0,0-.016-1.917c.011-.186.032-.372.032-.558q0-10.82,0-21.639C427.776,764.337,427.882,764.2,428.574,764Zm-19.286,19.161a7.512,7.512,0,0,0-.019-1.721,3.5,3.5,0,0,0-2.048-2.9,3.929,3.929,0,0,0-2.354-.441,3.844,3.844,0,0,0-3.568,3.938c0,.165-.015.308.229.3,1.548-.036,3.1-.063,4.645-.093,1.009.121,1.1.18,1.245.844-.16.623-.37.789-1.024.8-1.426.015-2.852.022-4.278.04-.891.011-.884.017-.824.913.013.2.065.275.27.275q3.738-.007,7.476,0c.2,0,.286-.051.28-.262C409.3,784.287,409.3,783.725,409.288,783.162Z" transform="translate(0 0)" fill="#030304"/>
    <path id="Trazado_123748" data-name="Trazado 123748" d="M404.325,790.3c-.213-.6-.382-.733-1-.676a50.232,50.232,0,0,0-8.143,1.351c-.424.111-.457-.011-.456-.373q.012-10.366.006-20.732c0-.939-.057-1.016-.928-1.318a11.52,11.52,0,0,1-2.795-1.307c-1.576-1.08-1.594-2.271-.024-3.374a13.306,13.306,0,0,1,4.307-1.794,53.437,53.437,0,0,1,9.87-1.526,90.814,90.814,0,0,1,10.758-.193c.109,0,.218.02.327.03q.143,2.444.285,4.888a3.9,3.9,0,0,0,.08,4.485c.143.208-.006.268-.113.366a4.9,4.9,0,0,0-1.357,2.1.854.854,0,0,0,.111.963.883.883,0,0,0,.994.193c-.03.8-.214,1.586-.19,2.389l-.8-.013c-1.109-.016-2.219-.04-3.328-.044a.8.8,0,1,0,0,1.6c1.281.012,2.563,0,3.841.1-.125.813-.226,1.631-.381,2.438a39.042,39.042,0,0,1-.847,3.965,6.579,6.579,0,0,0-3.923-.178,5.269,5.269,0,0,0-3.961,5.146c-.013.469-.015.938-.022,1.408Zm6.689-22.29c0-1.128.008-2.255,0-3.383-.006-.628-.312-.935-.929-.919a87.018,87.018,0,0,0-9.132.662c-.787.1-.969.338-.969,1.149q0,3.148,0,6.3c0,1.026.28,1.287,1.314,1.152a86.492,86.492,0,0,1,8.757-.638c.688-.02.956-.286.961-.983C411.019,770.237,411.014,769.125,411.014,768.013ZM399.3,782.98a2.834,2.834,0,1,0,2.819-2.845A2.824,2.824,0,0,0,399.3,782.98Zm8.13-7.151c-.933.061-1.777.1-2.619.173-1.388.112-2.775.233-4.151.451a.757.757,0,0,0-.662.87.774.774,0,0,0,.895.7c2.173-.278,4.355-.456,6.542-.59.573-.035.858-.364.818-.866A.762.762,0,0,0,407.427,775.829Z" transform="translate(-6.963 -6.935)" fill="#a2f2f6"/>
    <path id="Trazado_123749" data-name="Trazado 123749" d="M612.17,824.469c.106-.726.03-.99-.669-1.172-.93-.242-1.1-.757-1.093-1.659.045-6.619.028-13.239.016-19.858a.562.562,0,0,1,.427-.64,9.548,9.548,0,0,0,3.7-2.314q0,1.695.008,3.39c-.691.194-.8.336-.8,1.1q0,10.82,0,21.639c0,.186-.021.372-.032.558A7.109,7.109,0,0,0,612.17,824.469Z" transform="translate(-185.985 -38.215)" fill="#a0eef2"/>
    <path id="Trazado_123750" data-name="Trazado 123750" d="M385.309,825.255c.7-.158.845-.333.845-1.061q0-10.242,0-20.485v-.572a12.425,12.425,0,0,0,3.125,1.593.242.242,0,0,1,.183.278c0,.078,0,.157,0,.235q0,10.783,0,21.566c0,.14-.014.28-.021.421l-1.382.566a.838.838,0,0,0-1.3-.174,9.159,9.159,0,0,0-1.32,1.04c-.18-.118-.126-.3-.127-.468C385.306,827.214,385.308,826.234,385.309,825.255Z" transform="translate(-3.302 -41.713)" fill="#bdf8fb"/>
    <path id="Trazado_123751" data-name="Trazado 123751" d="M499.968,942.549c-.659.152-.826.355-.828,1.033,0,1.329,0,2.659,0,3.988,0,.589-.282.911-.83.911-2.894,0-5.787-.006-8.681-.012q0-2.936,0-5.873a1.6,1.6,0,0,1,1.628-1.637q4.347-.005,8.694,0Q499.96,941.757,499.968,942.549Zm-4.951.839a.753.753,0,0,0-.764-.821c-.642-.021-1.285-.019-1.927,0a.774.774,0,0,0-.8.757.755.755,0,0,0,.671.82c.23.034.279.116.274.322-.01.485-.021.972.007,1.457a.775.775,0,0,0,.836.767.749.749,0,0,0,.753-.792c.016-.454.012-.909,0-1.363,0-.225.008-.364.307-.394A.694.694,0,0,0,495.018,943.388Z" transform="translate(-87.966 -153.562)" fill="#86aaf6"/>
    <path id="Trazado_123752" data-name="Trazado 123752" d="M490.36,934.846q-4.347,0-8.694,0a1.6,1.6,0,0,0-1.628,1.637q0,2.936,0,5.873c-.407.006-.813.018-1.22.017-.718,0-1-.274-1-.992-.007-1.456,0-2.911,0-4.367,0-.61,0-1.221,0-1.831.006-.758.265-1.018,1.018-1.019q4.7,0,9.395,0c.672,0,.872-.142,1.086-.737A1.6,1.6,0,0,1,490.36,934.846Z" transform="translate(-78.376 -147.444)" fill="#9eb9f5"/>
    <path id="Trazado_123753" data-name="Trazado 123753" d="M521.048,784.281a39.071,39.071,0,0,0,.846-3.965c.155-.807.256-1.625.381-2.438.485.011.97.012,1.454.036,2.143.106,4.28.292,6.408.574a.756.756,0,0,0,.9-.679.735.735,0,0,0-.672-.9c-.416-.074-.836-.12-1.256-.17-2.178-.259-4.365-.392-6.555-.5-.024-.8.16-1.59.19-2.389.265-.155.334-.443.469-.687a24.436,24.436,0,0,1,3.339.265c.971.122,1.92.358,2.886.5a.794.794,0,0,1,.04.132c.084.684.378.97.929.9.495-.063.726-.453.67-1.1a4.731,4.731,0,0,0-1.447-3.118c-.275-.263-.307-.409-.1-.752a3.866,3.866,0,0,0-3.811-5.866,4,4,0,0,0-2.693,1.623q-.142-2.444-.285-4.888c1.584-.005,3.16.144,4.733.291a50.062,50.062,0,0,1,7.958,1.3,16.241,16.241,0,0,1,4.19,1.6,4.188,4.188,0,0,1,1.226,1.009,1.429,1.429,0,0,1,0,1.929,4.481,4.481,0,0,1-1.439,1.112,13.179,13.179,0,0,1-2.243.943c-.724.237-.862.428-.862,1.189q0,10.385.008,20.769c0,.429-.051.548-.525.425A55.289,55.289,0,0,0,525.4,789.9c-.984-.064-.972-.05-1.048-1a5.119,5.119,0,0,0-3.066-4.491C521.207,784.374,521.128,784.325,521.048,784.281Zm4.752-2.838c-.6-.016-.926.238-.976.712a.769.769,0,0,0,.72.876c1.794.164,3.582.367,5.362.648a.762.762,0,0,0,.913-.67.75.75,0,0,0-.662-.91C529.365,781.793,527.559,781.6,525.8,781.442Z" transform="translate(-113.466 -7.4)" fill="#87edf5"/>
    <path id="Trazado_123754" data-name="Trazado 123754" d="M492.572,895.667c-1.548.03-3.1.057-4.644.093-.243.006-.226-.137-.229-.3a3.844,3.844,0,0,1,3.568-3.938,3.93,3.93,0,0,1,2.354.441Z" transform="translate(-86.401 -113.423)" fill="#a2f1f5"/>
    <path id="Trazado_123755" data-name="Trazado 123755" d="M612.271,934.9a7.105,7.105,0,0,1,1.557,1.049,13.082,13.082,0,0,1,.016,1.917,1.692,1.692,0,0,1-.6,1.131,7.613,7.613,0,0,1-2.44,1.446c-.138.059-.271.1-.27-.142,0-1.745,0-3.489,0-5.285C611.161,935.245,611.773,935.652,612.271,934.9Z" transform="translate(-186.086 -148.642)" fill="#baf5f8"/>
    <path id="Trazado_123756" data-name="Trazado 123756" d="M391.72,931.542l1.383-.566q.011,3.052.024,6.1c0,.182-.042.272-.238.188a6.973,6.973,0,0,1-2.6-1.623,1.42,1.42,0,0,1-.013-2.1,4.647,4.647,0,0,1,1.015-.827C391.83,932.361,391.9,932.165,391.72,931.542Z" transform="translate(-6.964 -145.461)" fill="#defafb"/>
    <path id="Trazado_123757" data-name="Trazado 123757" d="M495.563,918.166c.009.563.012,1.126.029,1.688.006.211-.084.262-.28.262q-3.738-.007-7.476,0c-.205,0-.257-.077-.27-.275-.06-.9-.067-.9.824-.913,1.426-.018,2.852-.026,4.278-.04.654-.007.864-.172,1.024-.8A13.143,13.143,0,0,0,495.563,918.166Z" transform="translate(-86.275 -135.004)" fill="#eff1f2"/>
    <path id="Trazado_123758" data-name="Trazado 123758" d="M516.678,898.569a13.144,13.144,0,0,1-1.871-.075c-.148-.664-.237-.723-1.246-.844l1.049-3.706a3.5,3.5,0,0,1,2.048,2.9A7.523,7.523,0,0,1,516.678,898.569Z" transform="translate(-107.39 -115.407)" fill="#87ecf3"/>
    <path id="Trazado_123759" data-name="Trazado 123759" d="M454.8,782.772c0,1.112,0,2.224,0,3.336,0,.7-.273.964-.961.984a86.44,86.44,0,0,0-8.757.638c-1.034.135-1.313-.126-1.313-1.152q0-3.148,0-6.3c0-.811.182-1.046.969-1.149a86.986,86.986,0,0,1,9.132-.662c.617-.016.923.291.929.919C454.8,780.517,454.8,781.644,454.8,782.772Zm-9.429.6c0,.751.027,1.5-.011,2.253-.021.416.144.456.483.406.51-.075,1.025-.118,1.539-.171,1.823-.187,3.652-.269,5.482-.347.217-.009.336-.032.334-.3-.013-1.612-.009-3.224,0-4.836,0-.2-.048-.272-.261-.267-2.427.061-4.844.264-7.257.517-.272.029-.314.162-.31.4C445.376,781.807,445.368,782.59,445.368,783.372Z" transform="translate(-50.745 -21.694)" fill="#030304"/>
    <path id="Trazado_123760" data-name="Trazado 123760" d="M525.354,787.078c-.135.244-.2.532-.469.687a.883.883,0,0,1-.995-.193.854.854,0,0,1-.111-.963,4.9,4.9,0,0,1,1.357-2.1c.108-.1.256-.158.113-.366a3.9,3.9,0,0,1-.08-4.485,4,4,0,0,1,2.693-1.623,3.866,3.866,0,0,1,3.811,5.866c-.208.343-.177.489.1.752a4.732,4.732,0,0,1,1.447,3.118c.056.647-.175,1.037-.67,1.1-.551.07-.846-.215-.93-.9a.8.8,0,0,0-.04-.133,3.035,3.035,0,0,0-1.628-2.57c-.833-.49-.888-1.007-.15-1.621a2.274,2.274,0,1,0-2.819.008c.716.584.667,1.14-.132,1.6A2.918,2.918,0,0,0,525.354,787.078Z" transform="translate(-115.606 -21.314)" fill="#020404"/>
    <path id="Trazado_123761" data-name="Trazado 123761" d="M507.578,842.249c2.19.109,4.377.242,6.555.5.419.05.84.1,1.256.17a.735.735,0,0,1,.672.9.756.756,0,0,1-.9.679c-2.128-.282-4.264-.468-6.408-.574-.484-.024-.97-.025-1.455-.036-1.279-.1-2.56-.085-3.841-.1a.8.8,0,1,1,0-1.6c1.11,0,2.219.028,3.328.044Z" transform="translate(-98.487 -73.407)" fill="#020404"/>
    <path id="Trazado_123762" data-name="Trazado 123762" d="M440.132,868.471a2.834,2.834,0,1,1,2.823,2.835A2.834,2.834,0,0,1,440.132,868.471Zm4.064.013a1.23,1.23,0,1,0-2.459-.008,1.229,1.229,0,0,0,2.459.008Z" transform="translate(-47.799 -92.426)" fill="#020404"/>
    <path id="Trazado_123763" data-name="Trazado 123763" d="M451.234,842.774a.762.762,0,0,1,.822.736c.04.5-.245.831-.818.866-2.186.134-4.368.312-6.542.59a.774.774,0,0,1-.895-.7.757.757,0,0,1,.662-.87c1.376-.218,2.763-.339,4.151-.451C449.458,842.879,450.3,842.835,451.234,842.774Z" transform="translate(-50.771 -73.881)" fill="#030404"/>
    <path id="Trazado_123764" data-name="Trazado 123764" d="M503.183,950.249a.694.694,0,0,1-.641.752c-.3.03-.311.169-.307.394.008.454.012.909,0,1.363a.749.749,0,0,1-.753.792.775.775,0,0,1-.836-.767c-.028-.484-.016-.971-.007-1.457,0-.206-.045-.288-.274-.322a.755.755,0,0,1-.672-.82.774.774,0,0,1,.8-.757c.642-.018,1.286-.02,1.927,0A.753.753,0,0,1,503.183,950.249Z" transform="translate(-96.131 -160.423)" fill="#020404"/>
    <path id="Trazado_123765" data-name="Trazado 123765" d="M532.544,793.946a2.918,2.918,0,0,1,1.5-1.826c.8-.456.847-1.012.132-1.6a2.272,2.272,0,1,1,2.819-.008c-.738.614-.683,1.131.15,1.621a3.034,3.034,0,0,1,1.628,2.57c-.967-.137-1.915-.374-2.886-.5A24.446,24.446,0,0,0,532.544,793.946Z" transform="translate(-122.795 -28.181)" fill="#bcf7fa"/>
    <path id="Trazado_123766" data-name="Trazado 123766" d="M542.038,870.094c1.759.159,3.565.351,5.356.657a.75.75,0,0,1,.662.91.763.763,0,0,1-.913.67c-1.78-.281-3.568-.484-5.362-.648a.769.769,0,0,1-.72-.876C541.112,870.332,541.441,870.078,542.038,870.094Z" transform="translate(-129.704 -96.051)" fill="#030404"/>
    <path id="Trazado_123767" data-name="Trazado 123767" d="M452.225,790.427c0-.783.008-1.565,0-2.348,0-.238.038-.371.31-.4,2.413-.253,4.83-.455,7.257-.517.214-.005.262.069.261.266-.006,1.612-.01,3.224,0,4.836,0,.271-.117.294-.334.3-1.829.079-3.659.161-5.482.347-.513.053-1.028.1-1.539.171-.34.05-.5.01-.483-.406C452.252,791.931,452.225,791.179,452.225,790.427Z" transform="translate(-57.602 -28.749)" fill="#defafb"/>
    <path id="Trazado_123768" data-name="Trazado 123768" d="M451.11,875.394a1.229,1.229,0,0,1-2.459-.008,1.23,1.23,0,1,1,2.459.008Z" transform="translate(-54.712 -99.336)" fill="#defafb"/>
  </g>
</svg>
