<svg xmlns="http://www.w3.org/2000/svg" xmlns:xlink="http://www.w3.org/1999/xlink" width="107" height="107" viewBox="0 0 107 107">
  <defs>
    <clipPath id="clip-path">
      <rect id="Rectángulo_36655" data-name="Rectángulo 36655" width="107" height="107" transform="translate(0 0.001)" fill="#fff" stroke="#707070" stroke-width="1"/>
    </clipPath>
  </defs>
  <g id="Grupo_85885" data-name="Grupo 85885" transform="translate(0 -0.001)" clip-path="url(#clip-path)">
    <g id="Grupo_85897" data-name="Grupo 85897" transform="translate(5.189 5.201)">
      <path id="Trazado_127652" data-name="Trazado 127652" d="M3874,24.876a14.177,14.177,0,0,1,3.162,2.061c.246.183.44.439.769.492-.713,1.1-.71,1.994.008,2.712s1.614.722,2.712.008l2.71,3.85c-1.185.9-1.353,1.56-.7,3.008a22.26,22.26,0,0,1,1.77,12.79,23.024,23.024,0,1,1-13.43-24.41C3872.485,26.046,3872.99,25.96,3874,24.876Zm-12.606,8.8a25.327,25.327,0,0,0-17.165,6.9c-1.249,1.194-1.469,2.254-.656,3.159.853.948,1.908.783,3.25-.405,6.6-5.839,14.1-7.311,22.426-4.487a20.592,20.592,0,0,1,7.582,4.792,1.9,1.9,0,0,0,2.962.041,1.942,1.942,0,0,0-.358-2.763A25.424,25.424,0,0,0,3861.389,33.676Zm13.26,14.419a2.4,2.4,0,0,0-.933-1.722,17.347,17.347,0,0,0-17.332-3.96,16.436,16.436,0,0,0-7.11,4.272,1.825,1.825,0,0,0-.065,2.695,1.854,1.854,0,0,0,2.631.051c.195-.159.369-.341.556-.51a13.816,13.816,0,0,1,18.552.04,7.032,7.032,0,0,0,.789.67,1.746,1.746,0,0,0,1.955.054A1.911,1.911,0,0,0,3874.65,48.094Zm-13.093,1.338a9.683,9.683,0,0,0-6.517,2.6,1.9,1.9,0,1,0,2.5,2.824c2.671-2.231,5.562-2.222,8.266.029a1.9,1.9,0,0,0,2.773,0,1.933,1.933,0,0,0-.279-2.832A9.745,9.745,0,0,0,3861.557,49.432Zm-1.795,9.729a1.888,1.888,0,0,0,3.776.008,1.888,1.888,0,0,0-3.776-.008Z" transform="translate(-3813.339 1.874)" fill="#9cd2ee"/>
      <path id="Trazado_127653" data-name="Trazado 127653" d="M3821.966,109.62c0,.095.008.189,0,.283a2.922,2.922,0,0,0,1.532,3.322c2.114,1.216,2.739,4.028,1.883,6.353a5.645,5.645,0,0,1-10.788-.591,5.524,5.524,0,0,1,2.629-6.207,1.574,1.574,0,0,0,.994-1.7c-.083-1.791-.03-1.752-1.808-1.949a33.734,33.734,0,0,1-18.547-8.009c-.573-.488-.85-.429-1.33.069-1.571,1.629-3.179,3.222-4.8,4.8a.89.89,0,0,0-.247,1.184,6.778,6.778,0,1,1-7.759-3.971,6.273,6.273,0,0,1,4.232.406A.764.764,0,0,0,3789,103.4c1.672-1.706,3.358-3.4,5.072-5.063.4-.391.322-.6,0-.979a33.542,33.542,0,0,1-8.186-19.534c-.058-.727-.242-1.119-1.036-.952a.552.552,0,0,1-.188,0A2.294,2.294,0,0,0,3782,78.207a5.321,5.321,0,0,1-6.366,2.136,5.643,5.643,0,0,1,.463-10.844,5.506,5.506,0,0,1,6.24,2.74,1.362,1.362,0,0,0,1.489.881c1.159-.073,2.326-.026,3.489-.017,1.482.012,2.167.7,2.2,2.2a30.66,30.66,0,0,0,29.764,30.229c2.2.079,2.691.546,2.691,2.765Q3821.967,108.959,3821.966,109.62Zm-33.714.207a3,3,0,1,0-6.006,0,3,3,0,0,0,6.006,0ZM3777.4,73.105a1.882,1.882,0,1,0,1.912,1.9A1.9,1.9,0,0,0,3777.4,73.105Zm44.562,44.511a1.882,1.882,0,1,0-1.918,1.895A1.905,1.905,0,0,0,3821.96,117.617Z" transform="translate(-3771.766 -26.688)" fill="#030303"/>
      <path id="Trazado_127654" data-name="Trazado 127654" d="M3926.241,2.948c.819.219,1.36-.145,1.872-1.064a5.51,5.51,0,0,1,6.437-2.467,5.658,5.658,0,0,1-.273,10.9,5.513,5.513,0,0,1-6.31-2.766,1.3,1.3,0,0,0-1.417-.842c-1.16.064-2.326.023-3.489.016-1.549-.009-2.193-.682-2.259-2.245q-.781-18.44-17.112-27.058a28.557,28.557,0,0,0-12.873-3.139c-1.877-.04-2.463-.629-2.465-2.511,0-1.163-.03-2.327.013-3.489a.968.968,0,0,0-.655-1.045,5.592,5.592,0,0,1-2.941-6.49,5.68,5.68,0,0,1,5.58-4.208,5.694,5.694,0,0,1,5.349,4.148,5.572,5.572,0,0,1-2.634,6.378,1.448,1.448,0,0,0-.961,1.535c.078,1.917.029,1.886,1.94,2.108a33.822,33.822,0,0,1,18.373,7.961c.586.5.872.513,1.4-.049,1.535-1.619,3.131-3.182,4.727-4.742a.945.945,0,0,0,.271-1.261,6.776,6.776,0,0,1,4.064-9.033,6.789,6.789,0,0,1,8.708,4.6,6.778,6.778,0,0,1-5.124,8.478,6.248,6.248,0,0,1-4.14-.459.707.707,0,0,0-.963.182c-1.7,1.727-3.4,3.445-5.135,5.134-.368.36-.31.558-.01.906a33.965,33.965,0,0,1,8.1,18.116c.037.281.07.561.09.843C3924.519,2.948,3924.518,2.948,3926.241,2.948Zm-1.155-29.93a3,3,0,0,0,2.99-3,3.026,3.026,0,0,0-2.982-3.013,2.992,2.992,0,0,0-3.027,3.051A2.986,2.986,0,0,0,3925.086-26.982Zm-32.963-10.837a1.9,1.9,0,0,0-1.849-1.868,1.9,1.9,0,0,0-1.916,1.894,1.9,1.9,0,0,0,1.847,1.871A1.9,1.9,0,0,0,3892.123-37.819Zm42.65,42.647a1.883,1.883,0,1,0-1.922,1.89A1.9,1.9,0,0,0,3934.773,4.828Z" transform="translate(-3841.929 43.464)" fill="#030303"/>
      <path id="Trazado_127655" data-name="Trazado 127655" d="M3867.839,18.644c-1,1.084-1.51,1.17-3,.513a23.007,23.007,0,1,0,13.43,24.41,22.254,22.254,0,0,0-1.769-12.79c-.65-1.448-.482-2.109.7-3.008,1.511-.286,2.1.025,2.737,1.437a26.792,26.792,0,1,1-28.012-15.569,26.312,26.312,0,0,1,14.622,2.152C3867.956,16.428,3868.27,17.123,3867.839,18.644Z" transform="translate(-3807.183 8.106)" fill="#020303"/>
      <path id="Trazado_127656" data-name="Trazado 127656" d="M3803.027-19.176a6.147,6.147,0,0,1-.576,2.909.753.753,0,0,0,.209,1.036c1.793,1.76,3.56,3.546,5.338,5.322a2.364,2.364,0,0,1,.8,1.248,1.793,1.793,0,0,1-.895,2.008,1.812,1.812,0,0,1-2.325-.338c-1.788-1.766-3.578-3.529-5.328-5.332a1.2,1.2,0,0,0-1.573-.346,6.755,6.755,0,0,1-8.884-4.2,6.788,6.788,0,0,1,4.786-8.672,6.8,6.8,0,0,1,8.337,5.225A9.772,9.772,0,0,1,3803.027-19.176Zm-6.788,3.2a2.968,2.968,0,0,0,3.007-2.962,2.977,2.977,0,0,0-2.936-3.036,2.982,2.982,0,0,0-3.059,3.011A2.978,2.978,0,0,0,3796.24-15.975Z" transform="translate(-3782.766 32.454)" fill="#030303"/>
      <path id="Trazado_127657" data-name="Trazado 127657" d="M3977.726,155.8a6.717,6.717,0,0,1-4.29,6.2,6.545,6.545,0,0,1-7.292-1.523,6.612,6.612,0,0,1-1.448-7.382.937.937,0,0,0-.281-1.257c-1.814-1.783-3.606-3.59-5.4-5.391a1.851,1.851,0,0,1-.433-2.314,1.788,1.788,0,0,1,1.963-.983,2.322,2.322,0,0,1,1.337.816c1.754,1.755,3.523,3.5,5.255,5.272a.889.889,0,0,0,1.186.22A6.784,6.784,0,0,1,3977.726,155.8Zm-9.781-.107a3,3,0,1,0,2.976-2.992A2.987,2.987,0,0,0,3967.944,155.688Z" transform="translate(-3887.803 -72.576)" fill="#030303"/>
      <path id="Trazado_127658" data-name="Trazado 127658" d="M3944.439,35.979c-1.1.714-1.993.711-2.712-.008s-.721-1.612-.008-2.712c1.115-.664,2.01-.634,2.7.089C3945.078,34.041,3945.085,34.9,3944.439,35.979Z" transform="translate(-3877.131 -3.955)" fill="#040505"/>
      <path id="Trazado_127659" data-name="Trazado 127659" d="M3868.75,50.563a25.425,25.425,0,0,1,18.04,7.234,1.941,1.941,0,0,1,.358,2.763,1.9,1.9,0,0,1-2.961-.041,20.6,20.6,0,0,0-7.581-4.792c-8.327-2.824-15.825-1.352-22.426,4.487-1.343,1.188-2.4,1.354-3.25.405-.813-.9-.593-1.965.656-3.159A25.327,25.327,0,0,1,3868.75,50.563Z" transform="translate(-3820.7 -15.013)" fill="#020303"/>
      <path id="Trazado_127660" data-name="Trazado 127660" d="M3891.157,78a1.912,1.912,0,0,1-.956,1.591,1.746,1.746,0,0,1-1.955-.054,7.055,7.055,0,0,1-.789-.67,13.816,13.816,0,0,0-18.552-.04c-.187.168-.361.35-.556.51a1.854,1.854,0,0,1-2.631-.051,1.826,1.826,0,0,1,.065-2.695,16.437,16.437,0,0,1,7.11-4.272,17.347,17.347,0,0,1,17.332,3.96A2.4,2.4,0,0,1,3891.157,78Z" transform="translate(-3829.847 -28.032)" fill="#020304"/>
      <path id="Trazado_127661" data-name="Trazado 127661" d="M3887.239,92.238a9.747,9.747,0,0,1,6.741,2.631,1.933,1.933,0,0,1,.279,2.832,1.9,1.9,0,0,1-2.773,0c-2.7-2.25-5.6-2.26-8.265-.029a1.9,1.9,0,1,1-2.5-2.824A9.682,9.682,0,0,1,3887.239,92.238Z" transform="translate(-3839.021 -40.932)" fill="#020303"/>
      <path id="Trazado_127662" data-name="Trazado 127662" d="M3894.552,114.9a1.888,1.888,0,0,1,3.776.008,1.888,1.888,0,0,1-3.776-.008Z" transform="translate(-3848.129 -53.87)" fill="#030405"/>
      <path id="Trazado_127663" data-name="Trazado 127663" d="M3805.489,171.461a3,3,0,1,1-2.955-3.021A3.006,3.006,0,0,1,3805.489,171.461Z" transform="translate(-3789.004 -88.322)" fill="#a9d3c0"/>
      <path id="Trazado_127664" data-name="Trazado 127664" d="M3783.613,79.306a1.882,1.882,0,1,1-1.853,1.863A1.9,1.9,0,0,1,3783.613,79.306Z" transform="translate(-3777.982 -32.889)" fill="#e4c57c"/>
      <path id="Trazado_127665" data-name="Trazado 127665" d="M3898.333,193.958a1.882,1.882,0,1,1-1.848-1.87A1.9,1.9,0,0,1,3898.333,193.958Z" transform="translate(-3848.139 -103.029)" fill="#e4c57c"/>
      <path id="Trazado_127666" data-name="Trazado 127666" d="M3986.744-9.757a2.985,2.985,0,0,1-3.019-2.959,2.991,2.991,0,0,1,3.026-3.051,3.025,3.025,0,0,1,2.983,3.013A3,3,0,0,1,3986.744-9.757Z" transform="translate(-3903.587 26.238)" fill="#a9d3c0"/>
      <path id="Trazado_127667" data-name="Trazado 127667" d="M4011.139,81.18a1.883,1.883,0,1,1-1.843-1.875A1.9,1.9,0,0,1,4011.139,81.18Z" transform="translate(-3918.295 -32.888)" fill="#e4c57c"/>
      <path id="Trazado_127668" data-name="Trazado 127668" d="M3802.489-9.747a2.978,2.978,0,0,1-2.988-2.987,2.982,2.982,0,0,1,3.059-3.011,2.977,2.977,0,0,1,2.936,3.036A2.969,2.969,0,0,1,3802.489-9.747Z" transform="translate(-3789.015 26.226)" fill="#d48193"/>
      <path id="Trazado_127669" data-name="Trazado 127669" d="M3983.734,171.439a3,3,0,1,1,6,.056,3,3,0,0,1-6-.056Z" transform="translate(-3903.593 -88.327)" fill="#d58193"/>
    </g>
  </g>
</svg>
