<svg xmlns="http://www.w3.org/2000/svg" xmlns:xlink="http://www.w3.org/1999/xlink" width="85" height="85" viewBox="0 0 85 85">
  <defs>
    <clipPath id="clip-path">
      <rect id="Rectángulo_34035" data-name="Rectángulo 34035" width="85" height="85" transform="translate(285 14109)" fill="#2ff980" stroke="#707070" stroke-width="1"/>
    </clipPath>
  </defs>
  <g id="Enmascarar_grupo_80" data-name="Enmascarar grupo 80" transform="translate(-285 -14109)" clip-path="url(#clip-path)">
    <g id="Grupo_85853" data-name="Grupo 85853" transform="translate(289.453 14114.718)">
      <path id="Trazado_127422" data-name="Trazado 127422" d="M-141.743-491.125c.051-1.037.051-1.06,1.133-1.032a35.184,35.184,0,0,1,5.4.129,5.461,5.461,0,0,1,4.477,5.266c.041,2.693.006,5.387.021,8.081,0,.364-.064.558-.477.5a3.33,3.33,0,0,0-.59.021,1.169,1.169,0,0,0-.294-.024c-.694.122-.995-.115-.888-.858.063-.437-.026-.893.021-1.334.057-.542-.163-.648-.666-.645-3.664.021-7.327.011-10.991.011-3.565,0-7.129.015-10.694-.015-.6-.005-.759.181-.725.749.052.888.033,1.78.045,2.67a2.658,2.658,0,0,0-.032.294c0,7.247.008,14.495-.018,21.742,0,.687.367.6.789.6q10.759,0,21.519.013c.609,0,.781-.138.778-.767-.025-6.332-.015-12.664-.015-19,0-1.209,0-1.209,1.15-1.269,1.081.058,1.081.058,1.081,1.178,0,9.8-.014,19.6.011,29.407a5.772,5.772,0,0,1-2.411,5.058.655.655,0,0,0-.28.623q.007,5.012,0,10.025c0,.38.09.527.492.5.592-.034,1.188,0,1.782-.011.246,0,.421,0,.416.341a53.038,53.038,0,0,1-.1,5.413,5.446,5.446,0,0,1-5.665,4.809q-22.426.006-44.851,0-9.765,0-19.53,0a5.594,5.594,0,0,1-5.917-5.9c0-1.337.023-2.674-.012-4.01-.013-.5.08-.722.631-.661.465.052.943-.024,1.409.02.512.049.67-.1.662-.639-.032-2.252-.013-4.5-.013-6.758,0-2.822.027-5.644-.019-8.465-.012-.73.145-1.058.908-.908a1.052,1.052,0,0,0,.294-.026c1.049.069,1.049.069,1.049,1.144,0,5,.008,10-.012,15,0,.514.12.678.65.659,1.137-.042,2.276-.013,3.415-.013s1.131,0,1.221,1.054a1.348,1.348,0,0,0-.035.366c.126.7-.19.851-.845.832-1.632-.047-3.267-.031-4.9-.008-.707.01-1.65-.317-2.054.138-.349.393-.112,1.316-.113,2,0,2.678,1.269,3.946,3.954,3.946h63.713c.2,0,.4,0,.594,0a3.359,3.359,0,0,0,3.323-3.31c.02-.717-.033-1.438.017-2.153.038-.536-.149-.642-.657-.641q-11.547.025-23.094.006a.767.767,0,0,0-.809.445,2.993,2.993,0,0,1-2.73,1.63q-8.5.029-17,0a3.011,3.011,0,0,1-2.744-1.608.827.827,0,0,0-.869-.47q-6.126.016-12.252.006c-1.241,0-1.241,0-1.338-1.177.088-1.059.088-1.059,1.155-1.059,4.8,0,9.6.01,14.4-.014.557,0,.708.132.689.69-.037,1.117.285,1.409,1.394,1.409q8.018,0,16.035,0c1.2,0,1.483-.261,1.464-1.491-.007-.5.146-.612.62-.606,1.88.026,3.761.01,5.642.01q8.352,0,16.7,0c.349,0,.731.13.718-.5-.042-2.1-.029-4.206-.037-6.308.009-.961.009-1.921.032-2.882.008-.331-.051-.473-.444-.455-.935.044-1.873.033-2.809.021-.324,0-.5.044-.483.434.035.96.027,1.921.036,2.881-.008.741-.07,1.487-.01,2.222.057.7-.132.9-.869.9q-23.107-.038-46.215-.019c-1.175,0-1.175,0-1.257-1.168.074-1.07.074-1.07,1.2-1.07q22.049,0,44.1.017c.724,0,.935-.211.768-.875.01-.89-.011-1.782.041-2.67.031-.532-.152-.654-.662-.651-3.366.022-6.733.01-10.1.012a6.592,6.592,0,0,1-1.762-.2,5.527,5.527,0,0,1-4.149-5.627q-.014-11.251-.006-22.5c0-1.158.151-1-1.04-1q-8.095-.008-16.189,0c-1.119,0-1.119,0-1.184-1.086.067-1.152.067-1.152,1.264-1.152h.444l13.33-.031c.984.012,1.969.016,2.953.038.316.007.434-.1.429-.426q-.022-1.441,0-2.883c0-.32-.112-.434-.43-.427-.984.023-1.969.025-2.954.036q-3.511-.014-7.022-.028c-1.121,0-1.121,0-1.189-1.065.074-1.165.074-1.165,1.252-1.165,3.215,0,6.431-.013,9.646.013.542,0,.711-.11.7-.685-.033-2.894-.02-5.788-.014-8.681a5.577,5.577,0,0,1,5.982-5.965q3.6,0,7.2,0c1.086,0,1.086,0,1.139,1.039-.062,1.19-.062,1.19-1.29,1.19-2.4,0-4.8-.006-7.2,0a3.338,3.338,0,0,0-3.6,3.614c-.005.816.035,1.634-.014,2.448-.032.535.148.647.657.643,3.314-.024,6.628-.012,9.941-.012,3.957,0,7.914-.008,11.87.011.479,0,.636-.115.613-.607-.041-.888,0-1.78-.014-2.67a3.346,3.346,0,0,0-3.426-3.423c-1.36-.018-2.72,0-4.08,0C-141.685-489.933-141.685-489.933-141.743-491.125Zm-2.733,38.413c-3.636,0-7.272.007-10.908-.009-.453,0-.645.074-.638.594.03,2.374,0,4.749.018,7.124a3.3,3.3,0,0,0,3.465,3.45q8.051.034,16.1,0a3.344,3.344,0,0,0,3.482-3.523c.01-2.325-.021-4.651.019-6.976.01-.586-.181-.676-.707-.673C-137.254-452.7-140.865-452.712-144.476-452.712Z" transform="translate(206.788 492.2)" fill="#020303"/>
      <path id="Trazado_127423" data-name="Trazado 127423" d="M-126.519-397.027c.008,2.1,0,4.206.037,6.308.012.632-.37.5-.718.5q-8.352,0-16.7,0c-1.881,0-3.762.015-5.642-.01-.474-.007-.628.107-.62.606.019,1.23-.265,1.491-1.464,1.491q-8.017,0-16.035,0c-1.109,0-1.431-.292-1.394-1.409.018-.558-.132-.693-.689-.69-4.8.024-9.6.014-14.4.014-1.067,0-1.067,0-1.155,1.059l-2.154-.005c-.09-1.054-.09-1.054-1.221-1.054s-2.278-.029-3.415.013c-.53.019-.652-.145-.65-.659.019-5,.012-10,.012-15,0-1.075,0-1.075-1.049-1.144q0-1.087,0-2.174c1.05-.063,1.05-.063,1.05-1.132q0-10.684,0-21.367c0-2.668,1.286-3.957,3.949-3.957H-164c1.065,0,1.065,0,1.137-1.061l2.168,0c.069,1.065.069,1.062,1.189,1.065q3.511.011,7.022.028,0,1.831,0,3.661l-13.33.031h-.444c-1.2,0-1.2,0-1.264,1.152l-2.174,0a1.108,1.108,0,0,1-.024-.294c.138-.733-.179-.879-.88-.876-5.913.03-11.827.022-17.74.008-.474,0-.689.056-.689.623q.026,18.371,0,36.743c0,.55.184.64.676.635,2.127-.025,4.255-.011,6.383-.011,1.186,0,1.186,0,1.27-1.167h2.163c.082,1.168.082,1.168,1.257,1.168q23.107,0,46.215.019c.737,0,.926-.2.869-.9-.06-.736,0-1.481.01-2.222Z" transform="translate(197.653 453.218)" fill="#d6ddea"/>
      <path id="Trazado_127424" data-name="Trazado 127424" d="M-12.024-441.563c-1.15.06-1.15.06-1.15,1.269,0,6.332-.01,12.664.015,19,0,.629-.169.769-.778.767q-10.759-.033-21.519-.013c-.422,0-.792.084-.789-.6.026-7.248.016-14.495.018-21.742a2.659,2.659,0,0,1,.032-.294l24.12-.007Q-12.05-442.376-12.024-441.563Zm-12.715,17.3a9.313,9.313,0,0,0,9.334-9.187,9.356,9.356,0,0,0-9.275-9.415A9.319,9.319,0,0,0-34-433.585,9.271,9.271,0,0,0-24.739-424.265Z" transform="translate(87.01 457.778)" fill="#528af5"/>
      <path id="Trazado_127425" data-name="Trazado 127425" d="M-21.972-488.588c.059,1.192.059,1.192,1.282,1.192,1.36,0,2.72-.013,4.08,0a3.346,3.346,0,0,1,3.426,3.423c.012.89-.027,1.782.014,2.67.023.493-.134.61-.613.607-3.957-.019-7.913-.011-11.87-.011-3.314,0-6.628-.012-9.941.012-.51,0-.689-.108-.657-.643.049-.813.009-1.631.014-2.448a3.338,3.338,0,0,1,3.6-3.614c2.4-.008,4.8,0,7.2,0,1.228,0,1.228,0,1.29-1.19Zm-2.717,3.423h-1.334c-1.765,0-1.751,0-1.7,1.749.013.4.139.5.513.491,1.259-.019,2.519-.007,3.778-.007,1.819,0,1.809,0,1.685-1.82-.022-.319-.109-.425-.428-.418C-23.009-485.152-23.849-485.164-24.688-485.165Zm7.408,1.116c-.035-.548.28-1.234-.823-1.145-1.409.115-1.416.027-1.416.924,0,1.337,0,1.337.9,1.337C-17.281-482.932-17.281-482.932-17.281-484.048Zm-14.89-.072c0,1.188,0,1.188.827,1.188,1.407,0,1.407,0,1.407-.821,0-1.412,0-1.412-.892-1.412C-32.171-485.165-32.171-485.165-32.171-484.12Z" transform="translate(87.016 489.663)" fill="#d6ddea"/>
      <path id="Trazado_127426" data-name="Trazado 127426" d="M-165.655-439.442c-.072,1.061-.072,1.061-1.137,1.061h-24.779c-2.663,0-3.949,1.289-3.949,3.957q0,10.684,0,21.367c0,1.068,0,1.068-1.05,1.132-1.182-.071-1.182-.071-1.182-1.3q0-10.653,0-21.307c0-3.774,2.322-6.082,6.118-6.082h24.721C-165.733-440.611-165.733-440.611-165.655-439.442Z" transform="translate(200.442 455.967)" fill="#020303"/>
      <path id="Trazado_127427" data-name="Trazado 127427" d="M-12.073-451.241l-24.12.007c-.011-.89.007-1.782-.045-2.67-.033-.568.122-.754.725-.749,3.564.03,7.129.015,10.694.015,3.663,0,7.327.01,10.991-.011.5,0,.723.1.666.645-.046.441.042.9-.021,1.334-.107.742.194.98.888.858a1.166,1.166,0,0,1,.294.023Z" transform="translate(87.008 465.83)" fill="#3c7af4"/>
      <path id="Trazado_127428" data-name="Trazado 127428" d="M-162.056-370.58h-2.163c-.076-1.067-.076-1.067-1.142-1.067-1.386,0-2.774-.043-4.157.019-.68.03-.8-.186-.8-.821q.032-13.957.016-27.914c0-.469.017-.939.026-1.408q16.746,0,33.492-.017c.613,0,.8.165.794.787-.021,6.337-.009,12.675-.016,19.012a9.378,9.378,0,0,0,1.433,5.348,8.506,8.506,0,0,0,7.144,4.109c3.81.091,7.624.025,11.436.027.167.665-.044.876-.768.875q-22.049-.034-44.1-.017C-161.982-371.65-161.982-371.65-162.056-370.58Zm20.635-19.97a10.076,10.076,0,0,0-9.887-10.139,10.1,10.1,0,0,0-10.216,9.891,10.1,10.1,0,0,0,9.967,10.216A10.078,10.078,0,0,0-141.421-390.55ZM-156-378.313c-1.087,0-1.087,0-1.088.982,0,1.247,0,1.251,1.09,1.246,1.26-.006,1.139.138,1.137-1.077C-154.866-378.453-154.717-378.3-156-378.313Zm5.6,1.109c0-1.108,0-1.115-.961-1.107-1.378.011-1.261-.174-1.267,1.022s0,1.209,1.13,1.2C-150.27-376.09-150.415-375.959-150.4-377.2Zm4.457.009c-.012-1.212.135-1.12-1.026-1.116-1.29.005-1.2-.167-1.2,1.012,0,1.214,0,1.218,1.121,1.213C-145.814-376.09-145.958-375.957-145.947-377.195Z" transform="translate(181.173 428.702)" fill="#bce8f0"/>
      <path id="Trazado_127429" data-name="Trazado 127429" d="M-191.474-277l2.154.005c.1,1.177.1,1.177,1.338,1.177q6.126,0,12.252-.006a.827.827,0,0,1,.869.47,3.011,3.011,0,0,0,2.744,1.608q8.5.024,17,0a2.993,2.993,0,0,0,2.73-1.63.767.767,0,0,1,.809-.445q11.547.012,23.094-.006c.508,0,.695.106.657.641-.05.714,0,1.435-.017,2.153a3.359,3.359,0,0,1-3.323,3.31c-.2.006-.4,0-.594,0h-63.713c-2.685,0-3.958-1.267-3.954-3.946,0-.689-.236-1.612.113-2,.4-.455,1.347-.128,2.054-.138,1.634-.022,3.268-.038,4.9.008.656.019.971-.131.845-.832A1.347,1.347,0,0,1-191.474-277Zm-1.607,5.352h1.407c1.674,0,1.656,0,1.61-1.655-.013-.466-.183-.589-.616-.582-1.259.02-2.518.007-3.777.007-1.666,0-1.651,0-1.572,1.692.02.427.177.554.578.544C-194.662-271.663-193.871-271.649-193.081-271.649Zm6.347,0c1.213-.013,1.118.143,1.114-1.021-.005-1.3.167-1.211-1-1.207-1.348.005-1.227-.171-1.225,1.055C-187.842-271.5-188-271.664-186.734-271.649Z" transform="translate(201.669 341.058)" fill="#cad2e2"/>
      <path id="Trazado_127430" data-name="Trazado 127430" d="M-116-383.015c-3.812,0-7.626.064-11.436-.027a8.506,8.506,0,0,1-7.144-4.109,9.378,9.378,0,0,1-1.433-5.348c.007-6.337-.006-12.674.016-19.012,0-.622-.182-.788-.794-.787q-16.746.028-33.492.017c-.009-.888.015-1.778-.04-2.663-.036-.58.137-.742.728-.739,5.06.025,10.12.014,15.18.014,1.124,0,1.124,0,1.191-1.081l2.174,0c.065,1.086.065,1.086,1.184,1.086q8.094,0,16.189,0c1.191,0,1.039-.154,1.04,1q.007,11.251.006,22.5a5.527,5.527,0,0,0,4.149,5.627,6.594,6.594,0,0,0,1.762.2c3.366,0,6.733.01,10.1-.013.51,0,.693.119.662.651C-116.009-384.8-115.989-383.905-116-383.015Z" transform="translate(181.18 439.209)" fill="#94d7e3"/>
      <path id="Trazado_127431" data-name="Trazado 127431" d="M-24.7-359.569c3.611,0,7.223.011,10.834-.012.526,0,.717.087.707.673-.04,2.325-.009,4.65-.019,6.976a3.344,3.344,0,0,1-3.482,3.523q-8.051.034-16.1,0a3.3,3.3,0,0,1-3.465-3.45c-.02-2.374.012-4.75-.018-7.124-.007-.52.185-.6.638-.594C-31.97-359.561-28.334-359.569-24.7-359.569Zm.014,2.23c-.964,0-1.928.011-2.892-.006-.333-.006-.484.062-.48.443q.026,2.892,0,5.784c0,.4.143.5.517.492,1.879-.016,3.757-.024,5.635,0,.487.007.564-.177.56-.6-.02-1.829-.031-3.659.005-5.487.011-.549-.184-.656-.677-.636C-22.9-357.313-23.794-357.339-24.684-357.338Z" transform="translate(87.009 399.057)" fill="#d5dce9"/>
      <path id="Trazado_127432" data-name="Trazado 127432" d="M-55.047-429.448q0-1.831,0-3.661c.985-.01,1.969-.013,2.954-.036.318-.007.435.107.43.427q-.021,1.441,0,2.883c.005.322-.114.433-.429.426C-53.078-429.432-54.062-429.436-55.047-429.448Z" transform="translate(100.216 450.724)" fill="#d6d6d7"/>
      <path id="Trazado_127433" data-name="Trazado 127433" d="M23.447-311.3H19.78c-.009-.961,0-1.922-.036-2.881-.014-.39.159-.438.483-.434.936.012,1.874.023,2.809-.021.393-.018.451.124.444.455C23.456-313.226,23.456-312.265,23.447-311.3Z" transform="translate(47.687 367.496)" fill="#d6d6d7"/>
      <path id="Trazado_127434" data-name="Trazado 127434" d="M-158.481-419.5c-.067,1.081-.067,1.081-1.191,1.081-5.06,0-10.12.01-15.18-.014-.592,0-.765.158-.728.739.055.885.031,1.775.04,2.663-.009.469-.026.939-.026,1.408q0,13.957-.016,27.914c0,.636.12.852.8.821,1.383-.062,2.771-.019,4.157-.019,1.066,0,1.066,0,1.142,1.067-.084,1.167-.084,1.167-1.27,1.167-2.128,0-4.256-.014-6.383.011-.492.006-.677-.085-.676-.635q.025-18.371,0-36.743c0-.566.214-.624.689-.623,5.913.014,11.827.022,17.74-.008.7,0,1.018.143.88.876A1.108,1.108,0,0,0-158.481-419.5Z" transform="translate(186.438 441.964)" fill="#030303"/>
      <path id="Trazado_127435" data-name="Trazado 127435" d="M-19.434-423.505a9.271,9.271,0,0,1-9.258-9.32,9.319,9.319,0,0,1,9.317-9.282,9.356,9.356,0,0,1,9.275,9.415A9.313,9.313,0,0,1-19.434-423.505Zm.044-2.238a7.064,7.064,0,0,0,7.056-7.085,7.117,7.117,0,0,0-7.12-7.042,7.076,7.076,0,0,0-7,7.143A7.031,7.031,0,0,0-19.391-425.743Z" transform="translate(81.705 457.018)" fill="#020303"/>
      <path id="Trazado_127436" data-name="Trazado 127436" d="M-4.586-477.1c.84,0,1.679.012,2.519-.006.319-.007.406.1.428.418.124,1.821.134,1.82-1.685,1.82-1.259,0-2.519-.012-3.778.007-.374.006-.5-.091-.513-.491-.055-1.749-.07-1.748,1.7-1.748Z" transform="translate(66.914 481.6)" fill="#020303"/>
      <path id="Trazado_127437" data-name="Trazado 127437" d="M22.2-476.056c0,1.117,0,1.117-1.337,1.116-.9,0-.9,0-.9-1.337,0-.9.007-.809,1.416-.924C22.483-477.29,22.168-476.6,22.2-476.056Z" transform="translate(47.532 481.671)" fill="#030403"/>
      <path id="Trazado_127438" data-name="Trazado 127438" d="M-22.537-476.044c0-1.045,0-1.045,1.342-1.044.893,0,.893,0,.892,1.412,0,.822,0,.822-1.407.821C-22.537-474.856-22.537-474.856-22.537-476.044Z" transform="translate(77.382 481.586)" fill="#030403"/>
      <path id="Trazado_127439" data-name="Trazado 127439" d="M-120.676-387.957a10.078,10.078,0,0,1-10.136,9.968,10.1,10.1,0,0,1-9.967-10.216,10.1,10.1,0,0,1,10.216-9.891A10.076,10.076,0,0,1-120.676-387.957Zm-2.248-.116a7.812,7.812,0,0,0-7.792-7.782,7.854,7.854,0,0,0-7.827,7.84,7.857,7.857,0,0,0,7.811,7.783A7.819,7.819,0,0,0-122.925-388.073Z" transform="translate(160.429 426.109)" fill="#030403"/>
      <path id="Trazado_127440" data-name="Trazado 127440" d="M-124.794-322.918c1.286.013,1.137-.14,1.139,1.15,0,1.215.124,1.071-1.137,1.077-1.091.006-1.091,0-1.09-1.246C-125.882-322.918-125.882-322.918-124.794-322.918Z" transform="translate(149.965 373.307)" fill="#fdfefd"/>
      <path id="Trazado_127441" data-name="Trazado 127441" d="M-108.677-321.816c-.012,1.245.134,1.114-1.1,1.119-1.132,0-1.136,0-1.13-1.2s-.112-1.011,1.267-1.022C-108.677-322.931-108.677-322.924-108.677-321.816Z" transform="translate(139.447 373.314)" fill="#fdfefd"/>
      <path id="Trazado_127442" data-name="Trazado 127442" d="M-93.7-321.809c-.012,1.237.133,1.1-1.107,1.11-1.122.005-1.125,0-1.121-1.213,0-1.179-.088-1.007,1.2-1.012C-93.569-322.929-93.715-323.021-93.7-321.809Z" transform="translate(128.93 373.316)" fill="#fdfefd"/>
      <path id="Trazado_127443" data-name="Trazado 127443" d="M-184.957-264.3c-.79,0-1.58-.014-2.37.005-.4.01-.558-.116-.578-.544-.079-1.693-.094-1.692,1.572-1.692,1.259,0,2.518.013,3.777-.007.433-.007.6.116.616.582.046,1.656.064,1.655-1.61,1.655Z" transform="translate(193.545 333.708)" fill="#fdfefd"/>
      <path id="Trazado_127444" data-name="Trazado 127444" d="M-159.247-264.29c-1.267-.015-1.109.144-1.111-1.172,0-1.226-.123-1.05,1.225-1.055,1.167,0,.994-.1,1,1.207C-158.129-264.147-158.034-264.3-159.247-264.29Z" transform="translate(174.182 333.699)" fill="#fdfefd"/>
      <path id="Trazado_127445" data-name="Trazado 127445" d="M-5.362-352.079c.89,0,1.781.026,2.669-.01.492-.02.687.088.677.636-.036,1.829-.025,3.658-.005,5.487,0,.428-.073.612-.56.6-1.878-.028-3.757-.02-5.635,0-.374,0-.521-.09-.517-.492q.027-2.892,0-5.784c0-.38.147-.449.48-.443C-7.29-352.068-6.326-352.079-5.362-352.079Zm1.1,3.352c-.018-1.242.166-1.1-.922-1.11-1.311-.01-1.311,0-1.312.935,0,1.3,0,1.3,1.029,1.3C-4.261-347.6-4.261-347.6-4.261-348.727Z" transform="translate(67.688 393.797)" fill="#030403"/>
      <path id="Trazado_127446" data-name="Trazado 127446" d="M-14.115-420.464a7.031,7.031,0,0,1-7.065-6.984,7.076,7.076,0,0,1,7-7.143,7.117,7.117,0,0,1,7.12,7.042A7.064,7.064,0,0,1-14.115-420.464Zm4.979-8.872c.007-.208-.126-.3-.227-.4-.277-.283-.581-.543-.833-.846-.294-.354-.5-.332-.822,0-1.1,1.139-2.232,2.247-3.352,3.367-1.091,1.091-1.091,1.091-2.159.022-1.126-1.127-1.113-1.114-2.234,0-.354.352-.413.575-.02.947.987.936,1.945,1.9,2.889,2.886.31.322.492.346.823.01,1.856-1.889,3.737-3.753,5.609-5.626C-9.343-429.1-9.233-429.23-9.136-429.336Z" transform="translate(76.429 451.739)" fill="#ec7773"/>
      <path id="Trazado_127447" data-name="Trazado 127447" d="M-117.646-382.778a7.819,7.819,0,0,1-7.808,7.842,7.857,7.857,0,0,1-7.811-7.783,7.854,7.854,0,0,1,7.827-7.84A7.812,7.812,0,0,1-117.646-382.778Zm-2.385-2.239c-.425-.379-.858-.714-1.227-1.109-.3-.321-.478-.271-.762.018-1.316,1.344-2.654,2.667-3.985,4-1.066,1.065-1.066,1.065-2.13,0-1.2-1.2-1.189-1.19-2.348.038-.3.314-.275.493.019.779q1.518,1.474,2.993,2.992c.28.287.468.34.779.025,2.089-2.112,4.195-4.206,6.294-6.308C-120.3-384.684-120.214-384.8-120.032-385.017Z" transform="translate(155.151 420.815)" fill="#b3e1ab"/>
      <path id="Trazado_127448" data-name="Trazado 127448" d="M1.025-343.412c0,1.124,0,1.124-1.2,1.124-1.03,0-1.03,0-1.029-1.3,0-.939,0-.946,1.312-.935C1.19-344.513,1.006-344.654,1.025-343.412Z" transform="translate(62.403 388.482)" fill="#8e9ca6"/>
      <path id="Trazado_127449" data-name="Trazado 127449" d="M-4.118-420.483c-.1.107-.207.238-.328.359-1.871,1.874-3.753,3.737-5.609,5.626-.33.336-.513.312-.823-.01-.943-.981-1.9-1.949-2.889-2.886-.393-.372-.334-.6.02-.947,1.121-1.115,1.108-1.129,2.234,0,1.068,1.069,1.068,1.069,2.159-.022,1.12-1.12,2.252-2.229,3.352-3.367.318-.329.528-.351.822,0,.252.3.556.563.833.846C-4.244-420.779-4.111-420.691-4.118-420.483Z" transform="translate(71.412 442.887)" fill="#fdfefd"/>
      <path id="Trazado_127450" data-name="Trazado 127450" d="M-113.966-375.076c-.182.217-.266.334-.366.434-2.1,2.1-4.205,4.2-6.294,6.308-.311.315-.5.262-.779-.025q-1.477-1.516-2.993-2.992c-.294-.285-.315-.465-.019-.779,1.159-1.228,1.147-1.239,2.348-.038,1.064,1.064,1.064,1.064,2.13,0,1.33-1.33,2.668-2.653,3.985-4,.284-.289.462-.34.762-.018C-114.824-375.79-114.391-375.455-113.966-375.076Z" transform="translate(149.085 410.874)" fill="#fdfefd"/>
    </g>
  </g>
</svg>
