<svg xmlns="http://www.w3.org/2000/svg" xmlns:xlink="http://www.w3.org/1999/xlink" width="107" height="107" viewBox="0 0 107 107">
  <defs>
    <clipPath id="clip-path">
      <rect id="Rectángulo_36650" data-name="Rectángulo 36650" width="107" height="107" transform="translate(0 0.001)" fill="#fff" stroke="#707070" stroke-width="1"/>
    </clipPath>
  </defs>
  <g id="Grupo_85875" data-name="Grupo 85875" transform="translate(0 -0.001)" clip-path="url(#clip-path)">
    <g id="Grupo_85894" data-name="Grupo 85894" transform="translate(3 3.031)">
      <path id="Trazado_127605" data-name="Trazado 127605" d="M3777.052-723.842c.376-.975.711-1.929,1.107-2.856a27.787,27.787,0,0,1,29.06-16.517,27.738,27.738,0,0,1,23.681,22.972,27.636,27.636,0,0,1-21.656,31.533c-.559.115-.8.276-.781.9.045,1.831.051,3.664,0,5.494-.02.665.207.768.8.761,2.68-.031,5.361.026,8.04-.037.841-.02.978.262.966,1.012-.043,2.577.037,5.157-.045,7.732-.031.95.282,1.089,1.123,1.068,2.271-.058,4.545-.029,6.818-.018a4.876,4.876,0,0,1,5.114,5.114q.018,6.309,0,12.617a4.882,4.882,0,0,1-5.065,5.063c-.237,0-.475,0-.713,0-2.571,0-2.742.213-2.37,2.833.04.28.085.448.4.424a3.465,3.465,0,0,1,.509,0c.766.054,1.934-.34,2.207.159.386.709.122,1.769.149,2.679.008.3-.092.444-.4.418-.135-.011-.271,0-.407,0-5.971,0-11.942-.01-17.913.015-.649,0-.92-.141-.832-.824.1-.794-.349-1.86.188-2.322.453-.39,1.488-.16,2.259-.111.663.043.841-.161.837-.829-.016-2.441.011-2.441-2.464-2.442-3.825,0-5.7-1.858-5.7-5.655q0-3.154,0-6.308a2.568,2.568,0,0,1,0-.407c.09-.549-.157-.675-.675-.666-1.73.03-3.461.035-5.191,0-.556-.012-.667.179-.662.689.024,2.408.02,4.816.008,7.224a4.894,4.894,0,0,1-5.106,5.126c-.2,0-.407,0-.611,0-2.711,0-2.7,0-2.439,2.771.039.419.181.5.55.491.677-.021,1.358.019,2.035-.014.492-.024.691.074.705.648.064,2.618.088,2.618-2.493,2.618-5.394,0-10.789-.013-16.183.016-.682,0-.983-.115-.9-.865.084-.765-.229-1.783.161-2.25.41-.493,1.463-.175,2.227-.139.694.033.914-.135.9-.872-.035-2.4-.008-2.525-2.4-2.374a5.2,5.2,0,0,1-5.787-5.827c.139-2.025.025-4.068.025-6.1a2.628,2.628,0,0,1,0-.407c.089-.569-.132-.745-.713-.732q-2.543.058-5.089,0c-.576-.013-.736.152-.728.728.032,2.374.021,4.748.012,7.123a4.9,4.9,0,0,1-5.146,5.188c-.814,0-1.63.027-2.442-.009-.46-.02-.58.145-.562.58.034.846-.294,1.923.112,2.479.436.6,1.578.2,2.4.183.66-.011.766.206.766.8,0,2.476.022,2.476-2.428,2.476-5.394,0-10.789-.011-16.183.014-.693,0-1-.065-.977-.9.059-2.362.012-2.39,2.339-2.355.7.011.99-.085.97-.908-.057-2.363-.011-2.358-2.345-2.368a8.234,8.234,0,0,1-2.023-.128,4.836,4.836,0,0,1-3.79-4.685q-.043-6.563,0-13.126a4.839,4.839,0,0,1,4.86-4.846c2.409-.03,4.819-.037,7.226.011.73.014.974-.125.957-.92-.059-2.678,0-5.358-.037-8.038-.008-.639.126-.859.817-.847,2.714.044,5.428,0,8.142.033.644.009.868-.132.844-.82-.055-1.626-.049-3.256,0-4.883.019-.652-.148-.837-.824-.844-2.365-.023-4.745.237-7.084-.386a11.459,11.459,0,0,1-8.379-11.579,11.422,11.422,0,0,1,9.222-10.586c.53-.095.82-.218.946-.814a19.428,19.428,0,0,1,29.5-12.676C3776.665-724.043,3776.845-723.955,3777.052-723.842Zm5.346,17.422c0-.677.026-1.277,0-1.874a16.264,16.264,0,0,0-22.487-14.366c-6.232,2.614-9.469,7.526-10.036,14.213-.059.687-.207.961-.939.863a7.148,7.148,0,0,0-2.917.269,8.176,8.176,0,0,0-5.9,8.755,8.141,8.141,0,0,0,8.13,7.209q19.488.032,38.976,0a9.154,9.154,0,0,0,1.714-.18,8.1,8.1,0,0,0,6.343-9.505,8.108,8.108,0,0,0-9.447-6.439C3784.7-707.261,3783.671-706.728,3782.4-706.42ZM3782.42-680c0,2.474.021,4.948-.015,7.422-.009.613.125.8.772.79,2.44-.043,4.881-.022,7.322-.015a4.8,4.8,0,0,1,3.951,1.942,5.175,5.175,0,0,1,.99,3.737c-.05.639.114.877.81.849,1.455-.06,2.915-.018,4.373-.018,1.334,0,1.334,0,1.341-1.307a4.9,4.9,0,0,1,5.222-5.206c2.305-.006,4.611-.027,6.915.015.675.012.942-.1.912-.858-.064-1.624-.062-3.254,0-4.879.027-.714-.24-.811-.859-.8-2.678.03-5.357-.025-8.034.036-.8.018-.927-.239-.916-.96.043-2.677-.012-5.355.037-8.032.013-.74-.206-.867-.9-.835a23.846,23.846,0,0,1-9.092-1.318,3.142,3.142,0,0,0-3.1.235,7.093,7.093,0,0,1-1.988.729c-2.294.654-4.649.332-6.979.369-.629.01-.788.159-.778.786C3782.443-684.88,3782.42-682.439,3782.42-680Zm-14.573-8.087c-3.527,0-7.055.029-10.582-.022-.79-.011-.935.219-.922.953.046,2.678-.008,5.358.036,8.036.011.691-.209.825-.848.817-2.713-.034-5.427.012-8.14-.032-.692-.011-.833.208-.817.848q.065,2.491,0,4.984c-.015.6.194.717.746.711q3.713-.041,7.427-.006a4.9,4.9,0,0,1,4.658,3.442,7.178,7.178,0,0,1,.206,2.419c-.017.443.045.669.587.659,1.8-.035,3.6-.029,5.392,0,.472.007.587-.172.547-.591a8.067,8.067,0,0,1,0-.813,4.888,4.888,0,0,1,5.11-5.117c2.34-.011,4.681-.026,7.021.013.664.011.924-.089.919-.85q-.059-7.324,0-14.648c.005-.7-.221-.817-.852-.812C3774.834-688.071,3771.341-688.085,3767.847-688.085Zm-22.99,29.307c3.561,0,7.122-.018,10.684.016.67.006.845-.18.834-.84-.04-2.339-.006-4.679-.019-7.018-.007-1.325-.6-1.921-1.934-1.923q-9.462-.011-18.926,0c-1.332,0-1.927.6-1.934,1.922-.012,2.339.021,4.68-.019,7.019-.011.659.163.847.834.841C3737.87-658.8,3741.364-658.779,3744.857-658.779Zm35.874,0c3.561,0,7.123-.015,10.684.015.618.005.8-.138.792-.779-.042-2.339-.009-4.679-.019-7.019-.006-1.4-.585-1.981-1.977-1.982q-9.412-.009-18.824,0c-1.4,0-1.988.578-1.994,1.965-.01,2.306.025,4.612-.02,6.917-.013.7.145.912.877.9C3773.744-658.8,3777.237-658.779,3780.731-658.779Zm35.787,0c3.561,0,7.123-.018,10.684.016.666.006.85-.173.837-.837-.041-2.339-.007-4.679-.02-7.019-.007-1.326-.6-1.923-1.931-1.925q-9.464-.011-18.926,0c-1.333,0-1.929.6-1.936,1.919-.013,2.339.02,4.68-.019,7.019-.011.655.155.85.831.844C3809.531-658.8,3813.025-658.779,3816.518-658.779ZM3803.6-717.394c3.526,0,7.054,0,10.58.006.484,0,.829.022.777-.671a57.013,57.013,0,0,0-1.159-8.445c-.131-.572-.389-.668-.9-.667q-9.308.02-18.617-.006c-.619,0-.779.23-.908.784a56.91,56.91,0,0,0-1.12,7.938c-.072.817.063,1.1.971,1.085C3796.678-717.43,3800.137-717.394,3803.6-717.394Zm.05,3.257c-3.522,0-7.046-.007-10.569.011-.323,0-.89-.268-.818.492.116,1.213.224,2.427.3,3.642a.8.8,0,0,0,.486.691,10.908,10.908,0,0,1,4.242,4.4.912.912,0,0,0,.947.543q7.317-.02,14.634,0c.576,0,.8-.151.939-.744a57.551,57.551,0,0,0,1.125-8.031c.062-.762-.068-1.041-.923-1.028C3810.558-714.106,3807.1-714.137,3803.646-714.137Zm8.966-16.3c-1.14-3.05-2.469-5.843-4.866-7.975-2.675-2.38-5.635-2.37-8.314,0a17.009,17.009,0,0,0-4.192,6.287,4.64,4.64,0,0,0-.56,1.689Zm-16.274,37.982a24.144,24.144,0,0,0,7.065,1.115,5.462,5.462,0,0,0,3.089-.86c3.25-2.1,4.768-5.386,6.129-8.911-4.559,0-8.968.011-13.377-.013-.6,0-.626.213-.584.711a11.168,11.168,0,0,1-1.455,6.543C3796.943-693.406,3796.649-692.96,3796.338-692.456Zm20.651-34.708a51.928,51.928,0,0,1,1.2,9.235c.021.463.215.544.622.542q4.266-.02,8.532,0c.428,0,.58-.1.54-.567a23.966,23.966,0,0,0-2.457-8.725c-.146-.294-.29-.492-.667-.491C3822.192-727.157,3819.627-727.163,3816.989-727.163Zm6.117,13.026c-1.388,0-2.777.026-4.164-.013-.564-.016-.744.146-.77.719a45.24,45.24,0,0,1-1.072,8.439c-.157.666.167.631.617.629,2.268-.01,4.537-.015,6.8,0a.874.874,0,0,0,.94-.552,24.725,24.725,0,0,0,2.413-8.532c.062-.646-.174-.714-.706-.7C3825.815-714.119,3824.461-714.138,3823.106-714.138Zm-36.971-13.026c-1.153,0-2.306.016-3.458-.009a.867.867,0,0,0-.949.541,28.739,28.739,0,0,0-1.72,4.546.991.991,0,0,0,.31,1.081,15.135,15.135,0,0,1,2.351,3.05,1.045,1.045,0,0,0,1.062.571c1.491-.033,2.985-.048,4.474,0,.639.023.786-.193.812-.789a44.536,44.536,0,0,1,1.081-8.45c.123-.512-.094-.559-.5-.553C3788.44-727.153,3787.287-727.163,3786.135-727.163Zm30.552,71.642c-3.562,0-7.124-.006-10.685.012-.272,0-.67-.236-.79.335-.391,1.867.408,2.908,2.288,2.909q9.108,0,18.214,0c1.843,0,2.287-.493,2.325-2.371.015-.691-.137-.913-.873-.9C3823.675-655.5,3820.181-655.521,3816.687-655.521Zm-35.9,0c-3.527,0-7.055-.006-10.582.013-.274,0-.676-.242-.821.3a2.121,2.121,0,0,0,2.245,2.945q9.056,0,18.113,0c2,0,2.44-.467,2.464-2.436.008-.664-.169-.842-.836-.836C3787.845-655.5,3784.318-655.521,3780.791-655.521Zm-35.824,0c-3.527,0-7.055-.007-10.583.013-.275,0-.677-.242-.827.29a2.124,2.124,0,0,0,2.236,2.952q9.107,0,18.215,0c1.9,0,2.345-.489,2.369-2.428.007-.65-.147-.852-.827-.845C3752.022-655.5,3748.495-655.521,3744.967-655.521Zm39.107-74.9c2.312,0,4.377-.03,6.44.018.613.015.713-.332.857-.753a27.942,27.942,0,0,1,2.853-6.038c.273-.43.557-.853.983-1.5A24.947,24.947,0,0,0,3784.074-730.419Zm39.021,0a23.707,23.707,0,0,0-10.9-8.069,30.684,30.684,0,0,1,3.664,7.458c.121.361.231.636.743.627C3818.685-730.441,3820.774-730.419,3823.095-730.419Zm-11.162,37.576a24.726,24.726,0,0,0,11.146-8.268c-2.351,0-4.5.008-6.651-.008-.376,0-.438.244-.522.493A28.537,28.537,0,0,1,3811.933-692.844Zm4.61,47.091h.912c2.469,0,2.437,0,2.445-2.459,0-.707-.247-.829-.867-.808-1.248.042-2.5.012-3.748.012-1.919,0-1.862,0-1.942,1.952-.042,1.008.17,1.481,1.278,1.32A13.435,13.435,0,0,1,3816.543-645.753Zm-71.685,0h.912c2.525,0,2.525,0,2.447-2.539a1.439,1.439,0,0,1,0-.2c.047-.4-.132-.522-.521-.519-1.824.015-3.647.009-5.471,0-.294,0-.535.017-.523.414.029.906-.236,1.964.15,2.669.284.52,1.434.114,2.2.17C3744.316-645.736,3744.588-645.753,3744.858-645.753Zm35.853,0h.912c2.469,0,2.437,0,2.445-2.459,0-.707-.246-.829-.867-.808-1.248.042-2.5.012-3.748.012-1.918,0-1.862,0-1.942,1.952-.042,1.008.17,1.481,1.278,1.32A13.436,13.436,0,0,1,3780.711-645.753Zm6.106-68.386h-.508c-1.681,0-1.679,0-1.274,1.606.139.554.1,1.274.444,1.624.411.419,1.139-.056,1.733.025a5.8,5.8,0,0,1,.809.035c1.039.3,1.206-.117,1.121-1.082C3788.949-714.134,3789-714.139,3786.817-714.139Z" transform="translate(-3730.288 743.419)" fill="#010101"/>
      <path id="Trazado_127606" data-name="Trazado 127606" d="M3796.571-678.141c1.272-.308,2.3-.841,3.434-1.055a8.107,8.107,0,0,1,9.447,6.439,8.1,8.1,0,0,1-6.343,9.505,9.139,9.139,0,0,1-1.713.18q-19.488.015-38.977,0a8.141,8.141,0,0,1-8.13-7.209,8.176,8.176,0,0,1,5.9-8.756,7.151,7.151,0,0,1,2.917-.269c.731.1.88-.175.938-.863.568-6.687,3.8-11.6,10.036-14.213a16.264,16.264,0,0,1,22.487,14.366C3796.6-679.418,3796.571-678.818,3796.571-678.141Zm-22.783,6.972a4.9,4.9,0,0,0-4.8-4.919,4.9,4.9,0,0,0-4.971,4.845,4.906,4.906,0,0,0,4.9,4.921A4.907,4.907,0,0,0,3773.788-671.169Zm13.03-.063a4.9,4.9,0,0,0-4.86-4.855,4.9,4.9,0,0,0-4.908,4.909,4.907,4.907,0,0,0,4.86,4.857A4.908,4.908,0,0,0,3786.818-671.232Zm8.1-4.855a4.905,4.905,0,0,0-4.839,4.876,4.907,4.907,0,0,0,4.928,4.89,4.906,4.906,0,0,0,4.84-4.878A4.9,4.9,0,0,0,3794.918-676.088Zm-13.833-16.267c-.668-.2-.855.149-.791.844a8.636,8.636,0,0,1,0,1.622c-.058.6.123.758.753.82a9.764,9.764,0,0,1,7.85,5.06c.348.593.3,1.616.985,1.738.656.116,1.407-.369,2.128-.543.605-.146.779-.353.539-1.024A13.286,13.286,0,0,0,3781.085-692.355Z" transform="translate(-3744.461 715.14)" fill="#e4e7ea"/>
      <path id="Trazado_127607" data-name="Trazado 127607" d="M3749.582-550.106c-3.494,0-6.987-.018-10.481.016-.671.006-.845-.182-.834-.841.04-2.339.007-4.679.019-7.019.007-1.325.6-1.92,1.934-1.922q9.463-.011,18.926,0c1.331,0,1.927.6,1.934,1.922.013,2.339-.021,4.68.02,7.018.011.661-.165.846-.834.84C3756.7-550.124,3753.142-550.106,3749.582-550.106Z" transform="translate(-3735.012 634.747)" fill="#83d3ef"/>
      <path id="Trazado_127608" data-name="Trazado 127608" d="M3837.461-550.106c-3.494,0-6.987-.023-10.481.019-.732.009-.891-.206-.877-.9.045-2.3.01-4.611.02-6.917.006-1.387.59-1.964,1.994-1.965q9.413-.009,18.824,0c1.392,0,1.972.587,1.977,1.982.01,2.339-.022,4.68.019,7.019.012.641-.174.784-.792.779C3844.583-550.121,3841.022-550.106,3837.461-550.106Z" transform="translate(-3787.018 634.747)" fill="#83d3ef"/>
      <path id="Trazado_127609" data-name="Trazado 127609" d="M3925.26-550.106c-3.494,0-6.987-.019-10.48.017-.676.006-.842-.188-.831-.844.039-2.339.006-4.679.019-7.019.007-1.323.6-1.918,1.936-1.919q9.464-.011,18.927,0c1.329,0,1.925.6,1.932,1.925.012,2.34-.022,4.68.019,7.019.012.665-.171.844-.837.838C3932.382-550.124,3928.82-550.106,3925.26-550.106Z" transform="translate(-3839.029 634.747)" fill="#83d3ef"/>
      <path id="Trazado_127610" data-name="Trazado 127610" d="M3893.507-693.82c-3.459,0-6.918-.036-10.376.024-.907.016-1.042-.268-.97-1.086a56.878,56.878,0,0,1,1.12-7.938c.129-.554.289-.786.908-.784q9.309.037,18.617.006c.511,0,.77.095.9.667a56.979,56.979,0,0,1,1.158,8.445c.052.693-.293.672-.777.671C3900.561-693.825,3897.034-693.82,3893.507-693.82Z" transform="translate(-3820.199 719.845)" fill="#83d3ee"/>
      <path id="Trazado_127611" data-name="Trazado 127611" d="M3893.588-671.685c3.455,0,6.911.031,10.365-.022.856-.013.986.265.923,1.028a57.516,57.516,0,0,1-1.124,8.032c-.134.593-.363.746-.939.744q-7.317-.032-14.633,0a.912.912,0,0,1-.948-.543,10.9,10.9,0,0,0-4.242-4.4.8.8,0,0,1-.485-.691c-.079-1.216-.186-2.43-.3-3.642-.073-.759.494-.49.818-.492C3886.542-671.691,3890.065-671.685,3893.588-671.685Z" transform="translate(-3820.23 700.967)" fill="#83d3ee"/>
      <path id="Trazado_127612" data-name="Trazado 127612" d="M3906.076-725.756h-17.931a4.626,4.626,0,0,1,.56-1.689,17.008,17.008,0,0,1,4.191-6.287c2.679-2.369,5.639-2.38,8.314,0C3903.607-731.6,3904.936-728.806,3906.076-725.756Z" transform="translate(-3823.752 738.738)" fill="#83d2ee"/>
      <path id="Trazado_127613" data-name="Trazado 127613" d="M3892.208-631.067c.311-.5.606-.951.868-1.416a11.158,11.158,0,0,0,1.454-6.543c-.042-.5-.012-.714.584-.711,4.409.025,8.818.013,13.377.013-1.361,3.525-2.88,6.809-6.13,8.911a5.466,5.466,0,0,1-3.089.86A24.155,24.155,0,0,1,3892.208-631.067Z" transform="translate(-3826.158 682.03)" fill="#83d2ee"/>
      <path id="Trazado_127614" data-name="Trazado 127614" d="M3942.832-703.578c2.639,0,5.2.006,7.768-.007.378,0,.522.2.667.491a23.971,23.971,0,0,1,2.458,8.725c.04.471-.112.569-.54.567q-4.266-.02-8.532,0c-.407,0-.6-.078-.622-.542A51.816,51.816,0,0,0,3942.832-703.578Z" transform="translate(-3856.131 719.834)" fill="#83d2ee"/>
      <path id="Trazado_127615" data-name="Trazado 127615" d="M3949.053-671.656c1.354,0,2.708.019,4.063-.009.532-.011.767.057.706.7a24.7,24.7,0,0,1-2.413,8.532.874.874,0,0,1-.94.552c-2.268-.02-4.536-.014-6.805,0-.449,0-.774.037-.617-.629a45.24,45.24,0,0,0,1.073-8.439c.026-.573.207-.735.77-.719C3946.276-671.63,3947.665-671.656,3949.053-671.656Z" transform="translate(-3856.234 700.938)" fill="#83d2ee"/>
      <path id="Trazado_127616" data-name="Trazado 127616" d="M3858.226-703.581c1.153,0,2.306.011,3.458-.006.41-.006.629.041.505.553a44.477,44.477,0,0,0-1.081,8.45c-.027.6-.173.812-.812.789-1.49-.053-2.983-.038-4.474,0a1.046,1.046,0,0,1-1.063-.571,15.122,15.122,0,0,0-2.351-3.05.991.991,0,0,1-.311-1.081,28.794,28.794,0,0,1,1.721-4.546.867.867,0,0,1,.949-.541C3855.92-703.565,3857.073-703.581,3858.226-703.581Z" transform="translate(-3802.379 719.837)" fill="#83d2ee"/>
      <path id="Trazado_127617" data-name="Trazado 127617" d="M3925.3-527.992c3.494,0,6.988.024,10.48-.019.736-.009.887.213.873.9-.038,1.878-.481,2.37-2.324,2.37q-9.108,0-18.215,0c-1.881,0-2.68-1.041-2.289-2.909.12-.571.518-.334.79-.335C3918.174-528,3921.735-527.992,3925.3-527.992Z" transform="translate(-3838.898 615.891)" fill="#ccd0d7"/>
      <path id="Trazado_127618" data-name="Trazado 127618" d="M3837.36-528c3.528,0,7.055.018,10.582-.016.666-.006.844.172.836.836-.024,1.969-.461,2.435-2.464,2.436q-9.057,0-18.113,0a2.121,2.121,0,0,1-2.245-2.945c.145-.54.546-.3.82-.3C3830.3-528.005,3833.833-528,3837.36-528Z" transform="translate(-3786.858 615.897)" fill="#ccd0d7"/>
      <path id="Trazado_127619" data-name="Trazado 127619" d="M3749.521-528c3.528,0,7.055.02,10.583-.017.68-.007.834.195.827.845-.023,1.938-.466,2.428-2.369,2.428q-9.107,0-18.215,0a2.124,2.124,0,0,1-2.236-2.952c.15-.532.552-.289.827-.29C3742.466-528.007,3745.993-528,3749.521-528Z" transform="translate(-3734.842 615.898)" fill="#ccd0d7"/>
      <path id="Trazado_127620" data-name="Trazado 127620" d="M3862.142-723.564a24.946,24.946,0,0,1,11.134-8.278c-.427.651-.71,1.075-.984,1.5a27.975,27.975,0,0,0-2.853,6.038c-.143.421-.243.768-.857.753C3866.518-723.594,3864.454-723.564,3862.142-723.564Z" transform="translate(-3808.356 736.565)" fill="#81d0eb"/>
      <path id="Trazado_127621" data-name="Trazado 127621" d="M3941.974-723.263c-2.321,0-4.41-.022-6.5.016-.512.009-.622-.267-.743-.627a30.679,30.679,0,0,0-3.664-7.458A23.706,23.706,0,0,1,3941.974-723.263Z" transform="translate(-3849.167 736.263)" fill="#81d0eb"/>
      <path id="Trazado_127622" data-name="Trazado 127622" d="M3930.438-631.447a28.538,28.538,0,0,0,3.973-7.782c.084-.249.146-.5.522-.493,2.15.016,4.3.008,6.651.008A24.728,24.728,0,0,1,3930.438-631.447Z" transform="translate(-3848.793 682.022)" fill="#81d0eb"/>
      <path id="Trazado_127623" data-name="Trazado 127623" d="M3937.087-508.739a13.426,13.426,0,0,0-1.923.017c-1.107.162-1.32-.312-1.278-1.32.08-1.95.023-1.952,1.941-1.952,1.25,0,2.5.029,3.748-.012.621-.021.869.1.867.808-.008,2.459.024,2.459-2.445,2.459Z" transform="translate(-3850.832 606.405)" fill="#aab1bb"/>
      <path id="Trazado_127624" data-name="Trazado 127624" d="M3761.334-508.726c-.271,0-.542.017-.811,0-.762-.057-1.912.35-2.2-.17-.386-.706-.121-1.763-.15-2.669-.013-.4.229-.414.523-.414,1.824,0,3.648.01,5.471,0,.388,0,.568.123.521.519a1.371,1.371,0,0,0,0,.2c.079,2.539.079,2.539-2.446,2.539Z" transform="translate(-3746.764 606.393)" fill="#aab1bb"/>
      <path id="Trazado_127625" data-name="Trazado 127625" d="M3849.247-508.739a13.436,13.436,0,0,0-1.923.017c-1.108.162-1.319-.312-1.278-1.32.08-1.95.023-1.952,1.941-1.952,1.25,0,2.5.029,3.748-.012.621-.021.87.1.867.808-.008,2.459.024,2.459-2.445,2.459Z" transform="translate(-3798.823 606.405)" fill="#aab1bb"/>
      <path id="Trazado_127626" data-name="Trazado 127626" d="M3865.956-671.639c2.181,0,2.132,0,2.326,2.208.085.966-.083,1.385-1.122,1.082a5.791,5.791,0,0,0-.809-.035c-.595-.081-1.322.394-1.733-.025-.344-.349-.3-1.07-.445-1.624-.406-1.606-.408-1.606,1.274-1.606Z" transform="translate(-3809.427 700.92)" fill="#81d0eb"/>
      <path id="Trazado_127627" data-name="Trazado 127627" d="M3788-642.765a4.907,4.907,0,0,1-4.87,4.847,4.906,4.906,0,0,1-4.9-4.921,4.9,4.9,0,0,1,4.971-4.845A4.9,4.9,0,0,1,3788-642.765Zm-3.259-.014a1.639,1.639,0,0,0-1.578-1.647,1.64,1.64,0,0,0-1.672,1.552,1.641,1.641,0,0,0,1.628,1.7A1.641,1.641,0,0,0,3784.746-642.779Z" transform="translate(-3758.678 686.737)" fill="#030303"/>
      <path id="Trazado_127628" data-name="Trazado 127628" d="M3819.947-642.828a4.908,4.908,0,0,1-4.909,4.911,4.907,4.907,0,0,1-4.86-4.857,4.9,4.9,0,0,1,4.908-4.909A4.9,4.9,0,0,1,3819.947-642.828Zm-4.913,1.652a1.642,1.642,0,0,0,1.654-1.571,1.643,1.643,0,0,0-1.546-1.679,1.638,1.638,0,0,0-1.7,1.621A1.639,1.639,0,0,0,3815.033-641.175Z" transform="translate(-3777.59 686.736)" fill="#030303"/>
      <path id="Trazado_127629" data-name="Trazado 127629" d="M3846.959-647.683a4.9,4.9,0,0,1,4.929,4.888,4.907,4.907,0,0,1-4.84,4.878,4.907,4.907,0,0,1-4.928-4.89A4.9,4.9,0,0,1,3846.959-647.683Zm1.67,4.905a1.64,1.64,0,0,0-1.577-1.648,1.641,1.641,0,0,0-1.673,1.552,1.641,1.641,0,0,0,1.628,1.7A1.642,1.642,0,0,0,3848.629-642.778Z" transform="translate(-3796.501 686.736)" fill="#030303"/>
      <path id="Trazado_127630" data-name="Trazado 127630" d="M3818.906-687.645a13.286,13.286,0,0,1,11.463,8.517c.24.671.067.878-.539,1.024-.72.174-1.472.659-2.127.543-.688-.122-.637-1.145-.986-1.738a9.766,9.766,0,0,0-7.85-5.06c-.631-.062-.811-.219-.754-.82a8.656,8.656,0,0,0,0-1.622C3818.05-687.5,3818.238-687.847,3818.906-687.645Z" transform="translate(-3782.282 710.43)" fill="#040404"/>
      <path id="Trazado_127631" data-name="Trazado 127631" d="M3789.474-638.05a1.641,1.641,0,0,1-1.622,1.6,1.64,1.64,0,0,1-1.627-1.7,1.639,1.639,0,0,1,1.672-1.552A1.638,1.638,0,0,1,3789.474-638.05Z" transform="translate(-3763.406 682.008)" fill="#e3816e"/>
      <path id="Trazado_127632" data-name="Trazado 127632" d="M3819.763-636.449a1.639,1.639,0,0,1-1.6-1.629,1.639,1.639,0,0,1,1.7-1.621,1.643,1.643,0,0,1,1.546,1.679A1.642,1.642,0,0,1,3819.763-636.449Z" transform="translate(-3782.32 682.01)" fill="#e3816e"/>
      <path id="Trazado_127633" data-name="Trazado 127633" d="M3853.358-638.05a1.642,1.642,0,0,1-1.622,1.6,1.641,1.641,0,0,1-1.628-1.7,1.641,1.641,0,0,1,1.672-1.552A1.64,1.64,0,0,1,3853.358-638.05Z" transform="translate(-3801.23 682.008)" fill="#e3816e"/>
    </g>
  </g>
</svg>
