<svg xmlns="http://www.w3.org/2000/svg" xmlns:xlink="http://www.w3.org/1999/xlink" width="85" height="85" viewBox="0 0 85 85">
  <defs>
    <clipPath id="clip-path">
      <rect id="Rectángulo_34524" data-name="Rectángulo 34524" width="85" height="85" transform="translate(915 14109)" fill="#2ff980" stroke="#707070" stroke-width="1"/>
    </clipPath>
  </defs>
  <g id="Enmascarar_grupo_144" data-name="Enmascarar grupo 144" transform="translate(-915 -14109)" clip-path="url(#clip-path)">
    <g id="Grupo_85850" data-name="Grupo 85850" transform="translate(920.65 14114.657)">
      <path id="Trazado_127509" data-name="Trazado 127509" d="M-489.823-504.125c-.445-.864-.818-1.636-1.236-2.383a.572.572,0,0,1,.133-.817q2.8-2.762,5.566-5.565a.575.575,0,0,1,.822-.112c.69.384,1.407.718,2.094,1.107a1.2,1.2,0,0,0,.956.018c1.916-.4,2.7-1.721,2.993-3.48.091-.553.378-.669.9-.663,2.5.028,5,.032,7.5,0,.552-.007.827.149.882.69a1.115,1.115,0,0,0,.078.207c.787,2.445.791,2.435,3.136,3.339a.733.733,0,0,0,.684-.092c.747-.383,1.5-.757,2.233-1.16a.491.491,0,0,1,.7.113q2.793,2.825,5.618,5.619c.246.243.363.444.134.753a3.255,3.255,0,0,0-.249.454c-1.151,2.231-1.147,2.23-.138,4.515a.746.746,0,0,0,.536.443c.78.231,1.548.506,2.33.728.357.1.514.242.511.65q-.031,3.972,0,7.944a.517.517,0,0,1-.472.6c-.144.032-.281.092-.422.137-2.455.781-2.445.786-3.343,3.132a.737.737,0,0,0,.1.683c.369.726.729,1.457,1.131,2.164a.569.569,0,0,1-.14.817c-1.2,1.175-2.374,2.386-3.583,3.557a1.292,1.292,0,0,0-.421,1.033q.02,8.353.008,16.706c0,3.907-2.488,6.391-6.4,6.392-4.728,0-9.457.023-14.185-.022-.781-.007-.778.286-.632.838a7.422,7.422,0,0,0,1.014,2.29c.74,1.092,1.592,1.926,3.086,1.662a8.789,8.789,0,0,1,1.705-.012,3.562,3.562,0,0,1,3.52,3.493c.019.717.007,1.435,0,2.153a3.582,3.582,0,0,1-3.834,3.855q-6.238.007-12.477,0-11.251,0-22.5,0a3.6,3.6,0,0,1-3.971-3.941c0-.668-.01-1.337,0-2a3.561,3.561,0,0,1,3.532-3.556c.817-.017,1.637-.044,2.45.01a1.739,1.739,0,0,0,1.431-.588,7.109,7.109,0,0,0,1.932-3.442c.123-.505.095-.758-.582-.753-4.728.035-9.457.019-14.185.018-4.012,0-6.465-2.456-6.465-6.472q0-17.3,0-34.6c0-4.008,2.458-6.456,6.48-6.456h31.035Zm24.288,24.288V-479q0,5.087,0,10.174a2.429,2.429,0,0,1-2.755,2.723H-519.84a2.421,2.421,0,0,1-2.743-2.734q0-13.887,0-27.773c0-1.852.919-2.762,2.787-2.762q12.516,0,25.032,0c.4,0,.827.077.706-.563-.068-.365.24-.379.457-.451.772-.258,1.547-.513,2.326-.749.3-.09.572-.166.563-.615h-30.21c-2.63,0-4.038,1.4-4.038,4.024q0,17.34,0,34.68c0,2.677,1.393,4.071,4.068,4.071h53.629c.248,0,.5.007.743-.007a3.508,3.508,0,0,0,3.342-3.359c.041-5.3.018-10.594.019-15.891,0-.193.031-.387-.207-.5C-464.066-479.079-464.758-479.441-465.535-479.838Zm-2.378.9c-.444-.032-.523.241-.614.54-.235.78-.5,1.55-.739,2.329-.1.313-.219.476-.606.473q-3.972-.033-7.946,0a.542.542,0,0,1-.623-.45c-.239-.8-.515-1.6-.754-2.4a.752.752,0,0,0-.45-.535c-2.272-.987-2.27-.991-4.52.157a3,3,0,0,0-.39.212c-.318.228-.542.158-.817-.122q-2.762-2.8-5.565-5.566a.575.575,0,0,1-.115-.822c.4-.712.758-1.443,1.133-2.166a.851.851,0,0,0,.074-.686c-.477-1.754-1.428-2.957-3.365-3.125-.12-.01-.232-.093-.352-.11-.434-.063-.516-.317-.509-.725.026-1.435-.024-2.872.026-4.305.021-.613-.134-.77-.759-.768q-12.328.036-24.655,0c-.618,0-.765.146-.763.763q.033,13.475,0,26.95c0,.682.177.834.843.834q25.324-.029,50.647-.015a2.753,2.753,0,0,1,.371,0c.358.049.468-.1.457-.455-.024-.766-.007-1.534-.007-2.3Zm-19.137-8.792c-.059.132-.111.269-.177.4-.269.528-.512,1.073-.823,1.576a.759.759,0,0,0,.156,1.133c.874.8,1.682,1.678,2.533,2.507,1.025,1,.627.978,1.806.274,1.073-.641,2.02-.878,3.072-.037a2.022,2.022,0,0,0,.947.4,3.1,3.1,0,0,1,2.83,3c.056.4.27.508.659.5,1.163-.024,2.327-.008,3.49-.008,1.4,0,1.476.018,1.8-1.339a2.119,2.119,0,0,1,1.882-1.9,2.627,2.627,0,0,0,1.168-.447,3.048,3.048,0,0,1,4.061.119c.34.263.59.175.882-.132.853-.9,1.744-1.757,2.619-2.631.8-.8.859-.836.252-1.815-.636-1.026-.895-1.968-.054-3a3.06,3.06,0,0,0,.385-.878c.275-.737.35-1.672.858-2.163a5.159,5.159,0,0,1,2.2-.783c.4-.108.482-.31.477-.683-.018-1.435-.021-2.871,0-4.306.006-.4-.073-.631-.514-.732-.551-.125-1.073-.382-1.624-.508a1.015,1.015,0,0,1-.864-.849,5.713,5.713,0,0,0-.681-1.87,3.153,3.153,0,0,1,.118-4.132c.277-.355.134-.6-.157-.878-.735-.7-1.44-1.429-2.158-2.147-1.26-1.259-1.284-1.3-2.817-.428a1.678,1.678,0,0,1-2.015,0,3.612,3.612,0,0,0-1.406-.642,3.107,3.107,0,0,1-2.856-2.98c-.053-.429-.284-.546-.707-.538-1.336.027-2.676.059-4.009-.01-.679-.035-1.012.179-1.106.823-.207,1.413-.845,2.413-2.407,2.561a1.809,1.809,0,0,0-.553.208c-.736.342-1.473.968-2.2.958a5.571,5.571,0,0,1-2.182-1.022.5.5,0,0,0-.707.114c-.619.641-1.26,1.26-1.885,1.9-.519.527-1.316,1-1.46,1.618-.156.669.563,1.36.907,2.037a.989.989,0,0,1,0,1.084,6.06,6.06,0,0,0-.873,1.87,3.151,3.151,0,0,1-3,2.84c-.449.056-.533.312-.518.72.03.816-.007,1.634.013,2.45.019.786-.313,1.76.13,2.3.41.5,1.37.573,2.1.784a.908.908,0,0,1,.726.713,14.45,14.45,0,0,0,1.461,3.552C-487.187-488.014-487.126-487.88-487.05-487.73Zm-6.925,38.263q-8.757,0-17.515,0c-1.207,0-1.582.383-1.585,1.6,0,.47,0,.94,0,1.41,0,1.411.33,1.738,1.749,1.738h34.511c.173,0,.347.007.519,0a1.19,1.19,0,0,0,1.247-1.268c.02-.618.006-1.237,0-1.855,0-1.259-.37-1.626-1.638-1.626Zm11.213-2.39a8.934,8.934,0,0,1-1.64-4.039c-.063-.555-.253-.717-.819-.714-5.67.023-11.34.014-17.009.014-1.288,0-1.292,0-1.561,1.213a9.527,9.527,0,0,1-1.225,3c-.1.154-.3.278-.219.522Z" transform="translate(527.338 516.023)" fill="#010101"/>
      <path id="Trazado_127510" data-name="Trazado 127510" d="M-459.925-446.158c.778.4,1.469.759,2.169,1.1.238.116.207.311.207.5,0,5.3.022,10.594-.019,15.891a3.508,3.508,0,0,1-3.342,3.359c-.247.014-.5.007-.743.007h-53.63c-2.674,0-4.067-1.394-4.068-4.071q0-17.34,0-34.68c0-2.622,1.407-4.024,4.038-4.024h30.21c.009.449-.266.525-.563.615-.779.236-1.554.491-2.326.749-.218.073-.526.087-.457.451.121.64-.307.563-.706.563q-12.516,0-25.032,0c-1.868,0-2.787.91-2.787,2.762q0,13.887,0,27.773a2.421,2.421,0,0,0,2.743,2.734h51.549a2.429,2.429,0,0,0,2.755-2.723q0-5.086,0-10.174Zm-14.262,17.232c0,1.256,0,1.256,1.268,1.256,1.109,0,1.109,0,1.109-1.12,0-1.256,0-1.256-1.269-1.256C-474.187-430.047-474.187-430.047-474.187-428.927Zm7.131.127c0-1.247,0-1.247-1.2-1.247-1.173,0-1.173,0-1.173,1.2,0,1.173,0,1.173,1.2,1.173C-467.056-427.671-467.056-427.671-467.056-428.8Zm3.581-1.247c-1.2,0-1.2,0-1.2,1.173,0,1.2,0,1.2,1.173,1.2,1.2,0,1.2,0,1.2-1.173C-462.3-430.047-462.3-430.047-463.476-430.047Z" transform="translate(521.728 482.343)" fill="#ccd0d7"/>
      <path id="Trazado_127511" data-name="Trazado 127511" d="M-451.126-434.082v7.706c0,.767-.017,1.535.007,2.3.011.355-.1.5-.457.455a2.752,2.752,0,0,0-.371,0q-25.324,0-50.647.015c-.666,0-.844-.152-.843-.834q.038-13.475,0-26.95c0-.618.146-.765.763-.763q12.328.035,24.655,0c.625,0,.78.155.759.768-.049,1.434,0,2.87-.026,4.305-.007.408.075.662.509.725.12.017.232.1.352.11,1.937.168,2.889,1.371,3.365,3.125a.851.851,0,0,1-.074.686c-.375.723-.737,1.454-1.133,2.166a.575.575,0,0,0,.115.822q2.8,2.761,5.565,5.566c.275.279.5.35.817.122a3,3,0,0,1,.39-.212c2.25-1.147,2.249-1.144,4.52-.157a.752.752,0,0,1,.45.535c.239.8.515,1.6.754,2.4a.542.542,0,0,0,.623.45q3.973-.026,7.946,0c.386,0,.51-.16.606-.473.238-.779.5-1.549.739-2.329C-451.649-433.841-451.57-434.114-451.126-434.082Zm-39.187-10.928q-3.416,0-6.832,0a3.585,3.585,0,0,0-3.9,3.865q0,5.642,0,11.285a3.58,3.58,0,0,0,3.829,3.86q6.869.006,13.738,0a3.574,3.574,0,0,0,3.823-3.792q.009-5.717,0-11.433a3.569,3.569,0,0,0-3.829-3.785Q-486.9-445.015-490.312-445.01Zm2.268-2.376h6.678c1.727,0,1.7,0,1.732-1.706.011-.561-.141-.687-.691-.684-4.749.024-9.5.014-14.246.014-1.743,0-1.723,0-1.73,1.78,0,.489.134.612.615.607C-493.14-447.4-490.592-447.387-488.044-447.387Zm-13-1.237c0,1.237,0,1.237,1.213,1.237,1.164,0,1.164,0,1.164-1.139,0-1.237,0-1.237-1.213-1.237C-501.042-449.763-501.042-449.763-501.042-448.624Zm38.032,21.476c0-1.227,0-1.227-1.223-1.227-1.154,0-1.154,0-1.154,1.149,0,1.227,0,1.227,1.223,1.227C-463.01-426-463.01-426-463.01-427.148Zm4.754.032c0-1.26,0-1.26-1.264-1.26-1.112,0-1.112,0-1.112,1.117,0,1.26,0,1.26,1.265,1.26C-458.256-426-458.256-426-458.256-427.116Zm4.754-.061c0-1.2,0-1.2-1.178-1.2-1.2,0-1.2,0-1.2,1.177,0,1.2,0,1.2,1.178,1.2C-453.5-426-453.5-426-453.5-427.176Z" transform="translate(510.551 471.166)" fill="#83d3ef"/>
      <path id="Trazado_127512" data-name="Trazado 127512" d="M-403.151-482.144c-.076-.149-.138-.283-.21-.411a14.454,14.454,0,0,1-1.461-3.552.908.908,0,0,0-.726-.713c-.732-.212-1.692-.283-2.1-.784-.443-.542-.111-1.516-.13-2.3-.02-.816.017-1.634-.013-2.45-.015-.408.069-.664.518-.72a3.151,3.151,0,0,0,3-2.84,6.06,6.06,0,0,1,.873-1.87.989.989,0,0,0,0-1.084c-.344-.676-1.063-1.367-.907-2.037.144-.619.941-1.09,1.46-1.618.625-.636,1.266-1.255,1.885-1.9a.5.5,0,0,1,.707-.114,5.572,5.572,0,0,0,2.182,1.022c.729.01,1.466-.616,2.2-.958a1.811,1.811,0,0,1,.553-.208c1.562-.148,2.2-1.149,2.407-2.561.094-.644.427-.858,1.106-.823,1.333.069,2.673.037,4.009.01.423-.008.654.108.707.538a3.107,3.107,0,0,0,2.856,2.98,3.612,3.612,0,0,1,1.406.642,1.678,1.678,0,0,0,2.015,0c1.533-.873,1.557-.831,2.816.428.718.717,1.424,1.447,2.158,2.147.291.277.434.523.157.878a3.153,3.153,0,0,0-.118,4.132,5.712,5.712,0,0,1,.681,1.87,1.015,1.015,0,0,0,.864.849c.551.125,1.072.382,1.624.508.441.1.52.327.514.732-.023,1.435-.02,2.871,0,4.306,0,.373-.075.575-.477.683a5.158,5.158,0,0,0-2.2.783c-.508.491-.583,1.426-.858,2.163a3.058,3.058,0,0,1-.385.878c-.841,1.031-.582,1.973.054,3,.606.978.545,1.017-.252,1.815-.875.875-1.766,1.735-2.619,2.631-.292.307-.542.394-.882.132a3.048,3.048,0,0,0-4.061-.119,2.626,2.626,0,0,1-1.168.447,2.119,2.119,0,0,0-1.882,1.9c-.327,1.357-.4,1.339-1.8,1.339-1.164,0-2.327-.015-3.49.008-.389.008-.6-.1-.659-.5a3.1,3.1,0,0,0-2.83-3,2.022,2.022,0,0,1-.947-.4c-1.052-.841-2-.6-3.072.037-1.179.7-.781.724-1.806-.274-.851-.828-1.659-1.7-2.533-2.507a.759.759,0,0,1-.156-1.133c.311-.5.554-1.048.823-1.576C-403.262-481.875-403.209-482.011-403.151-482.144Zm13.165,4.993a13.1,13.1,0,0,0,13.1-13.042,13.091,13.091,0,0,0-13.045-13.1,13.089,13.089,0,0,0-13.1,13.04A13.094,13.094,0,0,0-389.986-477.151Z" transform="translate(443.439 510.436)" fill="#f4c64e"/>
      <path id="Trazado_127513" data-name="Trazado 127513" d="M-460.323-292.433h17.293c1.268,0,1.635.366,1.638,1.626,0,.618.015,1.237,0,1.855a1.19,1.19,0,0,1-1.247,1.268c-.173.009-.346,0-.519,0h-34.511c-1.419,0-1.748-.327-1.749-1.738,0-.47,0-.94,0-1.41,0-1.22.378-1.6,1.585-1.6Q-469.08-292.434-460.323-292.433Z" transform="translate(493.686 358.988)" fill="#969ea8"/>
      <path id="Trazado_127514" data-name="Trazado 127514" d="M-430.65-311.676h-22.473c-.077-.243.123-.368.219-.522a9.526,9.526,0,0,0,1.225-3c.269-1.214.273-1.213,1.561-1.213,5.67,0,11.34.009,17.009-.014.566,0,.756.159.819.714A8.935,8.935,0,0,0-430.65-311.676Z" transform="translate(475.227 375.842)" fill="#aab1bb"/>
      <path id="Trazado_127515" data-name="Trazado 127515" d="M-367.626-339.214c0-1.12,0-1.12,1.108-1.12,1.269,0,1.269,0,1.269,1.256,0,1.12,0,1.12-1.109,1.12C-367.626-337.958-367.626-337.958-367.626-339.214Z" transform="translate(415.167 392.631)"/>
      <path id="Trazado_127516" data-name="Trazado 127516" d="M-349.278-339.087c0,1.129,0,1.129-1.173,1.129-1.2,0-1.2,0-1.2-1.173,0-1.2,0-1.2,1.173-1.2C-349.278-340.334-349.278-340.334-349.278-339.087Z" transform="translate(403.95 392.631)"/>
      <path id="Trazado_127517" data-name="Trazado 127517" d="M-334.481-340.334c1.173,0,1.173,0,1.173,1.2,0,1.173,0,1.173-1.2,1.173-1.173,0-1.173,0-1.173-1.2C-335.684-340.334-335.684-340.334-334.481-340.334Z" transform="translate(392.733 392.631)"/>
      <path id="Trazado_127518" data-name="Trazado 127518" d="M-484.668-428.156q3.416,0,6.832,0a3.569,3.569,0,0,1,3.829,3.785q.01,5.716,0,11.433a3.574,3.574,0,0,1-3.823,3.792q-6.869.006-13.738,0a3.58,3.58,0,0,1-3.829-3.86q0-5.642,0-11.284a3.585,3.585,0,0,1,3.9-3.866Q-488.084-428.159-484.668-428.156Zm-.052,16.635c2.325,0,4.65.007,6.975,0a1.191,1.191,0,0,0,1.357-1.3q.017-5.823,0-11.647a1.176,1.176,0,0,0-1.288-1.3c-.989-.018-1.979.012-2.968-.013-.39-.01-.509.107-.5.5.023,1.211-.021,2.424.022,3.634.019.543-.167.646-.668.639-1.954-.028-3.908-.025-5.862,0-.466.006-.644-.094-.628-.6.039-1.21-.005-2.423.022-3.634.01-.426-.122-.549-.542-.536-.914.029-1.83,0-2.745.01-1.061.007-1.474.419-1.475,1.489q-.005,5.638,0,11.276c0,1.07.415,1.488,1.473,1.491C-489.271-411.517-487-411.521-484.72-411.521Zm-.043-11.882c1.25,0,1.25,0,1.25-1.219a3.478,3.478,0,0,1,0-.516c.08-.524-.137-.722-.651-.644a2.965,2.965,0,0,1-.443,0c-1.287,0-1.287,0-1.287,1.256C-485.89-423.4-485.89-423.4-484.763-423.4Z" transform="translate(504.907 454.311)"/>
      <path id="Trazado_127519" data-name="Trazado 127519" d="M-471.21-441.775c-2.547,0-5.1-.013-7.642.011-.48,0-.617-.118-.615-.607.008-1.78-.012-1.78,1.73-1.78,4.749,0,9.5.01,14.246-.014.55,0,.7.123.691.684-.032,1.705-.005,1.706-1.732,1.706Z" transform="translate(493.717 465.555)"/>
      <path id="Trazado_127520" data-name="Trazado 127520" d="M-495.394-442.98c0-1.139,0-1.139,1.164-1.139,1.213,0,1.213,0,1.213,1.237,0,1.139,0,1.139-1.164,1.139C-495.394-441.743-495.394-441.743-495.394-442.98Z" transform="translate(504.903 465.522)"/>
      <path id="Trazado_127521" data-name="Trazado 127521" d="M-373.235-371.041c0,1.149,0,1.149-1.153,1.149-1.223,0-1.223,0-1.223-1.227,0-1.149,0-1.149,1.154-1.149C-373.235-372.268-373.235-372.268-373.235-371.041Z" transform="translate(420.776 415.059)"/>
      <path id="Trazado_127522" data-name="Trazado 127522" d="M-357.264-371.008c0,1.117,0,1.117-1.112,1.117-1.265,0-1.265,0-1.265-1.26,0-1.117,0-1.117,1.112-1.117C-357.264-372.268-357.264-372.268-357.264-371.008Z" transform="translate(409.559 415.059)"/>
      <path id="Trazado_127523" data-name="Trazado 127523" d="M-341.293-371.069c0,1.177,0,1.177-1.2,1.177-1.178,0-1.178,0-1.178-1.2,0-1.177,0-1.177,1.2-1.177C-341.293-372.268-341.293-372.268-341.293-371.069Z" transform="translate(398.342 415.059)"/>
      <path id="Trazado_127524" data-name="Trazado 127524" d="M-378.54-465.88a13.094,13.094,0,0,1-13.043-13.1,13.089,13.089,0,0,1,13.1-13.04,13.091,13.091,0,0,1,13.045,13.1A13.1,13.1,0,0,1-378.54-465.88Zm-10.665-13.111a10.718,10.718,0,0,0,10.618,10.733,10.72,10.72,0,0,0,10.773-10.654,10.715,10.715,0,0,0-10.62-10.731A10.712,10.712,0,0,0-389.205-478.991Z" transform="translate(431.993 499.166)" fill="#040301"/>
      <path id="Trazado_127525" data-name="Trazado 127525" d="M-479.111-405.934c-2.276,0-4.551,0-6.827,0-1.058,0-1.472-.421-1.473-1.491q-.005-5.638,0-11.276c0-1.069.415-1.482,1.475-1.489.915-.006,1.831.019,2.745-.01.419-.014.551.11.541.536-.027,1.211.017,2.424-.022,3.634-.016.508.162.608.628.6,1.954-.024,3.908-.027,5.862,0,.5.007.687-.1.668-.639-.043-1.21,0-2.423-.022-3.634-.008-.392.112-.51.5-.5.989.025,1.979-.005,2.968.013a1.177,1.177,0,0,1,1.288,1.3q.016,5.824,0,11.647a1.191,1.191,0,0,1-1.357,1.3C-474.461-405.928-476.786-405.934-479.111-405.934Z" transform="translate(499.297 448.725)" fill="#caa072"/>
      <path id="Trazado_127526" data-name="Trazado 127526" d="M-462.325-417.839c-1.127,0-1.127,0-1.127-1.12,0-1.256,0-1.256,1.287-1.256a2.965,2.965,0,0,0,.443,0c.514-.078.731.12.651.644a3.477,3.477,0,0,0,0,.516C-461.075-417.839-461.075-417.839-462.325-417.839Z" transform="translate(482.469 448.748)" fill="#a97b4e"/>
      <path id="Trazado_127527" data-name="Trazado 127527" d="M-383.594-473.381a10.713,10.713,0,0,1,10.772-10.652A10.715,10.715,0,0,1-362.2-473.3a10.72,10.72,0,0,1-10.773,10.654A10.718,10.718,0,0,1-383.594-473.381Zm10.7-5.9a5.956,5.956,0,0,0-5.946,5.935A5.96,5.96,0,0,0-372.9-467.4a5.959,5.959,0,0,0,5.946-5.936A5.954,5.954,0,0,0-372.895-479.281Z" transform="translate(426.382 493.556)" fill="#f3d57e"/>
      <path id="Trazado_127528" data-name="Trazado 127528" d="M-361.678-468.068a5.954,5.954,0,0,1,5.937,5.944,5.959,5.959,0,0,1-5.946,5.936,5.96,5.96,0,0,1-5.937-5.946A5.956,5.956,0,0,1-361.678-468.068Zm-.068,9.5a3.583,3.583,0,0,0,3.626-3.462,3.577,3.577,0,0,0-3.5-3.662,3.58,3.58,0,0,0-3.626,3.461A3.581,3.581,0,0,0-361.747-458.565Z" transform="translate(415.165 482.342)" fill="#040403"/>
      <path id="Trazado_127529" data-name="Trazado 127529" d="M-356.135-452.955a3.581,3.581,0,0,1-3.5-3.664,3.58,3.58,0,0,1,3.626-3.461,3.577,3.577,0,0,1,3.5,3.662A3.583,3.583,0,0,1-356.135-452.955Z" transform="translate(409.554 476.732)" fill="#f5f7f8"/>
    </g>
  </g>
</svg>
