<svg xmlns="http://www.w3.org/2000/svg" width="93" height="93" viewBox="0 0 93 93">
  <g id="Grupo_84798" data-name="Grupo 84798" transform="translate(-824 -4097)">
    <g id="Grupo_84797" data-name="Grupo 84797" transform="translate(16.135 3925.064)">
      <path id="Trazado_123855" data-name="Trazado 123855" d="M829.434,225.09c-1.764,0-3.528-.03-5.291.016-.611.016-.725-.176-.717-.745.026-1.96,0-1.96,1.92-1.96,3.135,0,6.271-.013,9.406.012.574,0,.821-.058.8-.745-.048-1.953-.009-1.954-1.933-1.954-.112,0-.225.008-.336,0-.577-.048-1.508.25-1.659-.113a6.562,6.562,0,0,1-.122-2.3c-.005-.374.289-.264.485-.266,1.008-.009,2.016-.02,3.023,0,.384.009.515-.078.533-.5.092-2.2.107-2.2-2.1-2.2-1.652,0-3.3.006-4.955,0a1.273,1.273,0,0,0-.909.312q-2.624,2.227-5.289,4.4a.86.86,0,0,0-.343,1.045,3.934,3.934,0,0,1-1.735,4.359,4.021,4.021,0,1,1-1.971-7.421,1.332,1.332,0,0,1,.575.086c.965.55,1.607.046,2.313-.569,1.751-1.525,3.564-2.979,5.332-4.484a1.705,1.705,0,0,1,1.211-.427c2.408.02,4.815-.006,7.222.022.506.006.655-.1.654-.637,0-2.062.021-2.059-2.071-2.063-1.287,0-2.717.331-3.82-.124s-1.872-1.7-2.788-2.606q-.149-.147-.3-.3c-.763-.771-1.335-1.535-2.788-1.095-1.635.5-3.384-.777-4.06-2.408a4.021,4.021,0,0,1,5.844-4.945,3.889,3.889,0,0,1,1.73,4.428,1.006,1.006,0,0,0,.346,1.285,3.949,3.949,0,0,1,.358.354c.917.9,1.689,2.2,2.789,2.6,1.264.457,2.817.1,4.244.13.407.009.485-.12.528-.511a6.657,6.657,0,0,1,6.2-6.187c.409-.047.5-.164.494-.545q-.022-3.947,0-7.894a.929.929,0,0,0-.3-.735c-1.456-1.434-2.911-2.869-4.33-4.339-.333-.345-.6-.242-.958-.139a3.81,3.81,0,0,1-4.225-1.289,3.746,3.746,0,0,1-.521-4.314,3.849,3.849,0,0,1,3.8-2.263,3.981,3.981,0,0,1,3.656,5.082,1.041,1.041,0,0,0,.319,1.218c1.6,1.562,3.164,3.17,4.766,4.734a1.462,1.462,0,0,1,.481,1.167c-.021,2.855.007,5.711-.025,8.566-.007.58.125.746.725.737,1.976-.029,1.976,0,1.976-1.99,0-2.132,0-2.116,2.144-2.07.443.009.568.127.554.563-.031.979.014,1.96-.021,2.939-.016.452.136.544.564.553,2.134.045,2.134.058,2.134-2.08,0-2.3-.009-4.591.008-6.887a.89.89,0,0,0-.543-.965,3.9,3.9,0,0,1-2.015-4.527,4.017,4.017,0,0,1,7.788,0,3.925,3.925,0,0,1-2.013,4.532.841.841,0,0,0-.548.877q.036,4.2,0,8.4c0,.5.1.656.635.655,2.063,0,2.063.021,2.063-2.07,0-1.991,0-1.965,1.973-1.993.59-.008.765.14.73.733-.054.92.01,1.848-.025,2.77-.016.447.129.547.561.557,2.137.045,2.26.05,2.1-2.075a4.845,4.845,0,0,1,1.8-4.346c2.145-1.92,4.1-4.056,6.15-6.08a1.029,1.029,0,0,0,.34-1.211,3.948,3.948,0,0,1,1.8-4.553,4.03,4.03,0,0,1,5.5,5.547,3.946,3.946,0,0,1-4.567,1.763.958.958,0,0,0-1.142.317q-3.3,3.347-6.653,6.649a1.484,1.484,0,0,0-.5,1.242c.04.754.027,1.512,0,2.267-.011.352.09.45.455.5a6.649,6.649,0,0,1,6.244,6.239c.045.357.129.467.488.461,1.316-.019,2.632-.017,3.947,0a.92.92,0,0,0,.726-.32c.98-1,1.948-2.012,2.976-2.96.4-.373.209-.677.114-1.04a3.81,3.81,0,0,1,1.375-4.2,3.744,3.744,0,0,1,4.322-.432,3.84,3.84,0,0,1,2.186,3.847,3.979,3.979,0,0,1-5.075,3.575,1.033,1.033,0,0,0-1.218.318c-1.1,1.153-2.267,2.247-3.368,3.4a1.512,1.512,0,0,1-1.242.5c-1.539-.03-3.079.009-4.619-.022-.483-.01-.592.14-.6.606-.023,2.093-.039,2.093,2.038,2.093,2.033,0,2.008,0,2.022,2.028,0,.574-.178.7-.7.671-.894-.041-1.792.012-2.687-.021-.472-.017-.675.051-.675.615,0,2.081-.018,1.952,2.052,2.112a12.7,12.7,0,0,0,8.27-1.976,11.665,11.665,0,0,1,1.2-.6c1.058-.533,2.068-.884,2.158-2.505.094-1.711,1.829-2.906,3.544-3.006a4.028,4.028,0,0,1,2.8,7.135,3.873,3.873,0,0,1-4.682.249,1.216,1.216,0,0,0-1.479-.048c-2.08,1.08-4.191,2.1-6.281,3.158a2.352,2.352,0,0,1-1.12.257c-1.931-.012-3.863.012-5.794-.017-.5-.008-.659.094-.658.633,0,2.066-.022,2.066,2.068,2.066,1.372,0,2.744.016,4.115-.01.432-.008.555.108.565.552.046,2.146.061,2.146-2.069,2.146-1.372,0-2.744.018-4.115-.01-.441-.009-.55.12-.56.557-.045,2.14-.06,2.139,2.075,2.139,3.3,0,6.607.009,9.91-.01a1.416,1.416,0,0,1,1.168.478c.643.7,1.361,1.332,2,2.034a1.068,1.068,0,0,0,1.284.366,3.7,3.7,0,0,1,4.137,1.3,3.755,3.755,0,0,1,.544,4.243,3.843,3.843,0,0,1-3.683,2.326,3.965,3.965,0,0,1-3.819-5.015,1.32,1.32,0,0,0-.363-1.365,4.4,4.4,0,0,0-4.127-1.709c-2.82.145-5.653.052-8.48.027-.5,0-.625.11-.679.625a6.666,6.666,0,0,1-6.056,6.064c-.5.053-.642.16-.634.671q.046,3.4,0,6.8c-.007.523.129.653.646.644,1.875-.034,3.752-.037,5.626,0a.951.951,0,0,0,1-.621,3.963,3.963,0,0,1,4.969-1.8,4.025,4.025,0,0,1-1.79,7.762,3.778,3.778,0,0,1-3.2-2.129.885.885,0,0,0-.961-.549c-2.715.016-5.431-.01-8.146.022-.621.007-.845-.1-.836-.8.044-3.079,0-6.159.033-9.238.005-.566-.1-.756-.715-.747-1.985.029-1.985,0-1.985,1.982,0,2.136,0,2.123-2.135,2.078-.426-.009-.58-.1-.564-.553.035-1.007,0-2.015.019-3.023.008-.363-.1-.458-.468-.478-2.228-.122-2.227-.134-2.227,2.071,0,2.435.014,4.871-.012,7.306a1,1,0,0,0,.552.992q2.933,1.79,5.828,3.642a.827.827,0,0,0,1.033.013,4.018,4.018,0,0,1,5,.675,4.094,4.094,0,0,1-4.1,6.768,4.025,4.025,0,0,1-2.9-4.124,1.117,1.117,0,0,0-.621-1.189c-2.264-1.386-4.493-2.828-6.769-4.193a1.308,1.308,0,0,1-.71-1.328c.03-3.3,0-6.607.03-9.91.006-.594-.148-.737-.734-.729-1.968.028-1.968,0-1.968,2,0,1.819-.024,3.64.014,5.458.011.538-.154.636-.655.636-2.048,0-2.048.019-2.048-2,0-1.792-.015-3.583.01-5.375.007-.5-.05-.725-.654-.72-2.042.016-2.042-.013-2.042,2.01,0,2.435-.013,4.871.011,7.306a1.458,1.458,0,0,1-.49,1.163c-1.622,1.585-3.207,3.207-4.824,4.8a.905.905,0,0,0-.268,1.079,4.024,4.024,0,1,1-2.688-2.7.9.9,0,0,0,1.074-.285c1.332-1.36,2.671-2.713,4.039-4.036a1.45,1.45,0,0,0,.466-1.173q-.031-3.695,0-7.39c.005-.518-.044-.738-.676-.8a6.653,6.653,0,0,1-6.019-6.1c-.049-.478-.18-.588-.633-.581q-2.435.039-4.871,0a.9.9,0,0,0-.861.5q-1.885,2.874-3.816,5.719a.7.7,0,0,0,0,.94,4,4,0,0,1-.374,5.089,4.074,4.074,0,0,1-6.9-3.816,4.02,4.02,0,0,1,4.039-3.017.942.942,0,0,0,.915-.537c1.541-2.332,3.1-4.648,4.635-6.987a1.106,1.106,0,0,1,1.075-.576c2.043.033,4.088-.007,6.13.028.534.009.638-.148.638-.653,0-2.048.019-2.048-2-2.048Zm39.925,8.086a3.726,3.726,0,0,0,1.116-2.873q0-11.915,0-23.829a4.015,4.015,0,0,0-4.208-4.227q-11.915-.011-23.829,0a2.94,2.94,0,0,0-1.538.292,3.861,3.861,0,0,0-2.668,3.76q-.015,12.088,0,24.176a3.97,3.97,0,0,0,3.995,4.014q12.13.03,24.26,0A3.553,3.553,0,0,0,869.359,233.176Zm-44.576-32.309a1.342,1.342,0,1,0-1.287,1.375A1.355,1.355,0,0,0,824.783,200.867Zm61.817.061a1.342,1.342,0,1,0-1.348,1.315A1.35,1.35,0,0,0,886.6,200.928Zm-32.277-13.467a1.343,1.343,0,1,0-1.314-1.347A1.354,1.354,0,0,0,854.322,187.461Zm37.653,25.6a1.342,1.342,0,1,0-1.387,1.277A1.353,1.353,0,0,0,891.975,213.061Zm-72.568,8.011a1.343,1.343,0,1,0-1.338,1.328A1.353,1.353,0,0,0,819.407,221.072Zm71.221,12.08a1.343,1.343,0,1,0,1.346,1.318A1.353,1.353,0,0,0,890.628,233.152ZM877.193,184.8a1.342,1.342,0,1,0-1.345,1.319A1.35,1.35,0,0,0,877.193,184.8Zm-53.754,55.042a1.343,1.343,0,1,0-1.293,1.372A1.353,1.353,0,0,0,823.439,239.841Zm55.1,6.751a1.342,1.342,0,1,0-1.322,1.341A1.348,1.348,0,0,0,878.537,246.592Zm-42.974-65.848a1.343,1.343,0,1,0,1.314,1.35A1.351,1.351,0,0,0,835.563,180.743ZM835.517,256a1.343,1.343,0,1,0-1.325-1.339A1.355,1.355,0,0,0,835.517,256Zm29.592,0a1.342,1.342,0,1,0-1.351-1.311A1.351,1.351,0,0,0,865.11,256Z" fill="#020202"/>
      <path id="Trazado_123856" data-name="Trazado 123856" d="M989.977,239.3c0-1.283,0-1.283,1.321-1.283,1.367,0,1.367,0,1.367,1.4,0,1.283,0,1.283-1.321,1.283C989.977,240.705,989.977,240.705,989.977,239.3Z" transform="translate(-116.814 -39.805)"/>
      <path id="Trazado_123857" data-name="Trazado 123857" d="M948.678,215.436c0,1.277,0,1.277-1.326,1.277-1.361,0-1.361,0-1.361-1.326,0-1.361,0-1.361,1.327-1.361C948.678,214.026,948.678,214.026,948.678,215.436Z" transform="translate(-87.609 -23.875)"/>
      <path id="Trazado_123858" data-name="Trazado 123858" d="M916.688,215.382c0,1.331,0,1.331-1.356,1.331-1.331,0-1.331,0-1.331-1.356,0-1.331,0-1.331,1.356-1.331C916.688,214.026,916.688,214.026,916.688,215.382Z" transform="translate(-66.37 -23.875)"/>
      <path id="Trazado_123859" data-name="Trazado 123859" d="M1009.972,279.289c0-1.283,0-1.283,1.32-1.283,1.367,0,1.367,0,1.367,1.4,0,1.283,0,1.283-1.321,1.283C1009.972,280.693,1009.972,280.693,1009.972,279.289Z" transform="translate(-130.089 -66.354)"/>
      <path id="Trazado_123860" data-name="Trazado 123860" d="M872.7,239.439c0,1.267,0,1.267-1.253,1.267-1.435,0-1.435,0-1.435-1.421,0-1.267,0-1.267,1.253-1.267C872.7,238.018,872.7,238.018,872.7,239.439Z" transform="translate(-37.165 -39.805)"/>
      <path id="Trazado_123861" data-name="Trazado 123861" d="M851.36,296.688c-1.341,0-1.341,0-1.341-1.347s0-1.341,1.346-1.341,1.341,0,1.341,1.346S852.706,296.688,851.36,296.688Z" transform="translate(-23.89 -76.974)"/>
      <path id="Trazado_123862" data-name="Trazado 123862" d="M1019.368,312.683c-1.4,0-1.4,0-1.4-1.372,0-1.315,0-1.315,1.288-1.315,1.4,0,1.4,0,1.4,1.372C1020.656,312.683,1020.656,312.683,1019.368,312.683Z" transform="translate(-135.399 -87.593)"/>
      <path id="Trazado_123863" data-name="Trazado 123863" d="M872.7,351.339c0,1.331,0,1.331-1.356,1.331-1.331,0-1.331,0-1.331-1.356,0-1.331,0-1.331,1.356-1.331C872.7,349.983,872.7,349.983,872.7,351.339Z" transform="translate(-37.165 -114.143)"/>
      <path id="Trazado_123864" data-name="Trazado 123864" d="M989.977,351.255c0-1.272,0-1.272,1.247-1.272,1.44,0,1.44,0,1.44,1.415,0,1.272,0,1.272-1.247,1.272C989.977,352.67,989.977,352.67,989.977,351.255Z" transform="translate(-116.814 -114.143)"/>
      <path id="Trazado_123865" data-name="Trazado 123865" d="M948.678,375.242c0,1.421,0,1.421-1.435,1.421-1.253,0-1.253,0-1.253-1.267,0-1.421,0-1.421,1.435-1.421C948.678,373.975,948.678,373.975,948.678,375.242Z" transform="translate(-87.609 -130.072)"/>
      <path id="Trazado_123866" data-name="Trazado 123866" d="M916.688,387.4c0,1.263,0,1.263-1.257,1.263-1.43,0-1.43,0-1.43-1.425,0-1.262,0-1.262,1.257-1.262C916.688,385.972,916.688,385.972,916.688,387.4Z" transform="translate(-66.37 -138.037)"/>
      <path id="Trazado_123867" data-name="Trazado 123867" d="M893.962,250.305a2.94,2.94,0,0,1,1.538-.292q11.915,0,23.829,0a4.015,4.015,0,0,1,4.208,4.227q.011,11.915,0,23.829a3.726,3.726,0,0,1-1.116,2.873l-22.814-.024a5.4,5.4,0,0,1-5.634-5.622Q893.969,262.8,893.962,250.305Zm13.464,29.27c1.818,0,3.636.027,5.454-.007a3.972,3.972,0,0,0,3.929-3.9c.038-3.635.024-7.271,0-10.907a3.435,3.435,0,0,0-1.7-3.179,1.731,1.731,0,0,1-.977-2,2.93,2.93,0,0,0,0-.335,6.72,6.72,0,0,0-12.177-3.735,7.27,7.27,0,0,0-1.26,4.765c.018.381.057.72-.426.956a3.9,3.9,0,0,0-2.26,3.8c0,3.468-.009,6.936,0,10.4a4.013,4.013,0,0,0,4.129,4.137C903.9,279.588,905.664,279.577,907.426,279.575Z" transform="translate(-53.066 -47.768)" fill="#f4b765"/>
      <path id="Trazado_123868" data-name="Trazado 123868" d="M888.674,250.884q.008,12.5.014,24.994a5.4,5.4,0,0,0,5.634,5.622l22.814.024a3.553,3.553,0,0,1-2.873,1.311q-12.13.023-24.26,0a3.97,3.97,0,0,1-3.995-4.014q-.025-12.088,0-24.176A3.861,3.861,0,0,1,888.674,250.884Z" transform="translate(-47.778 -48.347)" fill="#f2a84e"/>
      <path id="Trazado_123869" data-name="Trazado 123869" d="M840.712,243.325a1.342,1.342,0,1,1-1.354-1.31A1.353,1.353,0,0,1,840.712,243.325Z" transform="translate(-15.929 -42.458)" fill="#8cc853"/>
      <path id="Trazado_123870" data-name="Trazado 123870" d="M1024.657,243.389a1.342,1.342,0,1,1-1.294-1.369A1.352,1.352,0,0,1,1024.657,243.389Z" transform="translate(-138.058 -42.461)" fill="#8cc853"/>
      <path id="Trazado_123871" data-name="Trazado 123871" d="M931.316,200.717a1.343,1.343,0,1,1,1.369-1.294A1.348,1.348,0,0,1,931.316,200.717Z" transform="translate(-76.994 -13.256)" fill="#8cc853"/>
      <path id="Trazado_123872" data-name="Trazado 123872" d="M1040.653,279.415a1.343,1.343,0,1,1-1.255-1.406A1.355,1.355,0,0,1,1040.653,279.415Z" transform="translate(-148.678 -66.355)" fill="#8cc853"/>
      <path id="Trazado_123873" data-name="Trazado 123873" d="M824.71,303.354A1.343,1.343,0,1,1,823.4,302,1.354,1.354,0,0,1,824.71,303.354Z" transform="translate(-5.303 -82.282)" fill="#8cc853"/>
      <path id="Trazado_123874" data-name="Trazado 123874" d="M1039.3,341.984a1.343,1.343,0,1,1-1.339,1.326A1.352,1.352,0,0,1,1039.3,341.984Z" transform="translate(-148.674 -108.832)" fill="#8cc853"/>
      <path id="Trazado_123875" data-name="Trazado 123875" d="M996.666,195.4a1.342,1.342,0,1,1-1.3-1.365A1.352,1.352,0,0,1,996.666,195.4Z" transform="translate(-119.473 -10.602)" fill="#8cc853"/>
      <path id="Trazado_123876" data-name="Trazado 123876" d="M836.709,359.292a1.343,1.343,0,1,1-1.351-1.313A1.356,1.356,0,0,1,836.709,359.292Z" transform="translate(-13.27 -119.451)" fill="#8cc853"/>
      <path id="Trazado_123877" data-name="Trazado 123877" d="M1000.664,379.322a1.342,1.342,0,1,1-1.319-1.343A1.352,1.352,0,0,1,1000.664,379.322Z" transform="translate(-122.127 -132.731)" fill="#8cc853"/>
      <path id="Trazado_123878" data-name="Trazado 123878" d="M875.385,186.032a1.343,1.343,0,1,1-1.369,1.294A1.355,1.355,0,0,1,875.385,186.032Z" transform="translate(-39.822 -5.289)" fill="#8cc853"/>
      <path id="Trazado_123879" data-name="Trazado 123879" d="M875.338,404.65a1.343,1.343,0,1,1,1.36-1.305A1.35,1.35,0,0,1,875.338,404.65Z" transform="translate(-39.821 -148.655)" fill="#8cc853"/>
      <path id="Trazado_123880" data-name="Trazado 123880" d="M963.342,404.655a1.342,1.342,0,1,1,1.332-1.331A1.348,1.348,0,0,1,963.342,404.655Z" transform="translate(-98.233 -148.659)" fill="#8cc853"/>
      <path id="Trazado_123881" data-name="Trazado 123881" d="M915.413,284.9c-1.762,0-3.524.012-5.286,0A4.013,4.013,0,0,1,906,280.766c-.013-3.468,0-6.936,0-10.4a3.9,3.9,0,0,1,2.26-3.8c.483-.236.444-.575.426-.956a7.27,7.27,0,0,1,1.26-4.765,6.72,6.72,0,0,1,12.178,3.735,2.958,2.958,0,0,1,0,.335,1.732,1.732,0,0,0,.977,2,3.435,3.435,0,0,1,1.7,3.179c.021,3.636.034,7.272,0,10.907a3.972,3.972,0,0,1-3.929,3.9C919.049,284.93,917.231,284.9,915.413,284.9Zm-5.381-16.1c-.961.15-1.341.536-1.344,1.468q-.017,5.237,0,10.474a1.319,1.319,0,0,0,1.458,1.461q5.237.021,10.475,0c.932,0,1.318-.384,1.469-1.344.009-3.554.029-7.108.021-10.662a1.3,1.3,0,0,0-1.419-1.419C917.14,268.78,913.586,268.8,910.032,268.808Zm5.286-2.716c1.174,0,2.348.008,3.522-.007.211,0,.486.143.6-.249a4.275,4.275,0,0,0-3.824-5.113,4.22,4.22,0,0,0-4.253,5.028c.063.393.279.34.521.341Q913.6,266.094,915.317,266.092Z" transform="translate(-61.053 -53.096)" fill="#010101"/>
      <path id="Trazado_123882" data-name="Trazado 123882" d="M918,290.043c3.554-.009,7.108-.028,10.663-.021a1.3,1.3,0,0,1,1.418,1.419c.008,3.554-.012,7.108-.021,10.662H924.7c.005-.728.04-1.456.006-2.182a.941.941,0,0,1,.585-1.036,3.944,3.944,0,0,0,2.056-4.227,4.047,4.047,0,0,0-7.727-.792,3.678,3.678,0,0,0,1.218,4.572,2.4,2.4,0,0,1,1.194,2.659c-.027.333.006.671.012,1.006-.391,0-.781.006-1.172,0a2.648,2.648,0,0,1-2.875-2.86Q917.995,294.645,918,290.043Z" transform="translate(-69.024 -74.331)" fill="#286ee6"/>
      <path id="Trazado_123883" data-name="Trazado 123883" d="M925.8,271.386q-1.719,0-3.438,0c-.242,0-.457.051-.521-.341a4.22,4.22,0,0,1,4.253-5.028,4.275,4.275,0,0,1,3.824,5.113c-.111.393-.386.247-.6.249C928.15,271.394,926.976,271.386,925.8,271.386Z" transform="translate(-71.537 -58.39)" fill="#f3b665"/>
      <path id="Trazado_123884" data-name="Trazado 123884" d="M922.039,302.148H927.4c-.151.96-.537,1.341-1.469,1.344q-5.238.017-10.475,0A1.32,1.32,0,0,1,914,302.029q-.021-5.237,0-10.474c0-.932.383-1.318,1.344-1.468q0,4.6,0,9.206a2.649,2.649,0,0,0,2.875,2.86c.391,0,.781,0,1.172,0Z" transform="translate(-66.362 -74.375)" fill="#225fc5"/>
      <path id="Trazado_123885" data-name="Trazado 123885" d="M927.28,304.732h-2.655c-.006-.336-.038-.673-.012-1.007a2.4,2.4,0,0,0-1.194-2.659A3.679,3.679,0,0,1,922.2,296.5a4.047,4.047,0,0,1,7.727.792,3.944,3.944,0,0,1-2.056,4.227.941.941,0,0,0-.585,1.036C927.32,303.276,927.286,304,927.28,304.732Zm.015-6.68a1.344,1.344,0,1,0-1.359,1.308A1.352,1.352,0,0,0,927.3,298.053Z" transform="translate(-71.603 -76.959)" fill="#000102"/>
      <path id="Trazado_123886" data-name="Trazado 123886" d="M932.68,303.374A1.344,1.344,0,1,1,931.392,302,1.352,1.352,0,0,1,932.68,303.374Z" transform="translate(-76.987 -82.281)" fill="#e5e6e6"/>
    </g>
    <rect id="Rectángulo_34442" data-name="Rectángulo 34442" width="93" height="93" transform="translate(824 4097)" fill="none"/>
  </g>
</svg>
