<svg xmlns="http://www.w3.org/2000/svg" xmlns:xlink="http://www.w3.org/1999/xlink" width="96" height="96" viewBox="0 0 96 96">
  <defs>
    <clipPath id="clip-path">
      <rect id="Rectángulo_36551" data-name="Rectángulo 36551" width="96" height="96" fill="#fff" stroke="#707070" stroke-width="1"/>
    </clipPath>
  </defs>
  <g id="Grupo_85688" data-name="Grupo 85688" clip-path="url(#clip-path)">
    <g id="Grupo_85798" data-name="Grupo 85798" transform="translate(-629.074 323.333)">
      <path id="Trazado_127081" data-name="Trazado 127081" d="M677.071-235.021q-18.256,0-36.512,0a9.721,9.721,0,0,1-9.977-10.326,9.7,9.7,0,0,1,1.495-4.7q15.832-26.214,31.657-52.431c1.67-2.767,3.325-5.543,5.01-8.3a9.564,9.564,0,0,1,16.677.013q18.36,30.35,36.66,60.736a9.778,9.778,0,0,1-5.977,14.741,11.52,11.52,0,0,1-2.7.268Q695.236-235.026,677.071-235.021ZM714.3-238.2a5.183,5.183,0,0,0,2.834-.791c3.428-2.01,4.311-6.1,2.138-9.7q-13.186-21.824-26.357-43.657c-3.408-5.645-6.8-11.3-10.223-16.935a6.157,6.157,0,0,0-5.271-3.175,6.233,6.233,0,0,0-6.015,3.289q-5.544,9.153-11.063,18.321-12.773,21.155-25.549,42.308a7.122,7.122,0,0,0-1.12,3.5,6.656,6.656,0,0,0,7,6.922q36.274,0,72.547,0C713.581-238.122,713.941-238.175,714.3-238.2Z" fill="#030202"/>
      <path id="Trazado_127082" data-name="Trazado 127082" d="M719.71-232.65c-.36.028-.72.08-1.081.081q-36.274.005-72.547,0a6.656,6.656,0,0,1-7-6.922,7.122,7.122,0,0,1,1.12-3.5q12.779-21.151,25.549-42.308,5.531-9.161,11.063-18.321a6.233,6.233,0,0,1,6.015-3.289c.621.963,1.558,1.647,2.157,2.657,3.6,6.073,7.255,12.114,10.906,18.157q6.647,11,13.316,21.988,6.133,10.148,12.238,20.314a8.172,8.172,0,0,1,.4,8.357A24.075,24.075,0,0,1,719.71-232.65Zm-37.2-4.592c4.572,0,9.143.009,13.715,0a4.54,4.54,0,0,0,4.841-4.74q.035-12.3,0-24.6a4.47,4.47,0,0,0-3.962-4.654c-.561-.1-.675-.338-.655-.841a12.96,12.96,0,0,0-.131-2.534c-.874-5.613-3.957-9.534-9.287-11.4-5.314-1.862-10.167-.687-14.261,3.179a13.641,13.641,0,0,0-4.253,10.623c.008.452.08.847-.6.97a4.5,4.5,0,0,0-4.011,4.884q-.012,12.074,0,24.15a4.594,4.594,0,0,0,4.981,4.969Q675.7-237.233,682.512-237.242Z" transform="translate(-5.408 -5.552)" fill="#d5cef8"/>
      <path id="Trazado_127083" data-name="Trazado 127083" d="M796.146-232.628a24.078,24.078,0,0,0,2.138-2.782,8.172,8.172,0,0,0-.4-8.357q-6.1-10.166-12.238-20.314-6.647-11-13.316-21.988c-3.651-6.043-7.306-12.084-10.906-18.157-.6-1.01-1.536-1.694-2.157-2.657a6.157,6.157,0,0,1,5.271,3.175c3.424,5.635,6.816,11.29,10.223,16.935q13.176,21.83,26.357,43.657c2.174,3.6,1.291,7.686-2.138,9.7A5.183,5.183,0,0,1,796.146-232.628Z" transform="translate(-81.845 -5.574)" fill="#ab9df1"/>
      <path id="Trazado_127084" data-name="Trazado 127084" d="M725.878-202.244q-6.812,0-13.624,0a4.594,4.594,0,0,1-4.981-4.969q-.014-12.075,0-24.15a4.5,4.5,0,0,1,4.011-4.884c.682-.124.61-.518.6-.97a13.641,13.641,0,0,1,4.253-10.623c4.095-3.866,8.948-5.041,14.261-3.179,5.329,1.868,8.413,5.789,9.287,11.4a12.965,12.965,0,0,1,.131,2.534c-.021.5.093.743.655.841a4.47,4.47,0,0,1,3.962,4.654q.029,12.3,0,24.6a4.54,4.54,0,0,1-4.841,4.74C735.022-202.235,730.45-202.244,725.878-202.244Zm11.97-3.133c.392.011.784.032,1.177.032,1.944,0,2.316-.372,2.316-2.327,0-7.527-.049-15.054.024-22.58.03-3.114-.714-3.012-3.162-2.951a.771.771,0,0,0-.175.046,2.33,2.33,0,0,0-.357-.054q-12.757,0-25.514,0c-1.307,0-1.784.548-1.785,1.952q-.005,11.981,0,23.961c0,1.459.5,1.951,1.964,1.952q6.81,0,13.619,0Q731.9-205.351,737.849-205.376Zm-2.72-30.964a3.8,3.8,0,0,1,.634.005c.84.145,1.022-.246.982-1.015a17.7,17.7,0,0,0-.227-2.527,10.942,10.942,0,0,0-11.434-8.833,10.916,10.916,0,0,0-10.089,10.9c-.012,1.739-.241,1.438,1.491,1.471.3.006.609-.029.907.007.582.071.735-.193.7-.73a8.584,8.584,0,0,1,.23-2.612A7.779,7.779,0,0,1,726.4-245.6a7.784,7.784,0,0,1,7.228,7.8C733.655-236.34,733.655-236.34,735.128-236.34Zm-9.264-.006h2.722c2.156,0,2.156,0,1.843-2.207a4.59,4.59,0,0,0-5.215-3.9,4.866,4.866,0,0,0-4.038,5.637c.069.5.359.472.695.472Z" transform="translate(-48.775 -40.551)" fill="#040301"/>
      <path id="Trazado_127085" data-name="Trazado 127085" d="M743.271-172.755q-5.946.017-11.892.033-6.81.009-13.619,0c-1.463,0-1.963-.493-1.964-1.952q-.006-11.98,0-23.961c0-1.4.478-1.95,1.785-1.952q12.757-.016,25.514,0a2.328,2.328,0,0,1,.357.054c.015.51.2.992.194,1.514q-.024,12.4,0,24.8A2.524,2.524,0,0,1,743.271-172.755ZM731.28-197.487a7.73,7.73,0,0,0-7.239,4.961,7.683,7.683,0,0,0,2.007,8.459,1.577,1.577,0,0,1,.577,1.32,17.889,17.889,0,0,0,.07,2.988,4.614,4.614,0,0,0,4.6,3.943,4.61,4.61,0,0,0,4.571-3.976,15.125,15.125,0,0,0,.063-2.806,1.846,1.846,0,0,1,.667-1.558,7.664,7.664,0,0,0,1.86-8.567A7.644,7.644,0,0,0,731.28-197.487Z" transform="translate(-54.198 -73.172)" fill="#f8db4a"/>
      <path id="Trazado_127086" data-name="Trazado 127086" d="M748.6-230.868c-1.473,0-1.473,0-1.5-1.46a7.784,7.784,0,0,0-7.228-7.8A7.779,7.779,0,0,0,731.8-234.2a8.58,8.58,0,0,0-.23,2.612c.033.537-.12.8-.7.73-.3-.036-.6,0-.907-.007-1.732-.033-1.5.268-1.491-1.471a10.916,10.916,0,0,1,10.089-10.9,10.942,10.942,0,0,1,11.434,8.833,17.709,17.709,0,0,1,.228,2.527c.04.768-.142,1.159-.982,1.015A3.8,3.8,0,0,0,748.6-230.868Z" transform="translate(-62.246 -46.023)" fill="#9b9b9b"/>
      <path id="Trazado_127087" data-name="Trazado 127087" d="M791.277-172.766a2.524,2.524,0,0,0,.37-1.46q-.016-12.4,0-24.8c0-.523-.179-1-.194-1.514a.772.772,0,0,1,.175-.046c2.448-.06,3.192-.163,3.161,2.951-.073,7.526-.024,15.053-.024,22.58,0,1.955-.372,2.33-2.316,2.327C792.062-172.734,791.669-172.755,791.277-172.766Z" transform="translate(-102.203 -73.161)" fill="#f4c144"/>
      <path id="Trazado_127088" data-name="Trazado 127088" d="M750.075-219.962h-3.992c-.336,0-.626.031-.695-.472a4.866,4.866,0,0,1,4.038-5.637,4.59,4.59,0,0,1,5.215,3.9c.313,2.207.313,2.207-1.843,2.207Z" transform="translate(-72.986 -56.935)" fill="#d5cef8"/>
      <path id="Trazado_127089" data-name="Trazado 127089" d="M744.785-192.059a7.644,7.644,0,0,1,7.177,4.764,7.664,7.664,0,0,1-1.86,8.567,1.846,1.846,0,0,0-.667,1.558,15.136,15.136,0,0,1-.063,2.806,4.61,4.61,0,0,1-4.571,3.976,4.614,4.614,0,0,1-4.6-3.943,17.889,17.889,0,0,1-.07-2.988,1.577,1.577,0,0,0-.577-1.32,7.683,7.683,0,0,1-2.007-8.459A7.73,7.73,0,0,1,744.785-192.059Zm0,3.116a4.55,4.55,0,0,0-4.4,3.167,4.562,4.562,0,0,0,1.743,5.216,2.39,2.39,0,0,1,1.156,2.283c-.031.968-.012,1.937,0,2.9.009,1.206.536,1.87,1.482,1.886.97.016,1.524-.673,1.532-1.927.006-1,.018-2,0-3a2.272,2.272,0,0,1,1.114-2.12,4.571,4.571,0,0,0,1.815-5.181A4.535,4.535,0,0,0,744.781-188.943Z" transform="translate(-67.702 -78.599)" fill="#040301"/>
      <path id="Trazado_127090" data-name="Trazado 127090" d="M750.242-183.5a4.535,4.535,0,0,1,4.438,3.234,4.571,4.571,0,0,1-1.815,5.181,2.272,2.272,0,0,0-1.114,2.12c.021,1,.009,2,0,3-.008,1.253-.562,1.943-1.532,1.927-.945-.016-1.472-.679-1.482-1.886-.008-.968-.026-1.937,0-2.9a2.39,2.39,0,0,0-1.156-2.283,4.562,4.562,0,0,1-1.743-5.216A4.55,4.55,0,0,1,750.242-183.5Z" transform="translate(-73.163 -84.044)" fill="#935334"/>
    </g>
  </g>
</svg>
