<svg xmlns="http://www.w3.org/2000/svg" xmlns:xlink="http://www.w3.org/1999/xlink" width="295" height="278.568" viewBox="0 0 295 278.568">
  <defs>
    <linearGradient id="linear-gradient" x1="0.382" y1="0.838" x2="0.621" y2="0.154" gradientUnits="objectBoundingBox">
      <stop offset="0" stop-color="#eaf4f8"/>
      <stop offset="0.444" stop-color="#c9e3ec"/>
      <stop offset="1" stop-color="#92c1cf"/>
    </linearGradient>
    <linearGradient id="linear-gradient-2" x1="0.983" y1="0.419" x2="0.023" y2="0.58" gradientUnits="objectBoundingBox">
      <stop offset="0" stop-color="#fafdfd"/>
      <stop offset="1" stop-color="#daebf2"/>
    </linearGradient>
    <linearGradient id="linear-gradient-3" y1="0.5" x2="1" y2="0.5" gradientUnits="objectBoundingBox">
      <stop offset="0" stop-color="#826be9"/>
      <stop offset="1" stop-color="#583ae2"/>
    </linearGradient>
    <linearGradient id="linear-gradient-4" x1="0.371" y1="0.759" x2="0.667" y2="0.164" gradientUnits="objectBoundingBox">
      <stop offset="0" stop-color="#c9e3ec"/>
      <stop offset="1" stop-color="#92c1cf"/>
    </linearGradient>
    <linearGradient id="linear-gradient-5" x1="0.257" y1="0.962" x2="0.536" y2="0.39" gradientUnits="objectBoundingBox">
      <stop offset="0" stop-color="#d5cef8"/>
      <stop offset="1" stop-color="#ab9df1"/>
    </linearGradient>
    <linearGradient id="linear-gradient-6" x1="-0.166" y1="1.547" x2="0.697" y2="0.275" xlink:href="#linear-gradient-5"/>
    <linearGradient id="linear-gradient-7" x1="0.379" y1="0.718" x2="0.624" y2="0.275" xlink:href="#linear-gradient-5"/>
    <linearGradient id="linear-gradient-8" y1="0.5" x2="1" y2="0.5" gradientUnits="objectBoundingBox">
      <stop offset="0" stop-color="#fafdfd"/>
      <stop offset="1" stop-color="#f3f9fb"/>
    </linearGradient>
    <linearGradient id="linear-gradient-10" x1="1.01" y1="0.5" x2="-0.006" y2="0.5" gradientUnits="objectBoundingBox">
      <stop offset="0" stop-color="#4bf991"/>
      <stop offset="0.227" stop-color="#a9ffcc"/>
      <stop offset="0.434" stop-color="#63fca1"/>
    </linearGradient>
    <linearGradient id="linear-gradient-11" x1="0.589" y1="-0.245" x2="0.466" y2="0.784" gradientUnits="objectBoundingBox">
      <stop offset="0.035" stop-color="#4bf991"/>
      <stop offset="0.247" stop-color="#5af99a"/>
      <stop offset="0.656" stop-color="#82fcb3"/>
      <stop offset="1" stop-color="#a9ffcc"/>
    </linearGradient>
    <linearGradient id="linear-gradient-12" x1="1.371" y1="0.811" x2="-0.525" y2="0.005" gradientUnits="objectBoundingBox">
      <stop offset="0" stop-color="#92c1cf"/>
      <stop offset="0.606" stop-color="#c9e3ec"/>
      <stop offset="1" stop-color="#eaf4f8"/>
    </linearGradient>
    <radialGradient id="radial-gradient" cx="-0.18" cy="1.058" r="0.857" gradientTransform="translate(-0.158) scale(1.315 1)" gradientUnits="objectBoundingBox">
      <stop offset="0" stop-color="#a9ffcc"/>
      <stop offset="0.015" stop-color="#a3f6c5"/>
      <stop offset="0.132" stop-color="#7dbd97"/>
      <stop offset="0.252" stop-color="#5c8b6f"/>
      <stop offset="0.373" stop-color="#3f604d"/>
      <stop offset="0.494" stop-color="#283d31"/>
      <stop offset="0.617" stop-color="#16221b"/>
      <stop offset="0.741" stop-color="#0a0f0c"/>
      <stop offset="0.867" stop-color="#020303"/>
      <stop offset="1"/>
    </radialGradient>
    <radialGradient id="radial-gradient-2" cx="-0.549" cy="1.1" r="0.945" gradientTransform="translate(-2.392) scale(5.783 1)" xlink:href="#radial-gradient"/>
    <linearGradient id="linear-gradient-13" x1="0.621" y1="0.52" x2="-1.719" y2="0.119" xlink:href="#linear-gradient-12"/>
    <linearGradient id="linear-gradient-14" x1="0.971" y1="0.563" x2="-1.189" y2="0.242" xlink:href="#linear-gradient-12"/>
    <linearGradient id="linear-gradient-15" x1="1.285" y1="0.628" x2="-0.961" y2="0.261" gradientUnits="objectBoundingBox">
      <stop offset="0" stop-color="#ffe4a7"/>
      <stop offset="1"/>
    </linearGradient>
    <linearGradient id="linear-gradient-16" x1="1.755" y1="0.771" x2="-1.351" y2="0.119" xlink:href="#linear-gradient-15"/>
    <linearGradient id="linear-gradient-17" x1="1.344" y1="0.821" x2="-0.486" y2="-0.013" xlink:href="#linear-gradient-12"/>
    <radialGradient id="radial-gradient-3" cx="-0.18" cy="1.058" r="0.952" gradientTransform="translate(-0.092) scale(1.184 1)" xlink:href="#radial-gradient"/>
    <radialGradient id="radial-gradient-4" cx="-0.549" cy="1.1" r="1.03" gradientTransform="translate(-2.123) scale(5.246 1)" xlink:href="#radial-gradient"/>
    <linearGradient id="linear-gradient-18" x1="0.593" y1="0.518" x2="-1.457" y2="0.119" xlink:href="#linear-gradient-12"/>
    <linearGradient id="linear-gradient-19" x1="0.957" y1="0.566" x2="-1.14" y2="0.231" xlink:href="#linear-gradient-12"/>
    <linearGradient id="linear-gradient-20" x1="1.14" y1="0.621" x2="-0.756" y2="0.263" xlink:href="#linear-gradient-15"/>
    <linearGradient id="linear-gradient-21" x1="1.696" y1="0.779" x2="-1.268" y2="0.109" xlink:href="#linear-gradient-15"/>
    <linearGradient id="linear-gradient-22" x1="0.335" y1="0.172" x2="0.484" y2="0.59" xlink:href="#linear-gradient-15"/>
    <linearGradient id="linear-gradient-23" x1="1.042" y1="0.36" x2="-1.091" y2="1.043" xlink:href="#linear-gradient-15"/>
  </defs>
  <g id="Grupo_85796" data-name="Grupo 85796" transform="translate(-792.476 -91.098)">
    <g id="Grupo_85784" data-name="Grupo 85784" transform="translate(792.476 91.098)">
      <path id="Trazado_126953" data-name="Trazado 126953" d="M937.321,351.936,796.238,270.482c-2.483-1.434-3.721-3.344-3.761-5.35,0-.065,0-6.924,0-6.989.044-2.439,1.846,1.8,5.321-.211l80.068-46.227c6.433-3.714,16.165-4.117,21.736-.9l141.084,81.455c1.859,1.073,3.208-3.484,3.69-2.035.161.482.059,6.877.069,7.377.053,2.5-1.751,5.146-5.321,7.206l-80.068,46.228C952.624,354.75,942.892,355.153,937.321,351.936Z" transform="translate(-792.476 -75.54)" fill="#7cbac4"/>
      <path id="Trazado_126954" data-name="Trazado 126954" d="M937.321,345.879,796.238,264.424c-5.571-3.217-4.873-8.835,1.56-12.55l80.068-46.227c6.433-3.714,16.165-4.117,21.736-.9L1040.686,286.2c5.571,3.217,4.873,8.836-1.562,12.55l-80.068,46.227C952.624,348.692,942.892,349.095,937.321,345.879Z" transform="translate(-792.476 -76.342)" fill="url(#linear-gradient)"/>
      <path id="Trazado_126955" data-name="Trazado 126955" d="M1044.465,286.436c-.007,1.475-.024,2.809-.019,3.027.053,2.5-1.751,5.147-5.32,7.208L959.057,342.9c-6.433,3.714-16.165,4.117-21.736.9L796.238,262.343c-2.483-1.434-3.721-3.344-3.761-5.35,0-.027,0-1.3,0-2.754,0,2.042,0,4.815,0,4.856.04,2.007,1.277,3.917,3.761,5.35L937.321,345.9c5.571,3.217,15.3,2.814,21.736-.9l80.069-46.228c3.569-2.061,5.373-4.708,5.32-7.206C1044.439,291.243,1044.478,288.49,1044.465,286.436Z" transform="translate(-792.476 -69.503)" fill="#7cbac4" style="mix-blend-mode: multiply;isolation: isolate"/>
      <path id="Trazado_126956" data-name="Trazado 126956" d="M1039.124,291.069,959.057,337.3c-6.433,3.714-16.165,4.118-21.736.9L796.238,256.742c-2.312-1.334-3.527-3.083-3.719-4.937-.29,2.276.926,4.491,3.719,6.1l141.083,81.455c5.571,3.216,15.3,2.813,21.736-.9l80.068-46.227c3.765-2.174,5.55-5,5.279-7.612C1044.116,286.888,1042.335,289.215,1039.124,291.069Z" transform="translate(-792.476 -69.825)" fill="#fff"/>
      <path id="Trazado_126957" data-name="Trazado 126957" d="M1027.806,297.47,889.044,217.356a11.618,11.618,0,0,1-5.356-13.276L913.917,99.509a11.617,11.617,0,0,1,16.973-6.849l138.763,80.115a11.618,11.618,0,0,1,5.355,13.275L1044.78,290.623A11.619,11.619,0,0,1,1027.806,297.47Z" transform="translate(-780.462 -91.098)" fill="#9bcddb"/>
      <path id="Trazado_126958" data-name="Trazado 126958" d="M1025.319,297.779,886.556,217.665A11.618,11.618,0,0,1,881.2,204.39L911.429,99.818A11.618,11.618,0,0,1,928.4,92.971l138.762,80.114a11.617,11.617,0,0,1,5.355,13.275l-30.228,104.572A11.617,11.617,0,0,1,1025.319,297.779Z" transform="translate(-780.792 -91.057)" fill="url(#linear-gradient-2)"/>
      <path id="Trazado_126959" data-name="Trazado 126959" d="M1030.373,292.3a5.224,5.224,0,0,1-2.64-.718L888.972,211.469a5.305,5.305,0,0,1-2.449-6.072l30.225-104.565a5.3,5.3,0,0,1,5.126-3.857,5.218,5.218,0,0,1,2.64.718l138.762,80.114a5.306,5.306,0,0,1,2.45,6.072L1035.5,288.444A5.3,5.3,0,0,1,1030.373,292.3Z" transform="translate(-780.055 -90.32)" fill="#583ae2"/>
      <path id="Trazado_126960" data-name="Trazado 126960" d="M1030.25,291.129a4.182,4.182,0,0,1-2.114-.579L889.374,210.436a4.256,4.256,0,0,1-1.966-4.87L917.635,101a4.255,4.255,0,0,1,4.116-3.1,4.182,4.182,0,0,1,2.114.579l138.762,80.114a4.254,4.254,0,0,1,1.966,4.871l-30.226,104.564A4.254,4.254,0,0,1,1030.25,291.129Z" transform="translate(-779.932 -90.197)" fill="url(#linear-gradient-3)"/>
      <path id="Trazado_126961" data-name="Trazado 126961" d="M1062.524,173.084,923.762,92.97a11.513,11.513,0,0,0-7.958-1.348,11.5,11.5,0,0,1,7.051,1.477l138.763,80.114a11.618,11.618,0,0,1,5.355,13.275L1036.746,291.06a11.587,11.587,0,0,1-9.016,8.195,11.593,11.593,0,0,0,9.922-8.324l30.228-104.572A11.618,11.618,0,0,0,1062.524,173.084Z" transform="translate(-776.151 -91.056)" fill="#fff"/>
      <path id="Trazado_126962" data-name="Trazado 126962" d="M956.1,314.017,841.537,247.872c-2.294-1.325-2.007-3.638.642-5.168l43.013-24.834c2.65-1.529,6.656-1.7,8.95-.37l114.568,66.145c2.294,1.324,2.005,3.638-.643,5.167l-43.013,24.834C962.405,315.176,958.4,315.341,956.1,314.017Z" transform="translate(-786.187 -74.484)" fill="#7cbac4" style="mix-blend-mode: multiply;isolation: isolate"/>
      <path id="Trazado_126963" data-name="Trazado 126963" d="M886.923,222.265l7.341,4.238a3.724,3.724,0,0,0,3.37.006,1.027,1.027,0,0,0-.01-1.945l-7.341-4.24a3.727,3.727,0,0,0-3.371-.006A1.028,1.028,0,0,0,886.923,222.265Zm12.569,7.256,3.477,2.009a3.726,3.726,0,0,0,3.371.006,1.028,1.028,0,0,0-.011-1.947l-3.478-2.008a3.724,3.724,0,0,0-3.37-.006A1.027,1.027,0,0,0,899.492,229.522Zm8.707,5.027,3.477,2.008a3.724,3.724,0,0,0,3.37.007,1.028,1.028,0,0,0-.01-1.947l-3.477-2.008a3.727,3.727,0,0,0-3.371-.006A1.027,1.027,0,0,0,908.2,234.548Zm8.706,5.027,3.477,2.008a3.724,3.724,0,0,0,3.37.007,1.027,1.027,0,0,0-.01-1.947l-3.477-2.008a3.724,3.724,0,0,0-3.37-.006A1.027,1.027,0,0,0,916.905,239.575Zm8.706,5.027,3.478,2.008a3.723,3.723,0,0,0,3.371.006,1.027,1.027,0,0,0-.011-1.945l-3.478-2.008a3.724,3.724,0,0,0-3.37-.006A1.027,1.027,0,0,0,925.611,244.6Zm8.706,5.027,3.479,2.008a3.724,3.724,0,0,0,3.37.006,1.027,1.027,0,0,0-.01-1.945l-3.477-2.008a3.727,3.727,0,0,0-3.371-.007A1.028,1.028,0,0,0,934.316,249.628Zm8.707,5.027,3.477,2.008a3.724,3.724,0,0,0,3.37.006,1.027,1.027,0,0,0-.01-1.945l-3.478-2.008a3.726,3.726,0,0,0-3.371-.007A1.027,1.027,0,0,0,943.023,254.655Zm8.706,5.027,3.478,2.008a3.727,3.727,0,0,0,3.371.006,1.027,1.027,0,0,0-.011-1.945l-3.478-2.009a3.724,3.724,0,0,0-3.37-.006A1.028,1.028,0,0,0,951.729,259.681Zm8.706,5.025,3.478,2.008a3.723,3.723,0,0,0,3.371.007,1.028,1.028,0,0,0-.01-1.947l-3.478-2.008a3.726,3.726,0,0,0-3.371-.006A1.027,1.027,0,0,0,960.434,264.707Zm8.707,5.027,3.478,2.008a3.724,3.724,0,0,0,3.37.007,1.028,1.028,0,0,0-.01-1.947l-3.478-2.008a3.727,3.727,0,0,0-3.371-.006A1.027,1.027,0,0,0,969.141,269.733Zm8.706,5.027,3.478,2.008a3.726,3.726,0,0,0,3.371.007,1.028,1.028,0,0,0-.011-1.947l-3.478-2.008a3.724,3.724,0,0,0-3.37-.006A1.027,1.027,0,0,0,977.847,274.76Zm8.706,5.027,3.477,2.008a3.727,3.727,0,0,0,3.371.006,1.027,1.027,0,0,0-.011-1.945l-3.478-2.008a3.724,3.724,0,0,0-3.37-.007A1.028,1.028,0,0,0,986.553,279.786Zm8.888,5.131,3.478,2.008a3.724,3.724,0,0,0,3.37.007,1.028,1.028,0,0,0-.01-1.947l-3.478-2.008a3.726,3.726,0,0,0-3.371-.006A1.027,1.027,0,0,0,995.441,284.917ZM879.093,227.055l3.01,1.738a4.241,4.241,0,0,0,3.836.007l2.992-1.727a1.169,1.169,0,0,0-.012-2.215l-3.01-1.738a4.238,4.238,0,0,0-3.836-.007l-2.992,1.727A1.169,1.169,0,0,0,879.093,227.055Zm15.552,6.772,2.992-1.728a1.168,1.168,0,0,0-.011-2.214l-3.011-1.738a4.235,4.235,0,0,0-3.835-.007l-2.993,1.727a1.169,1.169,0,0,0,.012,2.215l3.011,1.738A4.239,4.239,0,0,0,894.645,233.827Zm1.859,3.282,3.011,1.738a4.245,4.245,0,0,0,3.836.007l2.992-1.728a1.169,1.169,0,0,0-.012-2.214l-3.011-1.738a4.239,4.239,0,0,0-3.835-.008l-2.992,1.728A1.169,1.169,0,0,0,896.5,237.108Zm8.707,5.025,3.01,1.738a4.241,4.241,0,0,0,3.836.008l2.992-1.728a1.169,1.169,0,0,0-.012-2.215l-3.01-1.738a4.245,4.245,0,0,0-3.836-.007L905.2,239.92A1.168,1.168,0,0,0,905.211,242.134Zm18.532,2.83-3.011-1.738a4.239,4.239,0,0,0-3.835-.007l-2.993,1.728a1.169,1.169,0,0,0,.012,2.214l3.011,1.738a4.235,4.235,0,0,0,3.835.007l2.992-1.727A1.169,1.169,0,0,0,923.743,244.964Zm8.706,5.027-3.011-1.738a4.239,4.239,0,0,0-3.835-.007l-2.992,1.727a1.169,1.169,0,0,0,.011,2.215l3.011,1.738a4.235,4.235,0,0,0,3.835.007l2.993-1.727A1.169,1.169,0,0,0,932.449,249.99Zm8.706,5.027-3.01-1.738a4.237,4.237,0,0,0-3.836-.007L931.317,255a1.169,1.169,0,0,0,.012,2.215l3.01,1.738a4.237,4.237,0,0,0,3.836.007l2.992-1.727A1.169,1.169,0,0,0,941.155,255.017Zm8.707,5.027-3.011-1.738a4.238,4.238,0,0,0-3.837-.007l-2.992,1.727a1.169,1.169,0,0,0,.012,2.215l3.011,1.738a4.239,4.239,0,0,0,3.835.007l2.992-1.727A1.169,1.169,0,0,0,949.862,260.044Zm8.706,5.027-3.011-1.738a4.239,4.239,0,0,0-3.835-.008l-2.992,1.728a1.169,1.169,0,0,0,.011,2.215l3.011,1.738a4.242,4.242,0,0,0,3.835.007l2.993-1.728A1.169,1.169,0,0,0,958.567,265.07Zm8.706,5.025-3.01-1.738a4.244,4.244,0,0,0-3.836-.007l-2.992,1.728a1.169,1.169,0,0,0,.012,2.215l3.01,1.738a4.244,4.244,0,0,0,3.836.007l2.992-1.728A1.169,1.169,0,0,0,967.273,270.1Zm-1.12,7.223,3.011,1.738a4.239,4.239,0,0,0,3.835.008l2.992-1.728a1.169,1.169,0,0,0-.011-2.215l-3.011-1.738a4.245,4.245,0,0,0-3.837-.007l-2.992,1.728A1.168,1.168,0,0,0,966.153,277.319Zm18.532,2.83-3.011-1.738a4.239,4.239,0,0,0-3.835-.007l-2.992,1.727a1.169,1.169,0,0,0,.011,2.215l3.011,1.738a4.235,4.235,0,0,0,3.835.007l2.992-1.727A1.169,1.169,0,0,0,984.685,280.149Zm12.75,7.362-6.875-3.969a4.242,4.242,0,0,0-3.835-.007l-2.992,1.728a1.168,1.168,0,0,0,.011,2.214l6.875,3.97a4.245,4.245,0,0,0,3.837.007l2.992-1.728A1.169,1.169,0,0,0,997.436,287.51Zm-126.407-55.8,6.875,3.969a4.235,4.235,0,0,0,3.835.007l2.992-1.727a1.169,1.169,0,0,0-.011-2.215l-6.875-3.969a4.241,4.241,0,0,0-3.836-.007l-2.992,1.728A1.168,1.168,0,0,0,871.029,231.71Zm12.569,7.257,3.011,1.738a4.235,4.235,0,0,0,3.835.007l2.993-1.727a1.169,1.169,0,0,0-.012-2.215l-3.011-1.738a4.239,4.239,0,0,0-3.835-.007l-2.992,1.727A1.169,1.169,0,0,0,883.6,238.968Zm11.717,6.765a4.237,4.237,0,0,0,3.836.007l2.992-1.727a1.169,1.169,0,0,0-.012-2.215l-3.01-1.738a4.238,4.238,0,0,0-3.836-.007l-2.992,1.727a1.169,1.169,0,0,0,.012,2.215Zm8.707,5.027a4.239,4.239,0,0,0,3.835.007l2.992-1.727a1.169,1.169,0,0,0-.011-2.215l-3.011-1.738a4.237,4.237,0,0,0-3.836-.007L901,246.806a1.169,1.169,0,0,0,.012,2.215Zm8.675-.653-2.992,1.727a1.169,1.169,0,0,0,.011,2.215l3.011,1.738a4.239,4.239,0,0,0,3.835.007l2.993-1.728a1.169,1.169,0,0,0-.012-2.214l-3.011-1.738A4.235,4.235,0,0,0,912.7,250.106Zm8.889,4.92-3.36,1.94a1.056,1.056,0,0,0,.011,2l3.381,1.952a3.831,3.831,0,0,0,3.466.007l3.36-1.941a1.056,1.056,0,0,0-.01-2l-3.381-1.952A3.83,3.83,0,0,0,921.586,255.026Zm8.707,5.025-3.36,1.94a1.057,1.057,0,0,0,.01,2l3.381,1.952a3.833,3.833,0,0,0,3.467.006l3.36-1.94a1.056,1.056,0,0,0-.011-2l-3.381-1.952A3.831,3.831,0,0,0,930.293,260.051ZM939,265.078l-3.36,1.94a1.057,1.057,0,0,0,.011,2l3.38,1.952a3.833,3.833,0,0,0,3.467.006l3.36-1.94a1.056,1.056,0,0,0-.011-2l-3.38-1.952A3.833,3.833,0,0,0,939,265.078ZM947.7,270.1l-3.36,1.94a1.057,1.057,0,0,0,.011,2L947.737,276A3.831,3.831,0,0,0,951.2,276l3.36-1.94a1.057,1.057,0,0,0-.01-2l-3.381-1.951A3.833,3.833,0,0,0,947.7,270.1Zm8.707,5.027-3.36,1.94a1.057,1.057,0,0,0,.01,2l3.381,1.951a3.827,3.827,0,0,0,3.466.007l3.361-1.94a1.057,1.057,0,0,0-.011-2l-3.381-1.951A3.827,3.827,0,0,0,956.411,275.131Zm12.2,10.926,3.36-1.94a1.057,1.057,0,0,0-.011-2l-3.38-1.952a3.833,3.833,0,0,0-3.467-.006l-3.36,1.94a1.056,1.056,0,0,0,.011,2l3.38,1.952A3.833,3.833,0,0,0,968.616,286.057Zm8.706,5.027,3.36-1.94a1.057,1.057,0,0,0-.01-2l-3.381-1.952a3.833,3.833,0,0,0-3.467-.006l-3.36,1.94a1.056,1.056,0,0,0,.011,2l3.381,1.952A3.831,3.831,0,0,0,977.322,291.084Zm12.236,1.189-3.381-1.952a3.831,3.831,0,0,0-3.466-.006l-3.36,1.94a1.056,1.056,0,0,0,.01,2l3.381,1.952a3.831,3.831,0,0,0,3.466.007l3.36-1.94A1.057,1.057,0,0,0,989.558,292.273ZM862.78,236.259l10.916,6.3a3.831,3.831,0,0,0,3.466.006l3.36-1.94a1.056,1.056,0,0,0-.01-2l-10.916-6.3a3.831,3.831,0,0,0-3.466-.006l-3.361,1.94A1.056,1.056,0,0,0,862.78,236.259Zm16.24,9.377,3.381,1.952a3.833,3.833,0,0,0,3.467.006l3.36-1.94a1.057,1.057,0,0,0-.011-2l-3.381-1.951a3.831,3.831,0,0,0-3.466-.007l-3.36,1.94A1.057,1.057,0,0,0,879.02,245.636Zm8.707,5.027,3.38,1.951a3.83,3.83,0,0,0,3.467.007l3.36-1.94a1.057,1.057,0,0,0-.011-2l-3.38-1.951a3.83,3.83,0,0,0-3.467-.007l-3.36,1.94A1.057,1.057,0,0,0,887.727,250.663Zm8.706,5.025,3.381,1.952a3.831,3.831,0,0,0,3.466.007l3.36-1.94a1.057,1.057,0,0,0-.01-2l-3.381-1.952a3.833,3.833,0,0,0-3.467-.006l-3.36,1.94A1.056,1.056,0,0,0,896.433,255.688Zm15.553,6.986,3.361-1.94a1.057,1.057,0,0,0-.011-2l-3.381-1.952a3.831,3.831,0,0,0-3.466-.006l-3.36,1.94a1.056,1.056,0,0,0,.01,2l3.381,1.952A3.831,3.831,0,0,0,911.986,262.674Zm8.707,5.025,3.36-1.94c.955-.55.949-1.446-.011-2l-3.38-1.952a3.83,3.83,0,0,0-3.467-.006l-3.36,1.94a1.056,1.056,0,0,0,.011,2l3.38,1.952A3.83,3.83,0,0,0,920.693,267.7Zm8.706,5.027,3.36-1.94a1.056,1.056,0,0,0-.01-2l-3.381-1.952a3.833,3.833,0,0,0-3.467-.007l-3.36,1.94a1.057,1.057,0,0,0,.011,2l3.381,1.952A3.831,3.831,0,0,0,929.4,272.726Zm8.706,5.027,3.361-1.94a1.056,1.056,0,0,0-.011-2l-3.381-1.952a3.831,3.831,0,0,0-3.466-.007l-3.36,1.94a1.057,1.057,0,0,0,.01,2l3.381,1.952A3.831,3.831,0,0,0,938.1,277.753Zm8.707,5.027,3.36-1.94a1.057,1.057,0,0,0-.011-2l-3.381-1.951a3.828,3.828,0,0,0-3.466-.007l-3.36,1.94a1.057,1.057,0,0,0,.01,2l3.381,1.951A3.83,3.83,0,0,0,946.811,282.779Zm8.706,5.027,3.36-1.94a1.057,1.057,0,0,0-.01-2l-3.381-1.952a3.833,3.833,0,0,0-3.467-.006l-3.36,1.94a1.057,1.057,0,0,0,.011,2l3.381,1.951A3.831,3.831,0,0,0,955.516,287.806Zm1.858,3.068,3.381,1.952a3.831,3.831,0,0,0,3.466.007l3.36-1.94a1.057,1.057,0,0,0-.01-2l-3.381-1.952a3.831,3.831,0,0,0-3.466-.006l-3.36,1.94A1.056,1.056,0,0,0,957.375,290.873Zm24.119,6.056-8.6-4.964a3.831,3.831,0,0,0-3.466-.006l-3.36,1.94a1.056,1.056,0,0,0,.01,2l8.6,4.964a3.831,3.831,0,0,0,3.466.006l3.36-1.94A1.056,1.056,0,0,0,981.494,296.929ZM854.749,241.156l15.489,8.942a4.326,4.326,0,0,0,3.916.007l2.912-1.68a1.194,1.194,0,0,0-.012-2.261l-15.489-8.942a4.326,4.326,0,0,0-3.916-.007l-2.911,1.682A1.193,1.193,0,0,0,854.749,241.156Zm21.265,12.277,2.93,1.692a4.328,4.328,0,0,0,3.917.007l2.911-1.68a1.194,1.194,0,0,0-.012-2.261L882.83,249.5a4.329,4.329,0,0,0-3.917-.007L876,251.171A1.194,1.194,0,0,0,876.014,253.433Zm8.706,5.027,2.931,1.692a4.326,4.326,0,0,0,3.916.007l2.912-1.682a1.193,1.193,0,0,0-.013-2.26l-2.931-1.692a4.326,4.326,0,0,0-3.916-.007l-2.912,1.68A1.194,1.194,0,0,0,884.72,258.459Zm8.706,5.027,2.931,1.692a4.326,4.326,0,0,0,3.916.007l2.912-1.682a1.193,1.193,0,0,0-.012-2.26l-2.931-1.692a4.33,4.33,0,0,0-3.916-.008l-2.911,1.682A1.194,1.194,0,0,0,893.425,263.486Zm8.707,5.027,2.929,1.692a4.332,4.332,0,0,0,3.917.007l2.911-1.682a1.194,1.194,0,0,0-.012-2.261l-2.93-1.692a4.332,4.332,0,0,0-3.917-.007l-2.911,1.682A1.194,1.194,0,0,0,902.132,268.513Zm8.706,5.025,2.931,1.692a4.33,4.33,0,0,0,3.916.008l2.911-1.682a1.194,1.194,0,0,0-.011-2.261l-2.931-1.692a4.326,4.326,0,0,0-3.916-.007l-2.913,1.682A1.193,1.193,0,0,0,910.838,273.538Zm8.706,5.027,2.931,1.692a4.326,4.326,0,0,0,3.916.007l2.913-1.68a1.194,1.194,0,0,0-.012-2.261l-2.931-1.692a4.326,4.326,0,0,0-3.916-.007l-2.912,1.682A1.193,1.193,0,0,0,919.543,278.565Zm8.707,5.027,2.929,1.692a4.329,4.329,0,0,0,3.917.007l2.911-1.68a1.194,1.194,0,0,0-.012-2.261l-2.929-1.692a4.329,4.329,0,0,0-3.917-.007l-2.911,1.68A1.194,1.194,0,0,0,928.25,283.591Zm8.706,5.027,2.931,1.692a4.326,4.326,0,0,0,3.916.007l2.911-1.68a1.194,1.194,0,0,0-.011-2.261l-2.931-1.692a4.326,4.326,0,0,0-3.916-.007l-2.913,1.68A1.194,1.194,0,0,0,936.956,288.618Zm8.706,5.027,2.931,1.692a4.326,4.326,0,0,0,3.916.007l2.912-1.682a1.193,1.193,0,0,0-.012-2.26l-2.931-1.692a4.33,4.33,0,0,0-3.916-.008l-2.912,1.682A1.194,1.194,0,0,0,945.661,293.644Zm8.707,5.027,2.929,1.692a4.329,4.329,0,0,0,3.917.007l2.911-1.682a1.193,1.193,0,0,0-.012-2.26l-2.929-1.692a4.329,4.329,0,0,0-3.917-.008l-2.911,1.682A1.194,1.194,0,0,0,954.368,298.671Zm18.645,2.894-2.931-1.692a4.326,4.326,0,0,0-3.916-.007l-2.911,1.68a1.194,1.194,0,0,0,.011,2.261l2.93,1.692a4.326,4.326,0,0,0,3.916.007l2.912-1.68A1.194,1.194,0,0,0,973.013,301.565ZM860.3,245.8l-6.794-3.923a4.33,4.33,0,0,0-3.916-.008l-2.911,1.682a1.194,1.194,0,0,0,.011,2.261l6.794,3.923a4.329,4.329,0,0,0,3.917.007l2.911-1.682A1.193,1.193,0,0,0,860.3,245.8ZM869,250.826l-2.931-1.692a4.33,4.33,0,0,0-3.916-.008l-2.912,1.682a1.194,1.194,0,0,0,.012,2.261l2.931,1.692a4.326,4.326,0,0,0,3.916.007l2.911-1.682A1.193,1.193,0,0,0,869,250.826Zm8.706,5.025-2.931-1.692a4.33,4.33,0,0,0-3.916-.007l-2.912,1.682a1.194,1.194,0,0,0,.013,2.261l2.931,1.692a4.33,4.33,0,0,0,3.916.007l2.912-1.682A1.194,1.194,0,0,0,877.708,255.851Zm60.942,35.185-55.166-31.85a4.328,4.328,0,0,0-3.917-.007l-2.911,1.682a1.193,1.193,0,0,0,.012,2.26l55.166,31.85a4.326,4.326,0,0,0,3.916.008l2.912-1.682A1.194,1.194,0,0,0,938.65,291.036Zm8.706,5.027-2.929-1.692a4.329,4.329,0,0,0-3.917-.007l-2.911,1.682a1.193,1.193,0,0,0,.012,2.26L940.54,300a4.332,4.332,0,0,0,3.917.008l2.911-1.682A1.194,1.194,0,0,0,947.356,296.063Zm8.707,5.027-2.931-1.692a4.326,4.326,0,0,0-3.916-.007l-2.912,1.68a1.194,1.194,0,0,0,.012,2.261l2.931,1.692a4.326,4.326,0,0,0,3.916.007l2.912-1.68A1.194,1.194,0,0,0,956.062,301.09Zm8.887,5.131-2.931-1.692a4.326,4.326,0,0,0-3.916-.007l-2.911,1.682a1.193,1.193,0,0,0,.011,2.26l2.931,1.692a4.33,4.33,0,0,0,3.916.008l2.912-1.682A1.194,1.194,0,0,0,964.949,306.22Z" transform="translate(-785.408 -74.046)" fill="#7cbac4" opacity="0.8" style="mix-blend-mode: multiply;isolation: isolate"/>
      <path id="Trazado_126964" data-name="Trazado 126964" d="M886.923,221.553l7.341,4.238a3.724,3.724,0,0,0,3.37.007,1.027,1.027,0,0,0-.01-1.947l-7.341-4.238a3.727,3.727,0,0,0-3.371-.006A1.027,1.027,0,0,0,886.923,221.553Zm12.569,7.257,3.477,2.008a3.727,3.727,0,0,0,3.371.007,1.028,1.028,0,0,0-.011-1.947l-3.478-2.008a3.724,3.724,0,0,0-3.37-.006A1.027,1.027,0,0,0,899.492,228.811Zm8.707,5.027,3.477,2.008a3.724,3.724,0,0,0,3.37.006,1.027,1.027,0,0,0-.01-1.945l-3.477-2.008a3.723,3.723,0,0,0-3.371-.006A1.027,1.027,0,0,0,908.2,233.837Zm8.706,5.027,3.477,2.008a3.724,3.724,0,0,0,3.37.006,1.026,1.026,0,0,0-.01-1.945l-3.477-2.008a3.724,3.724,0,0,0-3.37-.007A1.027,1.027,0,0,0,916.905,238.864Zm8.706,5.027,3.478,2.008a3.727,3.727,0,0,0,3.371.006,1.027,1.027,0,0,0-.011-1.945l-3.478-2.008a3.724,3.724,0,0,0-3.37-.007A1.028,1.028,0,0,0,925.611,243.89Zm8.706,5.027,3.479,2.008a3.724,3.724,0,0,0,3.37.006,1.027,1.027,0,0,0-.01-1.945l-3.477-2.009a3.727,3.727,0,0,0-3.371-.006A1.028,1.028,0,0,0,934.316,248.917Zm8.707,5.025,3.477,2.008a3.724,3.724,0,0,0,3.37.007,1.028,1.028,0,0,0-.01-1.947L946.383,252a3.726,3.726,0,0,0-3.371-.006A1.027,1.027,0,0,0,943.023,253.942Zm8.706,5.027,3.478,2.008a3.727,3.727,0,0,0,3.371.007,1.028,1.028,0,0,0-.011-1.947l-3.478-2.008a3.724,3.724,0,0,0-3.37-.006A1.027,1.027,0,0,0,951.729,258.969ZM960.434,264,963.912,266a3.727,3.727,0,0,0,3.371.007,1.028,1.028,0,0,0-.01-1.947l-3.478-2.008a3.726,3.726,0,0,0-3.371-.006A1.027,1.027,0,0,0,960.434,264Zm8.707,5.027,3.478,2.008a3.724,3.724,0,0,0,3.37.006,1.027,1.027,0,0,0-.01-1.945l-3.478-2.008a3.727,3.727,0,0,0-3.371-.007A1.028,1.028,0,0,0,969.141,269.022Zm8.706,5.027,3.478,2.008a3.726,3.726,0,0,0,3.371.006,1.027,1.027,0,0,0-.011-1.945l-3.478-2.008a3.724,3.724,0,0,0-3.37-.007A1.028,1.028,0,0,0,977.847,274.049Zm8.706,5.027,3.477,2.008a3.727,3.727,0,0,0,3.371.006,1.027,1.027,0,0,0-.011-1.945l-3.478-2.008a3.721,3.721,0,0,0-3.37-.007A1.028,1.028,0,0,0,986.553,279.075Zm8.888,5.131,3.478,2.008a3.724,3.724,0,0,0,3.37.006,1.027,1.027,0,0,0-.01-1.945l-3.478-2.008a3.727,3.727,0,0,0-3.371-.007A1.028,1.028,0,0,0,995.441,284.206ZM879.093,226.344l3.01,1.738a4.245,4.245,0,0,0,3.836.007l2.992-1.728a1.168,1.168,0,0,0-.012-2.214l-3.01-1.739a4.245,4.245,0,0,0-3.836-.007l-2.992,1.728A1.169,1.169,0,0,0,879.093,226.344Zm15.552,6.772,2.992-1.728a1.169,1.169,0,0,0-.011-2.215l-3.011-1.738a4.242,4.242,0,0,0-3.835-.007l-2.993,1.728a1.169,1.169,0,0,0,.012,2.214l3.011,1.738A4.239,4.239,0,0,0,894.645,233.116Zm1.859,3.28,3.011,1.738a4.237,4.237,0,0,0,3.836.007l2.992-1.727a1.169,1.169,0,0,0-.012-2.215l-3.011-1.738a4.239,4.239,0,0,0-3.835-.007l-2.992,1.727A1.169,1.169,0,0,0,896.5,236.4Zm8.707,5.027,3.01,1.738a4.237,4.237,0,0,0,3.836.007l2.992-1.727a1.169,1.169,0,0,0-.012-2.215l-3.01-1.738a4.241,4.241,0,0,0-3.836-.007l-2.992,1.727A1.169,1.169,0,0,0,905.211,241.423Zm18.532,2.83-3.011-1.738a4.235,4.235,0,0,0-3.835-.007l-2.993,1.727a1.169,1.169,0,0,0,.012,2.215l3.011,1.738a4.239,4.239,0,0,0,3.835.007l2.992-1.727A1.169,1.169,0,0,0,923.743,244.253Zm8.706,5.027-3.011-1.738a4.235,4.235,0,0,0-3.835-.007l-2.992,1.727a1.169,1.169,0,0,0,.011,2.215l3.011,1.738a4.239,4.239,0,0,0,3.835.007l2.993-1.728A1.169,1.169,0,0,0,932.449,249.279Zm8.706,5.027-3.01-1.738a4.241,4.241,0,0,0-3.836-.008l-2.992,1.728a1.169,1.169,0,0,0,.012,2.215l3.01,1.738a4.245,4.245,0,0,0,3.836.007l2.992-1.728A1.168,1.168,0,0,0,941.155,254.306Zm8.707,5.025-3.011-1.738a4.245,4.245,0,0,0-3.837-.007l-2.992,1.728a1.169,1.169,0,0,0,.012,2.214l3.011,1.739a4.242,4.242,0,0,0,3.835.007l2.992-1.728A1.169,1.169,0,0,0,949.862,259.331Zm8.706,5.027-3.011-1.738a4.242,4.242,0,0,0-3.835-.007l-2.992,1.728a1.168,1.168,0,0,0,.011,2.214l3.011,1.738a4.235,4.235,0,0,0,3.835.007l2.993-1.727A1.169,1.169,0,0,0,958.567,264.358Zm8.706,5.027-3.01-1.738a4.241,4.241,0,0,0-3.836-.007l-2.992,1.727a1.169,1.169,0,0,0,.012,2.215l3.01,1.738a4.237,4.237,0,0,0,3.836.007l2.992-1.727A1.169,1.169,0,0,0,967.273,269.385Zm-1.12,7.223,3.011,1.738a4.235,4.235,0,0,0,3.835.007l2.992-1.727a1.169,1.169,0,0,0-.011-2.215l-3.011-1.738a4.238,4.238,0,0,0-3.837-.007l-2.992,1.727A1.169,1.169,0,0,0,966.153,276.608Zm18.532,2.83-3.011-1.738a4.235,4.235,0,0,0-3.835-.007l-2.992,1.727a1.169,1.169,0,0,0,.011,2.215l3.011,1.738a4.239,4.239,0,0,0,3.835.007l2.992-1.727A1.169,1.169,0,0,0,984.685,279.438Zm12.75,7.362-6.875-3.969a4.239,4.239,0,0,0-3.835-.007l-2.992,1.727a1.169,1.169,0,0,0,.011,2.215l6.875,3.969a4.238,4.238,0,0,0,3.837.007l2.992-1.727A1.169,1.169,0,0,0,997.436,286.8ZM871.029,231l6.875,3.969a4.235,4.235,0,0,0,3.835.007l2.992-1.727a1.169,1.169,0,0,0-.011-2.215l-6.875-3.969a4.238,4.238,0,0,0-3.836-.007l-2.992,1.727A1.169,1.169,0,0,0,871.029,231Zm12.569,7.257L886.609,240a4.239,4.239,0,0,0,3.835.007l2.993-1.727a1.169,1.169,0,0,0-.012-2.215l-3.011-1.738a4.235,4.235,0,0,0-3.835-.007l-2.992,1.727A1.169,1.169,0,0,0,883.6,238.257Zm11.717,6.765a4.244,4.244,0,0,0,3.836.007l2.992-1.728a1.168,1.168,0,0,0-.012-2.214l-3.01-1.738a4.241,4.241,0,0,0-3.836-.008l-2.992,1.728a1.169,1.169,0,0,0,.012,2.215Zm8.707,5.027a4.242,4.242,0,0,0,3.835.007l2.992-1.728a1.169,1.169,0,0,0-.011-2.215l-3.011-1.738a4.244,4.244,0,0,0-3.836-.007L901,246.1a1.169,1.169,0,0,0,.012,2.215Zm8.675-.654-2.992,1.728a1.168,1.168,0,0,0,.011,2.214l3.011,1.738a4.239,4.239,0,0,0,3.835.008l2.993-1.728a1.169,1.169,0,0,0-.012-2.215l-3.011-1.738A4.242,4.242,0,0,0,912.7,249.394Zm8.889,4.92-3.36,1.94a1.057,1.057,0,0,0,.011,2l3.381,1.952a3.831,3.831,0,0,0,3.466.006l3.36-1.94a1.056,1.056,0,0,0-.01-2l-3.381-1.952A3.833,3.833,0,0,0,921.586,254.314Zm8.707,5.027-3.36,1.94a1.057,1.057,0,0,0,.01,2l3.381,1.952a3.833,3.833,0,0,0,3.467.006l3.36-1.94a1.057,1.057,0,0,0-.011-2l-3.381-1.951A3.831,3.831,0,0,0,930.293,259.34ZM939,264.367l-3.36,1.94a1.057,1.057,0,0,0,.011,2l3.38,1.951a3.833,3.833,0,0,0,3.467.007l3.36-1.94a1.057,1.057,0,0,0-.011-2l-3.38-1.952A3.834,3.834,0,0,0,939,264.367Zm8.706,5.027-3.36,1.94a1.056,1.056,0,0,0,.011,2l3.381,1.952a3.831,3.831,0,0,0,3.466.007l3.36-1.94a1.057,1.057,0,0,0-.01-2l-3.381-1.952A3.833,3.833,0,0,0,947.7,269.394Zm8.707,5.027-3.36,1.94a1.056,1.056,0,0,0,.01,2l3.381,1.952a3.831,3.831,0,0,0,3.466.007l3.361-1.94a1.057,1.057,0,0,0-.011-2l-3.381-1.952A3.831,3.831,0,0,0,956.411,274.42Zm12.2,10.925,3.36-1.94a1.056,1.056,0,0,0-.011-2l-3.38-1.952a3.833,3.833,0,0,0-3.467-.007l-3.36,1.941a1.056,1.056,0,0,0,.011,2l3.38,1.952A3.83,3.83,0,0,0,968.616,285.345Zm8.706,5.027,3.36-1.94a1.056,1.056,0,0,0-.01-2l-3.381-1.952a3.833,3.833,0,0,0-3.467-.007l-3.36,1.94a1.057,1.057,0,0,0,.011,2l3.381,1.952A3.831,3.831,0,0,0,977.322,290.372Zm12.236,1.19-3.381-1.952a3.827,3.827,0,0,0-3.466-.006l-3.36,1.94a1.056,1.056,0,0,0,.01,2l3.381,1.952a3.827,3.827,0,0,0,3.466.006l3.36-1.94A1.056,1.056,0,0,0,989.558,291.562ZM862.78,235.548l10.916,6.3a3.831,3.831,0,0,0,3.466.007l3.36-1.94a1.057,1.057,0,0,0-.01-2l-10.916-6.3a3.831,3.831,0,0,0-3.466-.007l-3.361,1.94A1.057,1.057,0,0,0,862.78,235.548Zm16.24,9.376,3.381,1.952a3.833,3.833,0,0,0,3.467.007l3.36-1.94a1.057,1.057,0,0,0-.011-2l-3.381-1.952a3.831,3.831,0,0,0-3.466-.006l-3.36,1.94A1.056,1.056,0,0,0,879.02,244.924Zm8.707,5.027,3.38,1.952a3.833,3.833,0,0,0,3.467.007l3.36-1.94a1.057,1.057,0,0,0-.011-2l-3.38-1.952a3.833,3.833,0,0,0-3.467-.006l-3.36,1.94A1.056,1.056,0,0,0,887.727,249.951Zm8.706,5.027,3.381,1.952a3.827,3.827,0,0,0,3.466.006l3.36-1.94a1.056,1.056,0,0,0-.01-2l-3.381-1.952a3.833,3.833,0,0,0-3.467-.007l-3.36,1.941A1.056,1.056,0,0,0,896.433,254.977Zm15.553,6.984,3.361-1.94a1.056,1.056,0,0,0-.011-2l-3.381-1.952a3.831,3.831,0,0,0-3.466-.007l-3.36,1.94a1.057,1.057,0,0,0,.01,2l3.381,1.952A3.831,3.831,0,0,0,911.986,261.962Zm8.707,5.027,3.36-1.94a1.056,1.056,0,0,0-.011-2l-3.38-1.952a3.833,3.833,0,0,0-3.467-.007l-3.36,1.94a1.057,1.057,0,0,0,.011,2l3.38,1.952A3.833,3.833,0,0,0,920.693,266.988Zm8.706,5.027,3.36-1.94a1.057,1.057,0,0,0-.01-2l-3.381-1.951a3.83,3.83,0,0,0-3.467-.007l-3.36,1.94a1.057,1.057,0,0,0,.011,2l3.381,1.951A3.828,3.828,0,0,0,929.4,272.015Zm8.706,5.027,3.361-1.94a1.057,1.057,0,0,0-.011-2l-3.381-1.952a3.831,3.831,0,0,0-3.466-.006l-3.36,1.94a1.056,1.056,0,0,0,.01,2l3.381,1.952A3.831,3.831,0,0,0,938.1,277.042Zm8.707,5.027,3.36-1.94a1.057,1.057,0,0,0-.011-2l-3.381-1.952a3.831,3.831,0,0,0-3.466-.006l-3.36,1.94a1.056,1.056,0,0,0,.01,2l3.381,1.952A3.833,3.833,0,0,0,946.811,282.068Zm8.706,5.027,3.36-1.941a1.056,1.056,0,0,0-.01-2l-3.381-1.952a3.83,3.83,0,0,0-3.467-.006l-3.36,1.94a1.056,1.056,0,0,0,.011,2l3.381,1.952A3.831,3.831,0,0,0,955.516,287.095Zm1.858,3.068,3.381,1.952a3.831,3.831,0,0,0,3.466.006l3.36-1.94a1.056,1.056,0,0,0-.01-2l-3.381-1.952a3.831,3.831,0,0,0-3.466-.007l-3.36,1.94A1.057,1.057,0,0,0,957.375,290.162Zm24.119,6.055-8.6-4.963a3.831,3.831,0,0,0-3.466-.007l-3.36,1.94a1.057,1.057,0,0,0,.01,2l8.6,4.963a3.831,3.831,0,0,0,3.466.007l3.36-1.94A1.057,1.057,0,0,0,981.494,296.217ZM854.749,240.445l15.489,8.942a4.326,4.326,0,0,0,3.916.007l2.912-1.682a1.193,1.193,0,0,0-.012-2.26l-15.489-8.942a4.326,4.326,0,0,0-3.916-.007l-2.911,1.68A1.194,1.194,0,0,0,854.749,240.445Zm21.265,12.277,2.93,1.692a4.328,4.328,0,0,0,3.917.007l2.911-1.682a1.193,1.193,0,0,0-.012-2.26l-2.929-1.692a4.329,4.329,0,0,0-3.917-.008L876,250.46A1.194,1.194,0,0,0,876.014,252.722Zm8.706,5.027,2.931,1.691a4.326,4.326,0,0,0,3.916.008l2.912-1.682a1.194,1.194,0,0,0-.013-2.261l-2.931-1.692a4.33,4.33,0,0,0-3.916-.007l-2.912,1.682A1.194,1.194,0,0,0,884.72,257.748Zm8.706,5.025,2.931,1.692a4.33,4.33,0,0,0,3.916.008l2.912-1.682a1.194,1.194,0,0,0-.012-2.261l-2.931-1.692a4.326,4.326,0,0,0-3.916-.007l-2.911,1.682A1.193,1.193,0,0,0,893.425,262.774Zm8.707,5.027,2.929,1.692a4.329,4.329,0,0,0,3.917.007l2.911-1.68a1.194,1.194,0,0,0-.012-2.261l-2.93-1.692a4.328,4.328,0,0,0-3.917-.007l-2.911,1.682A1.193,1.193,0,0,0,902.132,267.8Zm8.706,5.027,2.931,1.692a4.326,4.326,0,0,0,3.916.007l2.911-1.68a1.194,1.194,0,0,0-.011-2.261l-2.931-1.692a4.326,4.326,0,0,0-3.916-.007l-2.913,1.68A1.194,1.194,0,0,0,910.838,272.827Zm8.706,5.027,2.931,1.692a4.326,4.326,0,0,0,3.916.007l2.913-1.682a1.193,1.193,0,0,0-.012-2.26l-2.931-1.692a4.326,4.326,0,0,0-3.916-.007l-2.912,1.68A1.194,1.194,0,0,0,919.543,277.854Zm8.707,5.027,2.929,1.692a4.329,4.329,0,0,0,3.917.007l2.911-1.682a1.193,1.193,0,0,0-.012-2.26l-2.929-1.692a4.332,4.332,0,0,0-3.917-.008l-2.911,1.682A1.194,1.194,0,0,0,928.25,282.88Zm8.706,5.027,2.931,1.692a4.33,4.33,0,0,0,3.916.007l2.911-1.682a1.193,1.193,0,0,0-.011-2.26l-2.931-1.692a4.326,4.326,0,0,0-3.916-.008l-2.913,1.682A1.194,1.194,0,0,0,936.956,287.907Zm8.706,5.025,2.931,1.692a4.326,4.326,0,0,0,3.916.008l2.912-1.682a1.194,1.194,0,0,0-.012-2.261L952.477,289a4.326,4.326,0,0,0-3.916-.007l-2.912,1.682A1.193,1.193,0,0,0,945.661,292.932Zm8.707,5.027,2.929,1.692a4.333,4.333,0,0,0,3.917.008l2.911-1.682a1.194,1.194,0,0,0-.012-2.261l-2.929-1.692a4.329,4.329,0,0,0-3.917-.007l-2.911,1.682A1.193,1.193,0,0,0,954.368,297.959Zm18.645,2.9-2.931-1.692a4.326,4.326,0,0,0-3.916-.008l-2.911,1.682a1.194,1.194,0,0,0,.011,2.261l2.93,1.692a4.326,4.326,0,0,0,3.916.007l2.912-1.682A1.193,1.193,0,0,0,973.013,300.854ZM860.3,245.087l-6.794-3.923a4.326,4.326,0,0,0-3.916-.007l-2.911,1.682a1.193,1.193,0,0,0,.011,2.26l6.794,3.923a4.329,4.329,0,0,0,3.917.008l2.911-1.682A1.194,1.194,0,0,0,860.3,245.087ZM869,250.114l-2.931-1.692a4.326,4.326,0,0,0-3.916-.007l-2.912,1.682a1.193,1.193,0,0,0,.012,2.26l2.931,1.692a4.33,4.33,0,0,0,3.916.008l2.911-1.682A1.194,1.194,0,0,0,869,250.114Zm8.706,5.027-2.931-1.692a4.326,4.326,0,0,0-3.916-.007l-2.912,1.68a1.194,1.194,0,0,0,.013,2.261l2.931,1.692a4.326,4.326,0,0,0,3.916.007l2.912-1.68A1.194,1.194,0,0,0,877.708,255.14Zm60.942,35.185-55.166-31.85a4.328,4.328,0,0,0-3.917-.007l-2.911,1.68a1.194,1.194,0,0,0,.012,2.261l55.166,31.85a4.326,4.326,0,0,0,3.916.007l2.912-1.68A1.194,1.194,0,0,0,938.65,290.326Zm8.706,5.027-2.929-1.692a4.329,4.329,0,0,0-3.917-.007l-2.911,1.68a1.194,1.194,0,0,0,.012,2.261l2.929,1.692a4.329,4.329,0,0,0,3.917.007l2.911-1.68A1.194,1.194,0,0,0,947.356,295.352Zm8.707,5.027-2.931-1.692a4.33,4.33,0,0,0-3.916-.008l-2.912,1.682a1.194,1.194,0,0,0,.012,2.261l2.931,1.692a4.326,4.326,0,0,0,3.916.007l2.912-1.682A1.193,1.193,0,0,0,956.062,300.379Zm8.887,5.131-2.931-1.692a4.326,4.326,0,0,0-3.916-.007l-2.911,1.68a1.194,1.194,0,0,0,.011,2.261l2.931,1.692a4.326,4.326,0,0,0,3.916.007l2.912-1.68A1.194,1.194,0,0,0,964.949,305.509Z" transform="translate(-785.408 -74.14)" fill="url(#linear-gradient-4)"/>
      <g id="Grupo_85782" data-name="Grupo 85782" transform="translate(60.472 146.258)">
        <path id="Trazado_126965" data-name="Trazado 126965" d="M887.96,257.834l2.931,1.692a4.33,4.33,0,0,0,3.916.008l2.912-1.682a1.265,1.265,0,0,0,.776-1.3,1.463,1.463,0,0,1-.776.949l-2.912,1.68a4.326,4.326,0,0,1-3.916-.007l-2.931-1.692a1.48,1.48,0,0,1-.788-.963A1.28,1.28,0,0,0,887.96,257.834Z" transform="translate(-840.415 -215.459)" fill="#fff"/>
        <path id="Trazado_126966" data-name="Trazado 126966" d="M895.649,262.273l2.929,1.692a4.329,4.329,0,0,0,3.917.007l2.911-1.68a1.265,1.265,0,0,0,.776-1.3,1.452,1.452,0,0,1-.776.948l-2.911,1.682a4.329,4.329,0,0,1-3.917-.007l-2.929-1.692a1.473,1.473,0,0,1-.788-.962A1.281,1.281,0,0,0,895.649,262.273Z" transform="translate(-839.397 -214.871)" fill="#fff"/>
        <path id="Trazado_126967" data-name="Trazado 126967" d="M903.337,266.712l2.931,1.692a4.326,4.326,0,0,0,3.916.007l2.911-1.68a1.268,1.268,0,0,0,.777-1.3,1.458,1.458,0,0,1-.777.948l-2.911,1.682a4.326,4.326,0,0,1-3.916-.007l-2.931-1.692a1.477,1.477,0,0,1-.788-.963A1.281,1.281,0,0,0,903.337,266.712Z" transform="translate(-838.38 -214.284)" fill="#fff"/>
        <path id="Trazado_126968" data-name="Trazado 126968" d="M924.562,263.1a1.311,1.311,0,0,1-.684.819l-3.36,1.94a3.831,3.831,0,0,1-3.466-.007L913.67,263.9a1.319,1.319,0,0,1-.694-.832,1.126,1.126,0,0,0,.694,1.183l3.381,1.951a3.831,3.831,0,0,0,3.466.007l3.36-1.94A1.113,1.113,0,0,0,924.562,263.1Z" transform="translate(-837 -214.592)" fill="#fff"/>
        <path id="Trazado_126969" data-name="Trazado 126969" d="M890.605,250.934l3.381,1.952a3.827,3.827,0,0,0,3.466.006l3.36-1.94a1.112,1.112,0,0,0,.684-1.169,1.305,1.305,0,0,1-.684.819l-3.36,1.94a3.831,3.831,0,0,1-3.466-.006l-3.381-1.952a1.321,1.321,0,0,1-.694-.833A1.126,1.126,0,0,0,890.605,250.934Z" transform="translate(-840.053 -216.355)" fill="#fff"/>
        <path id="Trazado_126970" data-name="Trazado 126970" d="M898.294,255.373l3.381,1.952a3.831,3.831,0,0,0,3.466.006l3.361-1.94a1.111,1.111,0,0,0,.683-1.169,1.308,1.308,0,0,1-.683.819l-3.361,1.94a3.827,3.827,0,0,1-3.466-.007l-3.381-1.951a1.324,1.324,0,0,1-.694-.833A1.128,1.128,0,0,0,898.294,255.373Z" transform="translate(-839.035 -215.768)" fill="#fff"/>
        <path id="Trazado_126971" data-name="Trazado 126971" d="M916.874,258.662a1.311,1.311,0,0,1-.684.819l-3.36,1.94a3.833,3.833,0,0,1-3.467-.007l-3.38-1.951a1.329,1.329,0,0,1-.7-.833,1.129,1.129,0,0,0,.7,1.183l3.38,1.952a3.833,3.833,0,0,0,3.467.006l3.36-1.94A1.114,1.114,0,0,0,916.874,258.662Z" transform="translate(-838.018 -215.18)" fill="#fff"/>
        <path id="Trazado_126972" data-name="Trazado 126972" d="M911.025,271.151l2.931,1.692a4.326,4.326,0,0,0,3.916.007l2.913-1.68a1.267,1.267,0,0,0,.776-1.3,1.46,1.46,0,0,1-.776.948l-2.913,1.682a4.326,4.326,0,0,1-3.916-.007l-2.931-1.692a1.483,1.483,0,0,1-.788-.963A1.281,1.281,0,0,0,911.025,271.151Z" transform="translate(-837.362 -213.696)" fill="#fff"/>
        <path id="Trazado_126973" data-name="Trazado 126973" d="M932.25,267.539a1.3,1.3,0,0,1-.683.819l-3.361,1.94a3.828,3.828,0,0,1-3.466-.006l-3.381-1.952a1.323,1.323,0,0,1-.694-.832,1.125,1.125,0,0,0,.694,1.182l3.381,1.952a3.831,3.831,0,0,0,3.466.007l3.361-1.94A1.114,1.114,0,0,0,932.25,267.539Z" transform="translate(-835.982 -214.005)" fill="#fff"/>
        <path id="Trazado_126974" data-name="Trazado 126974" d="M933.249,281.728l2.911-1.682a1.268,1.268,0,0,0,.777-1.3,1.457,1.457,0,0,1-.777.949l-2.911,1.682a4.33,4.33,0,0,1-3.916-.008l-2.931-1.692a1.477,1.477,0,0,1-.788-.963,1.282,1.282,0,0,0,.788,1.314l2.931,1.692A4.33,4.33,0,0,0,933.249,281.728Z" transform="translate(-835.327 -212.521)" fill="#fff"/>
        <path id="Trazado_126975" data-name="Trazado 126975" d="M947.627,276.417a1.305,1.305,0,0,1-.684.819l-3.36,1.94a3.831,3.831,0,0,1-3.466-.006l-3.381-1.952a1.322,1.322,0,0,1-.694-.832,1.125,1.125,0,0,0,.694,1.182l3.381,1.952a3.831,3.831,0,0,0,3.466.007l3.36-1.94A1.115,1.115,0,0,0,947.627,276.417Z" transform="translate(-833.947 -212.83)" fill="#fff"/>
        <path id="Trazado_126976" data-name="Trazado 126976" d="M880.272,253.4l2.931,1.692a4.326,4.326,0,0,0,3.916.008l2.912-1.682a1.267,1.267,0,0,0,.776-1.3,1.459,1.459,0,0,1-.776.949l-2.912,1.682a4.33,4.33,0,0,1-3.916-.008l-2.931-1.692a1.477,1.477,0,0,1-.788-.963A1.28,1.28,0,0,0,880.272,253.4Z" transform="translate(-841.433 -216.046)" fill="#fff"/>
        <path id="Trazado_126977" data-name="Trazado 126977" d="M882.918,246.5l3.38,1.952a3.833,3.833,0,0,0,3.467.007l3.36-1.941a1.114,1.114,0,0,0,.684-1.169,1.305,1.305,0,0,1-.684.819l-3.36,1.94a3.833,3.833,0,0,1-3.467-.006l-3.38-1.952a1.325,1.325,0,0,1-.7-.832A1.128,1.128,0,0,0,882.918,246.5Z" transform="translate(-841.071 -216.943)" fill="#fff"/>
        <path id="Trazado_126978" data-name="Trazado 126978" d="M918.714,275.59l2.929,1.692a4.329,4.329,0,0,0,3.917.007l2.911-1.682a1.264,1.264,0,0,0,.776-1.3,1.452,1.452,0,0,1-.776.948l-2.911,1.682a4.329,4.329,0,0,1-3.917-.008l-2.929-1.692a1.474,1.474,0,0,1-.788-.961A1.282,1.282,0,0,0,918.714,275.59Z" transform="translate(-836.344 -213.108)" fill="#fff"/>
        <path id="Trazado_126979" data-name="Trazado 126979" d="M939.938,271.978a1.3,1.3,0,0,1-.683.819l-3.36,1.94a3.833,3.833,0,0,1-3.467-.006l-3.381-1.952a1.326,1.326,0,0,1-.694-.832,1.128,1.128,0,0,0,.694,1.182l3.381,1.952a3.833,3.833,0,0,0,3.467.007l3.36-1.94A1.114,1.114,0,0,0,939.938,271.978Z" transform="translate(-834.965 -213.417)" fill="#fff"/>
        <path id="Trazado_126980" data-name="Trazado 126980" d="M886.969,240.62l3.01,1.738a4.244,4.244,0,0,0,3.836.007l2.992-1.728a1.24,1.24,0,0,0,.76-1.275,1.43,1.43,0,0,1-.76.925l-2.992,1.728a4.245,4.245,0,0,1-3.836-.007l-3.01-1.739a1.451,1.451,0,0,1-.772-.939A1.254,1.254,0,0,0,886.969,240.62Z" transform="translate(-840.544 -217.735)" fill="#fff"/>
        <path id="Trazado_126981" data-name="Trazado 126981" d="M923.581,247.522l-2.993,1.728a4.242,4.242,0,0,1-3.835-.007l-3.011-1.738a1.45,1.45,0,0,1-.771-.94,1.254,1.254,0,0,0,.771,1.29l3.011,1.738a4.239,4.239,0,0,0,3.835.007l2.993-1.728a1.237,1.237,0,0,0,.759-1.275A1.427,1.427,0,0,1,923.581,247.522Z" transform="translate(-837 -216.777)" fill="#fff"/>
        <path id="Trazado_126982" data-name="Trazado 126982" d="M959.194,274.873a1.3,1.3,0,0,1-.683.819l-3.36,1.94a3.833,3.833,0,0,1-3.467-.006l-3.38-1.952a1.326,1.326,0,0,1-.7-.833,1.129,1.129,0,0,0,.7,1.183l3.38,1.952a3.833,3.833,0,0,0,3.467.007l3.36-1.941A1.111,1.111,0,0,0,959.194,274.873Z" transform="translate(-832.416 -213.034)" fill="#fff"/>
        <path id="Trazado_126983" data-name="Trazado 126983" d="M943.134,266.813l-3.36,1.94a3.827,3.827,0,0,1-3.466-.006l-3.381-1.952a1.319,1.319,0,0,1-.694-.832,1.125,1.125,0,0,0,.694,1.182l3.381,1.952a3.831,3.831,0,0,0,3.466.007l3.36-1.94a1.115,1.115,0,0,0,.684-1.17A1.305,1.305,0,0,1,943.134,266.813Z" transform="translate(-834.451 -214.209)" fill="#fff"/>
        <path id="Trazado_126984" data-name="Trazado 126984" d="M915.892,243.083l-2.992,1.728a4.242,4.242,0,0,1-3.835-.007l-3.011-1.738a1.448,1.448,0,0,1-.771-.94,1.254,1.254,0,0,0,.771,1.29l3.011,1.738a4.235,4.235,0,0,0,3.835.007l2.992-1.727a1.238,1.238,0,0,0,.76-1.276A1.427,1.427,0,0,1,915.892,243.083Z" transform="translate(-838.018 -217.364)" fill="#fff"/>
        <path id="Trazado_126985" data-name="Trazado 126985" d="M938.957,256.4l-2.992,1.727a4.235,4.235,0,0,1-3.835-.007l-3.011-1.738a1.446,1.446,0,0,1-.771-.939,1.251,1.251,0,0,0,.771,1.289l3.011,1.739a4.242,4.242,0,0,0,3.835.007l2.992-1.728a1.238,1.238,0,0,0,.76-1.275A1.432,1.432,0,0,1,938.957,256.4Z" transform="translate(-834.965 -215.602)" fill="#fff"/>
        <path id="Trazado_126986" data-name="Trazado 126986" d="M946.646,260.839l-2.993,1.727a4.235,4.235,0,0,1-3.835-.007l-3.011-1.738a1.449,1.449,0,0,1-.771-.939,1.252,1.252,0,0,0,.771,1.289l3.011,1.738a4.239,4.239,0,0,0,3.835.008l2.993-1.728a1.237,1.237,0,0,0,.759-1.275A1.433,1.433,0,0,1,946.646,260.839Z" transform="translate(-833.947 -215.014)" fill="#fff"/>
        <path id="Trazado_126987" data-name="Trazado 126987" d="M882.989,230.1,886,231.837a4.239,4.239,0,0,0,3.835.008l2.992-1.728a1.237,1.237,0,0,0,.76-1.275,1.429,1.429,0,0,1-.76.925l-2.992,1.727a4.235,4.235,0,0,1-3.835-.007l-3.011-1.738a1.446,1.446,0,0,1-.771-.939A1.252,1.252,0,0,0,882.989,230.1Z" transform="translate(-841.071 -219.127)" fill="#fff"/>
        <path id="Trazado_126988" data-name="Trazado 126988" d="M900.516,234.206l-2.992,1.727a4.237,4.237,0,0,1-3.836-.007l-3.011-1.738a1.455,1.455,0,0,1-.771-.94,1.254,1.254,0,0,0,.771,1.29l3.011,1.738a4.237,4.237,0,0,0,3.836.007l2.992-1.727a1.237,1.237,0,0,0,.759-1.275A1.433,1.433,0,0,1,900.516,234.206Z" transform="translate(-840.054 -218.54)" fill="#fff"/>
        <path id="Trazado_126989" data-name="Trazado 126989" d="M908.2,238.645l-2.992,1.727a4.241,4.241,0,0,1-3.836-.007l-3.01-1.738a1.453,1.453,0,0,1-.772-.94,1.256,1.256,0,0,0,.772,1.29l3.01,1.738a4.237,4.237,0,0,0,3.836.007l2.992-1.727a1.24,1.24,0,0,0,.76-1.275A1.435,1.435,0,0,1,908.2,238.645Z" transform="translate(-839.036 -217.952)" fill="#fff"/>
        <path id="Trazado_126990" data-name="Trazado 126990" d="M931.269,251.961l-2.992,1.727a4.237,4.237,0,0,1-3.836-.007l-3.01-1.738a1.451,1.451,0,0,1-.772-.939,1.254,1.254,0,0,0,.772,1.29l3.01,1.738a4.245,4.245,0,0,0,3.836.007l2.992-1.728a1.24,1.24,0,0,0,.76-1.275A1.433,1.433,0,0,1,931.269,251.961Z" transform="translate(-835.983 -216.189)" fill="#fff"/>
        <path id="Trazado_126991" data-name="Trazado 126991" d="M927.758,257.937l-3.361,1.94a3.831,3.831,0,0,1-3.466-.007l-3.381-1.952a1.322,1.322,0,0,1-.694-.832,1.127,1.127,0,0,0,.694,1.183l3.381,1.952a3.831,3.831,0,0,0,3.466.006l3.361-1.94a1.111,1.111,0,0,0,.683-1.169A1.3,1.3,0,0,1,927.758,257.937Z" transform="translate(-836.486 -215.384)" fill="#fff"/>
        <path id="Trazado_126992" data-name="Trazado 126992" d="M912.184,249.165l-2.993,1.727a4.235,4.235,0,0,1-3.835-.007l-3.011-1.738a1.446,1.446,0,0,1-.771-.939,1.252,1.252,0,0,0,.771,1.289l3.011,1.738a4.235,4.235,0,0,0,3.835.007l2.993-1.727a1.237,1.237,0,0,0,.759-1.275A1.43,1.43,0,0,1,912.184,249.165Z" transform="translate(-838.509 -216.559)" fill="#fff"/>
        <path id="Trazado_126993" data-name="Trazado 126993" d="M920.069,253.5l-3.36,1.94a3.831,3.831,0,0,1-3.466-.007l-3.381-1.951a1.321,1.321,0,0,1-.694-.833,1.126,1.126,0,0,0,.694,1.183l3.381,1.952a3.831,3.831,0,0,0,3.466.006l3.36-1.94a1.113,1.113,0,0,0,.684-1.169A1.311,1.311,0,0,1,920.069,253.5Z" transform="translate(-837.504 -215.972)" fill="#fff"/>
        <path id="Trazado_126994" data-name="Trazado 126994" d="M935.446,262.376l-3.36,1.94a3.833,3.833,0,0,1-3.467-.007l-3.38-1.952a1.325,1.325,0,0,1-.7-.832,1.129,1.129,0,0,0,.7,1.183l3.38,1.951a3.833,3.833,0,0,0,3.467.007l3.36-1.94a1.115,1.115,0,0,0,.684-1.169A1.311,1.311,0,0,1,935.446,262.376Z" transform="translate(-835.469 -214.797)" fill="#fff"/>
        <path id="Trazado_126995" data-name="Trazado 126995" d="M944.625,283.187a1.459,1.459,0,0,1-.776.949l-2.912,1.68a4.326,4.326,0,0,1-3.916-.007l-2.931-1.692a1.48,1.48,0,0,1-.788-.963,1.282,1.282,0,0,0,.788,1.314l2.931,1.691a4.326,4.326,0,0,0,3.916.008l2.912-1.682A1.267,1.267,0,0,0,944.625,283.187Z" transform="translate(-834.309 -211.933)" fill="#fff"/>
        <path id="Trazado_126996" data-name="Trazado 126996" d="M962.022,269.717l-2.992,1.727a4.242,4.242,0,0,1-3.835-.007l-3.011-1.738a1.448,1.448,0,0,1-.771-.94,1.253,1.253,0,0,0,.771,1.29l3.011,1.738a4.235,4.235,0,0,0,3.835.007l2.992-1.727a1.239,1.239,0,0,0,.76-1.275A1.435,1.435,0,0,1,962.022,269.717Z" transform="translate(-831.912 -213.839)" fill="#fff"/>
        <path id="Trazado_126997" data-name="Trazado 126997" d="M894.657,245.059l3.011,1.738a4.242,4.242,0,0,0,3.835.007l2.992-1.728a1.238,1.238,0,0,0,.76-1.275,1.432,1.432,0,0,1-.76.925l-2.992,1.727a4.236,4.236,0,0,1-3.835-.007l-3.011-1.738a1.446,1.446,0,0,1-.771-.939A1.253,1.253,0,0,0,894.657,245.059Z" transform="translate(-839.527 -217.147)" fill="#fff"/>
        <path id="Trazado_126998" data-name="Trazado 126998" d="M954.334,265.278,951.343,267a4.241,4.241,0,0,1-3.836-.007L944.5,265.26a1.455,1.455,0,0,1-.771-.94,1.254,1.254,0,0,0,.771,1.29l3.011,1.738a4.237,4.237,0,0,0,3.836.007l2.992-1.727a1.237,1.237,0,0,0,.759-1.275A1.43,1.43,0,0,1,954.334,265.278Z" transform="translate(-832.93 -214.427)" fill="#fff"/>
        <path id="Trazado_126999" data-name="Trazado 126999" d="M951.506,270.434a1.3,1.3,0,0,1-.683.819l-3.361,1.94a3.831,3.831,0,0,1-3.466-.006l-3.381-1.952a1.325,1.325,0,0,1-.694-.832,1.125,1.125,0,0,0,.694,1.182L944,273.536a3.831,3.831,0,0,0,3.466.007l3.361-1.941A1.111,1.111,0,0,0,951.506,270.434Z" transform="translate(-833.433 -213.622)" fill="#fff"/>
        <path id="Trazado_127000" data-name="Trazado 127000" d="M868.32,247.355a1.464,1.464,0,0,1-.776.949l-2.912,1.68a4.326,4.326,0,0,1-3.916-.007l-2.931-1.692a1.477,1.477,0,0,1-.788-.963,1.28,1.28,0,0,0,.788,1.312l2.931,1.692a4.326,4.326,0,0,0,3.916.007l2.912-1.68A1.268,1.268,0,0,0,868.32,247.355Z" transform="translate(-844.41 -216.677)" fill="#fff"/>
        <path id="Trazado_127001" data-name="Trazado 127001" d="M853.805,238.115l15.489,8.942a4.326,4.326,0,0,0,3.916.007l2.912-1.682a1.264,1.264,0,0,0,.776-1.3,1.459,1.459,0,0,1-.776.948l-2.912,1.682a4.33,4.33,0,0,1-3.916-.007l-15.489-8.942a1.48,1.48,0,0,1-.788-.963A1.284,1.284,0,0,0,853.805,238.115Z" transform="translate(-844.936 -218.069)" fill="#fff"/>
        <path id="Trazado_127002" data-name="Trazado 127002" d="M879.28,236.181l3.011,1.738a4.239,4.239,0,0,0,3.835.007l2.993-1.727a1.238,1.238,0,0,0,.759-1.276,1.428,1.428,0,0,1-.759.925l-2.993,1.728a4.242,4.242,0,0,1-3.835-.007l-3.011-1.738a1.447,1.447,0,0,1-.771-.94A1.254,1.254,0,0,0,879.28,236.181Z" transform="translate(-841.562 -218.322)" fill="#fff"/>
        <path id="Trazado_127003" data-name="Trazado 127003" d="M876.008,251.794a1.459,1.459,0,0,1-.776.948l-2.912,1.682a4.326,4.326,0,0,1-3.916-.007l-2.931-1.692a1.48,1.48,0,0,1-.788-.963,1.281,1.281,0,0,0,.788,1.312l2.931,1.692a4.326,4.326,0,0,0,3.916.007l2.912-1.68A1.265,1.265,0,0,0,876.008,251.794Z" transform="translate(-843.392 -216.089)" fill="#fff"/>
        <path id="Trazado_127004" data-name="Trazado 127004" d="M875.3,225.661l3.01,1.738a4.245,4.245,0,0,0,3.836.007l2.992-1.728a1.24,1.24,0,0,0,.76-1.275,1.432,1.432,0,0,1-.76.925l-2.992,1.727a4.238,4.238,0,0,1-3.836-.007l-3.01-1.738a1.452,1.452,0,0,1-.772-.939A1.255,1.255,0,0,0,875.3,225.661Z" transform="translate(-842.089 -219.715)" fill="#fff"/>
        <path id="Trazado_127005" data-name="Trazado 127005" d="M935.932,286.391a1.452,1.452,0,0,1-.776.948l-2.912,1.682a4.326,4.326,0,0,1-3.916-.007l-55.166-31.85a1.473,1.473,0,0,1-.788-.963,1.281,1.281,0,0,0,.788,1.312l55.166,31.85a4.326,4.326,0,0,0,3.916.007l2.912-1.68A1.265,1.265,0,0,0,935.932,286.391Z" transform="translate(-842.374 -215.501)" fill="#fff"/>
        <path id="Trazado_127006" data-name="Trazado 127006" d="M868.18,229.772l6.875,3.969a4.239,4.239,0,0,0,3.835.007l2.992-1.727a1.237,1.237,0,0,0,.76-1.275,1.427,1.427,0,0,1-.76.924L878.89,233.4a4.239,4.239,0,0,1-3.835-.007l-6.875-3.969a1.453,1.453,0,0,1-.772-.94A1.255,1.255,0,0,0,868.18,229.772Z" transform="translate(-843.032 -219.171)" fill="#fff"/>
        <path id="Trazado_127007" data-name="Trazado 127007" d="M860.886,233.776l10.916,6.3a3.831,3.831,0,0,0,3.466.007l3.36-1.94a1.112,1.112,0,0,0,.684-1.169,1.307,1.307,0,0,1-.684.819l-3.36,1.94a3.831,3.831,0,0,1-3.466-.007l-10.916-6.3a1.321,1.321,0,0,1-.694-.833A1.126,1.126,0,0,0,860.886,233.776Z" transform="translate(-843.987 -218.626)" fill="#fff"/>
        <path id="Trazado_127008" data-name="Trazado 127008" d="M959.4,293.112l-2.912,1.682a4.33,4.33,0,0,1-3.916-.008l-2.93-1.692a1.479,1.479,0,0,1-.788-.962,1.285,1.285,0,0,0,.788,1.314l2.93,1.692a4.326,4.326,0,0,0,3.916.007l2.912-1.682a1.264,1.264,0,0,0,.776-1.3A1.456,1.456,0,0,1,959.4,293.112Z" transform="translate(-832.251 -210.745)" fill="#fff"/>
        <path id="Trazado_127009" data-name="Trazado 127009" d="M967.536,289.125l-3.36,1.941a3.831,3.831,0,0,1-3.466-.007l-8.6-4.963a1.328,1.328,0,0,1-.694-.833,1.128,1.128,0,0,0,.694,1.183l8.6,4.963a3.831,3.831,0,0,0,3.466.007l3.36-1.94a1.112,1.112,0,0,0,.684-1.169A1.306,1.306,0,0,1,967.536,289.125Z" transform="translate(-831.911 -211.655)" fill="#fff"/>
        <path id="Trazado_127010" data-name="Trazado 127010" d="M937.513,287.3a1.452,1.452,0,0,1-.776.948l-2.911,1.682a4.329,4.329,0,0,1-3.917-.007l-2.929-1.692a1.479,1.479,0,0,1-.788-.962,1.281,1.281,0,0,0,.788,1.312l2.929,1.692a4.329,4.329,0,0,0,3.917.007l2.911-1.68A1.265,1.265,0,0,0,937.513,287.3Z" transform="translate(-835.25 -211.388)" fill="#fff"/>
        <path id="Trazado_127011" data-name="Trazado 127011" d="M981.423,280.918l-2.992,1.727a4.241,4.241,0,0,1-3.837-.007l-6.875-3.969a1.454,1.454,0,0,1-.771-.94,1.254,1.254,0,0,0,.771,1.29l6.875,3.969a4.238,4.238,0,0,0,3.837.007l2.992-1.727a1.24,1.24,0,0,0,.76-1.275A1.435,1.435,0,0,1,981.423,280.918Z" transform="translate(-829.855 -212.652)" fill="#fff"/>
        <path id="Trazado_127012" data-name="Trazado 127012" d="M984.885,278.406a3.724,3.724,0,0,1-3.37-.006l-3.478-2.008a1.293,1.293,0,0,1-.675-.805,1.093,1.093,0,0,0,.675,1.155l3.478,2.008a3.724,3.724,0,0,0,3.37.006,1.078,1.078,0,0,0,.664-1.141A1.273,1.273,0,0,1,984.885,278.406Z" transform="translate(-828.477 -212.935)" fill="#fff"/>
        <path id="Trazado_127013" data-name="Trazado 127013" d="M974.047,284.662l-3.36,1.94a3.831,3.831,0,0,1-3.466-.006l-3.381-1.952a1.321,1.321,0,0,1-.694-.833,1.126,1.126,0,0,0,.694,1.183l3.381,1.952a3.831,3.831,0,0,0,3.466.007l3.36-1.941a1.111,1.111,0,0,0,.684-1.169A1.3,1.3,0,0,1,974.047,284.662Z" transform="translate(-830.359 -211.847)" fill="#fff"/>
        <path id="Trazado_127014" data-name="Trazado 127014" d="M945.2,291.744a1.459,1.459,0,0,1-.776.948l-2.912,1.682a4.326,4.326,0,0,1-3.916-.008l-2.931-1.692a1.481,1.481,0,0,1-.788-.961,1.281,1.281,0,0,0,.788,1.312l2.931,1.692a4.326,4.326,0,0,0,3.916.007l2.912-1.682A1.266,1.266,0,0,0,945.2,291.744Z" transform="translate(-834.233 -210.801)" fill="#fff"/>
        <path id="Trazado_127015" data-name="Trazado 127015" d="M952.275,297.223l-2.912,1.682a4.326,4.326,0,0,1-3.916-.007l-2.931-1.692a1.48,1.48,0,0,1-.788-.962,1.281,1.281,0,0,0,.788,1.312l2.931,1.692a4.326,4.326,0,0,0,3.916.007l2.912-1.68a1.265,1.265,0,0,0,.776-1.3A1.459,1.459,0,0,1,952.275,297.223Z" transform="translate(-833.194 -210.201)" fill="#fff"/>
        <path id="Trazado_127016" data-name="Trazado 127016" d="M882.205,221.414l7.341,4.238a3.724,3.724,0,0,0,3.37.007,1.082,1.082,0,0,0,.665-1.141,1.271,1.271,0,0,1-.665.79,3.721,3.721,0,0,1-3.37-.006l-7.341-4.238a1.29,1.29,0,0,1-.675-.805A1.094,1.094,0,0,0,882.205,221.414Z" transform="translate(-841.162 -220.259)" fill="#fff"/>
        <path id="Trazado_127017" data-name="Trazado 127017" d="M861.082,243.176a1.454,1.454,0,0,1-.776.949l-2.911,1.68a4.328,4.328,0,0,1-3.917-.007l-6.794-3.923a1.48,1.48,0,0,1-.788-.963,1.283,1.283,0,0,0,.788,1.312l6.794,3.923a4.329,4.329,0,0,0,3.917.008l2.911-1.682A1.265,1.265,0,0,0,861.082,243.176Z" transform="translate(-845.879 -217.525)" fill="#fff"/>
        <path id="Trazado_127018" data-name="Trazado 127018" d="M966.883,279.312a1.311,1.311,0,0,1-.684.819l-3.36,1.94a3.827,3.827,0,0,1-3.466-.007l-3.381-1.951a1.32,1.32,0,0,1-.694-.833,1.126,1.126,0,0,0,.694,1.183l3.381,1.952a3.831,3.831,0,0,0,3.466.006l3.36-1.94A1.113,1.113,0,0,0,966.883,279.312Z" transform="translate(-831.398 -212.446)" fill="#fff"/>
        <path id="Trazado_127019" data-name="Trazado 127019" d="M970.47,273.23a1.427,1.427,0,0,1-.76.925l-2.992,1.728a4.242,4.242,0,0,1-3.835-.007l-3.011-1.738a1.448,1.448,0,0,1-.771-.94,1.254,1.254,0,0,0,.771,1.29l3.011,1.738a4.239,4.239,0,0,0,3.835.007l2.992-1.727A1.238,1.238,0,0,0,970.47,273.23Z" transform="translate(-830.894 -213.251)" fill="#fff"/>
        <path id="Trazado_127020" data-name="Trazado 127020" d="M955.315,280.856a1.3,1.3,0,0,1-.684.819l-3.36,1.94a3.831,3.831,0,0,1-3.466-.006l-3.381-1.952a1.32,1.32,0,0,1-.694-.833,1.126,1.126,0,0,0,.694,1.183l3.381,1.952a3.831,3.831,0,0,0,3.466.006l3.36-1.94A1.111,1.111,0,0,0,955.315,280.856Z" transform="translate(-832.929 -212.242)" fill="#fff"/>
        <path id="Trazado_127021" data-name="Trazado 127021" d="M970.188,272.212l3.477,2.008a3.727,3.727,0,0,0,3.371.006,1.082,1.082,0,0,0,.664-1.141,1.274,1.274,0,0,1-.664.792,3.727,3.727,0,0,1-3.371-.007l-3.477-2.008a1.286,1.286,0,0,1-.674-.8A1.094,1.094,0,0,0,970.188,272.212Z" transform="translate(-829.516 -213.535)" fill="#fff"/>
        <path id="Trazado_127022" data-name="Trazado 127022" d="M875.228,242.056l3.381,1.952a3.833,3.833,0,0,0,3.467.007l3.36-1.94a1.114,1.114,0,0,0,.683-1.17,1.3,1.3,0,0,1-.683.819l-3.36,1.94a3.83,3.83,0,0,1-3.467-.006l-3.381-1.952a1.322,1.322,0,0,1-.694-.832A1.126,1.126,0,0,0,875.228,242.056Z" transform="translate(-842.089 -217.53)" fill="#fff"/>
        <path id="Trazado_127023" data-name="Trazado 127023" d="M952.313,287.626a1.454,1.454,0,0,1-.776.949l-2.911,1.68a4.329,4.329,0,0,1-3.917-.007l-2.931-1.692a1.48,1.48,0,0,1-.788-.963,1.284,1.284,0,0,0,.788,1.312l2.931,1.692a4.333,4.333,0,0,0,3.917.008l2.911-1.682A1.265,1.265,0,0,0,952.313,287.626Z" transform="translate(-833.291 -211.346)" fill="#fff"/>
        <path id="Trazado_127024" data-name="Trazado 127024" d="M962.5,267.773l3.478,2.008a3.724,3.724,0,0,0,3.37.006,1.081,1.081,0,0,0,.665-1.141,1.275,1.275,0,0,1-.665.792,3.724,3.724,0,0,1-3.37-.006l-3.478-2.009a1.286,1.286,0,0,1-.674-.8A1.093,1.093,0,0,0,962.5,267.773Z" transform="translate(-830.534 -214.122)" fill="#fff"/>
        <path id="Trazado_127025" data-name="Trazado 127025" d="M872.584,248.958l2.93,1.692a4.332,4.332,0,0,0,3.917.007l2.911-1.682a1.264,1.264,0,0,0,.776-1.3,1.452,1.452,0,0,1-.776.948l-2.911,1.682a4.332,4.332,0,0,1-3.917-.008l-2.93-1.692a1.473,1.473,0,0,1-.788-.963A1.282,1.282,0,0,0,872.584,248.958Z" transform="translate(-842.451 -216.634)" fill="#fff"/>
        <path id="Trazado_127026" data-name="Trazado 127026" d="M939.435,254.456l3.478,2.008a3.727,3.727,0,0,0,3.371.007,1.083,1.083,0,0,0,.664-1.141,1.272,1.272,0,0,1-.664.79,3.727,3.727,0,0,1-3.371-.006l-3.478-2.008a1.288,1.288,0,0,1-.674-.805A1.093,1.093,0,0,0,939.435,254.456Z" transform="translate(-833.587 -215.885)" fill="#fff"/>
        <path id="Trazado_127027" data-name="Trazado 127027" d="M916.37,241.14l3.478,2.008a3.727,3.727,0,0,0,3.371.006,1.082,1.082,0,0,0,.664-1.141,1.273,1.273,0,0,1-.664.792,3.727,3.727,0,0,1-3.371-.007l-3.478-2.008a1.287,1.287,0,0,1-.674-.8A1.094,1.094,0,0,0,916.37,241.14Z" transform="translate(-836.64 -217.648)" fill="#fff"/>
        <path id="Trazado_127028" data-name="Trazado 127028" d="M908.682,236.7l3.477,2.008a3.724,3.724,0,0,0,3.37.006,1.079,1.079,0,0,0,.664-1.141,1.27,1.27,0,0,1-.664.792,3.724,3.724,0,0,1-3.37-.006l-3.477-2.008a1.293,1.293,0,0,1-.675-.805A1.1,1.1,0,0,0,908.682,236.7Z" transform="translate(-837.658 -218.235)" fill="#fff"/>
        <path id="Trazado_127029" data-name="Trazado 127029" d="M954.812,263.334l3.478,2.008a3.724,3.724,0,0,0,3.37.006,1.078,1.078,0,0,0,.664-1.14,1.275,1.275,0,0,1-.664.79,3.724,3.724,0,0,1-3.37-.006l-3.478-2.008a1.293,1.293,0,0,1-.675-.805A1.094,1.094,0,0,0,954.812,263.334Z" transform="translate(-831.551 -214.71)" fill="#fff"/>
        <path id="Trazado_127030" data-name="Trazado 127030" d="M900.994,232.262l3.477,2.008a3.724,3.724,0,0,0,3.37.006,1.078,1.078,0,0,0,.664-1.14,1.274,1.274,0,0,1-.664.79,3.724,3.724,0,0,1-3.37-.006l-3.477-2.008a1.293,1.293,0,0,1-.675-.805A1.093,1.093,0,0,0,900.994,232.262Z" transform="translate(-838.675 -218.823)" fill="#fff"/>
        <path id="Trazado_127031" data-name="Trazado 127031" d="M924.058,245.579l3.479,2.008a3.724,3.724,0,0,0,3.37.006,1.08,1.08,0,0,0,.664-1.141,1.273,1.273,0,0,1-.664.792,3.724,3.724,0,0,1-3.37-.007l-3.479-2.008a1.289,1.289,0,0,1-.674-.805A1.094,1.094,0,0,0,924.058,245.579Z" transform="translate(-835.622 -217.06)" fill="#fff"/>
        <path id="Trazado_127032" data-name="Trazado 127032" d="M947.123,258.9,950.6,260.9a3.723,3.723,0,0,0,3.371.006,1.078,1.078,0,0,0,.664-1.14,1.275,1.275,0,0,1-.664.79,3.727,3.727,0,0,1-3.371-.006l-3.478-2.008a1.294,1.294,0,0,1-.674-.805A1.093,1.093,0,0,0,947.123,258.9Z" transform="translate(-832.569 -215.298)" fill="#fff"/>
        <path id="Trazado_127033" data-name="Trazado 127033" d="M893.305,227.823l3.477,2.008a3.727,3.727,0,0,0,3.371.007,1.081,1.081,0,0,0,.664-1.141,1.274,1.274,0,0,1-.664.79,3.726,3.726,0,0,1-3.371-.006l-3.477-2.008a1.29,1.29,0,0,1-.674-.805A1.093,1.093,0,0,0,893.305,227.823Z" transform="translate(-839.693 -219.411)" fill="#fff"/>
        <path id="Trazado_127034" data-name="Trazado 127034" d="M931.747,250.017l3.477,2.008a3.724,3.724,0,0,0,3.37.007,1.08,1.08,0,0,0,.664-1.141,1.269,1.269,0,0,1-.664.79,3.721,3.721,0,0,1-3.37-.006l-3.477-2.008a1.29,1.29,0,0,1-.675-.805A1.094,1.094,0,0,0,931.747,250.017Z" transform="translate(-834.604 -216.473)" fill="#fff"/>
      </g>
      <path id="Trazado_127035" data-name="Trazado 127035" d="M886.581,303.538,851.361,283.2c-1.391-.8-1.216-2.206.39-3.133l19.989-11.54a6.031,6.031,0,0,1,5.426-.225l35.22,20.335c1.391.8,1.216,2.206-.39,3.133l-19.989,11.54A6.027,6.027,0,0,1,886.581,303.538Z" transform="translate(-784.806 -67.712)" fill="#fff"/>
      <path id="Trazado_127036" data-name="Trazado 127036" d="M851.75,281.384l19.989-11.54a6.031,6.031,0,0,1,5.426-.225l35.22,20.335a2.02,2.02,0,0,1,.757.711,1.458,1.458,0,0,0-.757-2.025l-35.22-20.335a6.031,6.031,0,0,0-5.426.225l-19.989,11.54c-1.2.692-1.6,1.648-1.147,2.422A2.844,2.844,0,0,1,851.75,281.384Z" transform="translate(-784.806 -67.712)" fill="#7cbac4"/>
      <g id="Grupo_85783" data-name="Grupo 85783" transform="translate(68.186 123.306)" style="mix-blend-mode: multiply;isolation: isolate">
        <path id="Trazado_127037" data-name="Trazado 127037" d="M946.363,274.842a13.44,13.44,0,0,1-6.707-1.616L898.1,249.445l-41.559-23.781a7.1,7.1,0,0,1-3.848-6.13c0-2.722,1.688-5.259,4.634-6.958L874.2,202.061a16.52,16.52,0,0,1,8.145-2.071,13.438,13.438,0,0,1,6.706,1.617l41.559,23.781,41.559,23.781a7.1,7.1,0,0,1,3.847,6.13c0,2.721-1.688,5.258-4.633,6.958l-16.873,10.515A16.512,16.512,0,0,1,946.363,274.842Z" transform="translate(-852.691 -199.99)" fill="#daebf2" opacity="0"/>
        <path id="Trazado_127038" data-name="Trazado 127038" d="M857.657,212.652l13.562-8.415c.08-.046,3.034-1.865,3.13-1.889a16.253,16.253,0,0,1,8.057-1.862c.425.012.843.049,1.251.086a14.1,14.1,0,0,1,5.319,1.644L930.033,225.7l41,23.445a7.95,7.95,0,0,1,3.873,4.937,7.668,7.668,0,0,1,.13.929c.171,2.628-1.4,5.164-4.348,6.867l-13.561,8.415c-.08.046-3.035,1.865-3.13,1.89a16.267,16.267,0,0,1-8.057,1.861c-.426-.012-.842-.048-1.251-.086a14.1,14.1,0,0,1-5.32-1.644L898.311,248.83l-41-23.446a7.95,7.95,0,0,1-3.873-4.937,7.657,7.657,0,0,1-.13-.929C853.138,216.889,854.707,214.354,857.657,212.652Z" transform="translate(-852.611 -199.925)" fill="#daebf2" opacity="0.091"/>
        <path id="Trazado_127039" data-name="Trazado 127039" d="M857.992,212.73l13.4-8.277c.161-.093,2.92-1.769,3.112-1.816a15.853,15.853,0,0,1,7.97-1.652c.418.024.824.08,1.224.125a15.784,15.784,0,0,1,5.209,1.718L929.463,226l40.44,23.109c1.736,1,3.594,3.034,3.972,4.72.066.293.145.583.186.882.345,2.538-1.109,5.07-4.062,6.775l-13.4,8.276c-.161.093-2.92,1.769-3.112,1.816a15.962,15.962,0,0,1-7.969,1.651c-.418-.024-.826-.079-1.224-.123a15.759,15.759,0,0,1-5.209-1.719l-40.558-23.176-40.44-23.108c-1.735-1-3.593-3.035-3.972-4.72-.066-.294-.144-.584-.185-.883C853.583,216.966,855.037,214.434,857.992,212.73Z" transform="translate(-852.534 -199.861)" fill="#daebf2" opacity="0.182"/>
        <path id="Trazado_127040" data-name="Trazado 127040" d="M858.329,212.808l13.237-8.138c.241-.139,2.8-1.671,3.093-1.744a15.531,15.531,0,0,1,7.882-1.442c.41.035.807.112,1.2.162a17.929,17.929,0,0,1,5.1,1.794L928.9,226.313l39.881,22.773c1.542.891,3.677,3.018,4.071,4.5.075.283.181.554.241.838.523,2.447-.818,4.973-3.775,6.682l-13.237,8.137c-.241.139-2.806,1.673-3.094,1.744a15.657,15.657,0,0,1-7.881,1.443c-.411-.037-.807-.112-1.2-.162a17.931,17.931,0,0,1-5.1-1.794L898.747,247.6l-39.881-22.773c-1.542-.891-3.678-3.018-4.072-4.5-.075-.282-.181-.553-.241-.837C854.03,217.042,855.371,214.515,858.329,212.808Z" transform="translate(-852.459 -199.799)" fill="#daebf2" opacity="0.273"/>
        <path id="Trazado_127041" data-name="Trazado 127041" d="M858.67,212.888l13.074-8c.322-.186,2.692-1.575,3.074-1.671a15.174,15.174,0,0,1,7.8-1.232c.4.046.789.144,1.172.2a20.744,20.744,0,0,1,4.988,1.868l39.556,22.57,39.322,22.438c1.35.779,3.772,3,4.169,4.284.085.273.219.523.3.792.7,2.359-.528,4.879-3.491,6.59l-13.074,8c-.322.186-2.692,1.576-3.074,1.671a15.34,15.34,0,0,1-7.8,1.232c-.4-.049-.789-.143-1.172-.2a20.721,20.721,0,0,1-4.988-1.868l-39.556-22.57-39.322-22.438c-1.35-.779-3.773-3-4.171-4.284-.084-.273-.217-.523-.3-.792C854.475,217.119,855.706,214.6,858.67,212.888Z" transform="translate(-852.387 -199.738)" fill="#daebf2" opacity="0.364"/>
        <path id="Trazado_127042" data-name="Trazado 127042" d="M859.011,212.969l12.914-7.861a29.39,29.39,0,0,1,3.055-1.6,14.821,14.821,0,0,1,7.708-1.023c.4.059.771.174,1.146.239a24.605,24.605,0,0,1,4.877,1.943l39.055,22.268,38.762,22.1c1.157.668,4.1,2.927,4.269,4.066a5.078,5.078,0,0,1,.354.745c.888,2.27-.238,4.785-3.2,6.5l-12.912,7.861a29.172,29.172,0,0,1-3.056,1.6,14.993,14.993,0,0,1-7.707,1.024c-.4-.061-.771-.176-1.146-.239a24.686,24.686,0,0,1-4.878-1.943L899.192,246.38l-38.762-22.1c-1.156-.668-4.1-2.927-4.269-4.066a5.147,5.147,0,0,1-.354-.746C854.92,217.2,856.044,214.682,859.011,212.969Z" transform="translate(-852.318 -199.678)" fill="#daebf2" opacity="0.455"/>
        <path id="Trazado_127043" data-name="Trazado 127043" d="M859.356,213.051l12.75-7.723a23.8,23.8,0,0,1,3.038-1.526,14.439,14.439,0,0,1,7.619-.813c.39.07.753.206,1.12.276a30.469,30.469,0,0,1,4.768,2.018l38.555,21.966,38.2,21.766c.964.557,4.223,2.9,4.368,3.848a4.9,4.9,0,0,1,.41.7c1.077,2.181.053,4.69-2.918,6.406l-12.75,7.723a23.8,23.8,0,0,1-3.038,1.525,14.624,14.624,0,0,1-7.62.813c-.387-.074-.752-.206-1.119-.276a30.37,30.37,0,0,1-4.768-2.018l-38.555-21.966L861.216,224c-.965-.556-4.225-2.9-4.369-3.848a4.912,4.912,0,0,1-.41-.7C855.361,217.275,856.385,214.766,859.356,213.051Z" transform="translate(-852.25 -199.619)" fill="#daebf2" opacity="0.545"/>
        <path id="Trazado_127044" data-name="Trazado 127044" d="M859.7,213.134l12.589-7.585a19.834,19.834,0,0,1,3.019-1.453,14.07,14.07,0,0,1,7.531-.6c.382.083.734.238,1.094.315a39.071,39.071,0,0,1,4.657,2.093l38.054,21.663,37.643,21.43c.771.445,4.351,2.871,4.466,3.63a4.9,4.9,0,0,1,.468.654c1.269,2.089.342,4.6-2.633,6.313L954,267.176a19.771,19.771,0,0,1-3.019,1.453,14.217,14.217,0,0,1-7.532.6c-.38-.085-.733-.237-1.093-.314a39.263,39.263,0,0,1-4.659-2.093l-38.053-21.663L862,223.733c-.771-.446-4.352-2.872-4.467-3.63a4.9,4.9,0,0,1-.466-.656C855.8,217.358,856.727,214.852,859.7,213.134Z" transform="translate(-852.185 -199.561)" fill="#daebf2" opacity="0.636"/>
        <path id="Trazado_127045" data-name="Trazado 127045" d="M860.051,213.219l12.427-7.446a16.928,16.928,0,0,1,3-1.38,13.682,13.682,0,0,1,7.444-.394c.375.1.713.27,1.068.352.546.129,4.132,1.928,4.547,2.169l37.554,21.36,37.084,21.095c.579.334,4.48,2.843,4.566,3.412a4.969,4.969,0,0,1,.523.609c1.466,2,.633,4.5-2.347,6.221l-12.425,7.446a16.943,16.943,0,0,1-3,1.38,13.822,13.822,0,0,1-7.444.394c-.374-.1-.713-.27-1.068-.352-.545-.129-4.132-1.928-4.547-2.169l-37.554-21.36-37.084-21.095c-.579-.334-4.48-2.843-4.566-3.412a4.96,4.96,0,0,1-.523-.609C856.237,217.445,857.071,214.939,860.051,213.219Z" transform="translate(-852.121 -199.505)" fill="#daebf2" opacity="0.727"/>
        <path id="Trazado_127046" data-name="Trazado 127046" d="M860.4,213.3,872.664,206a14.7,14.7,0,0,1,2.982-1.308A13.3,13.3,0,0,1,883,204.5a7.706,7.706,0,0,1,1.041.391c.374.028,4.161,2.082,4.438,2.242L925.534,228.2l36.526,20.759c.385.223,4.606,2.815,4.664,3.194a4.89,4.89,0,0,1,.579.564c1.666,1.894.924,4.406-2.061,6.128l-12.264,7.308A14.681,14.681,0,0,1,950,267.457a13.4,13.4,0,0,1-7.357.185,8.145,8.145,0,0,1-1.041-.39c-.373-.029-4.16-2.084-4.437-2.243L900.107,243.95l-36.525-20.759c-.385-.222-4.606-2.814-4.664-3.194a4.884,4.884,0,0,1-.579-.563C856.673,217.538,857.416,215.028,860.4,213.3Z" transform="translate(-852.059 -199.45)" fill="#daebf2" opacity="0.818"/>
        <path id="Trazado_127047" data-name="Trazado 127047" d="M860.752,213.392l12.1-7.17a13.285,13.285,0,0,1,10.232-1.209,7.319,7.319,0,0,1,1.015.428c.187.015,4.189,2.238,4.327,2.318l36.553,20.756,35.965,20.422c.192.112,4.734,2.787,4.763,2.977a4.942,4.942,0,0,1,.635.517c1.868,1.79,1.214,4.311-1.774,6.037l-12.1,7.17a13.285,13.285,0,0,1-10.232,1.209,7.375,7.375,0,0,1-1.015-.429c-.186-.014-4.189-2.238-4.327-2.317l-36.552-20.756-35.965-20.422c-.194-.112-4.736-2.787-4.764-2.977a4.943,4.943,0,0,1-.635-.517C857.109,217.637,857.763,215.118,860.752,213.392Z" transform="translate(-851.998 -199.396)" fill="#daebf2" opacity="0.909"/>
        <path id="Trazado_127048" data-name="Trazado 127048" d="M940.842,265.588l-40.268-22.846L860.306,219.9c-2.849-1.645-2.492-4.518.8-6.417l11.939-7.031c3.29-1.9,8.266-2.105,11.115-.461l40.268,22.846,40.268,22.846c2.849,1.645,2.491,4.518-.8,6.417l-11.94,7.031C948.667,267.027,943.691,267.233,940.842,265.588Z" transform="translate(-851.938 -199.343)" fill="#daebf2"/>
      </g>
    </g>
    <g id="Grupo_85785" data-name="Grupo 85785" transform="translate(902.522 99.773)">
      <path id="Trazado_127049" data-name="Trazado 127049" d="M942.256,159.232l-3.621-2.087-3,2.551.623,4.638,3.621,2.087,3-2.551Zm10.363-31.394L949,125.751l-3,2.552.623,4.637,3.621,2.087,3-2.551Zm1.081-3.275,3-2.551-.624-4.638-3.621-2.087-3,2.551.624,4.638Zm-7.99,24.2-3.621-2.087-3,2.551.624,4.638,3.621,2.087,3-2.551Zm3.454-10.465-3.62-2.086-3,2.551.624,4.638,3.62,2.086,3-2.551Zm5.164-3.106-3,2.551.624,4.638,3.62,2.087,3-2.552-.624-4.638Zm3.454-10.465-3,2.552.623,4.637,3.621,2.087,3-2.551-.624-4.638Zm-6.909,20.93-3,2.551.624,4.638,3.621,2.087,3-2.551-.624-4.638Zm-3.455,10.464-3,2.552.624,4.637,3.62,2.087,3-2.551-.624-4.638Zm-3.454,10.465-3,2.551.624,4.638,3.62,2.086,3-2.551-.624-4.638Zm20.764-23.216,3-2.552-.624-4.638-3.621-2.086-3,2.551.623,4.638Zm-3.455,10.464,3-2.551-.624-4.638-3.62-2.087-3,2.551.624,4.638Zm6.91-20.93,3-2.551-.623-4.638-3.621-2.087-3,2.552.624,4.638ZM957.82,164.3l3-2.551-.623-4.638-3.621-2.087-3,2.552.624,4.637Zm-3.455,10.464,3-2.551-.624-4.638-3.621-2.086-3,2.551.623,4.638Zm1.709,7.358,3.62,2.087,3-2.551-.624-4.638-3.62-2.087-3,2.551Zm6.909-20.928,3.621,2.086,3-2.551-.624-4.638-3.621-2.087-3,2.552Zm-3.455,10.464,3.621,2.087,3-2.552-.624-4.638-3.621-2.086-3,2.551Zm9.283-28.119-3,2.551.624,4.638,3.62,2.087,3-2.551-.624-4.638Zm1.08-3.275,3.621,2.087,3-2.552-.624-4.638-3.621-2.086-3,2.551Zm7.819,2.03-3,2.551.624,4.638,3.62,2.087,3-2.551-.624-4.638Zm-3.454,10.464-3,2.552.624,4.638,3.62,2.086,3-2.551-.624-4.638Zm-9.282,28.119,3.62,2.087,3-2.551-.624-4.638-3.621-2.087-3,2.551Zm17.438-39.771,3-2.552-.624-4.637-3.621-2.087-3,2.551.624,4.638Zm-13.985,29.307,3.621,2.087,3-2.552-.624-4.638-3.621-2.086-3,2.551Zm11.948,8.98-.624-4.638-3.621-2.087-3,2.551.624,4.638,3.62,2.087ZM970.3,190.326l3.621,2.086,3-2.551-.624-4.638-3.62-2.086-3,2.551Zm13.818-41.859,3.62,2.087,3-2.551-.624-4.638-3.621-2.087-3,2.551Zm-1.081,3.276-3,2.551.624,4.638,3.621,2.086,3-2.551-.624-4.638Zm-3.455,10.464-3,2.551.624,4.638,3.621,2.087,3-2.552-.624-4.637Zm5.721,21.834-3.621-2.087-3,2.551.624,4.638,3.62,2.087,3-2.552Zm11.445-34.67,3-2.551-.624-4.638L995.5,140.1l-3,2.551.624,4.638Zm-7.99,24.2-3.621-2.087-3,2.552.624,4.638,3.621,2.086,3-2.551Zm3.287-23.015-3,2.551.624,4.638,3.62,2.087,3-2.552-.624-4.637Zm.167,12.551-3.62-2.087-3,2.551.624,4.638,3.621,2.087,3-2.551Zm6.245-6.382,3.62,2.087,3-2.551-.624-4.638-3.62-2.087-3,2.551Zm2.54,5.362L997.378,160l-3,2.551.624,4.638,3.621,2.087,3-2.551Zm-3.455,10.464-3.621-2.086-3,2.551.624,4.638,3.621,2.086,3-2.551Zm-6.909,20.93-3.621-2.087-3,2.551.624,4.638,3.621,2.087,3-2.551Zm3.454-10.464-3.62-2.087-3,2.551.624,4.638,3.62,2.087,3-2.552Zm5.09,9.015-3.621-2.087-3,2.551.624,4.638,3.62,2.087,3-2.551Zm3.455-10.464-3.621-2.087-3,2.551.624,4.638,3.621,2.087,3-2.551Zm7.99-24.2,3-2.551-.624-4.638-3.621-2.087-3,2.551.624,4.638Zm-4.536,13.739-3.62-2.086-3,2.551.624,4.638,3.621,2.086,3-2.551Zm3.455-10.464-3.621-2.087-3,2.552.624,4.637,3.62,2.087,3-2.551Zm-1.746,17.822-3,2.551.624,4.638,3.621,2.087,3-2.551-.624-4.638Zm6.91-20.93-3,2.552.624,4.637,3.62,2.087,3-2.551-.624-4.638ZM1011.252,168l-3,2.551.624,4.638,3.621,2.087,3-2.552-.623-4.638Zm-10.363,31.394-3,2.551.624,4.638,3.621,2.086,3-2.551-.623-4.638Zm3.455-10.465-3,2.552.624,4.637,3.62,2.087,3-2.551-.624-4.638Zm20.764-23.216,3-2.551-.624-4.638-3.621-2.087-3,2.552.624,4.638Zm-10.363,31.394,3-2.551-.624-4.638-3.621-2.087-3,2.552.624,4.637Zm3.455-10.464,3-2.551-.624-4.638-3.62-2.087-3,2.551.624,4.638Zm3.454-10.464,3-2.552-.624-4.638L1020.4,166.9l-3,2.551.624,4.638Zm-10.364,31.393,3-2.551-.624-4.638-3.621-2.086-3,2.551.624,4.638Zm14.446-31.225-3,2.551.624,4.638,3.621,2.087,3-2.551-.624-4.638ZM1019.907,194l3.621,2.086,3-2.551-.624-4.638-3.621-2.087-3,2.552Zm-3.454,10.464,3.62,2.087,3-2.552-.624-4.638-3.62-2.086-3,2.551Zm10.364-31.394,3.62,2.087,3-2.552-.624-4.638-3.621-2.086-3,2.551ZM1013,214.929l3.621,2.087,3-2.551-.624-4.638-3.62-2.087-3,2.551Zm21.637-39.828-3,2.551.624,4.638,3.62,2.087,3-2.551-.624-4.638Zm4.7-1.188,3-2.552-.624-4.637-3.621-2.087-3,2.551.624,4.638Zm-3.912,18.377-.623-4.638-3.621-2.087-3,2.552.624,4.638,3.621,2.086ZM1021.9,213.684l3.62,2.087,3-2.551-.624-4.638-3.62-2.087-3,2.551Zm3.454-10.464,3.621,2.087,3-2.552-.624-4.638-3.621-2.086-3,2.551Zm18.233-16.588-3.621-2.086-3,2.551.624,4.638,3.621,2.086,3-2.551Zm-10.363,31.394-3.621-2.086-3,2.551.624,4.638,3.621,2.086,3-2.551Zm6.909-20.928-3.621-2.087-3,2.551.623,4.638,3.621,2.087,3-2.552Zm-3.455,10.464-3.62-2.087-3,2.551.624,4.638,3.62,2.087,3-2.551Zm4.37-26.291,3.62,2.087,3-2.551-.624-4.638-3.62-2.087-3,2.551Zm1.184,35.575-3.62-2.087-3,2.551.624,4.638,3.62,2.087,3-2.552Zm6.91-20.93-3.621-2.087-3,2.551.624,4.638,3.621,2.087,3-2.551Zm-3.455,10.464-3.621-2.087-3,2.552.623,4.638,3.621,2.086,3-2.551Zm7.99-24.2,3-2.551-.624-4.638-3.621-2.086-3,2.551.624,4.638Zm-1.081,3.276-3.62-2.087-3,2.551.624,4.638,3.62,2.087,3-2.552Zm-1.746,17.822-3,2.551.623,4.638,3.621,2.086,3-2.551-.624-4.638Zm4.536-13.74,3.62,2.087,3-2.551-.624-4.638-3.62-2.087-3,2.551Zm-1.081,3.275-3,2.551.624,4.638,3.621,2.087,3-2.551-.624-4.638ZM1043.939,224.2l-3,2.551.624,4.638,3.621,2.087,3-2.551-.624-4.638Zm3.455-10.464-3,2.551.624,4.638,3.62,2.087,3-2.552-.624-4.637Zm-121.356-5.379,3-2.551-.624-4.638-3.62-2.087-3,2.552.624,4.638Zm-1.08,3.275-3.621-2.086-3,2.551.624,4.638,3.621,2.087,3-2.552Zm13.817-41.858-3.62-2.087-3,2.552.624,4.638,3.62,2.086,3-2.551Zm-6.909,20.93-3.621-2.087-3,2.551.623,4.638,3.621,2.087,3-2.551Zm3.455-10.465-3.621-2.086-3,2.551.624,4.638,3.621,2.087,3-2.552Zm-1.746,17.822-3,2.552.624,4.638,3.62,2.086,3-2.551-.624-4.638Zm3.454-10.464-3,2.551.623,4.638,3.621,2.087,3-2.551-.624-4.638Zm-10.364,31.394-3,2.551.623,4.638,3.621,2.087,3-2.551-.624-4.638Zm13.818-41.858-3,2.551.624,4.638,3.621,2.087,3-2.552-.624-4.637ZM930.12,208.528l-3,2.551.624,4.638,3.621,2.087,3-2.552-.624-4.637Zm20.764-23.216,3-2.552-.624-4.637-3.62-2.087-3,2.551.624,4.638Zm-3.454,10.464,3-2.551-.623-4.638-3.621-2.087-3,2.551.624,4.638Zm-3.455,10.464,3-2.551-.624-4.638-3.621-2.086-3,2.551.624,4.638Zm-3.455,10.465,3-2.552-.624-4.637-3.62-2.087-3,2.551.624,4.638Zm-1.08,3.275-3.621-2.087-3,2.551.624,4.638,3.621,2.087,3-2.551Zm9.7-16.846,3.621,2.086,3-2.551-.624-4.638-3.621-2.086-3,2.551Zm3.455-10.465,3.621,2.087,3-2.551-.623-4.638-3.621-2.087-3,2.551Zm-10.364,31.394,3.621,2.087,3-2.551-.623-4.638-3.621-2.087-3,2.551Zm3.455-10.464,3.62,2.087,3-2.551-.624-4.638-3.62-2.087-3,2.551Zm-4.536,13.74-3,2.551.623,4.638,3.621,2.086,3-2.551-.624-4.638ZM911.2,149.893l3-2.551-.624-4.638-3.621-2.086-3,2.551.624,4.638Zm3.455-10.464,3-2.551-.624-4.638-3.621-2.087-3,2.552.624,4.637Zm10.363-31.394,3-2.551-.624-4.638-3.621-2.087-3,2.552.624,4.637Zm-6.909,20.93,3-2.551-.624-4.638-3.62-2.087-3,2.551.624,4.638Zm3.454-10.464,3-2.552-.624-4.638-3.621-2.086-3,2.551.624,4.638Zm-2.826,21.1-3,2.551.624,4.638,3.62,2.087,3-2.552-.624-4.638Zm3.454-10.465-3,2.552.624,4.638,3.621,2.086,3-2.551-.624-4.638ZM929.1,108.2l-3,2.551.624,4.638,3.62,2.087,3-2.552-.624-4.638Zm-3.455,10.464-3,2.551.624,4.638,3.621,2.087,3-2.551-.624-4.638Zm-10.363,31.394-3,2.551.624,4.638,3.621,2.087,3-2.551-.624-4.638Zm20.764-23.216,3-2.551-.624-4.638L934.8,117.57l-3,2.551.623,4.638ZM925.684,158.24l3-2.551-.624-4.638-3.621-2.087-3,2.551.624,4.638Zm6.909-20.93,3-2.551-.624-4.638-3.62-2.087-3,2.552.624,4.638Zm6.91-20.928,3-2.552-.624-4.638-3.621-2.086-3,2.551.624,4.638Zm-10.364,31.394,3-2.552-.624-4.638-3.621-2.086-3,2.551.624,4.638Zm1.709,7.357,3.62,2.087,3-2.551-.624-4.638-3.621-2.087-3,2.551Zm13.526-21.394-.624-4.638-3.62-2.086-3,2.551.624,4.638,3.621,2.086ZM927.393,165.6l3.621,2.086,3-2.551-.624-4.638-3.62-2.087-3,2.552Zm13.818-41.859,3.62,2.087,3-2.551-.624-4.638-3.621-2.087-3,2.551Zm-6.91,20.93,3.621,2.087,3-2.552-.624-4.637-3.621-2.087-3,2.551Zm-36.945,47.163,3-2.552-.624-4.637-3.62-2.087-3,2.551.624,4.638Zm10.364-31.394,3-2.552-.624-4.637-3.62-2.087-3,2.551.624,4.638Zm-6.909,20.928,3-2.551-.624-4.638-3.621-2.087-3,2.552.623,4.638Zm-4.535,13.74-3.621-2.087-3,2.551.624,4.638L893.9,202.3l3-2.551Zm7.99-24.2,3-2.551-.624-4.638-3.621-2.087-3,2.551.624,4.638ZM901.439,192l-3,2.551.624,4.638,3.621,2.087,3-2.551-.624-4.638Zm-3.455,10.465-3,2.551.624,4.638,3.62,2.086,3-2.551-.624-4.638Zm10.364-31.394-3,2.551.624,4.638,3.62,2.086,3-2.551-.624-4.638Zm3.455-10.465-3,2.551.624,4.638,3.621,2.087,3-2.551-.624-4.638Zm-6.909,20.93-3,2.551.624,4.638,3.621,2.087,3-2.552-.624-4.637Zm5.866,21.917-3.621-2.086-3,2.551.624,4.638,3.621,2.086,3-2.551Zm1.08-3.275,3-2.551-.624-4.638-3.62-2.087-3,2.551.624,4.638ZM922.2,168.784l3-2.551-.624-4.638-3.62-2.087-3,2.551.624,4.638Zm-3.454,10.464,3-2.551-.624-4.638-3.621-2.086-3,2.551.624,4.638Zm-3.455,10.465,3-2.551-.624-4.638-3.621-2.087-3,2.551.623,4.638Zm8.617-13.571,3.621,2.086,3-2.551-.624-4.638-3.621-2.086-3,2.551Zm-10.364,31.394,3.621,2.086,3-2.551-.624-4.638-3.621-2.086-3,2.551Zm6.909-20.93,3.621,2.087,3-2.551-.624-4.638-3.621-2.087-3,2.551ZM917,197.07l3.62,2.087,3-2.551L923,191.968l-3.62-2.087-3,2.552Zm-4.536,13.74-3,2.551L910.1,218l3.62,2.087,3-2.551-.624-4.638Zm42.283,14.095,3-2.551-.624-4.638-3.62-2.087-3,2.551.624,4.638Zm-1.08,3.275-3.621-2.086-3,2.551.624,4.638,3.621,2.086,3-2.551Zm.914-15.826,3.621,2.087,3-2.551-.624-4.638-3.621-2.087-3,2.551Zm3.455-10.464,3.621,2.086,3-2.551-.624-4.638-3.621-2.086-3,2.551Zm3.455-10.465,3.62,2.087,3-2.551-.624-4.638-3.62-2.087-3,2.552Zm1.875,19.909,3.62,2.087,3-2.551-.624-4.638-3.621-2.087-3,2.551Zm-7.991,24.2-3,2.551.624,4.638,3.62,2.087,3-2.551L959,237.625Zm11.445-34.669,3.621,2.087,3-2.552-.624-4.638L969.2,193.68l-3,2.551Zm-6.742,33.48,3-2.551-.624-4.638-3.621-2.086-3,2.551.624,4.638Zm3.455-10.464,3-2.551-.624-4.638-3.62-2.087-3,2.552.624,4.637Zm9.008-1.182,3-2.551-.624-4.638-3.621-2.086-3,2.551.624,4.638Zm-4.535,13.74-3.621-2.087-3,2.552.624,4.637,3.621,2.087,3-2.551Zm7.99-24.2,3-2.551-.624-4.638-3.621-2.087-3,2.552.624,4.637Zm-6.91,20.93,3-2.551-.624-4.638-3.62-2.087-3,2.551.624,4.638Zm12.737-38.583L978.2,192.5l-3,2.551.624,4.638,3.62,2.087,3-2.551ZM969.716,243.8l-3,2.551.624,4.638,3.62,2.087,3-2.552-.624-4.638Zm8.158-11.653,3-2.551-.624-4.638-3.62-2.087-3,2.551.624,4.638Zm9.282-28.119-3.621-2.087-3,2.552.624,4.638,3.621,2.086,3-2.551Zm-12.737,38.583,3-2.551-.624-4.638-3.621-2.087-3,2.552.624,4.638Zm9.282-28.119-3.621-2.086-3,2.551.624,4.638,3.62,2.087,3-2.552Zm-1.818,29.944-3.621-2.086-3,2.551.624,4.638,3.621,2.087,3-2.552Zm1.081-3.275,3-2.551-.624-4.638-3.62-2.087-3,2.552.624,4.638Zm5.827-17.654-3.621-2.087-3,2.551.624,4.638,3.62,2.087,3-2.551Zm3.455-10.465-3.621-2.086-3,2.551.624,4.638,3.621,2.087,3-2.552Zm3.454-10.464-3.62-2.087-3,2.552.624,4.638,3.62,2.086,3-2.551ZM983.591,251.8l-3,2.551.624,4.638,3.62,2.087,3-2.551-.624-4.638Zm3.454-10.464-3,2.551.624,4.638,3.621,2.087,3-2.552-.624-4.637Zm3.455-10.465-3,2.552.624,4.638,3.621,2.086,3-2.551-.624-4.638Zm3.454-10.464-3,2.551.624,4.638,3.62,2.087,3-2.551-.624-4.638Zm3.455-10.464-3,2.551.624,4.638,3.621,2.087,3-2.552-.624-4.637Zm10.4,8.178,3-2.552-.624-4.637-3.62-2.087-3,2.551.624,4.638Zm-3.454,10.464,3-2.551-.624-4.638-3.621-2.087-3,2.551.624,4.638Zm-3.455,10.464,3-2.551-.624-4.638-3.621-2.086-3,2.551.623,4.638Zm-3.455,10.465,3-2.552-.624-4.637-3.62-2.087-3,2.551.624,4.638Zm-1.08,3.275-3.621-2.087-3,2.551.624,4.638,3.621,2.087,3-2.551Zm6.244-6.382,3.621,2.087,3-2.551-.624-4.638-3.62-2.087-3,2.551Zm6.909-20.93,3.621,2.087,3-2.551-.624-4.638-3.621-2.087-3,2.551Zm-3.454,10.465,3.62,2.086,3-2.551-.624-4.638-3.621-2.086-3,2.551Zm-6.91,20.929,3.621,2.087,3-2.551-.624-4.638-3.621-2.087-3,2.551Zm-1.081,3.276-3,2.551.624,4.638,3.62,2.086,3-2.551-.624-4.638Zm13.6-2.433,3-2.551-.624-4.638-3.62-2.087-3,2.551.624,4.638Zm6.742-33.481,3.621,2.087,3-2.551-.624-4.638-3.62-2.087-3,2.552Zm-7.824,36.756-3.621-2.086-3,2.551.624,4.638,3.621,2.086,3-2.551Zm4.369-26.29,3.621,2.086,3-2.551-.624-4.638-3.621-2.086-3,2.551Zm-3.454,10.464,3.62,2.087,3-2.551-.624-4.638-3.62-2.087-3,2.551Zm8.95,11.531,3-2.551-.623-4.638-3.621-2.087-3,2.552.624,4.637Zm9.282-28.119-3.621-2.086-3,2.551.624,4.638,3.621,2.087,3-2.552Zm-3.455,10.465-3.62-2.087-3,2.551.624,4.638,3.62,2.087,3-2.551ZM1017,267.153l3-2.551-.624-4.638-3.621-2.086-3,2.551.624,4.638Zm-4.7,1.189-3,2.551.624,4.638,3.62,2.087,3-2.551-.624-4.638Zm19.538-20.025-3.62-2.086-3,2.551.624,4.638,3.62,2.086,3-2.551Zm3.455-10.464-3.621-2.087-3,2.552.624,4.637,3.621,2.087,3-2.551Zm3.455-10.464-3.621-2.087-3,2.551.624,4.638,3.621,2.087,3-2.551Zm-12.737,38.583,3-2.551-.623-4.638-3.621-2.087-3,2.551.624,4.638Zm-1.081,3.275-3.621-2.087-3,2.552.624,4.637,3.621,2.087,3-2.551ZM1037,245.211l-3,2.551.624,4.638,3.62,2.087,3-2.552-.624-4.638Zm-3.455,10.464-3,2.551.624,4.638,3.621,2.087,3-2.551-.623-4.638Zm6.909-20.93-3,2.552.624,4.638,3.621,2.086,3-2.551-.624-4.638Zm-10.364,31.394-3,2.552.623,4.638,3.621,2.086,3-2.551-.624-4.638Zm-3.454,10.465-3,2.551.624,4.638,3.62,2.087,3-2.552-.624-4.638Z" transform="translate(-889.658 -98.759)" opacity="0.3" fill="url(#linear-gradient-5)"/>
      <path id="Trazado_127050" data-name="Trazado 127050" d="M947.257,159.2l-3,2.552.624,4.638,3.62,2.086,3-2.551-.624-4.638Zm13.487-2.208,3-2.551-.624-4.638-3.621-2.087-3,2.551.624,4.638Zm-1.082,3.275-3.62-2.087-3,2.552.624,4.638,3.62,2.086,3-2.551Zm9.982-4.519,3-2.551-.623-4.638L968.4,146.47l-3,2.551.624,4.638Zm-2.881,21.144-3,2.551.624,4.638,3.62,2.086,3-2.551-.624-4.638Zm17.219-12.881,3-2.551-.623-4.638-3.621-2.087-3,2.551.624,4.638Zm1.708,7.357,3.621,2.087,3-2.551-.624-4.638-3.621-2.087-3,2.552Zm2.54,5.362-3.62-2.086-3,2.551.624,4.638,3.62,2.086,3-2.551Zm-.9,14.118,3.62,2.087,3-2.551-.624-4.638-3.62-2.087-3,2.551Zm-43.549-21.1-3,2.551.624,4.638,3.62,2.086,3-2.551-.624-4.638Zm-3.455,10.464-3,2.551.624,4.638,3.621,2.087,3-2.551-.624-4.638Zm-3.455,10.464-3,2.551.624,4.638,3.62,2.087,3-2.551-.624-4.638Zm14.23,8.2-3,2.551.624,4.638,3.62,2.086,3-2.551-.624-4.638Zm15.859-9.4-3.621-2.087-3,2.552.624,4.638,3.621,2.086,3-2.551Zm-1.521,17.66-3,2.552.624,4.638,3.62,2.086,3-2.551-.624-4.638Zm13.874,8-3,2.551.624,4.638,3.62,2.087,3-2.552-.624-4.637Zm3.454-10.465-3,2.552.624,4.638,3.621,2.086,3-2.551-.624-4.638Zm3.455-10.464-3,2.551.624,4.638,3.621,2.087,3-2.551-.623-4.638Z" transform="translate(-883.806 -92.443)" fill="url(#linear-gradient-6)"/>
    </g>
    <g id="Grupo_85788" data-name="Grupo 85788" transform="translate(830.855 119.254)">
      <path id="Trazado_127051" data-name="Trazado 127051" d="M946.912,270.966l-110.33-63.75c-5.64-3.257-10.213-11.994-10.213-19.514V126.267c0-7.521,4.573-10.978,10.213-7.722l110.33,63.75c5.64,3.257,10.213,11.994,10.213,19.515v61.435C957.125,270.765,952.552,274.223,946.912,270.966Z" transform="translate(-826.369 -115.783)" fill="url(#linear-gradient-7)"/>
      <path id="Trazado_127052" data-name="Trazado 127052" d="M949.356,180.937l-110.329-63.75c-2.232-1.288-4.3-1.525-5.977-.876-.214.083-3.061,1.6-3.262,1.706l-.015.009c1.745-.848,3.953-.691,6.358.7l110.33,63.751c5.64,3.256,10.213,11.993,10.213,19.514v61.435c0,4.693-1.781,7.8-4.491,8.688a1.709,1.709,0,0,0,.895-.3c.129-.075,3.219-1.819,3.343-1.9,1.941-1.359,3.148-4.151,3.148-8.016V200.453C959.569,192.932,955,184.194,949.356,180.937Z" transform="translate(-825.919 -115.962)" fill="#583ae2"/>
      <path id="Trazado_127053" data-name="Trazado 127053" d="M940.775,216.565l-85.743-49.6V143.8l85.743,49.6Z" transform="translate(-822.575 -112.277)" fill="url(#linear-gradient-8)"/>
      <path id="Trazado_127054" data-name="Trazado 127054" d="M857.2,166.149v-21.1l-2.171-1.253v23.163l85.743,49.6V214.5Z" transform="translate(-822.575 -112.277)" fill="#583ae2"/>
      <path id="Trazado_127055" data-name="Trazado 127055" d="M940.775,247.719l-85.743-49.6V174.953l85.743,49.6Z" transform="translate(-822.575 -108.154)" fill="url(#linear-gradient-8)"/>
      <path id="Trazado_127056" data-name="Trazado 127056" d="M857.2,197.3v-21.1l-2.171-1.253v23.163l85.743,49.6v-2.068Z" transform="translate(-822.575 -108.154)" fill="#583ae2"/>
      <path id="Trazado_127057" data-name="Trazado 127057" d="M946.87,182.078l-110.33-63.75c-2.312-1.336-4.439-1.526-6.151-.786a7.534,7.534,0,0,1,4.926,1.154l110.329,63.75c5.641,3.257,10.214,11.993,10.214,19.514v61.435c0,4.437-1.6,7.443-4.062,8.508,3.151-.5,5.287-3.737,5.287-8.876V201.592C957.083,194.072,952.511,185.335,946.87,182.078Z" transform="translate(-825.837 -115.81)" fill="#d5cef8"/>
      <g id="Grupo_85787" data-name="Grupo 85787" transform="translate(9.478 60.411)">
        <g id="Grupo_85786" data-name="Grupo 85786">
          <path id="Trazado_127058" data-name="Trazado 127058" d="M836.671,181.936l4.356-2.768-6.288-5.187,1.15-3.344,5.877,6.6-.822-7.927,3.7,2.136-.822,6.978,5.878.186,1.15,4.673-6.288-2.074,4.356,7.8-2.959.79-3.165-8.194-3.165,4.54Z" transform="translate(-834.739 -169.311)" fill="#2ff980"/>
        </g>
      </g>
      <path id="Trazado_127059" data-name="Trazado 127059" d="M847.272,154.791a11.523,11.523,0,0,1-2.368-2.834c-.391-.656-.377-1.367,0-1.589a3.031,3.031,0,0,0,1.209-1.348c.414.114.93-.038.93-.608a2.252,2.252,0,0,0-.6-1.532,7.531,7.531,0,0,0-3.807-6.687c-2.858-1.65-3.706-.077-3.808,2.291-.342-.077-.6.259-.6.84a2.751,2.751,0,0,0,.93,1.68,13.553,13.553,0,0,0,1.208,2.744c.382.661.4,1.388,0,1.591a3.122,3.122,0,0,1-2.368.1c-1.2-.363-2.09.36-2.09,1.838v2.561a1.721,1.721,0,0,0,.784,1.351l11.881,6.86c.433.25.784.05.784-.446v-2.561A6.1,6.1,0,0,0,847.272,154.791Z" transform="translate(-825.105 -112.845)" fill="#2ff980"/>
    </g>
    <g id="Grupo_85795" data-name="Grupo 85795" transform="translate(924.825 138.515)">
      <path id="Trazado_127060" data-name="Trazado 127060" d="M966.879,183.5l-57.444-21.423v42.6c-.187,1.383.546,2.731,2.242,3.711l38.845,22.5c3.364,1.942,9.242,1.7,13.128-.545h0c2.055-1.187,3.141-2.7,3.21-4.14l.019.007Z" transform="translate(-909.346 -129.12)" fill="url(#linear-gradient-10)"/>
      <path id="Trazado_127061" data-name="Trazado 127061" d="M950.523,188.774l-38.845-22.5c-3.365-1.943-2.943-5.337.942-7.58h0c3.885-2.243,9.763-2.487,13.129-.544l38.845,22.5c3.364,1.942,2.943,5.336-.943,7.579h0C959.765,190.472,953.887,190.716,950.523,188.774Z" transform="translate(-909.346 -129.813)" fill="url(#linear-gradient-11)"/>
      <path id="Trazado_127062" data-name="Trazado 127062" d="M963.842,187.241h0c-3.886,2.243-9.763,2.487-13.129.544l-38.845-22.5c-1.714-.99-2.444-2.355-2.235-3.754-.71,1.683-.074,3.42,1.991,4.611l38.845,22.5c3.364,1.943,9.242,1.7,13.128-.544h0c1.907-1.1,2.977-2.479,3.177-3.825A6.64,6.64,0,0,1,963.842,187.241Z" transform="translate(-909.353 -129.191)" fill="#a9ffcc"/>
      <g id="Grupo_85791" data-name="Grupo 85791" transform="translate(8.242 0.061)" opacity="0.3">
        <path id="Trazado_127063" data-name="Trazado 127063" d="M941.028,135.223h0a16.273,16.273,0,0,0-24.4,14.1V170.83h0c0,.014,0,.025,0,.039,0,1.718,2.392,3.111,5.341,3.111s5.341-1.393,5.341-3.111c0-.022,0-.041,0-.061h.057V151.6a6.9,6.9,0,0,1,10.332-5.979h0a17.2,17.2,0,0,1,8.629,14.91v27.391h.058c.058,1.688,2.422,3.048,5.336,3.048,2.933,0,5.311-1.377,5.339-3.08h0V162.965A32.016,32.016,0,0,0,941.028,135.223Z" transform="translate(-916.632 -133.026)" fill="url(#linear-gradient-12)"/>
        <path id="Trazado_127064" data-name="Trazado 127064" d="M919.813,172.107h0V151.7a15.213,15.213,0,0,1,15.2-15.2,14.957,14.957,0,0,1,7.548,2.05,30.687,30.687,0,0,1,4.305,3,30.729,30.729,0,0,0-6.51-5.02,14.939,14.939,0,0,0-7.548-2.05,15.212,15.212,0,0,0-15.2,15.194v20.405h0v1.1c0,.025,0,.049,0,.074.031.647.892,1.337,2.207,1.705Z" transform="translate(-916.503 -132.833)" fill="url(#radial-gradient)" style="mix-blend-mode: color-dodge;isolation: isolate"/>
        <path id="Trazado_127065" data-name="Trazado 127065" d="M946.631,187.889h-.02V161.608a18.353,18.353,0,0,0-7.136-14.5,18.337,18.337,0,0,1,4.932,12.478v26.281h.02l.037,1.071c.021.642.884,1.336,2.193,1.709Z" transform="translate(-913.608 -131.162)" fill="url(#radial-gradient-2)" style="mix-blend-mode: color-dodge;isolation: isolate"/>
        <g id="Grupo_85789" data-name="Grupo 85789" transform="translate(4.434 2.848)">
          <path id="Trazado_127066" data-name="Trazado 127066" d="M929.346,139.662a8.753,8.753,0,0,0-8.743,8.743V170.7l-.054,1.911c-.041.161,2.99-.085,3.061-.367l.056-1.913V148.037a8.756,8.756,0,0,1,6.179-8.358C929.678,139.669,929.512,139.662,929.346,139.662Z" transform="translate(-920.548 -134.996)" fill="url(#linear-gradient-13)"/>
          <path id="Trazado_127067" data-name="Trazado 127067" d="M937.762,137.492a14.235,14.235,0,0,0-7.182-1.951,13.9,13.9,0,0,0-3.143.369h.081a14.22,14.22,0,0,1,7.182,1.951,30.258,30.258,0,0,1,15.115,26.15v26.222l0,.143c0,.147,3.057-.115,3.062-.367l0-.144V163.643A30.261,30.261,0,0,0,937.762,137.492Z" transform="translate(-919.636 -135.541)" fill="url(#linear-gradient-14)"/>
        </g>
        <path id="Trazado_127068" data-name="Trazado 127068" d="M923.679,151.122v20.585c1.208-.377,1.994-1.029,2.029-1.643l0-.016.054-1.183v-18.11a8.021,8.021,0,0,1,5.584-7.632A8.017,8.017,0,0,0,923.679,151.122Z" transform="translate(-915.699 -131.69)" opacity="0.5" fill="url(#linear-gradient-15)" style="mix-blend-mode: screen;isolation: isolate"/>
        <g id="Grupo_85790" data-name="Grupo 85790" transform="translate(21.072 2.291)" opacity="0.5" style="mix-blend-mode: screen;isolation: isolate">
          <path id="Trazado_127069" data-name="Trazado 127069" d="M938.7,136.52a15.381,15.381,0,0,0-3.462-1.471A33.916,33.916,0,0,1,951.7,164.074v25.808c1.457-.352,2.429-1.1,2.44-1.782l0-.14V163.242A30.92,30.92,0,0,0,938.7,136.52Z" transform="translate(-935.241 -135.049)" fill="url(#linear-gradient-16)"/>
        </g>
      </g>
      <ellipse id="Elipse_5443" data-name="Elipse 5443" cx="6.214" cy="3.619" rx="6.214" ry="3.619" transform="translate(8.242 30.365)" fill="#e6e7e8" style="mix-blend-mode: multiply;isolation: isolate"/>
      <path id="Trazado_127070" data-name="Trazado 127070" d="M954.975,178.4c0,1.941-2.7,3.515-6.037,3.515s-6.037-1.574-6.037-3.515,2.7-3.516,6.037-3.516S954.975,176.459,954.975,178.4Z" transform="translate(-904.913 -127.424)" fill="#e6e7e8" style="mix-blend-mode: multiply;isolation: isolate"/>
      <g id="Grupo_85794" data-name="Grupo 85794" transform="translate(8.242 0)">
        <path id="Trazado_127071" data-name="Trazado 127071" d="M941.028,135.169h0a16.273,16.273,0,0,0-24.4,14.1v17.649h0c0,.012,0,.025,0,.037,0,1.718,2.392,3.111,5.341,3.111s5.341-1.393,5.341-3.111c0-.02,0-.041,0-.061h.057V151.547a6.9,6.9,0,0,1,10.332-5.979h0a17.2,17.2,0,0,1,8.629,14.91v23.533h.058c.058,1.689,2.422,3.048,5.336,3.048,2.933,0,5.311-1.377,5.339-3.08h0V162.911A32.016,32.016,0,0,0,941.028,135.169Z" transform="translate(-916.632 -132.972)" fill="url(#linear-gradient-17)"/>
        <path id="Trazado_127072" data-name="Trazado 127072" d="M919.813,168.195h0V151.648a15.213,15.213,0,0,1,15.2-15.2,14.957,14.957,0,0,1,7.548,2.05,30.689,30.689,0,0,1,4.305,3,30.729,30.729,0,0,0-6.51-5.02,14.939,14.939,0,0,0-7.548-2.05,15.212,15.212,0,0,0-15.2,15.194v16.547h0v1.1c0,.025,0,.05,0,.074.031.647.892,1.337,2.207,1.705Z" transform="translate(-916.503 -132.779)" fill="url(#radial-gradient-3)" style="mix-blend-mode: color-dodge;isolation: isolate"/>
        <path id="Trazado_127073" data-name="Trazado 127073" d="M946.631,183.978h-.02V161.554a18.351,18.351,0,0,0-7.136-14.5,18.336,18.336,0,0,1,4.932,12.476v22.424h.02l.037,1.071c.021.642.884,1.336,2.193,1.71Z" transform="translate(-913.608 -131.108)" fill="url(#radial-gradient-4)" style="mix-blend-mode: color-dodge;isolation: isolate"/>
        <g id="Grupo_85792" data-name="Grupo 85792" transform="translate(4.434 2.848)">
          <path id="Trazado_127074" data-name="Trazado 127074" d="M929.346,139.608a8.753,8.753,0,0,0-8.743,8.743v18.433l-.054,1.911c-.041.161,2.99-.085,3.061-.367l.056-1.913V147.983a8.756,8.756,0,0,1,6.179-8.358C929.678,139.615,929.512,139.608,929.346,139.608Z" transform="translate(-920.548 -134.941)" fill="url(#linear-gradient-18)"/>
          <path id="Trazado_127075" data-name="Trazado 127075" d="M937.762,137.438a14.235,14.235,0,0,0-7.182-1.951,13.9,13.9,0,0,0-3.143.369h.081a14.22,14.22,0,0,1,7.182,1.951,30.258,30.258,0,0,1,15.115,26.15V186.32l0,.143c0,.147,3.057-.116,3.062-.367l0-.144V163.589A30.261,30.261,0,0,0,937.762,137.438Z" transform="translate(-919.636 -135.487)" fill="url(#linear-gradient-19)"/>
        </g>
        <path id="Trazado_127076" data-name="Trazado 127076" d="M923.679,151.068V167.8c1.208-.377,1.994-1.029,2.029-1.643l0-.016.054-1.183V150.7a8.021,8.021,0,0,1,5.584-7.632A8.017,8.017,0,0,0,923.679,151.068Z" transform="translate(-915.699 -131.636)" opacity="0.5" fill="url(#linear-gradient-20)" style="mix-blend-mode: screen;isolation: isolate"/>
        <g id="Grupo_85793" data-name="Grupo 85793" transform="translate(21.072 2.291)" opacity="0.5" style="mix-blend-mode: screen;isolation: isolate">
          <path id="Trazado_127077" data-name="Trazado 127077" d="M938.7,136.465a15.431,15.431,0,0,0-3.462-1.47A33.915,33.915,0,0,1,951.7,164.02v21.95c1.457-.351,2.429-1.1,2.44-1.782l0-.14V163.188A30.924,30.924,0,0,0,938.7,136.465Z" transform="translate(-935.241 -134.995)" fill="url(#linear-gradient-21)"/>
        </g>
        <path id="Trazado_127078" data-name="Trazado 127078" d="M934.9,136.493a16.9,16.9,0,0,1,7.942,1.993,29.952,29.952,0,0,0-2.944-1.94,14.221,14.221,0,0,0-7.182-1.951,14.493,14.493,0,0,0-14.46,14.46v.04A17.462,17.462,0,0,1,934.9,136.493Z" transform="translate(-916.417 -132.757)" fill="url(#linear-gradient-22)" style="mix-blend-mode: screen;isolation: isolate"/>
        <path id="Trazado_127079" data-name="Trazado 127079" d="M946.609,159.982a18.76,18.76,0,0,0-5.02-15.49c-4.652-4.91-10.258-6.184-13.207-1.473a8.673,8.673,0,0,1,8.676.016,19.083,19.083,0,0,1,9.551,16.5Z" transform="translate(-915.077 -132.032)" fill="url(#linear-gradient-23)" style="mix-blend-mode: screen;isolation: isolate"/>
      </g>
      <path id="Trazado_127080" data-name="Trazado 127080" d="M932.054,198.018v8.469l-3.8-2.2v-8.469a9.836,9.836,0,0,1-2.568-6.12c0-2.834,2-3.975,4.471-2.549a9.85,9.85,0,0,1,4.471,7.711C934.622,196.915,933.57,198.072,932.054,198.018Z" transform="translate(-907.192 -125.882)" fill="#08b24d" style="mix-blend-mode: multiply;isolation: isolate"/>
    </g>
  </g>
</svg>
