<svg xmlns="http://www.w3.org/2000/svg" width="316.543" height="336.134" viewBox="0 0 316.543 336.134">
  <g id="Grupo_85754" data-name="Grupo 85754" transform="translate(-954.155 -42.779)">
    <g id="Grupo_85753" data-name="Grupo 85753" transform="translate(954.155 42.779)">
      <g id="Grupo_85719" data-name="Grupo 85719" transform="translate(15.677 45.767)">
        <g id="Grupo_85712" data-name="Grupo 85712" transform="translate(0 121.109)">
          <path id="Trazado_126721" data-name="Trazado 126721" d="M1216.481,327.283a2.488,2.488,0,0,0,0-.414v-6.3h-7.153v.76l-137.133-79.174c-2.73-1.576-7.5-1.379-10.653.441l-82.3,47.517v-.588h-7.153v6.712h0a3.171,3.171,0,0,0,1.842,2.651l142.453,82.246c2.73,1.576,7.5,1.379,10.654-.442l86.846-50.141c1.626-.938,2.5-2.125,2.6-3.271Z" transform="translate(-972.087 -234.592)" fill="#6fa1ff"/>
          <path id="Trazado_126722" data-name="Trazado 126722" d="M1116.384,373.7,973.931,291.454c-2.731-1.577-2.388-4.33.764-6.151l86.847-50.14c3.153-1.82,7.922-2.019,10.653-.441l142.454,82.246c2.73,1.576,2.388,4.33-.765,6.15l-86.846,50.14C1123.884,375.078,1119.114,375.276,1116.384,373.7Z" transform="translate(-972.087 -233.656)" fill="#cde3ff"/>
          <path id="Trazado_126723" data-name="Trazado 126723" d="M1153.928,353.545l-138.441-79.929c-1.276-.737-1.116-2.023.357-2.873l50.4-29.1a5.53,5.53,0,0,1,4.975-.206l138.441,79.93c1.276.736,1.116,2.022-.357,2.872l-50.4,29.1A5.532,5.532,0,0,1,1153.928,353.545Z" transform="translate(-977.436 -234.573)" fill="#03297d"/>
          <g id="Grupo_85711" data-name="Grupo 85711" transform="translate(39.225 7.396)">
            <path id="Trazado_126724" data-name="Trazado 126724" d="M1077.507,248.481l-5.694-3.288c-.532-.306-.465-.842.149-1.2l2.752-1.589a2.3,2.3,0,0,1,2.071-.086l5.695,3.287c.531.307.464.842-.15,1.2l-2.752,1.589A2.3,2.3,0,0,1,1077.507,248.481Z" transform="translate(-1023.807 -242.116)" fill="#043ba2"/>
            <path id="Trazado_126725" data-name="Trazado 126725" d="M1087.653,254.339l-5.695-3.288c-.531-.306-.464-.842.15-1.2l2.752-1.589a2.3,2.3,0,0,1,2.071-.087l5.694,3.288c.531.306.465.842-.149,1.2l-2.752,1.589A2.3,2.3,0,0,1,1087.653,254.339Z" transform="translate(-1025.083 -242.853)" fill="#043ba2"/>
            <path id="Trazado_126726" data-name="Trazado 126726" d="M1097.8,260.2l-5.695-3.287c-.531-.307-.464-.842.149-1.2l2.753-1.589a2.3,2.3,0,0,1,2.071-.086l5.694,3.288c.531.306.464.842-.149,1.2l-2.752,1.589A2.3,2.3,0,0,1,1097.8,260.2Z" transform="translate(-1026.359 -243.589)" fill="#043ba2"/>
            <path id="Trazado_126727" data-name="Trazado 126727" d="M1107.944,266.054l-5.694-3.287c-.531-.307-.464-.843.149-1.2l2.752-1.589a2.3,2.3,0,0,1,2.072-.086l5.694,3.287c.531.307.464.842-.149,1.2l-2.752,1.589A2.3,2.3,0,0,1,1107.944,266.054Z" transform="translate(-1027.635 -244.326)" fill="#043ba2"/>
            <path id="Trazado_126728" data-name="Trazado 126728" d="M1118.091,271.912l-5.694-3.288c-.531-.306-.464-.842.149-1.2l2.752-1.589a2.3,2.3,0,0,1,2.072-.086l5.694,3.287c.531.307.464.842-.149,1.2l-2.752,1.589A2.307,2.307,0,0,1,1118.091,271.912Z" transform="translate(-1028.91 -245.062)" fill="#043ba2"/>
            <path id="Trazado_126729" data-name="Trazado 126729" d="M1128.236,277.77l-5.694-3.287c-.531-.307-.464-.842.149-1.2l2.752-1.589a2.306,2.306,0,0,1,2.071-.086l5.695,3.288c.531.306.464.842-.149,1.2l-2.752,1.589A2.3,2.3,0,0,1,1128.236,277.77Z" transform="translate(-1030.186 -245.799)" fill="#043ba2"/>
            <path id="Trazado_126730" data-name="Trazado 126730" d="M1138.382,283.627l-5.694-3.287c-.531-.307-.464-.842.149-1.2l2.752-1.589a2.3,2.3,0,0,1,2.071-.086l5.695,3.287c.531.307.464.843-.149,1.2l-2.753,1.589A2.3,2.3,0,0,1,1138.382,283.627Z" transform="translate(-1031.462 -246.535)" fill="#043ba2"/>
            <path id="Trazado_126731" data-name="Trazado 126731" d="M1148.528,289.485l-5.694-3.288c-.532-.306-.465-.842.149-1.2l2.752-1.589a2.3,2.3,0,0,1,2.071-.086l5.695,3.287c.531.307.464.842-.15,1.2L1150.6,289.4A2.3,2.3,0,0,1,1148.528,289.485Z" transform="translate(-1032.738 -247.272)" fill="#043ba2"/>
            <path id="Trazado_126732" data-name="Trazado 126732" d="M1158.674,295.343l-5.695-3.288c-.531-.307-.464-.842.149-1.2l2.752-1.589a2.3,2.3,0,0,1,2.071-.087l5.694,3.288c.531.306.465.842-.149,1.2l-2.752,1.589A2.3,2.3,0,0,1,1158.674,295.343Z" transform="translate(-1034.013 -248.009)" fill="#043ba2"/>
            <path id="Trazado_126733" data-name="Trazado 126733" d="M1168.82,301.2l-5.695-3.287c-.531-.307-.464-.842.149-1.2l2.752-1.589a2.3,2.3,0,0,1,2.072-.086l5.694,3.288c.531.306.464.842-.149,1.2l-2.752,1.589A2.3,2.3,0,0,1,1168.82,301.2Z" transform="translate(-1035.289 -248.745)" fill="#043ba2"/>
            <path id="Trazado_126734" data-name="Trazado 126734" d="M1178.965,307.058l-5.694-3.287c-.531-.307-.464-.843.149-1.2l2.752-1.589a2.3,2.3,0,0,1,2.072-.086l5.694,3.287c.531.307.464.842-.149,1.2l-2.752,1.589A2.3,2.3,0,0,1,1178.965,307.058Z" transform="translate(-1036.565 -249.482)" fill="#043ba2"/>
            <path id="Trazado_126735" data-name="Trazado 126735" d="M1189.112,312.916l-5.694-3.288c-.531-.306-.464-.842.149-1.2l2.752-1.589a2.305,2.305,0,0,1,2.072-.087l5.694,3.288c.531.307.464.842-.149,1.2l-2.752,1.589A2.305,2.305,0,0,1,1189.112,312.916Z" transform="translate(-1037.841 -250.218)" fill="#043ba2"/>
            <path id="Trazado_126736" data-name="Trazado 126736" d="M1199.257,318.774l-5.694-3.287c-.532-.307-.464-.842.149-1.2l2.752-1.589a2.306,2.306,0,0,1,2.071-.086l5.695,3.288c.531.306.464.842-.149,1.2l-2.752,1.589A2.3,2.3,0,0,1,1199.257,318.774Z" transform="translate(-1039.116 -250.955)" fill="#043ba2"/>
            <path id="Trazado_126737" data-name="Trazado 126737" d="M1209.4,324.631l-5.694-3.287c-.531-.307-.464-.842.149-1.2l2.752-1.589a2.3,2.3,0,0,1,2.071-.086l5.695,3.287c.531.307.464.842-.15,1.2l-2.752,1.589A2.3,2.3,0,0,1,1209.4,324.631Z" transform="translate(-1040.392 -251.691)" fill="#043ba2"/>
            <path id="Trazado_126738" data-name="Trazado 126738" d="M1219.549,330.489l-5.694-3.288c-.532-.306-.465-.842.149-1.2l2.752-1.589a2.3,2.3,0,0,1,2.071-.086l5.694,3.287c.531.307.465.842-.149,1.2l-2.752,1.589A2.306,2.306,0,0,1,1219.549,330.489Z" transform="translate(-1041.668 -252.428)" fill="#043ba2"/>
            <path id="Trazado_126739" data-name="Trazado 126739" d="M1238.513,331.256l-5.695-3.287c-.531-.307-.464-.842.149-1.2l2.752-1.589a2.306,2.306,0,0,1,2.071-.086l5.694,3.288c.531.306.464.842-.149,1.2l-2.752,1.589A2.3,2.3,0,0,1,1238.513,331.256Z" transform="translate(-1044.053 -252.524)" fill="#6fa1ff"/>
            <path id="Trazado_126740" data-name="Trazado 126740" d="M1067.187,254.68l-6.123-3.535c-.531-.307-.464-.843.149-1.2l5.826-3.364a2.306,2.306,0,0,1,2.071-.086l6.123,3.535c.531.306.464.842-.149,1.2l-5.826,3.363A2.3,2.3,0,0,1,1067.187,254.68Z" transform="translate(-1022.456 -242.641)" fill="#043ba2"/>
            <path id="Trazado_126741" data-name="Trazado 126741" d="M1077.675,260.736l-6.123-3.535c-.531-.307-.464-.842.149-1.2l5.825-3.363a2.3,2.3,0,0,1,2.072-.086l6.123,3.535c.531.307.464.842-.149,1.2l-5.825,3.363A2.3,2.3,0,0,1,1077.675,260.736Z" transform="translate(-1023.774 -243.403)" fill="#043ba2"/>
            <path id="Trazado_126742" data-name="Trazado 126742" d="M1088.164,266.791l-6.123-3.535c-.531-.307-.464-.843.149-1.2l5.826-3.364a2.306,2.306,0,0,1,2.071-.086l6.123,3.535c.531.306.464.842-.149,1.2l-5.826,3.363A2.3,2.3,0,0,1,1088.164,266.791Z" transform="translate(-1025.093 -244.164)" fill="#043ba2"/>
            <path id="Trazado_126743" data-name="Trazado 126743" d="M1098.652,272.847l-6.122-3.535c-.532-.307-.464-.842.149-1.2l5.825-3.363a2.3,2.3,0,0,1,2.072-.086l6.122,3.535c.532.307.464.842-.149,1.2l-5.825,3.363A2.305,2.305,0,0,1,1098.652,272.847Z" transform="translate(-1026.412 -244.925)" fill="#043ba2"/>
            <path id="Trazado_126744" data-name="Trazado 126744" d="M1109.141,278.9l-6.123-3.535c-.531-.307-.464-.843.149-1.2l5.826-3.364a2.306,2.306,0,0,1,2.071-.086l6.123,3.536c.531.306.464.842-.149,1.2l-5.826,3.363A2.3,2.3,0,0,1,1109.141,278.9Z" transform="translate(-1027.731 -245.687)" fill="#043ba2"/>
            <path id="Trazado_126745" data-name="Trazado 126745" d="M1119.629,284.958l-6.122-3.535c-.532-.307-.465-.842.149-1.2l5.825-3.363a2.3,2.3,0,0,1,2.071-.086l6.123,3.535c.531.307.464.842-.149,1.2l-5.825,3.363A2.305,2.305,0,0,1,1119.629,284.958Z" transform="translate(-1029.05 -246.448)" fill="#043ba2"/>
            <path id="Trazado_126746" data-name="Trazado 126746" d="M1130.118,291.013l-6.123-3.535c-.531-.307-.464-.843.149-1.2l5.826-3.364a2.306,2.306,0,0,1,2.071-.086l6.123,3.535c.531.306.464.842-.15,1.2l-5.825,3.363A2.3,2.3,0,0,1,1130.118,291.013Z" transform="translate(-1030.369 -247.21)" fill="#043ba2"/>
            <path id="Trazado_126747" data-name="Trazado 126747" d="M1140.606,297.069l-6.123-3.535c-.531-.307-.464-.842.149-1.2l5.825-3.363a2.3,2.3,0,0,1,2.071-.086l6.123,3.535c.531.307.464.842-.149,1.2l-5.825,3.363A2.305,2.305,0,0,1,1140.606,297.069Z" transform="translate(-1031.688 -247.971)" fill="#043ba2"/>
            <path id="Trazado_126748" data-name="Trazado 126748" d="M1151.095,303.124l-6.123-3.535c-.531-.307-.464-.843.149-1.2l5.825-3.363a2.305,2.305,0,0,1,2.072-.087l6.122,3.535c.532.306.465.842-.149,1.2l-5.825,3.363A2.3,2.3,0,0,1,1151.095,303.124Z" transform="translate(-1033.006 -248.733)" fill="#043ba2"/>
            <path id="Trazado_126749" data-name="Trazado 126749" d="M1161.583,309.18l-6.123-3.536c-.531-.307-.464-.842.149-1.2l5.826-3.363a2.3,2.3,0,0,1,2.071-.086l6.123,3.535c.531.307.464.842-.149,1.2l-5.826,3.363A2.3,2.3,0,0,1,1161.583,309.18Z" transform="translate(-1034.325 -249.494)" fill="#043ba2"/>
            <path id="Trazado_126750" data-name="Trazado 126750" d="M1172.071,315.235l-6.122-3.535c-.532-.307-.464-.843.149-1.2l5.825-3.363a2.305,2.305,0,0,1,2.072-.087l6.123,3.535c.531.306.464.842-.149,1.2l-5.825,3.363A2.3,2.3,0,0,1,1172.071,315.235Z" transform="translate(-1035.644 -250.256)" fill="#043ba2"/>
            <path id="Trazado_126751" data-name="Trazado 126751" d="M1182.56,321.291l-6.123-3.535c-.531-.307-.464-.842.148-1.2l5.826-3.363a2.3,2.3,0,0,1,2.071-.086l6.123,3.535c.531.307.464.842-.148,1.2l-5.826,3.363A2.3,2.3,0,0,1,1182.56,321.291Z" transform="translate(-1036.963 -251.017)" fill="#043ba2"/>
            <path id="Trazado_126752" data-name="Trazado 126752" d="M1193.048,327.346l-6.122-3.535c-.531-.307-.464-.842.149-1.2l5.825-3.363a2.3,2.3,0,0,1,2.072-.087l6.122,3.535c.532.307.464.842-.149,1.2l-5.825,3.363A2.3,2.3,0,0,1,1193.048,327.346Z" transform="translate(-1038.282 -251.778)" fill="#043ba2"/>
            <path id="Trazado_126753" data-name="Trazado 126753" d="M1072.053,269.988l-6.123-3.535c-.531-.307-.464-.842.149-1.2l5.825-3.363a2.3,2.3,0,0,1,2.072-.086l6.122,3.535c.532.307.465.842-.149,1.2l-5.825,3.363A2.3,2.3,0,0,1,1072.053,269.988Z" transform="translate(-1023.067 -244.566)" fill="#043ba2"/>
            <path id="Trazado_126754" data-name="Trazado 126754" d="M1082.541,276.044l-6.123-3.536c-.531-.306-.464-.842.149-1.2l5.826-3.363a2.3,2.3,0,0,1,2.071-.086l6.123,3.535c.531.306.464.842-.149,1.2l-5.826,3.363A2.3,2.3,0,0,1,1082.541,276.044Z" transform="translate(-1024.386 -245.328)" fill="#043ba2"/>
            <path id="Trazado_126755" data-name="Trazado 126755" d="M1060.91,263.555l-10.67-6.161c-.532-.306-.465-.842.149-1.2l5.825-3.363a2.3,2.3,0,0,1,2.072-.086l10.67,6.161c.531.306.464.842-.148,1.2l-5.826,3.363A2.3,2.3,0,0,1,1060.91,263.555Z" transform="translate(-1021.094 -243.427)" fill="#043ba2"/>
            <path id="Trazado_126756" data-name="Trazado 126756" d="M1093.029,282.1l-6.123-3.535c-.531-.307-.464-.842.149-1.2L1092.88,274a2.3,2.3,0,0,1,2.072-.086l6.122,3.535c.531.307.464.842-.149,1.2l-5.825,3.363A2.3,2.3,0,0,1,1093.029,282.1Z" transform="translate(-1025.705 -246.089)" fill="#043ba2"/>
            <path id="Trazado_126757" data-name="Trazado 126757" d="M1103.518,288.155l-6.123-3.536c-.531-.306-.464-.842.149-1.2l5.826-3.363a2.3,2.3,0,0,1,2.071-.086l6.123,3.535c.531.306.464.842-.149,1.2l-5.826,3.363A2.3,2.3,0,0,1,1103.518,288.155Z" transform="translate(-1027.024 -246.85)" fill="#043ba2"/>
            <path id="Trazado_126758" data-name="Trazado 126758" d="M1114.006,294.211l-6.122-3.535c-.532-.307-.464-.842.149-1.2l5.825-3.363a2.3,2.3,0,0,1,2.072-.086l6.122,3.535c.532.307.464.842-.149,1.2l-5.825,3.363A2.305,2.305,0,0,1,1114.006,294.211Z" transform="translate(-1028.343 -247.612)" fill="#043ba2"/>
            <path id="Trazado_126759" data-name="Trazado 126759" d="M1124.495,300.266l-6.123-3.535c-.531-.306-.464-.842.149-1.2l5.826-3.363a2.306,2.306,0,0,1,2.071-.086l6.123,3.536c.531.306.464.842-.149,1.2l-5.826,3.363A2.3,2.3,0,0,1,1124.495,300.266Z" transform="translate(-1029.662 -248.373)" fill="#043ba2"/>
            <path id="Trazado_126760" data-name="Trazado 126760" d="M1134.983,306.322l-6.122-3.535c-.532-.307-.465-.842.149-1.2l5.825-3.363a2.3,2.3,0,0,1,2.071-.086l6.123,3.535c.531.307.464.842-.149,1.2l-5.825,3.363A2.305,2.305,0,0,1,1134.983,306.322Z" transform="translate(-1030.98 -249.135)" fill="#043ba2"/>
            <path id="Trazado_126761" data-name="Trazado 126761" d="M1145.472,312.377l-6.123-3.536c-.531-.306-.464-.842.149-1.2l5.825-3.363a2.308,2.308,0,0,1,2.072-.086l6.123,3.535c.531.306.464.842-.15,1.2l-5.825,3.363A2.3,2.3,0,0,1,1145.472,312.377Z" transform="translate(-1032.299 -249.896)" fill="#043ba2"/>
            <path id="Trazado_126762" data-name="Trazado 126762" d="M1155.96,318.433l-6.123-3.535c-.531-.307-.464-.842.15-1.2l5.825-3.363a2.3,2.3,0,0,1,2.071-.086l6.123,3.535c.531.307.464.842-.149,1.2l-5.825,3.363A2.305,2.305,0,0,1,1155.96,318.433Z" transform="translate(-1033.618 -250.658)" fill="#043ba2"/>
            <path id="Trazado_126763" data-name="Trazado 126763" d="M1166.449,324.488l-6.123-3.535c-.531-.306-.464-.842.149-1.2l5.825-3.364a2.308,2.308,0,0,1,2.072-.086l6.122,3.535c.532.306.465.842-.149,1.2l-5.825,3.363A2.3,2.3,0,0,1,1166.449,324.488Z" transform="translate(-1034.937 -251.419)" fill="#043ba2"/>
            <path id="Trazado_126764" data-name="Trazado 126764" d="M1176.937,330.544l-6.123-3.535c-.531-.307-.464-.842.149-1.2l5.826-3.363a2.3,2.3,0,0,1,2.071-.086l6.123,3.535c.531.307.464.842-.149,1.2l-5.826,3.363A2.3,2.3,0,0,1,1176.937,330.544Z" transform="translate(-1036.256 -252.18)" fill="#043ba2"/>
            <path id="Trazado_126765" data-name="Trazado 126765" d="M1187.425,336.6l-6.122-3.535c-.532-.306-.464-.842.149-1.2l5.825-3.364a2.308,2.308,0,0,1,2.072-.086l6.123,3.535c.531.306.464.842-.149,1.2l-5.825,3.363A2.3,2.3,0,0,1,1187.425,336.6Z" transform="translate(-1037.575 -252.942)" fill="#043ba2"/>
            <path id="Trazado_126766" data-name="Trazado 126766" d="M1206.784,347.775l-14.993-8.656c-.531-.307-.464-.842.148-1.2l5.826-3.363a2.3,2.3,0,0,1,2.071-.086l14.993,8.656c.531.307.464.842-.148,1.2l-5.826,3.363A2.3,2.3,0,0,1,1206.784,347.775Z" transform="translate(-1038.894 -253.703)" fill="#043ba2"/>
            <path id="Trazado_126767" data-name="Trazado 126767" d="M1216.954,341.148l-19.541-11.282c-.531-.307-.464-.842.149-1.2l5.826-3.363a2.3,2.3,0,0,1,2.071-.086L1225,336.5c.531.307.464.842-.149,1.2l-5.825,3.363A2.305,2.305,0,0,1,1216.954,341.148Z" transform="translate(-1039.601 -252.54)" fill="#043ba2"/>
            <path id="Trazado_126768" data-name="Trazado 126768" d="M1066.477,279.312l-6.123-3.535c-.531-.307-.464-.843.148-1.2l5.826-3.363a2.3,2.3,0,0,1,2.071-.087l6.123,3.535c.531.306.464.842-.149,1.2l-5.826,3.363A2.3,2.3,0,0,1,1066.477,279.312Z" transform="translate(-1022.366 -245.739)" fill="#043ba2"/>
            <path id="Trazado_126769" data-name="Trazado 126769" d="M1076.965,285.368l-6.122-3.535c-.532-.307-.465-.842.149-1.2l5.825-3.363a2.3,2.3,0,0,1,2.071-.086l6.123,3.535c.531.307.464.842-.149,1.2l-5.825,3.363A2.305,2.305,0,0,1,1076.965,285.368Z" transform="translate(-1023.685 -246.5)" fill="#043ba2"/>
            <path id="Trazado_126770" data-name="Trazado 126770" d="M1054.669,272.5l-15.292-8.829c-.531-.307-.464-.843.149-1.2l5.826-3.364a2.306,2.306,0,0,1,2.071-.086l15.292,8.829c.531.307.464.842-.149,1.2l-5.825,3.363A2.305,2.305,0,0,1,1054.669,272.5Z" transform="translate(-1019.729 -244.216)" fill="#043ba2"/>
            <path id="Trazado_126771" data-name="Trazado 126771" d="M1087.454,291.423l-6.123-3.535c-.531-.307-.464-.843.149-1.2l5.826-3.363a2.3,2.3,0,0,1,2.071-.087l6.123,3.535c.531.307.464.842-.15,1.2l-5.825,3.363A2.3,2.3,0,0,1,1087.454,291.423Z" transform="translate(-1025.004 -247.261)" fill="#043ba2"/>
            <path id="Trazado_126772" data-name="Trazado 126772" d="M1097.942,297.479l-6.123-3.535c-.531-.307-.464-.842.149-1.2l5.825-3.363a2.3,2.3,0,0,1,2.071-.086l6.123,3.535c.531.307.464.842-.149,1.2l-5.825,3.363A2.3,2.3,0,0,1,1097.942,297.479Z" transform="translate(-1026.323 -248.023)" fill="#043ba2"/>
            <path id="Trazado_126773" data-name="Trazado 126773" d="M1108.431,303.534,1102.307,300c-.531-.307-.464-.842.149-1.2l5.825-3.363a2.3,2.3,0,0,1,2.072-.087l6.122,3.536c.531.307.465.842-.149,1.2l-5.825,3.363A2.3,2.3,0,0,1,1108.431,303.534Z" transform="translate(-1027.642 -248.784)" fill="#043ba2"/>
            <path id="Trazado_126774" data-name="Trazado 126774" d="M1118.919,309.59l-6.123-3.535c-.531-.307-.464-.842.149-1.2l5.826-3.363a2.3,2.3,0,0,1,2.071-.086l6.123,3.535c.531.307.464.842-.149,1.2l-5.826,3.363A2.3,2.3,0,0,1,1118.919,309.59Z" transform="translate(-1028.961 -249.546)" fill="#043ba2"/>
            <path id="Trazado_126775" data-name="Trazado 126775" d="M1129.407,315.645l-6.122-3.535c-.531-.307-.464-.842.149-1.2l5.825-3.363a2.305,2.305,0,0,1,2.072-.087l6.122,3.535c.532.307.464.842-.149,1.2l-5.825,3.363A2.3,2.3,0,0,1,1129.407,315.645Z" transform="translate(-1030.279 -250.307)" fill="#043ba2"/>
            <path id="Trazado_126776" data-name="Trazado 126776" d="M1139.9,321.7l-6.123-3.535c-.531-.307-.464-.842.149-1.2l5.826-3.363a2.3,2.3,0,0,1,2.071-.086l6.123,3.535c.531.307.464.842-.149,1.2l-5.826,3.363A2.3,2.3,0,0,1,1139.9,321.7Z" transform="translate(-1031.598 -251.069)" fill="#043ba2"/>
            <path id="Trazado_126777" data-name="Trazado 126777" d="M1150.384,327.756l-6.122-3.535c-.532-.307-.464-.842.149-1.2l5.825-3.363a2.305,2.305,0,0,1,2.072-.087l6.122,3.535c.531.307.464.842-.149,1.2l-5.825,3.363A2.3,2.3,0,0,1,1150.384,327.756Z" transform="translate(-1032.917 -251.83)" fill="#043ba2"/>
            <path id="Trazado_126778" data-name="Trazado 126778" d="M1160.873,333.812l-6.123-3.535c-.531-.306-.464-.842.149-1.2l5.826-3.363a2.3,2.3,0,0,1,2.071-.086l6.123,3.535c.531.307.464.843-.149,1.2l-5.826,3.363A2.3,2.3,0,0,1,1160.873,333.812Z" transform="translate(-1034.236 -252.591)" fill="#043ba2"/>
            <path id="Trazado_126779" data-name="Trazado 126779" d="M1171.361,339.867l-6.122-3.535c-.532-.307-.465-.842.149-1.2l5.825-3.363a2.3,2.3,0,0,1,2.071-.087l6.123,3.535c.531.307.464.842-.149,1.2l-5.825,3.363A2.3,2.3,0,0,1,1171.361,339.867Z" transform="translate(-1035.555 -253.353)" fill="#043ba2"/>
            <path id="Trazado_126780" data-name="Trazado 126780" d="M1048.242,281.458,1028.4,270c-.531-.306-.464-.842.149-1.2l5.825-3.363a2.3,2.3,0,0,1,2.072-.086l19.839,11.455c.532.307.465.842-.149,1.2l-5.825,3.363A2.3,2.3,0,0,1,1048.242,281.458Z" transform="translate(-1018.348 -245.012)" fill="#043ba2"/>
            <path id="Trazado_126781" data-name="Trazado 126781" d="M1060.7,288.652l-6.123-3.535c-.531-.307-.464-.843.149-1.2l5.826-3.363a2.3,2.3,0,0,1,2.071-.087l6.123,3.535c.531.306.464.842-.149,1.2l-5.826,3.363A2.3,2.3,0,0,1,1060.7,288.652Z" transform="translate(-1021.64 -246.913)" fill="#043ba2"/>
            <path id="Trazado_126782" data-name="Trazado 126782" d="M1071.191,294.708l-6.123-3.535c-.531-.307-.464-.842.149-1.2l5.825-3.363a2.3,2.3,0,0,1,2.072-.086l6.122,3.535c.531.307.464.842-.149,1.2l-5.825,3.363A2.3,2.3,0,0,1,1071.191,294.708Z" transform="translate(-1022.959 -247.674)" fill="#043ba2"/>
            <path id="Trazado_126783" data-name="Trazado 126783" d="M1081.68,300.763l-6.123-3.535c-.531-.307-.464-.843.149-1.2l5.826-3.363a2.3,2.3,0,0,1,2.071-.087l6.123,3.535c.531.306.464.842-.149,1.2l-5.826,3.363A2.3,2.3,0,0,1,1081.68,300.763Z" transform="translate(-1024.278 -248.436)" fill="#043ba2"/>
            <path id="Trazado_126784" data-name="Trazado 126784" d="M1092.168,306.819l-6.122-3.536c-.531-.307-.464-.842.149-1.2l5.825-3.363a2.3,2.3,0,0,1,2.072-.086l6.122,3.535c.531.307.464.842-.149,1.2l-5.825,3.363A2.3,2.3,0,0,1,1092.168,306.819Z" transform="translate(-1025.597 -249.197)" fill="#043ba2"/>
            <path id="Trazado_126785" data-name="Trazado 126785" d="M1023.436,279.94l-6.123-3.535c-.531-.306-.464-.842.149-1.2l5.825-3.363a2.3,2.3,0,0,1,2.072-.086l6.123,3.536c.531.306.464.842-.15,1.2l-5.825,3.363A2.3,2.3,0,0,1,1023.436,279.94Z" transform="translate(-1016.954 -245.817)" fill="#043ba2"/>
            <path id="Trazado_126786" data-name="Trazado 126786" d="M1033.924,285.995l-6.123-3.535c-.531-.307-.464-.842.149-1.2l5.825-3.363a2.3,2.3,0,0,1,2.071-.086l6.123,3.535c.531.307.464.842-.149,1.2l-5.826,3.363A2.3,2.3,0,0,1,1033.924,285.995Z" transform="translate(-1018.273 -246.579)" fill="#043ba2"/>
            <path id="Trazado_126787" data-name="Trazado 126787" d="M1044.413,292.051l-6.123-3.535c-.531-.306-.464-.842.149-1.2l5.825-3.363a2.3,2.3,0,0,1,2.072-.086l6.122,3.535c.532.306.465.842-.149,1.2l-5.825,3.363A2.3,2.3,0,0,1,1044.413,292.051Z" transform="translate(-1019.592 -247.34)" fill="#043ba2"/>
            <path id="Trazado_126788" data-name="Trazado 126788" d="M1054.9,298.106l-6.123-3.535c-.531-.307-.464-.842.149-1.2l5.826-3.363a2.3,2.3,0,0,1,2.071-.086l6.123,3.535c.531.307.464.842-.149,1.2l-5.826,3.363A2.3,2.3,0,0,1,1054.9,298.106Z" transform="translate(-1020.911 -248.102)" fill="#043ba2"/>
            <path id="Trazado_126789" data-name="Trazado 126789" d="M1123.033,337.443l-6.122-3.535c-.531-.306-.464-.842.149-1.2l5.825-3.363a2.3,2.3,0,0,1,2.072-.086l6.122,3.535c.531.307.464.843-.149,1.2l-5.825,3.364A2.308,2.308,0,0,1,1123.033,337.443Z" transform="translate(-1029.478 -253.048)" fill="#043ba2"/>
            <path id="Trazado_126790" data-name="Trazado 126790" d="M1133.522,343.5l-6.123-3.535c-.531-.307-.464-.842.149-1.2l5.826-3.363a2.3,2.3,0,0,1,2.071-.087l6.123,3.536c.531.307.464.842-.149,1.2l-5.826,3.363A2.3,2.3,0,0,1,1133.522,343.5Z" transform="translate(-1030.797 -253.809)" fill="#043ba2"/>
            <path id="Trazado_126791" data-name="Trazado 126791" d="M1106.841,327.833,1059.492,300.5c-.531-.307-.464-.842.149-1.2l5.826-3.363a2.3,2.3,0,0,1,2.071-.087l47.349,27.337c.531.307.464.842-.149,1.2l-5.825,3.363A2.305,2.305,0,0,1,1106.841,327.833Z" transform="translate(-1022.258 -248.847)" fill="#043ba2"/>
            <path id="Trazado_126792" data-name="Trazado 126792" d="M1144.01,349.554l-6.123-3.535c-.531-.306-.464-.842.149-1.2l5.825-3.363a2.3,2.3,0,0,1,2.072-.086l6.123,3.535c.531.307.464.843-.149,1.2l-5.825,3.364A2.307,2.307,0,0,1,1144.01,349.554Z" transform="translate(-1032.116 -254.571)" fill="#043ba2"/>
            <path id="Trazado_126793" data-name="Trazado 126793" d="M1102.657,312.874l-6.123-3.535c-.531-.307-.464-.842.149-1.2l5.826-3.363a2.3,2.3,0,0,1,2.071-.087l6.123,3.535c.531.307.464.842-.149,1.2l-5.826,3.363A2.3,2.3,0,0,1,1102.657,312.874Z" transform="translate(-1026.916 -249.959)" fill="#043ba2"/>
            <path id="Trazado_126794" data-name="Trazado 126794" d="M1113.145,318.93l-6.122-3.535c-.532-.307-.465-.842.149-1.2l5.825-3.363a2.3,2.3,0,0,1,2.071-.086l6.123,3.535c.531.307.464.842-.149,1.2l-5.825,3.363A2.305,2.305,0,0,1,1113.145,318.93Z" transform="translate(-1028.234 -250.72)" fill="#043ba2"/>
            <path id="Trazado_126795" data-name="Trazado 126795" d="M1123.634,324.985l-6.123-3.535c-.531-.307-.464-.842.149-1.2l5.826-3.363a2.3,2.3,0,0,1,2.071-.087l6.123,3.535c.531.307.464.842-.15,1.2L1125.7,324.9A2.3,2.3,0,0,1,1123.634,324.985Z" transform="translate(-1029.553 -251.482)" fill="#043ba2"/>
            <path id="Trazado_126796" data-name="Trazado 126796" d="M1134.122,331.041,1128,327.505c-.532-.307-.465-.842.149-1.2l5.825-3.363a2.3,2.3,0,0,1,2.071-.086l6.123,3.535c.531.307.464.842-.149,1.2l-5.825,3.363A2.305,2.305,0,0,1,1134.122,331.041Z" transform="translate(-1030.872 -252.243)" fill="#043ba2"/>
            <path id="Trazado_126797" data-name="Trazado 126797" d="M1144.611,337.1l-6.123-3.535c-.531-.307-.464-.842.149-1.2l5.825-3.363a2.305,2.305,0,0,1,2.072-.087l6.122,3.535c.532.307.465.842-.149,1.2l-5.825,3.363A2.3,2.3,0,0,1,1144.611,337.1Z" transform="translate(-1032.191 -253.004)" fill="#043ba2"/>
            <path id="Trazado_126798" data-name="Trazado 126798" d="M1155.1,343.152l-6.123-3.536c-.531-.306-.464-.842.15-1.2l5.825-3.363a2.3,2.3,0,0,1,2.071-.086l6.123,3.535c.531.307.464.843-.149,1.2l-5.826,3.363A2.3,2.3,0,0,1,1155.1,343.152Z" transform="translate(-1033.51 -253.766)" fill="#043ba2"/>
            <path id="Trazado_126799" data-name="Trazado 126799" d="M1183.627,359.622l-24.163-13.95c-.531-.307-.464-.842.149-1.2l5.825-3.363a2.305,2.305,0,0,1,2.072-.087l24.163,13.951c.531.307.464.842-.149,1.2l-5.826,3.363A2.3,2.3,0,0,1,1183.627,359.622Z" transform="translate(-1034.829 -254.527)" fill="#043ba2"/>
            <path id="Trazado_126800" data-name="Trazado 126800" d="M1195.267,353.669l-19.541-11.282c-.531-.306-.464-.842.149-1.2l5.826-3.363a2.3,2.3,0,0,1,2.071-.086l19.541,11.281c.531.307.464.842-.149,1.2l-5.825,3.363A2.305,2.305,0,0,1,1195.267,353.669Z" transform="translate(-1036.874 -254.114)" fill="#043ba2"/>
            <path id="Trazado_126801" data-name="Trazado 126801" d="M1158.385,353.953l-6.319-3.648a2.3,2.3,0,0,0-2.071.086l-1.47.849c-.613.354-.679.889-.149,1.2l6.32,3.648a2.3,2.3,0,0,0,2.071-.086l1.47-.849C1158.85,354.8,1158.916,354.26,1158.385,353.953Z" transform="translate(-1033.435 -255.694)" fill="#043ba2"/>
            <path id="Trazado_126802" data-name="Trazado 126802" d="M1168.549,359.821l-6.319-3.648a2.3,2.3,0,0,0-2.071.086l-1.471.849c-.613.354-.679.889-.149,1.2l6.32,3.648a2.3,2.3,0,0,0,2.071-.086l1.47-.849C1169.014,360.663,1169.08,360.128,1168.549,359.821Z" transform="translate(-1034.713 -256.432)" fill="#043ba2"/>
            <path id="Trazado_126803" data-name="Trazado 126803" d="M1173.531,356.945l-6.319-3.648a2.3,2.3,0,0,0-2.071.086l-1.471.849c-.613.353-.679.889-.149,1.2l6.32,3.648a2.3,2.3,0,0,0,2.071-.086l1.47-.849C1174,357.787,1174.062,357.252,1173.531,356.945Z" transform="translate(-1035.339 -256.07)" fill="#043ba2"/>
            <path id="Trazado_126804" data-name="Trazado 126804" d="M1178.795,365.737l-6.319-3.649a2.308,2.308,0,0,0-2.072.086l-1.47.849c-.613.354-.68.89-.149,1.2l6.319,3.648a2.3,2.3,0,0,0,2.071-.086l1.47-.848C1179.259,366.579,1179.325,366.043,1178.795,365.737Z" transform="translate(-1036.001 -257.176)" fill="#043ba2"/>
          </g>
          <path id="Trazado_126805" data-name="Trazado 126805" d="M1075.822,352.686l-42.163-24.343c-1.6-.924-1.4-2.539.448-3.605l23.3-13.451a6.941,6.941,0,0,1,6.244-.259l42.164,24.344c1.6.923,1.4,2.538-.448,3.6l-23.3,13.451A6.941,6.941,0,0,1,1075.822,352.686Z" transform="translate(-979.693 -243.307)" fill="#b0d2ff"/>
        </g>
        <g id="Grupo_85718" data-name="Grupo 85718" transform="translate(97.103)">
          <path id="Trazado_126806" data-name="Trazado 126806" d="M1232.244,301.105,1089.79,218.86c-2.73-1.577-4.072-6.055-3-10L1116.2,100.88c1.075-3.948,4.161-5.871,6.892-4.294l142.453,82.246c2.731,1.577,4.072,6.055,3,10l-29.409,107.977C1238.059,300.76,1234.974,302.682,1232.244,301.105Z" transform="translate(-1083.567 -95.242)" fill="#b0d2ff"/>
          <path id="Trazado_126807" data-name="Trazado 126807" d="M1228.978,300.2l-142.453-82.245c-2.73-1.577-4.073-6.055-3-10l29.408-107.977c1.075-3.948,4.161-5.871,6.891-4.294l142.454,82.246c2.73,1.577,4.072,6.055,3,10L1235.869,295.9C1234.794,299.853,1231.709,301.775,1228.978,300.2Z" transform="translate(-1083.157 -95.128)" fill="#03297d"/>
          <path id="Trazado_126808" data-name="Trazado 126808" d="M1231.551,291l-140.5-81.115c-1.251-.723-1.867-2.775-1.374-4.585l27.267-100.114c.492-1.81,1.907-2.691,3.158-1.968l140.5,81.115c1.252.723,1.866,2.776,1.374,4.585l-27.267,100.114C1234.216,290.843,1232.8,291.724,1231.551,291Z" transform="translate(-1083.956 -96.114)" fill="#ab9df1"/>
          <g id="Grupo_85713" data-name="Grupo 85713" transform="translate(86.333 106.51)">
            <path id="Trazado_126809" data-name="Trazado 126809" d="M1253.1,255.653l-57.789-33.362,1.5-5.334,57.788,33.362Z" transform="translate(-1183.592 -216.957)" fill="#043ba2"/>
            <path id="Trazado_126810" data-name="Trazado 126810" d="M1248.642,250.177a1.017,1.017,0,0,1-1.506.75,1.86,1.86,0,0,1-.723-2.038,1.017,1.017,0,0,1,1.506-.75A1.859,1.859,0,0,1,1248.642,250.177Z" transform="translate(-1190.009 -220.86)" fill="#fff"/>
            <path id="Trazado_126811" data-name="Trazado 126811" d="M1254.283,253.434a1.017,1.017,0,0,1-1.506.751,1.86,1.86,0,0,1-.723-2.038,1.016,1.016,0,0,1,1.506-.75A1.857,1.857,0,0,1,1254.283,253.434Z" transform="translate(-1190.718 -221.27)" fill="#b0d2ff"/>
            <path id="Trazado_126812" data-name="Trazado 126812" d="M1259.925,256.691a1.017,1.017,0,0,1-1.507.75,1.86,1.86,0,0,1-.723-2.037,1.017,1.017,0,0,1,1.506-.751A1.86,1.86,0,0,1,1259.925,256.691Z" transform="translate(-1191.428 -221.679)" fill="#e99306"/>
            <path id="Trazado_126813" data-name="Trazado 126813" d="M1239.695,298.132l-57.788-33.362,11.721-41.712,57.788,33.362Z" transform="translate(-1181.906 -217.724)" fill="#fff"/>
          </g>
          <g id="Grupo_85717" data-name="Grupo 85717" transform="translate(34.275 28.137)">
            <path id="Trazado_126814" data-name="Trazado 126814" d="M1196.082,256.793c-.9-.154-57.53-33.216-57.53-33.216l23.372-80.93,57.53,33.216Z" transform="translate(-1124.398 -129.24)" fill="#fff"/>
            <path id="Trazado_126815" data-name="Trazado 126815" d="M1234.935,182.106l-85.84-49.559,1.512-5.235,85.84,49.559Z" transform="translate(-1125.723 -127.312)" fill="#043ba2"/>
            <path id="Trazado_126816" data-name="Trazado 126816" d="M1234.517,179.006a1.015,1.015,0,0,1-1.51.724,1.824,1.824,0,0,1-.719-2.012,1.016,1.016,0,0,1,1.51-.725A1.826,1.826,0,0,1,1234.517,179.006Z" transform="translate(-1136.176 -133.541)" fill="#fff"/>
            <path id="Trazado_126817" data-name="Trazado 126817" d="M1240.158,182.262a1.015,1.015,0,0,1-1.51.725,1.825,1.825,0,0,1-.719-2.012,1.016,1.016,0,0,1,1.51-.725A1.825,1.825,0,0,1,1240.158,182.262Z" transform="translate(-1136.885 -133.951)" fill="#b0d2ff"/>
            <path id="Trazado_126818" data-name="Trazado 126818" d="M1245.8,185.519a1.015,1.015,0,0,1-1.51.725,1.825,1.825,0,0,1-.72-2.012,1.015,1.015,0,0,1,1.51-.725A1.825,1.825,0,0,1,1245.8,185.519Z" transform="translate(-1137.594 -134.36)" fill="#e99306"/>
            <g id="Grupo_85716" data-name="Grupo 85716" transform="translate(0 5.235)">
              <g id="Grupo_85715" data-name="Grupo 85715" transform="translate(30.964 31.355)">
                <g id="Grupo_85714" data-name="Grupo 85714">
                  <path id="Trazado_126819" data-name="Trazado 126819" d="M1198.886,225.615l-41.106-23.732,9.449-32.718,41.106,23.732Z" transform="translate(-1157.78 -169.164)" fill="#cde3ff"/>
                  <path id="Trazado_126820" data-name="Trazado 126820" d="M1202.664,215.356l-41.106-23.732-3.778,13.083,41.106,23.732Z" transform="translate(-1157.78 -171.988)" fill="#6fa1ff"/>
                  <path id="Trazado_126821" data-name="Trazado 126821" d="M1162.1,191.185l26.107,15.073-10-18.125Z" transform="translate(-1158.323 -171.549)" fill="#043ba2"/>
                  <path id="Trazado_126822" data-name="Trazado 126822" d="M1187.981,206.255l18.48,10.67-7.075-12.83Z" transform="translate(-1161.578 -173.556)" fill="#043ba2"/>
                  <path id="Trazado_126823" data-name="Trazado 126823" d="M1195.474,193.737a2.074,2.074,0,0,1-3.085,1.481,3.731,3.731,0,0,1-1.471-4.112,2.075,2.075,0,0,1,3.086-1.48A3.729,3.729,0,0,1,1195.474,193.737Z" transform="translate(-1161.929 -171.7)" fill="#ffca07"/>
                </g>
                <path id="Trazado_126824" data-name="Trazado 126824" d="M1201.557,220.695l-41.106-23.732.753-2.607,41.106,23.732Z" transform="translate(-1158.116 -172.332)" fill="#043ba2"/>
                <path id="Trazado_126825" data-name="Trazado 126825" d="M1199.831,226.673l-41.106-23.732.753-2.607,41.106,23.732Z" transform="translate(-1157.899 -173.084)" fill="#043ba2"/>
              </g>
              <path id="Trazado_126826" data-name="Trazado 126826" d="M1212.149,183.915l-41.106-23.732-.962,3.331,41.106,23.732Z" transform="translate(-1128.362 -136.68)" fill="#043ba2"/>
              <path id="Trazado_126827" data-name="Trazado 126827" d="M1197.039,236.391l-41.106-23.732.653-2.261,41.106,23.732Z" transform="translate(-1126.583 -142.994)" fill="#043ba2"/>
              <path id="Trazado_126828" data-name="Trazado 126828" d="M1195.585,241.427l-41.106-23.732.653-2.26,41.106,23.732Z" transform="translate(-1126.4 -143.628)" fill="#043ba2"/>
              <path id="Trazado_126829" data-name="Trazado 126829" d="M1194.13,246.462l-41.106-23.732.653-2.261,41.106,23.732Z" transform="translate(-1126.217 -144.261)" fill="#043ba2"/>
              <path id="Trazado_126830" data-name="Trazado 126830" d="M1192.676,251.5l-41.106-23.732.653-2.261,41.106,23.732Z" transform="translate(-1126.035 -144.894)" fill="#043ba2"/>
              <path id="Trazado_126831" data-name="Trazado 126831" d="M1175.641,247.537,1150.116,232.8l.653-2.26,25.525,14.737Z" transform="translate(-1125.852 -145.527)" fill="#043ba2"/>
              <path id="Trazado_126832" data-name="Trazado 126832" d="M1122.362,214.23l14.154,8.172,23.373-80.93-14.155-8.172Z" transform="translate(-1122.362 -133.3)" fill="#826be9"/>
              <path id="Trazado_126833" data-name="Trazado 126833" d="M1204.357,261.57l14.154,8.172,23.372-80.93-14.154-8.172Z" transform="translate(-1132.672 -139.252)" fill="#826be9"/>
            </g>
          </g>
        </g>
      </g>
      <path id="Trazado_126834" data-name="Trazado 126834" d="M1039.606,337.532V338.6a5.553,5.553,0,0,0,2.521,4.348l23.267,13.434c1.392.8,2.521.16,2.521-1.437v-1.074Z" transform="translate(-964.9 -79.842)" fill="#587ee5"/>
      <g id="Grupo_85721" data-name="Grupo 85721" transform="translate(126.021 100.186)">
        <g id="Grupo_85720" data-name="Grupo 85720">
          <path id="Trazado_126835" data-name="Trazado 126835" d="M1177.073,283.711l.412.233a20.605,20.605,0,0,1-2.811,3.9,18.027,18.027,0,0,1-3.57,2.988l-.123.075-3.187-1.837Z" transform="translate(-1107.04 -173.26)" fill="#d38406"/>
          <path id="Trazado_126836" data-name="Trazado 126836" d="M1172.5,206.342v46.024c0,8.965-2.426,15.887-6.56,20.363a21.028,21.028,0,0,1-5.825.473,34.731,34.731,0,0,1-15.429-5.044c-20.458-11.809-37.1-40.514-37.1-63.989V168.858l-.123-.069-9.157-5.284,1.707.411a134.45,134.45,0,0,1,35.393,14.51,205.977,205.977,0,0,1,35.387,26.354Z" transform="translate(-1098.302 -158.145)" fill="#1aa004"/>
          <path id="Trazado_126837" data-name="Trazado 126837" d="M1138.824,179.858a141.879,141.879,0,0,0-15.723-7.875,120.586,120.586,0,0,0-19.006-6.354v43.982c0,22.008,15.552,48.82,34.729,59.9,8.931,5.155,17.066,5.983,23.221,3.181,5.806-2.639,9.842-8.52,11.083-17.073a39.224,39.224,0,0,0,.418-5.908V205.725A201.332,201.332,0,0,0,1138.824,179.858Zm28.19,66.078c0,9.671-3.715,16.224-9.6,18.76-4.969,2.145-11.474,1.425-18.589-2.68-15.551-8.979-28.2-30.795-28.2-48.635V177.508q-1.347-.433-2.694-.823l2.694-1.556a128.382,128.382,0,0,1,28.2,12.22,185.372,185.372,0,0,1,28.19,20.336Z" transform="translate(-1099.03 -158.412)" fill="#52ff97"/>
          <path id="Trazado_126838" data-name="Trazado 126838" d="M1167.566,209.051V247.3c0,8.657-2.981,14.812-7.834,17.821l.021.007-.5.281c-.089.055-.178.109-.275.157l-2.913,1.672,1.131-2.46,1.967.267c3.577-3.358,5.709-8.875,5.709-16.189V210.607a185.375,185.375,0,0,0-28.19-20.335,129.517,129.517,0,0,0-25.5-11.4q-1.347-.433-2.694-.823l2.694-1.556a128.382,128.382,0,0,1,28.2,12.22,175.026,175.026,0,0,1,19.781,13.428C1161.813,204.206,1164.693,206.568,1167.566,209.051Z" transform="translate(-1099.583 -159.778)" fill="#0ad65c"/>
          <path id="Trazado_126839" data-name="Trazado 126839" d="M1170.789,204.78a205.977,205.977,0,0,0-35.387-26.354q-1.1-.637-2.2-1.241c-.007-.014-.014-.021-.028-.014-.657-.377-1.323-.74-1.987-1.089-.1-.055-.192-.11-.281-.151-.624-.336-1.248-.664-1.872-.98-.671-.357-1.343-.692-2.015-1.028l-1.13-.555c-.171-.082-.343-.164-.521-.247-.453-.226-.912-.439-1.364-.651-.541-.254-1.09-.507-1.631-.754-.466-.212-.932-.418-1.4-.624s-.939-.411-1.4-.609-.933-.4-1.4-.59c-.322-.136-.644-.267-.966-.4-.569-.24-1.144-.466-1.72-.685-.034-.014-.075-.028-.116-.048-.61-.24-1.228-.473-1.837-.7-.459-.164-.912-.329-1.364-.493-.8-.288-1.6-.562-2.392-.83-.466-.157-.933-.309-1.4-.459q-1.4-.452-2.8-.864c-.466-.137-.933-.275-1.4-.4s-.925-.261-1.391-.385c-.446-.123-.9-.24-1.344-.349-.479-.13-.959-.247-1.439-.364l-1.707-.411v46.023c0,23.476,16.641,52.179,37.1,63.989,10.546,6.09,20.072,6.515,26.837,2.274l0,0,.123-.075a18.027,18.027,0,0,0,3.57-2.988,20.605,20.605,0,0,0,2.811-3.9c.068-.11.13-.219.184-.329a.5.5,0,0,0,.048-.083c.144-.267.288-.541.418-.815.041-.076.076-.151.11-.226.116-.233.226-.473.329-.72q.463-1.049.843-2.18c.083-.24.165-.48.233-.727.041-.123.082-.247.116-.371.062-.191.117-.384.164-.582.062-.212.117-.425.171-.644.035-.116.062-.24.089-.364q.134-.544.247-1.11c.069-.336.137-.678.192-1.028.027-.15.055-.3.075-.452.13-.782.233-1.59.316-2.419.007-.028.007-.062.014-.1q.062-.658.1-1.337c.034-.487.055-.973.069-1.473s.027-1,.027-1.508V206.342ZM1170.124,251c0,10.185-3.331,17.552-8.807,21.425-.391.281-.795.541-1.206.782-6.3,3.687-15.038,3.173-24.709-2.406-19.177-11.076-34.729-37.889-34.729-59.9V166.918c.9.219,1.8.446,2.694.692q2.047.544,4.092,1.178a135.621,135.621,0,0,1,27.943,12.358,201.377,201.377,0,0,1,34.722,25.867Z" transform="translate(-1098.302 -158.145)" fill="#2ff980"/>
          <path id="Trazado_126840" data-name="Trazado 126840" d="M1161.658,272.912c-.391.281-.795.541-1.206.782-6.3,3.687-15.038,3.173-24.709-2.406-19.177-11.076-34.729-37.889-34.729-59.9V167.409c.9.219,1.8.446,2.693.692v41.734c0,22.008,15.552,48.82,34.729,59.9C1147.367,274.886,1155.5,275.715,1161.658,272.912Z" transform="translate(-1098.643 -158.636)" fill="#0ad65c"/>
          <path id="Trazado_126841" data-name="Trazado 126841" d="M1164.873,210.831v38.252c0,8.1-2.6,14.009-6.908,17.2-5.175,3.852-12.8,3.776-21.282-1.124-15.552-8.979-28.2-30.795-28.2-48.636V178.275q1.347.391,2.694.823a129.516,129.516,0,0,1,25.5,11.4A185.375,185.375,0,0,1,1164.873,210.831Z" transform="translate(-1099.583 -160.002)" fill="#2ff980"/>
          <path id="Trazado_126842" data-name="Trazado 126842" d="M1167.566,209.051l-2.693,1.555a185.375,185.375,0,0,0-28.19-20.335,129.517,129.517,0,0,0-25.5-11.4q-1.347-.433-2.694-.823l2.694-1.556a128.382,128.382,0,0,1,28.2,12.22A185.359,185.359,0,0,1,1167.566,209.051Z" transform="translate(-1099.583 -159.778)" fill="#8bffb9"/>
          <path id="Trazado_126843" data-name="Trazado 126843" d="M1181.776,200.211v46.024c0,11.371-3.9,19.451-10.253,23.427l-9.157,5.285a18.027,18.027,0,0,0,3.57-2.988,20.605,20.605,0,0,0,2.811-3.9l.006.007c.062-.11.124-.219.178-.336a.5.5,0,0,0,.048-.083c.144-.267.288-.534.418-.815.041-.076.076-.151.11-.226.116-.233.226-.473.329-.72q.463-1.049.843-2.18c.089-.24.165-.48.233-.727.041-.123.082-.247.116-.371.062-.191.117-.384.164-.582.062-.212.117-.425.171-.644.035-.116.062-.24.089-.364q.134-.544.247-1.11c.076-.336.137-.678.192-1.028.027-.15.055-.3.075-.452.137-.782.24-1.59.316-2.419.007-.028.007-.062.014-.1q.062-.658.1-1.337c.034-.48.055-.973.069-1.473s.027-1,.027-1.508V205.571l-1.707-1.562a205.977,205.977,0,0,0-35.387-26.354q-1.1-.637-2.2-1.241c-.007-.014-.014-.021-.028-.014-.664-.377-1.323-.74-1.987-1.089-.1-.055-.192-.11-.281-.151-.624-.336-1.248-.664-1.872-.98-.671-.357-1.343-.692-2.015-1.028q-.565-.287-1.13-.555c-.171-.082-.343-.164-.521-.247-.453-.226-.912-.446-1.364-.651-.541-.254-1.09-.507-1.631-.754-.466-.219-.932-.425-1.4-.624s-.939-.418-1.4-.609-.933-.4-1.4-.59c-.322-.143-.644-.274-.966-.4-.576-.233-1.144-.46-1.72-.685-.034-.014-.075-.028-.116-.048-.61-.233-1.22-.466-1.837-.7-.459-.164-.912-.329-1.364-.493-.8-.288-1.6-.569-2.392-.83-.466-.157-.933-.316-1.4-.459q-1.4-.463-2.8-.864c-.466-.144-.933-.275-1.4-.4s-.925-.261-1.391-.385-.9-.24-1.344-.349c-.479-.13-.959-.247-1.439-.364l-1.707-.411,9.28-5.36,1.707.411a134.45,134.45,0,0,1,35.393,14.51,205.755,205.755,0,0,1,35.387,26.354Z" transform="translate(-1098.302 -157.374)" fill="#0ad65c"/>
          <path id="Trazado_126844" data-name="Trazado 126844" d="M1181.776,200.211l-9.28,5.36-1.707-1.562a205.977,205.977,0,0,0-35.387-26.354,134.45,134.45,0,0,0-35.393-14.51l-1.707-.411,9.28-5.36,1.707.411a134.45,134.45,0,0,1,35.393,14.51,205.755,205.755,0,0,1,35.387,26.354Z" transform="translate(-1098.302 -157.374)" fill="#8bffb9"/>
        </g>
      </g>
      <g id="Grupo_85723" data-name="Grupo 85723" transform="translate(143.893 140.725)">
        <path id="Trazado_126845" data-name="Trazado 126845" d="M1148.772,261.157l-7.4-4.274,7.4-4.273,7.4,4.274Z" transform="translate(-1121.589 -209.889)" fill="#ffeb07"/>
        <path id="Trazado_126846" data-name="Trazado 126846" d="M1154.384,251.895l-27.249-15.732V212.938l27.249,15.732Z" transform="translate(-1119.799 -204.9)" fill="#ff8c07"/>
        <path id="Trazado_126847" data-name="Trazado 126847" d="M1149.913,235.206l7.335-4.274v23.225l-7.335,4.273Z" transform="translate(-1122.664 -207.163)" fill="#583ae2"/>
        <path id="Trazado_126848" data-name="Trazado 126848" d="M1118.744,217.211l7.335-4.273,27.25,15.732-7.335,4.274Z" transform="translate(-1118.744 -204.9)" fill="#826be9"/>
        <path id="Trazado_126849" data-name="Trazado 126849" d="M1148.876,220.7v6.5l-.027-.009a1.627,1.627,0,0,1-.869,1.066,4.377,4.377,0,0,1-.421.205,4.837,4.837,0,0,1-3.932-.205,1.4,1.4,0,0,1-.869-1.424l-.017-.009v-5.947c0-4.012-1.111-7.335-4.944-9.735-.125-.072-.251-.143-.367-.206-1.827-.931-3.752-.412-3.752,1.935v5.392a1.533,1.533,0,0,1-.9,1.254,3.618,3.618,0,0,1-1.271.43,4.744,4.744,0,0,1-3.072-.43,1.533,1.533,0,0,1-.9-1.254V212.1c0-4.648,3.027-10.29,10.092-7.7a18.117,18.117,0,0,1,4.657,2.508A16.966,16.966,0,0,1,1148.876,220.7Z" transform="translate(-1119.849 -203.744)" fill="#fff"/>
        <path id="Trazado_126850" data-name="Trazado 126850" d="M1151,221.15v6.5l-.027-.009a1.626,1.626,0,0,1-.869,1.066,4.391,4.391,0,0,1-.421.205c0-11.364.7-16.048-5.284-21.556A16.966,16.966,0,0,1,1151,221.15Z" transform="translate(-1121.97 -204.199)" fill="#cde3ff"/>
        <path id="Trazado_126851" data-name="Trazado 126851" d="M1138,211.79c-1.827-.931-3.752-.412-3.752,1.935v5.392a1.533,1.533,0,0,1-.9,1.254,3.619,3.619,0,0,1-1.271.43v-5.454C1132.074,210.071,1133.982,209.578,1138,211.79Z" transform="translate(-1120.421 -204.6)" fill="#cde3ff"/>
        <path id="Trazado_126852" data-name="Trazado 126852" d="M1145.994,256.783l-27.25-15.732V217.826l27.25,15.732Z" transform="translate(-1118.744 -205.515)" fill="#ab9df1"/>
        <g id="Grupo_85722" data-name="Grupo 85722" transform="translate(10.434 24.498)">
          <path id="Trazado_126853" data-name="Trazado 126853" d="M1137.06,237.716c0-2.3-1.854-5.181-3.944-5.838a1.713,1.713,0,0,0-2.354,1.356,6.465,6.465,0,0,0,1.762,5.179v4.692l2.692,1.554v-4.693C1136.3,240.012,1137.06,239.185,1137.06,237.716Z" transform="translate(-1130.679 -231.766)" fill="#583ae2"/>
        </g>
      </g>
      <g id="Grupo_85725" data-name="Grupo 85725" transform="translate(223.344 192.768)">
        <path id="Trazado_126854" data-name="Trazado 126854" d="M1297.126,408.4l-75.51-43.595c-3.534-2.041-6.4-7.514-6.4-12.226V297.308c0-4.711,2.864-6.877,6.4-4.837l75.51,43.6c3.534,2.041,6.4,7.514,6.4,12.226v55.271C1303.525,408.275,1300.66,410.44,1297.126,408.4Z" transform="translate(-1210.326 -266.848)" fill="#583ae2"/>
        <g id="Grupo_85724" data-name="Grupo 85724" transform="translate(21.499 0)">
          <path id="Trazado_126855" data-name="Trazado 126855" d="M1293.546,384.157,1234.214,349.9V263.273l59.332,34.255Z" transform="translate(-1234.214 -263.273)" fill="#6ac9d6"/>
          <path id="Trazado_126856" data-name="Trazado 126856" d="M1288.356,311.17,1239.2,282.791v-3.412l49.154,28.379Z" transform="translate(-1234.841 -265.298)" fill="#8fd6e0"/>
          <path id="Trazado_126857" data-name="Trazado 126857" d="M1288.356,322.387,1239.2,294.008V290.6l49.154,28.379Z" transform="translate(-1234.841 -266.708)" fill="#8fd6e0"/>
          <path id="Trazado_126858" data-name="Trazado 126858" d="M1288.356,333.6,1239.2,305.225v-3.412l49.154,28.379Z" transform="translate(-1234.841 -268.119)" fill="#8fd6e0"/>
          <path id="Trazado_126859" data-name="Trazado 126859" d="M1288.356,344.821,1239.2,316.442V313.03l49.154,28.379Z" transform="translate(-1234.841 -269.529)" fill="#8fd6e0"/>
          <path id="Trazado_126860" data-name="Trazado 126860" d="M1288.356,356.038,1239.2,327.659v-3.412l49.154,28.379Z" transform="translate(-1234.841 -270.94)" fill="#8fd6e0"/>
        </g>
        <path id="Trazado_126861" data-name="Trazado 126861" d="M1297.234,361.414l5.149,49.405c.242,2.321-1.613,3.018-4.144,1.557L1219.1,366.683c-2.531-1.461-4.779-4.527-5.02-6.847l-4.433-42.53c-.242-2.32,1.614-3.018,4.144-1.556l47.043,27.16c1.863,1.075,3.432,1.01,3.971-.167l.559-1.221c.538-1.176,2.107-1.242,3.97-.167l22.884,13.212C1294.744,356.028,1296.992,359.093,1297.234,361.414Z" transform="translate(-1209.623 -269.775)" fill="#ab9df1"/>
      </g>
      <g id="Grupo_85735" data-name="Grupo 85735" transform="translate(200.849 246.007)">
        <path id="Trazado_126862" data-name="Trazado 126862" d="M1261.381,362.892l-65.656-37.907c-1.839-1.061-3.5-1.05-4.733-.184l0,0-4.533,2.618,2.516,1.452a10.815,10.815,0,0,0-.082,1.285c0,5.033,3.061,10.88,6.836,13.06l62.065,35.834-2.186,1.262,6.107,3.525,3.8-2.193a3.451,3.451,0,0,0,.727-.42l.009,0h0c1.219-.942,1.973-2.767,1.973-5.264h0C1268.216,370.919,1265.156,365.072,1261.381,362.892Z" transform="translate(-1184.214 -324.169)" fill="#583ae2"/>
        <path id="Trazado_126863" data-name="Trazado 126863" d="M1256.383,384.22l-65.656-37.907c-3.775-2.18-6.835-8.027-6.835-13.06h0c0-5.034,3.06-7.347,6.835-5.168l65.656,37.907c3.775,2.18,6.835,8.027,6.835,13.06h0C1263.218,384.086,1260.158,386.4,1256.383,384.22Z" transform="translate(-1183.892 -324.559)" fill="#fff"/>
        <g id="Grupo_85734" data-name="Grupo 85734" transform="translate(10.361 12.385)">
          <g id="Grupo_85730" data-name="Grupo 85730">
            <g id="Grupo_85726" data-name="Grupo 85726">
              <path id="Trazado_126864" data-name="Trazado 126864" d="M1202.6,344.5l-.57-2.342-1.909-.39V339.4l-1.844-1.065v2.3l-1.962-1.865-.57,1.684,1.909,1.814-1.213,1.215,1.492,2.106,1.18-1.182,1.213,2.616,1.492-.382-1.18-2.545Z" transform="translate(-1195.743 -338.335)" fill="#583ae2"/>
            </g>
            <g id="Grupo_85727" data-name="Grupo 85727" transform="translate(10.303 5.949)">
              <path id="Trazado_126865" data-name="Trazado 126865" d="M1214.384,351.3l-.57-2.342-1.909-.39V346.2l-1.845-1.065v2.3l-1.962-1.865-.57,1.684,1.909,1.814-1.213,1.215,1.492,2.106,1.18-1.182,1.213,2.616,1.492-.383-1.18-2.545Z" transform="translate(-1207.528 -345.139)" fill="#583ae2"/>
            </g>
            <g id="Grupo_85728" data-name="Grupo 85728" transform="translate(20.607 11.897)">
              <path id="Trazado_126866" data-name="Trazado 126866" d="M1226.169,358.109l-.57-2.342-1.909-.39v-2.368l-1.845-1.065v2.3l-1.962-1.865-.57,1.684,1.909,1.814-1.213,1.215,1.492,2.106,1.18-1.182,1.213,2.616,1.492-.383-1.18-2.545Z" transform="translate(-1219.313 -351.944)" fill="#583ae2"/>
            </g>
            <g id="Grupo_85729" data-name="Grupo 85729" transform="translate(30.91 17.846)">
              <path id="Trazado_126867" data-name="Trazado 126867" d="M1237.954,364.913l-.57-2.342-1.909-.391v-2.367l-1.844-1.065v2.3l-1.962-1.865-.57,1.684,1.909,1.814L1231.8,363.9l1.492,2.106,1.18-1.182,1.213,2.616,1.492-.382-1.18-2.545Z" transform="translate(-1231.099 -358.748)" fill="#583ae2"/>
            </g>
          </g>
          <g id="Grupo_85733" data-name="Grupo 85733" transform="translate(41.445 23.928)">
            <g id="Grupo_85731" data-name="Grupo 85731">
              <path id="Trazado_126868" data-name="Trazado 126868" d="M1250,371.87l-.57-2.342-1.909-.39V366.77l-1.844-1.065v2.3l-1.962-1.865-.57,1.684,1.909,1.814-1.213,1.215,1.492,2.106,1.18-1.182,1.213,2.616,1.492-.382-1.18-2.545Z" transform="translate(-1243.149 -365.705)" fill="#583ae2"/>
            </g>
            <g id="Grupo_85732" data-name="Grupo 85732" transform="translate(10.303 5.949)">
              <path id="Trazado_126869" data-name="Trazado 126869" d="M1261.79,378.674l-.57-2.342-1.909-.391v-2.367l-1.845-1.065v2.3l-1.962-1.865-.57,1.684,1.909,1.814-1.213,1.215,1.492,2.106,1.18-1.182,1.213,2.616,1.492-.383-1.18-2.545Z" transform="translate(-1254.934 -372.509)" fill="#583ae2"/>
            </g>
          </g>
        </g>
      </g>
      <g id="Grupo_85736" data-name="Grupo 85736" transform="translate(204.666)">
        <path id="Trazado_126870" data-name="Trazado 126870" d="M1263.738,96.1c0-8.282-5.851-18.373-13.068-22.539l-3.249-1.876c-2.65-10.476-10.026-21.174-18.719-26.193-5.552-3.205-10.565-3.47-14.153-1.314v0l-8.555,4.908a6.726,6.726,0,0,0-4.443,1.2l-8.738,5.013c2.039-1.088,4.716-1.053,7.694.3,2.628-7.474,10.024-9.684,18.744-4.649,8.692,5.018,16.069,15.717,18.719,26.193l3.249,1.875c7.217,4.167,13.068,14.258,13.068,22.54,0,3.87-1.279,6.66-3.377,8.109h0l8.584-4.958a6.138,6.138,0,0,0,.875-.505l0,0h0C1262.463,102.749,1263.738,99.962,1263.738,96.1Z" transform="translate(-1188.831 -42.779)" fill="#45bbcc"/>
        <path id="Trazado_126871" data-name="Trazado 126871" d="M1192.417,57.319h0l0,0Z" transform="translate(-1188.781 -44.607)" fill="#03297d"/>
        <path id="Trazado_126872" data-name="Trazado 126872" d="M1253.714,102.34c0-8.282-5.851-18.373-13.068-22.54l-3.249-1.875c-2.65-10.476-10.027-21.174-18.719-26.193-8.72-5.035-16.116-2.825-18.744,4.649-2.979-1.358-5.656-1.392-7.694-.3-.116.062-.231.127-.343.2l0,0c-2.251,1.394-3.636,4.247-3.636,8.274,0,8.187,5.718,18.137,12.821,22.39v0l.124.072c.041.024.081.051.122.074s.082.045.123.067l17.107,9.877c.041.024.082.051.123.074l.122.067,21.722,12.541c.041.024.081.051.123.074,3.843,2.219,7.3,2.31,9.69.658C1252.435,109,1253.714,106.21,1253.714,102.34Z" transform="translate(-1188.258 -43.563)" fill="#b5e4eb"/>
      </g>
      <path id="Trazado_126873" data-name="Trazado 126873" d="M1217.8,107.677v18.945l-3.519-6.069-1.992,1.136,8.327,14.363V109.3l-2.817-1.626Z" transform="translate(-986.614 -50.939)" fill="#b5e4eb"/>
      <path id="Trazado_126874" data-name="Trazado 126874" d="M1229.609,140.784V121.84l3.518,6.069,1.992-1.136-8.327-14.363v26.748l2.817,1.626Z" transform="translate(-988.437 -51.534)" fill="#b5e4eb"/>
      <g id="Grupo_85739" data-name="Grupo 85739" transform="translate(226.434 23.146)">
        <g id="Grupo_85737" data-name="Grupo 85737" transform="translate(2.507)">
          <path id="Trazado_126875" data-name="Trazado 126875" d="M1234.164,85.5c0-5.529-3.905-12.266-8.723-15.047-2.417-1.4-4.6-1.53-6.183-.621l-3.093,1.785c1.576-.88,3.744-.735,6.136.646,4.818,2.782,8.723,9.519,8.723,15.048,0,2.588-.856,4.453-2.261,5.419l2.577-1.489a4.185,4.185,0,0,0,.569-.328l0,0h0C1233.313,89.941,1234.164,88.08,1234.164,85.5Z" transform="translate(-1216.042 -69.254)" fill="#45bbcc"/>
          <path id="Trazado_126876" data-name="Trazado 126876" d="M1216.024,72.033l0,0,.049-.031Z" transform="translate(-1216.024 -69.6)" fill="#45bbcc"/>
        </g>
        <g id="Grupo_85738" data-name="Grupo 85738" transform="translate(0 1.793)">
          <path id="Trazado_126877" data-name="Trazado 126877" d="M1230.632,87.577c0,5.538-3.911,7.768-8.737,4.982s-8.738-9.534-8.738-15.071,3.912-7.769,8.738-4.982S1230.632,82.038,1230.632,87.577Z" transform="translate(-1213.157 -71.304)" fill="#fff"/>
          <path id="Trazado_126878" data-name="Trazado 126878" d="M1217.947,81.86l3.218,5.55,6.357-3.625-1.34-2.312-5.017,2.86-1.877-3.238Z" transform="translate(-1213.759 -72.535)" fill="#45bbcc"/>
        </g>
      </g>
      <g id="Grupo_85742" data-name="Grupo 85742" transform="translate(274.509 86.513)">
        <ellipse id="Elipse_5423" data-name="Elipse 5423" cx="3.765" cy="6.521" rx="3.765" ry="6.521" transform="translate(10.896 22.583) rotate(-30.31)" fill="#fff"/>
        <g id="Grupo_85740" data-name="Grupo 85740" transform="translate(5.524 10.039)">
          <path id="Trazado_126879" data-name="Trazado 126879" d="M1296.6,170.087a3.459,3.459,0,0,1-1.2-1.262,25.982,25.982,0,0,0-9.019-9.494c-3.407-1.966-6.611-2.294-9.021-.921-.662.378-1.734-.241-2.4-1.383s-.663-2.374,0-2.75c3.05-1.739,7.106-1.325,11.418,1.165a32.876,32.876,0,0,1,11.416,12.018c.662,1.141.662,2.373,0,2.75A1.2,1.2,0,0,1,1296.6,170.087Z" transform="translate(-1274.464 -153.217)" fill="#fff"/>
        </g>
        <g id="Grupo_85741" data-name="Grupo 85741">
          <path id="Trazado_126880" data-name="Trazado 126880" d="M1301.326,165.495a3.459,3.459,0,0,1-1.2-1.262c-3.884-6.7-9.049-12.137-14.542-15.309s-10.66-3.7-14.545-1.484c-.662.378-1.734-.242-2.4-1.384s-.663-2.373,0-2.75c4.525-2.58,10.542-1.965,16.941,1.729s12.414,10.027,16.94,17.832c.662,1.142.662,2.373,0,2.75A1.2,1.2,0,0,1,1301.326,165.495Z" transform="translate(-1268.146 -141.735)" fill="#fff"/>
        </g>
      </g>
      <g id="Grupo_85751" data-name="Grupo 85751" transform="translate(0 100.454)">
        <g id="Grupo_85744" data-name="Grupo 85744" transform="translate(0 32.079)">
          <path id="Trazado_126881" data-name="Trazado 126881" d="M1065.125,224.388v5.239a1.218,1.218,0,0,1-.565,1.2l.01.01-61.454,36.011a1.326,1.326,0,0,0,.439-1.12V260.47Z" transform="translate(-960.312 -198.148)" fill="#45bbcc"/>
          <path id="Trazado_126882" data-name="Trazado 126882" d="M1059.056,220.614,997.485,256.7a3.567,3.567,0,0,0-.376-1.513,2.9,2.9,0,0,0-1.066-1.245l-6.054-3.493-20.374-11.759-7.371-4.263-6.555-3.779a.968.968,0,0,0-.842-.135l61.4-35.992a.751.751,0,0,1,.439-.143,1.177,1.177,0,0,1,.573.179l10.317,5.955,30.028,17.338A3.459,3.459,0,0,1,1059.056,220.614Z" transform="translate(-954.242 -194.374)" fill="#daf1f5"/>
          <g id="Grupo_85743" data-name="Grupo 85743" transform="translate(0 36.092)">
            <path id="Trazado_126883" data-name="Trazado 126883" d="M997.4,261.89v5.25a1.341,1.341,0,0,1-.435,1.128.177.177,0,0,1-.048.029.908.908,0,0,1-.962-.066L955.6,244.935a3.466,3.466,0,0,1-1.445-2.763v-5.25a1.261,1.261,0,0,1,.512-1.163l-.005,0,.072-.043a.1.1,0,0,0,.024-.01.971.971,0,0,1,.843.128l6.559,3.786,7.368,4.255,20.38,11.766,6.046,3.487a2.931,2.931,0,0,1,1.071,1.251A3.536,3.536,0,0,1,997.4,261.89Z" transform="translate(-954.155 -235.657)" fill="#8fd6e0"/>
            <path id="Trazado_126884" data-name="Trazado 126884" d="M998.749,265.813c0-.618.436-.866.975-.556a2.149,2.149,0,0,1,.975,1.681c0,.617-.437.866-.975.556A2.149,2.149,0,0,1,998.749,265.813Z" transform="translate(-959.762 -239.362)" fill="#45bbcc"/>
            <path id="Trazado_126885" data-name="Trazado 126885" d="M964.668,246.713l-6.874-3.968v-1.118l6.874,3.968Z" transform="translate(-954.613 -236.408)" fill="#45bbcc"/>
          </g>
        </g>
        <g id="Grupo_85746" data-name="Grupo 85746" transform="translate(0 20.367)">
          <path id="Trazado_126886" data-name="Trazado 126886" d="M1065.125,210.992v5.239a1.22,1.22,0,0,1-.565,1.2l.01.009-61.454,36.011a1.325,1.325,0,0,0,.439-1.119v-5.257Z" transform="translate(-960.312 -184.751)" fill="#45bbcc"/>
          <path id="Trazado_126887" data-name="Trazado 126887" d="M1059.056,207.218,997.485,243.3a3.568,3.568,0,0,0-.376-1.514,2.9,2.9,0,0,0-1.066-1.244l-6.054-3.493-20.374-11.76-7.371-4.263-6.555-3.779a.965.965,0,0,0-.842-.135l61.4-35.993a.757.757,0,0,1,.439-.143,1.177,1.177,0,0,1,.573.179l10.317,5.955L1057.6,204.45A3.462,3.462,0,0,1,1059.056,207.218Z" transform="translate(-954.242 -180.977)" fill="#daf1f5"/>
          <g id="Grupo_85745" data-name="Grupo 85745" transform="translate(0 36.093)">
            <path id="Trazado_126888" data-name="Trazado 126888" d="M997.4,248.493v5.251a1.341,1.341,0,0,1-.435,1.128.154.154,0,0,1-.048.028.906.906,0,0,1-.962-.066L955.6,231.539a3.467,3.467,0,0,1-1.445-2.763v-5.25a1.26,1.26,0,0,1,.512-1.163l-.005,0,.072-.043a.09.09,0,0,0,.024-.009.971.971,0,0,1,.843.128l6.559,3.786,7.368,4.255,20.38,11.765,6.046,3.488a2.928,2.928,0,0,1,1.071,1.25A3.536,3.536,0,0,1,997.4,248.493Z" transform="translate(-954.155 -222.261)" fill="#8fd6e0"/>
            <path id="Trazado_126889" data-name="Trazado 126889" d="M998.749,252.416c0-.617.436-.866.975-.555a2.148,2.148,0,0,1,.975,1.681c0,.617-.437.866-.975.555A2.146,2.146,0,0,1,998.749,252.416Z" transform="translate(-959.762 -225.966)" fill="#8fd6e0"/>
            <path id="Trazado_126890" data-name="Trazado 126890" d="M964.668,233.317l-6.874-3.968V228.23l6.874,3.968Z" transform="translate(-954.613 -223.012)" fill="#8fd6e0"/>
          </g>
        </g>
        <g id="Grupo_85748" data-name="Grupo 85748" transform="translate(0.921 8.509)">
          <path id="Trazado_126891" data-name="Trazado 126891" d="M1066.178,197.428v5.239a1.222,1.222,0,0,1-.564,1.2l.009.009-61.454,36.011a1.323,1.323,0,0,0,.439-1.12V233.51Z" transform="translate(-961.364 -171.188)" fill="#45bbcc"/>
          <path id="Trazado_126892" data-name="Trazado 126892" d="M1060.109,193.654l-61.57,36.082a3.567,3.567,0,0,0-.376-1.513,2.9,2.9,0,0,0-1.066-1.245l-6.054-3.493-20.374-11.759-7.371-4.263-6.555-3.779a.964.964,0,0,0-.842-.134l61.4-35.993a.757.757,0,0,1,.439-.143,1.176,1.176,0,0,1,.573.179l10.317,5.955,30.028,17.338A3.461,3.461,0,0,1,1060.109,193.654Z" transform="translate(-955.295 -167.414)" fill="#daf1f5"/>
          <g id="Grupo_85747" data-name="Grupo 85747" transform="translate(0 36.092)">
            <path id="Trazado_126893" data-name="Trazado 126893" d="M998.451,234.93v5.251a1.34,1.34,0,0,1-.435,1.127.157.157,0,0,1-.048.029.908.908,0,0,1-.962-.066l-40.352-23.295a3.462,3.462,0,0,1-1.446-2.762v-5.251a1.261,1.261,0,0,1,.512-1.163l-.005,0,.072-.043a.073.073,0,0,0,.024-.01.971.971,0,0,1,.844.129l6.558,3.786,7.368,4.255,20.38,11.766,6.046,3.487a2.931,2.931,0,0,1,1.071,1.251A3.536,3.536,0,0,1,998.451,234.93Z" transform="translate(-955.208 -208.697)" fill="#8fd6e0"/>
            <path id="Trazado_126894" data-name="Trazado 126894" d="M999.8,238.853c0-.617.436-.866.975-.556a2.149,2.149,0,0,1,.975,1.681c0,.618-.436.866-.975.556A2.149,2.149,0,0,1,999.8,238.853Z" transform="translate(-960.815 -212.402)" fill="#45bbcc"/>
            <path id="Trazado_126895" data-name="Trazado 126895" d="M965.721,219.754l-6.873-3.969v-1.118l6.873,3.968Z" transform="translate(-955.666 -209.448)" fill="#45bbcc"/>
          </g>
        </g>
        <g id="Grupo_85750" data-name="Grupo 85750" transform="translate(35.417)">
          <path id="Trazado_126896" data-name="Trazado 126896" d="M1024.694,215.093l-7.4-4.274,7.4-4.274,7.4,4.274Z" transform="translate(-997.511 -163.825)" fill="#ffeb07"/>
          <path id="Trazado_126897" data-name="Trazado 126897" d="M1030.306,205.831,1003.057,190.1V166.874l27.249,15.733Z" transform="translate(-995.721 -158.837)" fill="#ff8c07"/>
          <path id="Trazado_126898" data-name="Trazado 126898" d="M1025.835,189.143l7.336-4.273v23.224l-7.336,4.274Z" transform="translate(-998.585 -161.1)" fill="#0ad65c"/>
          <path id="Trazado_126899" data-name="Trazado 126899" d="M994.666,171.147l7.335-4.274,27.249,15.733-7.336,4.273Z" transform="translate(-994.666 -158.837)" fill="#8bfeb9"/>
          <path id="Trazado_126900" data-name="Trazado 126900" d="M1024.8,174.632v6.5l-.026-.009a1.625,1.625,0,0,1-.869,1.066c-.135.072-.268.143-.42.206a4.841,4.841,0,0,1-3.932-.206,1.4,1.4,0,0,1-.869-1.424l-.018-.009v-5.947c0-4.012-1.111-7.335-4.944-9.735-.125-.072-.251-.143-.367-.205-1.827-.932-3.752-.413-3.752,1.934V172.2a1.531,1.531,0,0,1-.9,1.254,3.619,3.619,0,0,1-1.271.43,4.743,4.743,0,0,1-3.072-.43,1.533,1.533,0,0,1-.9-1.254v-6.162c0-4.648,3.028-10.29,10.093-7.7a18.117,18.117,0,0,1,4.657,2.507A16.968,16.968,0,0,1,1024.8,174.632Z" transform="translate(-995.77 -157.681)" fill="#fff"/>
          <path id="Trazado_126901" data-name="Trazado 126901" d="M1026.919,175.086v6.5l-.026-.009a1.625,1.625,0,0,1-.869,1.066c-.135.072-.268.143-.42.206,0-11.365.7-16.049-5.284-21.557A16.968,16.968,0,0,1,1026.919,175.086Z" transform="translate(-997.892 -158.135)" fill="#cde3ff"/>
          <path id="Trazado_126902" data-name="Trazado 126902" d="M1013.924,165.727c-1.827-.932-3.752-.413-3.752,1.934v5.392a1.531,1.531,0,0,1-.9,1.254,3.619,3.619,0,0,1-1.271.43v-5.454C1008,164.007,1009.9,163.514,1013.924,165.727Z" transform="translate(-996.342 -158.537)" fill="#cde3ff"/>
          <path id="Trazado_126903" data-name="Trazado 126903" d="M1021.916,210.719l-27.249-15.732V171.762l27.249,15.732Z" transform="translate(-994.666 -159.452)" fill="#2ff980"/>
          <g id="Grupo_85749" data-name="Grupo 85749" transform="translate(10.434 24.497)">
            <path id="Trazado_126904" data-name="Trazado 126904" d="M1012.982,191.652c0-2.3-1.854-5.18-3.944-5.838a1.713,1.713,0,0,0-2.354,1.356,6.462,6.462,0,0,0,1.762,5.179v4.692l2.692,1.554V193.9C1012.226,193.949,1012.982,193.122,1012.982,191.652Z" transform="translate(-1006.601 -185.701)" fill="#0ad65c"/>
          </g>
        </g>
      </g>
      <g id="Grupo_85752" data-name="Grupo 85752" transform="translate(46.407 263.864)">
        <path id="Trazado_126905" data-name="Trazado 126905" d="M1054.769,369.307a8.4,8.4,0,0,0-4.085.977c-.15.087-.288.176-.421.269.132.088.27.176.421.263a9.04,9.04,0,0,0,8.177,0c.15-.087.288-.175.42-.263-.131-.094-.269-.182-.42-.269A8.427,8.427,0,0,0,1054.769,369.307Z" transform="translate(-1012.647 -347.702)" fill="none"/>
        <path id="Trazado_126906" data-name="Trazado 126906" d="M1026.124,355.554l-6.178,3.565-1.241-.714-2.958-1.71-.677-.389,6.178-3.565-2.958-1.71-6.178,3.571-1.241-.72-3.515-2.031-.121-.066v4.195l4.874,2.813h0l0,0,2.956-1.7V360.5h0l4.875,2.813,6.178-3.571,10.571,6.109a5.309,5.309,0,0,1,1.61-3.271Z" transform="translate(-1007.237 -345.403)" fill="#826be9"/>
        <path id="Trazado_126907" data-name="Trazado 126907" d="M1069.916,368.153a1.341,1.341,0,0,1,.006.156v-.156Z" transform="translate(-1015.118 -347.556)" fill="#043ba2"/>
        <path id="Trazado_126908" data-name="Trazado 126908" d="M1064.853,371.7a9.065,9.065,0,0,1-2.293,1.8,16.791,16.791,0,0,1-6.228,1.968,21.478,21.478,0,0,1-5.47,0,17.751,17.751,0,0,1-5.07-1.379c-.4-.182-.79-.376-1.158-.589a7.893,7.893,0,0,1-3.183-3.077,4.534,4.534,0,0,1-.533-2.1v4.192c0,1.867,1.248,3.753,3.716,5.176a19.761,19.761,0,0,0,17.927,0c2.469-1.422,3.716-3.308,3.716-5.176v-4.192a4.541,4.541,0,0,1-.532,2.1A6.232,6.232,0,0,1,1064.853,371.7Z" transform="translate(-1011.472 -347.579)" fill="#826be9"/>
        <path id="Trazado_126909" data-name="Trazado 126909" d="M1062.035,365.184c-.063-1.818-1.31-3.628-3.71-5.013a18.419,18.419,0,0,0-8.966-2.143,20.3,20.3,0,0,0-6.178.934l-24.888-14.368-11.053,6.379.119.068,3.515,2.031,1.241.72,6.178-3.571,2.958,1.71-6.178,3.565.677.389,2.958,1.71,1.241.714,6.178-3.565,12.181,7.031a5.309,5.309,0,0,0-1.61,3.271c-.006.1-.013.2-.013.3a4.533,4.533,0,0,0,.533,2.1,7.894,7.894,0,0,0,3.183,3.077c.369.213.758.407,1.158.589a17.753,17.753,0,0,0,5.07,1.379,21.478,21.478,0,0,0,5.47,0,16.792,16.792,0,0,0,6.228-1.968,9.063,9.063,0,0,0,2.293-1.8,6.227,6.227,0,0,0,.89-1.272,4.54,4.54,0,0,0,.532-2.1,1.368,1.368,0,0,0-.006-.156Zm-8.165,2.262c-.131.088-.269.176-.42.263a9.04,9.04,0,0,1-8.177,0c-.15-.087-.288-.175-.42-.263a2.665,2.665,0,0,1-1.278-2.1,2.874,2.874,0,0,1,1.7-2.362,6.691,6.691,0,0,1,1.347-.582,9.3,9.3,0,0,1,2.738-.4,9.606,9.606,0,0,1,2.738.388,7.192,7.192,0,0,1,1.353.589,2.874,2.874,0,0,1,1.7,2.362A2.662,2.662,0,0,1,1053.87,367.446Z" transform="translate(-1007.237 -344.594)" fill="#ab9df1"/>
        <path id="Trazado_126910" data-name="Trazado 126910" d="M1058.677,365.489a7.19,7.19,0,0,0-1.353-.589,9.606,9.606,0,0,0-2.738-.388,9.3,9.3,0,0,0-2.738.4,6.693,6.693,0,0,0-1.347.582,2.874,2.874,0,0,0-1.7,2.362,2.665,2.665,0,0,0,1.278,2.1c.132-.094.27-.182.421-.269a9.04,9.04,0,0,1,8.177,0c.15.087.288.176.42.269a2.662,2.662,0,0,0,1.278-2.1A2.874,2.874,0,0,0,1058.677,365.489Z" transform="translate(-1012.463 -347.099)" fill="#826be9"/>
      </g>
    </g>
  </g>
</svg>
