<svg xmlns="http://www.w3.org/2000/svg" xmlns:xlink="http://www.w3.org/1999/xlink" width="85" height="85" viewBox="0 0 85 85">
  <defs>
    <clipPath id="clip-path">
      <rect id="Rectángulo_34042" data-name="Rectángulo 34042" width="85" height="85" transform="translate(600 14109)" fill="#2ff980" stroke="#707070" stroke-width="1"/>
    </clipPath>
  </defs>
  <g id="Grupo_87" data-name="Grupo 87" transform="translate(-600 -14109)" clip-path="url(#clip-path)">
    <g id="Grupo_85034" data-name="Grupo 85034" transform="translate(670.56 14415.29)">
      <path id="Trazado_124490" data-name="Trazado 124490" d="M-28.052-224.931H-63.827c-2.135,0-3.09-.966-3.091-3.121,0-1.753.018-3.508-.009-5.261a3.848,3.848,0,0,1,.434-1.854c2.348-4.659,4.671-9.331,7.015-13.992a3.134,3.134,0,0,0,.339-1.463q-.015-19.91-.008-39.821c0-2.92,1.512-4.429,4.434-4.429,3.21,0,6.421-.009,9.632.01a1.4,1.4,0,0,0,1.13-.46c.932-.975,1.894-1.921,2.856-2.866a1.354,1.354,0,0,1,2.236-.02c.851.827,1.7,1.662,2.51,2.526a.6.6,0,0,0,.89.123,10.656,10.656,0,0,1,2.894-1.2c.553-.138.642-.406.628-.9-.033-1.159-.019-2.32-.007-3.48a1.316,1.316,0,0,1,1.487-1.495q2.387-.018,4.775,0a1.319,1.319,0,0,1,1.5,1.481q.02,1.821,0,3.642c0,.357.036.6.455.7a11.289,11.289,0,0,1,3.121,1.289c.368.218.562.114.818-.15q1.269-1.307,2.574-2.577a1.3,1.3,0,0,1,2.11-.011c.95.919,1.89,1.849,2.8,2.81a1.728,1.728,0,0,0,1.4.6c3.264-.033,6.529-.02,9.794-.015a3.886,3.886,0,0,1,4.135,4.16q0,20.032-.008,40.064a3.3,3.3,0,0,0,.368,1.538c2.333,4.64,4.647,9.289,6.987,13.926a3.854,3.854,0,0,1,.435,1.854c-.027,1.834-.006,3.669-.01,5.5a2.619,2.619,0,0,1-2.911,2.894Q-10.083-224.929-28.052-224.931ZM8.18-228.814c.009-1.05-.018-2.1.041-3.149.033-.6-.127-.756-.742-.755q-14.182.033-28.364,0c-.559,0-.772.121-.7.7a2.9,2.9,0,0,1-1.465,3,5.349,5.349,0,0,1-1.666.206q-3.38-.018-6.759,0a4.887,4.887,0,0,1-1.584-.213,2.884,2.884,0,0,1-1.466-2.99c.068-.58-.143-.739-.7-.7-.723.051-1.453.012-2.18.013l-17.848.027c-2.859-.009-5.718-.011-8.577-.035-.392,0-.5.115-.5.5.022,1.267.06,2.539-.011,3.8-.043.761.211.9.923.9q35.205-.029,70.41-.016C8.247-227.522,8.247-227.522,8.18-228.814Zm-52.1-27.23c.107.009.214.026.321.026q19.1,0,38.2.017c.63,0,.67-.248.669-.753-.014-5.88-.006-11.761-.01-17.641q0-5.3-.025-10.6c.008-.564.006-1.13.03-1.693.013-.312-.1-.419-.415-.418-2.61.009-5.221,0-7.831.008-.142,0-.324-.059-.366.189a1.047,1.047,0,0,0,.94,1.1c1.184,0,2.368-.007,3.552,0,1.048.01,1.511.48,1.524,1.54.016,1.372.021,2.744.03,4.115-.094,1.665-.2,1.842-1.328,2.139-.8-.008-1.608-.026-2.412-.023-.64,0-1.4-.175-1.882.113-.391.235-.441,1.037-.643,1.587a4.269,4.269,0,0,0-.172.449c-.17.706-1.038,1.291-.715,1.994.293.637,1.02,1.075,1.556,1.6a.265.265,0,0,0,.072.036c.4.43.818.851,1.212,1.29a1.238,1.238,0,0,1,.021,1.872q-1.762,1.834-3.6,3.6a1.267,1.267,0,0,1-1.939-.019c-.535-.488-1.049-1-1.572-1.5-.33-.351-.685-.683-.984-1.06-.334-.421-.633-.413-1.085-.147a11.05,11.05,0,0,1-2.9,1.185.563.563,0,0,0-.508.665c.033.967.026,1.937.034,2.905-.008.16-.023.319-.024.478-.016,1.409-.4,1.785-1.819,1.79-.853,0-1.706.016-2.559.025-.62-.009-1.24-.015-1.859-.026-1.057-.019-1.524-.479-1.533-1.537-.01-1.186-.016-2.373,0-3.56.007-.4-.071-.63-.514-.747A11.674,11.674,0,0,1-35.5-268.3a.565.565,0,0,0-.827.128c-.784.817-1.592,1.613-2.395,2.411-.967.961-1.515.968-2.461.029q-1.523-1.51-3.033-3.032c-.978-.984-.97-1.514.029-2.517.78-.783,1.549-1.579,2.352-2.338a.609.609,0,0,0,.139-.893,11.122,11.122,0,0,1-1.234-2.973c-.123-.479-.359-.565-.8-.555-1.186.027-2.373.019-3.56.006a1.318,1.318,0,0,1-1.494-1.492q-.019-2.387,0-4.774a1.317,1.317,0,0,1,1.485-1.5c1.052-.013,2.1,0,3.156,0,1.172,0,1.172,0,1.347-1.3-2.592,0-5.176.025-7.76-.018-.67-.011-.84.154-.838.832q.036,14.726.017,29.452a2.445,2.445,0,0,1,0,.323c-.052.388.109.506.5.5C-48.562-256.033-46.242-256.035-43.923-256.044Zm-19.588,20.72H7.365c-.135-.291-.238-.531-.355-.765-1.9-3.8-3.821-7.6-5.693-11.418A1.142,1.142,0,0,0,.1-248.26q-28.164.029-56.329.016a3.432,3.432,0,0,1-.4,0c-.317-.039-.477.111-.616.389C-59.31-243.714-61.384-239.575-63.512-235.324Zm48.679-54.368H-13.8q4.978,0,9.956,0c1.231,0,1.685.435,1.685,1.629q0,16.51,0,33.021c0,1.16-.457,1.613-1.62,1.613q-24.281,0-48.562,0c-1.169,0-1.624-.45-1.624-1.608q0-16.51,0-33.021c0-1.2.449-1.633,1.678-1.634q4.978,0,9.955,0h.771l.136-.211c-.694-.657-1.4-1.3-2.075-1.979a1.265,1.265,0,0,0-.992-.409c-3.48.015-6.961.006-10.441.01-1.169,0-1.623.449-1.623,1.608q0,19.586-.012,39.172c0,.515.117.677.659.677q27.843-.022,55.685,0c.527,0,.67-.137.669-.667Q.424-271.077.433-290.664c0-1.164-.453-1.615-1.616-1.617q-5.22-.007-10.441,0c-.235,0-.5-.077-.7.119C-13.1-291.4-13.878-290.631-14.833-289.692Zm-29.115,9.068c.566,0,1.133.006,1.7,0a1.307,1.307,0,0,1,1.46,1.111,13.8,13.8,0,0,0,2.024,4.9,1.3,1.3,0,0,1-.2,1.764c-.474.48-.953.954-1.431,1.43-1.479,1.474-1.47,1.464.046,2.884.31.29.488.283.772-.013.8-.836,1.632-1.649,2.454-2.468a1.293,1.293,0,0,1,1.763-.195,13.86,13.86,0,0,0,4.9,2.023,1.284,1.284,0,0,1,1.1,1.384c0,.674,0,1.349,0,2.024,0,2.092,0,2.077,2.068,2.011.44-.014.54-.153.532-.561-.024-1.133,0-2.266-.01-3.4a1.311,1.311,0,0,1,1.112-1.46,13.787,13.787,0,0,0,4.9-2.024,1.293,1.293,0,0,1,1.763.2q.718.713,1.431,1.431c1.474,1.476,1.465,1.468,2.882-.044.288-.308.29-.486-.009-.773-.837-.8-1.649-1.632-2.468-2.454a1.293,1.293,0,0,1-.2-1.763,13.446,13.446,0,0,0,2-4.819,1.341,1.341,0,0,1,1.487-1.187c.648.011,1.3,0,1.943,0,2.093,0,2.078,0,2.016-2.064-.013-.435-.142-.545-.556-.536-1.133.025-2.267,0-3.4.011a1.347,1.347,0,0,1-1.488-1.186,13.422,13.422,0,0,0-2-4.819,1.293,1.293,0,0,1,.2-1.763c.476-.478.954-.954,1.431-1.431,1.475-1.477,1.467-1.468-.04-2.883-.3-.286-.483-.3-.772,0-.8.837-1.632,1.649-2.454,2.468a1.294,1.294,0,0,1-1.763.2,13.784,13.784,0,0,0-4.9-2.025,1.308,1.308,0,0,1-1.112-1.46c.008-.674,0-1.349,0-2.024,0-2.012,0-2-2.064-1.935-.434.013-.546.14-.537.555.025,1.133,0,2.267.01,3.4a1.312,1.312,0,0,1-1.11,1.462,13.784,13.784,0,0,0-4.9,2.024,1.294,1.294,0,0,1-1.763-.2c-.478-.475-.954-.954-1.431-1.431-1.476-1.475-1.467-1.467-2.882.043-.288.307-.293.486.007.773.8.765,1.576,1.553,2.352,2.341a1.373,1.373,0,0,1,.228,2.014,13.187,13.187,0,0,0-1.894,4.6c-.188.935-.622,1.255-1.588,1.262-1.106.008-2.213.019-3.319-.006-.415-.01-.543.1-.556.536-.062,2.064-.077,2.064,1.935,2.064Zm15.889,49.217c1.077,0,2.155-.029,3.231.012.542.021.676-.163.671-.681,0-.487-.125-.644-.633-.638q-3.272.042-6.543,0c-.511-.007-.624.157-.63.64-.007.522.135.7.673.678C-30.215-231.436-29.137-231.408-28.059-231.408Z" transform="translate(0 0)" fill="#010101"/>
      <path id="Trazado_124491" data-name="Trazado 124491" d="M-56.322-189.5c0,1.248,0,1.248-1.262,1.248-1.328,0-1.328,0-1.328-1.343,0-1.247,0-1.247,1.262-1.247C-56.322-190.841-56.322-190.841-56.322-189.5Z" transform="translate(-5.415 -75.537)"/>
      <path id="Trazado_124492" data-name="Trazado 124492" d="M159.28-189.482c0,1.231,0,1.231-1.279,1.231-1.312,0-1.312,0-1.312-1.279,0-1.312,0-1.312,1.279-1.312C159.28-190.841,159.28-190.841,159.28-189.482Z" transform="translate(-151.074 -75.537)"/>
      <path id="Trazado_124493" data-name="Trazado 124493" d="M154.056-290.654c1.231,0,1.231,0,1.231,1.279,0,1.312,0,1.312-1.279,1.312-1.312,0-1.312,0-1.312-1.278C152.7-290.654,152.7-290.654,154.056-290.654Z" transform="translate(-148.376 -8.104)"/>
      <path id="Trazado_124494" data-name="Trazado 124494" d="M-58.912-237.531c0-1.221,0-1.221,1.207-1.221,1.383,0,1.383,0,1.383,1.369,0,1.221,0,1.221-1.207,1.221C-58.912-236.162-58.912-236.162-58.912-237.531Z" transform="translate(-5.415 -43.168)"/>
      <path id="Trazado_124495" data-name="Trazado 124495" d="M-52.329-289.417c0,1.354,0,1.354-1.4,1.354-1.192,0-1.192,0-1.192-1.156,0-1.435,0-1.435,1.4-1.435C-52.329-290.654-52.329-290.654-52.329-289.417Z" transform="translate(-8.112 -8.104)"/>
      <path id="Trazado_124496" data-name="Trazado 124496" d="M159.28-213.5c0,1.292,0,1.292-1.3,1.292s-1.292,0-1.292-1.3,0-1.293,1.3-1.293S159.28-214.8,159.28-213.5Z" transform="translate(-151.074 -59.352)"/>
      <path id="Trazado_124497" data-name="Trazado 124497" d="M-56.322-213.485c0,1.279,0,1.279-1.312,1.279-1.278,0-1.278,0-1.278-1.312,0-1.279,0-1.279,1.312-1.279C-56.322-214.8-56.322-214.8-56.322-213.485Z" transform="translate(-5.415 -59.352)"/>
      <path id="Trazado_124498" data-name="Trazado 124498" d="M159.28-237.392c0,1.231,0,1.231-1.279,1.231-1.312,0-1.312,0-1.312-1.279,0-1.312,0-1.312,1.279-1.312C159.28-238.752,159.28-238.752,159.28-237.392Z" transform="translate(-151.074 -43.168)"/>
      <path id="Trazado_124499" data-name="Trazado 124499" d="M-56.4-122.057c2.127-4.252,4.2-8.39,6.265-12.534.139-.279.3-.428.616-.389a3.432,3.432,0,0,0,.4,0q28.164,0,56.329-.016a1.142,1.142,0,0,1,1.215.754c1.873,3.818,3.791,7.614,5.693,11.418.117.234.221.474.355.765Zm35.536-5.15H-37.284c-1.8,0-1.765,0-1.814,1.776-.019.681.168.831.837.83q16.785-.034,33.571-.016c1.889,0,1.86,0,1.894-1.858.011-.612-.154-.75-.755-.747C-9.322-127.2-15.092-127.207-20.862-127.207Zm-26.043-2.59c1.349,0,1.349,0,1.349-1.322,0-1.268,0-1.268-1.242-1.268-1.349,0-1.349,0-1.349,1.322C-48.147-129.8-48.147-129.8-46.905-129.8Zm10.494-2.59c-1.373,0-1.373,0-1.373,1.378,0,1.212,0,1.212,1.217,1.212,1.373,0,1.373,0,1.373-1.378C-35.195-132.388-35.195-132.388-36.412-132.388Zm3.808,1.231c0,1.36,0,1.36,1.311,1.36,1.279,0,1.279,0,1.279-1.311,0-1.279,0-1.279-1.312-1.279C-32.6-132.388-32.6-132.388-32.6-131.157Zm5.181.006c0,1.354,0,1.354,1.317,1.354,1.273,0,1.273,0,1.273-1.237,0-1.354,0-1.354-1.317-1.354C-27.423-132.388-27.423-132.388-27.423-131.152Zm7.772.092c0-1.328,0-1.328-1.343-1.328-1.248,0-1.248,0-1.248,1.262,0,1.328,0,1.328,1.343,1.328C-19.651-129.8-19.651-129.8-19.651-131.06Zm2.59-.1c0,1.36,0,1.36,1.311,1.36,1.279,0,1.279,0,1.279-1.311,0-1.279,0-1.279-1.311-1.279C-17.061-132.388-17.061-132.388-17.061-131.157Zm7.772.011c0-1.242,0-1.242-1.268-1.242-1.322,0-1.322,0-1.322,1.349,0,1.242,0,1.242,1.268,1.242C-9.289-129.8-9.289-129.8-9.289-131.146Zm5.181.065c0-1.306,0-1.306-.881-1.307-1.709,0-1.709,0-1.709.962,0,1.629,0,1.629.962,1.629C-4.109-129.8-4.109-129.8-4.109-131.081Zm3.892-1.307c-1.3,0-1.3,0-1.3,1.289s0,1.3,1.289,1.3,1.3,0,1.3-1.289S1.073-132.388-.216-132.388Zm5.233,2.59c1.236,0,1.236,0,1.236-1.274,0-1.317,0-1.317-1.354-1.317-1.236,0-1.236,0-1.236,1.273C3.663-129.8,3.663-129.8,5.017-129.8ZM-48.2-124.617c1.349,0,1.349,0,1.349-1.322,0-1.268,0-1.268-1.242-1.268-1.349,0-1.349,0-1.349,1.322C-49.442-124.617-49.442-124.617-48.2-124.617Zm3.939-1.373c0,1.373,0,1.373,1.378,1.373,1.212,0,1.212,0,1.212-1.217,0-1.373,0-1.373-1.378-1.373C-44.261-127.207-44.261-127.207-44.261-125.99Zm46.629.019c0-1.236,0-1.236-1.273-1.236-1.317,0-1.317,0-1.317,1.354,0,1.236,0,1.236,1.274,1.236C2.368-124.617,2.368-124.617,2.368-125.971Zm5.181.1c0-1.334,0-1.334-1.337-1.334-1.253,0-1.253,0-1.253,1.256,0,1.334,0,1.334,1.337,1.334C7.549-124.617,7.549-124.617,7.549-125.873Zm-49.208-6.515c-1.306,0-1.306,0-1.307.881,0,1.709,0,1.709.962,1.709,1.629,0,1.629,0,1.629-.962C-40.375-132.388-40.375-132.388-41.659-132.388Z" transform="translate(-7.114 -113.266)" fill="#bab9be"/>
      <path id="Trazado_124500" data-name="Trazado 124500" d="M6.744-268.126c.955-.939,1.733-1.706,2.514-2.468.2-.2.46-.118.7-.119q5.22-.006,10.441,0c1.163,0,1.616.452,1.616,1.617q0,19.586.013,39.173c0,.53-.142.667-.669.667q-27.842-.02-55.685,0c-.542,0-.66-.162-.659-.677q.02-19.586.012-39.172c0-1.159.455-1.606,1.623-1.608,3.48,0,6.961,0,10.441-.01a1.265,1.265,0,0,1,.992.409c.671.68,1.381,1.322,2.075,1.979l-.136.211h-.771q-4.978,0-9.955,0c-1.23,0-1.678.434-1.678,1.634q0,16.511,0,33.021c0,1.158.455,1.608,1.624,1.608q24.281,0,48.562,0c1.164,0,1.62-.454,1.62-1.613q0-16.511,0-33.021c0-1.194-.454-1.628-1.685-1.629q-4.978,0-9.956,0Z" transform="translate(-21.577 -21.566)" fill="#abaab0"/>
      <path id="Trazado_124501" data-name="Trazado 124501" d="M39.27-241.241c1.125-.3,1.235-.474,1.328-2.139a49.639,49.639,0,0,0,2.536-4.845q.013,5.3.025,10.6c0,5.88,0,11.761.01,17.641,0,.505-.039.754-.669.753q-19.1-.031-38.2-.017c-.107,0-.214-.017-.321-.026a1.489,1.489,0,0,1,.286-.129A72.7,72.7,0,0,0,14.4-222.28a27.3,27.3,0,0,0,4.951-2.123c.853-.009,1.706-.021,2.559-.025,1.42-.006,1.8-.381,1.819-1.79,0-.16.016-.319.024-.479a1.835,1.835,0,0,0,.723-.333c1.642-.971,3.184-2.089,4.72-3.216.523.5,1.037,1.013,1.572,1.5a1.267,1.267,0,0,0,1.939.019q1.833-1.763,3.6-3.6a1.238,1.238,0,0,0-.021-1.872c-.394-.439-.807-.861-1.212-1.291a3.183,3.183,0,0,1,.747-1.121A31.716,31.716,0,0,0,39.27-241.241Z" transform="translate(-47.906 -36.769)" fill="#5599db"/>
      <path id="Trazado_124502" data-name="Trazado 124502" d="M3.8-228.829a27.3,27.3,0,0,1-4.951,2.123,72.691,72.691,0,0,1-10.135,2.875,1.49,1.49,0,0,0-.286.129c-2.319.009-4.638.011-6.957.035-.388,0-.548-.115-.5-.5a2.444,2.444,0,0,0,0-.323q0-14.725-.017-29.452c0-.678.168-.843.838-.832,2.584.043,5.168.018,7.76.018-.175,1.295-.175,1.295-1.347,1.3-1.052,0-2.1-.01-3.156,0a1.317,1.317,0,0,0-1.485,1.5q-.018,2.386,0,4.774a1.318,1.318,0,0,0,1.494,1.492c1.187.013,2.374.021,3.56-.006.437-.01.674.076.8.555a11.122,11.122,0,0,0,1.234,2.973.609.609,0,0,1-.139.893c-.8.759-1.572,1.555-2.352,2.338-1,1-1.007,1.533-.029,2.517q1.511,1.521,3.033,3.032c.947.939,1.495.932,2.461-.029.8-.8,1.611-1.594,2.395-2.411a.565.565,0,0,1,.827-.128A11.674,11.674,0,0,0-.1-234.7c.443.117.521.346.514.747-.021,1.186-.015,2.373,0,3.56.009,1.058.477,1.518,1.533,1.537C2.564-228.844,3.183-228.838,3.8-228.829Z" transform="translate(-32.354 -32.342)" fill="#6ba8e1"/>
      <path id="Trazado_124503" data-name="Trazado 124503" d="M-.834-275.282h-.324c-2.012,0-2,0-1.935-2.064.013-.434.141-.546.556-.536,1.106.025,2.212.014,3.319.007.966-.007,1.4-.326,1.588-1.262a13.187,13.187,0,0,1,1.894-4.6,1.373,1.373,0,0,0-.228-2.014c-.776-.788-1.553-1.576-2.352-2.341-.3-.287-.295-.466-.007-.773,1.416-1.509,1.406-1.518,2.882-.043.477.477.952.955,1.431,1.431a1.294,1.294,0,0,0,1.763.2,13.784,13.784,0,0,1,4.9-2.024,1.312,1.312,0,0,0,1.11-1.462c-.008-1.133.015-2.267-.01-3.4-.009-.415.1-.543.537-.555,2.064-.062,2.064-.077,2.064,1.935,0,.674.007,1.349,0,2.024a1.308,1.308,0,0,0,1.112,1.46,13.784,13.784,0,0,1,4.9,2.025,1.294,1.294,0,0,0,1.763-.2c.822-.819,1.651-1.631,2.454-2.468.289-.3.468-.29.772,0,1.507,1.415,1.515,1.406.04,2.883-.477.477-.955.952-1.431,1.431a1.293,1.293,0,0,0-.2,1.763,13.422,13.422,0,0,1,2,4.819,1.347,1.347,0,0,0,1.488,1.186c1.133-.01,2.267.014,3.4-.011.414-.009.543.1.556.536.062,2.065.077,2.064-2.016,2.064-.648,0-1.3.009-1.943,0a1.341,1.341,0,0,0-1.487,1.187,13.446,13.446,0,0,1-2,4.819,1.293,1.293,0,0,0,.2,1.763c.819.821,1.631,1.651,2.468,2.454.3.286.3.465.009.773-1.417,1.512-1.408,1.521-2.882.044q-.715-.716-1.431-1.431a1.293,1.293,0,0,0-1.763-.2,13.787,13.787,0,0,1-4.9,2.024,1.311,1.311,0,0,0-1.112,1.46c.008,1.133-.014,2.267.01,3.4.008.408-.092.547-.532.561-2.069.065-2.068.081-2.068-2.011,0-.675,0-1.349,0-2.024a1.284,1.284,0,0,0-1.1-1.384,13.86,13.86,0,0,1-4.9-2.023,1.293,1.293,0,0,0-1.763.195c-.821.819-1.65,1.631-2.454,2.468-.284.3-.462.3-.772.013-1.516-1.42-1.525-1.41-.046-2.884.478-.476.957-.951,1.431-1.43a1.3,1.3,0,0,0,.2-1.764,13.8,13.8,0,0,1-2.024-4.9,1.307,1.307,0,0,0-1.46-1.111C.3-275.275-.268-275.281-.834-275.282Zm5.526-1.339a10.393,10.393,0,0,0,10.22,10.4,10.368,10.368,0,0,0,10.5-10.28,10.366,10.366,0,0,0-10.338-10.44A10.372,10.372,0,0,0,4.692-276.62Z" transform="translate(-43.114 -5.343)" fill="#ee9a3b"/>
      <path id="Trazado_124504" data-name="Trazado 124504" d="M-27.7-83.374a4.887,4.887,0,0,0,1.584.213q3.38-.018,6.759,0a5.349,5.349,0,0,0,1.666-.206c.27.343.651.194.98.195q15.127.014,30.255.009c.067,1.292.067,1.292-1.193,1.292q-35.205,0-70.41.016c-.712,0-.966-.141-.923-.9.071-1.264.033-2.535.011-3.8-.007-.385.1-.5.5-.5,2.859.024,5.718.026,8.577.035q0,.485,0,.969a2.574,2.574,0,0,0,2.887,2.889q9.167,0,18.334-.006C-28.345-83.174-27.963-83.023-27.7-83.374Z" transform="translate(-5.366 -145.65)" fill="#d7d6d9"/>
      <path id="Trazado_124505" data-name="Trazado 124505" d="M99.544-83.179q-15.128,0-30.255-.009c-.33,0-.71.149-.98-.195a2.9,2.9,0,0,0,1.465-3c-.068-.58.146-.7.7-.7q14.182.028,28.364,0c.614,0,.775.157.742.755C99.525-85.281,99.552-84.229,99.544-83.179Z" transform="translate(-91.364 -145.635)" fill="#c5c4c9"/>
      <path id="Trazado_124506" data-name="Trazado 124506" d="M-8.773-83.4c-.265.351-.647.2-.975.2q-9.167.014-18.334.006a2.574,2.574,0,0,1-2.887-2.889q0-.484,0-.969l17.848-.027c.727,0,1.457.038,2.18-.013.562-.039.773.12.7.7A2.884,2.884,0,0,0-8.773-83.4Z" transform="translate(-24.291 -145.629)" fill="#c5c4c9"/>
      <path id="Trazado_124507" data-name="Trazado 124507" d="M106.777-252.623a49.638,49.638,0,0,1-2.536,4.845c-.009-1.372-.014-2.744-.03-4.115-.012-1.059-.475-1.53-1.524-1.54-1.184-.011-2.368,0-3.552,0a1.047,1.047,0,0,1-.94-1.1c.042-.247.224-.188.366-.188,2.61,0,5.221,0,7.831-.008.314,0,.428.106.415.418C106.783-253.753,106.786-253.188,106.777-252.623Z" transform="translate(-111.549 -32.371)" fill="#6ba8e1"/>
      <path id="Trazado_124508" data-name="Trazado 124508" d="M100.478-226.852a31.715,31.715,0,0,1-3.449,4.636,3.183,3.183,0,0,0-.747,1.121.261.261,0,0,1-.072-.036c-.537-.525-1.263-.963-1.556-1.6-.323-.7.545-1.289.715-1.994a4.272,4.272,0,0,1,.172-.449c.2-.55.252-1.353.643-1.587.478-.287,1.242-.11,1.882-.113C98.87-226.878,99.674-226.86,100.478-226.852Z" transform="translate(-109.115 -51.158)" fill="#6aa6df"/>
      <path id="Trazado_124509" data-name="Trazado 124509" d="M70.308-195.7c-1.536,1.127-3.078,2.245-4.72,3.216a1.834,1.834,0,0,1-.723.333c-.009-.968,0-1.938-.034-2.905a.563.563,0,0,1,.508-.665,11.051,11.051,0,0,0,2.9-1.185c.452-.265.751-.274,1.085.147C69.623-196.385,69.978-196.054,70.308-195.7Z" transform="translate(-89.014 -71.311)" fill="#6aa6de"/>
      <path id="Trazado_124510" data-name="Trazado 124510" d="M44.754-85.766c-1.077,0-2.155-.029-3.231.012-.538.02-.68-.157-.673-.678.006-.483.119-.647.63-.64q3.271.043,6.543,0c.508-.006.628.151.633.638,0,.518-.129.7-.671.681C46.909-85.8,45.831-85.766,44.754-85.766Z" transform="translate(-72.813 -145.642)" fill="#88878e"/>
      <path id="Trazado_124511" data-name="Trazado 124511" d="M15.162-111.021c5.771,0,11.541.01,17.311-.015.6,0,.766.136.755.747-.034,1.857,0,1.858-1.894,1.858q-16.785,0-33.571.016c-.668,0-.856-.15-.837-.83.05-1.775.014-1.776,1.814-1.776Z" transform="translate(-43.138 -129.452)"/>
      <path id="Trazado_124512" data-name="Trazado 124512" d="M-29.722-124.371c-1.242,0-1.242,0-1.242-1.268,0-1.322,0-1.322,1.349-1.322,1.242,0,1.242,0,1.242,1.268C-28.374-124.371-28.374-124.371-29.722-124.371Z" transform="translate(-24.297 -118.693)"/>
      <path id="Trazado_124513" data-name="Trazado 124513" d="M2.35-126.961c1.217,0,1.217,0,1.217,1.212,0,1.378,0,1.378-1.373,1.378-1.217,0-1.217,0-1.217-1.212C.977-126.961.977-126.961,2.35-126.961Z" transform="translate(-45.876 -118.693)"/>
      <path id="Trazado_124514" data-name="Trazado 124514" d="M16.948-125.73c0-1.231,0-1.231,1.279-1.231,1.312,0,1.312,0,1.312,1.279,0,1.311,0,1.311-1.279,1.311C16.948-124.371,16.948-124.371,16.948-125.73Z" transform="translate(-56.666 -118.693)"/>
      <path id="Trazado_124515" data-name="Trazado 124515" d="M32.918-125.725c0-1.236,0-1.236,1.274-1.236,1.317,0,1.317,0,1.317,1.354,0,1.237,0,1.237-1.273,1.237C32.918-124.371,32.918-124.371,32.918-125.725Z" transform="translate(-67.455 -118.693)"/>
      <path id="Trazado_124516" data-name="Trazado 124516" d="M51.479-125.633c0,1.262,0,1.262-1.248,1.262-1.343,0-1.343,0-1.343-1.328,0-1.262,0-1.262,1.248-1.262C51.479-126.961,51.479-126.961,51.479-125.633Z" transform="translate(-78.245 -118.693)"/>
      <path id="Trazado_124517" data-name="Trazado 124517" d="M64.859-125.73c0-1.231,0-1.231,1.279-1.231,1.311,0,1.311,0,1.311,1.279,0,1.311,0,1.311-1.279,1.311C64.859-124.371,64.859-124.371,64.859-125.73Z" transform="translate(-89.034 -118.693)"/>
      <path id="Trazado_124518" data-name="Trazado 124518" d="M83.42-125.719c0,1.349,0,1.349-1.322,1.349-1.268,0-1.268,0-1.268-1.242,0-1.349,0-1.349,1.322-1.349C83.42-126.961,83.42-126.961,83.42-125.719Z" transform="translate(-99.824 -118.693)"/>
      <path id="Trazado_124519" data-name="Trazado 124519" d="M99.39-125.655c0,1.284,0,1.284-1.629,1.284-.962,0-.962,0-.962-1.629,0-.963,0-.963,1.709-.962C99.39-126.961,99.39-126.961,99.39-125.655Z" transform="translate(-110.613 -118.693)"/>
      <path id="Trazado_124520" data-name="Trazado 124520" d="M114.073-126.961c1.289,0,1.289,0,1.289,1.3s0,1.289-1.3,1.289-1.289,0-1.289-1.3S112.771-126.961,114.073-126.961Z" transform="translate(-121.403 -118.693)"/>
      <path id="Trazado_124521" data-name="Trazado 124521" d="M130.1-124.371c-1.354,0-1.354,0-1.354-1.317,0-1.273,0-1.273,1.236-1.273,1.354,0,1.354,0,1.354,1.317C131.331-124.371,131.331-124.371,130.1-124.371Z" transform="translate(-132.192 -118.693)"/>
      <path id="Trazado_124522" data-name="Trazado 124522" d="M-33.714-108.4c-1.242,0-1.242,0-1.242-1.268,0-1.322,0-1.322,1.349-1.322,1.242,0,1.242,0,1.242,1.268C-32.366-108.4-32.366-108.4-33.714-108.4Z" transform="translate(-21.6 -129.483)"/>
      <path id="Trazado_124523" data-name="Trazado 124523" d="M-18.986-109.774c0-1.217,0-1.217,1.212-1.217,1.378,0,1.378,0,1.378,1.373,0,1.217,0,1.217-1.212,1.217C-18.986-108.4-18.986-108.4-18.986-109.774Z" transform="translate(-32.389 -129.483)"/>
      <path id="Trazado_124524" data-name="Trazado 124524" d="M119.353-109.755c0,1.354,0,1.354-1.317,1.354-1.274,0-1.274,0-1.274-1.236,0-1.354,0-1.354,1.317-1.354C119.353-110.991,119.353-110.991,119.353-109.755Z" transform="translate(-124.1 -129.483)"/>
      <path id="Trazado_124525" data-name="Trazado 124525" d="M135.324-109.657c0,1.256,0,1.256-1.254,1.256-1.337,0-1.337,0-1.337-1.334,0-1.256,0-1.256,1.253-1.256C135.324-110.991,135.324-110.991,135.324-109.657Z" transform="translate(-134.889 -129.483)"/>
      <path id="Trazado_124526" data-name="Trazado 124526" d="M-13.687-126.961c1.284,0,1.284,0,1.284,1.629,0,.962,0,.962-1.629.962-.963,0-.963,0-.962-1.709C-14.993-126.961-14.993-126.961-13.687-126.961Z" transform="translate(-35.086 -118.693)"/>
      <path id="Trazado_124527" data-name="Trazado 124527" d="M20.942-260.37a10.372,10.372,0,0,1,10.383-10.318,10.366,10.366,0,0,1,10.338,10.44,10.368,10.368,0,0,1-10.5,10.28A10.393,10.393,0,0,1,20.942-260.37Zm9,7.628c.136-1.11.136-1.11,1.3-1.11a6.183,6.183,0,0,0,.728,0c.467-.056.724.063.634.6-.079.467.077.609.574.466a7.786,7.786,0,0,0,5.662-5.662c.143-.5,0-.653-.466-.574-.535.091-.655-.166-.6-.634a6.114,6.114,0,0,0,.005-.728c0-1.16,0-1.16,1.11-1.3a7.512,7.512,0,0,0-6.227-6.226c-.138,1.108-.138,1.108-1.3,1.108a4.522,4.522,0,0,0-.647.005c-.543.079-.814-.086-.714-.682.051-.3,0-.5-.418-.431a8,8,0,0,0-5.857,5.865c-.032.222-.087.481.259.415.954-.182.869.439.843,1.038a5.981,5.981,0,0,0,0,.889c.053.5-.073.769-.64.676-.332-.055-.554-.02-.467.456A7.733,7.733,0,0,0,29.945-252.742Z" transform="translate(-59.364 -21.593)" fill="#030201"/>
      <path id="Trazado_124528" data-name="Trazado 124528" d="M35.7-246.985a7.733,7.733,0,0,1-6.219-5.829c-.088-.476.135-.511.467-.456.566.093.693-.18.64-.676a5.98,5.98,0,0,1,0-.889c.026-.6.111-1.22-.843-1.038-.346.066-.292-.193-.259-.415a8,8,0,0,1,5.857-5.865c.423-.064.469.128.418.431-.1.6.17.761.714.682a4.522,4.522,0,0,1,.647-.005c1.161,0,1.161,0,1.3-1.108a7.512,7.512,0,0,1,6.227,6.226c-1.11.135-1.11.135-1.11,1.3a6.114,6.114,0,0,1-.005.728c-.056.467.064.724.6.634.468-.079.609.078.466.574a7.786,7.786,0,0,1-5.662,5.662c-.5.143-.653,0-.574-.466.091-.536-.167-.655-.634-.6a6.186,6.186,0,0,1-.728,0C35.832-248.095,35.832-248.095,35.7-246.985Zm.062-9.978a4.512,4.512,0,0,0,1.593,4.584c1.488,1.208,1.374,1.313,2.729-.014.4-.389.475-.665,0-.991a3.912,3.912,0,0,1-1.729-4.221.918.918,0,0,0,0-.161c0-2.137,0-2.126-2.142-2-.347.021-.467.107-.457.46C35.774-258.522,35.759-257.742,35.759-256.962Z" transform="translate(-65.115 -27.35)" fill="#f7d24f"/>
      <path id="Trazado_124529" data-name="Trazado 124529" d="M48.716-252.055c0-.78.016-1.56-.007-2.339-.01-.353.11-.439.457-.46,2.143-.131,2.142-.141,2.142,2a.918.918,0,0,1,0,.161,3.912,3.912,0,0,0,1.729,4.221c.477.326.4.6,0,.991-1.355,1.327-1.241,1.223-2.729.014A4.512,4.512,0,0,1,48.716-252.055Z" transform="translate(-78.072 -32.258)" fill="#040301"/>
    </g>
  </g>
</svg>
