<svg xmlns="http://www.w3.org/2000/svg" xmlns:xlink="http://www.w3.org/1999/xlink" width="96" height="96" viewBox="0 0 96 96">
  <defs>
    <clipPath id="clip-path">
      <rect id="Rectángulo_36566" data-name="Rectángulo 36566" width="96" height="96" fill="#fff" stroke="#707070" stroke-width="1"/>
    </clipPath>
  </defs>
  <g id="Grupo_85709" data-name="Grupo 85709" clip-path="url(#clip-path)">
    <g id="Grupo_85710" data-name="Grupo 85710" transform="translate(60.027 359.04)">
      <path id="Trazado_126691" data-name="Trazado 126691" d="M-48.574-257.864q0-1.558-.008-3.116c1.014-.181,1.253-.483,1.253-1.609q0-22.144,0-44.288c0-3.151,1.788-4.94,4.94-4.94q13.3,0,26.6,0c.441,0,.882.061,1.322.093q0,24.115,0,48.229,0,5.081-.012,10.161c-.31.016-.621.047-.932.047q-12,0-23.994,0c-2.423,0-4.846-.018-7.268.013-.562.008-.707-.166-.676-.7.045-.779.015-1.563.011-2.344C-47.335-257.347-47.554-257.616-48.574-257.864ZM-24.76-277.7c.245.108.409.176.57.253,1.807.868,3.1.433,3.99-1.351.42-.837.833-1.677,1.249-2.515a2.543,2.543,0,0,0-.3-2.985c-.235-.277-.248-.412-.006-.695a2.473,2.473,0,0,0,.4-2.774c-.479-1.067-1-2.117-1.56-3.146a2.539,2.539,0,0,0-3.35-1.137c-.329.139-.652.295-1.039.471,0-.362.006-.647,0-.932a2.59,2.59,0,0,0-2.726-2.685c-1.121-.012-2.244-.023-3.364.008a2.525,2.525,0,0,0-2.384,1.911c-.159.538-.037,1.088-.146,1.669-.228-.1-.441-.18-.647-.278a2.613,2.613,0,0,0-3.882,1.324c-.432.86-.858,1.723-1.287,2.585A2.537,2.537,0,0,0-38.93-285c.236.278.243.413,0,.693a2.445,2.445,0,0,0-.406,2.77q.722,1.6,1.561,3.144a2.56,2.56,0,0,0,3.352,1.153c.328-.133.6-.409,1.04-.385,0,.194,0,.374,0,.553a2.7,2.7,0,0,0,2.993,3c.6.005,1.2,0,1.8,0C-25.63-274.067-24.988-274.662-24.76-277.7Zm-4.379,7.736q-4.886,0-9.773,0a1.816,1.816,0,0,0-2.076,2.054q-.024,3.831,0,7.662a1.826,1.826,0,0,0,2.046,2.02q9.772.011,19.545,0a1.822,1.822,0,0,0,2.035-2.03q.032-3.831,0-7.662a1.813,1.813,0,0,0-2.086-2.044Q-24.292-269.97-29.139-269.966Zm.051-39.509v.046c-1.93,0-3.865-.1-5.787.026a3.355,3.355,0,0,0-2.985,4.076c.371,1.879,1.7,2.888,3.868,2.9,3.26.014,6.521.007,9.782,0a5.781,5.781,0,0,0,1.089-.092,3.244,3.244,0,0,0,2.714-2.488,3.44,3.44,0,0,0-3.438-4.457C-25.592-309.51-27.341-309.475-29.088-309.475Z" transform="translate(-2.42 -26.979)" fill="#edf6da"/>
      <path id="Trazado_126692" data-name="Trazado 126692" d="M-50.994-263.016c1.02.248,1.239.517,1.245,1.553,0,.782.034,1.565-.011,2.344-.031.534.114.707.676.7,2.422-.032,4.846-.013,7.268-.013q12,0,23.994,0c.311,0,.621-.031.932-.047.988.017,1.978.013,2.965.06.5.024.658-.107.658-.64q-.024-26.713-.018-53.426a4.382,4.382,0,0,0-3.6-4.385c-.441-.032-.882-.093-1.322-.093q-13.3-.008-26.6,0c-3.153,0-4.94,1.789-4.94,4.94q0,22.144,0,44.288c0,1.127-.239,1.428-1.253,1.609a1.263,1.263,0,0,1-1.1-1.449q.012-22.494.015-44.988A6.741,6.741,0,0,1-45.7-319.3c.234-.015.469-.023.7-.023q13.5,0,26.992,0a6.752,6.752,0,0,1,6.991,5.854,8.035,8.035,0,0,1,.075,1.324q.005,27.776,0,55.551c0,4.263-2.775,7.2-7.03,7.221q-13.534.083-27.07,0c-4.256-.023-7.06-2.951-7.065-7.189,0-1.643.023-3.287-.01-4.929A1.337,1.337,0,0,1-50.994-263.016Zm32.229,11.259a1.911,1.911,0,0,0,1,.073,4.552,4.552,0,0,0,4.425-3.707c.055-.3.251-.738-.348-.724a23.947,23.947,0,0,0-3.193.069c-.182-.008-.364-.023-.546-.023H-48.946c-.1,0-.209.009-.313,0-.462-.046-.511.19-.437.574a4.662,4.662,0,0,0,1.2,2.41,4.883,4.883,0,0,0,3.767,1.4q12.552-.005,25.105,0C-19.336-251.694-19.051-251.735-18.765-251.757Z" transform="translate(0 -21.828)" fill="#030303"/>
      <path id="Trazado_126693" data-name="Trazado 126693" d="M122.931-337.1c.836.139,1.134.65,1.132,1.474-.013,8.555,0,17.11-.013,25.666a4.494,4.494,0,0,1-4.565,4.562q-10.563.024-21.127,0a4.458,4.458,0,0,1-4.529-4.5c-.028-3.312-.02-6.625,0-9.937a1.087,1.087,0,0,0-.575-1.061c-1.556-1-3.088-2.034-4.621-3.067a1.541,1.541,0,0,1,.014-2.775c1.534-1.032,3.066-2.068,4.622-3.066a1.1,1.1,0,0,0,.559-1.071c-.019-5.086.063-10.174-.04-15.258a4.783,4.783,0,0,1,4.974-4.988c6.78.082,13.563.026,20.344.028,3.093,0,4.943,1.864,4.945,4.975,0,1.356-.026,2.713.01,4.069a1.369,1.369,0,0,1-1.1,1.555c-1.045-.25-1.257-.52-1.259-1.622,0-1.458.014-2.915-.006-4.372a2.168,2.168,0,0,0-2.194-2.248c-.623-.02-1.248.012-1.871.02-.234-.009-.468-.027-.7-.027q-9.075,0-18.15,0c-1.817,0-2.612.8-2.613,2.62,0,5.085-.044,10.171.027,15.255a3.1,3.1,0,0,1-1.665,3.066c-1.268.735-2.456,1.609-3.737,2.461,1.449.962,2.8,1.889,4.185,2.768a2.434,2.434,0,0,1,1.2,2.282c-.032,3.39-.019,6.78-.009,10.17a2.174,2.174,0,0,0,2.376,2.384c2.764.011,5.528.007,8.293,0q5.4-.008,10.794-.027c.39.009.78.026,1.17.026,2.18,0,2.9-.716,2.9-2.884q0-12.464,0-24.929C121.708-336.634,121.932-336.908,122.931-337.1Z" transform="translate(-96.013)" fill="#020202"/>
      <path id="Trazado_126694" data-name="Trazado 126694" d="M111.72-151.939q-6.573,0-13.146,0a3.616,3.616,0,0,1-3.912-3.889q-.007-9,0-18a3.628,3.628,0,0,1,3.914-3.9q13.146-.008,26.293,0a3.628,3.628,0,0,1,3.911,3.9q.007,9,0,18a3.615,3.615,0,0,1-3.913,3.887Q118.293-151.934,111.72-151.939Zm10.945-23.395a3.368,3.368,0,0,0-.386-.043q-11.845,0-23.69,0c-1.155,0-1.579.453-1.58,1.637q0,8.875,0,17.748c0,1.313.4,1.7,1.74,1.7q6.294,0,12.588,0,5.668-.006,11.335-.026c.807.009,1.615.039,2.421.021a1.243,1.243,0,0,0,1.335-1.391q.013-9.147,0-18.295a1.253,1.253,0,0,0-1.345-1.392C124.279-175.4,123.472-175.349,122.665-175.333Z" transform="translate(-100.738 -119.016)" fill="#020202"/>
      <path id="Trazado_126695" data-name="Trazado 126695" d="M182.991-343.518c.624-.008,1.249-.04,1.871-.02a2.168,2.168,0,0,1,2.194,2.248c.02,1.457,0,2.915.006,4.372,0,1.1.214,1.372,1.259,1.622q-.018,1.7-.035,3.4c-1,.191-1.223.466-1.223,1.545q0,12.464,0,24.929c0,2.168-.722,2.886-2.9,2.884-.39,0-.78-.017-1.17-.026.972-2.156.608-4.444.615-6.683q.046-13.794,0-27.587C183.6-339.074,183.963-341.362,182.991-343.518Z" transform="translate(-161.369 -5.203)" fill="#daeafb"/>
      <path id="Trazado_126696" data-name="Trazado 126696" d="M60.2-311.507a4.382,4.382,0,0,1,3.6,4.385q.013,26.713.018,53.426c0,.533-.161.664-.658.64-.987-.047-1.976-.043-2.965-.06q.006-5.081.012-10.161Q60.2-287.392,60.2-311.507Z" transform="translate(-77.08 -27.193)" fill="#d7e9c8"/>
      <path id="Trazado_126697" data-name="Trazado 126697" d="M-5.086-241.352c-.227,3.04-.87,3.635-3.829,3.635-.6,0-1.2,0-1.8,0a2.7,2.7,0,0,1-2.993-3c0-.18,0-.359,0-.553-.435-.024-.712.252-1.04.385a2.56,2.56,0,0,1-3.352-1.153q-.835-1.543-1.561-3.144a2.445,2.445,0,0,1,.406-2.77c.244-.279.236-.415,0-.693a2.538,2.538,0,0,1-.312-2.983c.429-.861.854-1.725,1.287-2.585A2.613,2.613,0,0,1-14.4-255.54c.206.1.419.181.647.278.109-.581-.013-1.131.146-1.669a2.526,2.526,0,0,1,2.384-1.911c1.121-.031,2.243-.019,3.364-.008a2.59,2.59,0,0,1,2.726,2.685c.007.285,0,.57,0,.932.387-.176.71-.331,1.039-.471a2.539,2.539,0,0,1,3.35,1.137c.557,1.029,1.081,2.079,1.56,3.146a2.473,2.473,0,0,1-.4,2.774c-.242.282-.229.417.006.695a2.543,2.543,0,0,1,.3,2.985c-.416.838-.83,1.678-1.249,2.515-.895,1.784-2.184,2.219-3.99,1.351C-4.677-241.176-4.842-241.244-5.086-241.352Zm3.761-9.086c-.027-.068-.058-.167-.1-.26-.414-.84-.84-1.673-1.242-2.519-.179-.378-.407-.4-.745-.219-.622.325-1.247.649-1.889.932a1.461,1.461,0,0,1-2.17-1.376c-.019-.7-.015-1.408,0-2.112.008-.367-.138-.516-.506-.512-.939.012-1.878.02-2.816,0-.459-.012-.584.189-.569.611.023.651.017,1.3,0,1.955a1.478,1.478,0,0,1-2.26,1.4c-.614-.282-1.219-.586-1.817-.9a.457.457,0,0,0-.737.245c-.4.846-.826,1.681-1.246,2.517-.158.314-.093.492.231.686,2.152,1.291,2.159,2.149.028,3.379-.357.206-.417.391-.236.742q.645,1.247,1.249,2.516c.159.332.344.395.675.217.618-.332,1.248-.644,1.886-.937a1.472,1.472,0,0,1,2.227,1.375c.017.677.02,1.356,0,2.033-.015.435.15.618.588.611.886-.014,1.773-.018,2.659,0,.461.01.671-.147.647-.633-.029-.572-.009-1.147-.006-1.72.006-1.651.974-2.251,2.458-1.556.677.318,1.4,1.051,2.016.851.667-.216.795-1.258,1.151-1.941.638-1.223.619-1.233-.541-1.912a1.475,1.475,0,0,1,0-2.648c.247-.144.5-.27.763-.392C-1.462-250.094-1.312-250.182-1.325-250.439Z" transform="translate(-22.094 -63.33)" fill="#030303"/>
      <path id="Trazado_126698" data-name="Trazado 126698" d="M-12.546-178.368q4.847,0,9.694,0a1.813,1.813,0,0,1,2.086,2.044q.028,3.831,0,7.662a1.822,1.822,0,0,1-2.035,2.03q-9.773.012-19.545,0a1.826,1.826,0,0,1-2.046-2.02q-.03-3.831,0-7.662a1.816,1.816,0,0,1,2.076-2.054Q-17.432-178.373-12.546-178.368Zm6.067,2.378q-7.535-.014-15.071-.035c-.362,0-.5.094-.5.479q.024,3.046,0,6.092c0,.379.13.485.5.484q7.536-.029,15.071-.035c.959.01,1.919.006,2.878.036.379.012.491-.128.489-.494q-.018-3.036,0-6.073c0-.371-.115-.5-.49-.489C-4.56-176-5.52-176-6.479-175.99Z" transform="translate(-19.014 -118.578)" fill="#030303"/>
      <path id="Trazado_126699" data-name="Trazado 126699" d="M-5.772-304.375c1.748,0,3.5-.035,5.243.008a3.44,3.44,0,0,1,3.438,4.457A3.244,3.244,0,0,1,.2-297.421a5.781,5.781,0,0,1-1.089.092c-3.261.007-6.521.014-9.782,0-2.173-.009-3.5-1.019-3.868-2.9a3.355,3.355,0,0,1,2.985-4.076c1.922-.121,3.857-.026,5.787-.026Zm.019,2.367c-1.718,0-3.436.006-5.154,0a1.184,1.184,0,0,0-1.294.784c-.284.81.294,1.54,1.319,1.547,3.384.025,6.768.02,10.153,0,.935,0,1.439-.464,1.433-1.195S.2-302-.754-302.007C-2.42-302.014-4.086-302.009-5.753-302.008Z" transform="translate(-25.737 -32.08)" fill="#050404"/>
      <path id="Trazado_126700" data-name="Trazado 126700" d="M-13.548-113.329c-.285.022-.571.063-.856.063q-12.553.005-25.105,0a4.883,4.883,0,0,1-3.767-1.4,4.662,4.662,0,0,1-1.2-2.41c-.074-.384-.024-.62.437-.574.1.01.208,0,.313,0h31.518c.182,0,.364.015.546.023a5.567,5.567,0,0,1-.075,1.16A7.4,7.4,0,0,1-13.548-113.329Z" transform="translate(-5.217 -160.256)" fill="#4f90b7"/>
      <path id="Trazado_126701" data-name="Trazado 126701" d="M54.209-113.458a7.4,7.4,0,0,0,1.809-3.128,5.567,5.567,0,0,0,.075-1.16,23.951,23.951,0,0,1,3.193-.069c.6-.014.4.427.348.724a4.552,4.552,0,0,1-4.425,3.707A1.911,1.911,0,0,1,54.209-113.458Z" transform="translate(-72.974 -160.127)" fill="#337298"/>
      <path id="Trazado_126702" data-name="Trazado 126702" d="M124.247-343.521c.972,2.156.608,4.444.615,6.683q.046,13.794,0,27.587c-.008,2.239.357,4.527-.615,6.683q-5.4.014-10.794.027c-2.764,0-5.528.009-8.293,0a2.174,2.174,0,0,1-2.376-2.384c-.01-3.39-.024-6.78.009-10.17a2.434,2.434,0,0,0-1.2-2.282c-1.383-.879-2.736-1.806-4.185-2.768,1.281-.852,2.469-1.726,3.737-2.461a3.1,3.1,0,0,0,1.665-3.066c-.071-5.084-.029-10.17-.027-15.255,0-1.823.8-2.619,2.613-2.62q9.075,0,18.15,0C123.779-343.548,124.013-343.53,124.247-343.521Zm-8.8,37.559c2.215,0,4.43.006,6.645,0a1.68,1.68,0,0,0,1.912-1.853q.034-3.987,0-7.975a1.72,1.72,0,0,0-1.96-1.908q-6.528-.013-13.056,0a1.73,1.73,0,0,0-1.981,1.953q-.012,3.909,0,7.819c0,1.362.6,1.96,1.95,1.965C111.125-305.957,113.288-305.962,115.451-305.962Zm-.054-25.292v0c-2.032,0-4.064-.01-6.1.005a1.071,1.071,0,0,0-1.182,1.085,1.1,1.1,0,0,0,1.118,1.233,6.536,6.536,0,0,0,.78.024q4.572,0,9.145,0c.756,0,1.513.026,2.265-.025a1.1,1.1,0,0,0,1.14-1.283c-.058-.671-.482-1.032-1.308-1.038C119.306-331.264,117.352-331.254,115.4-331.254Zm.01-1.475c1.928,0,3.857.007,5.785,0,.9,0,1.362-.4,1.381-1.131.02-.76-.475-1.211-1.389-1.212q-5.823-.011-11.647,0c-.929,0-1.424.427-1.422,1.181s.48,1.159,1.43,1.163C111.5-332.724,113.453-332.729,115.408-332.729ZM112.839-321.3c1.148,0,2.3.01,3.443,0,.855-.01,1.366-.468,1.359-1.177s-.522-1.162-1.38-1.166q-3.4-.016-6.807,0c-.865,0-1.344.452-1.339,1.186s.471,1.147,1.359,1.156C110.6-321.293,111.717-321.3,112.839-321.3Zm.063-17.571c-1.148,0-2.3-.01-3.443,0-.881.01-1.347.429-1.344,1.169s.487,1.169,1.354,1.173q3.4.017,6.807,0c.853,0,1.368-.474,1.364-1.182s-.513-1.151-1.374-1.16C115.145-338.883,114.023-338.874,112.9-338.873Z" transform="translate(-102.625 -5.2)" fill="#eaf4fb"/>
      <path id="Trazado_126703" data-name="Trazado 126703" d="M127.814-149.171q-5.667.013-11.335.026-6.294.007-12.588,0c-1.34,0-1.739-.389-1.74-1.7q0-8.874,0-17.748c0-1.185.425-1.637,1.58-1.637q11.845-.008,23.69,0a3.367,3.367,0,0,1,.386.043,10.559,10.559,0,0,1,.325,1.9c-.006,2.1,0,4.21-.006,6.315,0,.273.1.582-.189.792q-1.809-1.483-3.619-2.966c-.732-.6-1.37-.61-1.858-.045s-.364,1.235.327,1.822c1.072.909,2.146,1.816,3.239,2.7.333.269.338.422,0,.693-1.113.9-2.209,1.822-3.3,2.75a1.174,1.174,0,0,0-.368,1.645,1.191,1.191,0,0,0,1.893.135c1.233-1,2.454-2.008,3.681-3.014.286.209.188.517.189.79.008,1.659-.011,3.318.01,4.976A9.838,9.838,0,0,1,127.814-149.171ZM120.8-165.842a3.8,3.8,0,0,0-.132-.493,1.086,1.086,0,0,0-1.03-.706,1.181,1.181,0,0,0-1.186.84q-1.423,3.418-2.845,6.837c-.838,2.015-1.687,4.026-2.509,6.048a1.15,1.15,0,0,0,.947,1.715c.721.037,1.047-.412,1.3-1.017q2.6-6.265,5.217-12.519C120.662-165.375,120.729-165.625,120.8-165.842Zm-10.414,1.23a1.618,1.618,0,0,0-.918.417c-1.54,1.288-3.089,2.565-4.621,3.861a1.2,1.2,0,0,0,.016,2.046q2.274,1.914,4.567,3.8c.707.585,1.389.58,1.858.01.454-.552.325-1.238-.371-1.826-.955-.808-1.935-1.587-2.882-2.406-.789-.683-.881-.48.019-1.246,1.013-.861,2.045-1.7,3.059-2.56a1.123,1.123,0,0,0,.355-1.34A1.2,1.2,0,0,0,110.388-164.611Z" transform="translate(-105.881 -124.16)" fill="#f1b457"/>
      <path id="Trazado_126704" data-name="Trazado 126704" d="M183.968-149.167a9.839,9.839,0,0,0,.322-2.522c-.021-1.658,0-3.317-.01-4.976,0-.272.1-.581-.19-.79.345-.305.7-.6,1.033-.919a1.187,1.187,0,0,0,0-1.882c-.335-.316-.688-.613-1.033-.919.286-.21.188-.519.189-.792.007-2.1,0-4.21.006-6.315a10.56,10.56,0,0,0-.325-1.9c.806-.015,1.613-.062,2.418-.037a1.253,1.253,0,0,1,1.345,1.392q.013,9.148,0,18.295a1.243,1.243,0,0,1-1.335,1.391C185.583-149.128,184.776-149.158,183.968-149.167Z" transform="translate(-162.035 -124.164)" fill="#ea984c"/>
      <path id="Trazado_126705" data-name="Trazado 126705" d="M3.956-245.291c.013.257-.136.345-.31.427-.258.122-.516.248-.763.392a1.475,1.475,0,0,0,0,2.648c1.161.679,1.18.689.541,1.912-.356.683-.484,1.725-1.151,1.941-.614.2-1.339-.533-2.016-.851-1.483-.7-2.452-.1-2.458,1.556,0,.574-.023,1.148.006,1.72.024.487-.186.644-.647.633-.886-.02-1.773-.016-2.659,0-.438.007-.6-.176-.588-.611.023-.677.02-1.356,0-2.033a1.472,1.472,0,0,0-2.227-1.375c-.638.293-1.268.6-1.886.937-.331.178-.516.115-.675-.217q-.607-1.267-1.249-2.516c-.182-.351-.121-.536.236-.742,2.131-1.23,2.124-2.088-.028-3.379-.323-.194-.389-.372-.231-.686.42-.837.844-1.672,1.246-2.517a.457.457,0,0,1,.737-.245c.6.315,1.2.619,1.817.9a1.478,1.478,0,0,0,2.26-1.4c.013-.652.02-1.3,0-1.955-.015-.422.109-.623.569-.611.938.023,1.877.015,2.816,0,.368,0,.514.144.506.512-.015.7-.018,1.408,0,2.112a1.461,1.461,0,0,0,2.17,1.376c.642-.283,1.267-.607,1.889-.932.338-.177.566-.158.745.219.4.846.828,1.679,1.242,2.519C3.9-245.458,3.929-245.359,3.956-245.291Zm-8.04-1.658a3.735,3.735,0,0,0-3.888,3.818A3.864,3.864,0,0,0-4.2-239.313,3.869,3.869,0,0,0-.306-243.1,3.743,3.743,0,0,0-4.084-246.949Z" transform="translate(-27.375 -68.477)" fill="#adced3"/>
      <path id="Trazado_126706" data-name="Trazado 126706" d="M-1.32-163.874q-7.536.014-15.071.035c-.368,0-.5-.1-.5-.484q.022-3.046,0-6.092c0-.384.137-.48.5-.479q7.535.028,15.071.035Q-1.32-167.366-1.32-163.874Z" transform="translate(-24.173 -123.709)" fill="#ec81b2"/>
      <path id="Trazado_126707" data-name="Trazado 126707" d="M32.757-163.876q0-3.492,0-6.984c.959-.01,1.919-.006,2.878-.035.374-.012.492.118.49.489q-.021,3.036,0,6.073c0,.366-.111.506-.489.494C34.676-163.87,33.716-163.866,32.757-163.876Z" transform="translate(-58.25 -123.707)" fill="#e868a3"/>
      <path id="Trazado_126708" data-name="Trazado 126708" d="M-.632-296.806c1.666,0,3.332-.005,5,0,.953,0,1.452.4,1.459,1.136s-.5,1.19-1.433,1.195c-3.384.017-6.768.021-10.153,0-1.025-.008-1.6-.737-1.319-1.547a1.184,1.184,0,0,1,1.294-.784C-4.068-296.8-2.35-296.806-.632-296.806Z" transform="translate(-30.858 -37.282)" fill="#4f90b7"/>
      <path id="Trazado_126709" data-name="Trazado 126709" d="M136.462-249.4c-2.163,0-4.326.005-6.489,0-1.351,0-1.946-.6-1.95-1.965q-.01-3.909,0-7.819A1.73,1.73,0,0,1,130-261.141q6.528-.011,13.056,0a1.72,1.72,0,0,1,1.96,1.908q.032,3.987,0,7.975a1.68,1.68,0,0,1-1.912,1.853C140.892-249.4,138.677-249.4,136.462-249.4Zm2.69-9.36c-2.762-.01-5.524-.012-8.286-.04-.451,0-.5.2-.5.563q.017,2.972,0,5.943c0,.377.06.557.5.552,2.762-.029,5.524-.03,8.286-.04.989.01,1.979.008,2.968.037.384.011.559-.078.554-.512q-.029-3.009,0-6.019c0-.422-.164-.533-.555-.522C141.13-258.771,140.14-258.772,139.151-258.762Z" transform="translate(-123.635 -61.76)" fill="#050404"/>
      <path id="Trazado_126710" data-name="Trazado 126710" d="M138.833-304.351c1.954,0,3.908-.01,5.862,0,.826.006,1.249.367,1.308,1.038a1.1,1.1,0,0,1-1.14,1.283c-.752.051-1.51.025-2.265.025q-4.572,0-9.145,0a6.536,6.536,0,0,1-.78-.024,1.1,1.1,0,0,1-1.118-1.233,1.071,1.071,0,0,1,1.182-1.085c2.032-.015,4.064-.005,6.1-.005Z" transform="translate(-126.061 -32.103)" fill="#050404"/>
      <path id="Trazado_126711" data-name="Trazado 126711" d="M138.843-314.193c-1.954,0-3.909.005-5.863,0-.95,0-1.428-.4-1.43-1.163s.493-1.18,1.422-1.181q5.824-.009,11.647,0c.914,0,1.409.452,1.389,1.212-.019.734-.48,1.127-1.381,1.131C142.7-314.186,140.772-314.192,138.843-314.193Z" transform="translate(-126.061 -23.736)" fill="#030303"/>
      <path id="Trazado_126712" data-name="Trazado 126712" d="M136.275-277.764c-1.121,0-2.243.009-3.364,0-.888-.01-1.354-.419-1.359-1.156s.474-1.182,1.339-1.186q3.4-.018,6.807,0c.858,0,1.373.459,1.38,1.166s-.5,1.167-1.359,1.177C138.57-277.753,137.422-277.764,136.275-277.764Z" transform="translate(-126.061 -48.738)" fill="#050404"/>
      <path id="Trazado_126713" data-name="Trazado 126713" d="M136.336-328.648c1.121,0,2.243-.009,3.364,0,.861.009,1.371.453,1.374,1.16s-.512,1.178-1.364,1.182q-3.4.018-6.807,0c-.867,0-1.352-.445-1.354-1.173s.464-1.159,1.344-1.169C134.041-328.657,135.189-328.647,136.336-328.648Z" transform="translate(-126.06 -15.426)" fill="#050404"/>
      <path id="Trazado_126714" data-name="Trazado 126714" d="M144.5-158.851c-.073.217-.14.467-.239.7q-2.608,6.259-5.217,12.519c-.251.6-.577,1.054-1.3,1.017a1.15,1.15,0,0,1-.947-1.715c.821-2.022,1.671-4.033,2.509-6.048q1.422-3.419,2.845-6.837a1.181,1.181,0,0,1,1.186-.84,1.086,1.086,0,0,1,1.03.706A3.8,3.8,0,0,1,144.5-158.851Z" transform="translate(-129.58 -131.151)" fill="#030303"/>
      <path id="Trazado_126715" data-name="Trazado 126715" d="M115.053-152.3a1.2,1.2,0,0,1,1.082.76,1.123,1.123,0,0,1-.355,1.34c-1.014.861-2.046,1.7-3.059,2.56-.9.766-.808.564-.019,1.246.946.819,1.927,1.6,2.882,2.406.7.589.825,1.275.371,1.826-.469.57-1.151.575-1.858-.01q-2.29-1.894-4.567-3.8a1.2,1.2,0,0,1-.016-2.046c1.533-1.3,3.082-2.574,4.621-3.861A1.618,1.618,0,0,1,115.053-152.3Z" transform="translate(-110.546 -136.469)" fill="#030303"/>
      <path id="Trazado_126716" data-name="Trazado 126716" d="M171.739-148.846c.345.305.7.6,1.033.919a1.187,1.187,0,0,1,0,1.882c-.334.317-.688.613-1.033.919-1.226,1.005-2.448,2.016-3.681,3.014a1.191,1.191,0,0,1-1.893-.135,1.174,1.174,0,0,1,.368-1.645c1.09-.928,2.186-1.849,3.3-2.75.335-.271.33-.423,0-.693-1.094-.883-2.167-1.79-3.239-2.7-.691-.586-.8-1.269-.327-1.822s1.126-.553,1.858.045Q169.931-150.332,171.739-148.846Z" transform="translate(-149.682 -136.491)" fill="#030303"/>
      <path id="Trazado_126717" data-name="Trazado 126717" d="M5.223-237.293A3.743,3.743,0,0,1,9-233.442a3.869,3.869,0,0,1-3.89,3.784,3.864,3.864,0,0,1-3.777-3.818A3.735,3.735,0,0,1,5.223-237.293Zm-.055,2.331a1.466,1.466,0,0,0-1.48,1.483,1.464,1.464,0,0,0,1.44,1.451,1.47,1.47,0,0,0,1.519-1.45A1.467,1.467,0,0,0,5.168-234.962Z" transform="translate(-36.682 -78.132)" fill="#030303"/>
      <path id="Trazado_126718" data-name="Trazado 126718" d="M144.293-246.653c-2.762.01-5.524.011-8.286.04-.443,0-.506-.175-.5-.552q.021-2.972,0-5.943c0-.368.048-.568.5-.563,2.762.029,5.524.03,8.286.04Q144.291-250.142,144.293-246.653Z" transform="translate(-128.774 -66.891)" fill="#ec81b2"/>
      <path id="Trazado_126719" data-name="Trazado 126719" d="M163.523-246.649q0-3.489,0-6.978c.989-.01,1.979-.008,2.968-.038.392-.012.559.1.555.522q-.024,3.009,0,6.019c0,.434-.17.523-.554.512C165.5-246.641,164.512-246.639,163.523-246.649Z" transform="translate(-148.004 -66.895)" fill="#e868a3"/>
      <path id="Trazado_126720" data-name="Trazado 126720" d="M10.317-229.859a1.467,1.467,0,0,1,1.479,1.484,1.47,1.47,0,0,1-1.519,1.45,1.464,1.464,0,0,1-1.44-1.451A1.466,1.466,0,0,1,10.317-229.859Z" transform="translate(-41.832 -83.235)" fill="#f1b457"/>
    </g>
  </g>
</svg>
