<svg xmlns="http://www.w3.org/2000/svg" width="400" height="284.508" viewBox="0 0 400 284.508">
  <g id="Grupo_83775" data-name="Grupo 83775" transform="translate(-180 -3484.492)">
    <rect id="Rect치ngulo_34127" data-name="Rect치ngulo 34127" width="400" height="152" rx="20" transform="translate(180 3617)" fill="#ab9df1"/>
    <g id="Grupo_83087" data-name="Grupo 83087" transform="translate(-2779.209 2919.493)">
      <g id="Grupo_83004" data-name="Grupo 83004" transform="translate(3044.209 588.101)">
        <g id="Grupo_82995" data-name="Grupo 82995">
          <g id="Grupo_82988" data-name="Grupo 82988">
            <g id="Grupo_82975" data-name="Grupo 82975" transform="translate(0.351 0.352)">
              <g id="Grupo_82974" data-name="Grupo 82974">
                <path id="Trazado_121013" data-name="Trazado 121013" d="M3055.6,621H3216.24c3.665,0,2.278,11.438,2.788,15.078l30.181,215.146c.51,3.64-8.851,12.481-12.516,12.481H3076.056a7.625,7.625,0,0,1-7.377-6.664l-23.616-220.963C3044.671,632.418,3051.938,621,3055.6,621Z" transform="translate(-3045.048 -621.004)" fill="#583ae2" fill-rule="evenodd"/>
              </g>
            </g>
            <g id="Grupo_82977" data-name="Grupo 82977" transform="translate(0 0.002)">
              <g id="Grupo_82976" data-name="Grupo 82976">
                <path id="Trazado_121014" data-name="Trazado 121014" d="M3055.147,620.167h160.635c2.989,0,2.98,6.234,2.976,11.073a36.851,36.851,0,0,0,.132,4.28l30.18,215.145a2.761,2.761,0,0,1,.013.6c-.166,1.928-2.227,4.771-4.731,7.232s-5.451,4.542-7.432,4.983a3.465,3.465,0,0,1-.745.088H3075.538a7.936,7.936,0,0,1-7.695-6.947l-23.616-220.963a3.736,3.736,0,0,1,0-.706c.181-2.085,1.86-5.586,3.943-8.642h0c2.1-3.084,4.646-5.743,6.532-6.1a2.37,2.37,0,0,1,.446-.044Zm160.574.7H3055.086a1.73,1.73,0,0,0-.313.031c-1.672.318-4.033,2.835-6.034,5.769v0c-2.017,2.962-3.641,6.322-3.811,8.285a2.859,2.859,0,0,0,0,.575l23.615,220.963a7.158,7.158,0,0,0,2.358,4.5,7.069,7.069,0,0,0,4.7,1.874h160.636a2.765,2.765,0,0,0,.589-.071c1.842-.41,4.655-2.419,7.056-4.777s4.35-5.014,4.5-6.754a2.016,2.016,0,0,0-.009-.45l-30.179-215.146a36.622,36.622,0,0,1-.14-4.376C3218.058,626.738,3218.064,620.868,3215.721,620.868Z" transform="translate(-3044.209 -620.167)" fill="#40327b" fill-rule="evenodd"/>
              </g>
            </g>
            <g id="Grupo_82979" data-name="Grupo 82979" transform="translate(7.146 0.352)">
              <g id="Grupo_82978" data-name="Grupo 82978">
                <path id="Trazado_121015" data-name="Trazado 121015" d="M3067.263,621H3227.9a7.622,7.622,0,0,1,7.375,6.663l23.615,220.963a5.892,5.892,0,0,1-5.952,6.663H3092.3a7.623,7.623,0,0,1-7.377-6.663l-23.616-220.963A5.891,5.891,0,0,1,3067.263,621Z" transform="translate(-3061.273 -621.004)" fill="#fff" fill-rule="evenodd"/>
              </g>
            </g>
            <g id="Grupo_82981" data-name="Grupo 82981" transform="translate(6.794)">
              <g id="Grupo_82980" data-name="Grupo 82980">
                <path id="Trazado_121016" data-name="Trazado 121016" d="M3066.806,620.163h160.635a7.94,7.94,0,0,1,7.7,6.949l23.616,220.963a6.924,6.924,0,0,1,.014,1.327,6.222,6.222,0,0,1-5.074,5.635,6.88,6.88,0,0,1-1.272.119H3091.785a7.938,7.938,0,0,1-7.695-6.948l-23.615-220.963a6.865,6.865,0,0,1-.016-1.326,6.217,6.217,0,0,1,5.076-5.635,6.747,6.747,0,0,1,1.272-.12Zm160.574.7H3066.746a6.113,6.113,0,0,0-1.14.106,5.468,5.468,0,0,0-3.062,1.706,5.531,5.531,0,0,0-1.382,3.24,6.022,6.022,0,0,0,.013,1.194l23.615,220.963a7.144,7.144,0,0,0,2.359,4.5,7.061,7.061,0,0,0,4.7,1.877h160.637a6.1,6.1,0,0,0,1.139-.106,5.456,5.456,0,0,0,3.063-1.708,5.525,5.525,0,0,0,1.383-3.238,6.2,6.2,0,0,0-.013-1.195l-23.616-220.963a7.156,7.156,0,0,0-2.359-4.5A7.065,7.065,0,0,0,3227.381,620.866Z" transform="translate(-3060.434 -620.163)" fill="#40327b" fill-rule="evenodd"/>
              </g>
            </g>
            <g id="Grupo_82983" data-name="Grupo 82983" transform="translate(16.703 9.442)">
              <g id="Grupo_82982" data-name="Grupo 82982">
                <path id="Trazado_121017" data-name="Trazado 121017" d="M3084.1,642.71l23.1,216.109h155.445l-23.1-216.109Z" transform="translate(-3084.096 -642.71)" fill="#f3f1ff" fill-rule="evenodd"/>
              </g>
            </g>
            <g id="Grupo_82985" data-name="Grupo 82985" transform="translate(16.309 9.092)">
              <g id="Grupo_82984" data-name="Grupo 82984">
                <path id="Trazado_121018" data-name="Trazado 121018" d="M3083.153,641.874h155.712l1.277,14.438H3084.43Z" transform="translate(-3083.153 -641.874)" fill="#583ae2" fill-rule="evenodd"/>
              </g>
            </g>
            <g id="Grupo_82987" data-name="Grupo 82987" transform="translate(16.309 9.092)">
              <g id="Grupo_82986" data-name="Grupo 82986">
                <path id="Trazado_121019" data-name="Trazado 121019" d="M3083.941,642.574l4.764,44.575c-.228.113-.453.234-.675.357l-4.877-45.633h28.07q-.24.346-.469.7Zm10.089,94.4,12.934,121h41.065c0,.234,0,.467.012.7h-41.717l-13-121.618c.237-.023.472-.052.7-.087Zm88.244,121H3261.7l-10.083-94.35c.226-.128.449-.265.67-.4l10.2,95.456h-80.46c.089-.23.173-.466.251-.7Zm63.763-146.514-1.85-17.3c.221-.207.436-.42.645-.64l1.936,18.1c-.242-.061-.486-.115-.731-.161Zm-4.426-41.419-2.937-27.475h-40.242l-.191-.7h41.072l3.054,28.574C3242.119,670.305,3241.868,670.174,3241.612,670.049Z" transform="translate(-3083.153 -641.873)" fill="#40327b" fill-rule="evenodd"/>
              </g>
            </g>
          </g>
          <g id="Grupo_82990" data-name="Grupo 82990" transform="translate(25.564 12.561)">
            <g id="Grupo_82989" data-name="Grupo 82989">
              <path id="Trazado_121020" data-name="Trazado 121020" d="M3109.2,650.157a4.8,4.8,0,0,1,4.691,4.311,3.883,3.883,0,0,1-3.93,4.312,4.805,4.805,0,0,1-4.691-4.312A3.883,3.883,0,0,1,3109.2,650.157Z" transform="translate(-3105.255 -650.157)" fill="#fff" fill-rule="evenodd"/>
            </g>
          </g>
          <g id="Grupo_82992" data-name="Grupo 82992" transform="translate(36.93 12.561)">
            <g id="Grupo_82991" data-name="Grupo 82991">
              <path id="Trazado_121021" data-name="Trazado 121021" d="M3136.343,650.157a4.8,4.8,0,0,1,4.691,4.311,3.883,3.883,0,0,1-3.929,4.312,4.806,4.806,0,0,1-4.692-4.312A3.883,3.883,0,0,1,3136.343,650.157Z" transform="translate(-3132.396 -650.157)" fill="#fff" fill-rule="evenodd"/>
            </g>
          </g>
          <g id="Grupo_82994" data-name="Grupo 82994" transform="translate(48.296 12.561)">
            <g id="Grupo_82993" data-name="Grupo 82993">
              <path id="Trazado_121022" data-name="Trazado 121022" d="M3163.483,650.157a4.806,4.806,0,0,1,4.693,4.311,3.884,3.884,0,0,1-3.931,4.312,4.806,4.806,0,0,1-4.691-4.312A3.883,3.883,0,0,1,3163.483,650.157Z" transform="translate(-3159.537 -650.157)" fill="#fff" fill-rule="evenodd"/>
            </g>
          </g>
        </g>
        <g id="Grupo_82997" data-name="Grupo 82997" transform="translate(26.357 39.762)">
          <g id="Grupo_82996" data-name="Grupo 82996">
            <path id="Trazado_121023" data-name="Trazado 121023" d="M3107.146,715.111h137.546l3.091,27.463H3110.237Z" transform="translate(-3107.146 -715.111)" fill="#d5cef8" fill-rule="evenodd"/>
          </g>
        </g>
        <g id="Grupo_82999" data-name="Grupo 82999" transform="translate(29.991 72.073)">
          <g id="Grupo_82998" data-name="Grupo 82998">
            <path id="Trazado_121024" data-name="Trazado 121024" d="M3115.826,792.267h137.547l6.963,61.908H3122.79Z" transform="translate(-3115.826 -792.267)" fill="#d5cef8" fill-rule="evenodd"/>
          </g>
        </g>
        <g id="Grupo_83001" data-name="Grupo 83001" transform="translate(37.502 138.828)">
          <g id="Grupo_83000" data-name="Grupo 83000">
            <path id="Trazado_121025" data-name="Trazado 121025" d="M3133.761,951.674h137.548l2.618,23.275H3136.381Z" transform="translate(-3133.761 -951.674)" fill="#d5cef8" fill-rule="evenodd"/>
          </g>
        </g>
        <g id="Grupo_83003" data-name="Grupo 83003" transform="translate(40.666 166.951)">
          <g id="Grupo_83002" data-name="Grupo 83002">
            <path id="Trazado_121026" data-name="Trazado 121026" d="M3141.317,1018.828h137.546l2.618,23.275H3143.936Z" transform="translate(-3141.317 -1018.828)" fill="#d5cef8" fill-rule="evenodd"/>
          </g>
        </g>
      </g>
      <g id="Grupo_83081" data-name="Grupo 83081" transform="translate(3128.62 663.311)">
        <g id="Grupo_83007" data-name="Grupo 83007" transform="translate(0)">
          <g id="Grupo_83005" data-name="Grupo 83005" transform="translate(0.138 0.143)">
            <path id="Trazado_121027" data-name="Trazado 121027" d="M3277.056,806.794c13.677,12.207,31.15,13.643,47.6,11.353l10.675-1.487,3.5.531-2.745,5.209.676,5.158c6.049,46.125,10.207,98.377-31.422,125.652-6.04,3.959-16.236,3.75-17.39,11.349l-.432,2.852-3.327-1.181-4.051-1.671c-7.458-3.072-12.653-7.39-19.391-11.349-46.433-27.275-51.478-79.527-53.554-125.652l-.491-10.9,10.938,1.487c16.85,2.291,34.07.854,45.6-11.353l6.321-6.692,3.1.569.948,3.048,3.448,3.075Zm-6.281,7.133q-17.866,18.92-53.624,14.058c2.132,47.4,7.494,92.942,48.082,116.783,5.833,3.428,11.022,7.784,18,10.66,6.475-2.876,10.895-7.232,16.127-10.66,36.386-23.841,33.727-69.384,27.51-116.783Q3291.973,832.847,3270.774,813.928Z" transform="translate(-3206.699 -800.102)" fill="#40327b" fill-rule="evenodd"/>
          </g>
          <g id="Grupo_83006" data-name="Grupo 83006">
            <path id="Trazado_121028" data-name="Trazado 121028" d="M3287.428,967.39l-3.477-1.236-4.057-1.672a75.55,75.55,0,0,1-13.031-7.329c-2.029-1.331-4.127-2.707-6.378-4.029-20.924-12.291-35.143-30.553-43.47-55.829-7.482-22.72-9.162-48.01-10.15-69.93l-.5-11.057,11.094,1.509a93.8,93.8,0,0,0,12.535.907c14.206,0,25.292-4.111,32.951-12.22l6.37-6.745.07.013,3.182.584.023.076.938,3.013,3.419,3.051c9.092,8.115,20.906,12.228,35.118,12.228h0a90.3,90.3,0,0,0,12.373-.907l10.694-1.491.018,0,3.681.56-2.811,5.335.67,5.118c2.875,21.921,5.651,47.209,2.169,69.932-3.875,25.282-14.881,43.551-33.649,55.847a31.9,31.9,0,0,1-7.09,3.07c-4.881,1.669-9.492,3.243-10.242,8.188Zm-80.783-150.778.484,10.74c2.2,48.921,8.147,98.91,53.491,125.545,2.255,1.325,4.356,2.7,6.388,4.035a75.3,75.3,0,0,0,12.985,7.306l4.051,1.671,3.169,1.125.409-2.694c.775-5.1,5.459-6.7,10.417-8.4a31.606,31.606,0,0,0,7.032-3.041c40.64-26.627,37.778-76.611,31.364-125.526l-.682-5.2.019-.036,2.66-5.045-3.3-.5-10.656,1.484a90.567,90.567,0,0,1-12.409.91h0c-14.277,0-26.152-4.137-35.293-12.294l-3.475-3.1-.01-.035-.925-2.972-2.955-.543-6.271,6.641c-7.71,8.164-18.86,12.3-33.142,12.3a94.085,94.085,0,0,1-12.571-.91Zm76.4,138.761-.051-.022a69.952,69.952,0,0,1-12.261-6.986c-1.868-1.244-3.8-2.531-5.761-3.683-18.5-10.869-31.1-27.1-38.519-49.629-6.345-19.273-8.437-40.826-9.626-67.261l-.007-.158.156.022a103.609,103.609,0,0,0,13.852.992c16.91,0,30.254-5.052,39.658-15.011l.087-.092.1.084c11.165,9.966,25.4,15.019,42.316,15.019a99.768,99.768,0,0,0,13.677-.992l.132-.018.017.131c3.467,26.433,5.171,47.988,2.221,67.263-3.45,22.533-13.194,38.773-29.789,49.647-1.759,1.152-3.466,2.441-5.116,3.684a55.489,55.489,0,0,1-11.03,6.986ZM3217.1,827.939c2.159,47.828,7.486,92.714,48.011,116.517,1.966,1.157,3.9,2.445,5.772,3.691a70.085,70.085,0,0,0,12.163,6.939,55.444,55.444,0,0,0,10.927-6.933c1.654-1.247,3.364-2.536,5.129-3.694,36.326-23.8,33.737-68.691,27.47-116.524a99.814,99.814,0,0,1-13.583.977c-16.931,0-31.2-5.047-42.395-15-9.453,9.952-22.829,15-39.762,15A103.539,103.539,0,0,1,3217.1,827.939Z" transform="translate(-3206.369 -799.76)" fill="#40327b"/>
          </g>
        </g>
        <g id="Grupo_83010" data-name="Grupo 83010" transform="translate(13.507 14.422)">
          <g id="Grupo_83008" data-name="Grupo 83008" transform="translate(0.321 0.425)">
            <path id="Trazado_121029" data-name="Trazado 121029" d="M3293.013,835.212q-17.866,18.92-53.624,14.058c2.132,47.4,7.494,92.942,48.082,116.782,5.834,3.428,11.022,7.783,18,10.66,6.475-2.877,10.9-7.232,16.127-10.66,36.387-23.841,33.727-69.383,27.51-116.782Q3314.212,854.131,3293.013,835.212Z" transform="translate(-3239.389 -835.212)" fill="#8bbae9" fill-rule="evenodd"/>
          </g>
          <g id="Grupo_83009" data-name="Grupo 83009">
            <path id="Trazado_121030" data-name="Trazado 121030" d="M3305.035,976.454l-.12-.05a70.1,70.1,0,0,1-12.291-7c-1.866-1.242-3.794-2.528-5.753-3.678-40.755-23.94-46.071-69.018-48.231-117.031l-.017-.364.362.05a103.554,103.554,0,0,0,13.829.99c16.86,0,30.161-5.032,39.533-14.957l.2-.216.22.2c11.133,9.936,25.333,14.974,42.2,14.974a99.723,99.723,0,0,0,13.655-.99l.3-.043.04.3c3.469,26.447,5.176,48.016,2.221,67.31-3.459,22.586-13.227,38.865-29.867,49.767-1.752,1.148-3.379,2.374-5.1,3.674a55.714,55.714,0,0,1-11.07,7.009Zm-65.77-127.423c2.162,47.7,7.525,92.445,47.916,116.17,1.971,1.159,3.908,2.449,5.781,3.7a70.309,70.309,0,0,0,12.064,6.895,55.669,55.669,0,0,0,10.831-6.885c1.654-1.249,3.364-2.539,5.134-3.7,36.2-23.716,33.658-68.473,27.415-116.183a100.151,100.151,0,0,1-13.434.954c-16.912,0-31.17-5.024-42.385-14.934-9.478,9.908-22.859,14.932-39.772,14.934A103.622,103.622,0,0,1,3239.265,849.031Z" transform="translate(-3238.623 -834.198)" fill="#373435"/>
          </g>
        </g>
        <g id="Grupo_83035" data-name="Grupo 83035" transform="translate(13.828 14.846)">
          <g id="Grupo_83012" data-name="Grupo 83012">
            <g id="Grupo_83011" data-name="Grupo 83011">
              <path id="Trazado_121031" data-name="Trazado 121031" d="M3245.8,905.049h53.367l-6.149-69.837q-17.866,18.92-53.624,14.058C3240.261,868.624,3241.67,887.668,3245.8,905.049Z" transform="translate(-3239.389 -835.212)" fill="#f3f1ff" fill-rule="evenodd"/>
            </g>
          </g>
          <g id="Grupo_83014" data-name="Grupo 83014" transform="translate(53.625)">
            <g id="Grupo_83013" data-name="Grupo 83013">
              <path id="Trazado_121032" data-name="Trazado 121032" d="M3367.44,835.212l6.149,69.837h53.371c1.063-17.382-.882-36.426-3.421-55.78Q3388.639,854.131,3367.44,835.212Z" transform="translate(-3367.44 -835.212)" fill="#f3f1ff" fill-rule="evenodd"/>
            </g>
          </g>
          <g id="Grupo_83016" data-name="Grupo 83016" transform="translate(59.773 69.837)">
            <g id="Grupo_83015" data-name="Grupo 83015">
              <path id="Trazado_121033" data-name="Trazado 121033" d="M3435.494,1001.978h-53.371l6.313,71.663c6.475-2.877,10.9-7.232,16.126-10.66C3426.093,1048.874,3433.952,1027.17,3435.494,1001.978Z" transform="translate(-3382.123 -1001.978)" fill="#d5cef8" fill-rule="evenodd"/>
            </g>
          </g>
          <g id="Grupo_83018" data-name="Grupo 83018" transform="translate(6.406 69.837)">
            <g id="Grupo_83017" data-name="Grupo 83017">
              <path id="Trazado_121034" data-name="Trazado 121034" d="M3314.366,1073.641l-6.312-71.663h-53.367c5.979,25.192,17.66,46.9,41.676,61C3302.2,1066.409,3307.385,1070.764,3314.366,1073.641Z" transform="translate(-3254.687 -1001.978)" fill="#d5cef8" fill-rule="evenodd"/>
            </g>
          </g>
          <g id="Grupo_83020" data-name="Grupo 83020" transform="translate(1.677 14.274)" opacity="0.17">
            <g id="Grupo_83019" data-name="Grupo 83019">
              <path id="Trazado_121035" data-name="Trazado 121035" d="M3252.1,920.554c-3.785-15.944-5.282-33.283-6.177-50.978q-1.251-.123-2.525-.28c.879,18.771,2.323,37.211,6.327,54.086h3.076Q3252.434,921.975,3252.1,920.554Z" transform="translate(-3243.394 -869.296)" fill="#d2e5f7" fill-rule="evenodd"/>
            </g>
          </g>
          <g id="Grupo_83022" data-name="Grupo 83022" transform="translate(10.38 65.531)" opacity="0.17">
            <g id="Grupo_83021" data-name="Grupo 83021">
              <path id="Trazado_121036" data-name="Trazado 121036" d="M3313.191,991.7h-49.015q.336,1.422.7,2.829h48.565Z" transform="translate(-3264.176 -991.695)" fill="#d2e5f7" fill-rule="evenodd"/>
            </g>
          </g>
          <g id="Grupo_83024" data-name="Grupo 83024" transform="translate(55.493 1.601)" opacity="0.17">
            <g id="Grupo_83023" data-name="Grupo 83023">
              <path id="Trazado_121037" data-name="Trazado 121037" d="M3371.9,839.035l5.631,63.93h2.625l-5.44-61.76Q3373.284,840.168,3371.9,839.035Z" transform="translate(-3371.902 -839.035)" fill="#d2e5f7" fill-rule="evenodd"/>
            </g>
          </g>
          <g id="Grupo_83026" data-name="Grupo 83026" transform="translate(61.125 65.531)" opacity="0.17">
            <g id="Grupo_83025" data-name="Grupo 83025">
              <path id="Trazado_121038" data-name="Trazado 121038" d="M3387.974,991.7h-2.625l.25,2.829h2.623Z" transform="translate(-3385.35 -991.695)" fill="#d2e5f7" fill-rule="evenodd"/>
            </g>
          </g>
          <g id="Grupo_83028" data-name="Grupo 83028" transform="translate(63.749 65.531)" opacity="0.17">
            <g id="Grupo_83027" data-name="Grupo 83027">
              <path id="Trazado_121039" data-name="Trazado 121039" d="M3391.617,991.7l.249,2.829h49.229q.072-1.407.12-2.829Z" transform="translate(-3391.617 -991.695)" fill="#d2e5f7" fill-rule="evenodd"/>
            </g>
          </g>
          <g id="Grupo_83030" data-name="Grupo 83030" transform="translate(8.363 69.837)" opacity="0.17">
            <g id="Grupo_83029" data-name="Grupo 83029">
              <path id="Trazado_121040" data-name="Trazado 121040" d="M3303.052,1058.675c-22.635-13.3-34.315-33.342-40.588-56.7h-3.105c6.084,24.562,17.774,45.695,41.319,59.525,5.322,3.127,10.107,7.025,16.206,9.87l-.372-4.221C3311.663,1064.51,3307.549,1061.316,3303.052,1058.675Z" transform="translate(-3259.358 -1001.978)" fill="#d2e5f7" fill-rule="evenodd"/>
            </g>
          </g>
          <g id="Grupo_83032" data-name="Grupo 83032" transform="translate(61.505 69.837)" opacity="0.17">
            <g id="Grupo_83031" data-name="Grupo 83031">
              <path id="Trazado_121041" data-name="Trazado 121041" d="M3386.258,1001.978l5.822,66.117q1.323.654,2.733,1.239l-5.932-67.356Z" transform="translate(-3386.258 -1001.978)" fill="#d2e5f7" fill-rule="evenodd"/>
            </g>
          </g>
          <g id="Grupo_83034" data-name="Grupo 83034" transform="translate(67.327 118.336)" opacity="0.17">
            <g id="Grupo_83033" data-name="Grupo 83033">
              <path id="Trazado_121042" data-name="Trazado 121042" d="M3402.894,1136.646q-1.412-.582-2.734-1.239l.359,4.068c6.475-2.876,10.9-7.232,16.126-10.66a67.055,67.055,0,0,0,7.93-6.064,61.142,61.142,0,0,0,4.649-4.964,65.892,65.892,0,0,1-10.2,8.2C3413.788,1129.412,3409.368,1133.768,3402.894,1136.646Z" transform="translate(-3400.16 -1117.788)" fill="#d2e5f7" fill-rule="evenodd"/>
            </g>
          </g>
        </g>
        <g id="Grupo_83037" data-name="Grupo 83037" transform="translate(3.379 1.02)">
          <g id="Grupo_83036" data-name="Grupo 83036">
            <path id="Trazado_121043" data-name="Trazado 121043" d="M3284.792,808.889c13.678,12.208,31.15,13.643,47.6,11.353l10.675-1.488,1.429,10.9c6.049,46.125,10.208,98.377-31.422,125.653-6.041,3.958-10.476,8.276-17.39,11.35l-3.758,1.669-4.051-1.669c-7.458-3.074-12.653-7.392-19.392-11.35-46.433-27.277-51.478-79.528-53.553-125.653l-.49-10.9,10.937,1.488c16.85,2.291,34.069.856,45.6-11.353l6.32-6.693,7.5,6.693Zm-6.281,7.133q-17.866,18.92-53.624,14.058c2.132,47.4,7.494,92.941,48.082,116.782,5.834,3.428,11.022,7.783,18,10.66,6.476-2.877,10.9-7.232,16.127-10.66,36.387-23.841,33.727-69.383,27.51-116.782Q3299.71,834.941,3278.511,816.022Z" transform="translate(-3214.438 -802.196)" fill="#583ae2" fill-rule="evenodd"/>
          </g>
        </g>
        <g id="Grupo_83039" data-name="Grupo 83039" transform="translate(3.379 1.02)" opacity="0.1">
          <g id="Grupo_83038" data-name="Grupo 83038">
            <path id="Trazado_121044" data-name="Trazado 121044" d="M3284.792,808.889c13.678,12.208,31.15,13.643,47.6,11.353l10.675-1.488,1.429,10.9c5.839,44.517,9.91,94.736-27.237,122.708,34.571-28.3,30.555-77.291,24.844-120.827l-1.428-10.9L3330,822.122c-16.446,2.291-33.918.856-47.6-11.353l-7.166-6.395,2.059-2.179,7.5,6.693Zm-70.255,12.085-.1-2.22,10.937,1.488c14.5,1.971,29.283,1.181,40.469-6.862-11.418,9.794-27.3,10.859-42.861,8.743l-8.446-1.149Zm61.844-2.84-.262-.23a45.275,45.275,0,0,1-3.726,3.521,44.63,44.63,0,0,0,3.988-3.291Zm-51.392,14.139q-1.236-.141-2.494-.312c2.133,47.4,7.5,92.942,48.082,116.783,5.835,3.428,11.023,7.784,18,10.66,6.476-2.876,10.9-7.232,16.128-10.66a68.213,68.213,0,0,0,5.977-4.4c-1.152.862-2.343,1.7-3.585,2.516-5.23,3.428-9.651,7.783-16.127,10.66-6.982-2.877-12.17-7.232-18-10.66C3233.008,923.389,3227.194,878.88,3224.989,832.272Z" transform="translate(-3214.438 -802.196)" fill="#e6e6e6" fill-rule="evenodd"/>
          </g>
        </g>
        <g id="Grupo_83041" data-name="Grupo 83041" transform="translate(13.828 14.846)" opacity="0.29">
          <g id="Grupo_83040" data-name="Grupo 83040">
            <path id="Trazado_121045" data-name="Trazado 121045" d="M3293.013,835.212q-1.035,1.1-2.131,2.111,21.151,18.658,55.837,13.827c5.853,44.631,8.549,87.614-21.532,112.386,32.612-24.439,29.93-68.484,23.925-114.267q-34.9,4.861-56.1-14.058Zm-6.118,5.4q-17.422,12.744-47.506,8.656l.1,2.192Q3269.894,854.945,3286.9,840.614Z" transform="translate(-3239.389 -835.212)" fill="#e6e6e6" fill-rule="evenodd"/>
          </g>
        </g>
        <g id="Grupo_83043" data-name="Grupo 83043" transform="translate(3.058 0.599)">
          <g id="Grupo_83042" data-name="Grupo 83042">
            <path id="Trazado_121046" data-name="Trazado 121046" d="M3284.539,808.087a46.842,46.842,0,0,0,22.6,11.032,75.208,75.208,0,0,0,24.736.239l10.677-1.487.325-.047.043.332,1.43,10.9c3.026,23.084,5.58,47.7,2.167,69.979-3.419,22.309-12.819,42.258-33.709,55.944-2,1.312-3.846,2.679-5.662,4.025a60.217,60.217,0,0,1-11.768,7.346l-3.756,1.67-.115.051-.124-.051-4.053-1.67A75.9,75.9,0,0,1,3274.271,959c-2.054-1.346-4.139-2.713-6.372-4.025-23.3-13.686-36.214-33.635-43.563-55.944-7.338-22.276-9.12-46.9-10.158-69.979l-.492-10.9-.014-.332.334.047,10.938,1.487c8.394,1.139,16.877,1.353,24.7-.239a38.063,38.063,0,0,0,20.658-11.032l6.32-6.693.193-.2.23.2,7.5,6.693Zm22.536,11.629a47.5,47.5,0,0,1-22.92-11.2l-7.269-6.488-6.128,6.488a38.6,38.6,0,0,1-20.948,11.2c-7.887,1.606-16.439,1.39-24.894.242l-10.6-1.441.476,10.564c1.037,23.041,2.814,47.611,10.127,69.81,7.3,22.168,20.127,41.983,43.259,55.572,2.276,1.337,4.354,2.7,6.4,4.04a75.494,75.494,0,0,0,12.947,7.288l3.929,1.618,3.642-1.618a59.944,59.944,0,0,0,11.665-7.288c1.81-1.341,3.648-2.7,5.688-4.04,20.739-13.589,30.075-33.4,33.471-55.572,3.4-22.2.852-46.769-2.168-69.81l-1.385-10.564-10.351,1.441a75.752,75.752,0,0,1-24.937-.242Zm-28.974-3.857a46.379,46.379,0,0,1-22.274,12.847q-13.338,3.494-31.067,1.135c1.068,23.563,2.954,46.65,9.591,66.809,6.655,20.217,18.1,37.5,38.309,49.37,1.967,1.155,3.867,2.422,5.787,3.7l0,0a70.032,70.032,0,0,0,12.048,6.888,55.443,55.443,0,0,0,10.838-6.888v0c1.695-1.279,3.374-2.546,5.137-3.7,18.12-11.871,26.517-29.153,29.612-49.37,3.086-20.159.9-43.246-2.178-66.809q-17.31,2.36-31.266-1.135a57.7,57.7,0,0,1-24.539-12.847Zm-22.477,12.259q-13.347,3.5-31.168,1.077l-.334-.045.015.333c1.068,23.722,2.944,46.982,9.636,67.31,6.7,20.364,18.238,37.774,38.614,49.744,1.965,1.153,3.85,2.41,5.756,3.679h0a70.187,70.187,0,0,0,12.29,7l.124.051.115-.051a55.657,55.657,0,0,0,11.056-7h0c1.68-1.269,3.346-2.526,5.108-3.679,18.267-11.97,26.732-29.38,29.85-49.744,3.112-20.328.89-43.588-2.22-67.31l-.044-.333-.324.045q-17.394,2.423-31.36-1.077a57.009,57.009,0,0,1-24.481-12.9l-.229-.2-.193.2A45.817,45.817,0,0,1,3255.625,828.118Z" transform="translate(-3213.671 -801.19)" fill="#40327b" fill-rule="evenodd"/>
          </g>
        </g>
        <g id="Grupo_83045" data-name="Grupo 83045" transform="translate(8.776 23.023)" opacity="0.33">
          <g id="Grupo_83044" data-name="Grupo 83044">
            <path id="Trazado_121047" data-name="Trazado 121047" d="M3238.416,931.241a.864.864,0,0,1-.813-.571,138.2,138.2,0,0,1-5.182-19.117.863.863,0,0,1,1.692-.342,136.037,136.037,0,0,0,5.116,18.876.866.866,0,0,1-.522,1.1A.9.9,0,0,1,3238.416,931.241Zm-6.969-29.472a.864.864,0,0,1-.853-.736q-.294-1.992-.563-4.046a361.57,361.57,0,0,1-2.688-41.085l-.016-1.165,1.119.325c13.263,3.847,26.146,1.66,31.067.542a.862.862,0,1,1,.381,1.681c-6.1,1.386-18.06,3.148-30.809-.253a356.066,356.066,0,0,0,2.658,39.732q.264,2.039.56,4.017a.865.865,0,0,1-.727.98A1.1,1.1,0,0,1,3231.447,901.769Z" transform="translate(-3227.326 -854.737)" fill="#fff"/>
          </g>
        </g>
        <g id="Grupo_83047" data-name="Grupo 83047" transform="translate(45.218 10.075)" opacity="0.33">
          <g id="Grupo_83046" data-name="Grupo 83046">
            <path id="Trazado_121048" data-name="Trazado 121048" d="M3315.209,837.87a.863.863,0,0,1-.276-1.68c8.491-2.87,15.086-7.135,18.572-12.009a.862.862,0,1,1,1.4,1c-3.692,5.165-10.589,9.654-19.421,12.641A.9.9,0,0,1,3315.209,837.87Z" transform="translate(-3314.347 -823.818)" fill="#fff"/>
          </g>
        </g>
        <g id="Grupo_83049" data-name="Grupo 83049" transform="translate(80.438 120.99)" opacity="0.33">
          <g id="Grupo_83048" data-name="Grupo 83048">
            <path id="Trazado_121049" data-name="Trazado 121049" d="M3399.313,1131.293a.862.862,0,0,1-.414-1.619c23.812-12.967,38.732-26.581,44.348-40.461a.863.863,0,1,1,1.6.648c-5.769,14.26-20.951,28.164-45.121,41.327A.85.85,0,0,1,3399.313,1131.293Z" transform="translate(-3398.449 -1088.675)" fill="#fff"/>
          </g>
        </g>
        <g id="Grupo_83054" data-name="Grupo 83054" transform="translate(54.821 52)">
          <g id="Grupo_83051" data-name="Grupo 83051">
            <g id="Grupo_83050" data-name="Grupo 83050">
              <path id="Trazado_121050" data-name="Trazado 121050" d="M3345.137,944.867h18.536q-.32-3.638-.642-7.28a10.367,10.367,0,0,0-10.084-9.268,8.38,8.38,0,0,0-8.452,9.268l.642,7.28Zm22.923,0,.007.068a5.214,5.214,0,0,1,4.265,4.578l1.894,21.5a4.2,4.2,0,0,1-4.235,4.646h-25.749a5.191,5.191,0,0,1-5.053-4.646l-1.895-21.5a4.19,4.19,0,0,1,3.461-4.578l-.648-7.347a12.334,12.334,0,0,1,12.454-13.655,15.253,15.253,0,0,1,14.86,13.655Q3367.739,941.227,3368.06,944.867Z" transform="translate(-3337.277 -923.932)" fill="#2ff980" fill-rule="evenodd"/>
            </g>
          </g>
          <g id="Grupo_83053" data-name="Grupo 83053" transform="translate(13.176 27.55)">
            <g id="Grupo_83052" data-name="Grupo 83052">
              <path id="Trazado_121051" data-name="Trazado 121051" d="M3373.275,989.719a5.519,5.519,0,0,1,5.388,4.953,4.456,4.456,0,0,1-3.065,4.729l.527,5.981a1.331,1.331,0,0,1-1.341,1.473h0a1.644,1.644,0,0,1-1.6-1.473l-.527-5.981a5.545,5.545,0,0,1-3.9-4.729A4.462,4.462,0,0,1,3373.275,989.719Z" transform="translate(-3368.74 -989.719)" fill="#583ae2" fill-rule="evenodd"/>
            </g>
          </g>
        </g>
        <g id="Grupo_83056" data-name="Grupo 83056" transform="translate(25.006 25.418)" opacity="0.31">
          <g id="Grupo_83055" data-name="Grupo 83055">
            <path id="Trazado_121052" data-name="Trazado 121052" d="M3347.034,865.175l-70.63,90.02a119.55,119.55,0,0,1-10.323-20.2l58.487-74.541a71.622,71.622,0,0,0,22.465,4.72Zm17.606-1.131a35.355,35.355,0,0,1-6.811.935q-1.785.148-3.546.222l-74.464,94.906q2.338,3.128,4.841,5.875l79.98-101.938Zm1.244,12.312-.455-4.514L3288.5,969.885q1.161,1.089,2.35,2.1Z" transform="translate(-3266.082 -860.455)" fill="#fff" fill-rule="evenodd"/>
          </g>
        </g>
        <g id="Grupo_83088" data-name="Grupo 83088" transform="translate(24.548 28.525)">
          <g id="Grupo_83058" data-name="Grupo 83058" transform="translate(37.342)">
            <g id="Grupo_83057" data-name="Grupo 83057">
              <path id="Trazado_121053" data-name="Trazado 121053" d="M3364.434,876.371l2.169,5.253-4.754-3.245-4.181,3.245h0l1.244-5.253-4.751-3.243,0,0h5.522l1.236-5.223.006-.024,0-.005,0,.007,2.166,5.246h5.522Z" transform="translate(-3354.157 -867.874)" fill="#583ae2" fill-rule="evenodd"/>
            </g>
          </g>
          <g id="Grupo_83060" data-name="Grupo 83060" transform="translate(58.972 6.48)">
            <g id="Grupo_83059" data-name="Grupo 83059">
              <path id="Trazado_121054" data-name="Trazado 121054" d="M3414.612,892.088l-.673,5.4-2.69-5.045-5.442.577h0l3.78-3.7-2.69-5.04v0l5.025,2.761,3.757-3.675.019-.018,0,0v.006l-.672,5.394,5.026,2.761Z" transform="translate(-3405.807 -883.348)" fill="#583ae2" fill-rule="evenodd"/>
            </g>
          </g>
          <g id="Grupo_83062" data-name="Grupo 83062" transform="translate(74.251 20.55)">
            <g id="Grupo_83061" data-name="Grupo 83061">
              <path id="Trazado_121055" data-name="Trazado 121055" d="M3450.775,927.22l-3.334,4.1.094-5.493-5.243-2.244h0l5.3-1.149.094-5.489v0l3.183,4.782,5.269-1.141.026,0,0,0,0,0-3.329,4.1,3.182,4.782Z" transform="translate(-3442.292 -916.945)" fill="#583ae2" fill-rule="evenodd"/>
            </g>
          </g>
          <g id="Grupo_83064" data-name="Grupo 83064" transform="translate(82.594 41.141)">
            <g id="Grupo_83063" data-name="Grupo 83063">
              <path id="Trazado_121056" data-name="Trazado 121056" d="M3468.1,976.1l-5.1,1.706,2.852-4.467-3.64-4.468h0l5.4,1.707,2.85-4.465,0,0,.486,5.521,5.371,1.7.027.008.007,0-.008,0-5.094,1.7.487,5.523Z" transform="translate(-3462.214 -966.114)" fill="#583ae2" fill-rule="evenodd"/>
            </g>
          </g>
          <g id="Grupo_83066" data-name="Grupo 83066" transform="translate(77.98 61.809)">
            <g id="Grupo_83065" data-name="Grupo 83065">
              <path id="Trazado_121057" data-name="Trazado 121057" d="M3456.7,1024.356l-5.5-1.148,4.848-2.248-1.059-5.491h0l4.056,4.105,4.843-2.244,0,0-2.34,4.782,4.033,4.081.02.02,0,0h-.008l-5.494-1.147-2.341,4.782Z" transform="translate(-3451.195 -1015.469)" fill="#583ae2" fill-rule="evenodd"/>
            </g>
          </g>
          <g id="Grupo_83068" data-name="Grupo 83068" transform="translate(64.646 76.117)">
            <g id="Grupo_83067" data-name="Grupo 83067">
              <path id="Trazado_121058" data-name="Trazado 121058" d="M3423.785,1057.8l-4.43-3.695,5.544.576,1.8-5.044h0l1.625,5.4,5.539.577,0,0-4.539,2.761,1.615,5.371.007.026,0,.007-.009-.007-4.421-3.689-4.54,2.761Z" transform="translate(-3419.355 -1049.636)" fill="#583ae2" fill-rule="evenodd"/>
            </g>
          </g>
          <g id="Grupo_83070" data-name="Grupo 83070" transform="translate(44.937 82.987)">
            <g id="Grupo_83069" data-name="Grupo 83069">
              <path id="Trazado_121059" data-name="Trazado 121059" d="M3376.473,1071.3l-2.168-5.254,4.754,3.247,4.181-3.247h0L3382,1071.3l4.751,3.242,0,0h-5.522l-1.236,5.219-.007.027v.007l0-.008-2.166-5.245h-5.523Z" transform="translate(-3372.292 -1066.041)" fill="#583ae2" fill-rule="evenodd"/>
            </g>
          </g>
          <g id="Grupo_83072" data-name="Grupo 83072" transform="translate(23.52 76.115)">
            <g id="Grupo_83071" data-name="Grupo 83071">
              <path id="Trazado_121060" data-name="Trazado 121060" d="M3326.59,1055.034l.673-5.4,2.692,5.045,5.44-.578h0l-3.778,3.7,2.689,5.042,0,0-5.026-2.761-3.757,3.673-.018.018,0,0v-.01l.671-5.394-5.026-2.761Z" transform="translate(-3321.149 -1049.632)" fill="#583ae2" fill-rule="evenodd"/>
            </g>
          </g>
          <g id="Grupo_83074" data-name="Grupo 83074" transform="translate(8.609 61.807)">
            <g id="Grupo_83073" data-name="Grupo 83073">
              <path id="Trazado_121061" data-name="Trazado 121061" d="M3290.939,1019.57l3.334-4.106-.092,5.493,5.24,2.248h0l-5.3,1.147-.094,5.49v0l-3.182-4.782-5.271,1.14-.025.007h-.007l.005-.007,3.329-4.1-3.182-4.782Z" transform="translate(-3285.545 -1015.465)" fill="#583ae2" fill-rule="evenodd"/>
            </g>
          </g>
          <g id="Grupo_83076" data-name="Grupo 83076" transform="translate(0 41.139)">
            <g id="Grupo_83075" data-name="Grupo 83075">
              <path id="Trazado_121062" data-name="Trazado 121062" d="M3273.24,970.578l5.1-1.707-2.852,4.47,3.638,4.466h0l-5.4-1.706-2.85,4.464,0,0-.485-5.521-5.372-1.7-.026-.01h-.005l.007,0,5.094-1.7-.486-5.523Z" transform="translate(-3264.986 -966.11)" fill="#583ae2" fill-rule="evenodd"/>
            </g>
          </g>
          <g id="Grupo_83078" data-name="Grupo 83078" transform="translate(4.349 20.55)">
            <g id="Grupo_83077" data-name="Grupo 83077">
              <path id="Trazado_121063" data-name="Trazado 121063" d="M3284.275,922.436l5.5,1.149-4.846,2.246,1.062,5.493h0l-4.058-4.1-4.843,2.244,0,0,2.34-4.782L3275.4,920.6l-.02-.02-.005,0h.008l5.5,1.147,2.34-4.782Z" transform="translate(-3275.371 -916.945)" fill="#583ae2" fill-rule="evenodd"/>
            </g>
          </g>
          <g id="Grupo_83080" data-name="Grupo 83080" transform="translate(17.58 6.48)">
            <g id="Grupo_83079" data-name="Grupo 83079">
              <path id="Trazado_121064" data-name="Trazado 121064" d="M3317.047,889.326l4.43,3.694-5.542-.576-1.8,5.045h0l-1.622-5.4-5.541-.578h0l4.54-2.761-1.615-5.369-.008-.027v0l.006,0,4.423,3.691,4.539-2.761Z" transform="translate(-3306.965 -883.348)" fill="#583ae2" fill-rule="evenodd"/>
            </g>
          </g>
        </g>
      </g>
      <g id="Grupo_83086" data-name="Grupo 83086" transform="translate(3196.654 565)">
        <g id="Grupo_83083" data-name="Grupo 83083" transform="translate(0 8.924)">
          <g id="Grupo_83082" data-name="Grupo 83082">
            <rect id="Rect치ngulo_34340" data-name="Rect치ngulo 34340" width="35.271" height="35.271" rx="5.611" fill="#ab9df1"/>
          </g>
        </g>
        <g id="Grupo_83085" data-name="Grupo 83085" transform="translate(2.215)">
          <g id="Grupo_83084" data-name="Grupo 83084">
            <path id="Trazado_121065" data-name="Trazado 121065" d="M3431.153,600.039l12.987-21.3,5.353-8.783a3.255,3.255,0,1,0-5.558-3.391l-4.883,8.01-10.994,18.037-8.637-11.876a3.258,3.258,0,0,0-5.276,3.824l11.509,15.831a3.262,3.262,0,0,0,4.553.725A3.212,3.212,0,0,0,3431.153,600.039Z" transform="translate(-3413.524 -565)" fill="#583ae2" fill-rule="evenodd"/>
          </g>
        </g>
      </g>
    </g>
  </g>
</svg>
