<svg xmlns="http://www.w3.org/2000/svg" xmlns:xlink="http://www.w3.org/1999/xlink" width="85" height="85" viewBox="0 0 85 85">
  <defs>
    <clipPath id="clip-path">
      <rect id="Rectángulo_34035" data-name="Rectángulo 34035" width="85" height="85" transform="translate(285 14109)" fill="#2ff980" stroke="#707070" stroke-width="1"/>
    </clipPath>
  </defs>
  <g id="Enmascarar_grupo_80" data-name="Enmascarar grupo 80" transform="translate(-285 -14109)" clip-path="url(#clip-path)">
    <g id="Grupo_85035" data-name="Grupo 85035" transform="translate(1204.504 14563.086)">
      <path id="Trazado_124530" data-name="Trazado 124530" d="M-836.607-402.6c.071.956.128,2.021.238,3.081a1.422,1.422,0,0,1-.81,1.557,29.8,29.8,0,0,1-5.886,2.42,1.255,1.255,0,0,1-1.424-.428c-.68-.787-1.351-1.583-2.047-2.356a5.786,5.786,0,0,0-8.827.021c-.66.737-1.314,1.481-1.943,2.244a1.409,1.409,0,0,1-1.684.47,32.492,32.492,0,0,1-5.672-2.345,1.5,1.5,0,0,1-.855-1.61,17.331,17.331,0,0,0,.126-4.47,5.79,5.79,0,0,0-5.758-4.674c-1.115.024-2.229.132-3.34.235a1.385,1.385,0,0,1-1.5-.782,29.861,29.861,0,0,1-2.432-5.879,1.292,1.292,0,0,1,.445-1.484c.79-.677,1.585-1.348,2.357-2.045a5.784,5.784,0,0,0-.02-8.776q-1.132-1.018-2.3-1.995a1.371,1.371,0,0,1-.451-1.62,31.68,31.68,0,0,1,2.335-5.675,1.542,1.542,0,0,1,1.667-.884,16.938,16.938,0,0,0,4.471.118,5.8,5.8,0,0,0,4.636-5.64c-.011-1.139-.12-2.28-.231-3.415a1.419,1.419,0,0,1,.812-1.554,30.863,30.863,0,0,1,5.812-2.4,1.334,1.334,0,0,1,1.549.464q.935,1.1,1.893,2.187a5.8,5.8,0,0,0,8.981.036c.641-.72,1.278-1.445,1.895-2.186a1.367,1.367,0,0,1,1.607-.49,30.936,30.936,0,0,1,5.746,2.363,1.507,1.507,0,0,1,.854,1.61,17.265,17.265,0,0,0-.117,4.546,5.813,5.813,0,0,0,5.674,4.6c1.115-.017,2.231-.112,3.34-.229a1.457,1.457,0,0,1,1.614.84A31.3,31.3,0,0,1-823.48-431a1.369,1.369,0,0,1-.481,1.611c-.778.651-1.549,1.313-2.3,1.993a5.781,5.781,0,0,0,.019,8.776c.735.662,1.482,1.313,2.245,1.943a1.4,1.4,0,0,1,.508,1.671,32.23,32.23,0,0,1-2.335,5.675,1.541,1.541,0,0,1-1.667.885,17.146,17.146,0,0,0-4.321-.143A5.841,5.841,0,0,0-836.607-402.6Zm-34.612-8.395a7.223,7.223,0,0,1,2.108.253,8.2,8.2,0,0,1,6.08,9.058c-.215,2.418-.561,1.722,1.581,2.752.387.186.791.337,1.192.493,1.472.574,1.472.572,2.482-.587.2-.229.4-.457.6-.687a8.088,8.088,0,0,1,12.409-.069c.434.5.873.989,1.291,1.5a.594.594,0,0,0,.767.244,35.476,35.476,0,0,0,3.574-1.482.612.612,0,0,0,.4-.7c-.077-.909-.161-1.822-.165-2.733a8.153,8.153,0,0,1,6.7-7.914,18.085,18.085,0,0,1,3.944.056.769.769,0,0,0,.875-.5q.75-1.621,1.365-3.294a.763.763,0,0,0-.263-1.028c-.584-.445-1.128-.944-1.671-1.44a8.1,8.1,0,0,1,.122-12c.533-.469,1.059-.948,1.615-1.389a.64.64,0,0,0,.244-.834,35.774,35.774,0,0,0-1.455-3.5.655.655,0,0,0-.767-.421c-.859.077-1.72.153-2.582.161a8.146,8.146,0,0,1-8.022-6.754,18.468,18.468,0,0,1,.067-3.944.7.7,0,0,0-.487-.807c-.96-.391-1.925-.777-2.86-1.225a1.23,1.23,0,0,0-1.816.5,8.155,8.155,0,0,1-.838.984,8.087,8.087,0,0,1-12.46-.042c-.414-.48-.844-.948-1.239-1.442a.6.6,0,0,0-.78-.2,31.1,31.1,0,0,0-3.57,1.491.567.567,0,0,0-.377.642c.074.91.159,1.822.165,2.733a8.15,8.15,0,0,1-6.663,7.946,17.9,17.9,0,0,1-4.02-.048.724.724,0,0,0-.817.47c-.535,1.121-1,2.269-1.423,3.434a.681.681,0,0,0,.279.892c.577.455,1.128.945,1.67,1.442a8.114,8.114,0,0,1,1.317,10.4,14.813,14.813,0,0,1-3.005,3,.7.7,0,0,0-.257.9c.417,1.142.875,2.264,1.393,3.364a.738.738,0,0,0,.863.52C-872.843-410.911-872.029-410.935-871.219-410.99Z" transform="translate(-26.064)" fill="#040404"/>
      <path id="Trazado_124531" data-name="Trazado 124531" d="M-877.006-262.513h32.746c3.908,0,6.253,2.341,6.254,6.241,0,2.792.007,5.583,0,8.375a5.7,5.7,0,0,1-5.942,5.941q-33.051.007-66.1,0A5.7,5.7,0,0,1-916-247.892q-.012-4.34,0-8.679a5.7,5.7,0,0,1,5.942-5.94Q-893.531-262.52-877.006-262.513Zm-.052,18.275q16.565,0,33.13,0a3.426,3.426,0,0,0,3.635-3.618q.013-4.378,0-8.756a3.423,3.423,0,0,0-3.64-3.612q-33.054,0-66.107,0a3.428,3.428,0,0,0-3.672,3.655q-.01,4.226,0,8.452c0,2.538,1.352,3.881,3.907,3.881Z" transform="translate(0 -130.658)" fill="#010101"/>
      <path id="Trazado_124532" data-name="Trazado 124532" d="M-865.488-405.286c-.81.055-1.623.079-2.428.175a.738.738,0,0,1-.863-.52c-.519-1.1-.977-2.222-1.393-3.364a.7.7,0,0,1,.257-.9,14.813,14.813,0,0,0,3.005-3,8.114,8.114,0,0,0-1.317-10.4c-.542-.5-1.093-.987-1.67-1.442a.681.681,0,0,1-.279-.892c.428-1.165.888-2.313,1.423-3.434a.724.724,0,0,1,.817-.47,17.9,17.9,0,0,0,4.02.048,8.15,8.15,0,0,0,6.663-7.946c-.005-.912-.091-1.823-.165-2.733a.567.567,0,0,1,.377-.642,31.1,31.1,0,0,1,3.57-1.491.6.6,0,0,1,.78.2c.4.495.825.963,1.239,1.442a8.087,8.087,0,0,0,12.46.042,8.155,8.155,0,0,0,.838-.984,1.23,1.23,0,0,1,1.816-.5c.934.448,1.9.834,2.86,1.225a.7.7,0,0,1,.487.807,18.468,18.468,0,0,0-.067,3.944,8.146,8.146,0,0,0,8.022,6.754c.861-.009,1.723-.085,2.582-.161a.655.655,0,0,1,.767.421,35.774,35.774,0,0,1,1.455,3.5.64.64,0,0,1-.244.834c-.556.441-1.082.92-1.615,1.389a8.1,8.1,0,0,0-.122,12c.543.5,1.088.995,1.671,1.44a.763.763,0,0,1,.263,1.028q-.616,1.676-1.365,3.294a.769.769,0,0,1-.875.5,18.085,18.085,0,0,0-3.944-.056,8.153,8.153,0,0,0-6.7,7.914c0,.912.087,1.824.165,2.733a.612.612,0,0,1-.4.7,35.476,35.476,0,0,1-3.574,1.482.594.594,0,0,1-.767-.244c-.418-.51-.857-1-1.291-1.5a8.088,8.088,0,0,0-12.409.069c-.2.231-.4.458-.6.687-1.01,1.159-1.01,1.161-2.482.587-.4-.156-.8-.306-1.192-.493-2.142-1.03-1.8-.334-1.581-2.752a8.2,8.2,0,0,0-6.08-9.058A7.223,7.223,0,0,0-865.488-405.286Zm7.63-23.121c-.983-.464-1.333-.382-1.982.528a17.714,17.714,0,0,0-3.216,13.169,18.074,18.074,0,0,0,20.988,15.17,18.061,18.061,0,0,0,14.543-21.368c-2.454-12.758-17.9-18.754-28.311-10.994-.837.624-.922.976-.464,1.938A7.347,7.347,0,0,0-857.858-428.406Z" transform="translate(-31.796 -5.704)" fill="#c6dcd3"/>
      <path id="Trazado_124533" data-name="Trazado 124533" d="M-871.851-239.035H-904.6c-2.555,0-3.906-1.343-3.907-3.881q0-4.226,0-8.452a3.428,3.428,0,0,1,3.672-3.655q33.053,0,66.107,0a3.423,3.423,0,0,1,3.64,3.612q.013,4.378,0,8.756a3.426,3.426,0,0,1-3.635,3.618Q-855.286-239.03-871.851-239.035Zm3.489-3.316A1.206,1.206,0,0,0-867-241.315q14.123-.009,28.246-.006c.974,0,1.381-.413,1.383-1.393q.009-4.3,0-8.6c0-1.026-.4-1.424-1.429-1.424q-33,0-66.009,0c-1.02,0-1.411.4-1.412,1.439q-.006,4.262,0,8.525c0,1.07.391,1.455,1.474,1.455q16.293,0,32.586.011a1.344,1.344,0,0,0,1.543-1.121A14.947,14.947,0,0,1-868.362-242.351Z" transform="translate(-5.208 -135.861)" fill="#fdf6dd"/>
      <path id="Trazado_124534" data-name="Trazado 124534" d="M-836.724-407.351a7.347,7.347,0,0,1,1.558-1.556,1.325,1.325,0,0,0,1.8-.072,5.523,5.523,0,0,1,.682-.481,15.406,15.406,0,0,1,15.942-.695c-.038.265.149.411.3.582a19.486,19.486,0,0,1,4.7,12.131,20.589,20.589,0,0,1-.282,4.91,19.57,19.57,0,0,1-3.377,8.278,6.38,6.38,0,0,0-1.34,1.885,14.59,14.59,0,0,1-10.373,1.553,15.722,15.722,0,0,1-9.672-24.732A1.39,1.39,0,0,0-836.724-407.351Zm21.562,11.086a8.929,8.929,0,0,0-8.915-8.9,8.935,8.935,0,0,0-8.908,8.908,8.937,8.937,0,0,0,8.916,8.9A8.933,8.933,0,0,0-815.163-396.266Z" transform="translate(-52.929 -26.759)" fill="#b2c9bf"/>
      <path id="Trazado_124535" data-name="Trazado 124535" d="M-841.936-412.489a1.39,1.39,0,0,1-.069,1.8,15.722,15.722,0,0,0,9.672,24.732,14.59,14.59,0,0,0,10.373-1.553,5.848,5.848,0,0,0,.549-.247,15.741,15.741,0,0,0,6.6-19.853,15.024,15.024,0,0,0-7.147-7.686,15.406,15.406,0,0,0-15.942.695,5.524,5.524,0,0,0-.682.481,1.325,1.325,0,0,1-1.8.072c-.457-.962-.373-1.314.465-1.938,10.416-7.76,25.857-1.764,28.311,10.994a18.061,18.061,0,0,1-14.543,21.367,18.074,18.074,0,0,1-20.988-15.17,17.714,17.714,0,0,1,3.216-13.169C-843.27-412.871-842.92-412.954-841.936-412.489Z" transform="translate(-47.717 -21.621)" fill="#030404"/>
      <path id="Trazado_124536" data-name="Trazado 124536" d="M-865.417-237.23a1.344,1.344,0,0,1-1.543,1.121q-16.293-.022-32.586-.011c-1.083,0-1.473-.385-1.474-1.455q-.006-4.263,0-8.525c0-1.036.393-1.439,1.412-1.439q33,0,66.009,0c1.029,0,1.427.4,1.429,1.424q.007,4.3,0,8.6c0,.981-.409,1.393-1.383,1.393q-14.123.005-28.246.006a1.206,1.206,0,0,1-1.362-1.036c.15-.986.448-1.25,1.45-1.252,2.36,0,4.72,0,7.08,0q8.335-.009,16.67-.02c1.01.007,2.021,0,3.03.026.357.008.485-.112.482-.476q-.02-2.955,0-5.91c0-.363-.125-.484-.482-.476-1.01.023-2.02.019-3.03.026q-13.469-.011-26.937-.03c-.457,0-.545.176-.542.581C-865.421-242.2-865.422-239.714-865.417-237.23Zm-33.319-4.626c0,.964.017,1.929-.008,2.893-.01.4.056.58.523.572,1.675-.029,3.351-.022,5.026,0,.4,0,.52-.116.516-.516q-.027-2.931,0-5.862c0-.431-.173-.494-.54-.491-1.675.015-3.351.02-5.026,0-.414-.006-.509.133-.5.518C-898.719-243.785-898.735-242.82-898.735-241.856Zm22.687.086c0-.962-.019-1.924.009-2.886.012-.432-.056-.625-.564-.614q-2.468.053-4.937,0c-.493-.01-.581.161-.576.608.023,1.9.02,3.8,0,5.7,0,.4.07.581.531.573q2.506-.041,5.013,0c.456.007.541-.163.53-.568C-876.066-239.9-876.048-240.833-876.048-241.77Zm-8.343-.078c0-.964-.016-1.929.008-2.893.01-.382-.081-.53-.5-.524q-2.513.034-5.026,0c-.414-.006-.505.139-.5.523q.025,2.931,0,5.862c0,.35.076.49.461.485q2.551-.03,5.1,0c.381,0,.467-.133.46-.484C-884.4-239.868-884.391-240.858-884.391-241.848Zm16.651.016c0-.962-.008-1.925,0-2.887,0-.344-.017-.556-.476-.548-1.7.029-3.395.021-5.091,0-.369,0-.47.113-.467.473q.023,2.963,0,5.926c0,.366.11.472.472.468q2.546-.025,5.092,0c.369,0,.482-.11.474-.473C-867.754-239.856-867.74-240.844-867.74-241.832Z" transform="translate(-10.41 -141.062)" fill="#010101"/>
      <path id="Trazado_124537" data-name="Trazado 124537" d="M-784.406-232.047c-.006-2.484,0-4.969-.023-7.453,0-.4.085-.582.542-.581q13.469.028,26.937.03v6.81q-8.335.01-16.67.02c-2.36,0-4.72,0-7.08,0-1,0-1.3.266-1.45,1.252A14.947,14.947,0,0,0-784.406-232.047Z" transform="translate(-91.42 -146.245)" fill="#809288"/>
      <path id="Trazado_124538" data-name="Trazado 124538" d="M-799.589-380.594a8.933,8.933,0,0,1-8.908,8.91,8.937,8.937,0,0,1-8.916-8.9,8.935,8.935,0,0,1,8.908-8.908A8.929,8.929,0,0,1-799.589-380.594Zm-8.93,6.618a6.61,6.61,0,0,0,6.637-6.614,6.606,6.606,0,0,0-6.562-6.612,6.61,6.61,0,0,0-6.675,6.575A6.614,6.614,0,0,0-808.519-373.976Z" transform="translate(-68.503 -42.431)" fill="#040403"/>
      <path id="Trazado_124539" data-name="Trazado 124539" d="M-764.209-405.844a15.024,15.024,0,0,1,7.147,7.686,15.741,15.741,0,0,1-6.6,19.853,5.848,5.848,0,0,1-.549.247,6.381,6.381,0,0,1,1.34-1.885,19.57,19.57,0,0,0,3.377-8.278,20.592,20.592,0,0,0,.282-4.91,19.486,19.486,0,0,0-4.7-12.131C-764.06-405.433-764.247-405.579-764.209-405.844Z" transform="translate(-105.466 -31.071)" fill="#a2b7ad"/>
      <path id="Trazado_124540" data-name="Trazado 124540" d="M-893.55-236.678c0-.964.016-1.929-.008-2.893-.01-.385.085-.523.5-.518,1.675.024,3.351.018,5.026,0,.368,0,.545.06.541.491q-.032,2.931,0,5.862c0,.4-.118.52-.516.516-1.675-.019-3.351-.026-5.026,0-.467.008-.533-.173-.522-.572C-893.534-234.749-893.55-235.714-893.55-236.678Z" transform="translate(-15.595 -146.24)" fill="#eba8db"/>
      <path id="Trazado_124541" data-name="Trazado 124541" d="M-833.006-236.6c0,.937-.018,1.874.008,2.81.011.406-.074.576-.53.568q-2.506-.04-5.013,0c-.461.007-.535-.169-.531-.573.018-1.9.021-3.8,0-5.7-.005-.447.083-.618.576-.608q2.468.049,4.937,0c.508-.011.576.182.564.614C-833.025-238.525-833.006-237.562-833.006-236.6Z" transform="translate(-53.452 -146.232)" fill="#eba8db"/>
      <path id="Trazado_124542" data-name="Trazado 124542" d="M-860.229-236.668c0,.99-.013,1.98.007,2.969.007.351-.079.488-.46.484q-2.551-.028-5.1,0c-.386,0-.464-.135-.461-.485q.02-2.931,0-5.862c0-.384.088-.528.5-.523q2.513.033,5.026,0c.417-.006.508.142.5.524C-860.245-238.6-860.229-237.632-860.229-236.668Z" transform="translate(-34.572 -146.243)" fill="#ea8dcf"/>
      <path id="Trazado_124543" data-name="Trazado 124543" d="M-805.7-236.656c0,.988-.014,1.976.007,2.963.008.364-.105.477-.474.473q-2.546-.027-5.092,0c-.362,0-.475-.1-.472-.468q.024-2.963,0-5.926c0-.36.1-.477.467-.473,1.7.017,3.395.025,5.091,0,.459-.008.481.2.476.548C-805.7-238.581-805.7-237.619-805.7-236.656Z" transform="translate(-72.453 -146.238)" fill="#ea8dcf"/>
      <path id="Trazado_124544" data-name="Trazado 124544" d="M-694.386-233.234v-6.81c1.01-.007,2.021,0,3.03-.026.357-.008.485.112.482.476q-.02,2.955,0,5.91c0,.363-.125.484-.482.476C-692.365-233.231-693.376-233.227-694.386-233.234Z" transform="translate(-153.984 -146.253)" fill="#6a7c74"/>
      <path id="Trazado_124545" data-name="Trazado 124545" d="M-803.3-368.76a6.614,6.614,0,0,1-6.6-6.651,6.61,6.61,0,0,1,6.675-6.575,6.606,6.606,0,0,1,6.562,6.612A6.61,6.61,0,0,1-803.3-368.76Zm.022-2.285a4.319,4.319,0,0,0,4.328-4.351,4.315,4.315,0,0,0-4.3-4.306,4.319,4.319,0,0,0-4.367,4.312A4.323,4.323,0,0,0-803.277-371.044Z" transform="translate(-73.724 -47.647)" fill="#f9f2d9"/>
      <path id="Trazado_124546" data-name="Trazado 124546" d="M-798.071-365.843a4.323,4.323,0,0,1-4.335-4.345,4.319,4.319,0,0,1,4.367-4.312,4.315,4.315,0,0,1,4.3,4.306A4.319,4.319,0,0,1-798.071-365.843Zm-.008-2.3a1.98,1.98,0,0,0,2.029-2,1.976,1.976,0,0,0-2.059-2.047,1.973,1.973,0,0,0-1.992,2.038A1.98,1.98,0,0,0-798.078-368.147Z" transform="translate(-78.93 -52.849)" fill="#030303"/>
      <path id="Trazado_124547" data-name="Trazado 124547" d="M-792.826-362.9a1.98,1.98,0,0,1-2.021-2.011,1.973,1.973,0,0,1,1.992-2.038A1.976,1.976,0,0,1-790.8-364.9,1.98,1.98,0,0,1-792.826-362.9Z" transform="translate(-84.182 -58.095)" fill="#809288"/>
    </g>
  </g>
</svg>
