<svg xmlns="http://www.w3.org/2000/svg" width="67.698" height="67.707" viewBox="0 0 67.698 67.707">
  <g id="Grupo_85801" data-name="Grupo 85801" transform="translate(-1626.873 182.555)">
    <path id="Trazado_127091" data-name="Trazado 127091" d="M1630.285-159.145a5.308,5.308,0,0,1,0-.595,1.952,1.952,0,0,0-1-2.192,3.134,3.134,0,0,1-1.022-3.841,3.387,3.387,0,0,1,3.475-2.1,3.371,3.371,0,0,1,2.951,2.625,3.29,3.29,0,0,1-1.607,3.655.877.877,0,0,0-.556.953c.038.924,0,1.851.014,2.776a1.1,1.1,0,0,0,1.262,1.25c.97.01,1.94-.014,2.909.011a.577.577,0,0,0,.663-.451,24.61,24.61,0,0,1,14.932-14.962.663.663,0,0,0,.522-.757c-.034-.9-.006-1.807-.012-2.71-.006-1.031-.366-1.4-1.381-1.4-.9-.006-1.808.018-2.71-.01a.79.79,0,0,0-.859.493,3.322,3.322,0,0,1-3.815,1.648,3.393,3.393,0,0,1-2.51-3.258,3.381,3.381,0,0,1,2.546-3.3,3.326,3.326,0,0,1,3.8,1.7.756.756,0,0,0,.81.475c1.035-.025,2.072-.029,3.107.006a3.291,3.291,0,0,1,3.261,3.237c.036.858.027,1.719.008,2.578-.008.365.1.469.457.382a18.082,18.082,0,0,1,3.656-.508c.308-.011.438-.128.417-.439a5.355,5.355,0,0,1,0-.793,1.6,1.6,0,0,0-.855-1.8,3.161,3.161,0,0,1-1.215-3.788,3.371,3.371,0,0,1,3.356-2.282,3.419,3.419,0,0,1,3.117,2.527,3.27,3.27,0,0,1-1.51,3.7,1.063,1.063,0,0,0-.64,1.182c.047.524-.141,1.165.1,1.547s.94.127,1.432.222c.842.162,1.7.256,2.537.426.359.073.467.013.456-.36-.023-.771-.013-1.543-.005-2.314a3.336,3.336,0,0,1,3.521-3.525c.969-.014,1.939-.015,2.909,0a.67.67,0,0,0,.719-.4,3.311,3.311,0,0,1,3.946-1.725,3.351,3.351,0,0,1,2.426,3.505,3.4,3.4,0,0,1-2.94,3.1,3.331,3.331,0,0,1-3.4-1.785.7.7,0,0,0-.751-.446c-.969.023-1.939,0-2.909.011a1.107,1.107,0,0,0-1.261,1.253c-.011.991.012,1.984-.011,2.975-.008.35.124.475.445.6a24.724,24.724,0,0,1,15,14.99c.131.348.276.479.653.468.969-.028,1.939,0,2.908-.012.888-.008,1.269-.4,1.278-1.3.01-.947-.021-1.9.013-2.842a.744.744,0,0,0-.489-.793,3.344,3.344,0,0,1-1.656-3.816,3.392,3.392,0,0,1,3.254-2.514,3.377,3.377,0,0,1,3.3,2.537,3.341,3.341,0,0,1-1.688,3.8.753.753,0,0,0-.484.8c.031.991.026,1.983.005,2.975a3.322,3.322,0,0,1-3.436,3.408c-.793.011-1.587.014-2.38,0-.336-.007-.482.043-.388.436a17.441,17.441,0,0,1,.5,3.591c.011.416.177.546.564.5a3.477,3.477,0,0,1,.594,0,1.717,1.717,0,0,0,1.924-.882,3.141,3.141,0,0,1,3.862-1.145,3.407,3.407,0,0,1,2.158,3.383,3.423,3.423,0,0,1-2.6,3.062,3.309,3.309,0,0,1-3.7-1.65.83.83,0,0,0-.923-.507c-.57.027-1.261-.169-1.681.089-.466.286-.16,1.055-.283,1.6-.171.771-.235,1.566-.4,2.34-.081.382-.033.51.381.5.792-.027,1.587-.017,2.38-.006a3.319,3.319,0,0,1,3.43,3.413c.02.947.027,1.9-.005,2.842a.883.883,0,0,0,.545.966,3.323,3.323,0,0,1,1.643,3.709,3.394,3.394,0,0,1-3.125,2.594,3.372,3.372,0,0,1-3.388-2.329,3.319,3.319,0,0,1,1.66-4.03.658.658,0,0,0,.424-.7c-.024-.969,0-1.939-.011-2.909-.009-.9-.391-1.289-1.283-1.3-.947-.009-1.9.022-2.842-.013-.431-.016-.6.144-.745.534a24.682,24.682,0,0,1-13.566,14.372,5.543,5.543,0,0,1-1.1.44c-.613.125-.8.43-.758,1.049.062.877.007,1.762.019,2.643a1.094,1.094,0,0,0,1.2,1.246c1.036.017,2.073-.022,3.107.018.428.017.487-.263.631-.523a3.371,3.371,0,0,1,3.709-1.642,3.363,3.363,0,0,1,2.61,2.963,3.385,3.385,0,0,1-2.112,3.469,3.336,3.336,0,0,1-4.229-1.571.712.712,0,0,0-.753-.457c-.991.025-1.983.024-2.975,0a3.333,3.333,0,0,1-3.449-3.464c-.011-.771-.013-1.543,0-2.314.007-.346-.015-.521-.461-.417a17.784,17.784,0,0,1-3.592.489c-.385.009-.506.164-.468.521a2.927,2.927,0,0,1,0,.528,1.869,1.869,0,0,0,.952,2.088,3.118,3.118,0,0,1,1.064,3.829,3.414,3.414,0,0,1-3.458,2.139,3.428,3.428,0,0,1-2.991-2.6,3.331,3.331,0,0,1,1.645-3.707.813.813,0,0,0,.532-.908c-.052-.589.224-1.316-.109-1.736-.321-.4-1.076-.157-1.636-.249-.759-.125-1.529-.195-2.274-.394-.438-.117-.529.031-.514.442.027.748.018,1.5.005,2.248a3.342,3.342,0,0,1-3.481,3.5c-.9.017-1.808.026-2.71-.005a.979.979,0,0,0-1.074.594,3.292,3.292,0,0,1-3.67,1.59,3.4,3.4,0,0,1-2.6-3.123,3.363,3.363,0,0,1,2.269-3.364,3.314,3.314,0,0,1,4.093,1.632.657.657,0,0,0,.7.43c.969-.027,1.939,0,2.909-.011.9-.009,1.293-.391,1.3-1.281s-.037-1.809.018-2.71c.033-.544-.171-.748-.659-.929a24.643,24.643,0,0,1-12.723-10.521,22.861,22.861,0,0,1-2.082-4.4c-.114-.325-.252-.45-.6-.442-1.013.023-2.027,0-3.041.012a1.076,1.076,0,0,0-1.185,1.191c-.015.992.011,1.984-.012,2.975a.7.7,0,0,0,.446.751,3.3,3.3,0,0,1,1.7,3.788,3.362,3.362,0,0,1-3.211,2.561,3.355,3.355,0,0,1-3.327-2.5,3.3,3.3,0,0,1,1.629-3.822.835.835,0,0,0,.523-.91c-.025-.991-.022-1.983,0-2.975a3.312,3.312,0,0,1,3.317-3.321c.837-.02,1.675-.021,2.512,0,.38.01.448-.119.367-.463a18.632,18.632,0,0,1-.5-3.657c-.01-.318-.138-.429-.442-.409a5.42,5.42,0,0,1-.793,0,1.607,1.607,0,0,0-1.8.852,3.174,3.174,0,0,1-3.852,1.19,3.4,3.4,0,0,1-2.212-3.41,3.418,3.418,0,0,1,2.6-3.059,3.328,3.328,0,0,1,3.709,1.638.823.823,0,0,0,.91.531c.59-.043,1.322.165,1.737-.114s.16-1.064.25-1.624c.125-.782.209-1.571.4-2.339.091-.359-.013-.464-.377-.454-.815.022-1.631.019-2.446,0a3.327,3.327,0,0,1-3.378-3.4C1630.278-158.22,1630.286-158.683,1630.285-159.145Zm53.009,10.4a22.6,22.6,0,0,0-22.6-22.529,22.585,22.585,0,0,0-22.524,22.6,22.588,22.588,0,0,0,22.587,22.536A22.629,22.629,0,0,0,1683.294-148.741Zm-50.759-15.783a1.161,1.161,0,0,0-1.178-1.1,1.114,1.114,0,0,0-1.066,1.188,1.094,1.094,0,0,0,1.123,1.058A1.145,1.145,0,0,0,1632.536-164.524Zm0,31.641a1.143,1.143,0,0,0-1.12-1.149,1.093,1.093,0,0,0-1.124,1.056,1.116,1.116,0,0,0,1.065,1.19A1.162,1.162,0,0,0,1632.536-132.883ZM1646.054-178a1.091,1.091,0,0,0-1.1-1.141,1.117,1.117,0,0,0-1.142,1.115,1.164,1.164,0,0,0,1.084,1.128A1.139,1.139,0,0,0,1646.054-178Zm31.591-.024a1.11,1.11,0,0,0-1.137-1.117,1.1,1.1,0,0,0-1.109,1.074,1.15,1.15,0,0,0,1.1,1.172A1.158,1.158,0,0,0,1677.644-178.024Zm-32.709,57.513a1.161,1.161,0,0,0-1.128,1.15,1.117,1.117,0,0,0,1.162,1.094,1.087,1.087,0,0,0,1.083-1.1A1.136,1.136,0,0,0,1644.936-120.511Zm31.609,2.246a1.109,1.109,0,0,0,1.1-1.156,1.162,1.162,0,0,0-1.119-1.092,1.15,1.15,0,0,0-1.128,1.145A1.1,1.1,0,0,0,1676.545-118.265Zm14.62-46.2a1.111,1.111,0,0,0-1.1-1.153,1.157,1.157,0,0,0-1.143,1.133,1.148,1.148,0,0,0,1.09,1.113A1.1,1.1,0,0,0,1691.165-164.469Zm-59.78,15.764a1.107,1.107,0,0,0-1.13-1.12,1.141,1.141,0,0,0-1.112,1.089,1.145,1.145,0,0,0,1.114,1.153A1.106,1.106,0,0,0,1631.385-148.7Zm59.819-1.12a1.11,1.11,0,0,0-1.136,1.116,1.1,1.1,0,0,0,1.061,1.122,1.129,1.129,0,0,0,1.183-1.079A1.139,1.139,0,0,0,1691.2-149.825Zm-1.183,15.793a1.141,1.141,0,0,0-1.1,1.168,1.157,1.157,0,0,0,1.129,1.079,1.114,1.114,0,0,0,1.113-1.143A1.1,1.1,0,0,0,1690.021-134.031Zm-28.17-45.081a1.145,1.145,0,0,0-1.091-1.177,1.121,1.121,0,0,0-1.141,1.048,1.091,1.091,0,0,0,1.046,1.195A1.115,1.115,0,0,0,1661.851-179.112Zm-1.091,61.994a1.145,1.145,0,0,0,1.091-1.177,1.114,1.114,0,0,0-1.186-1.066,1.094,1.094,0,0,0-1.052,1.128A1.131,1.131,0,0,0,1660.76-117.118Z" transform="translate(0)" fill="#583ae2"/>
    <path id="Trazado_127092" data-name="Trazado 127092" d="M1722.568-113.246a17.416,17.416,0,0,1-1.79,7.773,4.488,4.488,0,0,0-.467,2.1,8.789,8.789,0,0,1-.165,2.56,4.446,4.446,0,0,1-4.153,3.282c-.638.023-1.279.037-1.916,0-.45-.025-.564.139-.544.564.031.637.02,1.278,0,1.916a4.332,4.332,0,0,1-4.011,4.247c-2.572.123-5.153.059-7.729.067-.749,0-1.5.02-2.245-.048a4.437,4.437,0,0,1-4.022-4.324,15.325,15.325,0,0,1,.005-1.783c.051-.558-.177-.665-.67-.636a18.413,18.413,0,0,1-1.85,0,4.317,4.317,0,0,1-4.21-4.178,13.683,13.683,0,0,0-1.119-5.206,18.03,18.03,0,0,1,13.531-24.108,18.039,18.039,0,0,1,20.988,14.045A17.58,17.58,0,0,1,1722.568-113.246Zm-2.265-.255c-.026-.524-.049-1.292-.15-2.06a15.826,15.826,0,0,0-18.35-13.3,15.78,15.78,0,0,0-11.454,22.474,6.321,6.321,0,0,1,.661,2.993c-.016.44-.01.881,0,1.322a2.2,2.2,0,0,0,2.286,2.288c.7.011,1.411-.015,2.115.006a2.283,2.283,0,0,1,2.358,2.392c.01.727-.011,1.455.007,2.181a2.123,2.123,0,0,0,2.056,2.169q4.692.068,9.385,0a2.118,2.118,0,0,0,2.062-2.161c.02-.682,0-1.366.007-2.049a2.323,2.323,0,0,1,2.55-2.536c.705-.006,1.411.017,2.115-.011a2.166,2.166,0,0,0,2.081-2.007,9.334,9.334,0,0,0,.019-1.255,7.182,7.182,0,0,1,.793-3.626A14.848,14.848,0,0,0,1720.3-113.5Z" transform="translate(-43.802 -37.657)" fill="#583ae2"/>
    <path id="Trazado_127093" data-name="Trazado 127093" d="M1717.16-63.32a6.677,6.677,0,0,1,2.213.3,3.883,3.883,0,0,1,2.616,5.128,5.079,5.079,0,0,1-6.156,3.5,5.018,5.018,0,0,1-3.632-6.062,3.887,3.887,0,0,1,3.32-2.725A6.076,6.076,0,0,1,1717.16-63.32Zm-.087,6.749a2.773,2.773,0,0,0,2.739-1.965,1.633,1.633,0,0,0-1.126-2.338,5.517,5.517,0,0,0-3.313.061,1.4,1.4,0,0,0-1.064,1.544A2.757,2.757,0,0,0,1717.073-56.571Z" transform="translate(-62.59 -87.63)" fill="#583ae2"/>
    <path id="Trazado_127094" data-name="Trazado 127094" d="M1769.042-59.3a5.07,5.07,0,0,1-5.328,5.01,5.068,5.068,0,0,1-4.742-5.806,3.5,3.5,0,0,1,2.491-2.885,7.622,7.622,0,0,1,4.8-.092A3.653,3.653,0,0,1,1769.042-59.3Zm-4.993-1.833a4.732,4.732,0,0,0-1.853.267,1.407,1.407,0,0,0-1.02,1.513,2.762,2.762,0,0,0,2.478,2.71,2.823,2.823,0,0,0,3.091-2.189A1.64,1.64,0,0,0,1765.32-61,4.745,4.745,0,0,0,1764.049-61.134Z" transform="translate(-97.049 -87.566)" fill="#583ae2"/>
    <path id="Trazado_127095" data-name="Trazado 127095" d="M1745.266-21.351a3.369,3.369,0,0,1-3.221-4.383,17.8,17.8,0,0,1,.7-1.844,2.6,2.6,0,0,1,2.478-1.663,2.555,2.555,0,0,1,2.54,1.663,6.011,6.011,0,0,1,.821,3.4A3.366,3.366,0,0,1,1745.266-21.351Zm-.036-2.257a1.081,1.081,0,0,0,1.117-1.3,9.614,9.614,0,0,0-.659-1.781.445.445,0,0,0-.853,0,9.568,9.568,0,0,0-.645,1.717A1.076,1.076,0,0,0,1745.23-23.607Z" transform="translate(-84.534 -112.685)" fill="#583ae2"/>
  </g>
</svg>
