<svg xmlns="http://www.w3.org/2000/svg" xmlns:xlink="http://www.w3.org/1999/xlink" width="96" height="96" viewBox="0 0 96 96">
  <defs>
    <clipPath id="clip-path">
      <rect id="Rectángulo_34461" data-name="Rectángulo 34461" width="96" height="96" fill="#fff" stroke="#707070" stroke-width="1"/>
    </clipPath>
  </defs>
  <g id="Grupo_85024" data-name="Grupo 85024" clip-path="url(#clip-path)">
    <g id="Grupo_85036" data-name="Grupo 85036" transform="translate(246.433 -38.807)">
      <path id="Trazado_124548" data-name="Trazado 124548" d="M-212.1,88.69l-2.72,0c-.113-1.4-.113-1.4-1.579-1.4-4.159,0-8.319.043-12.478-.014a8.145,8.145,0,0,1-7.733-4.834,8.007,8.007,0,0,1,.964-8.833,8.148,8.148,0,0,1,7.258-3.228c.6.032.914-.046.978-.767a12.236,12.236,0,0,1,.554-2.491,15.467,15.467,0,0,1,22.917-8.59c.647.387.991.421,1.3-.334a7.243,7.243,0,0,1,.784-1.317c4.546-6.646,10.871-9.8,18.86-8.967a19.63,19.63,0,0,1,17.534,18.87c.032.623-.116.834-.767.982a11.068,11.068,0,0,0-8.855,8.669c-.6,2.365-.545,2.35,1.821,2.383.7.01.757-.288.81-.836a8.45,8.45,0,0,1,7.117-7.548,8.469,8.469,0,0,1,9.035,4.989,8.467,8.467,0,0,1-7.869,11.858c-4.159.045-8.319.009-12.478.009-1.465,0-1.465,0-1.579,1.4l-2.72,0c-.011-1.279,0-2.558-.045-3.835a.905.905,0,0,1,.6-.96,4.141,4.141,0,0,0,2.075-4.771A4.2,4.2,0,0,0-182.5,76a4.188,4.188,0,0,0-4.02,3.2,4.173,4.173,0,0,0,2.084,4.7c.325.181.628.285.609.78-.054,1.334-.042,2.669-.055,4l-5.566,0c-.014-1.165-.01-2.329-.047-3.493-.022-.7.322-1.653-.142-2.026-.438-.352-1.356-.081-2.059-.137-.51-.041-.6.165-.6.626.015,1.676-.014,3.353-.026,5.029l-2.848,0h-2.729l-2.848,0c-.012-1.165-.007-2.33-.043-3.494-.022-.7.321-1.653-.142-2.027-.437-.352-1.356-.08-2.058-.135-.508-.04-.6.164-.6.627.014,1.676-.016,3.352-.029,5.028l-5.566,0c-.014-1.249-.008-2.5-.052-3.748a.964.964,0,0,1,.6-1.049,4.135,4.135,0,0,0,2.116-4.6A4.214,4.214,0,0,0-210.564,76a4.2,4.2,0,0,0-4.172,3.121,4.185,4.185,0,0,0,2.072,4.782c.321.18.626.283.607.779C-212.109,86.017-212.093,87.354-212.1,88.69Zm27.2-35.27a14.039,14.039,0,0,1,13.063,9.648c.2.61.218,1.523.628,1.758.438.251,1.238-.18,1.886-.232.69-.056.742-.372.6-.955a16.786,16.786,0,0,0-7.586-10.523,16.867,16.867,0,0,0-9.759-2.539c-.539.018-.814.149-.653.739a3.126,3.126,0,0,1,.072.507C-186.494,53.375-186.494,53.375-184.9,53.42Zm-13.024,29.431v.939c0,2.113,0,2.094,2.14,2.08.516,0,.683-.124.669-.66-.039-1.451.015-2.9-.027-4.355a1.151,1.151,0,0,1,.707-1.249,4.083,4.083,0,0,0,2.026-4.564,4.229,4.229,0,0,0-3.707-3.274,4.276,4.276,0,0,0-4.317,2.572,3.84,3.84,0,0,0,1.238,4.808,2.622,2.622,0,0,1,1.274,2.934C-197.945,82.337-197.927,82.595-197.927,82.851ZM-212.07,60.562v-.426c0-1.1,0-1.1-1.072-1.035A12.73,12.73,0,0,0-224.4,68.757c-.314,1.344-.314,1.347.977,1.552a7.947,7.947,0,0,1,.929.121c.529.151.643-.072.75-.558a9.8,9.8,0,0,1,8.507-7.918C-212.07,61.774-212.07,61.774-212.07,60.562Zm22.91-6.906a17.819,17.819,0,0,1-.5-1.8c-.106-.6-.355-.62-.865-.445a17.029,17.029,0,0,0-8.736,6.61c-1.189,1.727-1.182,1.733.644,2.657a2.657,2.657,0,0,1,.378.193c.306.226.483.137.661-.181a14.034,14.034,0,0,1,8.012-6.616C-189.379,54.011-189.074,54.017-189.16,53.657Z" transform="translate(-1.904 -1.94)" fill="#e3e6e9"/>
      <path id="Trazado_124549" data-name="Trazado 124549" d="M-180.135,86.747c.114-1.4.114-1.4,1.579-1.4,4.159,0,8.319.036,12.478-.009a8.467,8.467,0,0,0,7.869-11.858,8.469,8.469,0,0,0-9.035-4.989,8.45,8.45,0,0,0-7.117,7.548c-.053.548-.111.846-.81.836-2.366-.033-2.416-.018-1.821-2.383a11.068,11.068,0,0,1,8.855-8.669c.65-.147.8-.359.767-.982A19.63,19.63,0,0,0-184.9,45.973c-7.989-.828-14.314,2.321-18.86,8.967a7.244,7.244,0,0,0-.784,1.317c-.306.755-.65.722-1.3.334a15.467,15.467,0,0,0-22.916,8.59,12.236,12.236,0,0,0-.554,2.491c-.064.721-.377.8-.978.767a8.148,8.148,0,0,0-7.258,3.228,8.007,8.007,0,0,0-.964,8.833,8.145,8.145,0,0,0,7.733,4.834c4.159.057,8.318.014,12.478.014,1.466,0,1.466,0,1.579,1.4-.112,1.4-.112,1.4-1.574,1.4-4.216,0-8.433.035-12.649-.009a11.256,11.256,0,0,1-11.244-11.669,11.3,11.3,0,0,1,9.657-10.751.921.921,0,0,0,.914-.772,18.22,18.22,0,0,1,19.6-13.386,16.874,16.874,0,0,1,5.332,1.424c.434.2.687.206,1.017-.249a22.255,22.255,0,0,1,19.448-9.723,22.632,22.632,0,0,1,21.31,18.563,16.728,16.728,0,0,1,.327,3.308c-.021.583.133.8.751.925a11.271,11.271,0,0,1,9.161,11.6A11.242,11.242,0,0,1-165.4,88.115c-4.67.1-9.344.017-14.016.048-.6,0-.739-.211-.683-.737A3.958,3.958,0,0,0-180.135,86.747Z" transform="translate(-0.003)" fill="#030303"/>
      <path id="Trazado_124550" data-name="Trazado 124550" d="M-177.188,164.255c-2.593,0-5.185-.018-7.778.014-.572.008-.707-.159-.707-.711,0-2.116-.018-2.14,2.109-2.122.591.005.819-.137.745-.744-.081-.669.289-1.591-.146-1.951-.412-.341-1.3-.122-1.976-.124-2.59-.007-4.2-1.059-4.794-3.129a4.834,4.834,0,0,1-.137-1.354c0-3.589-.011-7.179,0-10.768a4.241,4.241,0,0,1,4.54-4.537c1.995-.015,3.99-.034,5.983.014.67.017.788-.2.783-.818-.029-3.7,0-7.407-.03-11.11-.005-.624.119-.871.781-.793.643.075,1.493-.19,1.894.136.421.343.129,1.223.132,1.866.014,3.3.025,6.609-.01,9.913-.007.639.15.819.8.8,1.965-.045,3.932-.024,5.9-.014a4.265,4.265,0,0,1,4.613,4.637q.012,5.255,0,10.512a4.252,4.252,0,0,1-4.605,4.637c-.655,0-1.311.02-1.966-.007-.37-.015-.5.1-.483.477.037.737-.229,1.654.119,2.163s1.316.162,2.008.156c.555,0,.726.144.729.717.009,2.135.031,2.135-2.09,2.135Zm-.083-14.135c3.072,0,6.146-.013,9.218.012.567,0,.793-.109.78-.738-.041-1.991-.008-3.982-.017-5.973-.006-1.222-.506-1.738-1.693-1.739q-8.194-.009-16.388,0c-1.193,0-1.695.514-1.7,1.729-.01,1.991.022,3.983-.017,5.974-.012.613.189.754.77.748C-183.3,150.105-180.286,150.12-177.27,150.12Zm.088,2.847c-3.075,0-6.15.01-9.224-.01-.5,0-.685.091-.684.647,0,1.742.394,2.173,2.14,2.174q7.814,0,15.63,0c1.61,0,1.995-.429,2.053-2.007.027-.716-.233-.823-.862-.817C-171.146,152.983-174.164,152.967-177.182,152.967Zm.087,5.645h-.852c-2.186,0-2.174,0-2.076,2.232.019.431.131.6.584.6q2.258-.031,4.516,0c.453.007.565-.164.585-.6.1-2.232.11-2.232-2.076-2.232Z" transform="translate(-21.253 -33.746)" fill="#030404"/>
      <path id="Trazado_124551" data-name="Trazado 124551" d="M-124.843,169.094c-2.591,0-5.184-.015-7.775.012-.55.006-.844-.062-.775-.714.072-.673-.2-1.558.137-1.981.365-.457,1.285-.148,1.958-.136.575.011.783-.124.779-.748-.014-2.073.013-2.077-2.052-2.072a6.364,6.364,0,0,1-2.193-.242,4.3,4.3,0,0,1-2.852-4.232c-.014-3.616-.021-7.233,0-10.849a4.259,4.259,0,0,1,4.462-4.463c2.021-.027,4.045-.038,6.065.012.67.017.8-.2.779-.812-.046-1.394.007-2.79-.026-4.185-.012-.524.149-.669.673-.676,2.181-.025,2.181-.043,2.181,2.131,0,.912.039,1.825-.013,2.733-.035.61.1.827.771.809,1.964-.053,3.93-.027,5.895-.017a4.287,4.287,0,0,1,4.635,4.625q.006,5.3,0,10.593a4.269,4.269,0,0,1-4.6,4.569c-.655,0-1.311.018-1.965-.007-.363-.014-.543.087-.483.472a.684.684,0,0,1,0,.086c.012.709-.236,1.61.107,2.075.368.5,1.32.158,2.014.163.5,0,.732.1.684.655-.06.7.217,1.629-.138,2.055-.377.452-1.336.128-2.038.134C-120.684,169.106-122.764,169.094-124.843,169.094Zm-.075-14.137h9.141c.394,0,.779.091.766-.568-.039-2.106,0-4.214-.023-6.321-.013-1.06-.536-1.545-1.61-1.546q-8.244-.011-16.488,0c-1.12,0-1.628.5-1.634,1.605-.011,2.05.02,4.1-.018,6.15-.011.585.19.7.725.692C-131.012,154.945-127.965,154.956-124.918,154.956Zm-.018,2.85c-3.043,0-6.087-.005-9.13.011-.249,0-.622-.22-.713.321-.286,1.7.337,2.476,2.064,2.477q7.807,0,15.615,0c1.72,0,2.077-.394,2.091-2.119,0-.568-.164-.705-.713-.7C-118.793,157.82-121.865,157.806-124.936,157.806Zm.032,8.447h.684c2.194,0,2.179,0,2.142-2.179-.008-.466-.107-.651-.609-.632-1,.037-1.993.011-2.991.011-2.089,0-2.071,0-2.064,2.076,0,.534.112.777.7.735C-126.331,166.214-125.616,166.253-124.9,166.253Z" transform="translate(-42.475 -38.585)" fill="#050506"/>
      <path id="Trazado_124552" data-name="Trazado 124552" d="M-229.533,169.092c-2.592,0-5.184-.016-7.775.014-.529.006-.711-.128-.651-.659.078-.7-.289-1.6.144-2.059.4-.426,1.3-.141,1.974-.116.575.022.74-.172.694-.718-.056-.673.2-1.566-.14-1.969-.363-.428-1.283-.125-1.958-.129-2.693-.015-4.349-1.149-4.849-3.374a5.087,5.087,0,0,1-.1-1.1q-.012-5.382,0-10.764a4.264,4.264,0,0,1,4.532-4.554q3.076-.028,6.151.007c.482.006.626-.126.616-.612-.031-1.451.006-2.9-.021-4.356-.008-.482.064-.694.634-.7,2.219-.024,2.219-.048,2.219,2.2,0,.968.024,1.937-.01,2.9-.017.464.154.567.585.563,1.993-.019,3.987-.013,5.981-.007,2.989.009,4.735,1.74,4.74,4.708q.009,5.211,0,10.422c-.006,2.916-1.759,4.65-4.691,4.659h-.341c-2.251,0-2.241,0-2.061,2.315.029.366.139.5.5.493.6-.016,1.2.021,1.793-.011.458-.025.559.154.573.589.069,2.255.082,2.255-2.126,2.255Zm.017-14.137c3.047,0,6.094-.014,9.141.014.577,0,.781-.118.768-.738-.041-1.992-.011-3.986-.017-5.979,0-1.261-.483-1.733-1.765-1.735q-8.116-.005-16.232,0c-1.27,0-1.735.468-1.742,1.761-.011,1.993.017,3.986-.016,5.979-.01.569.175.712.723.708C-235.61,154.943-232.563,154.955-229.516,154.955Zm.14,2.85c-3.1,0-6.2,0-9.3.01-.255,0-.619-.2-.7.342-.258,1.715.35,2.456,2.091,2.457q7.807,0,15.614,0c1.675,0,2.02-.391,2.069-2.055.021-.682-.217-.773-.815-.767C-223.4,157.82-226.39,157.8-229.376,157.8Zm-.145,5.647h-.684c-2.184,0-2.166,0-2.11,2.2.013.5.179.624.645.61.967-.03,1.936-.009,2.905-.009,2.147,0,2.131,0,2.116-2.129,0-.5-.1-.72-.653-.682C-228.037,163.489-228.78,163.452-229.521,163.452Z" transform="translate(0 -38.583)" fill="#050506"/>
      <path id="Trazado_124553" data-name="Trazado 124553" d="M-193.949,112.77c.013-1.676.043-3.352.029-5.028,0-.463.09-.667.6-.627.7.055,1.621-.216,2.058.135.463.374.12,1.328.142,2.027.036,1.164.031,2.329.043,3.494-.012,3.957-.042,7.914-.02,11.871,0,.67-.17.836-.836.833-5.98-.027-11.962,0-17.942-.032-.745,0-1.029.132-1,.956.067,1.908.018,1.873-1.861,1.926-.757.022-1.029-.149-.982-.957.076-1.305.058-2.62,0-3.928-.027-.638.145-.8.789-.8,6.037.027,12.076,0,18.112.037.782,0,.934-.216.92-.947C-193.947,118.747-193.936,115.758-193.949,112.77Z" transform="translate(-11.568 -26.019)" fill="#010101"/>
      <path id="Trazado_124554" data-name="Trazado 124554" d="M-161.4,112.771c.012-1.676.041-3.353.026-5.029,0-.461.088-.667.6-.626.7.056,1.621-.215,2.059.137.464.373.12,1.327.142,2.026.037,1.164.033,2.328.047,3.493-.013,3.131-.015,6.262-.047,9.393-.008.716.486.49.824.49,6.009.01,12.019.023,18.027-.012.781,0,1,.195.962.97-.068,1.335-.049,2.677,0,4.014.02.581-.179.7-.719.7-2.118,0-2.15.015-2.121-2.093.009-.674-.215-.784-.825-.782-6.037.023-12.075,0-18.112.03-.666,0-.84-.163-.836-.833C-161.359,120.685-161.389,116.728-161.4,112.771Z" transform="translate(-32.819 -26.02)" fill="#010101"/>
      <path id="Trazado_124555" data-name="Trazado 124555" d="M-196.626,107.99c.011-1.336,0-2.672.048-4.006.02-.5-.286-.6-.607-.779a4.185,4.185,0,0,1-2.072-4.782,4.2,4.2,0,0,1,4.172-3.121,4.214,4.214,0,0,1,4.049,3.284,4.135,4.135,0,0,1-2.116,4.6.964.964,0,0,0-.6,1.049c.043,1.248.038,2.5.052,3.748-.107,1.4-.107,1.4-1.556,1.4C-196.541,109.389-196.541,109.389-196.626,107.99Zm1.42-7.054a1.466,1.466,0,0,0,1.454-1.382,1.468,1.468,0,0,0-1.382-1.454,1.469,1.469,0,0,0-1.452,1.382A1.465,1.465,0,0,0-195.206,100.936Z" transform="translate(-17.382 -21.241)" fill="#040304"/>
      <path id="Trazado_124556" data-name="Trazado 124556" d="M-149.087,107.989c.014-1.335,0-2.67.055-4,.02-.5-.284-.6-.609-.78a4.173,4.173,0,0,1-2.084-4.7,4.188,4.188,0,0,1,4.02-3.2,4.2,4.2,0,0,1,4.171,3.121,4.141,4.141,0,0,1-2.075,4.771.9.9,0,0,0-.6.96c.045,1.277.034,2.556.045,3.835-.085,1.4-.085,1.4-1.54,1.4C-148.98,109.389-148.98,109.389-149.087,107.989Zm1.5-9.887a1.461,1.461,0,0,0-1.451,1.383,1.463,1.463,0,0,0,1.382,1.452,1.469,1.469,0,0,0,1.451-1.384A1.469,1.469,0,0,0-147.585,98.1Z" transform="translate(-36.696 -21.241)" fill="#040304"/>
      <path id="Trazado_124557" data-name="Trazado 124557" d="M-130.542,123.809c2.137,0,4.274.018,6.41-.013.53-.008.673.134.659.662-.039,1.452-.027,2.906-.005,4.358.007.442-.053.645-.584.656-2.229.045-2.255.066-2.249-2.145,0-.633-.223-.737-.786-.733-3.248.024-6.5-.008-9.744.028-.649.007-.81-.167-.8-.806.031-2.007,0-2.008,1.972-2.008Z" transform="translate(-42.469 -32.814)" fill="#030303"/>
      <path id="Trazado_124558" data-name="Trazado 124558" d="M-216.1,123.81c2.109,0,4.217.017,6.325-.011.536-.007.733.1.732.695,0,2.114.021,2.114-2.124,2.114-2.792,0-5.585.017-8.377-.014-.6-.007-.841.1-.831.777.028,2.115,0,2.1-2.119,2.1-.542,0-.736-.118-.719-.7.043-1.451.034-2.906,0-4.358-.01-.482.127-.622.613-.616C-220.43,123.825-218.264,123.81-216.1,123.81Z" transform="translate(-7.713 -32.815)" fill="#030303"/>
      <path id="Trazado_124559" data-name="Trazado 124559" d="M-145.684,126.616c-1.443,0-1.443,0-1.443-1.476,0-1.324,0-1.324,1.337-1.324,1.517,0,1.517,0,1.517,1.558a.946.946,0,0,0,0,.169c.164.881-.194,1.234-1.074,1.075A1.956,1.956,0,0,0-145.684,126.616Z" transform="translate(-38.617 -32.823)" fill="#050506"/>
      <path id="Trazado_124560" data-name="Trazado 124560" d="M-193.27,126.616c-1.4,0-1.4,0-1.4-1.423,0-1.377,0-1.377,1.359-1.377,1.5,0,1.5,0,1.5,1.505C-191.816,126.616-191.816,126.616-193.27,126.616Z" transform="translate(-19.306 -32.823)" fill="#050506"/>
      <path id="Trazado_124561" data-name="Trazado 124561" d="M-170.816,116.667h2.729c.011.764.007,1.528.039,2.29.017.39-.093.524-.512.546-2.3.124-2.3.137-2.288-2.16C-170.847,117.118-170.827,116.893-170.816,116.667Z" transform="translate(-28.982 -29.919)" fill="#010101"/>
      <path id="Trazado_124562" data-name="Trazado 124562" d="M-150.2,55.322c-1.592-.045-1.591-.045-1.752-1.6a3.126,3.126,0,0,0-.072-.507c-.16-.59.114-.721.653-.739a16.868,16.868,0,0,1,9.759,2.539,16.786,16.786,0,0,1,7.586,10.523c.146.583.094.9-.6.955-.648.052-1.448.483-1.886.232-.41-.235-.425-1.148-.628-1.758A14.039,14.039,0,0,0-150.2,55.322Z" transform="translate(-36.611 -3.843)" fill="#040404"/>
      <path id="Trazado_124563" data-name="Trazado 124563" d="M-172.807,99.248c0-.257-.018-.514,0-.768a2.622,2.622,0,0,0-1.274-2.934,3.84,3.84,0,0,1-1.238-4.808A4.276,4.276,0,0,1-171,88.165a4.229,4.229,0,0,1,3.707,3.274A4.083,4.083,0,0,1-169.318,96a1.151,1.151,0,0,0-.707,1.249c.042,1.451-.012,2.9.027,4.355.014.536-.153.657-.669.66-2.14.015-2.14.033-2.14-2.08Zm2.787-6.843a1.4,1.4,0,0,0-1.368-1.434,1.4,1.4,0,0,0-1.414,1.388,1.4,1.4,0,0,0,1.368,1.433A1.4,1.4,0,0,0-170.02,92.4Z" transform="translate(-27.023 -18.337)" fill="#030303"/>
      <path id="Trazado_124564" data-name="Trazado 124564" d="M-203.22,68.288c0,1.212,0,1.212-1.17,1.391A9.8,9.8,0,0,0-212.9,77.6c-.107.485-.221.708-.75.558a7.947,7.947,0,0,0-.929-.121c-1.292-.2-1.292-.207-.977-1.552a12.73,12.73,0,0,1,11.262-9.656c1.071-.064,1.071-.064,1.072,1.035Z" transform="translate(-10.754 -9.666)" fill="#030303"/>
      <path id="Trazado_124565" data-name="Trazado 124565" d="M-163.559,56.073c.086.36-.219.355-.41.419a14.034,14.034,0,0,0-8.012,6.616c-.178.317-.355.406-.661.181a2.656,2.656,0,0,0-.378-.193c-1.826-.925-1.833-.93-.644-2.657a17.029,17.029,0,0,1,8.736-6.61c.51-.175.759-.157.865.445A17.82,17.82,0,0,0-163.559,56.073Z" transform="translate(-27.505 -4.356)" fill="#030404"/>
      <path id="Trazado_124566" data-name="Trazado 124566" d="M-175.363,160.78c-3.016,0-6.032-.014-9.048.012-.581.005-.782-.135-.77-.748.039-1.991.008-3.983.017-5.974.006-1.216.508-1.728,1.7-1.729q8.194-.008,16.388,0c1.187,0,1.687.517,1.693,1.739.01,1.991-.024,3.983.017,5.973.013.629-.214.742-.78.738C-169.217,160.767-172.29,160.78-175.363,160.78Z" transform="translate(-23.16 -44.407)" fill="#83d2ee"/>
      <path id="Trazado_124567" data-name="Trazado 124567" d="M-175.276,171.341c3.018,0,6.036.016,9.053-.013.629-.007.889.1.862.817-.059,1.578-.443,2.006-2.053,2.007q-7.815,0-15.63,0c-1.745,0-2.136-.432-2.14-2.174,0-.556.186-.65.684-.647C-181.425,171.351-178.35,171.341-175.276,171.341Z" transform="translate(-23.16 -52.12)" fill="#cbcfd6"/>
      <path id="Trazado_124568" data-name="Trazado 124568" d="M-170.376,180.856h.682c2.186,0,2.174,0,2.076,2.232-.02.432-.132.6-.585.6q-2.258-.031-4.516,0c-.453.007-.565-.164-.584-.6-.1-2.232-.11-2.232,2.076-2.232Z" transform="translate(-27.971 -55.99)" fill="#a5acb6"/>
      <path id="Trazado_124569" data-name="Trazado 124569" d="M-122.972,160.779c-3.047,0-6.094-.012-9.141.011-.535,0-.736-.107-.725-.692.037-2.049.007-4.1.018-6.15.007-1.1.514-1.6,1.634-1.605q8.244-.01,16.488,0c1.075,0,1.6.486,1.61,1.546.026,2.106-.016,4.214.023,6.321.012.66-.372.568-.766.568Z" transform="translate(-44.42 -44.408)" fill="#83d3ef"/>
      <path id="Trazado_124570" data-name="Trazado 124570" d="M-123.033,171.328c3.072,0,6.144.014,9.215-.012.549,0,.718.133.713.7-.015,1.726-.371,2.119-2.091,2.119q-7.807,0-15.615,0c-1.727,0-2.35-.773-2.064-2.477.091-.54.464-.319.713-.321C-129.119,171.323-126.076,171.328-123.033,171.328Z" transform="translate(-44.378 -52.107)" fill="#ccd0d7"/>
      <path id="Trazado_124571" data-name="Trazado 124571" d="M-118.143,183.652c-.712,0-1.427-.039-2.135.012-.591.042-.7-.2-.7-.735-.007-2.076-.024-2.076,2.064-2.076,1,0,2,.026,2.991-.011.5-.019.6.166.609.632.037,2.179.052,2.179-2.142,2.179Z" transform="translate(-49.236 -55.984)" fill="#aab0ba"/>
      <path id="Trazado_124572" data-name="Trazado 124572" d="M-227.585,160.779c-3.047,0-6.094-.012-9.141.012-.548,0-.732-.138-.723-.708.033-1.993,0-3.986.016-5.979.007-1.293.473-1.761,1.742-1.761q8.116-.006,16.232,0c1.282,0,1.762.473,1.765,1.735.007,1.993-.024,3.986.017,5.979.012.62-.192.742-.768.738C-221.491,160.765-224.538,160.779-227.585,160.779Z" transform="translate(-1.931 -44.408)" fill="#83d3ef"/>
      <path id="Trazado_124573" data-name="Trazado 124573" d="M-227.482,171.333c2.986,0,5.973.016,8.959-.013.6-.006.836.085.815.767-.049,1.664-.394,2.054-2.069,2.055q-7.806,0-15.614,0c-1.742,0-2.35-.742-2.091-2.457.082-.544.446-.341.7-.342C-233.682,171.328-230.582,171.333-227.482,171.333Z" transform="translate(-1.894 -52.112)" fill="#ccd0d7"/>
      <path id="Trazado_124574" data-name="Trazado 124574" d="M-222.768,180.85c.741,0,1.484.037,2.221-.012.555-.037.649.18.653.682.014,2.129.031,2.129-2.116,2.129-.969,0-1.938-.021-2.905.009-.467.014-.632-.107-.645-.61-.056-2.2-.074-2.2,2.11-2.2Z" transform="translate(-6.753 -55.981)" fill="#aab0ba"/>
      <path id="Trazado_124575" data-name="Trazado 124575" d="M-193.276,102.85a1.465,1.465,0,0,1-1.38-1.453,1.469,1.469,0,0,1,1.452-1.382,1.468,1.468,0,0,1,1.382,1.454A1.466,1.466,0,0,1-193.276,102.85Z" transform="translate(-19.312 -23.155)" fill="#d67480"/>
      <path id="Trazado_124576" data-name="Trazado 124576" d="M-145.657,100.016a1.469,1.469,0,0,1,1.383,1.451,1.469,1.469,0,0,1-1.451,1.384,1.463,1.463,0,0,1-1.382-1.452A1.461,1.461,0,0,1-145.657,100.016Z" transform="translate(-38.625 -23.155)" fill="#d67480"/>
      <path id="Trazado_124577" data-name="Trazado 124577" d="M-168.058,94.333a1.4,1.4,0,0,1-1.413,1.387,1.4,1.4,0,0,1-1.368-1.433,1.4,1.4,0,0,1,1.414-1.388A1.4,1.4,0,0,1-168.058,94.333Z" transform="translate(-28.986 -20.265)" fill="#d67480"/>
    </g>
  </g>
</svg>
