<svg xmlns="http://www.w3.org/2000/svg" xmlns:xlink="http://www.w3.org/1999/xlink" width="96" height="96" viewBox="0 0 96 96">
  <defs>
    <clipPath id="clip-path">
      <rect id="Rectángulo_34466" data-name="Rectángulo 34466" width="96" height="96" fill="#fff" stroke="#707070" stroke-width="1"/>
    </clipPath>
  </defs>
  <g id="Grupo_85118" data-name="Grupo 85118" clip-path="url(#clip-path)">
    <g id="Grupo_85120" data-name="Grupo 85120" transform="translate(356.513 1212.632)">
      <path id="Trazado_124882" data-name="Trazado 124882" d="M-289.145-1173.424h17.862c1.614,0,1.986.335,2.259,1.937a38.707,38.707,0,0,1-3.532,24.51c-5.907,11.689-15.324,19.114-28.192,21.616-14.046,2.732-26.318-1.176-36.459-11.261a38.062,38.062,0,0,1-11.151-23.338,39.861,39.861,0,0,1,19.956-39.547,38.923,38.923,0,0,1,22.617-5.138,39.773,39.773,0,0,1,22.5,8.833c1.228.981,1.264,1.979.068,2.963q-5.93,4.872-11.877,9.723c-1.005.821-1.41.835-2.534.171a21.309,21.309,0,0,0-31.944,14.923A21.3,21.3,0,0,0-312-1143.622a21.272,21.272,0,0,0,22.006-10.523c.49-.862.49-.863-.531-.864q-8.265,0-16.531,0c-1.752,0-2.243-.487-2.243-2.22q0-6.972,0-13.945c0-1.772.469-2.249,2.21-2.249Zm.128,3.158c-5.406,0-10.812.014-16.217-.017-.7,0-.87.193-.864.875.035,3.395.016,6.79.016,10.185,0,1.022,0,1.023.99,1.023q8.775,0,17.549,0c1.743,0,2.4.982,1.753,2.613a24.048,24.048,0,0,1-7.849,10.352c-.593.455-.5.652,0,1.059q4.355,3.52,8.663,7.1c.457.381.7.294,1.1-.064a36.736,36.736,0,0,0,8.5-11.237,36.849,36.849,0,0,0,3.491-21c-.074-.621-.245-.914-.991-.908C-278.258-1170.246-283.638-1170.265-289.017-1170.265Zm-19.6-18.891a24.159,24.159,0,0,1,11.453,2.83.885.885,0,0,0,1.162-.148q4.43-3.67,8.905-7.286c.511-.411.542-.591-.02-.982a36.731,36.731,0,0,0-26.242-6.527,35.765,35.765,0,0,0-14.758,5.28,36.715,36.715,0,0,0-12.268,12.615c-.209.354-.38.62.071.983,2.966,2.391,5.906,4.812,8.852,7.227.364.3.564.472.886-.149C-325.959-1184.214-318.552-1188.706-308.618-1189.156Zm.014,61.505a33.65,33.65,0,0,0,4.354-.308,36.18,36.18,0,0,0,16.465-6.122c.8-.543.811-.557.079-1.159-2.939-2.416-5.889-4.817-8.821-7.241a1.08,1.08,0,0,0-1.333-.145,24.044,24.044,0,0,1-13.9,2.27,23.37,23.37,0,0,1-8.288-2.656,24.428,24.428,0,0,1-10.247-10.345c-.268-.506-.443-.576-.906-.193q-4.4,3.641-8.843,7.224c-.373.3-.295.509-.089.842a37.332,37.332,0,0,0,6.985,8.381A37.219,37.219,0,0,0-308.6-1127.651Zm-33.534-52.15a1.67,1.67,0,0,0-.427.767,36.492,36.492,0,0,0-2.611,19.153,36.258,36.258,0,0,0,2.921,10.351c.169.376.245.731.782.285,3.073-2.552,6.171-5.073,9.268-7.6a.579.579,0,0,0,.216-.73,24.5,24.5,0,0,1-.18-13.514.6.6,0,0,0-.215-.734Q-337.268-1175.8-342.138-1179.8Z" transform="translate(0 0)" fill="#343434"/>
      <path id="Trazado_124883" data-name="Trazado 124883" d="M-196.119-1094.978c5.38,0,10.759.019,16.139-.022.746-.006.917.287.991.908a36.849,36.849,0,0,1-3.491,21,36.736,36.736,0,0,1-8.5,11.237c-.4.358-.639.445-1.1.064q-4.3-3.582-8.663-7.1c-.5-.406-.6-.6,0-1.059a24.048,24.048,0,0,0,7.849-10.352c.647-1.631-.01-2.612-1.753-2.613q-8.775-.006-17.549,0c-.989,0-.99,0-.99-1.023,0-3.4.019-6.79-.016-10.185-.007-.682.162-.879.864-.875C-206.931-1094.964-201.524-1094.978-196.119-1094.978Z" transform="translate(-92.898 -75.287)" fill="#5c8eee"/>
      <path id="Trazado_124884" data-name="Trazado 124884" d="M-291.092-1182.216c-9.934.45-17.341,4.942-21.958,13.845-.322.621-.523.447-.886.149-2.946-2.415-5.887-4.836-8.852-7.227-.451-.364-.28-.63-.071-.983a36.714,36.714,0,0,1,12.268-12.615,35.765,35.765,0,0,1,14.758-5.28,36.732,36.732,0,0,1,26.242,6.527c.561.391.53.571.02.982q-4.48,3.609-8.905,7.286a.885.885,0,0,1-1.162.147A24.16,24.16,0,0,0-291.092-1182.216Z" transform="translate(-17.527 -6.94)" fill="#de5141"/>
      <path id="Trazado_124885" data-name="Trazado 124885" d="M-290.426-1016.333a37.219,37.219,0,0,1-24.54-9.452,37.331,37.331,0,0,1-6.985-8.381c-.206-.333-.284-.541.089-.842q4.442-3.587,8.843-7.224c.463-.383.638-.313.906.193a24.428,24.428,0,0,0,10.247,10.345,23.369,23.369,0,0,0,8.288,2.656,24.044,24.044,0,0,0,13.9-2.27,1.08,1.08,0,0,1,1.333.145c2.931,2.424,5.882,4.825,8.821,7.241.732.6.724.616-.079,1.159a36.18,36.18,0,0,1-16.465,6.122A33.64,33.64,0,0,1-290.426-1016.333Z" transform="translate(-18.178 -111.318)" fill="#57af54"/>
      <path id="Trazado_124886" data-name="Trazado 124886" d="M-335.287-1125.294q4.873,3.992,9.753,7.983a.6.6,0,0,1,.215.734,24.5,24.5,0,0,0,.18,13.514.579.579,0,0,1-.216.73c-3.1,2.523-6.2,5.044-9.268,7.6-.537.446-.613.09-.782-.285a36.261,36.261,0,0,1-2.921-10.351,36.493,36.493,0,0,1,2.611-19.153A1.67,1.67,0,0,1-335.287-1125.294Z" transform="translate(-6.85 -54.506)" fill="#f0bb41"/>
    </g>
  </g>
</svg>
