<svg xmlns="http://www.w3.org/2000/svg" xmlns:xlink="http://www.w3.org/1999/xlink" width="133.918" height="133.918" viewBox="0 0 133.918 133.918">
  <defs>
    <clipPath id="clip-path">
      <rect id="Rectángulo_36656" data-name="Rectángulo 36656" width="133.918" height="133.918" fill="#fff" stroke="#707070" stroke-width="1"/>
    </clipPath>
  </defs>
  <g id="Grupo_85916" data-name="Grupo 85916" clip-path="url(#clip-path)">
    <g id="Grupo_85917" data-name="Grupo 85917" transform="translate(-1051.302 -704.344)">
      <path id="Trazado_127749" data-name="Trazado 127749" d="M1131.624,823.572l-3.776.013c-.54-1.531-.814-1.723-2.537-1.723-15.511,0-31.023-.05-46.534.031a6.622,6.622,0,0,1-6.956-6.955c.083-30.7.045-61.406.047-92.109,0-4.39,2.458-6.852,6.836-6.852q14.222,0,28.444,0c1.569,0,1.979-.3,2.427-1.705l3.475,0a2.156,2.156,0,0,0,2.45,1.721c9.267-.02,18.536.008,27.8.021a9.2,9.2,0,0,1,2.849,7.152q.021,26.516,0,53.031c0,.417.148.885-.265,1.221-.339-.271-.666-.557-1.019-.809a6.436,6.436,0,0,0-10.013,3.695c-.271,1.228-.778,1.327-1.792,1.326q-24.638-.035-49.276-.014c-2.584,0-4.155,1.4-4.207,3.8-.05,2.34-.039,4.682,0,7.022a3.735,3.735,0,0,0,2.563,3.634,5.668,5.668,0,0,0,1.886.163q24.7,0,49.4-.017c.919,0,1.228.214,1.2,1.174-.069,2.418-.016,4.839-.032,7.259,0,.277.175.642-.271.847-1.558-1.842-3.064-3.735-4.69-5.518a6.314,6.314,0,0,0-10.048.754,7.447,7.447,0,0,0,.625,9.136Q1125.914,816.723,1131.624,823.572Zm-20.357-48.542q13.923,0,27.847,0a3.675,3.675,0,0,0,3.957-3.913c.015-2.3-.009-4.6.008-6.9a3.779,3.779,0,0,0-.969-2.61,4.34,4.34,0,0,0-3.578-1.234q-15.768.018-31.536.007-11.424,0-22.848,0c-3.2,0-4.578,1.371-4.58,4.537,0,1.944-.006,3.887,0,5.831.01,2.868,1.442,4.285,4.328,4.285Q1097.582,775.031,1111.267,775.029Zm.36-20.455a14.759,14.759,0,0,0,2.763-.272c7.271-1.292,13.12-8.279,12.966-15.5a1.8,1.8,0,1,0-3.574-.11c-.051.631-.091,1.265-.194,1.888a12.427,12.427,0,1,1-14.915-14.151c1-.217,2.048-.215,3.055-.411a1.736,1.736,0,0,0-.234-3.423,12.538,12.538,0,0,0-2.491.1c-8.161,1.216-14.313,8.719-13.7,16.668A16.094,16.094,0,0,0,1111.627,754.574Zm-20.1,46.933c-2.1,0-4.2-.034-6.3.008a5.485,5.485,0,0,0-5.591,4.937,15.771,15.771,0,0,0,.008,4.03,5.231,5.231,0,0,0,4.817,4.781,132.955,132.955,0,0,0,14.129,0,5.248,5.248,0,0,0,4.786-4.547,17.942,17.942,0,0,0,.1-3.319,5.584,5.584,0,0,0-5.9-5.888C1095.567,801.492,1093.546,801.506,1091.526,801.507Zm21.574-64.121c0-1.824.019-3.647-.007-5.47a1.727,1.727,0,0,0-1.889-1.936c-.792-.026-1.586-.019-2.378,0-1.278.026-1.971.62-2.008,1.692a1.731,1.731,0,0,0,1.871,1.848c.669.031.862.207.854.877-.036,2.774-.031,5.549,0,8.324.006.617-.09.891-.814.9a1.723,1.723,0,0,0-1.912,1.8c.018,1.1.765,1.733,2.089,1.743q2.438.02,4.876,0c1.286-.011,2.1-.7,2.11-1.754a1.8,1.8,0,0,0-1.952-1.79c-.686-.015-.866-.221-.85-.882C1113.129,740.954,1113.1,739.17,1113.1,737.386Zm12.737-8.35a1.8,1.8,0,0,0-1.651-1.742c-.736-.109-1.686.289-2.162-.2s-.067-1.438-.176-2.177a1.737,1.737,0,0,0-1.884-1.581,1.672,1.672,0,0,0-1.657,1.68,3.888,3.888,0,0,0,0,.948c.151,1-.151,1.475-1.254,1.315a3.743,3.743,0,0,0-1.524.13,1.6,1.6,0,0,0-1.205,1.7,1.64,1.64,0,0,0,1.3,1.637,4.181,4.181,0,0,0,.941.092c1.712.041,1.712.038,1.734,1.763,0,.04,0,.079,0,.119.029,1.311.668,2.067,1.757,2.078s1.771-.756,1.816-2.037c.065-1.839.065-1.836,1.916-1.924a3.2,3.2,0,0,0,.82-.109A1.758,1.758,0,0,0,1125.838,729.036Z" transform="translate(-3.871 -2.05)" fill="#8cc9ec"/>
      <path id="Trazado_127750" data-name="Trazado 127750" d="M1140.095,890.61q-5.71-6.849-11.418-13.7a7.447,7.447,0,0,1-.625-9.135,6.314,6.314,0,0,1,10.048-.754c1.625,1.783,3.131,3.677,4.69,5.518.446-.205.27-.57.271-.847.016-2.42-.037-4.841.032-7.259.028-.961-.281-1.176-1.2-1.174q-24.7.04-49.4.017a5.666,5.666,0,0,1-1.885-.163,3.735,3.735,0,0,1-2.563-3.634c-.037-2.34-.048-4.682,0-7.021.052-2.4,1.623-3.8,4.207-3.8q24.638-.008,49.276.014c1.013,0,1.52-.1,1.792-1.326a6.436,6.436,0,0,1,10.013-3.695c.352.252.68.539,1.019.809a8,8,0,0,1,1.745,5.5c-.081,3.034-.021,6.072-.021,9.247a7.433,7.433,0,0,1,4.958-.448,8.628,8.628,0,0,1,2.306,1.4c.354.365.557.194.88-.044,2.926-2.15,5.594-2.17,8.465-.021.465.348.682.264,1.08-.05a6.172,6.172,0,0,1,6.987-.847,6.368,6.368,0,0,1,3.659,6.159c0,2.533-.035,5.067.014,7.6a2.006,2.006,0,0,1-1.677,2.328c-1.51-.341-1.9-.813-1.91-2.347-.01-2.6.036-5.21-.02-7.814a2.843,2.843,0,0,0-4.288-2.6,2.37,2.37,0,0,0-1.381,1.533,2.018,2.018,0,0,1-1.98,1.429,1.975,1.975,0,0,1-1.941-1.476,2.258,2.258,0,0,0-.109-.211,2.793,2.793,0,0,0-2.646-1.7,2.7,2.7,0,0,0-2.639,1.7c-.406.95-.954,1.689-2.05,1.7-1.156.015-1.708-.764-2.144-1.747a2.825,2.825,0,0,0-2.9-1.653,2.942,2.942,0,0,0-2.563,2.31c-.073.306-.058.633-.131.94a1.771,1.771,0,0,1-3.47.042,4.79,4.79,0,0,1-.067-1.181c0-5.038.009-10.075-.013-15.113a2.96,2.96,0,0,0-2.354-3.017,2.91,2.91,0,0,0-3.224,1.672,5.046,5.046,0,0,0-.264,2.1q0,13.447,0,26.894c0,.4,0,.795-.032,1.188a1.707,1.707,0,0,1-1.255,1.565,1.656,1.656,0,0,1-1.827-.524c-.412-.428-.779-.9-1.162-1.354-2.244-2.672-4.455-5.373-6.741-8.01-1.668-1.923-4.21-1.377-5.055,1.032a3.926,3.926,0,0,0,.911,4.07c4.3,5.091,8.5,10.267,12.9,15.267,1.654,1.88,2.657,3.766,2.269,6.281-.172,1.118.287,1.511,1.463,1.5,7.458-.05,14.916-.023,22.373-.031a3.7,3.7,0,0,0,1.754-.184c4.437-.306,8.408-4.516,8.557-9.161.078-2.413.021-4.831.034-7.247.008-1.548.393-2.014,1.91-2.359a1.933,1.933,0,0,1,1.669,2.214c-.126,3.084.26,6.185-.25,9.255a13.416,13.416,0,0,1-12.683,11.026c-8.085.1-16.173.046-24.259.022a4.109,4.109,0,0,1-4.1-3.709,1.133,1.133,0,0,1-.039-.353C1143.716,894.3,1141.916,892.45,1140.095,890.61Zm-22.718-30.9c8.133,0,16.267-.027,24.4.031,1.142.008,1.37-.351,1.319-1.381a41.715,41.715,0,0,1,.007-4.877c.074-1.094-.3-1.277-1.311-1.276q-24.4.049-48.8.023a4.948,4.948,0,0,1-.594,0c-.641-.079-.807.218-.8.823.032,1.824.079,3.653-.015,5.473-.054,1.047.331,1.212,1.273,1.207C1101.031,859.69,1109.2,859.705,1117.377,859.705Z" transform="translate(-12.342 -69.088)" fill="#030304"/>
      <path id="Trazado_127751" data-name="Trazado 127751" d="M1105.7,712.218c-.447,1.41-.858,1.705-2.426,1.705q-14.222,0-28.444,0c-4.377,0-6.836,2.463-6.836,6.853,0,30.7.036,61.406-.047,92.109a6.622,6.622,0,0,0,6.956,6.955c15.511-.081,31.023-.032,46.534-.031,1.723,0,2,.192,2.537,1.723-.461,1.51-.89,1.846-2.455,1.846q-23.5,0-47-.006a9.7,9.7,0,0,1-10.1-10.12q-.014-46.4,0-92.8a9.678,9.678,0,0,1,10.1-10.1q14.4-.017,28.794,0C1104.909,710.354,1105.382,710.731,1105.7,712.218Z" fill="#020303"/>
      <path id="Trazado_127752" data-name="Trazado 127752" d="M1188.509,713.964c-9.268-.013-18.536-.041-27.8-.021a2.156,2.156,0,0,1-2.45-1.721c.439-1.565.821-1.87,2.406-1.87q14.332,0,28.662,0c6.148,0,10.256,4.11,10.276,10.3.021,6.3,0,12.606,0,18.908q0,21.941,0,43.881c0,1.746-.252,2.1-1.8,2.614-1.607-.547-1.768-.79-1.768-2.748q0-31.058,0-62.115a9.884,9.884,0,0,0-.276-2.829C1194.86,715.306,1192.306,713.762,1188.509,713.964Z" transform="translate(-49.078 0)" fill="#050505"/>
      <path id="Trazado_127753" data-name="Trazado 127753" d="M1221.682,717.91c3.8-.2,6.351,1.341,7.252,4.394a9.883,9.883,0,0,1,.276,2.829q0,31.058,0,62.115c0,1.958.16,2.2,1.768,2.748q-.014,1.809-.029,3.618a7.432,7.432,0,0,0-4.958.448c0-3.175-.06-6.213.021-9.247a8,8,0,0,0-1.745-5.5c.413-.335.265-.8.265-1.22q.01-26.516,0-53.031A9.2,9.2,0,0,0,1221.682,717.91Z" transform="translate(-82.252 -3.945)" fill="#63a6d0"/>
      <path id="Trazado_127754" data-name="Trazado 127754" d="M1275.117,900.413c-1.517.345-1.9.81-1.91,2.359-.013,2.416.044,4.834-.034,7.247-.149,4.645-4.12,8.855-8.557,9.161a13.154,13.154,0,0,0,5.052-11.3c-.2-6.924-.063-13.858-.038-20.788a5.663,5.663,0,0,0-.731-2.947,2.844,2.844,0,0,1,4.288,2.6c.056,2.6.01,5.209.02,7.814.005,1.534.4,2.006,1.91,2.347Q1275.117,898.66,1275.117,900.413Z" transform="translate(-104.707 -90.709)" fill="#d7997a"/>
      <path id="Trazado_127755" data-name="Trazado 127755" d="M1119.759,825.579q-13.686,0-27.371,0c-2.887,0-4.319-1.418-4.328-4.285-.006-1.944,0-3.887,0-5.831,0-3.166,1.377-4.534,4.58-4.537q11.424-.007,22.848,0,15.768,0,31.536-.007a4.34,4.34,0,0,1,3.578,1.234,3.78,3.78,0,0,1,.969,2.61c-.016,2.3.007,4.6-.008,6.9a3.675,3.675,0,0,1-3.957,3.913Q1133.681,825.587,1119.759,825.579Zm.112-3.575c8.924,0,17.849-.016,26.772.021,1.014,0,1.46-.149,1.378-1.308a40.57,40.57,0,0,1-.006-4.994c.053-.989-.224-1.244-1.224-1.24-10.947.039-21.894.024-32.841.024-7.021,0-14.041.018-21.061-.021-.946-.005-1.331.175-1.277,1.216a50.653,50.653,0,0,1,0,5.233c-.048.943.281,1.089,1.13,1.087C1101.784,821.993,1110.828,822,1119.871,822Z" transform="translate(-12.363 -52.6)" fill="#040405"/>
      <path id="Trazado_127756" data-name="Trazado 127756" d="M1137.338,763.681a16.1,16.1,0,0,1-16.318-15.209c-.618-7.949,5.534-15.451,13.7-16.668a12.529,12.529,0,0,1,2.491-.1,1.736,1.736,0,0,1,.234,3.423c-1.007.2-2.054.194-3.055.411a12.428,12.428,0,1,0,14.915,14.151c.1-.623.143-1.257.194-1.888a1.8,1.8,0,1,1,3.574.11c.154,7.222-5.695,14.209-12.966,15.5A14.76,14.76,0,0,1,1137.338,763.681Z" transform="translate(-29.581 -11.157)" fill="#020304"/>
      <path id="Trazado_127757" data-name="Trazado 127757" d="M1099.961,897.152c2.02,0,4.041-.015,6.06,0a5.584,5.584,0,0,1,5.9,5.888,17.943,17.943,0,0,1-.1,3.319,5.248,5.248,0,0,1-4.785,4.547,132.96,132.96,0,0,1-14.129,0,5.231,5.231,0,0,1-4.817-4.781,15.753,15.753,0,0,1-.008-4.029,5.485,5.485,0,0,1,5.591-4.937C1095.762,897.119,1097.862,897.153,1099.961,897.152Zm-.036,10.3h4.284c4,0,4.187-.186,4.145-4.135-.021-1.9-.688-2.587-2.584-2.592-3.371-.01-6.742,0-10.114,0-3.947,0-4.143.2-4.084,4.186.027,1.819.7,2.517,2.523,2.538C1096.038,907.472,1097.981,907.453,1099.925,907.454Z" transform="translate(-12.305 -97.695)" fill="#040505"/>
      <path id="Trazado_127758" data-name="Trazado 127758" d="M1151.472,754.6c0,1.783.028,3.568-.014,5.351-.016.661.164.868.85.882a1.8,1.8,0,0,1,1.952,1.79c-.014,1.056-.824,1.743-2.11,1.754q-2.438.02-4.876,0c-1.324-.01-2.072-.648-2.089-1.743a1.723,1.723,0,0,1,1.912-1.8c.725-.013.82-.286.814-.9-.027-2.775-.033-5.55,0-8.324.009-.67-.185-.845-.854-.877a1.731,1.731,0,0,1-1.871-1.848c.036-1.072.73-1.666,2.008-1.692.792-.016,1.586-.023,2.378,0a1.727,1.727,0,0,1,1.889,1.936C1151.49,750.95,1151.472,752.773,1151.472,754.6Z" transform="translate(-42.243 -19.26)" fill="#020303"/>
      <path id="Trazado_127759" data-name="Trazado 127759" d="M1172.437,738.972a1.759,1.759,0,0,1-1.234,1.695,3.2,3.2,0,0,1-.82.109c-1.852.088-1.852.085-1.916,1.924-.045,1.281-.728,2.048-1.816,2.037s-1.728-.767-1.757-2.078c0-.04,0-.079,0-.119-.022-1.725-.022-1.721-1.734-1.763a4.181,4.181,0,0,1-.941-.092,1.64,1.64,0,0,1-1.3-1.637,1.6,1.6,0,0,1,1.205-1.7,3.742,3.742,0,0,1,1.523-.13c1.1.16,1.406-.317,1.255-1.315a3.888,3.888,0,0,1,0-.948,1.672,1.672,0,0,1,1.657-1.68,1.737,1.737,0,0,1,1.884,1.581c.109.739-.3,1.685.176,2.177s1.426.091,2.162.2A1.8,1.8,0,0,1,1172.437,738.972Z" transform="translate(-50.471 -11.986)" fill="#020304"/>
      <path id="Trazado_127760" data-name="Trazado 127760" d="M1222.952,866.468a5.664,5.664,0,0,1,.731,2.947c-.026,6.93-.16,13.863.038,20.788a13.154,13.154,0,0,1-5.052,11.3,3.705,3.705,0,0,1-1.754.184c-7.458.009-14.916-.019-22.373.031-1.176.008-1.635-.385-1.462-1.5.388-2.516-.614-4.4-2.269-6.281-4.4-5-8.6-10.175-12.9-15.267a3.926,3.926,0,0,1-.91-4.07c.845-2.408,3.388-2.955,5.056-1.032,2.286,2.636,4.5,5.337,6.741,8.009.383.456.75.926,1.162,1.354a1.657,1.657,0,0,0,1.827.524,1.707,1.707,0,0,0,1.254-1.565c.036-.393.032-.792.032-1.188q0-13.447,0-26.894a5.044,5.044,0,0,1,.264-2.1,2.909,2.909,0,0,1,3.224-1.672,2.96,2.96,0,0,1,2.354,3.017c.022,5.037.009,10.075.013,15.113a4.8,4.8,0,0,0,.067,1.181,1.771,1.771,0,0,0,3.47-.042c.073-.307.057-.634.131-.94a2.942,2.942,0,0,1,2.563-2.31,2.825,2.825,0,0,1,2.9,1.653c.436.983.988,1.761,2.144,1.747,1.1-.014,1.644-.753,2.05-1.7a2.7,2.7,0,0,1,2.639-1.7,2.793,2.793,0,0,1,2.645,1.7,2.257,2.257,0,0,1,.109.211,1.974,1.974,0,0,0,1.941,1.476,2.018,2.018,0,0,0,1.98-1.429A2.37,2.37,0,0,1,1222.952,866.468Z" transform="translate(-58.76 -73.027)" fill="#ebbb98"/>
      <path id="Trazado_127761" data-name="Trazado 127761" d="M1121.286,870.4c-8.173,0-16.346-.015-24.518.021-.941,0-1.327-.16-1.273-1.207.094-1.82.047-3.648.015-5.473-.01-.6.156-.9.8-.823a4.95,4.95,0,0,0,.594,0q24.4,0,48.8-.023c1.01,0,1.385.182,1.311,1.276a41.662,41.662,0,0,0-.007,4.877c.052,1.031-.177,1.39-1.319,1.381C1137.553,870.378,1129.419,870.4,1121.286,870.4Zm-13.424-1.945a1.8,1.8,0,1,0,.045-3.575,1.8,1.8,0,1,0-.045,3.575Zm7.284,0a1.8,1.8,0,0,0,2.031-1.82,1.777,1.777,0,0,0-1.966-1.755,1.8,1.8,0,1,0-.065,3.575Zm14.766-3.574c-1.271-.046-2.088.615-2.122,1.716a1.77,1.77,0,0,0,1.87,1.859,1.888,1.888,0,0,0,2.154-1.727A1.819,1.819,0,0,0,1129.913,864.886Zm-29.347,3.574a1.827,1.827,0,0,0,2.032-1.808,1.808,1.808,0,0,0-1.945-1.767,1.8,1.8,0,1,0-.087,3.575Zm21.942-3.575a1.8,1.8,0,1,0,1.991,1.837A1.807,1.807,0,0,0,1122.507,864.885Z" transform="translate(-16.251 -79.788)" fill="#e9ecef"/>
      <path id="Trazado_127762" data-name="Trazado 127762" d="M1123.764,825.914c-9.043,0-18.087-.011-27.13.019-.849,0-1.178-.144-1.13-1.086a50.687,50.687,0,0,0,0-5.233c-.054-1.041.33-1.221,1.277-1.216,7.02.038,14.04.021,21.061.021,10.947,0,21.894.015,32.841-.024,1,0,1.277.251,1.224,1.24a40.592,40.592,0,0,0,.006,4.994c.082,1.159-.364,1.312-1.377,1.308C1141.612,825.9,1132.688,825.914,1123.764,825.914Z" transform="translate(-16.256 -56.51)" fill="#eaedf0"/>
      <path id="Trazado_127763" data-name="Trazado 127763" d="M1103.893,911.38c-1.944,0-3.887.018-5.83-.006-1.824-.022-2.5-.72-2.523-2.539-.059-3.985.137-4.186,4.084-4.186,3.371,0,6.743-.007,10.114,0,1.9.006,2.563.688,2.584,2.592.042,3.949-.145,4.135-4.145,4.135Z" transform="translate(-16.273 -101.622)" fill="#e7cc60"/>
      <path id="Trazado_127764" data-name="Trazado 127764" d="M1119.262,870.635a1.8,1.8,0,1,1,.045-3.575,1.8,1.8,0,1,1-.045,3.575Z" transform="translate(-27.651 -81.963)" fill="#070707"/>
      <path id="Trazado_127765" data-name="Trazado 127765" d="M1134.513,870.635a1.8,1.8,0,1,1,.065-3.575,1.777,1.777,0,0,1,1.966,1.755A1.8,1.8,0,0,1,1134.513,870.635Z" transform="translate(-35.618 -81.963)" fill="#070707"/>
      <path id="Trazado_127766" data-name="Trazado 127766" d="M1165.33,867.058a1.818,1.818,0,0,1,1.9,1.847,1.888,1.888,0,0,1-2.154,1.727,1.771,1.771,0,0,1-1.87-1.859C1163.242,867.673,1164.059,867.013,1165.33,867.058Z" transform="translate(-51.668 -81.961)" fill="#070707"/>
      <path id="Trazado_127767" data-name="Trazado 127767" d="M1103.93,870.634a1.8,1.8,0,1,1,.087-3.575,1.808,1.808,0,0,1,1.945,1.767A1.827,1.827,0,0,1,1103.93,870.634Z" transform="translate(-19.615 -81.962)" fill="#070707"/>
      <path id="Trazado_127768" data-name="Trazado 127768" d="M1149.886,867.06a1.807,1.807,0,0,1,1.991,1.837,1.826,1.826,0,0,1-1.983,1.738,1.8,1.8,0,1,1-.008-3.575Z" transform="translate(-43.629 -81.963)" fill="#070707"/>
    </g>
  </g>
</svg>
