<svg xmlns="http://www.w3.org/2000/svg" xmlns:xlink="http://www.w3.org/1999/xlink" width="133.918" height="133.918" viewBox="0 0 133.918 133.918">
  <defs>
    <clipPath id="clip-path">
      <rect id="Rectángulo_36657" data-name="Rectángulo 36657" width="133.918" height="133.918" fill="#fff" stroke="#707070" stroke-width="1"/>
    </clipPath>
  </defs>
  <g id="Grupo_85919" data-name="Grupo 85919" clip-path="url(#clip-path)">
    <g id="Grupo_85924" data-name="Grupo 85924" transform="translate(-633.708 -697.502)">
      <path id="Trazado_127769" data-name="Trazado 127769" d="M700.764,707.364h50.745c4.078,0,6.262,2.179,6.263,6.247q0,36.13,0,72.259c0,3.991-2.222,6.23-6.183,6.231-8.625,0-17.25.017-25.874-.024-.946,0-1.16.248-1.137,1.16.062,2.516.018,2.5,2.568,2.523a26.7,26.7,0,0,1,3.785.087,5.411,5.411,0,0,1,4.722,5.25c.061,5.054.076,10.111,0,15.164a5.452,5.452,0,0,1-5.748,5.292q-16.618.013-33.235,0-12.491,0-24.982,0c-3.734,0-6.021-2.3-6.025-6.05q-.007-6.858,0-13.716c0-3.746,2.289-6.021,6.051-6.036,1.412-.006,2.826-.031,4.238.012.649.02.792-.215.8-.83.051-2.836.071-2.836-2.774-2.836q-12.1,0-24.2,0c-3.983,0-6.211-2.225-6.211-6.2q0-36.185,0-72.37c0-3.921,2.228-6.165,6.123-6.165Q675.224,707.362,700.764,707.364Zm.023,3.7q-25.311,0-50.623,0c-.446,0-.893,0-1.336.04a1.549,1.549,0,0,0-1.411,1.1,5.594,5.594,0,0,0-.155,1.652q-.011,28.095-.006,56.191,0,8.027,0,16.054c0,1.637.615,2.272,2.179,2.273,10.035.007,20.071,0,30.106.02.694,0,.873-.182.858-.866-.046-2.117-.039-4.237-.01-6.355a3.655,3.655,0,0,1,3.784-3.8c1.115-.019,2.23-.012,3.345,0a3.7,3.7,0,0,1,3.952,3.984c.018,1.412,0,2.824,0,4.237,0,2.85,0,2.82,2.81,2.809.715,0,.859-.22.846-.883q-.061-3.176-.007-6.355a3.66,3.66,0,0,1,3.8-3.791c1.115-.018,2.23-.012,3.345,0a3.69,3.69,0,0,1,3.936,3.883c.024,1.449,0,2.9,0,4.348,0,2.848,0,2.816,2.818,2.8.729,0,.848-.249.837-.894-.036-2.118-.046-4.237,0-6.355a3.655,3.655,0,0,1,3.81-3.78c1.078-.017,2.155-.01,3.233,0a3.709,3.709,0,0,1,4.036,4.007c.013,1.9.066,3.794-.022,5.685-.049,1.035.171,1.355,1.292,1.349,9.7-.053,19.4-.03,29.1-.031,2.337,0,2.761-.433,2.761-2.816q0-35.844,0-71.687c0-2.359-.445-2.808-2.778-2.808Zm-.155,99.434H720.36q5.35,0,10.7,0c.4,0,.917.183.91-.579-.027-2.9.008-5.8-.036-8.692a1.678,1.678,0,0,0-1.783-1.742c-1.634-.036-3.269-.011-4.9-.011-.335,0-.581-.017-.707.464-.617,2.369-1.7,3.181-4.112,3.185q-4.848.009-9.7,0-14.936,0-29.871,0c-2.342,0-3.559-.91-4.06-3.115-.119-.523-.366-.539-.758-.537-1.486.008-2.972,0-4.458,0-1.586.008-2.2.619-2.209,2.238-.014,2.489.051,4.979-.03,7.466-.034,1.04.19,1.358,1.3,1.353C680.643,810.477,690.638,810.5,700.631,810.5Zm-.025-11.034c6.429,0,12.859-.014,19.288.018.8,0,1.1-.144,1.068-1.021-.075-1.818-.044-3.641-.011-5.461.012-.624-.077-.917-.826-.915q-19.455.036-38.91,0c-.738,0-.848.269-.835.907.037,1.82.063,3.643-.009,5.461-.034.863.247,1.034,1.06,1.03C687.823,799.449,694.215,799.465,700.607,799.465Zm.054,14.734H674.136c-1.337,0-2.675-.008-4.012.006-.3,0-.638-.134-.756.391-.464,2.075.432,3.252,2.55,3.252q28.753,0,57.506,0a5.731,5.731,0,0,0,1.109-.063c1.132-.226,1.587-1.188,1.419-2.974-.111-1.182-1.042-.577-1.537-.579C720.5,814.188,710.579,814.2,700.66,814.2Zm-12.907-29.542c0-1-.02-2,.006-3.006.024-.931-.709-.7-1.087-.595-.847.241-1.991-.746-2.553.592a1.54,1.54,0,0,0-.01.553v3.675c0,2.512,0,2.481,2.545,2.521.824.013,1.212-.138,1.119-1.068C687.684,786.445,687.754,785.547,687.753,784.656Zm14.735.208v-1.113c0-2.869,0-2.851-2.891-2.744-.577.021-.778.18-.762.762.034,1.3.011,2.6.011,3.9,0,2.831,0,2.815,2.891,2.725.564-.017.793-.142.763-.744C702.453,786.721,702.487,785.792,702.488,784.864Zm11.091-.185v.891c0,2.936,0,2.917,2.9,2.822.583-.019.769-.175.752-.76-.039-1.3-.012-2.6-.012-3.9,0-2.792,0-2.792-2.8-2.714a1.547,1.547,0,0,1-.223,0c-.5-.059-.638.19-.628.652C713.594,782.675,713.579,783.678,713.579,784.68Z" transform="translate(0)" fill="#050505"/>
      <path id="Trazado_127770" data-name="Trazado 127770" d="M705.356,715.645h50.512c2.334,0,2.778.45,2.778,2.808q0,35.843,0,71.688c0,2.383-.425,2.815-2.761,2.816-9.7,0-19.4-.022-29.1.031-1.121.006-1.341-.314-1.292-1.349.089-1.891.036-3.789.022-5.685a3.709,3.709,0,0,0-4.036-4.007c-1.078-.008-2.156-.015-3.233,0a3.655,3.655,0,0,0-3.81,3.78c-.042,2.117-.032,4.237,0,6.355.011.645-.108.89-.837.894-2.819.017-2.818.048-2.818-2.8,0-1.449.019-2.9,0-4.348a3.69,3.69,0,0,0-3.936-3.883c-1.115-.011-2.231-.016-3.345,0a3.66,3.66,0,0,0-3.8,3.791q-.053,3.176.007,6.355c.013.663-.132.88-.846.883-2.81.011-2.81.041-2.81-2.809,0-1.412.014-2.824,0-4.237a3.7,3.7,0,0,0-3.952-3.984c-1.115-.01-2.23-.017-3.345,0a3.655,3.655,0,0,0-3.784,3.8c-.029,2.118-.036,4.237.01,6.355.015.684-.164.868-.858.866-10.036-.024-20.071-.013-30.106-.02-1.564,0-2.175-.636-2.179-2.273q-.017-8.028,0-16.054,0-28.1.006-56.191a5.594,5.594,0,0,1,.155-1.652,1.549,1.549,0,0,1,1.411-1.1c.443-.039.89-.04,1.336-.04Q680.044,715.644,705.356,715.645Zm-.123,3.66q-22.69,0-45.379,0c-2.976,0-4.357,1.385-4.357,4.362q0,23.244,0,46.488c0,3.036,1.389,4.434,4.417,4.434q45.324,0,90.648,0c3.022,0,4.415-1.4,4.415-4.437q0-23.188,0-46.377c0-3.126-1.344-4.47-4.474-4.47Zm49.739,64.439a5.53,5.53,0,1,0-5.5,5.567A5.576,5.576,0,0,0,754.971,783.744Zm-14.731.087a5.535,5.535,0,1,0-5.59,5.48A5.588,5.588,0,0,0,740.241,783.831Zm-66.292,3.537c0-1.779,0-1.779-1.716-1.779-2.011,0-2.011,0-2.011,2.02,0,1.714,0,1.714,1.753,1.714C673.948,789.323,673.948,789.323,673.948,787.368Zm7.369.1c0-1.88,0-1.88-1.837-1.88h-.111c-1.783,0-1.783,0-1.783,1.81,0,1.924,0,1.924,1.878,1.924C681.317,789.323,681.317,789.323,681.317,787.469Z" transform="translate(-4.569 -4.58)" fill="#e5e8eb"/>
      <path id="Trazado_127771" data-name="Trazado 127771" d="M732.537,924.479c-9.994,0-19.988-.021-29.982.03-1.115.005-1.338-.312-1.3-1.353.08-2.487.016-4.977.029-7.466.009-1.619.623-2.23,2.21-2.238,1.486-.008,2.972,0,4.458,0,.392,0,.639.014.758.537.5,2.2,1.718,3.114,4.06,3.115q14.935.007,29.871,0,4.848,0,9.7,0c2.416,0,3.5-.816,4.112-3.185.125-.481.371-.464.707-.464,1.635,0,3.27-.025,4.9.011a1.678,1.678,0,0,1,1.783,1.742c.045,2.9.009,5.795.036,8.692.007.762-.507.578-.91.579q-5.35.012-10.7,0Z" transform="translate(-31.906 -113.98)" fill="#e3e6e9"/>
      <path id="Trazado_127772" data-name="Trazado 127772" d="M746.159,904.316c-6.392,0-12.784-.015-19.176.019-.813,0-1.094-.167-1.06-1.03.072-1.818.046-3.641.009-5.461-.013-.638.1-.909.835-.907q19.455.035,38.91,0c.749,0,.838.291.826.915-.033,1.82-.064,3.644.011,5.461.036.877-.268,1.025-1.069,1.021C759.017,904.3,752.588,904.316,746.159,904.316Z" transform="translate(-45.552 -104.851)" fill="#aab1bb"/>
      <path id="Trazado_127773" data-name="Trazado 127773" d="M732.451,946.269c9.919,0,19.837-.011,29.756.032.495,0,1.426-.6,1.537.579.168,1.786-.287,2.748-1.419,2.974a5.726,5.726,0,0,1-1.109.063q-28.753,0-57.506,0c-2.118,0-3.014-1.177-2.55-3.252.118-.526.459-.389.756-.391,1.337-.014,2.675-.006,4.012-.006Z" transform="translate(-31.791 -132.07)" fill="#aab1bb"/>
      <path id="Trazado_127774" data-name="Trazado 127774" d="M737.908,875.7c0,.891-.07,1.789.02,2.671.094.93-.295,1.081-1.119,1.068-2.545-.04-2.545-.008-2.545-2.521v-3.675a1.54,1.54,0,0,1,.01-.553c.562-1.338,1.706-.351,2.553-.592.378-.107,1.111-.336,1.087.595C737.888,873.7,737.908,874.7,737.908,875.7Z" transform="translate(-50.155 -91.044)" fill="#f3d47d"/>
      <path id="Trazado_127775" data-name="Trazado 127775" d="M770.893,875.965c0,.928-.034,1.857.012,2.783.03.6-.2.727-.763.744-2.891.09-2.891.106-2.891-2.725,0-1.3.024-2.6-.011-3.9-.016-.583.185-.741.762-.762,2.891-.107,2.891-.125,2.891,2.744Q770.893,875.409,770.893,875.965Z" transform="translate(-68.405 -91.101)" fill="#f3d47d"/>
      <path id="Trazado_127776" data-name="Trazado 127776" d="M800.225,875.814c0-1,.015-2-.006-3.006-.01-.462.13-.711.628-.652a1.547,1.547,0,0,0,.223,0c2.8-.078,2.8-.078,2.8,2.714,0,1.3-.027,2.6.012,3.9.017.585-.169.741-.752.76-2.905.1-2.9.114-2.9-2.822Q800.224,876.259,800.225,875.814Z" transform="translate(-86.646 -91.134)" fill="#f3d47d"/>
      <path id="Trazado_127777" data-name="Trazado 127777" d="M709.778,723.834h45.268c3.13,0,4.474,1.344,4.474,4.47q0,23.188,0,46.377c0,3.034-1.393,4.437-4.415,4.437q-45.324,0-90.648,0c-3.028,0-4.417-1.4-4.417-4.434q0-23.244,0-46.488c0-2.977,1.381-4.362,4.357-4.362Q687.088,723.832,709.778,723.834Zm1.144,51.461a2.25,2.25,0,0,0,.359.087c7.211,0,14.423-.011,21.634.031.938.005.79-.516.79-1.062q0-22.858.019-45.715c0-.865-.211-1.117-1.1-1.116q-26.485.04-52.97,0c-.9,0-1.2.191-1.187,1.148.05,5.091.024,10.183.024,15.275,0,1.979,0,2.016,1.957,1.968a1.318,1.318,0,0,1,1.448.869c.762,1.65,1.609,3.26,2.426,4.884.354.7.72,1.4,1.186,2.307l5.379-16.087c2.033,3.387,3.958,6.556,5.837,9.752.392.668.706.925,1.217.178a4.3,4.3,0,0,1,4.6-1.887,1.545,1.545,0,0,0,.445,0c2.529-.329,4.767.1,6.288,2.4.037.056.123.08.224.142.155-.2.326-.389.467-.6,2.125-3.18,4.267-6.348,6.35-9.555.467-.718.732-.684,1.274-.1,1.116,1.193,2.316,2.309,3.45,3.487a1.7,1.7,0,0,0,1.37.569c1.635-.03,3.271-.01,4.907-.01,2.849,0,2.827,0,2.765,2.879-.013.639-.2.819-.823.809-2.155-.034-4.321-.134-6.465.023-1.929.141-3.484-.268-4.609-1.913-.48-.7-.828-.678-1.328.1-2.055,3.181-4.2,6.306-6.274,9.473-.379.577-.624.713-1.126.134-.583-.673-1.347-1.2-1.864-1.915a5.225,5.225,0,0,0-5.383-2.218,2.358,2.358,0,0,0-1.555.661c-1.337,1.389-2.72,2.735-4.128,4.141l-4.679-7.763c-1.06,3.179-2.052,6.147-3.04,9.117-.407,1.224-.4,1.227.93,1.227h37.692c2.661,0,2.616,0,2.66,2.659.015.892-.3,1.026-1.082,1.014-2.9-.043-5.8-.006-8.7-.026-.681-.005-.925.107-.452.767.562.784,1.1,1.591,1.6,2.412a1.113,1.113,0,0,0,1.1.558c1.6-.027,3.2-.01,4.795-.01,2.789,0,2.76,0,2.728,2.806-.008.722-.255.854-.9.848q-4.293-.044-8.586,0a1.291,1.291,0,0,1-1.24-.719c-.65-1.033-1.35-2.035-2.084-3.131Zm26.5-23.8c0,7.618.011,15.236-.017,22.854,0,.785.124,1.075,1.008,1.067q8.195-.07,16.39,0c.857.007,1.031-.244,1.03-1.057q-.038-22.854,0-45.709c0-.836-.161-1.141-1.079-1.133q-8.139.068-16.279,0c-.927-.008-1.07.3-1.067,1.127C737.437,736.258,737.426,743.876,737.426,751.494Zm-73.681-.021q0,11.426-.006,22.851c0,.631-.066,1.11.875,1.091,3.121-.063,6.243-.04,9.364-.01.631.006.807-.179.806-.807q-.029-12.095,0-24.189c0-.692-.272-.781-.85-.764-1.225.035-2.453.011-3.679.011-2.985,0-2.966,0-2.867-2.992.02-.592.189-.755.766-.745,1.894.032,3.791-.014,5.685.026.682.014.956-.11.951-.889q-.056-8.3,0-16.609c0-.727-.192-.936-.924-.926-3.01.041-6.02.05-9.03,0-.875-.016-1.112.224-1.108,1.105C663.76,736.238,663.745,743.855,663.745,751.473Zm25.778,23.57-4.234-6.329c-.224-.334-.394-.669-.907-.707-.741-.055-1.757.423-2.156-.273-.338-.59-.082-1.52-.089-2.3a.846.846,0,0,0,0-.111c-.1-.7.126-1,.895-.953a26.7,26.7,0,0,0,3.008,0,1.251,1.251,0,0,1,1.26.682c.679,1.093,1.425,2.146,2.222,3.332.8-1.2,1.539-2.253,2.222-3.343a1.3,1.3,0,0,1,1.267-.672q6.745.04,13.489,0a1.036,1.036,0,0,1,1.1.686c.71,1.5,1.484,2.979,2.3,4.593l5.128-8.988h-1.416q-13.935,0-27.87.017a1.425,1.425,0,0,1-1.523-.914c-1.534-3.172-3.135-6.312-4.714-9.461-.144-.287-.218-.683-.665-.627-.526.066-.34.5-.341.793-.01,8.026,0,16.051-.024,24.077,0,.711.231.859.892.858q14.158-.029,28.316,0c.778,0,.9-.172.54-.86-.992-1.909-1.965-3.828-2.881-5.773a1.19,1.19,0,0,0-1.291-.76q-4.459.042-8.918,0a1.471,1.471,0,0,0-1.441.757C692.369,770.827,690.986,772.85,689.523,775.043Z" transform="translate(-9.114 -9.109)" fill="#030404"/>
      <path id="Trazado_127778" data-name="Trazado 127778" d="M868.94,861.206a5.53,5.53,0,1,1-5.556-5.508A5.572,5.572,0,0,1,868.94,861.206Zm-5.56,1.838a1.812,1.812,0,0,0,.11-3.622,1.812,1.812,0,1,0-.11,3.622Z" transform="translate(-118.538 -82.043)" fill="#030404"/>
      <path id="Trazado_127779" data-name="Trazado 127779" d="M835.965,861.292a5.535,5.535,0,1,1-5.476-5.6A5.587,5.587,0,0,1,835.965,861.292Zm-3.727-.02a1.814,1.814,0,1,0-1.876,1.771A1.772,1.772,0,0,0,832.238,861.272Z" transform="translate(-100.293 -82.042)" fill="#030404"/>
      <path id="Trazado_127780" data-name="Trazado 127780" d="M696.718,873.931c0,1.954,0,1.954-1.974,1.954-1.753,0-1.753,0-1.753-1.714,0-2.02,0-2.02,2.011-2.02C696.717,872.152,696.717,872.152,696.718,873.931Z" transform="translate(-27.339 -91.143)" fill="#0c0d0d"/>
      <path id="Trazado_127781" data-name="Trazado 127781" d="M713.2,874.032c0,1.854,0,1.854-1.853,1.854-1.878,0-1.878,0-1.878-1.924,0-1.81,0-1.81,1.783-1.81h.111C713.2,872.152,713.2,872.152,713.2,874.032Z" transform="translate(-36.454 -91.143)" fill="#0c0d0d"/>
      <path id="Trazado_127782" data-name="Trazado 127782" d="M733.723,779.856l6.347-11.1c.734,1.1,1.434,2.1,2.084,3.132a1.291,1.291,0,0,0,1.24.719q4.292-.054,8.586,0c.648.007.895-.126.9-.848.032-2.806.061-2.806-2.728-2.806-1.6,0-3.2-.017-4.795.01a1.113,1.113,0,0,1-1.1-.558c-.506-.821-1.039-1.628-1.6-2.412-.472-.66-.228-.772.452-.767,2.9.02,5.8-.017,8.7.026.786.012,1.1-.122,1.082-1.014-.044-2.658,0-2.659-2.66-2.659H712.535c-1.333,0-1.337,0-.93-1.227.988-2.97,1.98-5.939,3.04-9.117l4.679,7.763c1.408-1.406,2.79-2.751,4.128-4.141a2.358,2.358,0,0,1,1.555-.661,5.225,5.225,0,0,1,5.383,2.218c.517.713,1.281,1.242,1.864,1.915.5.58.747.444,1.126-.134,2.078-3.167,4.219-6.292,6.274-9.473.5-.774.847-.8,1.328-.1,1.125,1.645,2.68,2.054,4.609,1.913,2.144-.156,4.309-.057,6.465-.023.626.01.81-.17.823-.809.062-2.88.084-2.88-2.765-2.88-1.636,0-3.272-.02-4.907.01a1.7,1.7,0,0,1-1.37-.569c-1.134-1.178-2.334-2.294-3.45-3.487-.542-.579-.808-.614-1.274.1-2.083,3.207-4.226,6.376-6.35,9.555-.142.212-.313.4-.467.6-.1-.062-.187-.086-.224-.142-1.521-2.309-3.759-2.734-6.288-2.4a1.545,1.545,0,0,1-.445,0,4.3,4.3,0,0,0-4.6,1.887c-.512.747-.825.489-1.217-.178-1.878-3.2-3.8-6.365-5.837-9.752l-5.379,16.087c-.466-.906-.832-1.6-1.186-2.307-.817-1.624-1.664-3.235-2.426-4.884a1.318,1.318,0,0,0-1.448-.869c-1.956.049-1.957.011-1.957-1.968,0-5.092.026-10.184-.024-15.275-.009-.957.286-1.149,1.188-1.148q26.485.04,52.97,0c.89,0,1.1.251,1.1,1.116q-.039,22.857-.019,45.715c0,.546.148,1.068-.79,1.062-7.211-.042-14.423-.026-21.634-.031A2.25,2.25,0,0,1,733.723,779.856Zm-4.83-44.1h-21.62c-2.339,0-2.284,0-2.363,2.383-.035,1.045.2,1.364,1.315,1.361q22.065-.062,44.131-.028c2.514,0,2.471,0,2.53-2.568.021-.914-.207-1.176-1.147-1.171C744.124,735.779,736.509,735.761,728.894,735.761Z" transform="translate(-31.916 -13.671)" fill="#7cd1b3"/>
      <path id="Trazado_127783" data-name="Trazado 127783" d="M833.176,756.046c0-7.618.012-15.236-.017-22.854,0-.823.14-1.136,1.067-1.127q8.139.074,16.279,0c.918-.008,1.08.3,1.079,1.133q-.034,22.855,0,45.709c0,.814-.173,1.064-1.03,1.057q-8.2-.064-16.39,0c-.884.008-1.01-.282-1.008-1.067C833.188,771.283,833.176,763.665,833.176,756.046Zm9.271-12.931h-2.9c-2.783,0-2.746,0-2.751,2.783,0,.843.325.963,1.045.952,2.414-.036,4.829-.013,7.244-.013,2.906,0,2.874,0,2.842-2.912-.008-.749-.291-.837-.914-.823C845.495,743.139,843.971,743.115,842.448,743.115Zm-.055,25.825h2.676c2.916,0,2.888,0,2.861-2.89-.007-.707-.22-.867-.888-.857-2.489.038-4.98.015-7.47.015-2.845,0-2.819,0-2.767,2.883.013.707.248.878.907.861C839.269,768.913,840.831,768.94,842.392,768.94Z" transform="translate(-104.865 -13.662)" fill="#83d3ef"/>
      <path id="Trazado_127784" data-name="Trazado 127784" d="M668.3,756.029c0-7.618.015-15.235-.021-22.852,0-.881.233-1.121,1.108-1.105,3.009.054,6.02.044,9.03,0,.733-.01.928.2.924.926q-.044,8.3,0,16.609c0,.779-.269.9-.951.889-1.894-.04-3.791.006-5.685-.026-.577-.01-.746.153-.766.745-.1,2.993-.118,2.992,2.867,2.992,1.226,0,2.454.025,3.679-.011.578-.017.853.072.85.764q-.036,12.095,0,24.189c0,.628-.175.813-.806.807-3.122-.03-6.244-.053-9.365.01-.94.019-.875-.459-.875-1.091Q668.313,767.455,668.3,756.029Z" transform="translate(-13.674 -13.666)" fill="#83d3ef"/>
      <path id="Trazado_127785" data-name="Trazado 127785" d="M712.324,807.022c1.464-2.193,2.846-4.216,4.167-6.277a1.471,1.471,0,0,1,1.441-.757q4.459.052,8.918,0a1.19,1.19,0,0,1,1.291.76c.916,1.945,1.889,3.864,2.881,5.773.358.688.238.862-.54.86q-14.158-.029-28.316,0c-.661,0-.894-.147-.892-.858.025-8.026.013-16.051.024-24.077,0-.289-.185-.727.341-.793.446-.055.521.341.665.627,1.579,3.15,3.18,6.29,4.714,9.461a1.425,1.425,0,0,0,1.523.914q13.935-.04,27.87-.017h1.416l-5.128,8.988c-.814-1.615-1.588-3.089-2.3-4.593a1.036,1.036,0,0,0-1.1-.686q-6.745.033-13.489,0a1.3,1.3,0,0,0-1.267.672c-.683,1.09-1.421,2.146-2.222,3.343-.8-1.186-1.542-2.239-2.222-3.332a1.251,1.251,0,0,0-1.26-.682,26.691,26.691,0,0,1-3.008,0c-.769-.051-1,.257-.895.953a.836.836,0,0,1,0,.111c.007.78-.249,1.711.089,2.3.4.7,1.415.219,2.156.274.513.038.683.374.907.707Z" transform="translate(-31.916 -41.088)" fill="#7bcfb2"/>
      <path id="Trazado_127786" data-name="Trazado 127786" d="M867.967,867.652a1.812,1.812,0,1,1,1.84-1.81A1.785,1.785,0,0,1,867.967,867.652Z" transform="translate(-123.124 -86.65)" fill="#7aceb1"/>
      <path id="Trazado_127787" data-name="Trazado 127787" d="M836.839,865.883a1.814,1.814,0,0,1-3.627-.021,1.814,1.814,0,1,1,3.627.021Z" transform="translate(-104.894 -86.652)" fill="#7aceb1"/>
      <path id="Trazado_127788" data-name="Trazado 127788" d="M733.4,740.288c7.615,0,15.231.018,22.845-.022.94,0,1.168.257,1.147,1.171-.058,2.567-.015,2.568-2.529,2.568q-22.066,0-44.131.028c-1.113,0-1.35-.316-1.315-1.361.08-2.381.024-2.383,2.363-2.383Z" transform="translate(-36.422 -18.198)" fill="#040605"/>
      <path id="Trazado_127789" data-name="Trazado 127789" d="M846.952,756.774c1.523,0,3.047.024,4.569-.012.623-.015.906.074.914.823.031,2.912.064,2.912-2.842,2.912-2.415,0-4.83-.022-7.244.013-.72.011-1.047-.109-1.045-.952,0-2.783-.032-2.783,2.751-2.783Z" transform="translate(-109.37 -27.321)" fill="#050809"/>
      <path id="Trazado_127790" data-name="Trazado 127790" d="M846.886,809.94c-1.561,0-3.123-.027-4.683.013-.659.017-.894-.154-.907-.861-.051-2.884-.077-2.883,2.767-2.883,2.49,0,4.981.022,7.47-.015.669-.01.882.15.888.857.028,2.89.055,2.89-2.861,2.89Z" transform="translate(-109.359 -54.662)" fill="#050809"/>
    </g>
  </g>
</svg>
