<svg xmlns="http://www.w3.org/2000/svg" width="53.329" height="52" viewBox="0 0 53.329 52">
  <g id="Grupo_85251" data-name="Grupo 85251" transform="translate(-2013.839 322.668)">
    <path id="Trazado_125214" data-name="Trazado 125214" d="M2049.43-275.623c-1.1.341-2.109.673-3.132.962a3.662,3.662,0,0,1-.982.076c-8.106,0-16.211.017-24.317-.005a7.13,7.13,0,0,1-6.971-5.617,7.334,7.334,0,0,1-.179-1.6q-.02-7.132-.007-14.264a7.164,7.164,0,0,1,5.2-7.044c.31-.1.35-.256.349-.525-.007-1.718-.015-3.436,0-5.154a13.831,13.831,0,0,1,10.872-13.546,13.78,13.78,0,0,1,16.486,10.968,33.6,33.6,0,0,1,.25,4.4c.037,1.109.016,2.221,0,3.331a.448.448,0,0,0,.365.517,7.092,7.092,0,0,1,5.156,6.217c.013.1.043.2.077.353.726-.364,1.425-.7,2.108-1.06a1.86,1.86,0,0,1,1.835-.015q4.777,2.42,9.565,4.819a1.776,1.776,0,0,1,1.067,1.7,22.961,22.961,0,0,1-10.068,19.782c-1.215.873-1.665.863-2.9.019a22.933,22.933,0,0,1-4.456-3.972C2049.6-275.432,2049.465-275.584,2049.43-275.623Zm-2.058-2.889-.279-.5a23.209,23.209,0,0,1-3-12.063,1.832,1.832,0,0,1,1.136-1.762c1.048-.5,2.055-1.091,3.122-1.543a1.326,1.326,0,0,0,.9-1.485,3.972,3.972,0,0,0-4.242-4.229q-11.82,0-23.64,0a3.909,3.909,0,0,0-4.2,4.191q0,6.9,0,13.8a3.894,3.894,0,0,0,4.191,4.19q4.5.005,9.008,0,7.368,0,14.736,0A4.02,4.02,0,0,0,2047.372-278.512Zm8.237,4.142a19.614,19.614,0,0,0,8.233-15.506c.009-.356-.208-.43-.437-.546-2.46-1.241-4.917-2.49-7.387-3.71a.972.972,0,0,0-.754,0c-2.5,1.234-4.989,2.5-7.486,3.746a.52.52,0,0,0-.346.6c.164,1.253.217,2.53.491,3.758A19.408,19.408,0,0,0,2055.609-274.37Zm-16.992-29.084c0-1.947.072-3.87-.017-5.786a5.374,5.374,0,0,0-5.534-5.027,5.386,5.386,0,0,0-5.273,5.191c-.038,1.317-.013,2.635-.016,3.953,0,.549,0,1.1,0,1.67Zm-14.175,0v-.576c0-1.561-.018-3.123.009-4.684a9.955,9.955,0,0,1,.189-1.961,8.762,8.762,0,0,1,9.432-6.9,8.787,8.787,0,0,1,7.892,8.784c.006,1.6,0,3.192,0,4.788v.542h1.7c0-.883.007-1.732,0-2.579a37.89,37.89,0,0,0-.076-4,10.428,10.428,0,0,0-10.226-9.27,10.315,10.315,0,0,0-10.421,8.647,62.487,62.487,0,0,0-.2,7.112c0,.029.033.058.077.131.369,0,.766,0,1.161,0C2024.11-303.43,2024.245-303.446,2024.442-303.458Z" transform="translate(0 0)" fill="#583ae2"/>
    <path id="Trazado_125215" data-name="Trazado 125215" d="M2087.169-183.9a.925.925,0,0,1,0-.1,2.151,2.151,0,0,0-1.127-2.418,4.419,4.419,0,0,1-1.452-5.643,4.689,4.689,0,0,1,5.217-2.61,4.663,4.663,0,0,1,3.706,4.605,4.536,4.536,0,0,1-2.591,4.145.663.663,0,0,0-.422.707c.016.919.023,1.84-.009,2.759a1.685,1.685,0,0,1-1.712,1.667,1.679,1.679,0,0,1-1.614-1.755c-.006-.451,0-.9,0-1.353Zm1.668-4.867a1.34,1.34,0,0,0,1.346-1.358,1.349,1.349,0,0,0-1.349-1.307,1.331,1.331,0,0,0-1.338,1.361A1.326,1.326,0,0,0,2088.837-188.77Z" transform="translate(-55.636 -101.21)" fill="#583ae2"/>
    <path id="Trazado_125216" data-name="Trazado 125216" d="M2195.584-157.581c1.147-1.108,2.355-2.3,3.6-3.455a2.4,2.4,0,0,1,1.063-.583,1.557,1.557,0,0,1,1.723.876,1.634,1.634,0,0,1-.309,1.92c-.521.533-1.068,1.041-1.6,1.559q-1.627,1.574-3.255,3.147a1.718,1.718,0,0,1-2.786-.044q-1.187-1.24-2.368-2.487a1.676,1.676,0,0,1-.043-2.454,1.7,1.7,0,0,1,2.455.149C2194.529-158.492,2195.037-158.07,2195.584-157.581Z" transform="translate(-140.281 -127.432)" fill="#583ae2"/>
  </g>
</svg>
